%TF.GenerationSoftware,KiCad,Pcbnew,5.1.7-a382d34a8~87~ubuntu18.04.1*%
%TF.CreationDate,2023-01-07T11:56:03-08:00*%
%TF.ProjectId,potentiostat,706f7465-6e74-4696-9f73-7461742e6b69,rev?*%
%TF.SameCoordinates,Original*%
%TF.FileFunction,Legend,Top*%
%TF.FilePolarity,Positive*%
%FSLAX46Y46*%
G04 Gerber Fmt 4.6, Leading zero omitted, Abs format (unit mm)*
G04 Created by KiCad (PCBNEW 5.1.7-a382d34a8~87~ubuntu18.04.1) date 2023-01-07 11:56:03*
%MOMM*%
%LPD*%
G01*
G04 APERTURE LIST*
%ADD10C,0.203200*%
%ADD11C,0.381000*%
%ADD12C,0.152400*%
%ADD13C,0.120000*%
%ADD14C,0.304800*%
%ADD15C,0.200000*%
%ADD16C,0.150000*%
%ADD17C,0.254000*%
G04 APERTURE END LIST*
D10*
X53642380Y-107623428D02*
X54658380Y-107623428D01*
X54658380Y-108300761D02*
X54658380Y-108494285D01*
X54610000Y-108591047D01*
X54513238Y-108687809D01*
X54319714Y-108736190D01*
X53981047Y-108736190D01*
X53787523Y-108687809D01*
X53690761Y-108591047D01*
X53642380Y-108494285D01*
X53642380Y-108300761D01*
X53690761Y-108204000D01*
X53787523Y-108107238D01*
X53981047Y-108058857D01*
X54319714Y-108058857D01*
X54513238Y-108107238D01*
X54610000Y-108204000D01*
X54658380Y-108300761D01*
X53642380Y-110526285D02*
X54126190Y-110187619D01*
X53642380Y-109945714D02*
X54658380Y-109945714D01*
X54658380Y-110332761D01*
X54610000Y-110429523D01*
X54561619Y-110477904D01*
X54464857Y-110526285D01*
X54319714Y-110526285D01*
X54222952Y-110477904D01*
X54174571Y-110429523D01*
X54126190Y-110332761D01*
X54126190Y-109945714D01*
X53642380Y-111106857D02*
X53690761Y-111010095D01*
X53739142Y-110961714D01*
X53835904Y-110913333D01*
X54126190Y-110913333D01*
X54222952Y-110961714D01*
X54271333Y-111010095D01*
X54319714Y-111106857D01*
X54319714Y-111252000D01*
X54271333Y-111348761D01*
X54222952Y-111397142D01*
X54126190Y-111445523D01*
X53835904Y-111445523D01*
X53739142Y-111397142D01*
X53690761Y-111348761D01*
X53642380Y-111252000D01*
X53642380Y-111106857D01*
X53642380Y-112316380D02*
X54658380Y-112316380D01*
X53690761Y-112316380D02*
X53642380Y-112219619D01*
X53642380Y-112026095D01*
X53690761Y-111929333D01*
X53739142Y-111880952D01*
X53835904Y-111832571D01*
X54126190Y-111832571D01*
X54222952Y-111880952D01*
X54271333Y-111929333D01*
X54319714Y-112026095D01*
X54319714Y-112219619D01*
X54271333Y-112316380D01*
X53690761Y-113187238D02*
X53642380Y-113090476D01*
X53642380Y-112896952D01*
X53690761Y-112800190D01*
X53787523Y-112751809D01*
X54174571Y-112751809D01*
X54271333Y-112800190D01*
X54319714Y-112896952D01*
X54319714Y-113090476D01*
X54271333Y-113187238D01*
X54174571Y-113235619D01*
X54077809Y-113235619D01*
X53981047Y-112751809D01*
X53642380Y-113816190D02*
X53690761Y-113719428D01*
X53739142Y-113671047D01*
X53835904Y-113622666D01*
X54126190Y-113622666D01*
X54222952Y-113671047D01*
X54271333Y-113719428D01*
X54319714Y-113816190D01*
X54319714Y-113961333D01*
X54271333Y-114058095D01*
X54222952Y-114106476D01*
X54126190Y-114154857D01*
X53835904Y-114154857D01*
X53739142Y-114106476D01*
X53690761Y-114058095D01*
X53642380Y-113961333D01*
X53642380Y-113816190D01*
X53642380Y-115364380D02*
X54658380Y-115364380D01*
X54319714Y-115848190D02*
X53642380Y-115848190D01*
X54222952Y-115848190D02*
X54271333Y-115896571D01*
X54319714Y-115993333D01*
X54319714Y-116138476D01*
X54271333Y-116235238D01*
X54174571Y-116283619D01*
X53642380Y-116283619D01*
X53690761Y-117202857D02*
X53642380Y-117106095D01*
X53642380Y-116912571D01*
X53690761Y-116815809D01*
X53739142Y-116767428D01*
X53835904Y-116719047D01*
X54126190Y-116719047D01*
X54222952Y-116767428D01*
X54271333Y-116815809D01*
X54319714Y-116912571D01*
X54319714Y-117106095D01*
X54271333Y-117202857D01*
X53739142Y-117638285D02*
X53690761Y-117686666D01*
X53642380Y-117638285D01*
X53690761Y-117589904D01*
X53739142Y-117638285D01*
X53642380Y-117638285D01*
X54319714Y-119573523D02*
X53642380Y-119767047D01*
X54126190Y-119960571D01*
X53642380Y-120154095D01*
X54319714Y-120347619D01*
X54319714Y-120637904D02*
X53642380Y-120831428D01*
X54126190Y-121024952D01*
X53642380Y-121218476D01*
X54319714Y-121412000D01*
X54319714Y-121702285D02*
X53642380Y-121895809D01*
X54126190Y-122089333D01*
X53642380Y-122282857D01*
X54319714Y-122476380D01*
X53739142Y-122863428D02*
X53690761Y-122911809D01*
X53642380Y-122863428D01*
X53690761Y-122815047D01*
X53739142Y-122863428D01*
X53642380Y-122863428D01*
X53642380Y-123347238D02*
X54319714Y-123347238D01*
X54658380Y-123347238D02*
X54610000Y-123298857D01*
X54561619Y-123347238D01*
X54610000Y-123395619D01*
X54658380Y-123347238D01*
X54561619Y-123347238D01*
X53642380Y-123976190D02*
X53690761Y-123879428D01*
X53739142Y-123831047D01*
X53835904Y-123782666D01*
X54126190Y-123782666D01*
X54222952Y-123831047D01*
X54271333Y-123879428D01*
X54319714Y-123976190D01*
X54319714Y-124121333D01*
X54271333Y-124218095D01*
X54222952Y-124266476D01*
X54126190Y-124314857D01*
X53835904Y-124314857D01*
X53739142Y-124266476D01*
X53690761Y-124218095D01*
X53642380Y-124121333D01*
X53642380Y-123976190D01*
X53642380Y-124750285D02*
X54319714Y-124750285D01*
X54126190Y-124750285D02*
X54222952Y-124798666D01*
X54271333Y-124847047D01*
X54319714Y-124943809D01*
X54319714Y-125040571D01*
X53642380Y-125524380D02*
X53690761Y-125427619D01*
X53739142Y-125379238D01*
X53835904Y-125330857D01*
X54126190Y-125330857D01*
X54222952Y-125379238D01*
X54271333Y-125427619D01*
X54319714Y-125524380D01*
X54319714Y-125669523D01*
X54271333Y-125766285D01*
X54222952Y-125814666D01*
X54126190Y-125863047D01*
X53835904Y-125863047D01*
X53739142Y-125814666D01*
X53690761Y-125766285D01*
X53642380Y-125669523D01*
X53642380Y-125524380D01*
X53642380Y-126733904D02*
X54658380Y-126733904D01*
X53690761Y-126733904D02*
X53642380Y-126637142D01*
X53642380Y-126443619D01*
X53690761Y-126346857D01*
X53739142Y-126298476D01*
X53835904Y-126250095D01*
X54126190Y-126250095D01*
X54222952Y-126298476D01*
X54271333Y-126346857D01*
X54319714Y-126443619D01*
X54319714Y-126637142D01*
X54271333Y-126733904D01*
X53690761Y-127604761D02*
X53642380Y-127508000D01*
X53642380Y-127314476D01*
X53690761Y-127217714D01*
X53787523Y-127169333D01*
X54174571Y-127169333D01*
X54271333Y-127217714D01*
X54319714Y-127314476D01*
X54319714Y-127508000D01*
X54271333Y-127604761D01*
X54174571Y-127653142D01*
X54077809Y-127653142D01*
X53981047Y-127169333D01*
X53642380Y-128233714D02*
X53690761Y-128136952D01*
X53739142Y-128088571D01*
X53835904Y-128040190D01*
X54126190Y-128040190D01*
X54222952Y-128088571D01*
X54271333Y-128136952D01*
X54319714Y-128233714D01*
X54319714Y-128378857D01*
X54271333Y-128475619D01*
X54222952Y-128524000D01*
X54126190Y-128572380D01*
X53835904Y-128572380D01*
X53739142Y-128524000D01*
X53690761Y-128475619D01*
X53642380Y-128378857D01*
X53642380Y-128233714D01*
X53739142Y-129007809D02*
X53690761Y-129056190D01*
X53642380Y-129007809D01*
X53690761Y-128959428D01*
X53739142Y-129007809D01*
X53642380Y-129007809D01*
X53690761Y-129927047D02*
X53642380Y-129830285D01*
X53642380Y-129636761D01*
X53690761Y-129540000D01*
X53739142Y-129491619D01*
X53835904Y-129443238D01*
X54126190Y-129443238D01*
X54222952Y-129491619D01*
X54271333Y-129540000D01*
X54319714Y-129636761D01*
X54319714Y-129830285D01*
X54271333Y-129927047D01*
X53642380Y-130507619D02*
X53690761Y-130410857D01*
X53739142Y-130362476D01*
X53835904Y-130314095D01*
X54126190Y-130314095D01*
X54222952Y-130362476D01*
X54271333Y-130410857D01*
X54319714Y-130507619D01*
X54319714Y-130652761D01*
X54271333Y-130749523D01*
X54222952Y-130797904D01*
X54126190Y-130846285D01*
X53835904Y-130846285D01*
X53739142Y-130797904D01*
X53690761Y-130749523D01*
X53642380Y-130652761D01*
X53642380Y-130507619D01*
X53642380Y-131281714D02*
X54319714Y-131281714D01*
X54222952Y-131281714D02*
X54271333Y-131330095D01*
X54319714Y-131426857D01*
X54319714Y-131572000D01*
X54271333Y-131668761D01*
X54174571Y-131717142D01*
X53642380Y-131717142D01*
X54174571Y-131717142D02*
X54271333Y-131765523D01*
X54319714Y-131862285D01*
X54319714Y-132007428D01*
X54271333Y-132104190D01*
X54174571Y-132152571D01*
X53642380Y-132152571D01*
X139651619Y-131625219D02*
X139651619Y-132447695D01*
X139700000Y-132544457D01*
X139748380Y-132592838D01*
X139845142Y-132641219D01*
X140038666Y-132641219D01*
X140135428Y-132592838D01*
X140183809Y-132544457D01*
X140232190Y-132447695D01*
X140232190Y-131625219D01*
X140716000Y-132641219D02*
X140716000Y-131625219D01*
X141296571Y-132641219D01*
X141296571Y-131625219D01*
X141780380Y-132641219D02*
X141780380Y-131625219D01*
X151316266Y-132109028D02*
X151461409Y-132157409D01*
X151509790Y-132205790D01*
X151558171Y-132302552D01*
X151558171Y-132447695D01*
X151509790Y-132544457D01*
X151461409Y-132592838D01*
X151364647Y-132641219D01*
X150977600Y-132641219D01*
X150977600Y-131625219D01*
X151316266Y-131625219D01*
X151413028Y-131673600D01*
X151461409Y-131721980D01*
X151509790Y-131818742D01*
X151509790Y-131915504D01*
X151461409Y-132012266D01*
X151413028Y-132060647D01*
X151316266Y-132109028D01*
X150977600Y-132109028D01*
X151993600Y-132641219D02*
X151993600Y-131625219D01*
X152477409Y-132641219D02*
X152477409Y-131625219D01*
X152864457Y-131625219D01*
X152961219Y-131673600D01*
X153009600Y-131721980D01*
X153057980Y-131818742D01*
X153057980Y-131963885D01*
X153009600Y-132060647D01*
X152961219Y-132109028D01*
X152864457Y-132157409D01*
X152477409Y-132157409D01*
X161527066Y-59617428D02*
X161672209Y-59665809D01*
X161720590Y-59714190D01*
X161768971Y-59810952D01*
X161768971Y-59956095D01*
X161720590Y-60052857D01*
X161672209Y-60101238D01*
X161575447Y-60149619D01*
X161188400Y-60149619D01*
X161188400Y-59133619D01*
X161527066Y-59133619D01*
X161623828Y-59182000D01*
X161672209Y-59230380D01*
X161720590Y-59327142D01*
X161720590Y-59423904D01*
X161672209Y-59520666D01*
X161623828Y-59569047D01*
X161527066Y-59617428D01*
X161188400Y-59617428D01*
X162204400Y-60149619D02*
X162204400Y-59133619D01*
X162688209Y-60149619D02*
X162688209Y-59133619D01*
X163075257Y-59133619D01*
X163172019Y-59182000D01*
X163220400Y-59230380D01*
X163268780Y-59327142D01*
X163268780Y-59472285D01*
X163220400Y-59569047D01*
X163172019Y-59617428D01*
X163075257Y-59665809D01*
X162688209Y-59665809D01*
X152978152Y-59871428D02*
X153123295Y-59919809D01*
X153171676Y-59968190D01*
X153220057Y-60064952D01*
X153220057Y-60210095D01*
X153171676Y-60306857D01*
X153123295Y-60355238D01*
X153026533Y-60403619D01*
X152639485Y-60403619D01*
X152639485Y-59387619D01*
X152978152Y-59387619D01*
X153074914Y-59436000D01*
X153123295Y-59484380D01*
X153171676Y-59581142D01*
X153171676Y-59677904D01*
X153123295Y-59774666D01*
X153074914Y-59823047D01*
X152978152Y-59871428D01*
X152639485Y-59871428D01*
X153655485Y-59387619D02*
X153655485Y-60210095D01*
X153703866Y-60306857D01*
X153752247Y-60355238D01*
X153849009Y-60403619D01*
X154042533Y-60403619D01*
X154139295Y-60355238D01*
X154187676Y-60306857D01*
X154236057Y-60210095D01*
X154236057Y-59387619D01*
X155058533Y-59871428D02*
X154719866Y-59871428D01*
X154719866Y-60403619D02*
X154719866Y-59387619D01*
X155203676Y-59387619D01*
X144782419Y-59336819D02*
X144782419Y-60159295D01*
X144830800Y-60256057D01*
X144879180Y-60304438D01*
X144975942Y-60352819D01*
X145169466Y-60352819D01*
X145266228Y-60304438D01*
X145314609Y-60256057D01*
X145362990Y-60159295D01*
X145362990Y-59336819D01*
X145846800Y-60352819D02*
X145846800Y-59336819D01*
X146427371Y-60352819D01*
X146427371Y-59336819D01*
X146911180Y-60352819D02*
X146911180Y-59336819D01*
X135435219Y-59566628D02*
X135580361Y-59615009D01*
X135628742Y-59663390D01*
X135677123Y-59760152D01*
X135677123Y-59905295D01*
X135628742Y-60002057D01*
X135580361Y-60050438D01*
X135483600Y-60098819D01*
X135096552Y-60098819D01*
X135096552Y-59082819D01*
X135435219Y-59082819D01*
X135531980Y-59131200D01*
X135580361Y-59179580D01*
X135628742Y-59276342D01*
X135628742Y-59373104D01*
X135580361Y-59469866D01*
X135531980Y-59518247D01*
X135435219Y-59566628D01*
X135096552Y-59566628D01*
X136112552Y-60098819D02*
X136112552Y-59082819D01*
X136596361Y-60098819D02*
X136596361Y-59082819D01*
X136983409Y-59082819D01*
X137080171Y-59131200D01*
X137128552Y-59179580D01*
X137176933Y-59276342D01*
X137176933Y-59421485D01*
X137128552Y-59518247D01*
X137080171Y-59566628D01*
X136983409Y-59615009D01*
X136596361Y-59615009D01*
X138386457Y-60098819D02*
X138386457Y-59082819D01*
X138967028Y-60098819D01*
X138967028Y-59082819D01*
X139354076Y-59082819D02*
X140031409Y-60098819D01*
X140031409Y-59082819D02*
X139354076Y-60098819D01*
X110540800Y-59813371D02*
X111314895Y-59813371D01*
X111992228Y-59184419D02*
X112088990Y-59184419D01*
X112185752Y-59232800D01*
X112234133Y-59281180D01*
X112282514Y-59377942D01*
X112330895Y-59571466D01*
X112330895Y-59813371D01*
X112282514Y-60006895D01*
X112234133Y-60103657D01*
X112185752Y-60152038D01*
X112088990Y-60200419D01*
X111992228Y-60200419D01*
X111895466Y-60152038D01*
X111847085Y-60103657D01*
X111798704Y-60006895D01*
X111750323Y-59813371D01*
X111750323Y-59571466D01*
X111798704Y-59377942D01*
X111847085Y-59281180D01*
X111895466Y-59232800D01*
X111992228Y-59184419D01*
X112766323Y-60103657D02*
X112814704Y-60152038D01*
X112766323Y-60200419D01*
X112717942Y-60152038D01*
X112766323Y-60103657D01*
X112766323Y-60200419D01*
X113685561Y-59184419D02*
X113492038Y-59184419D01*
X113395276Y-59232800D01*
X113346895Y-59281180D01*
X113250133Y-59426323D01*
X113201752Y-59619847D01*
X113201752Y-60006895D01*
X113250133Y-60103657D01*
X113298514Y-60152038D01*
X113395276Y-60200419D01*
X113588800Y-60200419D01*
X113685561Y-60152038D01*
X113733942Y-60103657D01*
X113782323Y-60006895D01*
X113782323Y-59764990D01*
X113733942Y-59668228D01*
X113685561Y-59619847D01*
X113588800Y-59571466D01*
X113395276Y-59571466D01*
X113298514Y-59619847D01*
X113250133Y-59668228D01*
X113201752Y-59764990D01*
X114072609Y-59184419D02*
X114411276Y-60200419D01*
X114749942Y-59184419D01*
X102819200Y-59813371D02*
X103593295Y-59813371D01*
X103206247Y-60200419D02*
X103206247Y-59426323D01*
X104270628Y-59184419D02*
X104367390Y-59184419D01*
X104464152Y-59232800D01*
X104512533Y-59281180D01*
X104560914Y-59377942D01*
X104609295Y-59571466D01*
X104609295Y-59813371D01*
X104560914Y-60006895D01*
X104512533Y-60103657D01*
X104464152Y-60152038D01*
X104367390Y-60200419D01*
X104270628Y-60200419D01*
X104173866Y-60152038D01*
X104125485Y-60103657D01*
X104077104Y-60006895D01*
X104028723Y-59813371D01*
X104028723Y-59571466D01*
X104077104Y-59377942D01*
X104125485Y-59281180D01*
X104173866Y-59232800D01*
X104270628Y-59184419D01*
X105044723Y-60103657D02*
X105093104Y-60152038D01*
X105044723Y-60200419D01*
X104996342Y-60152038D01*
X105044723Y-60103657D01*
X105044723Y-60200419D01*
X105963961Y-59184419D02*
X105770438Y-59184419D01*
X105673676Y-59232800D01*
X105625295Y-59281180D01*
X105528533Y-59426323D01*
X105480152Y-59619847D01*
X105480152Y-60006895D01*
X105528533Y-60103657D01*
X105576914Y-60152038D01*
X105673676Y-60200419D01*
X105867200Y-60200419D01*
X105963961Y-60152038D01*
X106012342Y-60103657D01*
X106060723Y-60006895D01*
X106060723Y-59764990D01*
X106012342Y-59668228D01*
X105963961Y-59619847D01*
X105867200Y-59571466D01*
X105673676Y-59571466D01*
X105576914Y-59619847D01*
X105528533Y-59668228D01*
X105480152Y-59764990D01*
X106351009Y-59184419D02*
X106689676Y-60200419D01*
X107028342Y-59184419D01*
X128710266Y-59617428D02*
X128855409Y-59665809D01*
X128903790Y-59714190D01*
X128952171Y-59810952D01*
X128952171Y-59956095D01*
X128903790Y-60052857D01*
X128855409Y-60101238D01*
X128758647Y-60149619D01*
X128371600Y-60149619D01*
X128371600Y-59133619D01*
X128710266Y-59133619D01*
X128807028Y-59182000D01*
X128855409Y-59230380D01*
X128903790Y-59327142D01*
X128903790Y-59423904D01*
X128855409Y-59520666D01*
X128807028Y-59569047D01*
X128710266Y-59617428D01*
X128371600Y-59617428D01*
X129387600Y-60149619D02*
X129387600Y-59133619D01*
X129871409Y-60149619D02*
X129871409Y-59133619D01*
X130258457Y-59133619D01*
X130355219Y-59182000D01*
X130403600Y-59230380D01*
X130451980Y-59327142D01*
X130451980Y-59472285D01*
X130403600Y-59569047D01*
X130355219Y-59617428D01*
X130258457Y-59665809D01*
X129871409Y-59665809D01*
X120093619Y-59286019D02*
X120093619Y-60108495D01*
X120142000Y-60205257D01*
X120190380Y-60253638D01*
X120287142Y-60302019D01*
X120480666Y-60302019D01*
X120577428Y-60253638D01*
X120625809Y-60205257D01*
X120674190Y-60108495D01*
X120674190Y-59286019D01*
X121158000Y-60302019D02*
X121158000Y-59286019D01*
X121738571Y-60302019D01*
X121738571Y-59286019D01*
X122222380Y-60302019D02*
X122222380Y-59286019D01*
X160535257Y-58879619D02*
X160196590Y-58395809D01*
X159954685Y-58879619D02*
X159954685Y-57863619D01*
X160341733Y-57863619D01*
X160438495Y-57912000D01*
X160486876Y-57960380D01*
X160535257Y-58057142D01*
X160535257Y-58202285D01*
X160486876Y-58299047D01*
X160438495Y-58347428D01*
X160341733Y-58395809D01*
X159954685Y-58395809D01*
X160970685Y-58347428D02*
X161309352Y-58347428D01*
X161454495Y-58879619D02*
X160970685Y-58879619D01*
X160970685Y-57863619D01*
X161454495Y-57863619D01*
X162228590Y-58347428D02*
X161889923Y-58347428D01*
X161889923Y-58879619D02*
X161889923Y-57863619D01*
X162373733Y-57863619D01*
X162760780Y-58492571D02*
X163534876Y-58492571D01*
X164018685Y-58347428D02*
X164357352Y-58347428D01*
X164502495Y-58879619D02*
X164018685Y-58879619D01*
X164018685Y-57863619D01*
X164502495Y-57863619D01*
X171377428Y-115424857D02*
X171329047Y-115473238D01*
X171183904Y-115521619D01*
X171087142Y-115521619D01*
X170942000Y-115473238D01*
X170845238Y-115376476D01*
X170796857Y-115279714D01*
X170748476Y-115086190D01*
X170748476Y-114941047D01*
X170796857Y-114747523D01*
X170845238Y-114650761D01*
X170942000Y-114554000D01*
X171087142Y-114505619D01*
X171183904Y-114505619D01*
X171329047Y-114554000D01*
X171377428Y-114602380D01*
X171667714Y-114505619D02*
X172248285Y-114505619D01*
X171958000Y-115521619D02*
X171958000Y-114505619D01*
X173167523Y-115521619D02*
X172828857Y-115037809D01*
X172586952Y-115521619D02*
X172586952Y-114505619D01*
X172974000Y-114505619D01*
X173070761Y-114554000D01*
X173119142Y-114602380D01*
X173167523Y-114699142D01*
X173167523Y-114844285D01*
X173119142Y-114941047D01*
X173070761Y-114989428D01*
X172974000Y-115037809D01*
X172586952Y-115037809D01*
X171377428Y-118315619D02*
X171038761Y-117831809D01*
X170796857Y-118315619D02*
X170796857Y-117299619D01*
X171183904Y-117299619D01*
X171280666Y-117348000D01*
X171329047Y-117396380D01*
X171377428Y-117493142D01*
X171377428Y-117638285D01*
X171329047Y-117735047D01*
X171280666Y-117783428D01*
X171183904Y-117831809D01*
X170796857Y-117831809D01*
X171812857Y-117783428D02*
X172151523Y-117783428D01*
X172296666Y-118315619D02*
X171812857Y-118315619D01*
X171812857Y-117299619D01*
X172296666Y-117299619D01*
X173070761Y-117783428D02*
X172732095Y-117783428D01*
X172732095Y-118315619D02*
X172732095Y-117299619D01*
X173215904Y-117299619D01*
X170506571Y-119839619D02*
X170748476Y-120855619D01*
X170942000Y-120129904D01*
X171135523Y-120855619D01*
X171377428Y-119839619D01*
X172345047Y-120855619D02*
X172006380Y-120371809D01*
X171764476Y-120855619D02*
X171764476Y-119839619D01*
X172151523Y-119839619D01*
X172248285Y-119888000D01*
X172296666Y-119936380D01*
X172345047Y-120033142D01*
X172345047Y-120178285D01*
X172296666Y-120275047D01*
X172248285Y-120323428D01*
X172151523Y-120371809D01*
X171764476Y-120371809D01*
X172780476Y-120855619D02*
X172780476Y-119839619D01*
X173361047Y-120855619D02*
X172925619Y-120275047D01*
X173361047Y-119839619D02*
X172780476Y-120420190D01*
X194164857Y-68906571D02*
X194213238Y-68954952D01*
X194261619Y-69100095D01*
X194261619Y-69196857D01*
X194213238Y-69342000D01*
X194116476Y-69438761D01*
X194019714Y-69487142D01*
X193826190Y-69535523D01*
X193681047Y-69535523D01*
X193487523Y-69487142D01*
X193390761Y-69438761D01*
X193294000Y-69342000D01*
X193245619Y-69196857D01*
X193245619Y-69100095D01*
X193294000Y-68954952D01*
X193342380Y-68906571D01*
X193245619Y-68616285D02*
X193245619Y-68035714D01*
X194261619Y-68326000D02*
X193245619Y-68326000D01*
X194261619Y-67116476D02*
X193777809Y-67455142D01*
X194261619Y-67697047D02*
X193245619Y-67697047D01*
X193245619Y-67310000D01*
X193294000Y-67213238D01*
X193342380Y-67164857D01*
X193439142Y-67116476D01*
X193584285Y-67116476D01*
X193681047Y-67164857D01*
X193729428Y-67213238D01*
X193777809Y-67310000D01*
X193777809Y-67697047D01*
X194261619Y-80590571D02*
X193777809Y-80929238D01*
X194261619Y-81171142D02*
X193245619Y-81171142D01*
X193245619Y-80784095D01*
X193294000Y-80687333D01*
X193342380Y-80638952D01*
X193439142Y-80590571D01*
X193584285Y-80590571D01*
X193681047Y-80638952D01*
X193729428Y-80687333D01*
X193777809Y-80784095D01*
X193777809Y-81171142D01*
X193729428Y-80155142D02*
X193729428Y-79816476D01*
X194261619Y-79671333D02*
X194261619Y-80155142D01*
X193245619Y-80155142D01*
X193245619Y-79671333D01*
X193729428Y-78897238D02*
X193729428Y-79235904D01*
X194261619Y-79235904D02*
X193245619Y-79235904D01*
X193245619Y-78752095D01*
X193245619Y-92891428D02*
X194261619Y-92649523D01*
X193535904Y-92456000D01*
X194261619Y-92262476D01*
X193245619Y-92020571D01*
X194261619Y-91052952D02*
X193777809Y-91391619D01*
X194261619Y-91633523D02*
X193245619Y-91633523D01*
X193245619Y-91246476D01*
X193294000Y-91149714D01*
X193342380Y-91101333D01*
X193439142Y-91052952D01*
X193584285Y-91052952D01*
X193681047Y-91101333D01*
X193729428Y-91149714D01*
X193777809Y-91246476D01*
X193777809Y-91633523D01*
X194261619Y-90617523D02*
X193245619Y-90617523D01*
X194261619Y-90036952D02*
X193681047Y-90472380D01*
X193245619Y-90036952D02*
X193826190Y-90617523D01*
X193971333Y-75196095D02*
X193971333Y-74712285D01*
X194261619Y-75292857D02*
X193245619Y-74954190D01*
X194261619Y-74615523D01*
X193294000Y-73744666D02*
X193245619Y-73841428D01*
X193245619Y-73986571D01*
X193294000Y-74131714D01*
X193390761Y-74228476D01*
X193487523Y-74276857D01*
X193681047Y-74325238D01*
X193826190Y-74325238D01*
X194019714Y-74276857D01*
X194116476Y-74228476D01*
X194213238Y-74131714D01*
X194261619Y-73986571D01*
X194261619Y-73889809D01*
X194213238Y-73744666D01*
X194164857Y-73696285D01*
X193826190Y-73696285D01*
X193826190Y-73889809D01*
X194261619Y-73260857D02*
X193245619Y-73260857D01*
X194261619Y-72680285D01*
X193245619Y-72680285D01*
X194261619Y-72196476D02*
X193245619Y-72196476D01*
X193245619Y-71954571D01*
X193294000Y-71809428D01*
X193390761Y-71712666D01*
X193487523Y-71664285D01*
X193681047Y-71615904D01*
X193826190Y-71615904D01*
X194019714Y-71664285D01*
X194116476Y-71712666D01*
X194213238Y-71809428D01*
X194261619Y-71954571D01*
X194261619Y-72196476D01*
X193971333Y-86372095D02*
X193971333Y-85888285D01*
X194261619Y-86468857D02*
X193245619Y-86130190D01*
X194261619Y-85791523D01*
X193294000Y-84920666D02*
X193245619Y-85017428D01*
X193245619Y-85162571D01*
X193294000Y-85307714D01*
X193390761Y-85404476D01*
X193487523Y-85452857D01*
X193681047Y-85501238D01*
X193826190Y-85501238D01*
X194019714Y-85452857D01*
X194116476Y-85404476D01*
X194213238Y-85307714D01*
X194261619Y-85162571D01*
X194261619Y-85065809D01*
X194213238Y-84920666D01*
X194164857Y-84872285D01*
X193826190Y-84872285D01*
X193826190Y-85065809D01*
X194261619Y-84436857D02*
X193245619Y-84436857D01*
X194261619Y-83856285D01*
X193245619Y-83856285D01*
X194261619Y-83372476D02*
X193245619Y-83372476D01*
X193245619Y-83130571D01*
X193294000Y-82985428D01*
X193390761Y-82888666D01*
X193487523Y-82840285D01*
X193681047Y-82791904D01*
X193826190Y-82791904D01*
X194019714Y-82840285D01*
X194116476Y-82888666D01*
X194213238Y-82985428D01*
X194261619Y-83130571D01*
X194261619Y-83372476D01*
X193971333Y-98056095D02*
X193971333Y-97572285D01*
X194261619Y-98152857D02*
X193245619Y-97814190D01*
X194261619Y-97475523D01*
X193294000Y-96604666D02*
X193245619Y-96701428D01*
X193245619Y-96846571D01*
X193294000Y-96991714D01*
X193390761Y-97088476D01*
X193487523Y-97136857D01*
X193681047Y-97185238D01*
X193826190Y-97185238D01*
X194019714Y-97136857D01*
X194116476Y-97088476D01*
X194213238Y-96991714D01*
X194261619Y-96846571D01*
X194261619Y-96749809D01*
X194213238Y-96604666D01*
X194164857Y-96556285D01*
X193826190Y-96556285D01*
X193826190Y-96749809D01*
X194261619Y-96120857D02*
X193245619Y-96120857D01*
X194261619Y-95540285D01*
X193245619Y-95540285D01*
X194261619Y-95056476D02*
X193245619Y-95056476D01*
X193245619Y-94814571D01*
X193294000Y-94669428D01*
X193390761Y-94572666D01*
X193487523Y-94524285D01*
X193681047Y-94475904D01*
X193826190Y-94475904D01*
X194019714Y-94524285D01*
X194116476Y-94572666D01*
X194213238Y-94669428D01*
X194261619Y-94814571D01*
X194261619Y-95056476D01*
X58250666Y-66789904D02*
X58250666Y-67273714D01*
X57960380Y-66693142D02*
X58976380Y-67031809D01*
X57960380Y-67370476D01*
X58928000Y-68241333D02*
X58976380Y-68144571D01*
X58976380Y-67999428D01*
X58928000Y-67854285D01*
X58831238Y-67757523D01*
X58734476Y-67709142D01*
X58540952Y-67660761D01*
X58395809Y-67660761D01*
X58202285Y-67709142D01*
X58105523Y-67757523D01*
X58008761Y-67854285D01*
X57960380Y-67999428D01*
X57960380Y-68096190D01*
X58008761Y-68241333D01*
X58057142Y-68289714D01*
X58395809Y-68289714D01*
X58395809Y-68096190D01*
X57960380Y-68725142D02*
X58976380Y-68725142D01*
X57960380Y-69305714D01*
X58976380Y-69305714D01*
X57960380Y-69789523D02*
X58976380Y-69789523D01*
X58976380Y-70031428D01*
X58928000Y-70176571D01*
X58831238Y-70273333D01*
X58734476Y-70321714D01*
X58540952Y-70370095D01*
X58395809Y-70370095D01*
X58202285Y-70321714D01*
X58105523Y-70273333D01*
X58008761Y-70176571D01*
X57960380Y-70031428D01*
X57960380Y-69789523D01*
X58674000Y-101587904D02*
X58722380Y-101491142D01*
X58722380Y-101346000D01*
X58674000Y-101200857D01*
X58577238Y-101104095D01*
X58480476Y-101055714D01*
X58286952Y-101007333D01*
X58141809Y-101007333D01*
X57948285Y-101055714D01*
X57851523Y-101104095D01*
X57754761Y-101200857D01*
X57706380Y-101346000D01*
X57706380Y-101442761D01*
X57754761Y-101587904D01*
X57803142Y-101636285D01*
X58141809Y-101636285D01*
X58141809Y-101442761D01*
X57706380Y-102071714D02*
X58722380Y-102071714D01*
X57706380Y-102652285D01*
X58722380Y-102652285D01*
X57706380Y-103136095D02*
X58722380Y-103136095D01*
X58722380Y-103378000D01*
X58674000Y-103523142D01*
X58577238Y-103619904D01*
X58480476Y-103668285D01*
X58286952Y-103716666D01*
X58141809Y-103716666D01*
X57948285Y-103668285D01*
X57851523Y-103619904D01*
X57754761Y-103523142D01*
X57706380Y-103378000D01*
X57706380Y-103136095D01*
X129491619Y-132829904D02*
X129491619Y-132200952D01*
X129878666Y-132539619D01*
X129878666Y-132394476D01*
X129927047Y-132297714D01*
X129975428Y-132249333D01*
X130072190Y-132200952D01*
X130314095Y-132200952D01*
X130410857Y-132249333D01*
X130459238Y-132297714D01*
X130507619Y-132394476D01*
X130507619Y-132684761D01*
X130459238Y-132781523D01*
X130410857Y-132829904D01*
X129491619Y-131910666D02*
X130507619Y-131572000D01*
X129491619Y-131233333D01*
X129491619Y-130991428D02*
X129491619Y-130362476D01*
X129878666Y-130701142D01*
X129878666Y-130556000D01*
X129927047Y-130459238D01*
X129975428Y-130410857D01*
X130072190Y-130362476D01*
X130314095Y-130362476D01*
X130410857Y-130410857D01*
X130459238Y-130459238D01*
X130507619Y-130556000D01*
X130507619Y-130846285D01*
X130459238Y-130943047D01*
X130410857Y-130991428D01*
X126697619Y-132273523D02*
X126697619Y-132757333D01*
X127181428Y-132805714D01*
X127133047Y-132757333D01*
X127084666Y-132660571D01*
X127084666Y-132418666D01*
X127133047Y-132321904D01*
X127181428Y-132273523D01*
X127278190Y-132225142D01*
X127520095Y-132225142D01*
X127616857Y-132273523D01*
X127665238Y-132321904D01*
X127713619Y-132418666D01*
X127713619Y-132660571D01*
X127665238Y-132757333D01*
X127616857Y-132805714D01*
X126697619Y-131934857D02*
X127713619Y-131596190D01*
X126697619Y-131257523D01*
X124617238Y-129213428D02*
X124762380Y-129261809D01*
X124810761Y-129310190D01*
X124859142Y-129406952D01*
X124859142Y-129552095D01*
X124810761Y-129648857D01*
X124762380Y-129697238D01*
X124665619Y-129745619D01*
X124278571Y-129745619D01*
X124278571Y-128729619D01*
X124617238Y-128729619D01*
X124714000Y-128778000D01*
X124762380Y-128826380D01*
X124810761Y-128923142D01*
X124810761Y-129019904D01*
X124762380Y-129116666D01*
X124714000Y-129165047D01*
X124617238Y-129213428D01*
X124278571Y-129213428D01*
X125294571Y-128729619D02*
X125294571Y-129552095D01*
X125342952Y-129648857D01*
X125391333Y-129697238D01*
X125488095Y-129745619D01*
X125681619Y-129745619D01*
X125778380Y-129697238D01*
X125826761Y-129648857D01*
X125875142Y-129552095D01*
X125875142Y-128729619D01*
X126310571Y-129697238D02*
X126455714Y-129745619D01*
X126697619Y-129745619D01*
X126794380Y-129697238D01*
X126842761Y-129648857D01*
X126891142Y-129552095D01*
X126891142Y-129455333D01*
X126842761Y-129358571D01*
X126794380Y-129310190D01*
X126697619Y-129261809D01*
X126504095Y-129213428D01*
X126407333Y-129165047D01*
X126358952Y-129116666D01*
X126310571Y-129019904D01*
X126310571Y-128923142D01*
X126358952Y-128826380D01*
X126407333Y-128778000D01*
X126504095Y-128729619D01*
X126746000Y-128729619D01*
X126891142Y-128778000D01*
X128100666Y-129745619D02*
X128100666Y-128729619D01*
X128487714Y-128729619D01*
X128584476Y-128778000D01*
X128632857Y-128826380D01*
X128681238Y-128923142D01*
X128681238Y-129068285D01*
X128632857Y-129165047D01*
X128584476Y-129213428D01*
X128487714Y-129261809D01*
X128100666Y-129261809D01*
X129019904Y-128729619D02*
X129261809Y-129745619D01*
X129455333Y-129019904D01*
X129648857Y-129745619D01*
X129890761Y-128729619D01*
X130858380Y-129745619D02*
X130519714Y-129261809D01*
X130277809Y-129745619D02*
X130277809Y-128729619D01*
X130664857Y-128729619D01*
X130761619Y-128778000D01*
X130810000Y-128826380D01*
X130858380Y-128923142D01*
X130858380Y-129068285D01*
X130810000Y-129165047D01*
X130761619Y-129213428D01*
X130664857Y-129261809D01*
X130277809Y-129261809D01*
X132019523Y-129697238D02*
X132164666Y-129745619D01*
X132406571Y-129745619D01*
X132503333Y-129697238D01*
X132551714Y-129648857D01*
X132600095Y-129552095D01*
X132600095Y-129455333D01*
X132551714Y-129358571D01*
X132503333Y-129310190D01*
X132406571Y-129261809D01*
X132213047Y-129213428D01*
X132116285Y-129165047D01*
X132067904Y-129116666D01*
X132019523Y-129019904D01*
X132019523Y-128923142D01*
X132067904Y-128826380D01*
X132116285Y-128778000D01*
X132213047Y-128729619D01*
X132454952Y-128729619D01*
X132600095Y-128778000D01*
X133035523Y-129213428D02*
X133374190Y-129213428D01*
X133519333Y-129745619D02*
X133035523Y-129745619D01*
X133035523Y-128729619D01*
X133519333Y-128729619D01*
X134438571Y-129745619D02*
X133954761Y-129745619D01*
X133954761Y-128729619D01*
X112328476Y-129745619D02*
X112328476Y-128729619D01*
X112570380Y-128729619D01*
X112715523Y-128778000D01*
X112812285Y-128874761D01*
X112860666Y-128971523D01*
X112909047Y-129165047D01*
X112909047Y-129310190D01*
X112860666Y-129503714D01*
X112812285Y-129600476D01*
X112715523Y-129697238D01*
X112570380Y-129745619D01*
X112328476Y-129745619D01*
X113344476Y-129745619D02*
X113344476Y-128729619D01*
X114021809Y-128729619D02*
X114215333Y-128729619D01*
X114312095Y-128778000D01*
X114408857Y-128874761D01*
X114457238Y-129068285D01*
X114457238Y-129406952D01*
X114408857Y-129600476D01*
X114312095Y-129697238D01*
X114215333Y-129745619D01*
X114021809Y-129745619D01*
X113925047Y-129697238D01*
X113828285Y-129600476D01*
X113779904Y-129406952D01*
X113779904Y-129068285D01*
X113828285Y-128874761D01*
X113925047Y-128778000D01*
X114021809Y-128729619D01*
X115666761Y-129745619D02*
X115666761Y-128729619D01*
X116053809Y-128729619D01*
X116150571Y-128778000D01*
X116198952Y-128826380D01*
X116247333Y-128923142D01*
X116247333Y-129068285D01*
X116198952Y-129165047D01*
X116150571Y-129213428D01*
X116053809Y-129261809D01*
X115666761Y-129261809D01*
X116586000Y-128729619D02*
X116827904Y-129745619D01*
X117021428Y-129019904D01*
X117214952Y-129745619D01*
X117456857Y-128729619D01*
X118424476Y-129745619D02*
X118085809Y-129261809D01*
X117843904Y-129745619D02*
X117843904Y-128729619D01*
X118230952Y-128729619D01*
X118327714Y-128778000D01*
X118376095Y-128826380D01*
X118424476Y-128923142D01*
X118424476Y-129068285D01*
X118376095Y-129165047D01*
X118327714Y-129213428D01*
X118230952Y-129261809D01*
X117843904Y-129261809D01*
X119585619Y-129697238D02*
X119730761Y-129745619D01*
X119972666Y-129745619D01*
X120069428Y-129697238D01*
X120117809Y-129648857D01*
X120166190Y-129552095D01*
X120166190Y-129455333D01*
X120117809Y-129358571D01*
X120069428Y-129310190D01*
X119972666Y-129261809D01*
X119779142Y-129213428D01*
X119682380Y-129165047D01*
X119634000Y-129116666D01*
X119585619Y-129019904D01*
X119585619Y-128923142D01*
X119634000Y-128826380D01*
X119682380Y-128778000D01*
X119779142Y-128729619D01*
X120021047Y-128729619D01*
X120166190Y-128778000D01*
X120601619Y-129213428D02*
X120940285Y-129213428D01*
X121085428Y-129745619D02*
X120601619Y-129745619D01*
X120601619Y-128729619D01*
X121085428Y-128729619D01*
X122004666Y-129745619D02*
X121520857Y-129745619D01*
X121520857Y-128729619D01*
X117807619Y-132829904D02*
X117807619Y-132200952D01*
X118194666Y-132539619D01*
X118194666Y-132394476D01*
X118243047Y-132297714D01*
X118291428Y-132249333D01*
X118388190Y-132200952D01*
X118630095Y-132200952D01*
X118726857Y-132249333D01*
X118775238Y-132297714D01*
X118823619Y-132394476D01*
X118823619Y-132684761D01*
X118775238Y-132781523D01*
X118726857Y-132829904D01*
X117807619Y-131910666D02*
X118823619Y-131572000D01*
X117807619Y-131233333D01*
X117807619Y-130991428D02*
X117807619Y-130362476D01*
X118194666Y-130701142D01*
X118194666Y-130556000D01*
X118243047Y-130459238D01*
X118291428Y-130410857D01*
X118388190Y-130362476D01*
X118630095Y-130362476D01*
X118726857Y-130410857D01*
X118775238Y-130459238D01*
X118823619Y-130556000D01*
X118823619Y-130846285D01*
X118775238Y-130943047D01*
X118726857Y-130991428D01*
X115267619Y-132273523D02*
X115267619Y-132757333D01*
X115751428Y-132805714D01*
X115703047Y-132757333D01*
X115654666Y-132660571D01*
X115654666Y-132418666D01*
X115703047Y-132321904D01*
X115751428Y-132273523D01*
X115848190Y-132225142D01*
X116090095Y-132225142D01*
X116186857Y-132273523D01*
X116235238Y-132321904D01*
X116283619Y-132418666D01*
X116283619Y-132660571D01*
X116235238Y-132757333D01*
X116186857Y-132805714D01*
X115267619Y-131934857D02*
X116283619Y-131596190D01*
X115267619Y-131257523D01*
X96084571Y-126927428D02*
X96229714Y-126975809D01*
X96278095Y-127024190D01*
X96326476Y-127120952D01*
X96326476Y-127266095D01*
X96278095Y-127362857D01*
X96229714Y-127411238D01*
X96132952Y-127459619D01*
X95745904Y-127459619D01*
X95745904Y-126443619D01*
X96084571Y-126443619D01*
X96181333Y-126492000D01*
X96229714Y-126540380D01*
X96278095Y-126637142D01*
X96278095Y-126733904D01*
X96229714Y-126830666D01*
X96181333Y-126879047D01*
X96084571Y-126927428D01*
X95745904Y-126927428D01*
X96761904Y-126443619D02*
X96761904Y-127266095D01*
X96810285Y-127362857D01*
X96858666Y-127411238D01*
X96955428Y-127459619D01*
X97148952Y-127459619D01*
X97245714Y-127411238D01*
X97294095Y-127362857D01*
X97342476Y-127266095D01*
X97342476Y-126443619D01*
X97777904Y-127411238D02*
X97923047Y-127459619D01*
X98164952Y-127459619D01*
X98261714Y-127411238D01*
X98310095Y-127362857D01*
X98358476Y-127266095D01*
X98358476Y-127169333D01*
X98310095Y-127072571D01*
X98261714Y-127024190D01*
X98164952Y-126975809D01*
X97971428Y-126927428D01*
X97874666Y-126879047D01*
X97826285Y-126830666D01*
X97777904Y-126733904D01*
X97777904Y-126637142D01*
X97826285Y-126540380D01*
X97874666Y-126492000D01*
X97971428Y-126443619D01*
X98213333Y-126443619D01*
X98358476Y-126492000D01*
X69825809Y-127459619D02*
X69825809Y-126443619D01*
X70067714Y-126443619D01*
X70212857Y-126492000D01*
X70309619Y-126588761D01*
X70358000Y-126685523D01*
X70406380Y-126879047D01*
X70406380Y-127024190D01*
X70358000Y-127217714D01*
X70309619Y-127314476D01*
X70212857Y-127411238D01*
X70067714Y-127459619D01*
X69825809Y-127459619D01*
X70841809Y-127459619D02*
X70841809Y-126443619D01*
X71519142Y-126443619D02*
X71712666Y-126443619D01*
X71809428Y-126492000D01*
X71906190Y-126588761D01*
X71954571Y-126782285D01*
X71954571Y-127120952D01*
X71906190Y-127314476D01*
X71809428Y-127411238D01*
X71712666Y-127459619D01*
X71519142Y-127459619D01*
X71422380Y-127411238D01*
X71325619Y-127314476D01*
X71277238Y-127120952D01*
X71277238Y-126782285D01*
X71325619Y-126588761D01*
X71422380Y-126492000D01*
X71519142Y-126443619D01*
X55420380Y-112328476D02*
X55904190Y-111989809D01*
X55420380Y-111747904D02*
X56436380Y-111747904D01*
X56436380Y-112134952D01*
X56388000Y-112231714D01*
X56339619Y-112280095D01*
X56242857Y-112328476D01*
X56097714Y-112328476D01*
X56000952Y-112280095D01*
X55952571Y-112231714D01*
X55904190Y-112134952D01*
X55904190Y-111747904D01*
X55420380Y-112909047D02*
X55468761Y-112812285D01*
X55517142Y-112763904D01*
X55613904Y-112715523D01*
X55904190Y-112715523D01*
X56000952Y-112763904D01*
X56049333Y-112812285D01*
X56097714Y-112909047D01*
X56097714Y-113054190D01*
X56049333Y-113150952D01*
X56000952Y-113199333D01*
X55904190Y-113247714D01*
X55613904Y-113247714D01*
X55517142Y-113199333D01*
X55468761Y-113150952D01*
X55420380Y-113054190D01*
X55420380Y-112909047D01*
X55420380Y-114118571D02*
X56436380Y-114118571D01*
X55468761Y-114118571D02*
X55420380Y-114021809D01*
X55420380Y-113828285D01*
X55468761Y-113731523D01*
X55517142Y-113683142D01*
X55613904Y-113634761D01*
X55904190Y-113634761D01*
X56000952Y-113683142D01*
X56049333Y-113731523D01*
X56097714Y-113828285D01*
X56097714Y-114021809D01*
X56049333Y-114118571D01*
X55468761Y-114989428D02*
X55420380Y-114892666D01*
X55420380Y-114699142D01*
X55468761Y-114602380D01*
X55565523Y-114554000D01*
X55952571Y-114554000D01*
X56049333Y-114602380D01*
X56097714Y-114699142D01*
X56097714Y-114892666D01*
X56049333Y-114989428D01*
X55952571Y-115037809D01*
X55855809Y-115037809D01*
X55759047Y-114554000D01*
X55420380Y-115618380D02*
X55468761Y-115521619D01*
X55517142Y-115473238D01*
X55613904Y-115424857D01*
X55904190Y-115424857D01*
X56000952Y-115473238D01*
X56049333Y-115521619D01*
X56097714Y-115618380D01*
X56097714Y-115763523D01*
X56049333Y-115860285D01*
X56000952Y-115908666D01*
X55904190Y-115957047D01*
X55613904Y-115957047D01*
X55517142Y-115908666D01*
X55468761Y-115860285D01*
X55420380Y-115763523D01*
X55420380Y-115618380D01*
X55468761Y-116344095D02*
X55420380Y-116440857D01*
X55420380Y-116634380D01*
X55468761Y-116731142D01*
X55565523Y-116779523D01*
X55613904Y-116779523D01*
X55710666Y-116731142D01*
X55759047Y-116634380D01*
X55759047Y-116489238D01*
X55807428Y-116392476D01*
X55904190Y-116344095D01*
X55952571Y-116344095D01*
X56049333Y-116392476D01*
X56097714Y-116489238D01*
X56097714Y-116634380D01*
X56049333Y-116731142D01*
X56097714Y-117069809D02*
X56097714Y-117456857D01*
X56436380Y-117214952D02*
X55565523Y-117214952D01*
X55468761Y-117263333D01*
X55420380Y-117360095D01*
X55420380Y-117456857D01*
X55420380Y-118230952D02*
X55952571Y-118230952D01*
X56049333Y-118182571D01*
X56097714Y-118085809D01*
X56097714Y-117892285D01*
X56049333Y-117795523D01*
X55468761Y-118230952D02*
X55420380Y-118134190D01*
X55420380Y-117892285D01*
X55468761Y-117795523D01*
X55565523Y-117747142D01*
X55662285Y-117747142D01*
X55759047Y-117795523D01*
X55807428Y-117892285D01*
X55807428Y-118134190D01*
X55855809Y-118230952D01*
X56097714Y-118569619D02*
X56097714Y-118956666D01*
X56436380Y-118714761D02*
X55565523Y-118714761D01*
X55468761Y-118763142D01*
X55420380Y-118859904D01*
X55420380Y-118956666D01*
X55420380Y-120069428D02*
X56436380Y-120069428D01*
X55710666Y-120408095D01*
X56436380Y-120746761D01*
X55420380Y-120746761D01*
X56436380Y-121133809D02*
X55420380Y-121811142D01*
X56436380Y-121811142D02*
X55420380Y-121133809D01*
X56436380Y-122827142D02*
X55420380Y-123165809D01*
X56436380Y-123504476D01*
X56436380Y-124036666D02*
X56436380Y-124133428D01*
X56388000Y-124230190D01*
X56339619Y-124278571D01*
X56242857Y-124326952D01*
X56049333Y-124375333D01*
X55807428Y-124375333D01*
X55613904Y-124326952D01*
X55517142Y-124278571D01*
X55468761Y-124230190D01*
X55420380Y-124133428D01*
X55420380Y-124036666D01*
X55468761Y-123939904D01*
X55517142Y-123891523D01*
X55613904Y-123843142D01*
X55807428Y-123794761D01*
X56049333Y-123794761D01*
X56242857Y-123843142D01*
X56339619Y-123891523D01*
X56388000Y-123939904D01*
X56436380Y-124036666D01*
X55517142Y-124810761D02*
X55468761Y-124859142D01*
X55420380Y-124810761D01*
X55468761Y-124762380D01*
X55517142Y-124810761D01*
X55420380Y-124810761D01*
X55420380Y-125826761D02*
X55420380Y-125246190D01*
X55420380Y-125536476D02*
X56436380Y-125536476D01*
X56291238Y-125439714D01*
X56194476Y-125342952D01*
X56146095Y-125246190D01*
X55420380Y-127616857D02*
X55904190Y-127278190D01*
X55420380Y-127036285D02*
X56436380Y-127036285D01*
X56436380Y-127423333D01*
X56388000Y-127520095D01*
X56339619Y-127568476D01*
X56242857Y-127616857D01*
X56097714Y-127616857D01*
X56000952Y-127568476D01*
X55952571Y-127520095D01*
X55904190Y-127423333D01*
X55904190Y-127036285D01*
X55420380Y-128584476D02*
X55420380Y-128003904D01*
X55420380Y-128294190D02*
X56436380Y-128294190D01*
X56291238Y-128197428D01*
X56194476Y-128100666D01*
X56146095Y-128003904D01*
X139748380Y-130355219D02*
X140328952Y-130355219D01*
X140038666Y-131371219D02*
X140038666Y-130355219D01*
X140667619Y-131371219D02*
X140667619Y-130355219D01*
X141103047Y-131080933D02*
X141586857Y-131080933D01*
X141006285Y-131371219D02*
X141344952Y-130355219D01*
X141683619Y-131371219D01*
X151025980Y-130355219D02*
X151606552Y-130355219D01*
X151316266Y-131371219D02*
X151316266Y-130355219D01*
X151945219Y-131371219D02*
X151945219Y-130355219D01*
X152380647Y-131080933D02*
X152864457Y-131080933D01*
X152283885Y-131371219D02*
X152622552Y-130355219D01*
X152961219Y-131371219D01*
X144584057Y-59032019D02*
X144245390Y-58548209D01*
X144003485Y-59032019D02*
X144003485Y-58016019D01*
X144390533Y-58016019D01*
X144487295Y-58064400D01*
X144535676Y-58112780D01*
X144584057Y-58209542D01*
X144584057Y-58354685D01*
X144535676Y-58451447D01*
X144487295Y-58499828D01*
X144390533Y-58548209D01*
X144003485Y-58548209D01*
X145019485Y-58499828D02*
X145358152Y-58499828D01*
X145503295Y-59032019D02*
X145019485Y-59032019D01*
X145019485Y-58016019D01*
X145503295Y-58016019D01*
X146277390Y-58499828D02*
X145938723Y-58499828D01*
X145938723Y-59032019D02*
X145938723Y-58016019D01*
X146422533Y-58016019D01*
X146809580Y-58644971D02*
X147583676Y-58644971D01*
X148067485Y-58499828D02*
X148406152Y-58499828D01*
X148551295Y-59032019D02*
X148067485Y-59032019D01*
X148067485Y-58016019D01*
X148551295Y-58016019D01*
X112449428Y-58879619D02*
X112110761Y-58395809D01*
X111868857Y-58879619D02*
X111868857Y-57863619D01*
X112255904Y-57863619D01*
X112352666Y-57912000D01*
X112401047Y-57960380D01*
X112449428Y-58057142D01*
X112449428Y-58202285D01*
X112401047Y-58299047D01*
X112352666Y-58347428D01*
X112255904Y-58395809D01*
X111868857Y-58395809D01*
X112884857Y-58347428D02*
X113223523Y-58347428D01*
X113368666Y-58879619D02*
X112884857Y-58879619D01*
X112884857Y-57863619D01*
X113368666Y-57863619D01*
X114142761Y-58347428D02*
X113804095Y-58347428D01*
X113804095Y-58879619D02*
X113804095Y-57863619D01*
X114287904Y-57863619D01*
X152712057Y-58930419D02*
X152373390Y-58446609D01*
X152131485Y-58930419D02*
X152131485Y-57914419D01*
X152518533Y-57914419D01*
X152615295Y-57962800D01*
X152663676Y-58011180D01*
X152712057Y-58107942D01*
X152712057Y-58253085D01*
X152663676Y-58349847D01*
X152615295Y-58398228D01*
X152518533Y-58446609D01*
X152131485Y-58446609D01*
X153147485Y-58398228D02*
X153486152Y-58398228D01*
X153631295Y-58930419D02*
X153147485Y-58930419D01*
X153147485Y-57914419D01*
X153631295Y-57914419D01*
X154405390Y-58398228D02*
X154066723Y-58398228D01*
X154066723Y-58930419D02*
X154066723Y-57914419D01*
X154550533Y-57914419D01*
X154937580Y-58543371D02*
X155711676Y-58543371D01*
X156195485Y-58398228D02*
X156534152Y-58398228D01*
X156679295Y-58930419D02*
X156195485Y-58930419D01*
X156195485Y-57914419D01*
X156679295Y-57914419D01*
X161754457Y-132341257D02*
X161706076Y-132389638D01*
X161560933Y-132438019D01*
X161464171Y-132438019D01*
X161319028Y-132389638D01*
X161222266Y-132292876D01*
X161173885Y-132196114D01*
X161125504Y-132002590D01*
X161125504Y-131857447D01*
X161173885Y-131663923D01*
X161222266Y-131567161D01*
X161319028Y-131470400D01*
X161464171Y-131422019D01*
X161560933Y-131422019D01*
X161706076Y-131470400D01*
X161754457Y-131518780D01*
X162044742Y-131422019D02*
X162625314Y-131422019D01*
X162335028Y-132438019D02*
X162335028Y-131422019D01*
X163544552Y-132438019D02*
X163205885Y-131954209D01*
X162963980Y-132438019D02*
X162963980Y-131422019D01*
X163351028Y-131422019D01*
X163447790Y-131470400D01*
X163496171Y-131518780D01*
X163544552Y-131615542D01*
X163544552Y-131760685D01*
X163496171Y-131857447D01*
X163447790Y-131905828D01*
X163351028Y-131954209D01*
X162963980Y-131954209D01*
X163979980Y-132050971D02*
X164754076Y-132050971D01*
X165237885Y-131905828D02*
X165576552Y-131905828D01*
X165721695Y-132438019D02*
X165237885Y-132438019D01*
X165237885Y-131422019D01*
X165721695Y-131422019D01*
X136458476Y-58676419D02*
X136458476Y-57660419D01*
X136700380Y-57660419D01*
X136845523Y-57708800D01*
X136942285Y-57805561D01*
X136990666Y-57902323D01*
X137039047Y-58095847D01*
X137039047Y-58240990D01*
X136990666Y-58434514D01*
X136942285Y-58531276D01*
X136845523Y-58628038D01*
X136700380Y-58676419D01*
X136458476Y-58676419D01*
X137426095Y-58386133D02*
X137909904Y-58386133D01*
X137329333Y-58676419D02*
X137668000Y-57660419D01*
X138006666Y-58676419D01*
X138925904Y-58579657D02*
X138877523Y-58628038D01*
X138732380Y-58676419D01*
X138635619Y-58676419D01*
X138490476Y-58628038D01*
X138393714Y-58531276D01*
X138345333Y-58434514D01*
X138296952Y-58240990D01*
X138296952Y-58095847D01*
X138345333Y-57902323D01*
X138393714Y-57805561D01*
X138490476Y-57708800D01*
X138635619Y-57660419D01*
X138732380Y-57660419D01*
X138877523Y-57708800D01*
X138925904Y-57757180D01*
X104829428Y-58879619D02*
X104490761Y-58395809D01*
X104248857Y-58879619D02*
X104248857Y-57863619D01*
X104635904Y-57863619D01*
X104732666Y-57912000D01*
X104781047Y-57960380D01*
X104829428Y-58057142D01*
X104829428Y-58202285D01*
X104781047Y-58299047D01*
X104732666Y-58347428D01*
X104635904Y-58395809D01*
X104248857Y-58395809D01*
X105264857Y-58347428D02*
X105603523Y-58347428D01*
X105748666Y-58879619D02*
X105264857Y-58879619D01*
X105264857Y-57863619D01*
X105748666Y-57863619D01*
X106522761Y-58347428D02*
X106184095Y-58347428D01*
X106184095Y-58879619D02*
X106184095Y-57863619D01*
X106667904Y-57863619D01*
X128381276Y-58727219D02*
X128381276Y-57711219D01*
X128623180Y-57711219D01*
X128768323Y-57759600D01*
X128865085Y-57856361D01*
X128913466Y-57953123D01*
X128961847Y-58146647D01*
X128961847Y-58291790D01*
X128913466Y-58485314D01*
X128865085Y-58582076D01*
X128768323Y-58678838D01*
X128623180Y-58727219D01*
X128381276Y-58727219D01*
X129348895Y-58436933D02*
X129832704Y-58436933D01*
X129252133Y-58727219D02*
X129590800Y-57711219D01*
X129929466Y-58727219D01*
X130848704Y-58630457D02*
X130800323Y-58678838D01*
X130655180Y-58727219D01*
X130558419Y-58727219D01*
X130413276Y-58678838D01*
X130316514Y-58582076D01*
X130268133Y-58485314D01*
X130219752Y-58291790D01*
X130219752Y-58146647D01*
X130268133Y-57953123D01*
X130316514Y-57856361D01*
X130413276Y-57759600D01*
X130558419Y-57711219D01*
X130655180Y-57711219D01*
X130800323Y-57759600D01*
X130848704Y-57807980D01*
X120151676Y-58930419D02*
X120151676Y-57914419D01*
X120393580Y-57914419D01*
X120538723Y-57962800D01*
X120635485Y-58059561D01*
X120683866Y-58156323D01*
X120732247Y-58349847D01*
X120732247Y-58494990D01*
X120683866Y-58688514D01*
X120635485Y-58785276D01*
X120538723Y-58882038D01*
X120393580Y-58930419D01*
X120151676Y-58930419D01*
X121119295Y-58640133D02*
X121603104Y-58640133D01*
X121022533Y-58930419D02*
X121361200Y-57914419D01*
X121699866Y-58930419D01*
X122619104Y-58833657D02*
X122570723Y-58882038D01*
X122425580Y-58930419D01*
X122328819Y-58930419D01*
X122183676Y-58882038D01*
X122086914Y-58785276D01*
X122038533Y-58688514D01*
X121990152Y-58494990D01*
X121990152Y-58349847D01*
X122038533Y-58156323D01*
X122086914Y-58059561D01*
X122183676Y-57962800D01*
X122328819Y-57914419D01*
X122425580Y-57914419D01*
X122570723Y-57962800D01*
X122619104Y-58011180D01*
X94983904Y-58492571D02*
X95758000Y-58492571D01*
X95370952Y-58879619D02*
X95370952Y-58105523D01*
X96774000Y-58879619D02*
X96193428Y-58879619D01*
X96483714Y-58879619D02*
X96483714Y-57863619D01*
X96386952Y-58008761D01*
X96290190Y-58105523D01*
X96193428Y-58153904D01*
X97693238Y-57863619D02*
X97209428Y-57863619D01*
X97161047Y-58347428D01*
X97209428Y-58299047D01*
X97306190Y-58250666D01*
X97548095Y-58250666D01*
X97644857Y-58299047D01*
X97693238Y-58347428D01*
X97741619Y-58444190D01*
X97741619Y-58686095D01*
X97693238Y-58782857D01*
X97644857Y-58831238D01*
X97548095Y-58879619D01*
X97306190Y-58879619D01*
X97209428Y-58831238D01*
X97161047Y-58782857D01*
X98031904Y-57863619D02*
X98370571Y-58879619D01*
X98709238Y-57863619D01*
X86601904Y-58492571D02*
X87376000Y-58492571D01*
X88392000Y-58879619D02*
X87811428Y-58879619D01*
X88101714Y-58879619D02*
X88101714Y-57863619D01*
X88004952Y-58008761D01*
X87908190Y-58105523D01*
X87811428Y-58153904D01*
X89311238Y-57863619D02*
X88827428Y-57863619D01*
X88779047Y-58347428D01*
X88827428Y-58299047D01*
X88924190Y-58250666D01*
X89166095Y-58250666D01*
X89262857Y-58299047D01*
X89311238Y-58347428D01*
X89359619Y-58444190D01*
X89359619Y-58686095D01*
X89311238Y-58782857D01*
X89262857Y-58831238D01*
X89166095Y-58879619D01*
X88924190Y-58879619D01*
X88827428Y-58831238D01*
X88779047Y-58782857D01*
X89649904Y-57863619D02*
X89988571Y-58879619D01*
X90327238Y-57863619D01*
D11*
%TO.C,U2*%
X51270000Y-95690000D02*
X86830000Y-95690000D01*
X86830000Y-95690000D02*
X86830000Y-77910000D01*
X86830000Y-77910000D02*
X51270000Y-77910000D01*
X51270000Y-77910000D02*
X51270000Y-95690000D01*
D12*
%TO.C,P5*%
X57150000Y-69850000D02*
X52070000Y-69850000D01*
X57150000Y-67310000D02*
X57150000Y-69850000D01*
X52070000Y-67310000D02*
X57150000Y-67310000D01*
X52070000Y-69850000D02*
X52070000Y-67310000D01*
D13*
%TO.C,C3*%
X173722420Y-104650000D02*
X174003580Y-104650000D01*
X173722420Y-103630000D02*
X174003580Y-103630000D01*
%TO.C,U11*%
X127254000Y-80919000D02*
X129204000Y-80919000D01*
X127254000Y-80919000D02*
X125304000Y-80919000D01*
X127254000Y-75799000D02*
X129204000Y-75799000D01*
X127254000Y-75799000D02*
X123804000Y-75799000D01*
D12*
%TO.C,K1*%
X176784000Y-116332000D02*
X174244000Y-116332000D01*
X174244000Y-121412000D02*
X174244000Y-113792000D01*
X176784000Y-121412000D02*
X174244000Y-121412000D01*
X176784000Y-113792000D02*
X176784000Y-121412000D01*
X174244000Y-113792000D02*
X176784000Y-113792000D01*
D11*
%TO.C,P14*%
X82042000Y-138176000D02*
X61722000Y-138176000D01*
X61722000Y-138176000D02*
X61722000Y-128524000D01*
X61722000Y-128524000D02*
X82042000Y-128524000D01*
X82042000Y-128524000D02*
X82042000Y-138176000D01*
X78783180Y-126050040D02*
X75780900Y-126050040D01*
X77246480Y-127861060D02*
X78770480Y-126083060D01*
X75722480Y-126085600D02*
X77246480Y-127863600D01*
%TO.C,P13*%
X107950000Y-138176000D02*
X87630000Y-138176000D01*
X87630000Y-138176000D02*
X87630000Y-128524000D01*
X87630000Y-128524000D02*
X107950000Y-128524000D01*
X107950000Y-128524000D02*
X107950000Y-138176000D01*
X104691180Y-126050040D02*
X101688900Y-126050040D01*
X103154480Y-127861060D02*
X104678480Y-126083060D01*
X101630480Y-126085600D02*
X103154480Y-127863600D01*
D12*
%TO.C,P7*%
X128270000Y-57150000D02*
X128270000Y-52070000D01*
X130810000Y-57150000D02*
X128270000Y-57150000D01*
X130810000Y-52070000D02*
X130810000Y-57150000D01*
X128270000Y-52070000D02*
X130810000Y-52070000D01*
%TO.C,P9*%
X136398000Y-57150000D02*
X136398000Y-52070000D01*
X138938000Y-57150000D02*
X136398000Y-57150000D01*
X138938000Y-52070000D02*
X138938000Y-57150000D01*
X136398000Y-52070000D02*
X138938000Y-52070000D01*
%TO.C,P20*%
X161798000Y-138176000D02*
X161798000Y-133096000D01*
X164338000Y-138176000D02*
X161798000Y-138176000D01*
X164338000Y-133096000D02*
X164338000Y-138176000D01*
X161798000Y-133096000D02*
X164338000Y-133096000D01*
%TO.C,P21*%
X144526000Y-52324000D02*
X147066000Y-52324000D01*
X147066000Y-52324000D02*
X147066000Y-57404000D01*
X147066000Y-57404000D02*
X144526000Y-57404000D01*
X144526000Y-57404000D02*
X144526000Y-52324000D01*
%TO.C,P19*%
X152654000Y-57150000D02*
X152654000Y-52070000D01*
X155194000Y-57150000D02*
X152654000Y-57150000D01*
X155194000Y-52070000D02*
X155194000Y-57150000D01*
X152654000Y-52070000D02*
X155194000Y-52070000D01*
%TO.C,P6*%
X120142000Y-57150000D02*
X120142000Y-52070000D01*
X122682000Y-57150000D02*
X120142000Y-57150000D01*
X122682000Y-52070000D02*
X122682000Y-57150000D01*
X120142000Y-52070000D02*
X122682000Y-52070000D01*
%TO.C,P10*%
X103886000Y-57150000D02*
X103886000Y-52070000D01*
X106426000Y-57150000D02*
X103886000Y-57150000D01*
X106426000Y-52070000D02*
X106426000Y-57150000D01*
X103886000Y-52070000D02*
X106426000Y-52070000D01*
%TO.C,P12*%
X95758000Y-57150000D02*
X95758000Y-52070000D01*
X98298000Y-57150000D02*
X95758000Y-57150000D01*
X98298000Y-52070000D02*
X98298000Y-57150000D01*
X95758000Y-52070000D02*
X98298000Y-52070000D01*
%TO.C,P11*%
X87630000Y-57150000D02*
X87630000Y-52070000D01*
X90170000Y-57150000D02*
X87630000Y-57150000D01*
X90170000Y-52070000D02*
X90170000Y-57150000D01*
X87630000Y-52070000D02*
X90170000Y-52070000D01*
%TO.C,P4*%
X52070000Y-101092000D02*
X57150000Y-101092000D01*
X52070000Y-103632000D02*
X52070000Y-101092000D01*
X57150000Y-103632000D02*
X52070000Y-103632000D01*
X57150000Y-101092000D02*
X57150000Y-103632000D01*
%TO.C,P18*%
X139446000Y-138176000D02*
X139446000Y-133096000D01*
X141986000Y-138176000D02*
X139446000Y-138176000D01*
X141986000Y-133096000D02*
X141986000Y-138176000D01*
X139446000Y-133096000D02*
X141986000Y-133096000D01*
%TO.C,P17*%
X150622000Y-138176000D02*
X150622000Y-133096000D01*
X153162000Y-138176000D02*
X150622000Y-138176000D01*
X153162000Y-133096000D02*
X153162000Y-138176000D01*
X150622000Y-133096000D02*
X153162000Y-133096000D01*
%TO.C,P8*%
X112014000Y-57150000D02*
X112014000Y-52070000D01*
X114554000Y-57150000D02*
X112014000Y-57150000D01*
X114554000Y-52070000D02*
X114554000Y-57150000D01*
X112014000Y-52070000D02*
X114554000Y-52070000D01*
D14*
%TO.C,P16*%
X125984000Y-133350000D02*
X131064000Y-133350000D01*
X131064000Y-133350000D02*
X131064000Y-138430000D01*
X131064000Y-138430000D02*
X125984000Y-138430000D01*
X125984000Y-138430000D02*
X125984000Y-133350000D01*
%TO.C,P15*%
X114554000Y-138430000D02*
X114554000Y-133350000D01*
X119634000Y-138430000D02*
X114554000Y-138430000D01*
X119634000Y-133350000D02*
X119634000Y-138430000D01*
X114554000Y-133350000D02*
X119634000Y-133350000D01*
D13*
%TO.C,C1*%
X86881580Y-71372000D02*
X86600420Y-71372000D01*
X86881580Y-72392000D02*
X86600420Y-72392000D01*
%TO.C,C2*%
X161557580Y-104777000D02*
X161276420Y-104777000D01*
X161557580Y-103757000D02*
X161276420Y-103757000D01*
%TO.C,C4*%
X173722420Y-106301000D02*
X174003580Y-106301000D01*
X173722420Y-105281000D02*
X174003580Y-105281000D01*
%TO.C,C5*%
X86881580Y-65026000D02*
X86600420Y-65026000D01*
X86881580Y-64006000D02*
X86600420Y-64006000D01*
%TO.C,C6*%
X127267580Y-85469000D02*
X126986420Y-85469000D01*
X127267580Y-86489000D02*
X126986420Y-86489000D01*
%TO.C,C7*%
X52068000Y-75070580D02*
X52068000Y-74789420D01*
X53088000Y-75070580D02*
X53088000Y-74789420D01*
%TO.C,C8*%
X91188000Y-88532580D02*
X91188000Y-88251420D01*
X90168000Y-88532580D02*
X90168000Y-88251420D01*
%TO.C,C9*%
X134491000Y-133744580D02*
X134491000Y-133463420D01*
X135511000Y-133744580D02*
X135511000Y-133463420D01*
%TO.C,C10*%
X71630000Y-106312580D02*
X71630000Y-106031420D01*
X70610000Y-106312580D02*
X70610000Y-106031420D01*
%TO.C,C11*%
X121933580Y-84457000D02*
X121652420Y-84457000D01*
X121933580Y-83437000D02*
X121652420Y-83437000D01*
%TO.C,C12*%
X97803580Y-68197000D02*
X97522420Y-68197000D01*
X97803580Y-69217000D02*
X97522420Y-69217000D01*
%TO.C,C13*%
X145163000Y-79234420D02*
X145163000Y-79515580D01*
X144143000Y-79234420D02*
X144143000Y-79515580D01*
%TO.C,C14*%
X121044580Y-69598000D02*
X120763420Y-69598000D01*
X121044580Y-68578000D02*
X120763420Y-68578000D01*
%TO.C,C15*%
X97295580Y-83568000D02*
X97014420Y-83568000D01*
X97295580Y-82548000D02*
X97014420Y-82548000D01*
%TO.C,C16*%
X133463420Y-78234000D02*
X133744580Y-78234000D01*
X133463420Y-77214000D02*
X133744580Y-77214000D01*
%TO.C,C17*%
X146687000Y-66307580D02*
X146687000Y-66026420D01*
X145667000Y-66307580D02*
X145667000Y-66026420D01*
%TO.C,C18*%
X109460420Y-66677000D02*
X109741580Y-66677000D01*
X109460420Y-65657000D02*
X109741580Y-65657000D01*
%TO.C,C19*%
X133590420Y-67058000D02*
X133871580Y-67058000D01*
X133590420Y-66038000D02*
X133871580Y-66038000D01*
%TO.C,C20*%
X147068000Y-79234420D02*
X147068000Y-79515580D01*
X146048000Y-79234420D02*
X146048000Y-79515580D01*
%TO.C,C21*%
X109333420Y-80008000D02*
X109614580Y-80008000D01*
X109333420Y-81028000D02*
X109614580Y-81028000D01*
%TO.C,C22*%
X71360420Y-58799000D02*
X71641580Y-58799000D01*
X71360420Y-59819000D02*
X71641580Y-59819000D01*
%TO.C,C23*%
X77102580Y-58799000D02*
X76821420Y-58799000D01*
X77102580Y-59819000D02*
X76821420Y-59819000D01*
%TO.C,C24*%
X64883420Y-59692000D02*
X65164580Y-59692000D01*
X64883420Y-58672000D02*
X65164580Y-58672000D01*
%TO.C,C25*%
X144412580Y-115191000D02*
X144131420Y-115191000D01*
X144412580Y-114171000D02*
X144131420Y-114171000D01*
%TO.C,C26*%
X141730000Y-122922420D02*
X141730000Y-123203580D01*
X142750000Y-122922420D02*
X142750000Y-123203580D01*
%TO.C,C27*%
X156958420Y-123315000D02*
X157239580Y-123315000D01*
X156958420Y-124335000D02*
X157239580Y-124335000D01*
%TO.C,C28*%
X156958420Y-113663000D02*
X157239580Y-113663000D01*
X156958420Y-114683000D02*
X157239580Y-114683000D01*
%TO.C,C29*%
X167526580Y-95756000D02*
X167245420Y-95756000D01*
X167526580Y-96776000D02*
X167245420Y-96776000D01*
%TO.C,C30*%
X106693580Y-118620000D02*
X106412420Y-118620000D01*
X106693580Y-117600000D02*
X106412420Y-117600000D01*
%TO.C,C31*%
X160922580Y-68070000D02*
X160641420Y-68070000D01*
X160922580Y-69090000D02*
X160641420Y-69090000D01*
%TO.C,C32*%
X161303580Y-93089000D02*
X161022420Y-93089000D01*
X161303580Y-94109000D02*
X161022420Y-94109000D01*
%TO.C,C33*%
X144412580Y-119001000D02*
X144131420Y-119001000D01*
X144412580Y-117981000D02*
X144131420Y-117981000D01*
%TO.C,C34*%
X145047580Y-105789000D02*
X144766420Y-105789000D01*
X145047580Y-106809000D02*
X144766420Y-106809000D01*
%TO.C,C35*%
X173976420Y-67816000D02*
X174257580Y-67816000D01*
X173976420Y-68836000D02*
X174257580Y-68836000D01*
%TO.C,C36*%
X161176580Y-82421000D02*
X160895420Y-82421000D01*
X161176580Y-83441000D02*
X160895420Y-83441000D01*
%TO.C,C37*%
X156958420Y-118620000D02*
X157239580Y-118620000D01*
X156958420Y-117600000D02*
X157239580Y-117600000D01*
%TO.C,C38*%
X155827000Y-101740580D02*
X155827000Y-101459420D01*
X156847000Y-101740580D02*
X156847000Y-101459420D01*
%TO.C,C39*%
X135014580Y-94617000D02*
X134733420Y-94617000D01*
X135014580Y-93597000D02*
X134733420Y-93597000D01*
%TO.C,C40*%
X173976420Y-69721000D02*
X174257580Y-69721000D01*
X173976420Y-70741000D02*
X174257580Y-70741000D01*
%TO.C,C41*%
X156958420Y-120271000D02*
X157239580Y-120271000D01*
X156958420Y-119251000D02*
X157239580Y-119251000D01*
%TO.C,C42*%
X119393580Y-106682000D02*
X119112420Y-106682000D01*
X119393580Y-105662000D02*
X119112420Y-105662000D01*
%TO.C,C43*%
X173976420Y-91569000D02*
X174257580Y-91569000D01*
X173976420Y-90549000D02*
X174257580Y-90549000D01*
%TO.C,C44*%
X100597580Y-113282000D02*
X100316420Y-113282000D01*
X100597580Y-114302000D02*
X100316420Y-114302000D01*
%TO.C,C45*%
X174103420Y-79881000D02*
X174384580Y-79881000D01*
X174103420Y-80901000D02*
X174384580Y-80901000D01*
%TO.C,C46*%
X88136000Y-106566580D02*
X88136000Y-106285420D01*
X89156000Y-106566580D02*
X89156000Y-106285420D01*
%TO.C,C47*%
X76567420Y-73023000D02*
X76848580Y-73023000D01*
X76567420Y-74043000D02*
X76848580Y-74043000D01*
%TO.C,C48*%
X131304420Y-103122000D02*
X131585580Y-103122000D01*
X131304420Y-104142000D02*
X131585580Y-104142000D01*
%TO.C,C50*%
X147687420Y-91057000D02*
X147968580Y-91057000D01*
X147687420Y-92077000D02*
X147968580Y-92077000D01*
%TO.C,C52*%
X112762420Y-111762000D02*
X113043580Y-111762000D01*
X112762420Y-110742000D02*
X113043580Y-110742000D01*
%TO.C,D1*%
X115006000Y-94740000D02*
X115936000Y-94740000D01*
X118166000Y-94740000D02*
X117236000Y-94740000D01*
X118166000Y-94740000D02*
X118166000Y-92580000D01*
X115006000Y-94740000D02*
X115006000Y-93280000D01*
%TO.C,D2*%
X100401000Y-97407000D02*
X101331000Y-97407000D01*
X103561000Y-97407000D02*
X102631000Y-97407000D01*
X103561000Y-97407000D02*
X103561000Y-95247000D01*
X100401000Y-97407000D02*
X100401000Y-95947000D01*
D12*
%TO.C,P22*%
X160782000Y-52070000D02*
X163322000Y-52070000D01*
X163322000Y-52070000D02*
X163322000Y-57150000D01*
X163322000Y-57150000D02*
X160782000Y-57150000D01*
X160782000Y-57150000D02*
X160782000Y-52070000D01*
D13*
%TO.C,R1*%
X120506258Y-76312500D02*
X120031742Y-76312500D01*
X120506258Y-77357500D02*
X120031742Y-77357500D01*
%TO.C,R2*%
X120506258Y-78471500D02*
X120031742Y-78471500D01*
X120506258Y-79516500D02*
X120031742Y-79516500D01*
%TO.C,R3*%
X120031742Y-80630500D02*
X120506258Y-80630500D01*
X120031742Y-81675500D02*
X120506258Y-81675500D01*
%TO.C,R4*%
X97900258Y-65644500D02*
X97425742Y-65644500D01*
X97900258Y-66689500D02*
X97425742Y-66689500D01*
%TO.C,R5*%
X127364258Y-84342500D02*
X126889742Y-84342500D01*
X127364258Y-83297500D02*
X126889742Y-83297500D01*
%TO.C,R6*%
X103996258Y-72277500D02*
X103521742Y-72277500D01*
X103996258Y-71232500D02*
X103521742Y-71232500D01*
%TO.C,R7*%
X121141258Y-67070500D02*
X120666742Y-67070500D01*
X121141258Y-66025500D02*
X120666742Y-66025500D01*
%TO.C,R8*%
X97392258Y-79995500D02*
X96917742Y-79995500D01*
X97392258Y-81040500D02*
X96917742Y-81040500D01*
%TO.C,R9*%
X149239500Y-66404258D02*
X149239500Y-65929742D01*
X148194500Y-66404258D02*
X148194500Y-65929742D01*
%TO.C,R10*%
X143114500Y-66277258D02*
X143114500Y-65802742D01*
X144159500Y-66277258D02*
X144159500Y-65802742D01*
%TO.C,R11*%
X141844500Y-79137742D02*
X141844500Y-79612258D01*
X142889500Y-79137742D02*
X142889500Y-79612258D01*
%TO.C,R12*%
X149239500Y-79137742D02*
X149239500Y-79612258D01*
X148194500Y-79137742D02*
X148194500Y-79612258D01*
%TO.C,R13*%
X103361258Y-85329500D02*
X102886742Y-85329500D01*
X103361258Y-86374500D02*
X102886742Y-86374500D01*
%TO.C,R14*%
X144509258Y-116063500D02*
X144034742Y-116063500D01*
X144509258Y-117108500D02*
X144034742Y-117108500D01*
%TO.C,R15*%
X143749500Y-122825742D02*
X143749500Y-123300258D01*
X144794500Y-122825742D02*
X144794500Y-123300258D01*
%TO.C,R16*%
X156861742Y-121397500D02*
X157336258Y-121397500D01*
X156861742Y-122442500D02*
X157336258Y-122442500D01*
%TO.C,R17*%
X156861742Y-116600500D02*
X157336258Y-116600500D01*
X156861742Y-115555500D02*
X157336258Y-115555500D01*
%TO.C,R18*%
X161400258Y-90536500D02*
X160925742Y-90536500D01*
X161400258Y-91581500D02*
X160925742Y-91581500D01*
%TO.C,R19*%
X160925742Y-88123500D02*
X161400258Y-88123500D01*
X160925742Y-89168500D02*
X161400258Y-89168500D01*
%TO.C,R20*%
X161273258Y-80913500D02*
X160798742Y-80913500D01*
X161273258Y-79868500D02*
X160798742Y-79868500D01*
%TO.C,R21*%
X161019258Y-65517500D02*
X160544742Y-65517500D01*
X161019258Y-66562500D02*
X160544742Y-66562500D01*
%TO.C,R22*%
X160892258Y-70597500D02*
X160417742Y-70597500D01*
X160892258Y-71642500D02*
X160417742Y-71642500D01*
%TO.C,R23*%
X174006742Y-71867500D02*
X174481258Y-71867500D01*
X174006742Y-72912500D02*
X174481258Y-72912500D01*
%TO.C,R24*%
X173879742Y-66562500D02*
X174354258Y-66562500D01*
X173879742Y-65517500D02*
X174354258Y-65517500D01*
%TO.C,R25*%
X135111258Y-92089500D02*
X134636742Y-92089500D01*
X135111258Y-91044500D02*
X134636742Y-91044500D01*
%TO.C,R26*%
X135111258Y-89803500D02*
X134636742Y-89803500D01*
X135111258Y-88758500D02*
X134636742Y-88758500D01*
%TO.C,R27*%
X119490258Y-104154500D02*
X119015742Y-104154500D01*
X119490258Y-103109500D02*
X119015742Y-103109500D01*
%TO.C,R28*%
X141588258Y-95997500D02*
X141113742Y-95997500D01*
X141588258Y-97042500D02*
X141113742Y-97042500D01*
%TO.C,R29*%
X125586258Y-107935500D02*
X125111742Y-107935500D01*
X125586258Y-108980500D02*
X125111742Y-108980500D01*
%TO.C,R30*%
X118253742Y-96632500D02*
X118728258Y-96632500D01*
X118253742Y-97677500D02*
X118728258Y-97677500D01*
%TO.C,R31*%
X114443742Y-96632500D02*
X114918258Y-96632500D01*
X114443742Y-97677500D02*
X114918258Y-97677500D01*
%TO.C,R32*%
X97296500Y-121047742D02*
X97296500Y-121522258D01*
X96251500Y-121047742D02*
X96251500Y-121522258D01*
%TO.C,R33*%
X100694258Y-110729500D02*
X100219742Y-110729500D01*
X100694258Y-111774500D02*
X100219742Y-111774500D01*
%TO.C,R34*%
X100694258Y-109742500D02*
X100219742Y-109742500D01*
X100694258Y-108697500D02*
X100219742Y-108697500D01*
%TO.C,R35*%
X99328500Y-121047742D02*
X99328500Y-121522258D01*
X98283500Y-121047742D02*
X98283500Y-121522258D01*
%TO.C,R36*%
X106790258Y-115428500D02*
X106315742Y-115428500D01*
X106790258Y-116473500D02*
X106315742Y-116473500D01*
%TO.C,R37*%
X103521742Y-99680500D02*
X103996258Y-99680500D01*
X103521742Y-100725500D02*
X103996258Y-100725500D01*
%TO.C,R38*%
X100092742Y-100725500D02*
X100567258Y-100725500D01*
X100092742Y-99680500D02*
X100567258Y-99680500D01*
%TO.C,U1*%
X65278000Y-106446000D02*
X61828000Y-106446000D01*
X65278000Y-106446000D02*
X67228000Y-106446000D01*
X65278000Y-116566000D02*
X63328000Y-116566000D01*
X65278000Y-116566000D02*
X67228000Y-116566000D01*
%TO.C,U3*%
X140482000Y-72644000D02*
X140482000Y-74594000D01*
X140482000Y-72644000D02*
X140482000Y-70694000D01*
X150602000Y-72644000D02*
X150602000Y-74594000D01*
X150602000Y-72644000D02*
X150602000Y-69194000D01*
%TO.C,U4*%
X167640000Y-109962000D02*
X169590000Y-109962000D01*
X167640000Y-109962000D02*
X165690000Y-109962000D01*
X167640000Y-99842000D02*
X169590000Y-99842000D01*
X167640000Y-99842000D02*
X164190000Y-99842000D01*
%TO.C,U5*%
X167259000Y-74275000D02*
X169209000Y-74275000D01*
X167259000Y-74275000D02*
X165309000Y-74275000D01*
X167259000Y-64155000D02*
X169209000Y-64155000D01*
X167259000Y-64155000D02*
X163809000Y-64155000D01*
%TO.C,U7*%
X150749000Y-114066000D02*
X147299000Y-114066000D01*
X150749000Y-114066000D02*
X152699000Y-114066000D01*
X150749000Y-124186000D02*
X148799000Y-124186000D01*
X150749000Y-124186000D02*
X152699000Y-124186000D01*
%TO.C,U8*%
X125222000Y-124186000D02*
X127172000Y-124186000D01*
X125222000Y-124186000D02*
X123272000Y-124186000D01*
X125222000Y-114066000D02*
X127172000Y-114066000D01*
X125222000Y-114066000D02*
X121772000Y-114066000D01*
%TO.C,U9*%
X150876000Y-106954000D02*
X152826000Y-106954000D01*
X150876000Y-106954000D02*
X148926000Y-106954000D01*
X150876000Y-101834000D02*
X152826000Y-101834000D01*
X150876000Y-101834000D02*
X147426000Y-101834000D01*
%TO.C,U10*%
X86108000Y-66619000D02*
X87568000Y-66619000D01*
X86108000Y-69779000D02*
X88268000Y-69779000D01*
X86108000Y-69779000D02*
X86108000Y-68849000D01*
X86108000Y-66619000D02*
X86108000Y-67549000D01*
%TO.C,U12*%
X103505000Y-64242000D02*
X100055000Y-64242000D01*
X103505000Y-64242000D02*
X105455000Y-64242000D01*
X103505000Y-69362000D02*
X101555000Y-69362000D01*
X103505000Y-69362000D02*
X105455000Y-69362000D01*
%TO.C,U13*%
X127127000Y-69743000D02*
X129077000Y-69743000D01*
X127127000Y-69743000D02*
X125177000Y-69743000D01*
X127127000Y-64623000D02*
X129077000Y-64623000D01*
X127127000Y-64623000D02*
X123677000Y-64623000D01*
%TO.C,U14*%
X103251000Y-83713000D02*
X105201000Y-83713000D01*
X103251000Y-83713000D02*
X101301000Y-83713000D01*
X103251000Y-78593000D02*
X105201000Y-78593000D01*
X103251000Y-78593000D02*
X99801000Y-78593000D01*
%TO.C,U15*%
X167640000Y-89134000D02*
X164190000Y-89134000D01*
X167640000Y-89134000D02*
X169590000Y-89134000D01*
X167640000Y-94254000D02*
X165690000Y-94254000D01*
X167640000Y-94254000D02*
X169590000Y-94254000D01*
%TO.C,U16*%
X167640000Y-78466000D02*
X164190000Y-78466000D01*
X167640000Y-78466000D02*
X169590000Y-78466000D01*
X167640000Y-83586000D02*
X165690000Y-83586000D01*
X167640000Y-83586000D02*
X169590000Y-83586000D01*
%TO.C,U17*%
X141224000Y-89642000D02*
X137774000Y-89642000D01*
X141224000Y-89642000D02*
X143174000Y-89642000D01*
X141224000Y-94762000D02*
X139274000Y-94762000D01*
X141224000Y-94762000D02*
X143174000Y-94762000D01*
%TO.C,U18*%
X125476000Y-106827000D02*
X127426000Y-106827000D01*
X125476000Y-106827000D02*
X123526000Y-106827000D01*
X125476000Y-101707000D02*
X127426000Y-101707000D01*
X125476000Y-101707000D02*
X122026000Y-101707000D01*
%TO.C,U19*%
X76416000Y-67733000D02*
X76416000Y-64283000D01*
X76416000Y-67733000D02*
X76416000Y-69683000D01*
X66296000Y-67733000D02*
X66296000Y-65783000D01*
X66296000Y-67733000D02*
X66296000Y-69683000D01*
%TO.C,U20*%
X106680000Y-109327000D02*
X103230000Y-109327000D01*
X106680000Y-109327000D02*
X108630000Y-109327000D01*
X106680000Y-114447000D02*
X104730000Y-114447000D01*
X106680000Y-114447000D02*
X108630000Y-114447000D01*
%TO.C,U21*%
X83058000Y-106700000D02*
X79608000Y-106700000D01*
X83058000Y-106700000D02*
X85008000Y-106700000D01*
X83058000Y-116820000D02*
X81108000Y-116820000D01*
X83058000Y-116820000D02*
X85008000Y-116820000D01*
%TO.C,C53*%
X119139580Y-117981000D02*
X118858420Y-117981000D01*
X119139580Y-119001000D02*
X118858420Y-119001000D01*
%TO.C,C54*%
X131063420Y-117854000D02*
X131344580Y-117854000D01*
X131063420Y-118874000D02*
X131344580Y-118874000D01*
%TO.C,C55*%
X131050420Y-119632000D02*
X131331580Y-119632000D01*
X131050420Y-120652000D02*
X131331580Y-120652000D01*
D12*
%TO.C,P1*%
X187960000Y-73660000D02*
X187960000Y-68580000D01*
X190500000Y-73660000D02*
X187960000Y-73660000D01*
X190500000Y-68580000D02*
X190500000Y-73660000D01*
X187960000Y-68580000D02*
X190500000Y-68580000D01*
%TO.C,P2*%
X187960000Y-80010000D02*
X190500000Y-80010000D01*
X190500000Y-80010000D02*
X190500000Y-85090000D01*
X190500000Y-85090000D02*
X187960000Y-85090000D01*
X187960000Y-85090000D02*
X187960000Y-80010000D01*
%TO.C,P3*%
X187960000Y-96520000D02*
X187960000Y-91440000D01*
X190500000Y-96520000D02*
X187960000Y-96520000D01*
X190500000Y-91440000D02*
X190500000Y-96520000D01*
X187960000Y-91440000D02*
X190500000Y-91440000D01*
D15*
%TO.C,U6*%
X64008000Y-52832000D02*
X76708000Y-52832000D01*
X64008000Y-52832000D02*
X62738000Y-52832000D01*
X76708000Y-52832000D02*
X77978000Y-52832000D01*
X61468000Y-52832000D02*
X62738000Y-52832000D01*
X77978000Y-52832000D02*
X80518000Y-52832000D01*
X61468000Y-57912000D02*
X80518000Y-57912000D01*
X61468000Y-52832000D02*
X61468000Y-57912000D01*
X81153000Y-57912000D02*
X80518000Y-57912000D01*
X81153000Y-52832000D02*
X81153000Y-57912000D01*
X80518000Y-52832000D02*
X81153000Y-52832000D01*
%TO.C,U2*%
D10*
X68275904Y-84973619D02*
X68275904Y-85796095D01*
X68324285Y-85892857D01*
X68372666Y-85941238D01*
X68469428Y-85989619D01*
X68662952Y-85989619D01*
X68759714Y-85941238D01*
X68808095Y-85892857D01*
X68856476Y-85796095D01*
X68856476Y-84973619D01*
X69291904Y-85070380D02*
X69340285Y-85022000D01*
X69437047Y-84973619D01*
X69678952Y-84973619D01*
X69775714Y-85022000D01*
X69824095Y-85070380D01*
X69872476Y-85167142D01*
X69872476Y-85263904D01*
X69824095Y-85409047D01*
X69243523Y-85989619D01*
X69872476Y-85989619D01*
D16*
X63930952Y-88522380D02*
X63930952Y-87522380D01*
X64264285Y-87522380D02*
X64835714Y-87522380D01*
X64550000Y-88522380D02*
X64550000Y-87522380D01*
X65121428Y-88474761D02*
X65264285Y-88522380D01*
X65502380Y-88522380D01*
X65597619Y-88474761D01*
X65645238Y-88427142D01*
X65692857Y-88331904D01*
X65692857Y-88236666D01*
X65645238Y-88141428D01*
X65597619Y-88093809D01*
X65502380Y-88046190D01*
X65311904Y-87998571D01*
X65216666Y-87950952D01*
X65169047Y-87903333D01*
X65121428Y-87808095D01*
X65121428Y-87712857D01*
X65169047Y-87617619D01*
X65216666Y-87570000D01*
X65311904Y-87522380D01*
X65550000Y-87522380D01*
X65692857Y-87570000D01*
X66311904Y-88046190D02*
X66311904Y-88522380D01*
X65978571Y-87522380D02*
X66311904Y-88046190D01*
X66645238Y-87522380D01*
X66740476Y-88617619D02*
X67502380Y-88617619D01*
X68073809Y-87998571D02*
X68216666Y-88046190D01*
X68264285Y-88093809D01*
X68311904Y-88189047D01*
X68311904Y-88331904D01*
X68264285Y-88427142D01*
X68216666Y-88474761D01*
X68121428Y-88522380D01*
X67740476Y-88522380D01*
X67740476Y-87522380D01*
X68073809Y-87522380D01*
X68169047Y-87570000D01*
X68216666Y-87617619D01*
X68264285Y-87712857D01*
X68264285Y-87808095D01*
X68216666Y-87903333D01*
X68169047Y-87950952D01*
X68073809Y-87998571D01*
X67740476Y-87998571D01*
X68740476Y-88522380D02*
X68740476Y-87522380D01*
X69073809Y-87522380D02*
X69645238Y-87522380D01*
X69359523Y-88522380D02*
X69359523Y-87522380D01*
X69930952Y-88474761D02*
X70073809Y-88522380D01*
X70311904Y-88522380D01*
X70407142Y-88474761D01*
X70454761Y-88427142D01*
X70502380Y-88331904D01*
X70502380Y-88236666D01*
X70454761Y-88141428D01*
X70407142Y-88093809D01*
X70311904Y-88046190D01*
X70121428Y-87998571D01*
X70026190Y-87950952D01*
X69978571Y-87903333D01*
X69930952Y-87808095D01*
X69930952Y-87712857D01*
X69978571Y-87617619D01*
X70026190Y-87570000D01*
X70121428Y-87522380D01*
X70359523Y-87522380D01*
X70502380Y-87570000D01*
X71121428Y-88046190D02*
X71121428Y-88522380D01*
X70788095Y-87522380D02*
X71121428Y-88046190D01*
X71454761Y-87522380D01*
X71550000Y-88617619D02*
X72311904Y-88617619D01*
X72550000Y-88522380D02*
X72550000Y-87522380D01*
X72883333Y-88236666D01*
X73216666Y-87522380D01*
X73216666Y-88522380D01*
X74121428Y-87855714D02*
X74121428Y-88522380D01*
X73883333Y-87474761D02*
X73645238Y-88189047D01*
X74264285Y-88189047D01*
%TO.C,P5*%
D10*
X53860095Y-66880619D02*
X53860095Y-65864619D01*
X54247142Y-65864619D01*
X54343904Y-65913000D01*
X54392285Y-65961380D01*
X54440666Y-66058142D01*
X54440666Y-66203285D01*
X54392285Y-66300047D01*
X54343904Y-66348428D01*
X54247142Y-66396809D01*
X53860095Y-66396809D01*
X55359904Y-65864619D02*
X54876095Y-65864619D01*
X54827714Y-66348428D01*
X54876095Y-66300047D01*
X54972857Y-66251666D01*
X55214761Y-66251666D01*
X55311523Y-66300047D01*
X55359904Y-66348428D01*
X55408285Y-66445190D01*
X55408285Y-66687095D01*
X55359904Y-66783857D01*
X55311523Y-66832238D01*
X55214761Y-66880619D01*
X54972857Y-66880619D01*
X54876095Y-66832238D01*
X54827714Y-66783857D01*
%TO.C,C3*%
D16*
X173696333Y-103067142D02*
X173648714Y-103114761D01*
X173505857Y-103162380D01*
X173410619Y-103162380D01*
X173267761Y-103114761D01*
X173172523Y-103019523D01*
X173124904Y-102924285D01*
X173077285Y-102733809D01*
X173077285Y-102590952D01*
X173124904Y-102400476D01*
X173172523Y-102305238D01*
X173267761Y-102210000D01*
X173410619Y-102162380D01*
X173505857Y-102162380D01*
X173648714Y-102210000D01*
X173696333Y-102257619D01*
X174029666Y-102162380D02*
X174648714Y-102162380D01*
X174315380Y-102543333D01*
X174458238Y-102543333D01*
X174553476Y-102590952D01*
X174601095Y-102638571D01*
X174648714Y-102733809D01*
X174648714Y-102971904D01*
X174601095Y-103067142D01*
X174553476Y-103114761D01*
X174458238Y-103162380D01*
X174172523Y-103162380D01*
X174077285Y-103114761D01*
X174029666Y-103067142D01*
%TO.C,U11*%
X126015904Y-74411380D02*
X126015904Y-75220904D01*
X126063523Y-75316142D01*
X126111142Y-75363761D01*
X126206380Y-75411380D01*
X126396857Y-75411380D01*
X126492095Y-75363761D01*
X126539714Y-75316142D01*
X126587333Y-75220904D01*
X126587333Y-74411380D01*
X127587333Y-75411380D02*
X127015904Y-75411380D01*
X127301619Y-75411380D02*
X127301619Y-74411380D01*
X127206380Y-74554238D01*
X127111142Y-74649476D01*
X127015904Y-74697095D01*
X128539714Y-75411380D02*
X127968285Y-75411380D01*
X128254000Y-75411380D02*
X128254000Y-74411380D01*
X128158761Y-74554238D01*
X128063523Y-74649476D01*
X127968285Y-74697095D01*
%TO.C,K1*%
D10*
X176227619Y-123431904D02*
X175211619Y-123431904D01*
X176227619Y-122851333D02*
X175647047Y-123286761D01*
X175211619Y-122851333D02*
X175792190Y-123431904D01*
X176227619Y-121883714D02*
X176227619Y-122464285D01*
X176227619Y-122174000D02*
X175211619Y-122174000D01*
X175356761Y-122270761D01*
X175453523Y-122367523D01*
X175501904Y-122464285D01*
%TO.C,P14*%
D14*
X61141428Y-135200571D02*
X59617428Y-135200571D01*
X59617428Y-134620000D01*
X59690000Y-134474857D01*
X59762571Y-134402285D01*
X59907714Y-134329714D01*
X60125428Y-134329714D01*
X60270571Y-134402285D01*
X60343142Y-134474857D01*
X60415714Y-134620000D01*
X60415714Y-135200571D01*
X61141428Y-132878285D02*
X61141428Y-133749142D01*
X61141428Y-133313714D02*
X59617428Y-133313714D01*
X59835142Y-133458857D01*
X59980285Y-133603999D01*
X60052857Y-133749142D01*
X60125428Y-131572000D02*
X61141428Y-131572000D01*
X59544857Y-131934857D02*
X60633428Y-132297714D01*
X60633428Y-131354285D01*
D17*
X76619462Y-135975876D02*
X76679939Y-135915400D01*
X76800891Y-135854923D01*
X77103272Y-135854923D01*
X77224224Y-135915400D01*
X77284700Y-135975876D01*
X77345177Y-136096828D01*
X77345177Y-136217780D01*
X77284700Y-136399209D01*
X76558986Y-137124923D01*
X77345177Y-137124923D01*
X66440715Y-130424403D02*
X66682620Y-130424403D01*
X66803572Y-130363927D01*
X66864048Y-130303451D01*
X66985000Y-130122022D01*
X67045477Y-129880118D01*
X67045477Y-129396308D01*
X66985000Y-129275356D01*
X66924524Y-129214880D01*
X66803572Y-129154403D01*
X66561667Y-129154403D01*
X66440715Y-129214880D01*
X66380239Y-129275356D01*
X66319762Y-129396308D01*
X66319762Y-129698689D01*
X66380239Y-129819641D01*
X66440715Y-129880118D01*
X66561667Y-129940594D01*
X66803572Y-129940594D01*
X66924524Y-129880118D01*
X66985000Y-129819641D01*
X67045477Y-129698689D01*
X66740435Y-137124923D02*
X66014720Y-137124923D01*
X66377578Y-137124923D02*
X66377578Y-135854923D01*
X66256625Y-136036352D01*
X66135673Y-136157304D01*
X66014720Y-136217780D01*
X67526625Y-135854923D02*
X67647578Y-135854923D01*
X67768530Y-135915400D01*
X67829006Y-135975876D01*
X67889482Y-136096828D01*
X67949959Y-136338733D01*
X67949959Y-136641114D01*
X67889482Y-136883019D01*
X67829006Y-137003971D01*
X67768530Y-137064447D01*
X67647578Y-137124923D01*
X67526625Y-137124923D01*
X67405673Y-137064447D01*
X67345197Y-137003971D01*
X67284720Y-136883019D01*
X67224244Y-136641114D01*
X67224244Y-136338733D01*
X67284720Y-136096828D01*
X67345197Y-135975876D01*
X67405673Y-135915400D01*
X67526625Y-135854923D01*
%TO.C,P13*%
D14*
X87049428Y-134946571D02*
X85525428Y-134946571D01*
X85525428Y-134366000D01*
X85598000Y-134220857D01*
X85670571Y-134148285D01*
X85815714Y-134075714D01*
X86033428Y-134075714D01*
X86178571Y-134148285D01*
X86251142Y-134220857D01*
X86323714Y-134366000D01*
X86323714Y-134946571D01*
X87049428Y-132624285D02*
X87049428Y-133495142D01*
X87049428Y-133059714D02*
X85525428Y-133059714D01*
X85743142Y-133204857D01*
X85888285Y-133350000D01*
X85960857Y-133495142D01*
X85525428Y-132116285D02*
X85525428Y-131172857D01*
X86106000Y-131680857D01*
X86106000Y-131463142D01*
X86178571Y-131318000D01*
X86251142Y-131245428D01*
X86396285Y-131172857D01*
X86759142Y-131172857D01*
X86904285Y-131245428D01*
X86976857Y-131318000D01*
X87049428Y-131463142D01*
X87049428Y-131898571D01*
X86976857Y-132043714D01*
X86904285Y-132116285D01*
D17*
X102527462Y-135975876D02*
X102587939Y-135915400D01*
X102708891Y-135854923D01*
X103011272Y-135854923D01*
X103132224Y-135915400D01*
X103192700Y-135975876D01*
X103253177Y-136096828D01*
X103253177Y-136217780D01*
X103192700Y-136399209D01*
X102466986Y-137124923D01*
X103253177Y-137124923D01*
X92348715Y-130424403D02*
X92590620Y-130424403D01*
X92711572Y-130363927D01*
X92772048Y-130303451D01*
X92893000Y-130122022D01*
X92953477Y-129880118D01*
X92953477Y-129396308D01*
X92893000Y-129275356D01*
X92832524Y-129214880D01*
X92711572Y-129154403D01*
X92469667Y-129154403D01*
X92348715Y-129214880D01*
X92288239Y-129275356D01*
X92227762Y-129396308D01*
X92227762Y-129698689D01*
X92288239Y-129819641D01*
X92348715Y-129880118D01*
X92469667Y-129940594D01*
X92711572Y-129940594D01*
X92832524Y-129880118D01*
X92893000Y-129819641D01*
X92953477Y-129698689D01*
X92648435Y-137124923D02*
X91922720Y-137124923D01*
X92285578Y-137124923D02*
X92285578Y-135854923D01*
X92164625Y-136036352D01*
X92043673Y-136157304D01*
X91922720Y-136217780D01*
X93434625Y-135854923D02*
X93555578Y-135854923D01*
X93676530Y-135915400D01*
X93737006Y-135975876D01*
X93797482Y-136096828D01*
X93857959Y-136338733D01*
X93857959Y-136641114D01*
X93797482Y-136883019D01*
X93737006Y-137003971D01*
X93676530Y-137064447D01*
X93555578Y-137124923D01*
X93434625Y-137124923D01*
X93313673Y-137064447D01*
X93253197Y-137003971D01*
X93192720Y-136883019D01*
X93132244Y-136641114D01*
X93132244Y-136338733D01*
X93192720Y-136096828D01*
X93253197Y-135975876D01*
X93313673Y-135915400D01*
X93434625Y-135854923D01*
%TO.C,P7*%
D10*
X132285619Y-55359904D02*
X131269619Y-55359904D01*
X131269619Y-54972857D01*
X131318000Y-54876095D01*
X131366380Y-54827714D01*
X131463142Y-54779333D01*
X131608285Y-54779333D01*
X131705047Y-54827714D01*
X131753428Y-54876095D01*
X131801809Y-54972857D01*
X131801809Y-55359904D01*
X131269619Y-54440666D02*
X131269619Y-53763333D01*
X132285619Y-54198761D01*
%TO.C,P9*%
X140413619Y-55359904D02*
X139397619Y-55359904D01*
X139397619Y-54972857D01*
X139446000Y-54876095D01*
X139494380Y-54827714D01*
X139591142Y-54779333D01*
X139736285Y-54779333D01*
X139833047Y-54827714D01*
X139881428Y-54876095D01*
X139929809Y-54972857D01*
X139929809Y-55359904D01*
X140413619Y-54295523D02*
X140413619Y-54102000D01*
X140365238Y-54005238D01*
X140316857Y-53956857D01*
X140171714Y-53860095D01*
X139978190Y-53811714D01*
X139591142Y-53811714D01*
X139494380Y-53860095D01*
X139446000Y-53908476D01*
X139397619Y-54005238D01*
X139397619Y-54198761D01*
X139446000Y-54295523D01*
X139494380Y-54343904D01*
X139591142Y-54392285D01*
X139833047Y-54392285D01*
X139929809Y-54343904D01*
X139978190Y-54295523D01*
X140026571Y-54198761D01*
X140026571Y-54005238D01*
X139978190Y-53908476D01*
X139929809Y-53860095D01*
X139833047Y-53811714D01*
%TO.C,P20*%
X161140019Y-136768114D02*
X160124019Y-136768114D01*
X160124019Y-136381066D01*
X160172400Y-136284304D01*
X160220780Y-136235923D01*
X160317542Y-136187542D01*
X160462685Y-136187542D01*
X160559447Y-136235923D01*
X160607828Y-136284304D01*
X160656209Y-136381066D01*
X160656209Y-136768114D01*
X160220780Y-135800495D02*
X160172400Y-135752114D01*
X160124019Y-135655352D01*
X160124019Y-135413447D01*
X160172400Y-135316685D01*
X160220780Y-135268304D01*
X160317542Y-135219923D01*
X160414304Y-135219923D01*
X160559447Y-135268304D01*
X161140019Y-135848876D01*
X161140019Y-135219923D01*
X160124019Y-134590971D02*
X160124019Y-134494209D01*
X160172400Y-134397447D01*
X160220780Y-134349066D01*
X160317542Y-134300685D01*
X160511066Y-134252304D01*
X160752971Y-134252304D01*
X160946495Y-134300685D01*
X161043257Y-134349066D01*
X161091638Y-134397447D01*
X161140019Y-134494209D01*
X161140019Y-134590971D01*
X161091638Y-134687733D01*
X161043257Y-134736114D01*
X160946495Y-134784495D01*
X160752971Y-134832876D01*
X160511066Y-134832876D01*
X160317542Y-134784495D01*
X160220780Y-134736114D01*
X160172400Y-134687733D01*
X160124019Y-134590971D01*
%TO.C,P21*%
X148541619Y-55843714D02*
X147525619Y-55843714D01*
X147525619Y-55456666D01*
X147574000Y-55359904D01*
X147622380Y-55311523D01*
X147719142Y-55263142D01*
X147864285Y-55263142D01*
X147961047Y-55311523D01*
X148009428Y-55359904D01*
X148057809Y-55456666D01*
X148057809Y-55843714D01*
X147622380Y-54876095D02*
X147574000Y-54827714D01*
X147525619Y-54730952D01*
X147525619Y-54489047D01*
X147574000Y-54392285D01*
X147622380Y-54343904D01*
X147719142Y-54295523D01*
X147815904Y-54295523D01*
X147961047Y-54343904D01*
X148541619Y-54924476D01*
X148541619Y-54295523D01*
X148541619Y-53327904D02*
X148541619Y-53908476D01*
X148541619Y-53618190D02*
X147525619Y-53618190D01*
X147670761Y-53714952D01*
X147767523Y-53811714D01*
X147815904Y-53908476D01*
%TO.C,P19*%
X156669619Y-55843714D02*
X155653619Y-55843714D01*
X155653619Y-55456666D01*
X155702000Y-55359904D01*
X155750380Y-55311523D01*
X155847142Y-55263142D01*
X155992285Y-55263142D01*
X156089047Y-55311523D01*
X156137428Y-55359904D01*
X156185809Y-55456666D01*
X156185809Y-55843714D01*
X156669619Y-54295523D02*
X156669619Y-54876095D01*
X156669619Y-54585809D02*
X155653619Y-54585809D01*
X155798761Y-54682571D01*
X155895523Y-54779333D01*
X155943904Y-54876095D01*
X156669619Y-53811714D02*
X156669619Y-53618190D01*
X156621238Y-53521428D01*
X156572857Y-53473047D01*
X156427714Y-53376285D01*
X156234190Y-53327904D01*
X155847142Y-53327904D01*
X155750380Y-53376285D01*
X155702000Y-53424666D01*
X155653619Y-53521428D01*
X155653619Y-53714952D01*
X155702000Y-53811714D01*
X155750380Y-53860095D01*
X155847142Y-53908476D01*
X156089047Y-53908476D01*
X156185809Y-53860095D01*
X156234190Y-53811714D01*
X156282571Y-53714952D01*
X156282571Y-53521428D01*
X156234190Y-53424666D01*
X156185809Y-53376285D01*
X156089047Y-53327904D01*
%TO.C,P6*%
X124157619Y-55359904D02*
X123141619Y-55359904D01*
X123141619Y-54972857D01*
X123190000Y-54876095D01*
X123238380Y-54827714D01*
X123335142Y-54779333D01*
X123480285Y-54779333D01*
X123577047Y-54827714D01*
X123625428Y-54876095D01*
X123673809Y-54972857D01*
X123673809Y-55359904D01*
X123141619Y-53908476D02*
X123141619Y-54102000D01*
X123190000Y-54198761D01*
X123238380Y-54247142D01*
X123383523Y-54343904D01*
X123577047Y-54392285D01*
X123964095Y-54392285D01*
X124060857Y-54343904D01*
X124109238Y-54295523D01*
X124157619Y-54198761D01*
X124157619Y-54005238D01*
X124109238Y-53908476D01*
X124060857Y-53860095D01*
X123964095Y-53811714D01*
X123722190Y-53811714D01*
X123625428Y-53860095D01*
X123577047Y-53908476D01*
X123528666Y-54005238D01*
X123528666Y-54198761D01*
X123577047Y-54295523D01*
X123625428Y-54343904D01*
X123722190Y-54392285D01*
%TO.C,P10*%
X107901619Y-55843714D02*
X106885619Y-55843714D01*
X106885619Y-55456666D01*
X106934000Y-55359904D01*
X106982380Y-55311523D01*
X107079142Y-55263142D01*
X107224285Y-55263142D01*
X107321047Y-55311523D01*
X107369428Y-55359904D01*
X107417809Y-55456666D01*
X107417809Y-55843714D01*
X107901619Y-54295523D02*
X107901619Y-54876095D01*
X107901619Y-54585809D02*
X106885619Y-54585809D01*
X107030761Y-54682571D01*
X107127523Y-54779333D01*
X107175904Y-54876095D01*
X106885619Y-53666571D02*
X106885619Y-53569809D01*
X106934000Y-53473047D01*
X106982380Y-53424666D01*
X107079142Y-53376285D01*
X107272666Y-53327904D01*
X107514571Y-53327904D01*
X107708095Y-53376285D01*
X107804857Y-53424666D01*
X107853238Y-53473047D01*
X107901619Y-53569809D01*
X107901619Y-53666571D01*
X107853238Y-53763333D01*
X107804857Y-53811714D01*
X107708095Y-53860095D01*
X107514571Y-53908476D01*
X107272666Y-53908476D01*
X107079142Y-53860095D01*
X106982380Y-53811714D01*
X106934000Y-53763333D01*
X106885619Y-53666571D01*
%TO.C,P12*%
X99773619Y-55843714D02*
X98757619Y-55843714D01*
X98757619Y-55456666D01*
X98806000Y-55359904D01*
X98854380Y-55311523D01*
X98951142Y-55263142D01*
X99096285Y-55263142D01*
X99193047Y-55311523D01*
X99241428Y-55359904D01*
X99289809Y-55456666D01*
X99289809Y-55843714D01*
X99773619Y-54295523D02*
X99773619Y-54876095D01*
X99773619Y-54585809D02*
X98757619Y-54585809D01*
X98902761Y-54682571D01*
X98999523Y-54779333D01*
X99047904Y-54876095D01*
X98854380Y-53908476D02*
X98806000Y-53860095D01*
X98757619Y-53763333D01*
X98757619Y-53521428D01*
X98806000Y-53424666D01*
X98854380Y-53376285D01*
X98951142Y-53327904D01*
X99047904Y-53327904D01*
X99193047Y-53376285D01*
X99773619Y-53956857D01*
X99773619Y-53327904D01*
%TO.C,P11*%
X91645619Y-55843714D02*
X90629619Y-55843714D01*
X90629619Y-55456666D01*
X90678000Y-55359904D01*
X90726380Y-55311523D01*
X90823142Y-55263142D01*
X90968285Y-55263142D01*
X91065047Y-55311523D01*
X91113428Y-55359904D01*
X91161809Y-55456666D01*
X91161809Y-55843714D01*
X91645619Y-54295523D02*
X91645619Y-54876095D01*
X91645619Y-54585809D02*
X90629619Y-54585809D01*
X90774761Y-54682571D01*
X90871523Y-54779333D01*
X90919904Y-54876095D01*
X91645619Y-53327904D02*
X91645619Y-53908476D01*
X91645619Y-53618190D02*
X90629619Y-53618190D01*
X90774761Y-53714952D01*
X90871523Y-53811714D01*
X90919904Y-53908476D01*
%TO.C,P4*%
X53860095Y-105107619D02*
X53860095Y-104091619D01*
X54247142Y-104091619D01*
X54343904Y-104140000D01*
X54392285Y-104188380D01*
X54440666Y-104285142D01*
X54440666Y-104430285D01*
X54392285Y-104527047D01*
X54343904Y-104575428D01*
X54247142Y-104623809D01*
X53860095Y-104623809D01*
X55311523Y-104430285D02*
X55311523Y-105107619D01*
X55069619Y-104043238D02*
X54827714Y-104768952D01*
X55456666Y-104768952D01*
%TO.C,P18*%
D12*
X138774714Y-136561285D02*
X138012714Y-136561285D01*
X138012714Y-136271000D01*
X138049000Y-136198428D01*
X138085285Y-136162142D01*
X138157857Y-136125857D01*
X138266714Y-136125857D01*
X138339285Y-136162142D01*
X138375571Y-136198428D01*
X138411857Y-136271000D01*
X138411857Y-136561285D01*
X138774714Y-135400142D02*
X138774714Y-135835571D01*
X138774714Y-135617857D02*
X138012714Y-135617857D01*
X138121571Y-135690428D01*
X138194142Y-135763000D01*
X138230428Y-135835571D01*
X138339285Y-134964714D02*
X138303000Y-135037285D01*
X138266714Y-135073571D01*
X138194142Y-135109857D01*
X138157857Y-135109857D01*
X138085285Y-135073571D01*
X138049000Y-135037285D01*
X138012714Y-134964714D01*
X138012714Y-134819571D01*
X138049000Y-134747000D01*
X138085285Y-134710714D01*
X138157857Y-134674428D01*
X138194142Y-134674428D01*
X138266714Y-134710714D01*
X138303000Y-134747000D01*
X138339285Y-134819571D01*
X138339285Y-134964714D01*
X138375571Y-135037285D01*
X138411857Y-135073571D01*
X138484428Y-135109857D01*
X138629571Y-135109857D01*
X138702142Y-135073571D01*
X138738428Y-135037285D01*
X138774714Y-134964714D01*
X138774714Y-134819571D01*
X138738428Y-134747000D01*
X138702142Y-134710714D01*
X138629571Y-134674428D01*
X138484428Y-134674428D01*
X138411857Y-134710714D01*
X138375571Y-134747000D01*
X138339285Y-134819571D01*
%TO.C,P17*%
X149950714Y-136561285D02*
X149188714Y-136561285D01*
X149188714Y-136271000D01*
X149225000Y-136198428D01*
X149261285Y-136162142D01*
X149333857Y-136125857D01*
X149442714Y-136125857D01*
X149515285Y-136162142D01*
X149551571Y-136198428D01*
X149587857Y-136271000D01*
X149587857Y-136561285D01*
X149950714Y-135400142D02*
X149950714Y-135835571D01*
X149950714Y-135617857D02*
X149188714Y-135617857D01*
X149297571Y-135690428D01*
X149370142Y-135763000D01*
X149406428Y-135835571D01*
X149188714Y-135146142D02*
X149188714Y-134638142D01*
X149950714Y-134964714D01*
%TO.C,P8*%
D10*
X116283619Y-55359904D02*
X115267619Y-55359904D01*
X115267619Y-54972857D01*
X115316000Y-54876095D01*
X115364380Y-54827714D01*
X115461142Y-54779333D01*
X115606285Y-54779333D01*
X115703047Y-54827714D01*
X115751428Y-54876095D01*
X115799809Y-54972857D01*
X115799809Y-55359904D01*
X115703047Y-54198761D02*
X115654666Y-54295523D01*
X115606285Y-54343904D01*
X115509523Y-54392285D01*
X115461142Y-54392285D01*
X115364380Y-54343904D01*
X115316000Y-54295523D01*
X115267619Y-54198761D01*
X115267619Y-54005238D01*
X115316000Y-53908476D01*
X115364380Y-53860095D01*
X115461142Y-53811714D01*
X115509523Y-53811714D01*
X115606285Y-53860095D01*
X115654666Y-53908476D01*
X115703047Y-54005238D01*
X115703047Y-54198761D01*
X115751428Y-54295523D01*
X115799809Y-54343904D01*
X115896571Y-54392285D01*
X116090095Y-54392285D01*
X116186857Y-54343904D01*
X116235238Y-54295523D01*
X116283619Y-54198761D01*
X116283619Y-54005238D01*
X116235238Y-53908476D01*
X116186857Y-53860095D01*
X116090095Y-53811714D01*
X115896571Y-53811714D01*
X115799809Y-53860095D01*
X115751428Y-53908476D01*
X115703047Y-54005238D01*
%TO.C,P16*%
X125427619Y-137123714D02*
X124411619Y-137123714D01*
X124411619Y-136736666D01*
X124460000Y-136639904D01*
X124508380Y-136591523D01*
X124605142Y-136543142D01*
X124750285Y-136543142D01*
X124847047Y-136591523D01*
X124895428Y-136639904D01*
X124943809Y-136736666D01*
X124943809Y-137123714D01*
X125427619Y-135575523D02*
X125427619Y-136156095D01*
X125427619Y-135865809D02*
X124411619Y-135865809D01*
X124556761Y-135962571D01*
X124653523Y-136059333D01*
X124701904Y-136156095D01*
X124411619Y-134704666D02*
X124411619Y-134898190D01*
X124460000Y-134994952D01*
X124508380Y-135043333D01*
X124653523Y-135140095D01*
X124847047Y-135188476D01*
X125234095Y-135188476D01*
X125330857Y-135140095D01*
X125379238Y-135091714D01*
X125427619Y-134994952D01*
X125427619Y-134801428D01*
X125379238Y-134704666D01*
X125330857Y-134656285D01*
X125234095Y-134607904D01*
X124992190Y-134607904D01*
X124895428Y-134656285D01*
X124847047Y-134704666D01*
X124798666Y-134801428D01*
X124798666Y-134994952D01*
X124847047Y-135091714D01*
X124895428Y-135140095D01*
X124992190Y-135188476D01*
%TO.C,P15*%
X113997619Y-137123714D02*
X112981619Y-137123714D01*
X112981619Y-136736666D01*
X113030000Y-136639904D01*
X113078380Y-136591523D01*
X113175142Y-136543142D01*
X113320285Y-136543142D01*
X113417047Y-136591523D01*
X113465428Y-136639904D01*
X113513809Y-136736666D01*
X113513809Y-137123714D01*
X113997619Y-135575523D02*
X113997619Y-136156095D01*
X113997619Y-135865809D02*
X112981619Y-135865809D01*
X113126761Y-135962571D01*
X113223523Y-136059333D01*
X113271904Y-136156095D01*
X112981619Y-134656285D02*
X112981619Y-135140095D01*
X113465428Y-135188476D01*
X113417047Y-135140095D01*
X113368666Y-135043333D01*
X113368666Y-134801428D01*
X113417047Y-134704666D01*
X113465428Y-134656285D01*
X113562190Y-134607904D01*
X113804095Y-134607904D01*
X113900857Y-134656285D01*
X113949238Y-134704666D01*
X113997619Y-134801428D01*
X113997619Y-135043333D01*
X113949238Y-135140095D01*
X113900857Y-135188476D01*
%TO.C,C1*%
D16*
X86574333Y-73669142D02*
X86526714Y-73716761D01*
X86383857Y-73764380D01*
X86288619Y-73764380D01*
X86145761Y-73716761D01*
X86050523Y-73621523D01*
X86002904Y-73526285D01*
X85955285Y-73335809D01*
X85955285Y-73192952D01*
X86002904Y-73002476D01*
X86050523Y-72907238D01*
X86145761Y-72812000D01*
X86288619Y-72764380D01*
X86383857Y-72764380D01*
X86526714Y-72812000D01*
X86574333Y-72859619D01*
X87526714Y-73764380D02*
X86955285Y-73764380D01*
X87241000Y-73764380D02*
X87241000Y-72764380D01*
X87145761Y-72907238D01*
X87050523Y-73002476D01*
X86955285Y-73050095D01*
%TO.C,C2*%
X161250333Y-106054142D02*
X161202714Y-106101761D01*
X161059857Y-106149380D01*
X160964619Y-106149380D01*
X160821761Y-106101761D01*
X160726523Y-106006523D01*
X160678904Y-105911285D01*
X160631285Y-105720809D01*
X160631285Y-105577952D01*
X160678904Y-105387476D01*
X160726523Y-105292238D01*
X160821761Y-105197000D01*
X160964619Y-105149380D01*
X161059857Y-105149380D01*
X161202714Y-105197000D01*
X161250333Y-105244619D01*
X161631285Y-105244619D02*
X161678904Y-105197000D01*
X161774142Y-105149380D01*
X162012238Y-105149380D01*
X162107476Y-105197000D01*
X162155095Y-105244619D01*
X162202714Y-105339857D01*
X162202714Y-105435095D01*
X162155095Y-105577952D01*
X161583666Y-106149380D01*
X162202714Y-106149380D01*
%TO.C,C4*%
X173569333Y-107672142D02*
X173521714Y-107719761D01*
X173378857Y-107767380D01*
X173283619Y-107767380D01*
X173140761Y-107719761D01*
X173045523Y-107624523D01*
X172997904Y-107529285D01*
X172950285Y-107338809D01*
X172950285Y-107195952D01*
X172997904Y-107005476D01*
X173045523Y-106910238D01*
X173140761Y-106815000D01*
X173283619Y-106767380D01*
X173378857Y-106767380D01*
X173521714Y-106815000D01*
X173569333Y-106862619D01*
X174426476Y-107100714D02*
X174426476Y-107767380D01*
X174188380Y-106719761D02*
X173950285Y-107434047D01*
X174569333Y-107434047D01*
%TO.C,C5*%
X86574333Y-63222142D02*
X86526714Y-63269761D01*
X86383857Y-63317380D01*
X86288619Y-63317380D01*
X86145761Y-63269761D01*
X86050523Y-63174523D01*
X86002904Y-63079285D01*
X85955285Y-62888809D01*
X85955285Y-62745952D01*
X86002904Y-62555476D01*
X86050523Y-62460238D01*
X86145761Y-62365000D01*
X86288619Y-62317380D01*
X86383857Y-62317380D01*
X86526714Y-62365000D01*
X86574333Y-62412619D01*
X87479095Y-62317380D02*
X87002904Y-62317380D01*
X86955285Y-62793571D01*
X87002904Y-62745952D01*
X87098142Y-62698333D01*
X87336238Y-62698333D01*
X87431476Y-62745952D01*
X87479095Y-62793571D01*
X87526714Y-62888809D01*
X87526714Y-63126904D01*
X87479095Y-63222142D01*
X87431476Y-63269761D01*
X87336238Y-63317380D01*
X87098142Y-63317380D01*
X87002904Y-63269761D01*
X86955285Y-63222142D01*
%TO.C,C6*%
X129500333Y-86336142D02*
X129452714Y-86383761D01*
X129309857Y-86431380D01*
X129214619Y-86431380D01*
X129071761Y-86383761D01*
X128976523Y-86288523D01*
X128928904Y-86193285D01*
X128881285Y-86002809D01*
X128881285Y-85859952D01*
X128928904Y-85669476D01*
X128976523Y-85574238D01*
X129071761Y-85479000D01*
X129214619Y-85431380D01*
X129309857Y-85431380D01*
X129452714Y-85479000D01*
X129500333Y-85526619D01*
X130357476Y-85431380D02*
X130167000Y-85431380D01*
X130071761Y-85479000D01*
X130024142Y-85526619D01*
X129928904Y-85669476D01*
X129881285Y-85859952D01*
X129881285Y-86240904D01*
X129928904Y-86336142D01*
X129976523Y-86383761D01*
X130071761Y-86431380D01*
X130262238Y-86431380D01*
X130357476Y-86383761D01*
X130405095Y-86336142D01*
X130452714Y-86240904D01*
X130452714Y-86002809D01*
X130405095Y-85907571D01*
X130357476Y-85859952D01*
X130262238Y-85812333D01*
X130071761Y-85812333D01*
X129976523Y-85859952D01*
X129928904Y-85907571D01*
X129881285Y-86002809D01*
%TO.C,C7*%
X54586142Y-75096666D02*
X54633761Y-75144285D01*
X54681380Y-75287142D01*
X54681380Y-75382380D01*
X54633761Y-75525238D01*
X54538523Y-75620476D01*
X54443285Y-75668095D01*
X54252809Y-75715714D01*
X54109952Y-75715714D01*
X53919476Y-75668095D01*
X53824238Y-75620476D01*
X53729000Y-75525238D01*
X53681380Y-75382380D01*
X53681380Y-75287142D01*
X53729000Y-75144285D01*
X53776619Y-75096666D01*
X53681380Y-74763333D02*
X53681380Y-74096666D01*
X54681380Y-74525238D01*
%TO.C,C8*%
X92559142Y-88558666D02*
X92606761Y-88606285D01*
X92654380Y-88749142D01*
X92654380Y-88844380D01*
X92606761Y-88987238D01*
X92511523Y-89082476D01*
X92416285Y-89130095D01*
X92225809Y-89177714D01*
X92082952Y-89177714D01*
X91892476Y-89130095D01*
X91797238Y-89082476D01*
X91702000Y-88987238D01*
X91654380Y-88844380D01*
X91654380Y-88749142D01*
X91702000Y-88606285D01*
X91749619Y-88558666D01*
X92082952Y-87987238D02*
X92035333Y-88082476D01*
X91987714Y-88130095D01*
X91892476Y-88177714D01*
X91844857Y-88177714D01*
X91749619Y-88130095D01*
X91702000Y-88082476D01*
X91654380Y-87987238D01*
X91654380Y-87796761D01*
X91702000Y-87701523D01*
X91749619Y-87653904D01*
X91844857Y-87606285D01*
X91892476Y-87606285D01*
X91987714Y-87653904D01*
X92035333Y-87701523D01*
X92082952Y-87796761D01*
X92082952Y-87987238D01*
X92130571Y-88082476D01*
X92178190Y-88130095D01*
X92273428Y-88177714D01*
X92463904Y-88177714D01*
X92559142Y-88130095D01*
X92606761Y-88082476D01*
X92654380Y-87987238D01*
X92654380Y-87796761D01*
X92606761Y-87701523D01*
X92559142Y-87653904D01*
X92463904Y-87606285D01*
X92273428Y-87606285D01*
X92178190Y-87653904D01*
X92130571Y-87701523D01*
X92082952Y-87796761D01*
%TO.C,C9*%
X133928142Y-133770666D02*
X133975761Y-133818285D01*
X134023380Y-133961142D01*
X134023380Y-134056380D01*
X133975761Y-134199238D01*
X133880523Y-134294476D01*
X133785285Y-134342095D01*
X133594809Y-134389714D01*
X133451952Y-134389714D01*
X133261476Y-134342095D01*
X133166238Y-134294476D01*
X133071000Y-134199238D01*
X133023380Y-134056380D01*
X133023380Y-133961142D01*
X133071000Y-133818285D01*
X133118619Y-133770666D01*
X134023380Y-133294476D02*
X134023380Y-133104000D01*
X133975761Y-133008761D01*
X133928142Y-132961142D01*
X133785285Y-132865904D01*
X133594809Y-132818285D01*
X133213857Y-132818285D01*
X133118619Y-132865904D01*
X133071000Y-132913523D01*
X133023380Y-133008761D01*
X133023380Y-133199238D01*
X133071000Y-133294476D01*
X133118619Y-133342095D01*
X133213857Y-133389714D01*
X133451952Y-133389714D01*
X133547190Y-133342095D01*
X133594809Y-133294476D01*
X133642428Y-133199238D01*
X133642428Y-133008761D01*
X133594809Y-132913523D01*
X133547190Y-132865904D01*
X133451952Y-132818285D01*
%TO.C,C10*%
X73001142Y-106814857D02*
X73048761Y-106862476D01*
X73096380Y-107005333D01*
X73096380Y-107100571D01*
X73048761Y-107243428D01*
X72953523Y-107338666D01*
X72858285Y-107386285D01*
X72667809Y-107433904D01*
X72524952Y-107433904D01*
X72334476Y-107386285D01*
X72239238Y-107338666D01*
X72144000Y-107243428D01*
X72096380Y-107100571D01*
X72096380Y-107005333D01*
X72144000Y-106862476D01*
X72191619Y-106814857D01*
X73096380Y-105862476D02*
X73096380Y-106433904D01*
X73096380Y-106148190D02*
X72096380Y-106148190D01*
X72239238Y-106243428D01*
X72334476Y-106338666D01*
X72382095Y-106433904D01*
X72096380Y-105243428D02*
X72096380Y-105148190D01*
X72144000Y-105052952D01*
X72191619Y-105005333D01*
X72286857Y-104957714D01*
X72477333Y-104910095D01*
X72715428Y-104910095D01*
X72905904Y-104957714D01*
X73001142Y-105005333D01*
X73048761Y-105052952D01*
X73096380Y-105148190D01*
X73096380Y-105243428D01*
X73048761Y-105338666D01*
X73001142Y-105386285D01*
X72905904Y-105433904D01*
X72715428Y-105481523D01*
X72477333Y-105481523D01*
X72286857Y-105433904D01*
X72191619Y-105386285D01*
X72144000Y-105338666D01*
X72096380Y-105243428D01*
%TO.C,C11*%
X121150142Y-85828142D02*
X121102523Y-85875761D01*
X120959666Y-85923380D01*
X120864428Y-85923380D01*
X120721571Y-85875761D01*
X120626333Y-85780523D01*
X120578714Y-85685285D01*
X120531095Y-85494809D01*
X120531095Y-85351952D01*
X120578714Y-85161476D01*
X120626333Y-85066238D01*
X120721571Y-84971000D01*
X120864428Y-84923380D01*
X120959666Y-84923380D01*
X121102523Y-84971000D01*
X121150142Y-85018619D01*
X122102523Y-85923380D02*
X121531095Y-85923380D01*
X121816809Y-85923380D02*
X121816809Y-84923380D01*
X121721571Y-85066238D01*
X121626333Y-85161476D01*
X121531095Y-85209095D01*
X123054904Y-85923380D02*
X122483476Y-85923380D01*
X122769190Y-85923380D02*
X122769190Y-84923380D01*
X122673952Y-85066238D01*
X122578714Y-85161476D01*
X122483476Y-85209095D01*
%TO.C,C12*%
X97020142Y-70494142D02*
X96972523Y-70541761D01*
X96829666Y-70589380D01*
X96734428Y-70589380D01*
X96591571Y-70541761D01*
X96496333Y-70446523D01*
X96448714Y-70351285D01*
X96401095Y-70160809D01*
X96401095Y-70017952D01*
X96448714Y-69827476D01*
X96496333Y-69732238D01*
X96591571Y-69637000D01*
X96734428Y-69589380D01*
X96829666Y-69589380D01*
X96972523Y-69637000D01*
X97020142Y-69684619D01*
X97972523Y-70589380D02*
X97401095Y-70589380D01*
X97686809Y-70589380D02*
X97686809Y-69589380D01*
X97591571Y-69732238D01*
X97496333Y-69827476D01*
X97401095Y-69875095D01*
X98353476Y-69684619D02*
X98401095Y-69637000D01*
X98496333Y-69589380D01*
X98734428Y-69589380D01*
X98829666Y-69637000D01*
X98877285Y-69684619D01*
X98924904Y-69779857D01*
X98924904Y-69875095D01*
X98877285Y-70017952D01*
X98305857Y-70589380D01*
X98924904Y-70589380D01*
%TO.C,C13*%
X145010142Y-82938857D02*
X145057761Y-82986476D01*
X145105380Y-83129333D01*
X145105380Y-83224571D01*
X145057761Y-83367428D01*
X144962523Y-83462666D01*
X144867285Y-83510285D01*
X144676809Y-83557904D01*
X144533952Y-83557904D01*
X144343476Y-83510285D01*
X144248238Y-83462666D01*
X144153000Y-83367428D01*
X144105380Y-83224571D01*
X144105380Y-83129333D01*
X144153000Y-82986476D01*
X144200619Y-82938857D01*
X145105380Y-81986476D02*
X145105380Y-82557904D01*
X145105380Y-82272190D02*
X144105380Y-82272190D01*
X144248238Y-82367428D01*
X144343476Y-82462666D01*
X144391095Y-82557904D01*
X144105380Y-81653142D02*
X144105380Y-81034095D01*
X144486333Y-81367428D01*
X144486333Y-81224571D01*
X144533952Y-81129333D01*
X144581571Y-81081714D01*
X144676809Y-81034095D01*
X144914904Y-81034095D01*
X145010142Y-81081714D01*
X145057761Y-81129333D01*
X145105380Y-81224571D01*
X145105380Y-81510285D01*
X145057761Y-81605523D01*
X145010142Y-81653142D01*
%TO.C,C14*%
X117340142Y-69445142D02*
X117292523Y-69492761D01*
X117149666Y-69540380D01*
X117054428Y-69540380D01*
X116911571Y-69492761D01*
X116816333Y-69397523D01*
X116768714Y-69302285D01*
X116721095Y-69111809D01*
X116721095Y-68968952D01*
X116768714Y-68778476D01*
X116816333Y-68683238D01*
X116911571Y-68588000D01*
X117054428Y-68540380D01*
X117149666Y-68540380D01*
X117292523Y-68588000D01*
X117340142Y-68635619D01*
X118292523Y-69540380D02*
X117721095Y-69540380D01*
X118006809Y-69540380D02*
X118006809Y-68540380D01*
X117911571Y-68683238D01*
X117816333Y-68778476D01*
X117721095Y-68826095D01*
X119149666Y-68873714D02*
X119149666Y-69540380D01*
X118911571Y-68492761D02*
X118673476Y-69207047D01*
X119292523Y-69207047D01*
%TO.C,C15*%
X96512142Y-84845142D02*
X96464523Y-84892761D01*
X96321666Y-84940380D01*
X96226428Y-84940380D01*
X96083571Y-84892761D01*
X95988333Y-84797523D01*
X95940714Y-84702285D01*
X95893095Y-84511809D01*
X95893095Y-84368952D01*
X95940714Y-84178476D01*
X95988333Y-84083238D01*
X96083571Y-83988000D01*
X96226428Y-83940380D01*
X96321666Y-83940380D01*
X96464523Y-83988000D01*
X96512142Y-84035619D01*
X97464523Y-84940380D02*
X96893095Y-84940380D01*
X97178809Y-84940380D02*
X97178809Y-83940380D01*
X97083571Y-84083238D01*
X96988333Y-84178476D01*
X96893095Y-84226095D01*
X98369285Y-83940380D02*
X97893095Y-83940380D01*
X97845476Y-84416571D01*
X97893095Y-84368952D01*
X97988333Y-84321333D01*
X98226428Y-84321333D01*
X98321666Y-84368952D01*
X98369285Y-84416571D01*
X98416904Y-84511809D01*
X98416904Y-84749904D01*
X98369285Y-84845142D01*
X98321666Y-84892761D01*
X98226428Y-84940380D01*
X97988333Y-84940380D01*
X97893095Y-84892761D01*
X97845476Y-84845142D01*
%TO.C,C16*%
X136136142Y-78081142D02*
X136088523Y-78128761D01*
X135945666Y-78176380D01*
X135850428Y-78176380D01*
X135707571Y-78128761D01*
X135612333Y-78033523D01*
X135564714Y-77938285D01*
X135517095Y-77747809D01*
X135517095Y-77604952D01*
X135564714Y-77414476D01*
X135612333Y-77319238D01*
X135707571Y-77224000D01*
X135850428Y-77176380D01*
X135945666Y-77176380D01*
X136088523Y-77224000D01*
X136136142Y-77271619D01*
X137088523Y-78176380D02*
X136517095Y-78176380D01*
X136802809Y-78176380D02*
X136802809Y-77176380D01*
X136707571Y-77319238D01*
X136612333Y-77414476D01*
X136517095Y-77462095D01*
X137945666Y-77176380D02*
X137755190Y-77176380D01*
X137659952Y-77224000D01*
X137612333Y-77271619D01*
X137517095Y-77414476D01*
X137469476Y-77604952D01*
X137469476Y-77985904D01*
X137517095Y-78081142D01*
X137564714Y-78128761D01*
X137659952Y-78176380D01*
X137850428Y-78176380D01*
X137945666Y-78128761D01*
X137993285Y-78081142D01*
X138040904Y-77985904D01*
X138040904Y-77747809D01*
X137993285Y-77652571D01*
X137945666Y-77604952D01*
X137850428Y-77557333D01*
X137659952Y-77557333D01*
X137564714Y-77604952D01*
X137517095Y-77652571D01*
X137469476Y-77747809D01*
%TO.C,C17*%
X146534142Y-63761857D02*
X146581761Y-63809476D01*
X146629380Y-63952333D01*
X146629380Y-64047571D01*
X146581761Y-64190428D01*
X146486523Y-64285666D01*
X146391285Y-64333285D01*
X146200809Y-64380904D01*
X146057952Y-64380904D01*
X145867476Y-64333285D01*
X145772238Y-64285666D01*
X145677000Y-64190428D01*
X145629380Y-64047571D01*
X145629380Y-63952333D01*
X145677000Y-63809476D01*
X145724619Y-63761857D01*
X146629380Y-62809476D02*
X146629380Y-63380904D01*
X146629380Y-63095190D02*
X145629380Y-63095190D01*
X145772238Y-63190428D01*
X145867476Y-63285666D01*
X145915095Y-63380904D01*
X145629380Y-62476142D02*
X145629380Y-61809476D01*
X146629380Y-62238047D01*
%TO.C,C18*%
X108958142Y-65094142D02*
X108910523Y-65141761D01*
X108767666Y-65189380D01*
X108672428Y-65189380D01*
X108529571Y-65141761D01*
X108434333Y-65046523D01*
X108386714Y-64951285D01*
X108339095Y-64760809D01*
X108339095Y-64617952D01*
X108386714Y-64427476D01*
X108434333Y-64332238D01*
X108529571Y-64237000D01*
X108672428Y-64189380D01*
X108767666Y-64189380D01*
X108910523Y-64237000D01*
X108958142Y-64284619D01*
X109910523Y-65189380D02*
X109339095Y-65189380D01*
X109624809Y-65189380D02*
X109624809Y-64189380D01*
X109529571Y-64332238D01*
X109434333Y-64427476D01*
X109339095Y-64475095D01*
X110481952Y-64617952D02*
X110386714Y-64570333D01*
X110339095Y-64522714D01*
X110291476Y-64427476D01*
X110291476Y-64379857D01*
X110339095Y-64284619D01*
X110386714Y-64237000D01*
X110481952Y-64189380D01*
X110672428Y-64189380D01*
X110767666Y-64237000D01*
X110815285Y-64284619D01*
X110862904Y-64379857D01*
X110862904Y-64427476D01*
X110815285Y-64522714D01*
X110767666Y-64570333D01*
X110672428Y-64617952D01*
X110481952Y-64617952D01*
X110386714Y-64665571D01*
X110339095Y-64713190D01*
X110291476Y-64808428D01*
X110291476Y-64998904D01*
X110339095Y-65094142D01*
X110386714Y-65141761D01*
X110481952Y-65189380D01*
X110672428Y-65189380D01*
X110767666Y-65141761D01*
X110815285Y-65094142D01*
X110862904Y-64998904D01*
X110862904Y-64808428D01*
X110815285Y-64713190D01*
X110767666Y-64665571D01*
X110672428Y-64617952D01*
%TO.C,C19*%
X133088142Y-65475142D02*
X133040523Y-65522761D01*
X132897666Y-65570380D01*
X132802428Y-65570380D01*
X132659571Y-65522761D01*
X132564333Y-65427523D01*
X132516714Y-65332285D01*
X132469095Y-65141809D01*
X132469095Y-64998952D01*
X132516714Y-64808476D01*
X132564333Y-64713238D01*
X132659571Y-64618000D01*
X132802428Y-64570380D01*
X132897666Y-64570380D01*
X133040523Y-64618000D01*
X133088142Y-64665619D01*
X134040523Y-65570380D02*
X133469095Y-65570380D01*
X133754809Y-65570380D02*
X133754809Y-64570380D01*
X133659571Y-64713238D01*
X133564333Y-64808476D01*
X133469095Y-64856095D01*
X134516714Y-65570380D02*
X134707190Y-65570380D01*
X134802428Y-65522761D01*
X134850047Y-65475142D01*
X134945285Y-65332285D01*
X134992904Y-65141809D01*
X134992904Y-64760857D01*
X134945285Y-64665619D01*
X134897666Y-64618000D01*
X134802428Y-64570380D01*
X134611952Y-64570380D01*
X134516714Y-64618000D01*
X134469095Y-64665619D01*
X134421476Y-64760857D01*
X134421476Y-64998952D01*
X134469095Y-65094190D01*
X134516714Y-65141809D01*
X134611952Y-65189428D01*
X134802428Y-65189428D01*
X134897666Y-65141809D01*
X134945285Y-65094190D01*
X134992904Y-64998952D01*
%TO.C,C20*%
X146915142Y-82938857D02*
X146962761Y-82986476D01*
X147010380Y-83129333D01*
X147010380Y-83224571D01*
X146962761Y-83367428D01*
X146867523Y-83462666D01*
X146772285Y-83510285D01*
X146581809Y-83557904D01*
X146438952Y-83557904D01*
X146248476Y-83510285D01*
X146153238Y-83462666D01*
X146058000Y-83367428D01*
X146010380Y-83224571D01*
X146010380Y-83129333D01*
X146058000Y-82986476D01*
X146105619Y-82938857D01*
X146105619Y-82557904D02*
X146058000Y-82510285D01*
X146010380Y-82415047D01*
X146010380Y-82176952D01*
X146058000Y-82081714D01*
X146105619Y-82034095D01*
X146200857Y-81986476D01*
X146296095Y-81986476D01*
X146438952Y-82034095D01*
X147010380Y-82605523D01*
X147010380Y-81986476D01*
X146010380Y-81367428D02*
X146010380Y-81272190D01*
X146058000Y-81176952D01*
X146105619Y-81129333D01*
X146200857Y-81081714D01*
X146391333Y-81034095D01*
X146629428Y-81034095D01*
X146819904Y-81081714D01*
X146915142Y-81129333D01*
X146962761Y-81176952D01*
X147010380Y-81272190D01*
X147010380Y-81367428D01*
X146962761Y-81462666D01*
X146915142Y-81510285D01*
X146819904Y-81557904D01*
X146629428Y-81605523D01*
X146391333Y-81605523D01*
X146200857Y-81557904D01*
X146105619Y-81510285D01*
X146058000Y-81462666D01*
X146010380Y-81367428D01*
%TO.C,C21*%
X108831142Y-79445142D02*
X108783523Y-79492761D01*
X108640666Y-79540380D01*
X108545428Y-79540380D01*
X108402571Y-79492761D01*
X108307333Y-79397523D01*
X108259714Y-79302285D01*
X108212095Y-79111809D01*
X108212095Y-78968952D01*
X108259714Y-78778476D01*
X108307333Y-78683238D01*
X108402571Y-78588000D01*
X108545428Y-78540380D01*
X108640666Y-78540380D01*
X108783523Y-78588000D01*
X108831142Y-78635619D01*
X109212095Y-78635619D02*
X109259714Y-78588000D01*
X109354952Y-78540380D01*
X109593047Y-78540380D01*
X109688285Y-78588000D01*
X109735904Y-78635619D01*
X109783523Y-78730857D01*
X109783523Y-78826095D01*
X109735904Y-78968952D01*
X109164476Y-79540380D01*
X109783523Y-79540380D01*
X110735904Y-79540380D02*
X110164476Y-79540380D01*
X110450190Y-79540380D02*
X110450190Y-78540380D01*
X110354952Y-78683238D01*
X110259714Y-78778476D01*
X110164476Y-78826095D01*
%TO.C,C22*%
X70858142Y-61190142D02*
X70810523Y-61237761D01*
X70667666Y-61285380D01*
X70572428Y-61285380D01*
X70429571Y-61237761D01*
X70334333Y-61142523D01*
X70286714Y-61047285D01*
X70239095Y-60856809D01*
X70239095Y-60713952D01*
X70286714Y-60523476D01*
X70334333Y-60428238D01*
X70429571Y-60333000D01*
X70572428Y-60285380D01*
X70667666Y-60285380D01*
X70810523Y-60333000D01*
X70858142Y-60380619D01*
X71239095Y-60380619D02*
X71286714Y-60333000D01*
X71381952Y-60285380D01*
X71620047Y-60285380D01*
X71715285Y-60333000D01*
X71762904Y-60380619D01*
X71810523Y-60475857D01*
X71810523Y-60571095D01*
X71762904Y-60713952D01*
X71191476Y-61285380D01*
X71810523Y-61285380D01*
X72191476Y-60380619D02*
X72239095Y-60333000D01*
X72334333Y-60285380D01*
X72572428Y-60285380D01*
X72667666Y-60333000D01*
X72715285Y-60380619D01*
X72762904Y-60475857D01*
X72762904Y-60571095D01*
X72715285Y-60713952D01*
X72143857Y-61285380D01*
X72762904Y-61285380D01*
%TO.C,C23*%
X76319142Y-61096142D02*
X76271523Y-61143761D01*
X76128666Y-61191380D01*
X76033428Y-61191380D01*
X75890571Y-61143761D01*
X75795333Y-61048523D01*
X75747714Y-60953285D01*
X75700095Y-60762809D01*
X75700095Y-60619952D01*
X75747714Y-60429476D01*
X75795333Y-60334238D01*
X75890571Y-60239000D01*
X76033428Y-60191380D01*
X76128666Y-60191380D01*
X76271523Y-60239000D01*
X76319142Y-60286619D01*
X76700095Y-60286619D02*
X76747714Y-60239000D01*
X76842952Y-60191380D01*
X77081047Y-60191380D01*
X77176285Y-60239000D01*
X77223904Y-60286619D01*
X77271523Y-60381857D01*
X77271523Y-60477095D01*
X77223904Y-60619952D01*
X76652476Y-61191380D01*
X77271523Y-61191380D01*
X77604857Y-60191380D02*
X78223904Y-60191380D01*
X77890571Y-60572333D01*
X78033428Y-60572333D01*
X78128666Y-60619952D01*
X78176285Y-60667571D01*
X78223904Y-60762809D01*
X78223904Y-61000904D01*
X78176285Y-61096142D01*
X78128666Y-61143761D01*
X78033428Y-61191380D01*
X77747714Y-61191380D01*
X77652476Y-61143761D01*
X77604857Y-61096142D01*
%TO.C,C24*%
X64381142Y-61063142D02*
X64333523Y-61110761D01*
X64190666Y-61158380D01*
X64095428Y-61158380D01*
X63952571Y-61110761D01*
X63857333Y-61015523D01*
X63809714Y-60920285D01*
X63762095Y-60729809D01*
X63762095Y-60586952D01*
X63809714Y-60396476D01*
X63857333Y-60301238D01*
X63952571Y-60206000D01*
X64095428Y-60158380D01*
X64190666Y-60158380D01*
X64333523Y-60206000D01*
X64381142Y-60253619D01*
X64762095Y-60253619D02*
X64809714Y-60206000D01*
X64904952Y-60158380D01*
X65143047Y-60158380D01*
X65238285Y-60206000D01*
X65285904Y-60253619D01*
X65333523Y-60348857D01*
X65333523Y-60444095D01*
X65285904Y-60586952D01*
X64714476Y-61158380D01*
X65333523Y-61158380D01*
X66190666Y-60491714D02*
X66190666Y-61158380D01*
X65952571Y-60110761D02*
X65714476Y-60825047D01*
X66333523Y-60825047D01*
%TO.C,C25*%
X140708142Y-115038142D02*
X140660523Y-115085761D01*
X140517666Y-115133380D01*
X140422428Y-115133380D01*
X140279571Y-115085761D01*
X140184333Y-114990523D01*
X140136714Y-114895285D01*
X140089095Y-114704809D01*
X140089095Y-114561952D01*
X140136714Y-114371476D01*
X140184333Y-114276238D01*
X140279571Y-114181000D01*
X140422428Y-114133380D01*
X140517666Y-114133380D01*
X140660523Y-114181000D01*
X140708142Y-114228619D01*
X141089095Y-114228619D02*
X141136714Y-114181000D01*
X141231952Y-114133380D01*
X141470047Y-114133380D01*
X141565285Y-114181000D01*
X141612904Y-114228619D01*
X141660523Y-114323857D01*
X141660523Y-114419095D01*
X141612904Y-114561952D01*
X141041476Y-115133380D01*
X141660523Y-115133380D01*
X142565285Y-114133380D02*
X142089095Y-114133380D01*
X142041476Y-114609571D01*
X142089095Y-114561952D01*
X142184333Y-114514333D01*
X142422428Y-114514333D01*
X142517666Y-114561952D01*
X142565285Y-114609571D01*
X142612904Y-114704809D01*
X142612904Y-114942904D01*
X142565285Y-115038142D01*
X142517666Y-115085761D01*
X142422428Y-115133380D01*
X142184333Y-115133380D01*
X142089095Y-115085761D01*
X142041476Y-115038142D01*
%TO.C,C26*%
X142597142Y-126753857D02*
X142644761Y-126801476D01*
X142692380Y-126944333D01*
X142692380Y-127039571D01*
X142644761Y-127182428D01*
X142549523Y-127277666D01*
X142454285Y-127325285D01*
X142263809Y-127372904D01*
X142120952Y-127372904D01*
X141930476Y-127325285D01*
X141835238Y-127277666D01*
X141740000Y-127182428D01*
X141692380Y-127039571D01*
X141692380Y-126944333D01*
X141740000Y-126801476D01*
X141787619Y-126753857D01*
X141787619Y-126372904D02*
X141740000Y-126325285D01*
X141692380Y-126230047D01*
X141692380Y-125991952D01*
X141740000Y-125896714D01*
X141787619Y-125849095D01*
X141882857Y-125801476D01*
X141978095Y-125801476D01*
X142120952Y-125849095D01*
X142692380Y-126420523D01*
X142692380Y-125801476D01*
X141692380Y-124944333D02*
X141692380Y-125134809D01*
X141740000Y-125230047D01*
X141787619Y-125277666D01*
X141930476Y-125372904D01*
X142120952Y-125420523D01*
X142501904Y-125420523D01*
X142597142Y-125372904D01*
X142644761Y-125325285D01*
X142692380Y-125230047D01*
X142692380Y-125039571D01*
X142644761Y-124944333D01*
X142597142Y-124896714D01*
X142501904Y-124849095D01*
X142263809Y-124849095D01*
X142168571Y-124896714D01*
X142120952Y-124944333D01*
X142073333Y-125039571D01*
X142073333Y-125230047D01*
X142120952Y-125325285D01*
X142168571Y-125372904D01*
X142263809Y-125420523D01*
%TO.C,C27*%
X159377142Y-124182142D02*
X159329523Y-124229761D01*
X159186666Y-124277380D01*
X159091428Y-124277380D01*
X158948571Y-124229761D01*
X158853333Y-124134523D01*
X158805714Y-124039285D01*
X158758095Y-123848809D01*
X158758095Y-123705952D01*
X158805714Y-123515476D01*
X158853333Y-123420238D01*
X158948571Y-123325000D01*
X159091428Y-123277380D01*
X159186666Y-123277380D01*
X159329523Y-123325000D01*
X159377142Y-123372619D01*
X159758095Y-123372619D02*
X159805714Y-123325000D01*
X159900952Y-123277380D01*
X160139047Y-123277380D01*
X160234285Y-123325000D01*
X160281904Y-123372619D01*
X160329523Y-123467857D01*
X160329523Y-123563095D01*
X160281904Y-123705952D01*
X159710476Y-124277380D01*
X160329523Y-124277380D01*
X160662857Y-123277380D02*
X161329523Y-123277380D01*
X160900952Y-124277380D01*
%TO.C,C28*%
X159504142Y-114530142D02*
X159456523Y-114577761D01*
X159313666Y-114625380D01*
X159218428Y-114625380D01*
X159075571Y-114577761D01*
X158980333Y-114482523D01*
X158932714Y-114387285D01*
X158885095Y-114196809D01*
X158885095Y-114053952D01*
X158932714Y-113863476D01*
X158980333Y-113768238D01*
X159075571Y-113673000D01*
X159218428Y-113625380D01*
X159313666Y-113625380D01*
X159456523Y-113673000D01*
X159504142Y-113720619D01*
X159885095Y-113720619D02*
X159932714Y-113673000D01*
X160027952Y-113625380D01*
X160266047Y-113625380D01*
X160361285Y-113673000D01*
X160408904Y-113720619D01*
X160456523Y-113815857D01*
X160456523Y-113911095D01*
X160408904Y-114053952D01*
X159837476Y-114625380D01*
X160456523Y-114625380D01*
X161027952Y-114053952D02*
X160932714Y-114006333D01*
X160885095Y-113958714D01*
X160837476Y-113863476D01*
X160837476Y-113815857D01*
X160885095Y-113720619D01*
X160932714Y-113673000D01*
X161027952Y-113625380D01*
X161218428Y-113625380D01*
X161313666Y-113673000D01*
X161361285Y-113720619D01*
X161408904Y-113815857D01*
X161408904Y-113863476D01*
X161361285Y-113958714D01*
X161313666Y-114006333D01*
X161218428Y-114053952D01*
X161027952Y-114053952D01*
X160932714Y-114101571D01*
X160885095Y-114149190D01*
X160837476Y-114244428D01*
X160837476Y-114434904D01*
X160885095Y-114530142D01*
X160932714Y-114577761D01*
X161027952Y-114625380D01*
X161218428Y-114625380D01*
X161313666Y-114577761D01*
X161361285Y-114530142D01*
X161408904Y-114434904D01*
X161408904Y-114244428D01*
X161361285Y-114149190D01*
X161313666Y-114101571D01*
X161218428Y-114053952D01*
%TO.C,C29*%
X169791142Y-96623142D02*
X169743523Y-96670761D01*
X169600666Y-96718380D01*
X169505428Y-96718380D01*
X169362571Y-96670761D01*
X169267333Y-96575523D01*
X169219714Y-96480285D01*
X169172095Y-96289809D01*
X169172095Y-96146952D01*
X169219714Y-95956476D01*
X169267333Y-95861238D01*
X169362571Y-95766000D01*
X169505428Y-95718380D01*
X169600666Y-95718380D01*
X169743523Y-95766000D01*
X169791142Y-95813619D01*
X170172095Y-95813619D02*
X170219714Y-95766000D01*
X170314952Y-95718380D01*
X170553047Y-95718380D01*
X170648285Y-95766000D01*
X170695904Y-95813619D01*
X170743523Y-95908857D01*
X170743523Y-96004095D01*
X170695904Y-96146952D01*
X170124476Y-96718380D01*
X170743523Y-96718380D01*
X171219714Y-96718380D02*
X171410190Y-96718380D01*
X171505428Y-96670761D01*
X171553047Y-96623142D01*
X171648285Y-96480285D01*
X171695904Y-96289809D01*
X171695904Y-95908857D01*
X171648285Y-95813619D01*
X171600666Y-95766000D01*
X171505428Y-95718380D01*
X171314952Y-95718380D01*
X171219714Y-95766000D01*
X171172095Y-95813619D01*
X171124476Y-95908857D01*
X171124476Y-96146952D01*
X171172095Y-96242190D01*
X171219714Y-96289809D01*
X171314952Y-96337428D01*
X171505428Y-96337428D01*
X171600666Y-96289809D01*
X171648285Y-96242190D01*
X171695904Y-96146952D01*
%TO.C,C30*%
X108958142Y-118467142D02*
X108910523Y-118514761D01*
X108767666Y-118562380D01*
X108672428Y-118562380D01*
X108529571Y-118514761D01*
X108434333Y-118419523D01*
X108386714Y-118324285D01*
X108339095Y-118133809D01*
X108339095Y-117990952D01*
X108386714Y-117800476D01*
X108434333Y-117705238D01*
X108529571Y-117610000D01*
X108672428Y-117562380D01*
X108767666Y-117562380D01*
X108910523Y-117610000D01*
X108958142Y-117657619D01*
X109291476Y-117562380D02*
X109910523Y-117562380D01*
X109577190Y-117943333D01*
X109720047Y-117943333D01*
X109815285Y-117990952D01*
X109862904Y-118038571D01*
X109910523Y-118133809D01*
X109910523Y-118371904D01*
X109862904Y-118467142D01*
X109815285Y-118514761D01*
X109720047Y-118562380D01*
X109434333Y-118562380D01*
X109339095Y-118514761D01*
X109291476Y-118467142D01*
X110529571Y-117562380D02*
X110624809Y-117562380D01*
X110720047Y-117610000D01*
X110767666Y-117657619D01*
X110815285Y-117752857D01*
X110862904Y-117943333D01*
X110862904Y-118181428D01*
X110815285Y-118371904D01*
X110767666Y-118467142D01*
X110720047Y-118514761D01*
X110624809Y-118562380D01*
X110529571Y-118562380D01*
X110434333Y-118514761D01*
X110386714Y-118467142D01*
X110339095Y-118371904D01*
X110291476Y-118181428D01*
X110291476Y-117943333D01*
X110339095Y-117752857D01*
X110386714Y-117657619D01*
X110434333Y-117610000D01*
X110529571Y-117562380D01*
%TO.C,C31*%
X157345142Y-68937142D02*
X157297523Y-68984761D01*
X157154666Y-69032380D01*
X157059428Y-69032380D01*
X156916571Y-68984761D01*
X156821333Y-68889523D01*
X156773714Y-68794285D01*
X156726095Y-68603809D01*
X156726095Y-68460952D01*
X156773714Y-68270476D01*
X156821333Y-68175238D01*
X156916571Y-68080000D01*
X157059428Y-68032380D01*
X157154666Y-68032380D01*
X157297523Y-68080000D01*
X157345142Y-68127619D01*
X157678476Y-68032380D02*
X158297523Y-68032380D01*
X157964190Y-68413333D01*
X158107047Y-68413333D01*
X158202285Y-68460952D01*
X158249904Y-68508571D01*
X158297523Y-68603809D01*
X158297523Y-68841904D01*
X158249904Y-68937142D01*
X158202285Y-68984761D01*
X158107047Y-69032380D01*
X157821333Y-69032380D01*
X157726095Y-68984761D01*
X157678476Y-68937142D01*
X159249904Y-69032380D02*
X158678476Y-69032380D01*
X158964190Y-69032380D02*
X158964190Y-68032380D01*
X158868952Y-68175238D01*
X158773714Y-68270476D01*
X158678476Y-68318095D01*
%TO.C,C32*%
X157472142Y-93956142D02*
X157424523Y-94003761D01*
X157281666Y-94051380D01*
X157186428Y-94051380D01*
X157043571Y-94003761D01*
X156948333Y-93908523D01*
X156900714Y-93813285D01*
X156853095Y-93622809D01*
X156853095Y-93479952D01*
X156900714Y-93289476D01*
X156948333Y-93194238D01*
X157043571Y-93099000D01*
X157186428Y-93051380D01*
X157281666Y-93051380D01*
X157424523Y-93099000D01*
X157472142Y-93146619D01*
X157805476Y-93051380D02*
X158424523Y-93051380D01*
X158091190Y-93432333D01*
X158234047Y-93432333D01*
X158329285Y-93479952D01*
X158376904Y-93527571D01*
X158424523Y-93622809D01*
X158424523Y-93860904D01*
X158376904Y-93956142D01*
X158329285Y-94003761D01*
X158234047Y-94051380D01*
X157948333Y-94051380D01*
X157853095Y-94003761D01*
X157805476Y-93956142D01*
X158805476Y-93146619D02*
X158853095Y-93099000D01*
X158948333Y-93051380D01*
X159186428Y-93051380D01*
X159281666Y-93099000D01*
X159329285Y-93146619D01*
X159376904Y-93241857D01*
X159376904Y-93337095D01*
X159329285Y-93479952D01*
X158757857Y-94051380D01*
X159376904Y-94051380D01*
%TO.C,C33*%
X140708142Y-118848142D02*
X140660523Y-118895761D01*
X140517666Y-118943380D01*
X140422428Y-118943380D01*
X140279571Y-118895761D01*
X140184333Y-118800523D01*
X140136714Y-118705285D01*
X140089095Y-118514809D01*
X140089095Y-118371952D01*
X140136714Y-118181476D01*
X140184333Y-118086238D01*
X140279571Y-117991000D01*
X140422428Y-117943380D01*
X140517666Y-117943380D01*
X140660523Y-117991000D01*
X140708142Y-118038619D01*
X141041476Y-117943380D02*
X141660523Y-117943380D01*
X141327190Y-118324333D01*
X141470047Y-118324333D01*
X141565285Y-118371952D01*
X141612904Y-118419571D01*
X141660523Y-118514809D01*
X141660523Y-118752904D01*
X141612904Y-118848142D01*
X141565285Y-118895761D01*
X141470047Y-118943380D01*
X141184333Y-118943380D01*
X141089095Y-118895761D01*
X141041476Y-118848142D01*
X141993857Y-117943380D02*
X142612904Y-117943380D01*
X142279571Y-118324333D01*
X142422428Y-118324333D01*
X142517666Y-118371952D01*
X142565285Y-118419571D01*
X142612904Y-118514809D01*
X142612904Y-118752904D01*
X142565285Y-118848142D01*
X142517666Y-118895761D01*
X142422428Y-118943380D01*
X142136714Y-118943380D01*
X142041476Y-118895761D01*
X141993857Y-118848142D01*
%TO.C,C34*%
X144264142Y-108086142D02*
X144216523Y-108133761D01*
X144073666Y-108181380D01*
X143978428Y-108181380D01*
X143835571Y-108133761D01*
X143740333Y-108038523D01*
X143692714Y-107943285D01*
X143645095Y-107752809D01*
X143645095Y-107609952D01*
X143692714Y-107419476D01*
X143740333Y-107324238D01*
X143835571Y-107229000D01*
X143978428Y-107181380D01*
X144073666Y-107181380D01*
X144216523Y-107229000D01*
X144264142Y-107276619D01*
X144597476Y-107181380D02*
X145216523Y-107181380D01*
X144883190Y-107562333D01*
X145026047Y-107562333D01*
X145121285Y-107609952D01*
X145168904Y-107657571D01*
X145216523Y-107752809D01*
X145216523Y-107990904D01*
X145168904Y-108086142D01*
X145121285Y-108133761D01*
X145026047Y-108181380D01*
X144740333Y-108181380D01*
X144645095Y-108133761D01*
X144597476Y-108086142D01*
X146073666Y-107514714D02*
X146073666Y-108181380D01*
X145835571Y-107133761D02*
X145597476Y-107848047D01*
X146216523Y-107848047D01*
%TO.C,C35*%
X176395142Y-68683142D02*
X176347523Y-68730761D01*
X176204666Y-68778380D01*
X176109428Y-68778380D01*
X175966571Y-68730761D01*
X175871333Y-68635523D01*
X175823714Y-68540285D01*
X175776095Y-68349809D01*
X175776095Y-68206952D01*
X175823714Y-68016476D01*
X175871333Y-67921238D01*
X175966571Y-67826000D01*
X176109428Y-67778380D01*
X176204666Y-67778380D01*
X176347523Y-67826000D01*
X176395142Y-67873619D01*
X176728476Y-67778380D02*
X177347523Y-67778380D01*
X177014190Y-68159333D01*
X177157047Y-68159333D01*
X177252285Y-68206952D01*
X177299904Y-68254571D01*
X177347523Y-68349809D01*
X177347523Y-68587904D01*
X177299904Y-68683142D01*
X177252285Y-68730761D01*
X177157047Y-68778380D01*
X176871333Y-68778380D01*
X176776095Y-68730761D01*
X176728476Y-68683142D01*
X178252285Y-67778380D02*
X177776095Y-67778380D01*
X177728476Y-68254571D01*
X177776095Y-68206952D01*
X177871333Y-68159333D01*
X178109428Y-68159333D01*
X178204666Y-68206952D01*
X178252285Y-68254571D01*
X178299904Y-68349809D01*
X178299904Y-68587904D01*
X178252285Y-68683142D01*
X178204666Y-68730761D01*
X178109428Y-68778380D01*
X177871333Y-68778380D01*
X177776095Y-68730761D01*
X177728476Y-68683142D01*
%TO.C,C36*%
X157472142Y-83161142D02*
X157424523Y-83208761D01*
X157281666Y-83256380D01*
X157186428Y-83256380D01*
X157043571Y-83208761D01*
X156948333Y-83113523D01*
X156900714Y-83018285D01*
X156853095Y-82827809D01*
X156853095Y-82684952D01*
X156900714Y-82494476D01*
X156948333Y-82399238D01*
X157043571Y-82304000D01*
X157186428Y-82256380D01*
X157281666Y-82256380D01*
X157424523Y-82304000D01*
X157472142Y-82351619D01*
X157805476Y-82256380D02*
X158424523Y-82256380D01*
X158091190Y-82637333D01*
X158234047Y-82637333D01*
X158329285Y-82684952D01*
X158376904Y-82732571D01*
X158424523Y-82827809D01*
X158424523Y-83065904D01*
X158376904Y-83161142D01*
X158329285Y-83208761D01*
X158234047Y-83256380D01*
X157948333Y-83256380D01*
X157853095Y-83208761D01*
X157805476Y-83161142D01*
X159281666Y-82256380D02*
X159091190Y-82256380D01*
X158995952Y-82304000D01*
X158948333Y-82351619D01*
X158853095Y-82494476D01*
X158805476Y-82684952D01*
X158805476Y-83065904D01*
X158853095Y-83161142D01*
X158900714Y-83208761D01*
X158995952Y-83256380D01*
X159186428Y-83256380D01*
X159281666Y-83208761D01*
X159329285Y-83161142D01*
X159376904Y-83065904D01*
X159376904Y-82827809D01*
X159329285Y-82732571D01*
X159281666Y-82684952D01*
X159186428Y-82637333D01*
X158995952Y-82637333D01*
X158900714Y-82684952D01*
X158853095Y-82732571D01*
X158805476Y-82827809D01*
%TO.C,C37*%
X159377142Y-118467142D02*
X159329523Y-118514761D01*
X159186666Y-118562380D01*
X159091428Y-118562380D01*
X158948571Y-118514761D01*
X158853333Y-118419523D01*
X158805714Y-118324285D01*
X158758095Y-118133809D01*
X158758095Y-117990952D01*
X158805714Y-117800476D01*
X158853333Y-117705238D01*
X158948571Y-117610000D01*
X159091428Y-117562380D01*
X159186666Y-117562380D01*
X159329523Y-117610000D01*
X159377142Y-117657619D01*
X159710476Y-117562380D02*
X160329523Y-117562380D01*
X159996190Y-117943333D01*
X160139047Y-117943333D01*
X160234285Y-117990952D01*
X160281904Y-118038571D01*
X160329523Y-118133809D01*
X160329523Y-118371904D01*
X160281904Y-118467142D01*
X160234285Y-118514761D01*
X160139047Y-118562380D01*
X159853333Y-118562380D01*
X159758095Y-118514761D01*
X159710476Y-118467142D01*
X160662857Y-117562380D02*
X161329523Y-117562380D01*
X160900952Y-118562380D01*
%TO.C,C38*%
X158345142Y-102242857D02*
X158392761Y-102290476D01*
X158440380Y-102433333D01*
X158440380Y-102528571D01*
X158392761Y-102671428D01*
X158297523Y-102766666D01*
X158202285Y-102814285D01*
X158011809Y-102861904D01*
X157868952Y-102861904D01*
X157678476Y-102814285D01*
X157583238Y-102766666D01*
X157488000Y-102671428D01*
X157440380Y-102528571D01*
X157440380Y-102433333D01*
X157488000Y-102290476D01*
X157535619Y-102242857D01*
X157440380Y-101909523D02*
X157440380Y-101290476D01*
X157821333Y-101623809D01*
X157821333Y-101480952D01*
X157868952Y-101385714D01*
X157916571Y-101338095D01*
X158011809Y-101290476D01*
X158249904Y-101290476D01*
X158345142Y-101338095D01*
X158392761Y-101385714D01*
X158440380Y-101480952D01*
X158440380Y-101766666D01*
X158392761Y-101861904D01*
X158345142Y-101909523D01*
X157868952Y-100719047D02*
X157821333Y-100814285D01*
X157773714Y-100861904D01*
X157678476Y-100909523D01*
X157630857Y-100909523D01*
X157535619Y-100861904D01*
X157488000Y-100814285D01*
X157440380Y-100719047D01*
X157440380Y-100528571D01*
X157488000Y-100433333D01*
X157535619Y-100385714D01*
X157630857Y-100338095D01*
X157678476Y-100338095D01*
X157773714Y-100385714D01*
X157821333Y-100433333D01*
X157868952Y-100528571D01*
X157868952Y-100719047D01*
X157916571Y-100814285D01*
X157964190Y-100861904D01*
X158059428Y-100909523D01*
X158249904Y-100909523D01*
X158345142Y-100861904D01*
X158392761Y-100814285D01*
X158440380Y-100719047D01*
X158440380Y-100528571D01*
X158392761Y-100433333D01*
X158345142Y-100385714D01*
X158249904Y-100338095D01*
X158059428Y-100338095D01*
X157964190Y-100385714D01*
X157916571Y-100433333D01*
X157868952Y-100528571D01*
%TO.C,C39*%
X131310142Y-94464142D02*
X131262523Y-94511761D01*
X131119666Y-94559380D01*
X131024428Y-94559380D01*
X130881571Y-94511761D01*
X130786333Y-94416523D01*
X130738714Y-94321285D01*
X130691095Y-94130809D01*
X130691095Y-93987952D01*
X130738714Y-93797476D01*
X130786333Y-93702238D01*
X130881571Y-93607000D01*
X131024428Y-93559380D01*
X131119666Y-93559380D01*
X131262523Y-93607000D01*
X131310142Y-93654619D01*
X131643476Y-93559380D02*
X132262523Y-93559380D01*
X131929190Y-93940333D01*
X132072047Y-93940333D01*
X132167285Y-93987952D01*
X132214904Y-94035571D01*
X132262523Y-94130809D01*
X132262523Y-94368904D01*
X132214904Y-94464142D01*
X132167285Y-94511761D01*
X132072047Y-94559380D01*
X131786333Y-94559380D01*
X131691095Y-94511761D01*
X131643476Y-94464142D01*
X132738714Y-94559380D02*
X132929190Y-94559380D01*
X133024428Y-94511761D01*
X133072047Y-94464142D01*
X133167285Y-94321285D01*
X133214904Y-94130809D01*
X133214904Y-93749857D01*
X133167285Y-93654619D01*
X133119666Y-93607000D01*
X133024428Y-93559380D01*
X132833952Y-93559380D01*
X132738714Y-93607000D01*
X132691095Y-93654619D01*
X132643476Y-93749857D01*
X132643476Y-93987952D01*
X132691095Y-94083190D01*
X132738714Y-94130809D01*
X132833952Y-94178428D01*
X133024428Y-94178428D01*
X133119666Y-94130809D01*
X133167285Y-94083190D01*
X133214904Y-93987952D01*
%TO.C,C40*%
X176395142Y-70588142D02*
X176347523Y-70635761D01*
X176204666Y-70683380D01*
X176109428Y-70683380D01*
X175966571Y-70635761D01*
X175871333Y-70540523D01*
X175823714Y-70445285D01*
X175776095Y-70254809D01*
X175776095Y-70111952D01*
X175823714Y-69921476D01*
X175871333Y-69826238D01*
X175966571Y-69731000D01*
X176109428Y-69683380D01*
X176204666Y-69683380D01*
X176347523Y-69731000D01*
X176395142Y-69778619D01*
X177252285Y-70016714D02*
X177252285Y-70683380D01*
X177014190Y-69635761D02*
X176776095Y-70350047D01*
X177395142Y-70350047D01*
X177966571Y-69683380D02*
X178061809Y-69683380D01*
X178157047Y-69731000D01*
X178204666Y-69778619D01*
X178252285Y-69873857D01*
X178299904Y-70064333D01*
X178299904Y-70302428D01*
X178252285Y-70492904D01*
X178204666Y-70588142D01*
X178157047Y-70635761D01*
X178061809Y-70683380D01*
X177966571Y-70683380D01*
X177871333Y-70635761D01*
X177823714Y-70588142D01*
X177776095Y-70492904D01*
X177728476Y-70302428D01*
X177728476Y-70064333D01*
X177776095Y-69873857D01*
X177823714Y-69778619D01*
X177871333Y-69731000D01*
X177966571Y-69683380D01*
%TO.C,C41*%
X159377142Y-120118142D02*
X159329523Y-120165761D01*
X159186666Y-120213380D01*
X159091428Y-120213380D01*
X158948571Y-120165761D01*
X158853333Y-120070523D01*
X158805714Y-119975285D01*
X158758095Y-119784809D01*
X158758095Y-119641952D01*
X158805714Y-119451476D01*
X158853333Y-119356238D01*
X158948571Y-119261000D01*
X159091428Y-119213380D01*
X159186666Y-119213380D01*
X159329523Y-119261000D01*
X159377142Y-119308619D01*
X160234285Y-119546714D02*
X160234285Y-120213380D01*
X159996190Y-119165761D02*
X159758095Y-119880047D01*
X160377142Y-119880047D01*
X161281904Y-120213380D02*
X160710476Y-120213380D01*
X160996190Y-120213380D02*
X160996190Y-119213380D01*
X160900952Y-119356238D01*
X160805714Y-119451476D01*
X160710476Y-119499095D01*
%TO.C,C42*%
X115562142Y-106529142D02*
X115514523Y-106576761D01*
X115371666Y-106624380D01*
X115276428Y-106624380D01*
X115133571Y-106576761D01*
X115038333Y-106481523D01*
X114990714Y-106386285D01*
X114943095Y-106195809D01*
X114943095Y-106052952D01*
X114990714Y-105862476D01*
X115038333Y-105767238D01*
X115133571Y-105672000D01*
X115276428Y-105624380D01*
X115371666Y-105624380D01*
X115514523Y-105672000D01*
X115562142Y-105719619D01*
X116419285Y-105957714D02*
X116419285Y-106624380D01*
X116181190Y-105576761D02*
X115943095Y-106291047D01*
X116562142Y-106291047D01*
X116895476Y-105719619D02*
X116943095Y-105672000D01*
X117038333Y-105624380D01*
X117276428Y-105624380D01*
X117371666Y-105672000D01*
X117419285Y-105719619D01*
X117466904Y-105814857D01*
X117466904Y-105910095D01*
X117419285Y-106052952D01*
X116847857Y-106624380D01*
X117466904Y-106624380D01*
%TO.C,C43*%
X176522142Y-91416142D02*
X176474523Y-91463761D01*
X176331666Y-91511380D01*
X176236428Y-91511380D01*
X176093571Y-91463761D01*
X175998333Y-91368523D01*
X175950714Y-91273285D01*
X175903095Y-91082809D01*
X175903095Y-90939952D01*
X175950714Y-90749476D01*
X175998333Y-90654238D01*
X176093571Y-90559000D01*
X176236428Y-90511380D01*
X176331666Y-90511380D01*
X176474523Y-90559000D01*
X176522142Y-90606619D01*
X177379285Y-90844714D02*
X177379285Y-91511380D01*
X177141190Y-90463761D02*
X176903095Y-91178047D01*
X177522142Y-91178047D01*
X177807857Y-90511380D02*
X178426904Y-90511380D01*
X178093571Y-90892333D01*
X178236428Y-90892333D01*
X178331666Y-90939952D01*
X178379285Y-90987571D01*
X178426904Y-91082809D01*
X178426904Y-91320904D01*
X178379285Y-91416142D01*
X178331666Y-91463761D01*
X178236428Y-91511380D01*
X177950714Y-91511380D01*
X177855476Y-91463761D01*
X177807857Y-91416142D01*
%TO.C,C44*%
X96766142Y-114149142D02*
X96718523Y-114196761D01*
X96575666Y-114244380D01*
X96480428Y-114244380D01*
X96337571Y-114196761D01*
X96242333Y-114101523D01*
X96194714Y-114006285D01*
X96147095Y-113815809D01*
X96147095Y-113672952D01*
X96194714Y-113482476D01*
X96242333Y-113387238D01*
X96337571Y-113292000D01*
X96480428Y-113244380D01*
X96575666Y-113244380D01*
X96718523Y-113292000D01*
X96766142Y-113339619D01*
X97623285Y-113577714D02*
X97623285Y-114244380D01*
X97385190Y-113196761D02*
X97147095Y-113911047D01*
X97766142Y-113911047D01*
X98575666Y-113577714D02*
X98575666Y-114244380D01*
X98337571Y-113196761D02*
X98099476Y-113911047D01*
X98718523Y-113911047D01*
%TO.C,C45*%
X176522142Y-80748142D02*
X176474523Y-80795761D01*
X176331666Y-80843380D01*
X176236428Y-80843380D01*
X176093571Y-80795761D01*
X175998333Y-80700523D01*
X175950714Y-80605285D01*
X175903095Y-80414809D01*
X175903095Y-80271952D01*
X175950714Y-80081476D01*
X175998333Y-79986238D01*
X176093571Y-79891000D01*
X176236428Y-79843380D01*
X176331666Y-79843380D01*
X176474523Y-79891000D01*
X176522142Y-79938619D01*
X177379285Y-80176714D02*
X177379285Y-80843380D01*
X177141190Y-79795761D02*
X176903095Y-80510047D01*
X177522142Y-80510047D01*
X178379285Y-79843380D02*
X177903095Y-79843380D01*
X177855476Y-80319571D01*
X177903095Y-80271952D01*
X177998333Y-80224333D01*
X178236428Y-80224333D01*
X178331666Y-80271952D01*
X178379285Y-80319571D01*
X178426904Y-80414809D01*
X178426904Y-80652904D01*
X178379285Y-80748142D01*
X178331666Y-80795761D01*
X178236428Y-80843380D01*
X177998333Y-80843380D01*
X177903095Y-80795761D01*
X177855476Y-80748142D01*
%TO.C,C46*%
X90400142Y-107068857D02*
X90447761Y-107116476D01*
X90495380Y-107259333D01*
X90495380Y-107354571D01*
X90447761Y-107497428D01*
X90352523Y-107592666D01*
X90257285Y-107640285D01*
X90066809Y-107687904D01*
X89923952Y-107687904D01*
X89733476Y-107640285D01*
X89638238Y-107592666D01*
X89543000Y-107497428D01*
X89495380Y-107354571D01*
X89495380Y-107259333D01*
X89543000Y-107116476D01*
X89590619Y-107068857D01*
X89828714Y-106211714D02*
X90495380Y-106211714D01*
X89447761Y-106449809D02*
X90162047Y-106687904D01*
X90162047Y-106068857D01*
X89495380Y-105259333D02*
X89495380Y-105449809D01*
X89543000Y-105545047D01*
X89590619Y-105592666D01*
X89733476Y-105687904D01*
X89923952Y-105735523D01*
X90304904Y-105735523D01*
X90400142Y-105687904D01*
X90447761Y-105640285D01*
X90495380Y-105545047D01*
X90495380Y-105354571D01*
X90447761Y-105259333D01*
X90400142Y-105211714D01*
X90304904Y-105164095D01*
X90066809Y-105164095D01*
X89971571Y-105211714D01*
X89923952Y-105259333D01*
X89876333Y-105354571D01*
X89876333Y-105545047D01*
X89923952Y-105640285D01*
X89971571Y-105687904D01*
X90066809Y-105735523D01*
%TO.C,C47*%
X79224142Y-74048857D02*
X79271761Y-74096476D01*
X79319380Y-74239333D01*
X79319380Y-74334571D01*
X79271761Y-74477428D01*
X79176523Y-74572666D01*
X79081285Y-74620285D01*
X78890809Y-74667904D01*
X78747952Y-74667904D01*
X78557476Y-74620285D01*
X78462238Y-74572666D01*
X78367000Y-74477428D01*
X78319380Y-74334571D01*
X78319380Y-74239333D01*
X78367000Y-74096476D01*
X78414619Y-74048857D01*
X78652714Y-73191714D02*
X79319380Y-73191714D01*
X78271761Y-73429809D02*
X78986047Y-73667904D01*
X78986047Y-73048857D01*
X78319380Y-72763142D02*
X78319380Y-72096476D01*
X79319380Y-72525047D01*
%TO.C,C48*%
X130802142Y-102559142D02*
X130754523Y-102606761D01*
X130611666Y-102654380D01*
X130516428Y-102654380D01*
X130373571Y-102606761D01*
X130278333Y-102511523D01*
X130230714Y-102416285D01*
X130183095Y-102225809D01*
X130183095Y-102082952D01*
X130230714Y-101892476D01*
X130278333Y-101797238D01*
X130373571Y-101702000D01*
X130516428Y-101654380D01*
X130611666Y-101654380D01*
X130754523Y-101702000D01*
X130802142Y-101749619D01*
X131659285Y-101987714D02*
X131659285Y-102654380D01*
X131421190Y-101606761D02*
X131183095Y-102321047D01*
X131802142Y-102321047D01*
X132325952Y-102082952D02*
X132230714Y-102035333D01*
X132183095Y-101987714D01*
X132135476Y-101892476D01*
X132135476Y-101844857D01*
X132183095Y-101749619D01*
X132230714Y-101702000D01*
X132325952Y-101654380D01*
X132516428Y-101654380D01*
X132611666Y-101702000D01*
X132659285Y-101749619D01*
X132706904Y-101844857D01*
X132706904Y-101892476D01*
X132659285Y-101987714D01*
X132611666Y-102035333D01*
X132516428Y-102082952D01*
X132325952Y-102082952D01*
X132230714Y-102130571D01*
X132183095Y-102178190D01*
X132135476Y-102273428D01*
X132135476Y-102463904D01*
X132183095Y-102559142D01*
X132230714Y-102606761D01*
X132325952Y-102654380D01*
X132516428Y-102654380D01*
X132611666Y-102606761D01*
X132659285Y-102559142D01*
X132706904Y-102463904D01*
X132706904Y-102273428D01*
X132659285Y-102178190D01*
X132611666Y-102130571D01*
X132516428Y-102082952D01*
%TO.C,C50*%
X147185142Y-90527142D02*
X147137523Y-90574761D01*
X146994666Y-90622380D01*
X146899428Y-90622380D01*
X146756571Y-90574761D01*
X146661333Y-90479523D01*
X146613714Y-90384285D01*
X146566095Y-90193809D01*
X146566095Y-90050952D01*
X146613714Y-89860476D01*
X146661333Y-89765238D01*
X146756571Y-89670000D01*
X146899428Y-89622380D01*
X146994666Y-89622380D01*
X147137523Y-89670000D01*
X147185142Y-89717619D01*
X148089904Y-89622380D02*
X147613714Y-89622380D01*
X147566095Y-90098571D01*
X147613714Y-90050952D01*
X147708952Y-90003333D01*
X147947047Y-90003333D01*
X148042285Y-90050952D01*
X148089904Y-90098571D01*
X148137523Y-90193809D01*
X148137523Y-90431904D01*
X148089904Y-90527142D01*
X148042285Y-90574761D01*
X147947047Y-90622380D01*
X147708952Y-90622380D01*
X147613714Y-90574761D01*
X147566095Y-90527142D01*
X148756571Y-89622380D02*
X148851809Y-89622380D01*
X148947047Y-89670000D01*
X148994666Y-89717619D01*
X149042285Y-89812857D01*
X149089904Y-90003333D01*
X149089904Y-90241428D01*
X149042285Y-90431904D01*
X148994666Y-90527142D01*
X148947047Y-90574761D01*
X148851809Y-90622380D01*
X148756571Y-90622380D01*
X148661333Y-90574761D01*
X148613714Y-90527142D01*
X148566095Y-90431904D01*
X148518476Y-90241428D01*
X148518476Y-90003333D01*
X148566095Y-89812857D01*
X148613714Y-89717619D01*
X148661333Y-89670000D01*
X148756571Y-89622380D01*
%TO.C,C52*%
X112260142Y-110212142D02*
X112212523Y-110259761D01*
X112069666Y-110307380D01*
X111974428Y-110307380D01*
X111831571Y-110259761D01*
X111736333Y-110164523D01*
X111688714Y-110069285D01*
X111641095Y-109878809D01*
X111641095Y-109735952D01*
X111688714Y-109545476D01*
X111736333Y-109450238D01*
X111831571Y-109355000D01*
X111974428Y-109307380D01*
X112069666Y-109307380D01*
X112212523Y-109355000D01*
X112260142Y-109402619D01*
X113164904Y-109307380D02*
X112688714Y-109307380D01*
X112641095Y-109783571D01*
X112688714Y-109735952D01*
X112783952Y-109688333D01*
X113022047Y-109688333D01*
X113117285Y-109735952D01*
X113164904Y-109783571D01*
X113212523Y-109878809D01*
X113212523Y-110116904D01*
X113164904Y-110212142D01*
X113117285Y-110259761D01*
X113022047Y-110307380D01*
X112783952Y-110307380D01*
X112688714Y-110259761D01*
X112641095Y-110212142D01*
X113593476Y-109402619D02*
X113641095Y-109355000D01*
X113736333Y-109307380D01*
X113974428Y-109307380D01*
X114069666Y-109355000D01*
X114117285Y-109402619D01*
X114164904Y-109497857D01*
X114164904Y-109593095D01*
X114117285Y-109735952D01*
X113545857Y-110307380D01*
X114164904Y-110307380D01*
%TO.C,D1*%
X119538380Y-94718095D02*
X118538380Y-94718095D01*
X118538380Y-94480000D01*
X118586000Y-94337142D01*
X118681238Y-94241904D01*
X118776476Y-94194285D01*
X118966952Y-94146666D01*
X119109809Y-94146666D01*
X119300285Y-94194285D01*
X119395523Y-94241904D01*
X119490761Y-94337142D01*
X119538380Y-94480000D01*
X119538380Y-94718095D01*
X119538380Y-93194285D02*
X119538380Y-93765714D01*
X119538380Y-93480000D02*
X118538380Y-93480000D01*
X118681238Y-93575238D01*
X118776476Y-93670476D01*
X118824095Y-93765714D01*
%TO.C,D2*%
X101242904Y-94559380D02*
X101242904Y-93559380D01*
X101481000Y-93559380D01*
X101623857Y-93607000D01*
X101719095Y-93702238D01*
X101766714Y-93797476D01*
X101814333Y-93987952D01*
X101814333Y-94130809D01*
X101766714Y-94321285D01*
X101719095Y-94416523D01*
X101623857Y-94511761D01*
X101481000Y-94559380D01*
X101242904Y-94559380D01*
X102195285Y-93654619D02*
X102242904Y-93607000D01*
X102338142Y-93559380D01*
X102576238Y-93559380D01*
X102671476Y-93607000D01*
X102719095Y-93654619D01*
X102766714Y-93749857D01*
X102766714Y-93845095D01*
X102719095Y-93987952D01*
X102147666Y-94559380D01*
X102766714Y-94559380D01*
%TO.C,P22*%
D10*
X160479619Y-55843714D02*
X159463619Y-55843714D01*
X159463619Y-55456666D01*
X159512000Y-55359904D01*
X159560380Y-55311523D01*
X159657142Y-55263142D01*
X159802285Y-55263142D01*
X159899047Y-55311523D01*
X159947428Y-55359904D01*
X159995809Y-55456666D01*
X159995809Y-55843714D01*
X159560380Y-54876095D02*
X159512000Y-54827714D01*
X159463619Y-54730952D01*
X159463619Y-54489047D01*
X159512000Y-54392285D01*
X159560380Y-54343904D01*
X159657142Y-54295523D01*
X159753904Y-54295523D01*
X159899047Y-54343904D01*
X160479619Y-54924476D01*
X160479619Y-54295523D01*
X159560380Y-53908476D02*
X159512000Y-53860095D01*
X159463619Y-53763333D01*
X159463619Y-53521428D01*
X159512000Y-53424666D01*
X159560380Y-53376285D01*
X159657142Y-53327904D01*
X159753904Y-53327904D01*
X159899047Y-53376285D01*
X160479619Y-53956857D01*
X160479619Y-53327904D01*
%TO.C,R1*%
D16*
X117689333Y-77287380D02*
X117356000Y-76811190D01*
X117117904Y-77287380D02*
X117117904Y-76287380D01*
X117498857Y-76287380D01*
X117594095Y-76335000D01*
X117641714Y-76382619D01*
X117689333Y-76477857D01*
X117689333Y-76620714D01*
X117641714Y-76715952D01*
X117594095Y-76763571D01*
X117498857Y-76811190D01*
X117117904Y-76811190D01*
X118641714Y-77287380D02*
X118070285Y-77287380D01*
X118356000Y-77287380D02*
X118356000Y-76287380D01*
X118260761Y-76430238D01*
X118165523Y-76525476D01*
X118070285Y-76573095D01*
%TO.C,R2*%
X117562333Y-79446380D02*
X117229000Y-78970190D01*
X116990904Y-79446380D02*
X116990904Y-78446380D01*
X117371857Y-78446380D01*
X117467095Y-78494000D01*
X117514714Y-78541619D01*
X117562333Y-78636857D01*
X117562333Y-78779714D01*
X117514714Y-78874952D01*
X117467095Y-78922571D01*
X117371857Y-78970190D01*
X116990904Y-78970190D01*
X117943285Y-78541619D02*
X117990904Y-78494000D01*
X118086142Y-78446380D01*
X118324238Y-78446380D01*
X118419476Y-78494000D01*
X118467095Y-78541619D01*
X118514714Y-78636857D01*
X118514714Y-78732095D01*
X118467095Y-78874952D01*
X117895666Y-79446380D01*
X118514714Y-79446380D01*
%TO.C,R3*%
X117562333Y-81732380D02*
X117229000Y-81256190D01*
X116990904Y-81732380D02*
X116990904Y-80732380D01*
X117371857Y-80732380D01*
X117467095Y-80780000D01*
X117514714Y-80827619D01*
X117562333Y-80922857D01*
X117562333Y-81065714D01*
X117514714Y-81160952D01*
X117467095Y-81208571D01*
X117371857Y-81256190D01*
X116990904Y-81256190D01*
X117895666Y-80732380D02*
X118514714Y-80732380D01*
X118181380Y-81113333D01*
X118324238Y-81113333D01*
X118419476Y-81160952D01*
X118467095Y-81208571D01*
X118514714Y-81303809D01*
X118514714Y-81541904D01*
X118467095Y-81637142D01*
X118419476Y-81684761D01*
X118324238Y-81732380D01*
X118038523Y-81732380D01*
X117943285Y-81684761D01*
X117895666Y-81637142D01*
%TO.C,R4*%
X97496333Y-65349380D02*
X97163000Y-64873190D01*
X96924904Y-65349380D02*
X96924904Y-64349380D01*
X97305857Y-64349380D01*
X97401095Y-64397000D01*
X97448714Y-64444619D01*
X97496333Y-64539857D01*
X97496333Y-64682714D01*
X97448714Y-64777952D01*
X97401095Y-64825571D01*
X97305857Y-64873190D01*
X96924904Y-64873190D01*
X98353476Y-64682714D02*
X98353476Y-65349380D01*
X98115380Y-64301761D02*
X97877285Y-65016047D01*
X98496333Y-65016047D01*
%TO.C,R5*%
X129373333Y-84272380D02*
X129040000Y-83796190D01*
X128801904Y-84272380D02*
X128801904Y-83272380D01*
X129182857Y-83272380D01*
X129278095Y-83320000D01*
X129325714Y-83367619D01*
X129373333Y-83462857D01*
X129373333Y-83605714D01*
X129325714Y-83700952D01*
X129278095Y-83748571D01*
X129182857Y-83796190D01*
X128801904Y-83796190D01*
X130278095Y-83272380D02*
X129801904Y-83272380D01*
X129754285Y-83748571D01*
X129801904Y-83700952D01*
X129897142Y-83653333D01*
X130135238Y-83653333D01*
X130230476Y-83700952D01*
X130278095Y-83748571D01*
X130325714Y-83843809D01*
X130325714Y-84081904D01*
X130278095Y-84177142D01*
X130230476Y-84224761D01*
X130135238Y-84272380D01*
X129897142Y-84272380D01*
X129801904Y-84224761D01*
X129754285Y-84177142D01*
%TO.C,R6*%
X103592333Y-73637380D02*
X103259000Y-73161190D01*
X103020904Y-73637380D02*
X103020904Y-72637380D01*
X103401857Y-72637380D01*
X103497095Y-72685000D01*
X103544714Y-72732619D01*
X103592333Y-72827857D01*
X103592333Y-72970714D01*
X103544714Y-73065952D01*
X103497095Y-73113571D01*
X103401857Y-73161190D01*
X103020904Y-73161190D01*
X104449476Y-72637380D02*
X104259000Y-72637380D01*
X104163761Y-72685000D01*
X104116142Y-72732619D01*
X104020904Y-72875476D01*
X103973285Y-73065952D01*
X103973285Y-73446904D01*
X104020904Y-73542142D01*
X104068523Y-73589761D01*
X104163761Y-73637380D01*
X104354238Y-73637380D01*
X104449476Y-73589761D01*
X104497095Y-73542142D01*
X104544714Y-73446904D01*
X104544714Y-73208809D01*
X104497095Y-73113571D01*
X104449476Y-73065952D01*
X104354238Y-73018333D01*
X104163761Y-73018333D01*
X104068523Y-73065952D01*
X104020904Y-73113571D01*
X103973285Y-73208809D01*
%TO.C,R7*%
X118197333Y-67000380D02*
X117864000Y-66524190D01*
X117625904Y-67000380D02*
X117625904Y-66000380D01*
X118006857Y-66000380D01*
X118102095Y-66048000D01*
X118149714Y-66095619D01*
X118197333Y-66190857D01*
X118197333Y-66333714D01*
X118149714Y-66428952D01*
X118102095Y-66476571D01*
X118006857Y-66524190D01*
X117625904Y-66524190D01*
X118530666Y-66000380D02*
X119197333Y-66000380D01*
X118768761Y-67000380D01*
%TO.C,R8*%
X96988333Y-79573380D02*
X96655000Y-79097190D01*
X96416904Y-79573380D02*
X96416904Y-78573380D01*
X96797857Y-78573380D01*
X96893095Y-78621000D01*
X96940714Y-78668619D01*
X96988333Y-78763857D01*
X96988333Y-78906714D01*
X96940714Y-79001952D01*
X96893095Y-79049571D01*
X96797857Y-79097190D01*
X96416904Y-79097190D01*
X97559761Y-79001952D02*
X97464523Y-78954333D01*
X97416904Y-78906714D01*
X97369285Y-78811476D01*
X97369285Y-78763857D01*
X97416904Y-78668619D01*
X97464523Y-78621000D01*
X97559761Y-78573380D01*
X97750238Y-78573380D01*
X97845476Y-78621000D01*
X97893095Y-78668619D01*
X97940714Y-78763857D01*
X97940714Y-78811476D01*
X97893095Y-78906714D01*
X97845476Y-78954333D01*
X97750238Y-79001952D01*
X97559761Y-79001952D01*
X97464523Y-79049571D01*
X97416904Y-79097190D01*
X97369285Y-79192428D01*
X97369285Y-79382904D01*
X97416904Y-79478142D01*
X97464523Y-79525761D01*
X97559761Y-79573380D01*
X97750238Y-79573380D01*
X97845476Y-79525761D01*
X97893095Y-79478142D01*
X97940714Y-79382904D01*
X97940714Y-79192428D01*
X97893095Y-79097190D01*
X97845476Y-79049571D01*
X97750238Y-79001952D01*
%TO.C,R9*%
X149169380Y-63793666D02*
X148693190Y-64127000D01*
X149169380Y-64365095D02*
X148169380Y-64365095D01*
X148169380Y-63984142D01*
X148217000Y-63888904D01*
X148264619Y-63841285D01*
X148359857Y-63793666D01*
X148502714Y-63793666D01*
X148597952Y-63841285D01*
X148645571Y-63888904D01*
X148693190Y-63984142D01*
X148693190Y-64365095D01*
X149169380Y-63317476D02*
X149169380Y-63127000D01*
X149121761Y-63031761D01*
X149074142Y-62984142D01*
X148931285Y-62888904D01*
X148740809Y-62841285D01*
X148359857Y-62841285D01*
X148264619Y-62888904D01*
X148217000Y-62936523D01*
X148169380Y-63031761D01*
X148169380Y-63222238D01*
X148217000Y-63317476D01*
X148264619Y-63365095D01*
X148359857Y-63412714D01*
X148597952Y-63412714D01*
X148693190Y-63365095D01*
X148740809Y-63317476D01*
X148788428Y-63222238D01*
X148788428Y-63031761D01*
X148740809Y-62936523D01*
X148693190Y-62888904D01*
X148597952Y-62841285D01*
%TO.C,R10*%
X144089380Y-63634857D02*
X143613190Y-63968190D01*
X144089380Y-64206285D02*
X143089380Y-64206285D01*
X143089380Y-63825333D01*
X143137000Y-63730095D01*
X143184619Y-63682476D01*
X143279857Y-63634857D01*
X143422714Y-63634857D01*
X143517952Y-63682476D01*
X143565571Y-63730095D01*
X143613190Y-63825333D01*
X143613190Y-64206285D01*
X144089380Y-62682476D02*
X144089380Y-63253904D01*
X144089380Y-62968190D02*
X143089380Y-62968190D01*
X143232238Y-63063428D01*
X143327476Y-63158666D01*
X143375095Y-63253904D01*
X143089380Y-62063428D02*
X143089380Y-61968190D01*
X143137000Y-61872952D01*
X143184619Y-61825333D01*
X143279857Y-61777714D01*
X143470333Y-61730095D01*
X143708428Y-61730095D01*
X143898904Y-61777714D01*
X143994142Y-61825333D01*
X144041761Y-61872952D01*
X144089380Y-61968190D01*
X144089380Y-62063428D01*
X144041761Y-62158666D01*
X143994142Y-62206285D01*
X143898904Y-62253904D01*
X143708428Y-62301523D01*
X143470333Y-62301523D01*
X143279857Y-62253904D01*
X143184619Y-62206285D01*
X143137000Y-62158666D01*
X143089380Y-62063428D01*
%TO.C,R11*%
X142819380Y-82938857D02*
X142343190Y-83272190D01*
X142819380Y-83510285D02*
X141819380Y-83510285D01*
X141819380Y-83129333D01*
X141867000Y-83034095D01*
X141914619Y-82986476D01*
X142009857Y-82938857D01*
X142152714Y-82938857D01*
X142247952Y-82986476D01*
X142295571Y-83034095D01*
X142343190Y-83129333D01*
X142343190Y-83510285D01*
X142819380Y-81986476D02*
X142819380Y-82557904D01*
X142819380Y-82272190D02*
X141819380Y-82272190D01*
X141962238Y-82367428D01*
X142057476Y-82462666D01*
X142105095Y-82557904D01*
X142819380Y-81034095D02*
X142819380Y-81605523D01*
X142819380Y-81319809D02*
X141819380Y-81319809D01*
X141962238Y-81415047D01*
X142057476Y-81510285D01*
X142105095Y-81605523D01*
%TO.C,R12*%
X149169380Y-82938857D02*
X148693190Y-83272190D01*
X149169380Y-83510285D02*
X148169380Y-83510285D01*
X148169380Y-83129333D01*
X148217000Y-83034095D01*
X148264619Y-82986476D01*
X148359857Y-82938857D01*
X148502714Y-82938857D01*
X148597952Y-82986476D01*
X148645571Y-83034095D01*
X148693190Y-83129333D01*
X148693190Y-83510285D01*
X149169380Y-81986476D02*
X149169380Y-82557904D01*
X149169380Y-82272190D02*
X148169380Y-82272190D01*
X148312238Y-82367428D01*
X148407476Y-82462666D01*
X148455095Y-82557904D01*
X148264619Y-81605523D02*
X148217000Y-81557904D01*
X148169380Y-81462666D01*
X148169380Y-81224571D01*
X148217000Y-81129333D01*
X148264619Y-81081714D01*
X148359857Y-81034095D01*
X148455095Y-81034095D01*
X148597952Y-81081714D01*
X149169380Y-81653142D01*
X149169380Y-81034095D01*
%TO.C,R13*%
X102481142Y-87734380D02*
X102147809Y-87258190D01*
X101909714Y-87734380D02*
X101909714Y-86734380D01*
X102290666Y-86734380D01*
X102385904Y-86782000D01*
X102433523Y-86829619D01*
X102481142Y-86924857D01*
X102481142Y-87067714D01*
X102433523Y-87162952D01*
X102385904Y-87210571D01*
X102290666Y-87258190D01*
X101909714Y-87258190D01*
X103433523Y-87734380D02*
X102862095Y-87734380D01*
X103147809Y-87734380D02*
X103147809Y-86734380D01*
X103052571Y-86877238D01*
X102957333Y-86972476D01*
X102862095Y-87020095D01*
X103766857Y-86734380D02*
X104385904Y-86734380D01*
X104052571Y-87115333D01*
X104195428Y-87115333D01*
X104290666Y-87162952D01*
X104338285Y-87210571D01*
X104385904Y-87305809D01*
X104385904Y-87543904D01*
X104338285Y-87639142D01*
X104290666Y-87686761D01*
X104195428Y-87734380D01*
X103909714Y-87734380D01*
X103814476Y-87686761D01*
X103766857Y-87639142D01*
%TO.C,R14*%
X140708142Y-117038380D02*
X140374809Y-116562190D01*
X140136714Y-117038380D02*
X140136714Y-116038380D01*
X140517666Y-116038380D01*
X140612904Y-116086000D01*
X140660523Y-116133619D01*
X140708142Y-116228857D01*
X140708142Y-116371714D01*
X140660523Y-116466952D01*
X140612904Y-116514571D01*
X140517666Y-116562190D01*
X140136714Y-116562190D01*
X141660523Y-117038380D02*
X141089095Y-117038380D01*
X141374809Y-117038380D02*
X141374809Y-116038380D01*
X141279571Y-116181238D01*
X141184333Y-116276476D01*
X141089095Y-116324095D01*
X142517666Y-116371714D02*
X142517666Y-117038380D01*
X142279571Y-115990761D02*
X142041476Y-116705047D01*
X142660523Y-116705047D01*
%TO.C,R15*%
X144724380Y-126753857D02*
X144248190Y-127087190D01*
X144724380Y-127325285D02*
X143724380Y-127325285D01*
X143724380Y-126944333D01*
X143772000Y-126849095D01*
X143819619Y-126801476D01*
X143914857Y-126753857D01*
X144057714Y-126753857D01*
X144152952Y-126801476D01*
X144200571Y-126849095D01*
X144248190Y-126944333D01*
X144248190Y-127325285D01*
X144724380Y-125801476D02*
X144724380Y-126372904D01*
X144724380Y-126087190D02*
X143724380Y-126087190D01*
X143867238Y-126182428D01*
X143962476Y-126277666D01*
X144010095Y-126372904D01*
X143724380Y-124896714D02*
X143724380Y-125372904D01*
X144200571Y-125420523D01*
X144152952Y-125372904D01*
X144105333Y-125277666D01*
X144105333Y-125039571D01*
X144152952Y-124944333D01*
X144200571Y-124896714D01*
X144295809Y-124849095D01*
X144533904Y-124849095D01*
X144629142Y-124896714D01*
X144676761Y-124944333D01*
X144724380Y-125039571D01*
X144724380Y-125277666D01*
X144676761Y-125372904D01*
X144629142Y-125420523D01*
%TO.C,R16*%
X159377142Y-122372380D02*
X159043809Y-121896190D01*
X158805714Y-122372380D02*
X158805714Y-121372380D01*
X159186666Y-121372380D01*
X159281904Y-121420000D01*
X159329523Y-121467619D01*
X159377142Y-121562857D01*
X159377142Y-121705714D01*
X159329523Y-121800952D01*
X159281904Y-121848571D01*
X159186666Y-121896190D01*
X158805714Y-121896190D01*
X160329523Y-122372380D02*
X159758095Y-122372380D01*
X160043809Y-122372380D02*
X160043809Y-121372380D01*
X159948571Y-121515238D01*
X159853333Y-121610476D01*
X159758095Y-121658095D01*
X161186666Y-121372380D02*
X160996190Y-121372380D01*
X160900952Y-121420000D01*
X160853333Y-121467619D01*
X160758095Y-121610476D01*
X160710476Y-121800952D01*
X160710476Y-122181904D01*
X160758095Y-122277142D01*
X160805714Y-122324761D01*
X160900952Y-122372380D01*
X161091428Y-122372380D01*
X161186666Y-122324761D01*
X161234285Y-122277142D01*
X161281904Y-122181904D01*
X161281904Y-121943809D01*
X161234285Y-121848571D01*
X161186666Y-121800952D01*
X161091428Y-121753333D01*
X160900952Y-121753333D01*
X160805714Y-121800952D01*
X160758095Y-121848571D01*
X160710476Y-121943809D01*
%TO.C,R17*%
X159504142Y-116530380D02*
X159170809Y-116054190D01*
X158932714Y-116530380D02*
X158932714Y-115530380D01*
X159313666Y-115530380D01*
X159408904Y-115578000D01*
X159456523Y-115625619D01*
X159504142Y-115720857D01*
X159504142Y-115863714D01*
X159456523Y-115958952D01*
X159408904Y-116006571D01*
X159313666Y-116054190D01*
X158932714Y-116054190D01*
X160456523Y-116530380D02*
X159885095Y-116530380D01*
X160170809Y-116530380D02*
X160170809Y-115530380D01*
X160075571Y-115673238D01*
X159980333Y-115768476D01*
X159885095Y-115816095D01*
X160789857Y-115530380D02*
X161456523Y-115530380D01*
X161027952Y-116530380D01*
%TO.C,R18*%
X157599142Y-91384380D02*
X157265809Y-90908190D01*
X157027714Y-91384380D02*
X157027714Y-90384380D01*
X157408666Y-90384380D01*
X157503904Y-90432000D01*
X157551523Y-90479619D01*
X157599142Y-90574857D01*
X157599142Y-90717714D01*
X157551523Y-90812952D01*
X157503904Y-90860571D01*
X157408666Y-90908190D01*
X157027714Y-90908190D01*
X158551523Y-91384380D02*
X157980095Y-91384380D01*
X158265809Y-91384380D02*
X158265809Y-90384380D01*
X158170571Y-90527238D01*
X158075333Y-90622476D01*
X157980095Y-90670095D01*
X159122952Y-90812952D02*
X159027714Y-90765333D01*
X158980095Y-90717714D01*
X158932476Y-90622476D01*
X158932476Y-90574857D01*
X158980095Y-90479619D01*
X159027714Y-90432000D01*
X159122952Y-90384380D01*
X159313428Y-90384380D01*
X159408666Y-90432000D01*
X159456285Y-90479619D01*
X159503904Y-90574857D01*
X159503904Y-90622476D01*
X159456285Y-90717714D01*
X159408666Y-90765333D01*
X159313428Y-90812952D01*
X159122952Y-90812952D01*
X159027714Y-90860571D01*
X158980095Y-90908190D01*
X158932476Y-91003428D01*
X158932476Y-91193904D01*
X158980095Y-91289142D01*
X159027714Y-91336761D01*
X159122952Y-91384380D01*
X159313428Y-91384380D01*
X159408666Y-91336761D01*
X159456285Y-91289142D01*
X159503904Y-91193904D01*
X159503904Y-91003428D01*
X159456285Y-90908190D01*
X159408666Y-90860571D01*
X159313428Y-90812952D01*
%TO.C,R19*%
X157599142Y-89098380D02*
X157265809Y-88622190D01*
X157027714Y-89098380D02*
X157027714Y-88098380D01*
X157408666Y-88098380D01*
X157503904Y-88146000D01*
X157551523Y-88193619D01*
X157599142Y-88288857D01*
X157599142Y-88431714D01*
X157551523Y-88526952D01*
X157503904Y-88574571D01*
X157408666Y-88622190D01*
X157027714Y-88622190D01*
X158551523Y-89098380D02*
X157980095Y-89098380D01*
X158265809Y-89098380D02*
X158265809Y-88098380D01*
X158170571Y-88241238D01*
X158075333Y-88336476D01*
X157980095Y-88384095D01*
X159027714Y-89098380D02*
X159218190Y-89098380D01*
X159313428Y-89050761D01*
X159361047Y-89003142D01*
X159456285Y-88860285D01*
X159503904Y-88669809D01*
X159503904Y-88288857D01*
X159456285Y-88193619D01*
X159408666Y-88146000D01*
X159313428Y-88098380D01*
X159122952Y-88098380D01*
X159027714Y-88146000D01*
X158980095Y-88193619D01*
X158932476Y-88288857D01*
X158932476Y-88526952D01*
X158980095Y-88622190D01*
X159027714Y-88669809D01*
X159122952Y-88717428D01*
X159313428Y-88717428D01*
X159408666Y-88669809D01*
X159456285Y-88622190D01*
X159503904Y-88526952D01*
%TO.C,R20*%
X157345142Y-80970380D02*
X157011809Y-80494190D01*
X156773714Y-80970380D02*
X156773714Y-79970380D01*
X157154666Y-79970380D01*
X157249904Y-80018000D01*
X157297523Y-80065619D01*
X157345142Y-80160857D01*
X157345142Y-80303714D01*
X157297523Y-80398952D01*
X157249904Y-80446571D01*
X157154666Y-80494190D01*
X156773714Y-80494190D01*
X157726095Y-80065619D02*
X157773714Y-80018000D01*
X157868952Y-79970380D01*
X158107047Y-79970380D01*
X158202285Y-80018000D01*
X158249904Y-80065619D01*
X158297523Y-80160857D01*
X158297523Y-80256095D01*
X158249904Y-80398952D01*
X157678476Y-80970380D01*
X158297523Y-80970380D01*
X158916571Y-79970380D02*
X159011809Y-79970380D01*
X159107047Y-80018000D01*
X159154666Y-80065619D01*
X159202285Y-80160857D01*
X159249904Y-80351333D01*
X159249904Y-80589428D01*
X159202285Y-80779904D01*
X159154666Y-80875142D01*
X159107047Y-80922761D01*
X159011809Y-80970380D01*
X158916571Y-80970380D01*
X158821333Y-80922761D01*
X158773714Y-80875142D01*
X158726095Y-80779904D01*
X158678476Y-80589428D01*
X158678476Y-80351333D01*
X158726095Y-80160857D01*
X158773714Y-80065619D01*
X158821333Y-80018000D01*
X158916571Y-79970380D01*
%TO.C,R21*%
X157345142Y-66492380D02*
X157011809Y-66016190D01*
X156773714Y-66492380D02*
X156773714Y-65492380D01*
X157154666Y-65492380D01*
X157249904Y-65540000D01*
X157297523Y-65587619D01*
X157345142Y-65682857D01*
X157345142Y-65825714D01*
X157297523Y-65920952D01*
X157249904Y-65968571D01*
X157154666Y-66016190D01*
X156773714Y-66016190D01*
X157726095Y-65587619D02*
X157773714Y-65540000D01*
X157868952Y-65492380D01*
X158107047Y-65492380D01*
X158202285Y-65540000D01*
X158249904Y-65587619D01*
X158297523Y-65682857D01*
X158297523Y-65778095D01*
X158249904Y-65920952D01*
X157678476Y-66492380D01*
X158297523Y-66492380D01*
X159249904Y-66492380D02*
X158678476Y-66492380D01*
X158964190Y-66492380D02*
X158964190Y-65492380D01*
X158868952Y-65635238D01*
X158773714Y-65730476D01*
X158678476Y-65778095D01*
%TO.C,R22*%
X157091142Y-71572380D02*
X156757809Y-71096190D01*
X156519714Y-71572380D02*
X156519714Y-70572380D01*
X156900666Y-70572380D01*
X156995904Y-70620000D01*
X157043523Y-70667619D01*
X157091142Y-70762857D01*
X157091142Y-70905714D01*
X157043523Y-71000952D01*
X156995904Y-71048571D01*
X156900666Y-71096190D01*
X156519714Y-71096190D01*
X157472095Y-70667619D02*
X157519714Y-70620000D01*
X157614952Y-70572380D01*
X157853047Y-70572380D01*
X157948285Y-70620000D01*
X157995904Y-70667619D01*
X158043523Y-70762857D01*
X158043523Y-70858095D01*
X157995904Y-71000952D01*
X157424476Y-71572380D01*
X158043523Y-71572380D01*
X158424476Y-70667619D02*
X158472095Y-70620000D01*
X158567333Y-70572380D01*
X158805428Y-70572380D01*
X158900666Y-70620000D01*
X158948285Y-70667619D01*
X158995904Y-70762857D01*
X158995904Y-70858095D01*
X158948285Y-71000952D01*
X158376857Y-71572380D01*
X158995904Y-71572380D01*
%TO.C,R23*%
X176522142Y-72842380D02*
X176188809Y-72366190D01*
X175950714Y-72842380D02*
X175950714Y-71842380D01*
X176331666Y-71842380D01*
X176426904Y-71890000D01*
X176474523Y-71937619D01*
X176522142Y-72032857D01*
X176522142Y-72175714D01*
X176474523Y-72270952D01*
X176426904Y-72318571D01*
X176331666Y-72366190D01*
X175950714Y-72366190D01*
X176903095Y-71937619D02*
X176950714Y-71890000D01*
X177045952Y-71842380D01*
X177284047Y-71842380D01*
X177379285Y-71890000D01*
X177426904Y-71937619D01*
X177474523Y-72032857D01*
X177474523Y-72128095D01*
X177426904Y-72270952D01*
X176855476Y-72842380D01*
X177474523Y-72842380D01*
X177807857Y-71842380D02*
X178426904Y-71842380D01*
X178093571Y-72223333D01*
X178236428Y-72223333D01*
X178331666Y-72270952D01*
X178379285Y-72318571D01*
X178426904Y-72413809D01*
X178426904Y-72651904D01*
X178379285Y-72747142D01*
X178331666Y-72794761D01*
X178236428Y-72842380D01*
X177950714Y-72842380D01*
X177855476Y-72794761D01*
X177807857Y-72747142D01*
%TO.C,R24*%
X176395142Y-66492380D02*
X176061809Y-66016190D01*
X175823714Y-66492380D02*
X175823714Y-65492380D01*
X176204666Y-65492380D01*
X176299904Y-65540000D01*
X176347523Y-65587619D01*
X176395142Y-65682857D01*
X176395142Y-65825714D01*
X176347523Y-65920952D01*
X176299904Y-65968571D01*
X176204666Y-66016190D01*
X175823714Y-66016190D01*
X176776095Y-65587619D02*
X176823714Y-65540000D01*
X176918952Y-65492380D01*
X177157047Y-65492380D01*
X177252285Y-65540000D01*
X177299904Y-65587619D01*
X177347523Y-65682857D01*
X177347523Y-65778095D01*
X177299904Y-65920952D01*
X176728476Y-66492380D01*
X177347523Y-66492380D01*
X178204666Y-65825714D02*
X178204666Y-66492380D01*
X177966571Y-65444761D02*
X177728476Y-66159047D01*
X178347523Y-66159047D01*
%TO.C,R25*%
X131310142Y-92019380D02*
X130976809Y-91543190D01*
X130738714Y-92019380D02*
X130738714Y-91019380D01*
X131119666Y-91019380D01*
X131214904Y-91067000D01*
X131262523Y-91114619D01*
X131310142Y-91209857D01*
X131310142Y-91352714D01*
X131262523Y-91447952D01*
X131214904Y-91495571D01*
X131119666Y-91543190D01*
X130738714Y-91543190D01*
X131691095Y-91114619D02*
X131738714Y-91067000D01*
X131833952Y-91019380D01*
X132072047Y-91019380D01*
X132167285Y-91067000D01*
X132214904Y-91114619D01*
X132262523Y-91209857D01*
X132262523Y-91305095D01*
X132214904Y-91447952D01*
X131643476Y-92019380D01*
X132262523Y-92019380D01*
X133167285Y-91019380D02*
X132691095Y-91019380D01*
X132643476Y-91495571D01*
X132691095Y-91447952D01*
X132786333Y-91400333D01*
X133024428Y-91400333D01*
X133119666Y-91447952D01*
X133167285Y-91495571D01*
X133214904Y-91590809D01*
X133214904Y-91828904D01*
X133167285Y-91924142D01*
X133119666Y-91971761D01*
X133024428Y-92019380D01*
X132786333Y-92019380D01*
X132691095Y-91971761D01*
X132643476Y-91924142D01*
%TO.C,R26*%
X131310142Y-89733380D02*
X130976809Y-89257190D01*
X130738714Y-89733380D02*
X130738714Y-88733380D01*
X131119666Y-88733380D01*
X131214904Y-88781000D01*
X131262523Y-88828619D01*
X131310142Y-88923857D01*
X131310142Y-89066714D01*
X131262523Y-89161952D01*
X131214904Y-89209571D01*
X131119666Y-89257190D01*
X130738714Y-89257190D01*
X131691095Y-88828619D02*
X131738714Y-88781000D01*
X131833952Y-88733380D01*
X132072047Y-88733380D01*
X132167285Y-88781000D01*
X132214904Y-88828619D01*
X132262523Y-88923857D01*
X132262523Y-89019095D01*
X132214904Y-89161952D01*
X131643476Y-89733380D01*
X132262523Y-89733380D01*
X133119666Y-88733380D02*
X132929190Y-88733380D01*
X132833952Y-88781000D01*
X132786333Y-88828619D01*
X132691095Y-88971476D01*
X132643476Y-89161952D01*
X132643476Y-89542904D01*
X132691095Y-89638142D01*
X132738714Y-89685761D01*
X132833952Y-89733380D01*
X133024428Y-89733380D01*
X133119666Y-89685761D01*
X133167285Y-89638142D01*
X133214904Y-89542904D01*
X133214904Y-89304809D01*
X133167285Y-89209571D01*
X133119666Y-89161952D01*
X133024428Y-89114333D01*
X132833952Y-89114333D01*
X132738714Y-89161952D01*
X132691095Y-89209571D01*
X132643476Y-89304809D01*
%TO.C,R27*%
X115562142Y-104084380D02*
X115228809Y-103608190D01*
X114990714Y-104084380D02*
X114990714Y-103084380D01*
X115371666Y-103084380D01*
X115466904Y-103132000D01*
X115514523Y-103179619D01*
X115562142Y-103274857D01*
X115562142Y-103417714D01*
X115514523Y-103512952D01*
X115466904Y-103560571D01*
X115371666Y-103608190D01*
X114990714Y-103608190D01*
X115943095Y-103179619D02*
X115990714Y-103132000D01*
X116085952Y-103084380D01*
X116324047Y-103084380D01*
X116419285Y-103132000D01*
X116466904Y-103179619D01*
X116514523Y-103274857D01*
X116514523Y-103370095D01*
X116466904Y-103512952D01*
X115895476Y-104084380D01*
X116514523Y-104084380D01*
X116847857Y-103084380D02*
X117514523Y-103084380D01*
X117085952Y-104084380D01*
%TO.C,R28*%
X140708142Y-98402380D02*
X140374809Y-97926190D01*
X140136714Y-98402380D02*
X140136714Y-97402380D01*
X140517666Y-97402380D01*
X140612904Y-97450000D01*
X140660523Y-97497619D01*
X140708142Y-97592857D01*
X140708142Y-97735714D01*
X140660523Y-97830952D01*
X140612904Y-97878571D01*
X140517666Y-97926190D01*
X140136714Y-97926190D01*
X141089095Y-97497619D02*
X141136714Y-97450000D01*
X141231952Y-97402380D01*
X141470047Y-97402380D01*
X141565285Y-97450000D01*
X141612904Y-97497619D01*
X141660523Y-97592857D01*
X141660523Y-97688095D01*
X141612904Y-97830952D01*
X141041476Y-98402380D01*
X141660523Y-98402380D01*
X142231952Y-97830952D02*
X142136714Y-97783333D01*
X142089095Y-97735714D01*
X142041476Y-97640476D01*
X142041476Y-97592857D01*
X142089095Y-97497619D01*
X142136714Y-97450000D01*
X142231952Y-97402380D01*
X142422428Y-97402380D01*
X142517666Y-97450000D01*
X142565285Y-97497619D01*
X142612904Y-97592857D01*
X142612904Y-97640476D01*
X142565285Y-97735714D01*
X142517666Y-97783333D01*
X142422428Y-97830952D01*
X142231952Y-97830952D01*
X142136714Y-97878571D01*
X142089095Y-97926190D01*
X142041476Y-98021428D01*
X142041476Y-98211904D01*
X142089095Y-98307142D01*
X142136714Y-98354761D01*
X142231952Y-98402380D01*
X142422428Y-98402380D01*
X142517666Y-98354761D01*
X142565285Y-98307142D01*
X142612904Y-98211904D01*
X142612904Y-98021428D01*
X142565285Y-97926190D01*
X142517666Y-97878571D01*
X142422428Y-97830952D01*
%TO.C,R29*%
X124706142Y-110340380D02*
X124372809Y-109864190D01*
X124134714Y-110340380D02*
X124134714Y-109340380D01*
X124515666Y-109340380D01*
X124610904Y-109388000D01*
X124658523Y-109435619D01*
X124706142Y-109530857D01*
X124706142Y-109673714D01*
X124658523Y-109768952D01*
X124610904Y-109816571D01*
X124515666Y-109864190D01*
X124134714Y-109864190D01*
X125087095Y-109435619D02*
X125134714Y-109388000D01*
X125229952Y-109340380D01*
X125468047Y-109340380D01*
X125563285Y-109388000D01*
X125610904Y-109435619D01*
X125658523Y-109530857D01*
X125658523Y-109626095D01*
X125610904Y-109768952D01*
X125039476Y-110340380D01*
X125658523Y-110340380D01*
X126134714Y-110340380D02*
X126325190Y-110340380D01*
X126420428Y-110292761D01*
X126468047Y-110245142D01*
X126563285Y-110102285D01*
X126610904Y-109911809D01*
X126610904Y-109530857D01*
X126563285Y-109435619D01*
X126515666Y-109388000D01*
X126420428Y-109340380D01*
X126229952Y-109340380D01*
X126134714Y-109388000D01*
X126087095Y-109435619D01*
X126039476Y-109530857D01*
X126039476Y-109768952D01*
X126087095Y-109864190D01*
X126134714Y-109911809D01*
X126229952Y-109959428D01*
X126420428Y-109959428D01*
X126515666Y-109911809D01*
X126563285Y-109864190D01*
X126610904Y-109768952D01*
%TO.C,R30*%
X117975142Y-99258380D02*
X117641809Y-98782190D01*
X117403714Y-99258380D02*
X117403714Y-98258380D01*
X117784666Y-98258380D01*
X117879904Y-98306000D01*
X117927523Y-98353619D01*
X117975142Y-98448857D01*
X117975142Y-98591714D01*
X117927523Y-98686952D01*
X117879904Y-98734571D01*
X117784666Y-98782190D01*
X117403714Y-98782190D01*
X118308476Y-98258380D02*
X118927523Y-98258380D01*
X118594190Y-98639333D01*
X118737047Y-98639333D01*
X118832285Y-98686952D01*
X118879904Y-98734571D01*
X118927523Y-98829809D01*
X118927523Y-99067904D01*
X118879904Y-99163142D01*
X118832285Y-99210761D01*
X118737047Y-99258380D01*
X118451333Y-99258380D01*
X118356095Y-99210761D01*
X118308476Y-99163142D01*
X119546571Y-98258380D02*
X119641809Y-98258380D01*
X119737047Y-98306000D01*
X119784666Y-98353619D01*
X119832285Y-98448857D01*
X119879904Y-98639333D01*
X119879904Y-98877428D01*
X119832285Y-99067904D01*
X119784666Y-99163142D01*
X119737047Y-99210761D01*
X119641809Y-99258380D01*
X119546571Y-99258380D01*
X119451333Y-99210761D01*
X119403714Y-99163142D01*
X119356095Y-99067904D01*
X119308476Y-98877428D01*
X119308476Y-98639333D01*
X119356095Y-98448857D01*
X119403714Y-98353619D01*
X119451333Y-98306000D01*
X119546571Y-98258380D01*
%TO.C,R31*%
X114038142Y-99131380D02*
X113704809Y-98655190D01*
X113466714Y-99131380D02*
X113466714Y-98131380D01*
X113847666Y-98131380D01*
X113942904Y-98179000D01*
X113990523Y-98226619D01*
X114038142Y-98321857D01*
X114038142Y-98464714D01*
X113990523Y-98559952D01*
X113942904Y-98607571D01*
X113847666Y-98655190D01*
X113466714Y-98655190D01*
X114371476Y-98131380D02*
X114990523Y-98131380D01*
X114657190Y-98512333D01*
X114800047Y-98512333D01*
X114895285Y-98559952D01*
X114942904Y-98607571D01*
X114990523Y-98702809D01*
X114990523Y-98940904D01*
X114942904Y-99036142D01*
X114895285Y-99083761D01*
X114800047Y-99131380D01*
X114514333Y-99131380D01*
X114419095Y-99083761D01*
X114371476Y-99036142D01*
X115942904Y-99131380D02*
X115371476Y-99131380D01*
X115657190Y-99131380D02*
X115657190Y-98131380D01*
X115561952Y-98274238D01*
X115466714Y-98369476D01*
X115371476Y-98417095D01*
%TO.C,R32*%
X95702380Y-121800857D02*
X95226190Y-122134190D01*
X95702380Y-122372285D02*
X94702380Y-122372285D01*
X94702380Y-121991333D01*
X94750000Y-121896095D01*
X94797619Y-121848476D01*
X94892857Y-121800857D01*
X95035714Y-121800857D01*
X95130952Y-121848476D01*
X95178571Y-121896095D01*
X95226190Y-121991333D01*
X95226190Y-122372285D01*
X94702380Y-121467523D02*
X94702380Y-120848476D01*
X95083333Y-121181809D01*
X95083333Y-121038952D01*
X95130952Y-120943714D01*
X95178571Y-120896095D01*
X95273809Y-120848476D01*
X95511904Y-120848476D01*
X95607142Y-120896095D01*
X95654761Y-120943714D01*
X95702380Y-121038952D01*
X95702380Y-121324666D01*
X95654761Y-121419904D01*
X95607142Y-121467523D01*
X94797619Y-120467523D02*
X94750000Y-120419904D01*
X94702380Y-120324666D01*
X94702380Y-120086571D01*
X94750000Y-119991333D01*
X94797619Y-119943714D01*
X94892857Y-119896095D01*
X94988095Y-119896095D01*
X95130952Y-119943714D01*
X95702380Y-120515142D01*
X95702380Y-119896095D01*
%TO.C,R33*%
X96766142Y-111704380D02*
X96432809Y-111228190D01*
X96194714Y-111704380D02*
X96194714Y-110704380D01*
X96575666Y-110704380D01*
X96670904Y-110752000D01*
X96718523Y-110799619D01*
X96766142Y-110894857D01*
X96766142Y-111037714D01*
X96718523Y-111132952D01*
X96670904Y-111180571D01*
X96575666Y-111228190D01*
X96194714Y-111228190D01*
X97099476Y-110704380D02*
X97718523Y-110704380D01*
X97385190Y-111085333D01*
X97528047Y-111085333D01*
X97623285Y-111132952D01*
X97670904Y-111180571D01*
X97718523Y-111275809D01*
X97718523Y-111513904D01*
X97670904Y-111609142D01*
X97623285Y-111656761D01*
X97528047Y-111704380D01*
X97242333Y-111704380D01*
X97147095Y-111656761D01*
X97099476Y-111609142D01*
X98051857Y-110704380D02*
X98670904Y-110704380D01*
X98337571Y-111085333D01*
X98480428Y-111085333D01*
X98575666Y-111132952D01*
X98623285Y-111180571D01*
X98670904Y-111275809D01*
X98670904Y-111513904D01*
X98623285Y-111609142D01*
X98575666Y-111656761D01*
X98480428Y-111704380D01*
X98194714Y-111704380D01*
X98099476Y-111656761D01*
X98051857Y-111609142D01*
%TO.C,R34*%
X96766142Y-109672380D02*
X96432809Y-109196190D01*
X96194714Y-109672380D02*
X96194714Y-108672380D01*
X96575666Y-108672380D01*
X96670904Y-108720000D01*
X96718523Y-108767619D01*
X96766142Y-108862857D01*
X96766142Y-109005714D01*
X96718523Y-109100952D01*
X96670904Y-109148571D01*
X96575666Y-109196190D01*
X96194714Y-109196190D01*
X97099476Y-108672380D02*
X97718523Y-108672380D01*
X97385190Y-109053333D01*
X97528047Y-109053333D01*
X97623285Y-109100952D01*
X97670904Y-109148571D01*
X97718523Y-109243809D01*
X97718523Y-109481904D01*
X97670904Y-109577142D01*
X97623285Y-109624761D01*
X97528047Y-109672380D01*
X97242333Y-109672380D01*
X97147095Y-109624761D01*
X97099476Y-109577142D01*
X98575666Y-109005714D02*
X98575666Y-109672380D01*
X98337571Y-108624761D02*
X98099476Y-109339047D01*
X98718523Y-109339047D01*
%TO.C,R35*%
X100688380Y-121927857D02*
X100212190Y-122261190D01*
X100688380Y-122499285D02*
X99688380Y-122499285D01*
X99688380Y-122118333D01*
X99736000Y-122023095D01*
X99783619Y-121975476D01*
X99878857Y-121927857D01*
X100021714Y-121927857D01*
X100116952Y-121975476D01*
X100164571Y-122023095D01*
X100212190Y-122118333D01*
X100212190Y-122499285D01*
X99688380Y-121594523D02*
X99688380Y-120975476D01*
X100069333Y-121308809D01*
X100069333Y-121165952D01*
X100116952Y-121070714D01*
X100164571Y-121023095D01*
X100259809Y-120975476D01*
X100497904Y-120975476D01*
X100593142Y-121023095D01*
X100640761Y-121070714D01*
X100688380Y-121165952D01*
X100688380Y-121451666D01*
X100640761Y-121546904D01*
X100593142Y-121594523D01*
X99688380Y-120070714D02*
X99688380Y-120546904D01*
X100164571Y-120594523D01*
X100116952Y-120546904D01*
X100069333Y-120451666D01*
X100069333Y-120213571D01*
X100116952Y-120118333D01*
X100164571Y-120070714D01*
X100259809Y-120023095D01*
X100497904Y-120023095D01*
X100593142Y-120070714D01*
X100640761Y-120118333D01*
X100688380Y-120213571D01*
X100688380Y-120451666D01*
X100640761Y-120546904D01*
X100593142Y-120594523D01*
%TO.C,R36*%
X108958142Y-116403380D02*
X108624809Y-115927190D01*
X108386714Y-116403380D02*
X108386714Y-115403380D01*
X108767666Y-115403380D01*
X108862904Y-115451000D01*
X108910523Y-115498619D01*
X108958142Y-115593857D01*
X108958142Y-115736714D01*
X108910523Y-115831952D01*
X108862904Y-115879571D01*
X108767666Y-115927190D01*
X108386714Y-115927190D01*
X109291476Y-115403380D02*
X109910523Y-115403380D01*
X109577190Y-115784333D01*
X109720047Y-115784333D01*
X109815285Y-115831952D01*
X109862904Y-115879571D01*
X109910523Y-115974809D01*
X109910523Y-116212904D01*
X109862904Y-116308142D01*
X109815285Y-116355761D01*
X109720047Y-116403380D01*
X109434333Y-116403380D01*
X109339095Y-116355761D01*
X109291476Y-116308142D01*
X110767666Y-115403380D02*
X110577190Y-115403380D01*
X110481952Y-115451000D01*
X110434333Y-115498619D01*
X110339095Y-115641476D01*
X110291476Y-115831952D01*
X110291476Y-116212904D01*
X110339095Y-116308142D01*
X110386714Y-116355761D01*
X110481952Y-116403380D01*
X110672428Y-116403380D01*
X110767666Y-116355761D01*
X110815285Y-116308142D01*
X110862904Y-116212904D01*
X110862904Y-115974809D01*
X110815285Y-115879571D01*
X110767666Y-115831952D01*
X110672428Y-115784333D01*
X110481952Y-115784333D01*
X110386714Y-115831952D01*
X110339095Y-115879571D01*
X110291476Y-115974809D01*
%TO.C,R37*%
X103116142Y-101925380D02*
X102782809Y-101449190D01*
X102544714Y-101925380D02*
X102544714Y-100925380D01*
X102925666Y-100925380D01*
X103020904Y-100973000D01*
X103068523Y-101020619D01*
X103116142Y-101115857D01*
X103116142Y-101258714D01*
X103068523Y-101353952D01*
X103020904Y-101401571D01*
X102925666Y-101449190D01*
X102544714Y-101449190D01*
X103449476Y-100925380D02*
X104068523Y-100925380D01*
X103735190Y-101306333D01*
X103878047Y-101306333D01*
X103973285Y-101353952D01*
X104020904Y-101401571D01*
X104068523Y-101496809D01*
X104068523Y-101734904D01*
X104020904Y-101830142D01*
X103973285Y-101877761D01*
X103878047Y-101925380D01*
X103592333Y-101925380D01*
X103497095Y-101877761D01*
X103449476Y-101830142D01*
X104401857Y-100925380D02*
X105068523Y-100925380D01*
X104639952Y-101925380D01*
%TO.C,R38*%
X99687142Y-101925380D02*
X99353809Y-101449190D01*
X99115714Y-101925380D02*
X99115714Y-100925380D01*
X99496666Y-100925380D01*
X99591904Y-100973000D01*
X99639523Y-101020619D01*
X99687142Y-101115857D01*
X99687142Y-101258714D01*
X99639523Y-101353952D01*
X99591904Y-101401571D01*
X99496666Y-101449190D01*
X99115714Y-101449190D01*
X100020476Y-100925380D02*
X100639523Y-100925380D01*
X100306190Y-101306333D01*
X100449047Y-101306333D01*
X100544285Y-101353952D01*
X100591904Y-101401571D01*
X100639523Y-101496809D01*
X100639523Y-101734904D01*
X100591904Y-101830142D01*
X100544285Y-101877761D01*
X100449047Y-101925380D01*
X100163333Y-101925380D01*
X100068095Y-101877761D01*
X100020476Y-101830142D01*
X101210952Y-101353952D02*
X101115714Y-101306333D01*
X101068095Y-101258714D01*
X101020476Y-101163476D01*
X101020476Y-101115857D01*
X101068095Y-101020619D01*
X101115714Y-100973000D01*
X101210952Y-100925380D01*
X101401428Y-100925380D01*
X101496666Y-100973000D01*
X101544285Y-101020619D01*
X101591904Y-101115857D01*
X101591904Y-101163476D01*
X101544285Y-101258714D01*
X101496666Y-101306333D01*
X101401428Y-101353952D01*
X101210952Y-101353952D01*
X101115714Y-101401571D01*
X101068095Y-101449190D01*
X101020476Y-101544428D01*
X101020476Y-101734904D01*
X101068095Y-101830142D01*
X101115714Y-101877761D01*
X101210952Y-101925380D01*
X101401428Y-101925380D01*
X101496666Y-101877761D01*
X101544285Y-101830142D01*
X101591904Y-101734904D01*
X101591904Y-101544428D01*
X101544285Y-101449190D01*
X101496666Y-101401571D01*
X101401428Y-101353952D01*
%TO.C,U1*%
X64516095Y-105058380D02*
X64516095Y-105867904D01*
X64563714Y-105963142D01*
X64611333Y-106010761D01*
X64706571Y-106058380D01*
X64897047Y-106058380D01*
X64992285Y-106010761D01*
X65039904Y-105963142D01*
X65087523Y-105867904D01*
X65087523Y-105058380D01*
X66087523Y-106058380D02*
X65516095Y-106058380D01*
X65801809Y-106058380D02*
X65801809Y-105058380D01*
X65706571Y-105201238D01*
X65611333Y-105296476D01*
X65516095Y-105344095D01*
%TO.C,U3*%
X150894380Y-73405904D02*
X151703904Y-73405904D01*
X151799142Y-73358285D01*
X151846761Y-73310666D01*
X151894380Y-73215428D01*
X151894380Y-73024952D01*
X151846761Y-72929714D01*
X151799142Y-72882095D01*
X151703904Y-72834476D01*
X150894380Y-72834476D01*
X150894380Y-72453523D02*
X150894380Y-71834476D01*
X151275333Y-72167809D01*
X151275333Y-72024952D01*
X151322952Y-71929714D01*
X151370571Y-71882095D01*
X151465809Y-71834476D01*
X151703904Y-71834476D01*
X151799142Y-71882095D01*
X151846761Y-71929714D01*
X151894380Y-72024952D01*
X151894380Y-72310666D01*
X151846761Y-72405904D01*
X151799142Y-72453523D01*
%TO.C,U4*%
X166878095Y-98454380D02*
X166878095Y-99263904D01*
X166925714Y-99359142D01*
X166973333Y-99406761D01*
X167068571Y-99454380D01*
X167259047Y-99454380D01*
X167354285Y-99406761D01*
X167401904Y-99359142D01*
X167449523Y-99263904D01*
X167449523Y-98454380D01*
X168354285Y-98787714D02*
X168354285Y-99454380D01*
X168116190Y-98406761D02*
X167878095Y-99121047D01*
X168497142Y-99121047D01*
%TO.C,U5*%
X166497095Y-62767380D02*
X166497095Y-63576904D01*
X166544714Y-63672142D01*
X166592333Y-63719761D01*
X166687571Y-63767380D01*
X166878047Y-63767380D01*
X166973285Y-63719761D01*
X167020904Y-63672142D01*
X167068523Y-63576904D01*
X167068523Y-62767380D01*
X168020904Y-62767380D02*
X167544714Y-62767380D01*
X167497095Y-63243571D01*
X167544714Y-63195952D01*
X167639952Y-63148333D01*
X167878047Y-63148333D01*
X167973285Y-63195952D01*
X168020904Y-63243571D01*
X168068523Y-63338809D01*
X168068523Y-63576904D01*
X168020904Y-63672142D01*
X167973285Y-63719761D01*
X167878047Y-63767380D01*
X167639952Y-63767380D01*
X167544714Y-63719761D01*
X167497095Y-63672142D01*
%TO.C,U7*%
X149987095Y-112678380D02*
X149987095Y-113487904D01*
X150034714Y-113583142D01*
X150082333Y-113630761D01*
X150177571Y-113678380D01*
X150368047Y-113678380D01*
X150463285Y-113630761D01*
X150510904Y-113583142D01*
X150558523Y-113487904D01*
X150558523Y-112678380D01*
X150939476Y-112678380D02*
X151606142Y-112678380D01*
X151177571Y-113678380D01*
%TO.C,U8*%
X124460095Y-112678380D02*
X124460095Y-113487904D01*
X124507714Y-113583142D01*
X124555333Y-113630761D01*
X124650571Y-113678380D01*
X124841047Y-113678380D01*
X124936285Y-113630761D01*
X124983904Y-113583142D01*
X125031523Y-113487904D01*
X125031523Y-112678380D01*
X125650571Y-113106952D02*
X125555333Y-113059333D01*
X125507714Y-113011714D01*
X125460095Y-112916476D01*
X125460095Y-112868857D01*
X125507714Y-112773619D01*
X125555333Y-112726000D01*
X125650571Y-112678380D01*
X125841047Y-112678380D01*
X125936285Y-112726000D01*
X125983904Y-112773619D01*
X126031523Y-112868857D01*
X126031523Y-112916476D01*
X125983904Y-113011714D01*
X125936285Y-113059333D01*
X125841047Y-113106952D01*
X125650571Y-113106952D01*
X125555333Y-113154571D01*
X125507714Y-113202190D01*
X125460095Y-113297428D01*
X125460095Y-113487904D01*
X125507714Y-113583142D01*
X125555333Y-113630761D01*
X125650571Y-113678380D01*
X125841047Y-113678380D01*
X125936285Y-113630761D01*
X125983904Y-113583142D01*
X126031523Y-113487904D01*
X126031523Y-113297428D01*
X125983904Y-113202190D01*
X125936285Y-113154571D01*
X125841047Y-113106952D01*
%TO.C,U9*%
X150114095Y-100446380D02*
X150114095Y-101255904D01*
X150161714Y-101351142D01*
X150209333Y-101398761D01*
X150304571Y-101446380D01*
X150495047Y-101446380D01*
X150590285Y-101398761D01*
X150637904Y-101351142D01*
X150685523Y-101255904D01*
X150685523Y-100446380D01*
X151209333Y-101446380D02*
X151399809Y-101446380D01*
X151495047Y-101398761D01*
X151542666Y-101351142D01*
X151637904Y-101208285D01*
X151685523Y-101017809D01*
X151685523Y-100636857D01*
X151637904Y-100541619D01*
X151590285Y-100494000D01*
X151495047Y-100446380D01*
X151304571Y-100446380D01*
X151209333Y-100494000D01*
X151161714Y-100541619D01*
X151114095Y-100636857D01*
X151114095Y-100874952D01*
X151161714Y-100970190D01*
X151209333Y-101017809D01*
X151304571Y-101065428D01*
X151495047Y-101065428D01*
X151590285Y-101017809D01*
X151637904Y-100970190D01*
X151685523Y-100874952D01*
%TO.C,U10*%
X88733380Y-69564095D02*
X89542904Y-69564095D01*
X89638142Y-69516476D01*
X89685761Y-69468857D01*
X89733380Y-69373619D01*
X89733380Y-69183142D01*
X89685761Y-69087904D01*
X89638142Y-69040285D01*
X89542904Y-68992666D01*
X88733380Y-68992666D01*
X89733380Y-67992666D02*
X89733380Y-68564095D01*
X89733380Y-68278380D02*
X88733380Y-68278380D01*
X88876238Y-68373619D01*
X88971476Y-68468857D01*
X89019095Y-68564095D01*
X88733380Y-67373619D02*
X88733380Y-67278380D01*
X88781000Y-67183142D01*
X88828619Y-67135523D01*
X88923857Y-67087904D01*
X89114333Y-67040285D01*
X89352428Y-67040285D01*
X89542904Y-67087904D01*
X89638142Y-67135523D01*
X89685761Y-67183142D01*
X89733380Y-67278380D01*
X89733380Y-67373619D01*
X89685761Y-67468857D01*
X89638142Y-67516476D01*
X89542904Y-67564095D01*
X89352428Y-67611714D01*
X89114333Y-67611714D01*
X88923857Y-67564095D01*
X88828619Y-67516476D01*
X88781000Y-67468857D01*
X88733380Y-67373619D01*
%TO.C,U12*%
X102266904Y-62854380D02*
X102266904Y-63663904D01*
X102314523Y-63759142D01*
X102362142Y-63806761D01*
X102457380Y-63854380D01*
X102647857Y-63854380D01*
X102743095Y-63806761D01*
X102790714Y-63759142D01*
X102838333Y-63663904D01*
X102838333Y-62854380D01*
X103838333Y-63854380D02*
X103266904Y-63854380D01*
X103552619Y-63854380D02*
X103552619Y-62854380D01*
X103457380Y-62997238D01*
X103362142Y-63092476D01*
X103266904Y-63140095D01*
X104219285Y-62949619D02*
X104266904Y-62902000D01*
X104362142Y-62854380D01*
X104600238Y-62854380D01*
X104695476Y-62902000D01*
X104743095Y-62949619D01*
X104790714Y-63044857D01*
X104790714Y-63140095D01*
X104743095Y-63282952D01*
X104171666Y-63854380D01*
X104790714Y-63854380D01*
%TO.C,U13*%
X125888904Y-63235380D02*
X125888904Y-64044904D01*
X125936523Y-64140142D01*
X125984142Y-64187761D01*
X126079380Y-64235380D01*
X126269857Y-64235380D01*
X126365095Y-64187761D01*
X126412714Y-64140142D01*
X126460333Y-64044904D01*
X126460333Y-63235380D01*
X127460333Y-64235380D02*
X126888904Y-64235380D01*
X127174619Y-64235380D02*
X127174619Y-63235380D01*
X127079380Y-63378238D01*
X126984142Y-63473476D01*
X126888904Y-63521095D01*
X127793666Y-63235380D02*
X128412714Y-63235380D01*
X128079380Y-63616333D01*
X128222238Y-63616333D01*
X128317476Y-63663952D01*
X128365095Y-63711571D01*
X128412714Y-63806809D01*
X128412714Y-64044904D01*
X128365095Y-64140142D01*
X128317476Y-64187761D01*
X128222238Y-64235380D01*
X127936523Y-64235380D01*
X127841285Y-64187761D01*
X127793666Y-64140142D01*
%TO.C,U14*%
X102012904Y-77205380D02*
X102012904Y-78014904D01*
X102060523Y-78110142D01*
X102108142Y-78157761D01*
X102203380Y-78205380D01*
X102393857Y-78205380D01*
X102489095Y-78157761D01*
X102536714Y-78110142D01*
X102584333Y-78014904D01*
X102584333Y-77205380D01*
X103584333Y-78205380D02*
X103012904Y-78205380D01*
X103298619Y-78205380D02*
X103298619Y-77205380D01*
X103203380Y-77348238D01*
X103108142Y-77443476D01*
X103012904Y-77491095D01*
X104441476Y-77538714D02*
X104441476Y-78205380D01*
X104203380Y-77157761D02*
X103965285Y-77872047D01*
X104584333Y-77872047D01*
%TO.C,U15*%
X166401904Y-87746380D02*
X166401904Y-88555904D01*
X166449523Y-88651142D01*
X166497142Y-88698761D01*
X166592380Y-88746380D01*
X166782857Y-88746380D01*
X166878095Y-88698761D01*
X166925714Y-88651142D01*
X166973333Y-88555904D01*
X166973333Y-87746380D01*
X167973333Y-88746380D02*
X167401904Y-88746380D01*
X167687619Y-88746380D02*
X167687619Y-87746380D01*
X167592380Y-87889238D01*
X167497142Y-87984476D01*
X167401904Y-88032095D01*
X168878095Y-87746380D02*
X168401904Y-87746380D01*
X168354285Y-88222571D01*
X168401904Y-88174952D01*
X168497142Y-88127333D01*
X168735238Y-88127333D01*
X168830476Y-88174952D01*
X168878095Y-88222571D01*
X168925714Y-88317809D01*
X168925714Y-88555904D01*
X168878095Y-88651142D01*
X168830476Y-88698761D01*
X168735238Y-88746380D01*
X168497142Y-88746380D01*
X168401904Y-88698761D01*
X168354285Y-88651142D01*
%TO.C,U16*%
X166401904Y-77078380D02*
X166401904Y-77887904D01*
X166449523Y-77983142D01*
X166497142Y-78030761D01*
X166592380Y-78078380D01*
X166782857Y-78078380D01*
X166878095Y-78030761D01*
X166925714Y-77983142D01*
X166973333Y-77887904D01*
X166973333Y-77078380D01*
X167973333Y-78078380D02*
X167401904Y-78078380D01*
X167687619Y-78078380D02*
X167687619Y-77078380D01*
X167592380Y-77221238D01*
X167497142Y-77316476D01*
X167401904Y-77364095D01*
X168830476Y-77078380D02*
X168640000Y-77078380D01*
X168544761Y-77126000D01*
X168497142Y-77173619D01*
X168401904Y-77316476D01*
X168354285Y-77506952D01*
X168354285Y-77887904D01*
X168401904Y-77983142D01*
X168449523Y-78030761D01*
X168544761Y-78078380D01*
X168735238Y-78078380D01*
X168830476Y-78030761D01*
X168878095Y-77983142D01*
X168925714Y-77887904D01*
X168925714Y-77649809D01*
X168878095Y-77554571D01*
X168830476Y-77506952D01*
X168735238Y-77459333D01*
X168544761Y-77459333D01*
X168449523Y-77506952D01*
X168401904Y-77554571D01*
X168354285Y-77649809D01*
%TO.C,U17*%
X139985904Y-88254380D02*
X139985904Y-89063904D01*
X140033523Y-89159142D01*
X140081142Y-89206761D01*
X140176380Y-89254380D01*
X140366857Y-89254380D01*
X140462095Y-89206761D01*
X140509714Y-89159142D01*
X140557333Y-89063904D01*
X140557333Y-88254380D01*
X141557333Y-89254380D02*
X140985904Y-89254380D01*
X141271619Y-89254380D02*
X141271619Y-88254380D01*
X141176380Y-88397238D01*
X141081142Y-88492476D01*
X140985904Y-88540095D01*
X141890666Y-88254380D02*
X142557333Y-88254380D01*
X142128761Y-89254380D01*
%TO.C,U18*%
X124237904Y-100319380D02*
X124237904Y-101128904D01*
X124285523Y-101224142D01*
X124333142Y-101271761D01*
X124428380Y-101319380D01*
X124618857Y-101319380D01*
X124714095Y-101271761D01*
X124761714Y-101224142D01*
X124809333Y-101128904D01*
X124809333Y-100319380D01*
X125809333Y-101319380D02*
X125237904Y-101319380D01*
X125523619Y-101319380D02*
X125523619Y-100319380D01*
X125428380Y-100462238D01*
X125333142Y-100557476D01*
X125237904Y-100605095D01*
X126380761Y-100747952D02*
X126285523Y-100700333D01*
X126237904Y-100652714D01*
X126190285Y-100557476D01*
X126190285Y-100509857D01*
X126237904Y-100414619D01*
X126285523Y-100367000D01*
X126380761Y-100319380D01*
X126571238Y-100319380D01*
X126666476Y-100367000D01*
X126714095Y-100414619D01*
X126761714Y-100509857D01*
X126761714Y-100557476D01*
X126714095Y-100652714D01*
X126666476Y-100700333D01*
X126571238Y-100747952D01*
X126380761Y-100747952D01*
X126285523Y-100795571D01*
X126237904Y-100843190D01*
X126190285Y-100938428D01*
X126190285Y-101128904D01*
X126237904Y-101224142D01*
X126285523Y-101271761D01*
X126380761Y-101319380D01*
X126571238Y-101319380D01*
X126666476Y-101271761D01*
X126714095Y-101224142D01*
X126761714Y-101128904D01*
X126761714Y-100938428D01*
X126714095Y-100843190D01*
X126666476Y-100795571D01*
X126571238Y-100747952D01*
%TO.C,U19*%
X76708380Y-68971095D02*
X77517904Y-68971095D01*
X77613142Y-68923476D01*
X77660761Y-68875857D01*
X77708380Y-68780619D01*
X77708380Y-68590142D01*
X77660761Y-68494904D01*
X77613142Y-68447285D01*
X77517904Y-68399666D01*
X76708380Y-68399666D01*
X77708380Y-67399666D02*
X77708380Y-67971095D01*
X77708380Y-67685380D02*
X76708380Y-67685380D01*
X76851238Y-67780619D01*
X76946476Y-67875857D01*
X76994095Y-67971095D01*
X77708380Y-66923476D02*
X77708380Y-66733000D01*
X77660761Y-66637761D01*
X77613142Y-66590142D01*
X77470285Y-66494904D01*
X77279809Y-66447285D01*
X76898857Y-66447285D01*
X76803619Y-66494904D01*
X76756000Y-66542523D01*
X76708380Y-66637761D01*
X76708380Y-66828238D01*
X76756000Y-66923476D01*
X76803619Y-66971095D01*
X76898857Y-67018714D01*
X77136952Y-67018714D01*
X77232190Y-66971095D01*
X77279809Y-66923476D01*
X77327428Y-66828238D01*
X77327428Y-66637761D01*
X77279809Y-66542523D01*
X77232190Y-66494904D01*
X77136952Y-66447285D01*
%TO.C,U20*%
X105441904Y-107939380D02*
X105441904Y-108748904D01*
X105489523Y-108844142D01*
X105537142Y-108891761D01*
X105632380Y-108939380D01*
X105822857Y-108939380D01*
X105918095Y-108891761D01*
X105965714Y-108844142D01*
X106013333Y-108748904D01*
X106013333Y-107939380D01*
X106441904Y-108034619D02*
X106489523Y-107987000D01*
X106584761Y-107939380D01*
X106822857Y-107939380D01*
X106918095Y-107987000D01*
X106965714Y-108034619D01*
X107013333Y-108129857D01*
X107013333Y-108225095D01*
X106965714Y-108367952D01*
X106394285Y-108939380D01*
X107013333Y-108939380D01*
X107632380Y-107939380D02*
X107727619Y-107939380D01*
X107822857Y-107987000D01*
X107870476Y-108034619D01*
X107918095Y-108129857D01*
X107965714Y-108320333D01*
X107965714Y-108558428D01*
X107918095Y-108748904D01*
X107870476Y-108844142D01*
X107822857Y-108891761D01*
X107727619Y-108939380D01*
X107632380Y-108939380D01*
X107537142Y-108891761D01*
X107489523Y-108844142D01*
X107441904Y-108748904D01*
X107394285Y-108558428D01*
X107394285Y-108320333D01*
X107441904Y-108129857D01*
X107489523Y-108034619D01*
X107537142Y-107987000D01*
X107632380Y-107939380D01*
%TO.C,U21*%
X81819904Y-105312380D02*
X81819904Y-106121904D01*
X81867523Y-106217142D01*
X81915142Y-106264761D01*
X82010380Y-106312380D01*
X82200857Y-106312380D01*
X82296095Y-106264761D01*
X82343714Y-106217142D01*
X82391333Y-106121904D01*
X82391333Y-105312380D01*
X82819904Y-105407619D02*
X82867523Y-105360000D01*
X82962761Y-105312380D01*
X83200857Y-105312380D01*
X83296095Y-105360000D01*
X83343714Y-105407619D01*
X83391333Y-105502857D01*
X83391333Y-105598095D01*
X83343714Y-105740952D01*
X82772285Y-106312380D01*
X83391333Y-106312380D01*
X84343714Y-106312380D02*
X83772285Y-106312380D01*
X84058000Y-106312380D02*
X84058000Y-105312380D01*
X83962761Y-105455238D01*
X83867523Y-105550476D01*
X83772285Y-105598095D01*
%TO.C,C53*%
X115308142Y-118848142D02*
X115260523Y-118895761D01*
X115117666Y-118943380D01*
X115022428Y-118943380D01*
X114879571Y-118895761D01*
X114784333Y-118800523D01*
X114736714Y-118705285D01*
X114689095Y-118514809D01*
X114689095Y-118371952D01*
X114736714Y-118181476D01*
X114784333Y-118086238D01*
X114879571Y-117991000D01*
X115022428Y-117943380D01*
X115117666Y-117943380D01*
X115260523Y-117991000D01*
X115308142Y-118038619D01*
X116212904Y-117943380D02*
X115736714Y-117943380D01*
X115689095Y-118419571D01*
X115736714Y-118371952D01*
X115831952Y-118324333D01*
X116070047Y-118324333D01*
X116165285Y-118371952D01*
X116212904Y-118419571D01*
X116260523Y-118514809D01*
X116260523Y-118752904D01*
X116212904Y-118848142D01*
X116165285Y-118895761D01*
X116070047Y-118943380D01*
X115831952Y-118943380D01*
X115736714Y-118895761D01*
X115689095Y-118848142D01*
X116593857Y-117943380D02*
X117212904Y-117943380D01*
X116879571Y-118324333D01*
X117022428Y-118324333D01*
X117117666Y-118371952D01*
X117165285Y-118419571D01*
X117212904Y-118514809D01*
X117212904Y-118752904D01*
X117165285Y-118848142D01*
X117117666Y-118895761D01*
X117022428Y-118943380D01*
X116736714Y-118943380D01*
X116641476Y-118895761D01*
X116593857Y-118848142D01*
%TO.C,C54*%
X130561142Y-117291142D02*
X130513523Y-117338761D01*
X130370666Y-117386380D01*
X130275428Y-117386380D01*
X130132571Y-117338761D01*
X130037333Y-117243523D01*
X129989714Y-117148285D01*
X129942095Y-116957809D01*
X129942095Y-116814952D01*
X129989714Y-116624476D01*
X130037333Y-116529238D01*
X130132571Y-116434000D01*
X130275428Y-116386380D01*
X130370666Y-116386380D01*
X130513523Y-116434000D01*
X130561142Y-116481619D01*
X131465904Y-116386380D02*
X130989714Y-116386380D01*
X130942095Y-116862571D01*
X130989714Y-116814952D01*
X131084952Y-116767333D01*
X131323047Y-116767333D01*
X131418285Y-116814952D01*
X131465904Y-116862571D01*
X131513523Y-116957809D01*
X131513523Y-117195904D01*
X131465904Y-117291142D01*
X131418285Y-117338761D01*
X131323047Y-117386380D01*
X131084952Y-117386380D01*
X130989714Y-117338761D01*
X130942095Y-117291142D01*
X132370666Y-116719714D02*
X132370666Y-117386380D01*
X132132571Y-116338761D02*
X131894476Y-117053047D01*
X132513523Y-117053047D01*
%TO.C,C55*%
X130548142Y-122150142D02*
X130500523Y-122197761D01*
X130357666Y-122245380D01*
X130262428Y-122245380D01*
X130119571Y-122197761D01*
X130024333Y-122102523D01*
X129976714Y-122007285D01*
X129929095Y-121816809D01*
X129929095Y-121673952D01*
X129976714Y-121483476D01*
X130024333Y-121388238D01*
X130119571Y-121293000D01*
X130262428Y-121245380D01*
X130357666Y-121245380D01*
X130500523Y-121293000D01*
X130548142Y-121340619D01*
X131452904Y-121245380D02*
X130976714Y-121245380D01*
X130929095Y-121721571D01*
X130976714Y-121673952D01*
X131071952Y-121626333D01*
X131310047Y-121626333D01*
X131405285Y-121673952D01*
X131452904Y-121721571D01*
X131500523Y-121816809D01*
X131500523Y-122054904D01*
X131452904Y-122150142D01*
X131405285Y-122197761D01*
X131310047Y-122245380D01*
X131071952Y-122245380D01*
X130976714Y-122197761D01*
X130929095Y-122150142D01*
X132405285Y-121245380D02*
X131929095Y-121245380D01*
X131881476Y-121721571D01*
X131929095Y-121673952D01*
X132024333Y-121626333D01*
X132262428Y-121626333D01*
X132357666Y-121673952D01*
X132405285Y-121721571D01*
X132452904Y-121816809D01*
X132452904Y-122054904D01*
X132405285Y-122150142D01*
X132357666Y-122197761D01*
X132262428Y-122245380D01*
X132024333Y-122245380D01*
X131929095Y-122197761D01*
X131881476Y-122150142D01*
%TO.C,P1*%
D10*
X187657619Y-71869904D02*
X186641619Y-71869904D01*
X186641619Y-71482857D01*
X186690000Y-71386095D01*
X186738380Y-71337714D01*
X186835142Y-71289333D01*
X186980285Y-71289333D01*
X187077047Y-71337714D01*
X187125428Y-71386095D01*
X187173809Y-71482857D01*
X187173809Y-71869904D01*
X187657619Y-70321714D02*
X187657619Y-70902285D01*
X187657619Y-70612000D02*
X186641619Y-70612000D01*
X186786761Y-70708761D01*
X186883523Y-70805523D01*
X186931904Y-70902285D01*
%TO.C,P2*%
X187657619Y-83299904D02*
X186641619Y-83299904D01*
X186641619Y-82912857D01*
X186690000Y-82816095D01*
X186738380Y-82767714D01*
X186835142Y-82719333D01*
X186980285Y-82719333D01*
X187077047Y-82767714D01*
X187125428Y-82816095D01*
X187173809Y-82912857D01*
X187173809Y-83299904D01*
X186738380Y-82332285D02*
X186690000Y-82283904D01*
X186641619Y-82187142D01*
X186641619Y-81945238D01*
X186690000Y-81848476D01*
X186738380Y-81800095D01*
X186835142Y-81751714D01*
X186931904Y-81751714D01*
X187077047Y-81800095D01*
X187657619Y-82380666D01*
X187657619Y-81751714D01*
%TO.C,P3*%
X187657619Y-94729904D02*
X186641619Y-94729904D01*
X186641619Y-94342857D01*
X186690000Y-94246095D01*
X186738380Y-94197714D01*
X186835142Y-94149333D01*
X186980285Y-94149333D01*
X187077047Y-94197714D01*
X187125428Y-94246095D01*
X187173809Y-94342857D01*
X187173809Y-94729904D01*
X186641619Y-93810666D02*
X186641619Y-93181714D01*
X187028666Y-93520380D01*
X187028666Y-93375238D01*
X187077047Y-93278476D01*
X187125428Y-93230095D01*
X187222190Y-93181714D01*
X187464095Y-93181714D01*
X187560857Y-93230095D01*
X187609238Y-93278476D01*
X187657619Y-93375238D01*
X187657619Y-93665523D01*
X187609238Y-93762285D01*
X187560857Y-93810666D01*
%TO.C,U6*%
X60149619Y-55892095D02*
X60972095Y-55892095D01*
X61068857Y-55843714D01*
X61117238Y-55795333D01*
X61165619Y-55698571D01*
X61165619Y-55505047D01*
X61117238Y-55408285D01*
X61068857Y-55359904D01*
X60972095Y-55311523D01*
X60149619Y-55311523D01*
X60149619Y-54392285D02*
X60149619Y-54585809D01*
X60198000Y-54682571D01*
X60246380Y-54730952D01*
X60391523Y-54827714D01*
X60585047Y-54876095D01*
X60972095Y-54876095D01*
X61068857Y-54827714D01*
X61117238Y-54779333D01*
X61165619Y-54682571D01*
X61165619Y-54489047D01*
X61117238Y-54392285D01*
X61068857Y-54343904D01*
X60972095Y-54295523D01*
X60730190Y-54295523D01*
X60633428Y-54343904D01*
X60585047Y-54392285D01*
X60536666Y-54489047D01*
X60536666Y-54682571D01*
X60585047Y-54779333D01*
X60633428Y-54827714D01*
X60730190Y-54876095D01*
X66094428Y-56974619D02*
X66094428Y-55958619D01*
X66433095Y-56684333D01*
X66771761Y-55958619D01*
X66771761Y-56974619D01*
X67255571Y-56442428D02*
X67594238Y-56442428D01*
X67739380Y-56974619D02*
X67255571Y-56974619D01*
X67255571Y-55958619D01*
X67739380Y-55958619D01*
X68126428Y-56684333D02*
X68610238Y-56684333D01*
X68029666Y-56974619D02*
X68368333Y-55958619D01*
X68707000Y-56974619D01*
X69577857Y-56974619D02*
X68997285Y-56974619D01*
X69287571Y-56974619D02*
X69287571Y-55958619D01*
X69190809Y-56103761D01*
X69094047Y-56200523D01*
X68997285Y-56248904D01*
X70013285Y-56974619D02*
X70013285Y-55958619D01*
X70255190Y-55958619D01*
X70400333Y-56007000D01*
X70497095Y-56103761D01*
X70545476Y-56200523D01*
X70593857Y-56394047D01*
X70593857Y-56539190D01*
X70545476Y-56732714D01*
X70497095Y-56829476D01*
X70400333Y-56926238D01*
X70255190Y-56974619D01*
X70013285Y-56974619D01*
X71222809Y-55958619D02*
X71319571Y-55958619D01*
X71416333Y-56007000D01*
X71464714Y-56055380D01*
X71513095Y-56152142D01*
X71561476Y-56345666D01*
X71561476Y-56587571D01*
X71513095Y-56781095D01*
X71464714Y-56877857D01*
X71416333Y-56926238D01*
X71319571Y-56974619D01*
X71222809Y-56974619D01*
X71126047Y-56926238D01*
X71077666Y-56877857D01*
X71029285Y-56781095D01*
X70980904Y-56587571D01*
X70980904Y-56345666D01*
X71029285Y-56152142D01*
X71077666Y-56055380D01*
X71126047Y-56007000D01*
X71222809Y-55958619D01*
X72480714Y-55958619D02*
X71996904Y-55958619D01*
X71948523Y-56442428D01*
X71996904Y-56394047D01*
X72093666Y-56345666D01*
X72335571Y-56345666D01*
X72432333Y-56394047D01*
X72480714Y-56442428D01*
X72529095Y-56539190D01*
X72529095Y-56781095D01*
X72480714Y-56877857D01*
X72432333Y-56926238D01*
X72335571Y-56974619D01*
X72093666Y-56974619D01*
X71996904Y-56926238D01*
X71948523Y-56877857D01*
X72867761Y-55958619D02*
X73545095Y-56974619D01*
X73545095Y-55958619D02*
X72867761Y-56974619D01*
X73835380Y-55958619D02*
X74512714Y-56974619D01*
X74512714Y-55958619D02*
X73835380Y-56974619D01*
X74851380Y-56926238D02*
X74996523Y-56974619D01*
X75238428Y-56974619D01*
X75335190Y-56926238D01*
X75383571Y-56877857D01*
X75431952Y-56781095D01*
X75431952Y-56684333D01*
X75383571Y-56587571D01*
X75335190Y-56539190D01*
X75238428Y-56490809D01*
X75044904Y-56442428D01*
X74948142Y-56394047D01*
X74899761Y-56345666D01*
X74851380Y-56248904D01*
X74851380Y-56152142D01*
X74899761Y-56055380D01*
X74948142Y-56007000D01*
X75044904Y-55958619D01*
X75286809Y-55958619D01*
X75431952Y-56007000D01*
X76447952Y-56877857D02*
X76399571Y-56926238D01*
X76254428Y-56974619D01*
X76157666Y-56974619D01*
X76012523Y-56926238D01*
X75915761Y-56829476D01*
X75867380Y-56732714D01*
X75819000Y-56539190D01*
X75819000Y-56394047D01*
X75867380Y-56200523D01*
X75915761Y-56103761D01*
X76012523Y-56007000D01*
X76157666Y-55958619D01*
X76254428Y-55958619D01*
X76399571Y-56007000D01*
X76447952Y-56055380D01*
%TD*%
M02*
