999
dxfrw 0.5.11
0
SECTION
2
HEADER
9
$ACADVER
1
AC1021
9
$HANDSEED
5
20000
9
$DWGCODEPAGE
3
ANSI_1252
9
$INSBASE
10
0
20
0
30
0
9
$EXTMIN
10
0
20
0
30
0
9
$EXTMAX
10
38.11811
20
36.3181
30
0
9
$LIMMIN
10
0
20
0
9
$LIMMAX
10
420
20
297
9
$ORTHOMODE
70
0
9
$LTSCALE
40
1
9
$TEXTSTYLE
7
STANDARD
9
$CLAYER
8
lasercutter
9
$DIMASZ
40
0.1
9
$DIMLFAC
40
1
9
$DIMSCALE
40
1
9
$DIMEXO
40
0.025
9
$DIMEXE
40
0.05
9
$DIMTXT
40
0.1
9
$DIMTSZ
40
0
9
$DIMAUNIT
70
0
9
$DIMADEC
70
2
9
$DIMLUNIT
70
2
9
$DIMSTYLE
2
Standard
9
$DIMGAP
40
0.025
9
$DIMTIH
70
0
9
$LUNITS
70
2
9
$LUPREC
70
4
9
$AUNITS
70
0
9
$AUPREC
70
2
9
$SPLINESEGS
70
8
9
$GRIDMODE
70
1
9
$SNAPSTYLE
70
0
9
$GRIDUNIT
10
0
20
0
9
$PINSBASE
10
0
20
0
30
0
9
$PLIMMIN
10
0
20
0
9
$PLIMMAX
10
4.7721774e-11
20
6.7492118e-11
9
$INSUNITS
70
1
9
$PSVPSCALE
40
1
0
ENDSEC
0
SECTION
2
CLASSES
0
ENDSEC
0
SECTION
2
TABLES
0
TABLE
2
VPORT
5
8
330
0
100
AcDbSymbolTable
70
1
0
VPORT
5
31
330
2
100
AcDbSymbolTableRecord
100
AcDbViewportTableRecord
2
*ACTIVE
70
0
10
0
20
0
11
1
21
1
12
44.5178971925
22
16.3755260598
13
0
23
0
14
10
24
10
15
10
25
10
16
0
26
0
36
1
17
0
27
0
37
0
40
69.8166140992
41
2.34691011236
42
50
43
0
44
0
50
0
51
0
71
0
72
100
73
1
74
3
75
0
76
1
77
0
78
0
281
0
65
1
110
0
120
0
130
0
111
1
121
0
131
0
112
0
122
1
132
0
79
0
146
0
348
10020
60
7
61
5
292
1
282
1
141
0
142
0
63
250
421
3358443
0
ENDTAB
0
TABLE
2
LTYPE
5
5
330
0
100
AcDbSymbolTable
70
4
0
LTYPE
5
14
330
5
100
AcDbSymbolTableRecord
100
AcDbLinetypeTableRecord
2
ByBlock
70
0
3

72
65
73
0
40
0
0
LTYPE
5
15
330
5
100
AcDbSymbolTableRecord
100
AcDbLinetypeTableRecord
2
ByLayer
70
0
3

72
65
73
0
40
0
0
LTYPE
5
16
330
5
100
AcDbSymbolTableRecord
100
AcDbLinetypeTableRecord
2
Continuous
70
0
3
Solid line
72
65
73
0
40
0
0
LTYPE
5
32
330
5
100
AcDbSymbolTableRecord
100
AcDbLinetypeTableRecord
2
DOT
70
0
3
Dot . . . . . . . . . . . . . . . . . . . . . .
72
65
73
2
40
6.35
49
0
74
0
49
-6.35
74
0
0
LTYPE
5
33
330
5
100
AcDbSymbolTableRecord
100
AcDbLinetypeTableRecord
2
DOT2
70
0
3
Dot (.5x) .....................................
72
65
73
2
40
3.175
49
0
74
0
49
-3.175
74
0
0
LTYPE
5
34
330
5
100
AcDbSymbolTableRecord
100
AcDbLinetypeTableRecord
2
DOTX2
70
0
3
Dot (2x) .  .  .  .  .  .  .  .  .  .  .  .  .
72
65
73
2
40
12.7
49
0
74
0
49
-12.7
74
0
0
LTYPE
5
35
330
5
100
AcDbSymbolTableRecord
100
AcDbLinetypeTableRecord
2
DASHED
70
0
3
Dot . . . . . . . . . . . . . . . . . . . . . .
72
65
73
2
40
19.05
49
12.7
74
0
49
-6.35
74
0
0
LTYPE
5
36
330
5
100
AcDbSymbolTableRecord
100
AcDbLinetypeTableRecord
2
DASHED2
70
0
3
Dashed (.5x) _ _ _ _ _ _ _ _ _ _ _ _ _ _ _ _ _
72
65
73
2
40
9.525
49
6.35
74
0
49
-3.175
74
0
0
LTYPE
5
37
330
5
100
AcDbSymbolTableRecord
100
AcDbLinetypeTableRecord
2
DASHEDX2
70
0
3
Dashed (2x) ____  ____  ____  ____  ____  ___
72
65
73
2
40
38.1
49
25.4
74
0
49
-12.7
74
0
0
LTYPE
5
38
330
5
100
AcDbSymbolTableRecord
100
AcDbLinetypeTableRecord
2
DASHDOT
70
0
3
Dash dot __ . __ . __ . __ . __ . __ . __ . __
72
65
73
4
40
25.4
49
12.7
74
0
49
-6.35
74
0
49
0
74
0
49
-6.35
74
0
0
LTYPE
5
39
330
5
100
AcDbSymbolTableRecord
100
AcDbLinetypeTableRecord
2
DASHDOT2
70
0
3
Dash dot (.5x) _._._._._._._._._._._._._._._.
72
65
73
4
40
12.7
49
6.35
74
0
49
-3.175
74
0
49
0
74
0
49
-3.175
74
0
0
LTYPE
5
3A
330
5
100
AcDbSymbolTableRecord
100
AcDbLinetypeTableRecord
2
DASHDOTX2
70
0
3
Dash dot (2x) ____  .  ____  .  ____  .  ___
72
65
73
4
40
50.8
49
25.4
74
0
49
-12.7
74
0
49
0
74
0
49
-12.7
74
0
0
LTYPE
5
3B
330
5
100
AcDbSymbolTableRecord
100
AcDbLinetypeTableRecord
2
DIVIDE
70
0
3
Divide ____ . . ____ . . ____ . . ____ . . ____
72
65
73
6
40
31.75
49
12.7
74
0
49
-6.35
74
0
49
0
74
0
49
-6.35
74
0
49
0
74
0
49
-6.35
74
0
0
LTYPE
5
3C
330
5
100
AcDbSymbolTableRecord
100
AcDbLinetypeTableRecord
2
DIVIDE2
70
0
3
Divide (.5x) __..__..__..__..__..__..__..__.._
72
65
73
6
40
15.875
49
6.35
74
0
49
-3.175
74
0
49
0
74
0
49
-3.175
74
0
49
0
74
0
49
-3.175
74
0
0
LTYPE
5
3D
330
5
100
AcDbSymbolTableRecord
100
AcDbLinetypeTableRecord
2
DIVIDEX2
70
0
3
Divide (2x) ________  .  .  ________  .  .  _
72
65
73
6
40
63.5
49
25.4
74
0
49
-12.7
74
0
49
0
74
0
49
-12.7
74
0
49
0
74
0
49
-12.7
74
0
0
LTYPE
5
3E
330
5
100
AcDbSymbolTableRecord
100
AcDbLinetypeTableRecord
2
BORDER
70
0
3
Border __ __ . __ __ . __ __ . __ __ . __ __ .
72
65
73
6
40
44.45
49
12.7
74
0
49
-6.35
74
0
49
12.7
74
0
49
-6.35
74
0
49
0
74
0
49
-6.35
74
0
0
LTYPE
5
3F
330
5
100
AcDbSymbolTableRecord
100
AcDbLinetypeTableRecord
2
BORDER2
70
0
3
Border (.5x) __.__.__.__.__.__.__.__.__.__.__.
72
65
73
6
40
22.225
49
6.35
74
0
49
-3.175
74
0
49
6.35
74
0
49
-3.175
74
0
49
0
74
0
49
-3.175
74
0
0
LTYPE
5
40
330
5
100
AcDbSymbolTableRecord
100
AcDbLinetypeTableRecord
2
BORDERX2
70
0
3
Border (2x) ____  ____  .  ____  ____  .  ___
72
65
73
6
40
88.9
49
25.4
74
0
49
-12.7
74
0
49
25.4
74
0
49
-12.7
74
0
49
0
74
0
49
-12.7
74
0
0
LTYPE
5
41
330
5
100
AcDbSymbolTableRecord
100
AcDbLinetypeTableRecord
2
CENTER
70
0
3
Center ____ _ ____ _ ____ _ ____ _ ____ _ ____
72
65
73
4
40
50.8
49
31.75
74
0
49
-6.35
74
0
49
6.35
74
0
49
-6.35
74
0
0
LTYPE
5
42
330
5
100
AcDbSymbolTableRecord
100
AcDbLinetypeTableRecord
2
CENTER2
70
0
3
Center (.5x) ___ _ ___ _ ___ _ ___ _ ___ _ ___
72
65
73
4
40
28.575
49
19.05
74
0
49
-3.175
74
0
49
3.175
74
0
49
-3.175
74
0
0
LTYPE
5
43
330
5
100
AcDbSymbolTableRecord
100
AcDbLinetypeTableRecord
2
CENTERX2
70
0
3
Center (2x) ________  __  ________  __  _____
72
65
73
4
40
101.6
49
63.5
74
0
49
-12.7
74
0
49
12.7
74
0
49
-12.7
74
0
0
ENDTAB
0
TABLE
2
LAYER
5
2
330
0
100
AcDbSymbolTable
70
1
0
LAYER
5
10
330
2
100
AcDbSymbolTableRecord
100
AcDbLayerTableRecord
2
0
70
0
62
7
6
CONTINUOUS
370
0
390
F
0
LAYER
5
44
330
2
100
AcDbSymbolTableRecord
100
AcDbLayerTableRecord
2
lasercutter
70
0
62
5
6
CONTINUOUS
370
0
390
F
0
LAYER
5
45
330
2
100
AcDbSymbolTableRecord
100
AcDbLayerTableRecord
2
material
70
0
62
4
6
CONTINUOUS
370
0
390
F
0
LAYER
5
46
330
2
100
AcDbSymbolTableRecord
100
AcDbLayerTableRecord
2
vector
70
0
62
3
6
CONTINUOUS
370
0
390
F
0
ENDTAB
0
TABLE
2
STYLE
5
3
330
0
100
AcDbSymbolTable
70
3
0
STYLE
5
47
330
2
100
AcDbSymbolTableRecord
100
AcDbTextStyleTableRecord
2
Standard
70
0
40
0
41
1
50
0
71
0
42
1
3
txt
4

0
ENDTAB
0
TABLE
2
VIEW
5
6
330
0
100
AcDbSymbolTable
70
0
0
ENDTAB
0
TABLE
2
UCS
5
7
330
0
100
AcDbSymbolTable
70
0
0
ENDTAB
0
TABLE
2
APPID
5
9
330
0
100
AcDbSymbolTable
70
1
0
APPID
5
12
330
9
100
AcDbSymbolTableRecord
100
AcDbRegAppTableRecord
2
ACAD
70
0
0
ENDTAB
0
TABLE
2
DIMSTYLE
5
A
330
0
100
AcDbSymbolTable
70
1
100
AcDbDimStyleTable
71
1
0
DIMSTYLE
105
48
330
A
100
AcDbSymbolTableRecord
100
AcDbDimStyleTableRecord
2
Standard
70
0
40
1
41
0.1
42
0.025
43
0.38
44
0.05
45
0
46
0
47
0
48
0
140
0.1
141
0.09
142
0
143
25.4
144
1
145
0
146
1
147
0.025
148
0
71
0
72
0
73
0
74
1
75
0
76
0
77
0
78
0
79
0
170
0
171
2
172
0
173
0
174
0
175
0
176
0
177
0
178
0
179
0
271
4
272
4
273
2
274
2
275
0
276
0
277
2
278
46
279
0
280
0
281
0
282
0
283
1
284
0
285
0
286
0
288
0
289
3
340
Standard
341

371
-2
372
-2
0
ENDTAB
0
TABLE
2
BLOCK_RECORD
5
1
330
0
100
AcDbSymbolTable
70
2
0
BLOCK_RECORD
5
1F
330
1
100
AcDbSymbolTableRecord
100
AcDbBlockTableRecord
2
*Model_Space
70
0
280
1
281
0
0
BLOCK_RECORD
5
1E
330
1
100
AcDbSymbolTableRecord
100
AcDbBlockTableRecord
2
*Paper_Space
70
0
280
1
281
0
0
ENDTAB
0
ENDSEC
0
SECTION
2
BLOCKS
0
BLOCK
5
20
330
1F
100
AcDbEntity
8
0
100
AcDbBlockBegin
2
*Model_Space
70
0
10
0
20
0
30
0
3
*Model_Space
1

0
ENDBLK
5
21
330
1F
100
AcDbEntity
8
0
100
AcDbBlockEnd
0
BLOCK
5
1C
330
1B
100
AcDbEntity
8
0
100
AcDbBlockBegin
2
*Paper_Space
70
0
10
0
20
0
30
0
3
*Paper_Space
1

0
ENDBLK
5
1D
330
1F
100
AcDbEntity
8
0
100
AcDbBlockEnd
0
ENDSEC
0
SECTION
2
ENTITIES
0
LINE
5
49
100
AcDbEntity
8
vector
6
ByLayer
62
3
370
-1
100
AcDbLine
10
7.055
20
8.5
11
7.055
21
8.61811
0
LINE
5
4A
100
AcDbEntity
8
vector
6
ByLayer
62
3
370
-1
100
AcDbLine
10
7.055
20
8.61811
11
7.805
21
8.61811
0
LINE
5
4B
100
AcDbEntity
8
vector
6
ByLayer
62
3
370
-1
100
AcDbLine
10
7.805
20
8.61811
11
7.805
21
8.5
0
LINE
5
4C
100
AcDbEntity
8
vector
6
ByLayer
62
3
370
-1
100
AcDbLine
10
7.805
20
8.5
11
7.055
21
8.5
0
LINE
5
4D
100
AcDbEntity
8
vector
6
ByLayer
62
3
370
-1
100
AcDbLine
10
5.525
20
8.5
11
5.525
21
8.61811
0
LINE
5
4E
100
AcDbEntity
8
vector
6
ByLayer
62
3
370
-1
100
AcDbLine
10
5.525
20
8.61811
11
6.275
21
8.61811
0
LINE
5
4F
100
AcDbEntity
8
vector
6
ByLayer
62
3
370
-1
100
AcDbLine
10
6.275
20
8.61811
11
6.275
21
8.5
0
LINE
5
50
100
AcDbEntity
8
vector
6
ByLayer
62
3
370
-1
100
AcDbLine
10
6.275
20
8.5
11
5.525
21
8.5
0
LINE
5
51
100
AcDbEntity
8
vector
6
ByLayer
62
3
370
-1
100
AcDbLine
10
3.995
20
8.5
11
3.995
21
8.61811
0
LINE
5
52
100
AcDbEntity
8
vector
6
ByLayer
62
3
370
-1
100
AcDbLine
10
3.995
20
8.61811
11
4.745
21
8.61811
0
LINE
5
53
100
AcDbEntity
8
vector
6
ByLayer
62
3
370
-1
100
AcDbLine
10
4.745
20
8.61811
11
4.745
21
8.5
0
LINE
5
54
100
AcDbEntity
8
vector
6
ByLayer
62
3
370
-1
100
AcDbLine
10
4.745
20
8.5
11
3.995
21
8.5
0
LINE
5
55
100
AcDbEntity
8
vector
6
ByLayer
62
3
370
-1
100
AcDbLine
10
8.45
20
7.284045
11
8.45
21
8.03405
0
LINE
5
56
100
AcDbEntity
8
vector
6
ByLayer
62
3
370
-1
100
AcDbLine
10
8.45
20
8.03405
11
8.56811
21
8.03405
0
LINE
5
57
100
AcDbEntity
8
vector
6
ByLayer
62
3
370
-1
100
AcDbLine
10
8.56811
20
8.03405
11
8.56811
21
7.284045
0
LINE
5
58
100
AcDbEntity
8
vector
6
ByLayer
62
3
370
-1
100
AcDbLine
10
8.56811
20
7.284045
11
8.45
21
7.284045
0
LINE
5
59
100
AcDbEntity
8
vector
6
ByLayer
62
3
370
-1
100
AcDbLine
10
8.45
20
5.36595
11
8.45
21
6.115955
0
LINE
5
5A
100
AcDbEntity
8
vector
6
ByLayer
62
3
370
-1
100
AcDbLine
10
8.45
20
6.115955
11
8.56811
21
6.115955
0
LINE
5
5B
100
AcDbEntity
8
vector
6
ByLayer
62
3
370
-1
100
AcDbLine
10
8.56811
20
6.115955
11
8.56811
21
5.36595
0
LINE
5
5C
100
AcDbEntity
8
vector
6
ByLayer
62
3
370
-1
100
AcDbLine
10
8.56811
20
5.36595
11
8.45
21
5.36595
0
LINE
5
5D
100
AcDbEntity
8
vector
6
ByLayer
62
3
370
-1
100
AcDbLine
10
7.055
20
4.78189
11
7.055
21
4.9
0
LINE
5
5E
100
AcDbEntity
8
vector
6
ByLayer
62
3
370
-1
100
AcDbLine
10
7.055
20
4.9
11
7.805
21
4.9
0
LINE
5
5F
100
AcDbEntity
8
vector
6
ByLayer
62
3
370
-1
100
AcDbLine
10
7.805
20
4.9
11
7.805
21
4.78189
0
LINE
5
60
100
AcDbEntity
8
vector
6
ByLayer
62
3
370
-1
100
AcDbLine
10
7.805
20
4.78189
11
7.055
21
4.78189
0
LINE
5
61
100
AcDbEntity
8
vector
6
ByLayer
62
3
370
-1
100
AcDbLine
10
3.995
20
4.78189
11
3.995
21
4.9
0
LINE
5
62
100
AcDbEntity
8
vector
6
ByLayer
62
3
370
-1
100
AcDbLine
10
3.995
20
4.9
11
4.745
21
4.9
0
LINE
5
63
100
AcDbEntity
8
vector
6
ByLayer
62
3
370
-1
100
AcDbLine
10
4.745
20
4.9
11
4.745
21
4.78189
0
LINE
5
64
100
AcDbEntity
8
vector
6
ByLayer
62
3
370
-1
100
AcDbLine
10
4.745
20
4.78189
11
3.995
21
4.78189
0
LINE
5
65
100
AcDbEntity
8
vector
6
ByLayer
62
3
370
-1
100
AcDbLine
10
5.525
20
4.78189
11
5.525
21
4.9
0
LINE
5
66
100
AcDbEntity
8
vector
6
ByLayer
62
3
370
-1
100
AcDbLine
10
5.525
20
4.9
11
6.275
21
4.9
0
LINE
5
67
100
AcDbEntity
8
vector
6
ByLayer
62
3
370
-1
100
AcDbLine
10
6.275
20
4.9
11
6.275
21
4.78189
0
LINE
5
68
100
AcDbEntity
8
vector
6
ByLayer
62
3
370
-1
100
AcDbLine
10
6.275
20
4.78189
11
5.525
21
4.78189
0
CIRCLE
5
69
100
AcDbEntity
8
vector
6
ByLayer
62
256
370
-1
100
AcDbCircle
10
3.55
20
8.3001
40
0.058
0
CIRCLE
5
6A
100
AcDbEntity
8
vector
6
ByLayer
62
256
370
-1
100
AcDbCircle
10
8.25
20
8.3001
40
0.058
0
CIRCLE
5
6B
100
AcDbEntity
8
vector
6
ByLayer
62
256
370
-1
100
AcDbCircle
10
3.55
20
5.1001
40
0.058
0
CIRCLE
5
6C
100
AcDbEntity
8
vector
6
ByLayer
62
256
370
-1
100
AcDbCircle
10
8.25
20
5.1001
40
0.058
0
CIRCLE
5
6D
100
AcDbEntity
8
vector
6
ByLayer
62
256
370
-1
100
AcDbCircle
10
3.55
20
8.3001
40
0.058
0
CIRCLE
5
6E
100
AcDbEntity
8
vector
6
ByLayer
62
256
370
-1
100
AcDbCircle
10
8.25
20
8.3001
40
0.058
0
CIRCLE
5
6F
100
AcDbEntity
8
vector
6
ByLayer
62
256
370
-1
100
AcDbCircle
10
3.55
20
5.1001
40
0.058
0
CIRCLE
5
70
100
AcDbEntity
8
vector
6
ByLayer
62
256
370
-1
100
AcDbCircle
10
8.25
20
5.1001
40
0.058
0
CIRCLE
5
71
100
AcDbEntity
8
vector
6
ByLayer
62
256
370
-1
100
AcDbCircle
10
3.15
20
8.3001
40
0.058
0
CIRCLE
5
72
100
AcDbEntity
8
vector
6
ByLayer
62
256
370
-1
100
AcDbCircle
10
3.15
20
5.1001
40
0.058
0
CIRCLE
5
73
100
AcDbEntity
8
vector
6
ByLayer
62
256
370
-1
100
AcDbCircle
10
0.95
20
8.3001
40
0.058
0
CIRCLE
5
74
100
AcDbEntity
8
vector
6
ByLayer
62
256
370
-1
100
AcDbCircle
10
0.95
20
5.1001
40
0.058
0
LINE
5
75
100
AcDbEntity
8
vector
6
ByLayer
62
3
370
-1
100
AcDbLine
10
0.63189
20
7.284045
11
0.63189
21
8.03405
0
LINE
5
76
100
AcDbEntity
8
vector
6
ByLayer
62
3
370
-1
100
AcDbLine
10
0.63189
20
8.03405
11
0.75
21
8.03405
0
LINE
5
77
100
AcDbEntity
8
vector
6
ByLayer
62
3
370
-1
100
AcDbLine
10
0.75
20
8.03405
11
0.75
21
7.284045
0
LINE
5
78
100
AcDbEntity
8
vector
6
ByLayer
62
3
370
-1
100
AcDbLine
10
0.75
20
7.284045
11
0.63189
21
7.284045
0
LINE
5
79
100
AcDbEntity
8
vector
6
ByLayer
62
3
370
-1
100
AcDbLine
10
0.63189
20
5.36595
11
0.63189
21
6.115955
0
LINE
5
7A
100
AcDbEntity
8
vector
6
ByLayer
62
3
370
-1
100
AcDbLine
10
0.63189
20
6.115955
11
0.75
21
6.115955
0
LINE
5
7B
100
AcDbEntity
8
vector
6
ByLayer
62
3
370
-1
100
AcDbLine
10
0.75
20
6.115955
11
0.75
21
5.36595
0
LINE
5
7C
100
AcDbEntity
8
vector
6
ByLayer
62
3
370
-1
100
AcDbLine
10
0.75
20
5.36595
11
0.63189
21
5.36595
0
LINE
5
7D
100
AcDbEntity
8
vector
6
ByLayer
62
256
370
-1
100
AcDbLine
10
8.5181
20
8.7181
11
3.2819
21
8.7181
0
ARC
5
7E
100
AcDbEntity
8
vector
6
ByLayer
62
256
370
-1
100
AcDbCircle
10
8.5181
20
8.5681
40
0.15
100
AcDbArc
50
0
51
90
0
LINE
5
7F
100
AcDbEntity
8
vector
6
ByLayer
62
256
370
-1
100
AcDbLine
10
8.6681
20
4.8321
11
8.6681
21
8.5681
0
ARC
5
80
100
AcDbEntity
8
vector
6
ByLayer
62
256
370
-1
100
AcDbCircle
10
8.5181
20
4.8321
40
0.15
100
AcDbArc
50
270
51
0
0
LINE
5
81
100
AcDbEntity
8
vector
6
ByLayer
62
256
370
-1
100
AcDbLine
10
3.2819
20
4.6821
11
8.5181
21
4.6821
0
ARC
5
82
100
AcDbEntity
8
vector
6
ByLayer
62
256
370
-1
100
AcDbCircle
10
0.6819
20
8.56810005162
40
0.15
100
AcDbArc
50
90
51
180
0
LINE
5
83
100
AcDbEntity
8
vector
6
ByLayer
62
256
370
-1
100
AcDbLine
10
0.5319
20
8.56810005162
11
0.5319
21
4.83210005162
0
ARC
5
84
100
AcDbEntity
8
vector
6
ByLayer
62
256
370
-1
100
AcDbCircle
10
0.6819
20
4.83210005162
40
0.15
100
AcDbArc
50
180
51
270
0
LINE
5
85
100
AcDbEntity
8
vector
6
ByLayer
62
256
370
-1
100
AcDbLine
10
0.6819
20
8.71810005162
11
3.2819
21
8.7181
0
LINE
5
86
100
AcDbEntity
8
vector
6
ByLayer
62
256
370
-1
100
AcDbLine
10
0.6819
20
4.68210005162
11
3.2819
21
4.6821
0
LINE
5
87
100
AcDbEntity
8
vector
6
ByLayer
62
3
370
-1
100
AcDbLine
10
2.60001
20
8.5
11
2.60001
21
8.61811
0
LINE
5
88
100
AcDbEntity
8
vector
6
ByLayer
62
3
370
-1
100
AcDbLine
10
2.60001
20
8.61811
11
3.35001
21
8.61811
0
LINE
5
89
100
AcDbEntity
8
vector
6
ByLayer
62
3
370
-1
100
AcDbLine
10
3.35001
20
8.61811
11
3.35001
21
8.5
0
LINE
5
8A
100
AcDbEntity
8
vector
6
ByLayer
62
3
370
-1
100
AcDbLine
10
3.35001
20
8.5
11
2.60001
21
8.5
0
LINE
5
8B
100
AcDbEntity
8
vector
6
ByLayer
62
3
370
-1
100
AcDbLine
10
1.07001
20
8.5
11
1.07001
21
8.61811
0
LINE
5
8C
100
AcDbEntity
8
vector
6
ByLayer
62
3
370
-1
100
AcDbLine
10
1.07001
20
8.61811
11
1.82001
21
8.61811
0
LINE
5
8D
100
AcDbEntity
8
vector
6
ByLayer
62
3
370
-1
100
AcDbLine
10
1.82001
20
8.61811
11
1.82001
21
8.5
0
LINE
5
8E
100
AcDbEntity
8
vector
6
ByLayer
62
3
370
-1
100
AcDbLine
10
1.82001
20
8.5
11
1.07001
21
8.5
0
LINE
5
8F
100
AcDbEntity
8
vector
6
ByLayer
62
3
370
-1
100
AcDbLine
10
1.07001
20
4.78189
11
1.07001
21
4.9
0
LINE
5
90
100
AcDbEntity
8
vector
6
ByLayer
62
3
370
-1
100
AcDbLine
10
1.07001
20
4.9
11
1.82001
21
4.9
0
LINE
5
91
100
AcDbEntity
8
vector
6
ByLayer
62
3
370
-1
100
AcDbLine
10
1.82001
20
4.9
11
1.82001
21
4.78189
0
LINE
5
92
100
AcDbEntity
8
vector
6
ByLayer
62
3
370
-1
100
AcDbLine
10
1.82001
20
4.78189
11
1.07001
21
4.78189
0
LINE
5
93
100
AcDbEntity
8
vector
6
ByLayer
62
3
370
-1
100
AcDbLine
10
2.60001
20
4.78189
11
2.60001
21
4.9
0
LINE
5
94
100
AcDbEntity
8
vector
6
ByLayer
62
3
370
-1
100
AcDbLine
10
2.60001
20
4.9
11
3.35001
21
4.9
0
LINE
5
95
100
AcDbEntity
8
vector
6
ByLayer
62
3
370
-1
100
AcDbLine
10
3.35001
20
4.9
11
3.35001
21
4.78189
0
LINE
5
96
100
AcDbEntity
8
vector
6
ByLayer
62
3
370
-1
100
AcDbLine
10
3.35001
20
4.78189
11
2.60001
21
4.78189
0
LINE
5
97
100
AcDbEntity
8
vector
6
ByLayer
62
3
370
-1
100
AcDbLine
10
5.525
20
4.36377
11
5.525
21
4.48189
0
LINE
5
98
100
AcDbEntity
8
vector
6
ByLayer
62
3
370
-1
100
AcDbLine
10
5.525
20
4.48189
11
6.275
21
4.48189
0
LINE
5
99
100
AcDbEntity
8
vector
6
ByLayer
62
3
370
-1
100
AcDbLine
10
6.275
20
4.48189
11
6.275
21
4.36377
0
LINE
5
9A
100
AcDbEntity
8
vector
6
ByLayer
62
3
370
-1
100
AcDbLine
10
6.275
20
4.36377
11
5.525
21
4.36377
0
LINE
5
9B
100
AcDbEntity
8
vector
6
ByLayer
62
3
370
-1
100
AcDbLine
10
3.995
20
4.36377
11
3.995
21
4.48189
0
LINE
5
9C
100
AcDbEntity
8
vector
6
ByLayer
62
3
370
-1
100
AcDbLine
10
3.995
20
4.48189
11
4.745
21
4.48189
0
LINE
5
9D
100
AcDbEntity
8
vector
6
ByLayer
62
3
370
-1
100
AcDbLine
10
4.745
20
4.48189
11
4.745
21
4.36377
0
LINE
5
9E
100
AcDbEntity
8
vector
6
ByLayer
62
3
370
-1
100
AcDbLine
10
4.745
20
4.36377
11
3.995
21
4.36377
0
LINE
5
9F
100
AcDbEntity
8
vector
6
ByLayer
62
3
370
-1
100
AcDbLine
10
7.055
20
4.36377
11
7.055
21
4.48189
0
LINE
5
A0
100
AcDbEntity
8
vector
6
ByLayer
62
3
370
-1
100
AcDbLine
10
7.055
20
4.48189
11
7.805
21
4.48189
0
LINE
5
A1
100
AcDbEntity
8
vector
6
ByLayer
62
3
370
-1
100
AcDbLine
10
7.805
20
4.48189
11
7.805
21
4.36377
0
LINE
5
A2
100
AcDbEntity
8
vector
6
ByLayer
62
3
370
-1
100
AcDbLine
10
7.805
20
4.36377
11
7.055
21
4.36377
0
LINE
5
A3
100
AcDbEntity
8
vector
6
ByLayer
62
3
370
-1
100
AcDbLine
10
8.45
20
3.14783
11
8.45
21
3.89783
0
LINE
5
A4
100
AcDbEntity
8
vector
6
ByLayer
62
3
370
-1
100
AcDbLine
10
8.45
20
3.89783
11
8.56811
21
3.89783
0
LINE
5
A5
100
AcDbEntity
8
vector
6
ByLayer
62
3
370
-1
100
AcDbLine
10
8.56811
20
3.89783
11
8.56811
21
3.14783
0
LINE
5
A6
100
AcDbEntity
8
vector
6
ByLayer
62
3
370
-1
100
AcDbLine
10
8.56811
20
3.14783
11
8.45
21
3.14783
0
LINE
5
A7
100
AcDbEntity
8
vector
6
ByLayer
62
3
370
-1
100
AcDbLine
10
8.45
20
1.22971
11
8.45
21
1.97971
0
LINE
5
A8
100
AcDbEntity
8
vector
6
ByLayer
62
3
370
-1
100
AcDbLine
10
8.45
20
1.97971
11
8.56811
21
1.97971
0
LINE
5
A9
100
AcDbEntity
8
vector
6
ByLayer
62
3
370
-1
100
AcDbLine
10
8.56811
20
1.97971
11
8.56811
21
1.22971
0
LINE
5
AA
100
AcDbEntity
8
vector
6
ByLayer
62
3
370
-1
100
AcDbLine
10
8.56811
20
1.22971
11
8.45
21
1.22971
0
LINE
5
AB
100
AcDbEntity
8
vector
6
ByLayer
62
3
370
-1
100
AcDbLine
10
3.995
20
0.64565
11
3.995
21
0.76376
0
LINE
5
AC
100
AcDbEntity
8
vector
6
ByLayer
62
3
370
-1
100
AcDbLine
10
3.995
20
0.76376
11
4.745
21
0.76376
0
LINE
5
AD
100
AcDbEntity
8
vector
6
ByLayer
62
3
370
-1
100
AcDbLine
10
4.745
20
0.76376
11
4.745
21
0.64565
0
LINE
5
AE
100
AcDbEntity
8
vector
6
ByLayer
62
3
370
-1
100
AcDbLine
10
4.745
20
0.64565
11
3.995
21
0.64565
0
LINE
5
AF
100
AcDbEntity
8
vector
6
ByLayer
62
3
370
-1
100
AcDbLine
10
7.055
20
0.64565
11
7.055
21
0.76376
0
LINE
5
B0
100
AcDbEntity
8
vector
6
ByLayer
62
3
370
-1
100
AcDbLine
10
7.055
20
0.76376
11
7.805
21
0.76376
0
LINE
5
B1
100
AcDbEntity
8
vector
6
ByLayer
62
3
370
-1
100
AcDbLine
10
7.805
20
0.76376
11
7.805
21
0.64565
0
LINE
5
B2
100
AcDbEntity
8
vector
6
ByLayer
62
3
370
-1
100
AcDbLine
10
7.805
20
0.64565
11
7.055
21
0.64565
0
LINE
5
B3
100
AcDbEntity
8
vector
6
ByLayer
62
3
370
-1
100
AcDbLine
10
5.525
20
0.64565
11
5.525
21
0.76376
0
LINE
5
B4
100
AcDbEntity
8
vector
6
ByLayer
62
3
370
-1
100
AcDbLine
10
5.525
20
0.76376
11
6.275
21
0.76376
0
LINE
5
B5
100
AcDbEntity
8
vector
6
ByLayer
62
3
370
-1
100
AcDbLine
10
6.275
20
0.76376
11
6.275
21
0.64565
0
LINE
5
B6
100
AcDbEntity
8
vector
6
ByLayer
62
3
370
-1
100
AcDbLine
10
6.275
20
0.64565
11
5.525
21
0.64565
0
LINE
5
B7
100
AcDbEntity
8
vector
6
ByLayer
62
3
370
-1
100
AcDbLine
10
8.5181
20
4.58188
11
3.2819
21
4.58188
0
ARC
5
B8
100
AcDbEntity
8
vector
6
ByLayer
62
3
370
-1
100
AcDbCircle
10
8.5181
20
4.43188
40
0.15
100
AcDbArc
50
3.30777686872e-13
51
90
0
LINE
5
B9
100
AcDbEntity
8
vector
6
ByLayer
62
3
370
-1
100
AcDbLine
10
3.2819
20
0.54585
11
8.5181
21
0.54585
0
LINE
5
BA
100
AcDbEntity
8
vector
6
ByLayer
62
3
370
-1
100
AcDbLine
10
8.6681
20
0.69585
11
8.6681
21
4.43188
0
ARC
5
BB
100
AcDbEntity
8
vector
6
ByLayer
62
3
370
-1
100
AcDbCircle
10
8.5181
20
0.69585
40
0.15
100
AcDbArc
50
270
51
0
0
CIRCLE
5
BC
100
AcDbEntity
8
vector
6
ByLayer
62
256
370
-1
100
AcDbCircle
10
3.55
20
4.163965
40
0.058
0
CIRCLE
5
BD
100
AcDbEntity
8
vector
6
ByLayer
62
256
370
-1
100
AcDbCircle
10
8.25
20
4.163965
40
0.058
0
CIRCLE
5
BE
100
AcDbEntity
8
vector
6
ByLayer
62
256
370
-1
100
AcDbCircle
10
3.55
20
0.963965
40
0.058
0
CIRCLE
5
BF
100
AcDbEntity
8
vector
6
ByLayer
62
256
370
-1
100
AcDbCircle
10
8.25
20
0.963965
40
0.058
0
LINE
5
C0
100
AcDbEntity
8
vector
6
ByLayer
62
3
370
-1
100
AcDbLine
10
0.63189
20
3.14783
11
0.63189
21
3.89783
0
LINE
5
C1
100
AcDbEntity
8
vector
6
ByLayer
62
3
370
-1
100
AcDbLine
10
0.63189
20
3.89783
11
0.75
21
3.89783
0
LINE
5
C2
100
AcDbEntity
8
vector
6
ByLayer
62
3
370
-1
100
AcDbLine
10
0.75
20
3.89783
11
0.75
21
3.14783
0
LINE
5
C3
100
AcDbEntity
8
vector
6
ByLayer
62
3
370
-1
100
AcDbLine
10
0.75
20
3.14783
11
0.63189
21
3.14783
0
LINE
5
C4
100
AcDbEntity
8
vector
6
ByLayer
62
3
370
-1
100
AcDbLine
10
0.63189
20
1.22971
11
0.63189
21
1.97971
0
LINE
5
C5
100
AcDbEntity
8
vector
6
ByLayer
62
3
370
-1
100
AcDbLine
10
0.63189
20
1.97971
11
0.75
21
1.97971
0
LINE
5
C6
100
AcDbEntity
8
vector
6
ByLayer
62
3
370
-1
100
AcDbLine
10
0.75
20
1.97971
11
0.75
21
1.22971
0
LINE
5
C7
100
AcDbEntity
8
vector
6
ByLayer
62
3
370
-1
100
AcDbLine
10
0.75
20
1.22971
11
0.63189
21
1.22971
0
ARC
5
C8
100
AcDbEntity
8
vector
6
ByLayer
62
3
370
-1
100
AcDbCircle
10
0.6819
20
4.43188
40
0.15
100
AcDbArc
50
90
51
180
0
LINE
5
C9
100
AcDbEntity
8
vector
6
ByLayer
62
3
370
-1
100
AcDbLine
10
0.5319
20
4.43188
11
0.5319
21
0.69585
0
ARC
5
CA
100
AcDbEntity
8
vector
6
ByLayer
62
3
370
-1
100
AcDbCircle
10
0.6819
20
0.69585
40
0.15
100
AcDbArc
50
180
51
270
0
LINE
5
CB
100
AcDbEntity
8
vector
6
ByLayer
62
3
370
-1
100
AcDbLine
10
2.60001
20
4.36377
11
2.60001
21
4.48189
0
LINE
5
CC
100
AcDbEntity
8
vector
6
ByLayer
62
3
370
-1
100
AcDbLine
10
2.60001
20
4.48189
11
3.35001
21
4.48189
0
LINE
5
CD
100
AcDbEntity
8
vector
6
ByLayer
62
3
370
-1
100
AcDbLine
10
3.35001
20
4.48189
11
3.35001
21
4.36377
0
LINE
5
CE
100
AcDbEntity
8
vector
6
ByLayer
62
3
370
-1
100
AcDbLine
10
3.35001
20
4.36377
11
2.60001
21
4.36377
0
LINE
5
CF
100
AcDbEntity
8
vector
6
ByLayer
62
3
370
-1
100
AcDbLine
10
1.07001
20
4.36377
11
1.07001
21
4.48189
0
LINE
5
D0
100
AcDbEntity
8
vector
6
ByLayer
62
3
370
-1
100
AcDbLine
10
1.07001
20
4.48189
11
1.82001
21
4.48189
0
LINE
5
D1
100
AcDbEntity
8
vector
6
ByLayer
62
3
370
-1
100
AcDbLine
10
1.82001
20
4.48189
11
1.82001
21
4.36377
0
LINE
5
D2
100
AcDbEntity
8
vector
6
ByLayer
62
3
370
-1
100
AcDbLine
10
1.82001
20
4.36377
11
1.07001
21
4.36377
0
LINE
5
D3
100
AcDbEntity
8
vector
6
ByLayer
62
3
370
-1
100
AcDbLine
10
1.07001
20
0.64565
11
1.07001
21
0.76376
0
LINE
5
D4
100
AcDbEntity
8
vector
6
ByLayer
62
3
370
-1
100
AcDbLine
10
1.07001
20
0.76376
11
1.82001
21
0.76376
0
LINE
5
D5
100
AcDbEntity
8
vector
6
ByLayer
62
3
370
-1
100
AcDbLine
10
1.82001
20
0.76376
11
1.82001
21
0.64565
0
LINE
5
D6
100
AcDbEntity
8
vector
6
ByLayer
62
3
370
-1
100
AcDbLine
10
1.82001
20
0.64565
11
1.07001
21
0.64565
0
LINE
5
D7
100
AcDbEntity
8
vector
6
ByLayer
62
3
370
-1
100
AcDbLine
10
2.60001
20
0.64565
11
2.60001
21
0.76376
0
LINE
5
D8
100
AcDbEntity
8
vector
6
ByLayer
62
3
370
-1
100
AcDbLine
10
2.60001
20
0.76376
11
3.35001
21
0.76376
0
LINE
5
D9
100
AcDbEntity
8
vector
6
ByLayer
62
3
370
-1
100
AcDbLine
10
3.35001
20
0.76376
11
3.35001
21
0.64565
0
LINE
5
DA
100
AcDbEntity
8
vector
6
ByLayer
62
3
370
-1
100
AcDbLine
10
3.35001
20
0.64565
11
2.60001
21
0.64565
0
LINE
5
DB
100
AcDbEntity
8
vector
6
ByLayer
62
256
370
-1
100
AcDbLine
10
0.6819
20
4.58188
11
3.2819
21
4.58188
0
LINE
5
DC
100
AcDbEntity
8
vector
6
ByLayer
62
256
370
-1
100
AcDbLine
10
0.6819
20
0.54585
11
3.2819
21
0.54585
0
CIRCLE
5
DD
100
AcDbEntity
8
vector
6
ByLayer
62
256
370
-1
100
AcDbCircle
10
3.15
20
4.163965
40
0.058
0
CIRCLE
5
DE
100
AcDbEntity
8
vector
6
ByLayer
62
256
370
-1
100
AcDbCircle
10
3.15
20
0.963965
40
0.058
0
CIRCLE
5
DF
100
AcDbEntity
8
vector
6
ByLayer
62
256
370
-1
100
AcDbCircle
10
0.95
20
4.163965
40
0.058
0
CIRCLE
5
E0
100
AcDbEntity
8
vector
6
ByLayer
62
256
370
-1
100
AcDbCircle
10
0.95
20
0.963965
40
0.058
0
LINE
5
E1
100
AcDbEntity
8
vector
6
ByLayer
62
3
370
-1
100
AcDbLine
10
4.745
20
8.93623
11
5.525
21
8.93623
0
LINE
5
E2
100
AcDbEntity
8
vector
6
ByLayer
62
3
370
-1
100
AcDbLine
10
5.525
20
8.93623
11
5.525
21
8.81811
0
LINE
5
E3
100
AcDbEntity
8
vector
6
ByLayer
62
3
370
-1
100
AcDbLine
10
5.525
20
8.81811
11
6.275
21
8.81811
0
LINE
5
E4
100
AcDbEntity
8
vector
6
ByLayer
62
3
370
-1
100
AcDbLine
10
6.275
20
8.81811
11
6.275
21
8.93623
0
LINE
5
E5
100
AcDbEntity
8
vector
6
ByLayer
62
3
370
-1
100
AcDbLine
10
6.275
20
8.93623
11
7.055
21
8.93623
0
LINE
5
E6
100
AcDbEntity
8
vector
6
ByLayer
62
3
370
-1
100
AcDbLine
10
7.055
20
8.93623
11
7.055
21
8.81811
0
LINE
5
E7
100
AcDbEntity
8
vector
6
ByLayer
62
3
370
-1
100
AcDbLine
10
7.055
20
8.81811
11
7.805
21
8.81811
0
LINE
5
E8
100
AcDbEntity
8
vector
6
ByLayer
62
3
370
-1
100
AcDbLine
10
7.805
20
8.81811
11
7.805
21
8.93623
0
LINE
5
E9
100
AcDbEntity
8
vector
6
ByLayer
62
3
370
-1
100
AcDbLine
10
7.805
20
8.93623
11
8.44999
21
8.93623
0
LINE
5
EA
100
AcDbEntity
8
vector
6
ByLayer
62
3
370
-1
100
AcDbLine
10
8.44999
20
8.93623
11
8.44999
21
9.40472
0
LINE
5
EB
100
AcDbEntity
8
vector
6
ByLayer
62
3
370
-1
100
AcDbLine
10
8.44999
20
9.40472
11
8.56811
21
9.40472
0
LINE
5
EC
100
AcDbEntity
8
vector
6
ByLayer
62
3
370
-1
100
AcDbLine
10
8.56811
20
9.40472
11
8.56811
21
9.90472
0
LINE
5
ED
100
AcDbEntity
8
vector
6
ByLayer
62
3
370
-1
100
AcDbLine
10
8.56811
20
9.90472
11
8.44999
21
9.90472
0
LINE
5
EE
100
AcDbEntity
8
vector
6
ByLayer
62
3
370
-1
100
AcDbLine
10
8.44999
20
9.90472
11
8.44999
21
10.37322
0
LINE
5
EF
100
AcDbEntity
8
vector
6
ByLayer
62
3
370
-1
100
AcDbLine
10
8.44999
20
10.37322
11
7.805
21
10.37322
0
LINE
5
F0
100
AcDbEntity
8
vector
6
ByLayer
62
3
370
-1
100
AcDbLine
10
7.805
20
10.37322
11
7.805
21
10.49133
0
LINE
5
F1
100
AcDbEntity
8
vector
6
ByLayer
62
3
370
-1
100
AcDbLine
10
7.805
20
10.49133
11
7.055
21
10.49133
0
LINE
5
F2
100
AcDbEntity
8
vector
6
ByLayer
62
3
370
-1
100
AcDbLine
10
7.055
20
10.49133
11
7.055
21
10.37322
0
LINE
5
F3
100
AcDbEntity
8
vector
6
ByLayer
62
3
370
-1
100
AcDbLine
10
7.055
20
10.37322
11
6.275
21
10.37322
0
LINE
5
F4
100
AcDbEntity
8
vector
6
ByLayer
62
3
370
-1
100
AcDbLine
10
6.275
20
10.37322
11
6.275
21
10.49133
0
LINE
5
F5
100
AcDbEntity
8
vector
6
ByLayer
62
3
370
-1
100
AcDbLine
10
6.275
20
10.49133
11
5.525
21
10.49133
0
LINE
5
F6
100
AcDbEntity
8
vector
6
ByLayer
62
3
370
-1
100
AcDbLine
10
5.525
20
10.49133
11
5.525
21
10.37322
0
LINE
5
F7
100
AcDbEntity
8
vector
6
ByLayer
62
3
370
-1
100
AcDbLine
10
5.525
20
10.37322
11
4.745
21
10.37322
0
LINE
5
F8
100
AcDbEntity
8
vector
6
ByLayer
62
3
370
-1
100
AcDbLine
10
4.745
20
10.37322
11
4.745
21
10.49133
0
LINE
5
F9
100
AcDbEntity
8
vector
6
ByLayer
62
3
370
-1
100
AcDbLine
10
4.745
20
10.49133
11
3.995
21
10.49133
0
LINE
5
FA
100
AcDbEntity
8
vector
6
ByLayer
62
3
370
-1
100
AcDbLine
10
3.995
20
10.49133
11
3.995
21
10.37322
0
LINE
5
FB
100
AcDbEntity
8
vector
6
ByLayer
62
3
370
-1
100
AcDbLine
10
3.995
20
10.37322
11
3.35001
21
10.37322
0
LINE
5
FC
100
AcDbEntity
8
vector
6
ByLayer
62
3
370
-1
100
AcDbLine
10
3.35001
20
8.93623
11
3.995
21
8.93623
0
LINE
5
FD
100
AcDbEntity
8
vector
6
ByLayer
62
3
370
-1
100
AcDbLine
10
3.995
20
8.93623
11
3.995
21
8.81811
0
LINE
5
FE
100
AcDbEntity
8
vector
6
ByLayer
62
3
370
-1
100
AcDbLine
10
3.995
20
8.81811
11
4.745
21
8.81811
0
LINE
5
FF
100
AcDbEntity
8
vector
6
ByLayer
62
3
370
-1
100
AcDbLine
10
4.745
20
8.81811
11
4.745
21
8.93623
0
ARC
5
100
100
AcDbEntity
8
vector
6
ByLayer
62
256
370
-1
100
AcDbCircle
10
6.225
20
10.02323
40
0.05
100
AcDbArc
50
90
51
180
0
LINE
5
101
100
AcDbEntity
8
vector
6
ByLayer
62
256
370
-1
100
AcDbLine
10
6.225
20
10.07323
11
6.875
21
10.07323
0
ARC
5
102
100
AcDbEntity
8
vector
6
ByLayer
62
256
370
-1
100
AcDbCircle
10
6.875
20
10.02323
40
0.05
100
AcDbArc
50
0
51
90
0
LINE
5
103
100
AcDbEntity
8
vector
6
ByLayer
62
256
370
-1
100
AcDbLine
10
6.925
20
10.02323
11
6.925
21
9.72323
0
ARC
5
104
100
AcDbEntity
8
vector
6
ByLayer
62
256
370
-1
100
AcDbCircle
10
6.875
20
9.72323
40
0.05
100
AcDbArc
50
270
51
0
0
LINE
5
105
100
AcDbEntity
8
vector
6
ByLayer
62
256
370
-1
100
AcDbLine
10
6.875
20
9.67323
11
6.225
21
9.67323
0
LINE
5
106
100
AcDbEntity
8
vector
6
ByLayer
62
256
370
-1
100
AcDbLine
10
6.175
20
9.72323
11
6.175
21
10.02323
0
ARC
5
107
100
AcDbEntity
8
vector
6
ByLayer
62
256
370
-1
100
AcDbCircle
10
6.225
20
9.72323
40
0.05
100
AcDbArc
50
180
51
270
0
ARC
5
108
100
AcDbEntity
8
vector
6
ByLayer
62
256
370
-1
100
AcDbCircle
10
7.245
20
10.02323
40
0.05
100
AcDbArc
50
90
51
180
0
LINE
5
109
100
AcDbEntity
8
vector
6
ByLayer
62
256
370
-1
100
AcDbLine
10
7.245
20
10.07323
11
7.895
21
10.07323
0
ARC
5
10A
100
AcDbEntity
8
vector
6
ByLayer
62
256
370
-1
100
AcDbCircle
10
7.895
20
10.02323
40
0.05
100
AcDbArc
50
0
51
90
0
LINE
5
10B
100
AcDbEntity
8
vector
6
ByLayer
62
256
370
-1
100
AcDbLine
10
7.945
20
10.02323
11
7.945
21
9.72323
0
ARC
5
10C
100
AcDbEntity
8
vector
6
ByLayer
62
256
370
-1
100
AcDbCircle
10
7.895
20
9.72323
40
0.05
100
AcDbArc
50
270
51
0
0
LINE
5
10D
100
AcDbEntity
8
vector
6
ByLayer
62
256
370
-1
100
AcDbLine
10
7.895
20
9.67323
11
7.245
21
9.67323
0
LINE
5
10E
100
AcDbEntity
8
vector
6
ByLayer
62
256
370
-1
100
AcDbLine
10
7.195
20
9.72323
11
7.195
21
10.02323
0
ARC
5
10F
100
AcDbEntity
8
vector
6
ByLayer
62
256
370
-1
100
AcDbCircle
10
7.245
20
9.72323
40
0.05
100
AcDbArc
50
180
51
270
0
LINE
5
110
100
AcDbEntity
8
vector
6
ByLayer
62
3
370
-1
100
AcDbLine
10
0.75001
20
10.37322
11
0.75001
21
9.90472
0
LINE
5
111
100
AcDbEntity
8
vector
6
ByLayer
62
3
370
-1
100
AcDbLine
10
0.75001
20
9.90472
11
0.63189
21
9.90472
0
LINE
5
112
100
AcDbEntity
8
vector
6
ByLayer
62
3
370
-1
100
AcDbLine
10
0.63189
20
9.90472
11
0.63189
21
9.40472
0
LINE
5
113
100
AcDbEntity
8
vector
6
ByLayer
62
3
370
-1
100
AcDbLine
10
0.63189
20
9.40472
11
0.75001
21
9.40472
0
LINE
5
114
100
AcDbEntity
8
vector
6
ByLayer
62
3
370
-1
100
AcDbLine
10
0.75001
20
9.40472
11
0.75001
21
8.93623
0
LINE
5
115
100
AcDbEntity
8
vector
6
ByLayer
62
3
370
-1
100
AcDbLine
10
1.82001
20
8.93623
11
2.60001
21
8.93623
0
LINE
5
116
100
AcDbEntity
8
vector
6
ByLayer
62
3
370
-1
100
AcDbLine
10
2.60001
20
8.93623
11
2.60001
21
8.81811
0
LINE
5
117
100
AcDbEntity
8
vector
6
ByLayer
62
3
370
-1
100
AcDbLine
10
2.60001
20
8.81811
11
3.35001
21
8.81811
0
LINE
5
118
100
AcDbEntity
8
vector
6
ByLayer
62
3
370
-1
100
AcDbLine
10
3.35001
20
8.81811
11
3.35001
21
8.93623
0
LINE
5
119
100
AcDbEntity
8
vector
6
ByLayer
62
3
370
-1
100
AcDbLine
10
3.35001
20
10.37322
11
3.35001
21
10.49133
0
LINE
5
11A
100
AcDbEntity
8
vector
6
ByLayer
62
3
370
-1
100
AcDbLine
10
3.35001
20
10.49133
11
2.60001
21
10.49133
0
LINE
5
11B
100
AcDbEntity
8
vector
6
ByLayer
62
3
370
-1
100
AcDbLine
10
2.60001
20
10.49133
11
2.60001
21
10.37322
0
LINE
5
11C
100
AcDbEntity
8
vector
6
ByLayer
62
3
370
-1
100
AcDbLine
10
2.60001
20
10.37322
11
1.82001
21
10.37322
0
LINE
5
11D
100
AcDbEntity
8
vector
6
ByLayer
62
3
370
-1
100
AcDbLine
10
1.82001
20
10.37322
11
1.82001
21
10.49133
0
LINE
5
11E
100
AcDbEntity
8
vector
6
ByLayer
62
3
370
-1
100
AcDbLine
10
1.82001
20
10.49133
11
1.07001
21
10.49133
0
LINE
5
11F
100
AcDbEntity
8
vector
6
ByLayer
62
3
370
-1
100
AcDbLine
10
1.07001
20
10.49133
11
1.07001
21
10.37322
0
LINE
5
120
100
AcDbEntity
8
vector
6
ByLayer
62
3
370
-1
100
AcDbLine
10
1.07001
20
8.93623
11
1.07001
21
8.81811
0
LINE
5
121
100
AcDbEntity
8
vector
6
ByLayer
62
3
370
-1
100
AcDbLine
10
1.07001
20
8.81811
11
1.82001
21
8.81811
0
LINE
5
122
100
AcDbEntity
8
vector
6
ByLayer
62
3
370
-1
100
AcDbLine
10
1.82001
20
8.81811
11
1.82001
21
8.93623
0
LINE
5
123
100
AcDbEntity
8
vector
6
ByLayer
62
256
370
-1
100
AcDbLine
10
0.75001
20
10.37322
11
1.07001
21
10.37322
0
LINE
5
124
100
AcDbEntity
8
vector
6
ByLayer
62
256
370
-1
100
AcDbLine
10
0.75001
20
8.93623
11
1.07001
21
8.93623
0
LINE
5
125
100
AcDbEntity
8
vector
6
ByLayer
62
3
370
-1
100
AcDbLine
10
4.745
20
10.67322
11
5.525
21
10.67322
0
LINE
5
126
100
AcDbEntity
8
vector
6
ByLayer
62
3
370
-1
100
AcDbLine
10
5.525
20
10.67322
11
5.525
21
10.55511
0
LINE
5
127
100
AcDbEntity
8
vector
6
ByLayer
62
3
370
-1
100
AcDbLine
10
5.525
20
10.55511
11
6.275
21
10.55511
0
LINE
5
128
100
AcDbEntity
8
vector
6
ByLayer
62
3
370
-1
100
AcDbLine
10
6.275
20
10.55511
11
6.275
21
10.67322
0
LINE
5
129
100
AcDbEntity
8
vector
6
ByLayer
62
3
370
-1
100
AcDbLine
10
6.275
20
10.67322
11
7.055
21
10.67322
0
LINE
5
12A
100
AcDbEntity
8
vector
6
ByLayer
62
3
370
-1
100
AcDbLine
10
7.055
20
10.67322
11
7.055
21
10.55511
0
LINE
5
12B
100
AcDbEntity
8
vector
6
ByLayer
62
3
370
-1
100
AcDbLine
10
7.055
20
10.55511
11
7.805
21
10.55511
0
LINE
5
12C
100
AcDbEntity
8
vector
6
ByLayer
62
3
370
-1
100
AcDbLine
10
7.805
20
10.55511
11
7.805
21
10.67322
0
LINE
5
12D
100
AcDbEntity
8
vector
6
ByLayer
62
3
370
-1
100
AcDbLine
10
7.805
20
10.67322
11
8.44999
21
10.67322
0
LINE
5
12E
100
AcDbEntity
8
vector
6
ByLayer
62
3
370
-1
100
AcDbLine
10
8.44999
20
10.67322
11
8.44999
21
11.14172
0
LINE
5
12F
100
AcDbEntity
8
vector
6
ByLayer
62
3
370
-1
100
AcDbLine
10
8.44999
20
11.14172
11
8.56811
21
11.14172
0
LINE
5
130
100
AcDbEntity
8
vector
6
ByLayer
62
3
370
-1
100
AcDbLine
10
8.56811
20
11.14172
11
8.56811
21
11.64172
0
LINE
5
131
100
AcDbEntity
8
vector
6
ByLayer
62
3
370
-1
100
AcDbLine
10
8.56811
20
11.64172
11
8.44999
21
11.64172
0
LINE
5
132
100
AcDbEntity
8
vector
6
ByLayer
62
3
370
-1
100
AcDbLine
10
8.44999
20
11.64172
11
8.44999
21
12.11021
0
LINE
5
133
100
AcDbEntity
8
vector
6
ByLayer
62
3
370
-1
100
AcDbLine
10
8.44999
20
12.11021
11
7.805
21
12.11021
0
LINE
5
134
100
AcDbEntity
8
vector
6
ByLayer
62
3
370
-1
100
AcDbLine
10
7.805
20
12.11021
11
7.805
21
12.22833
0
LINE
5
135
100
AcDbEntity
8
vector
6
ByLayer
62
3
370
-1
100
AcDbLine
10
7.805
20
12.22833
11
7.055
21
12.22833
0
LINE
5
136
100
AcDbEntity
8
vector
6
ByLayer
62
3
370
-1
100
AcDbLine
10
7.055
20
12.22833
11
7.055
21
12.11021
0
LINE
5
137
100
AcDbEntity
8
vector
6
ByLayer
62
3
370
-1
100
AcDbLine
10
7.055
20
12.11021
11
6.275
21
12.11021
0
LINE
5
138
100
AcDbEntity
8
vector
6
ByLayer
62
3
370
-1
100
AcDbLine
10
6.275
20
12.11021
11
6.275
21
12.22833
0
LINE
5
139
100
AcDbEntity
8
vector
6
ByLayer
62
3
370
-1
100
AcDbLine
10
6.275
20
12.22833
11
5.525
21
12.22833
0
LINE
5
13A
100
AcDbEntity
8
vector
6
ByLayer
62
3
370
-1
100
AcDbLine
10
5.525
20
12.22833
11
5.525
21
12.11021
0
LINE
5
13B
100
AcDbEntity
8
vector
6
ByLayer
62
3
370
-1
100
AcDbLine
10
5.525
20
12.11021
11
4.745
21
12.11021
0
LINE
5
13C
100
AcDbEntity
8
vector
6
ByLayer
62
3
370
-1
100
AcDbLine
10
4.745
20
12.11021
11
4.745
21
12.22833
0
LINE
5
13D
100
AcDbEntity
8
vector
6
ByLayer
62
3
370
-1
100
AcDbLine
10
4.745
20
12.22833
11
3.995
21
12.22833
0
LINE
5
13E
100
AcDbEntity
8
vector
6
ByLayer
62
3
370
-1
100
AcDbLine
10
3.995
20
12.22833
11
3.995
21
12.11021
0
LINE
5
13F
100
AcDbEntity
8
vector
6
ByLayer
62
3
370
-1
100
AcDbLine
10
3.995
20
12.11021
11
3.35001
21
12.11021
0
LINE
5
140
100
AcDbEntity
8
vector
6
ByLayer
62
3
370
-1
100
AcDbLine
10
3.35001
20
10.67322
11
3.995
21
10.67322
0
LINE
5
141
100
AcDbEntity
8
vector
6
ByLayer
62
3
370
-1
100
AcDbLine
10
3.995
20
10.67322
11
3.995
21
10.55511
0
LINE
5
142
100
AcDbEntity
8
vector
6
ByLayer
62
3
370
-1
100
AcDbLine
10
3.995
20
10.55511
11
4.745
21
10.55511
0
LINE
5
143
100
AcDbEntity
8
vector
6
ByLayer
62
3
370
-1
100
AcDbLine
10
4.745
20
10.55511
11
4.745
21
10.67322
0
LINE
5
144
100
AcDbEntity
8
vector
6
ByLayer
62
3
370
-1
100
AcDbLine
10
0.75001
20
12.11021
11
0.75001
21
11.64172
0
LINE
5
145
100
AcDbEntity
8
vector
6
ByLayer
62
3
370
-1
100
AcDbLine
10
0.75001
20
11.64172
11
0.63189
21
11.64172
0
LINE
5
146
100
AcDbEntity
8
vector
6
ByLayer
62
3
370
-1
100
AcDbLine
10
0.63189
20
11.64172
11
0.63189
21
11.14172
0
LINE
5
147
100
AcDbEntity
8
vector
6
ByLayer
62
3
370
-1
100
AcDbLine
10
0.63189
20
11.14172
11
0.75001
21
11.14172
0
LINE
5
148
100
AcDbEntity
8
vector
6
ByLayer
62
3
370
-1
100
AcDbLine
10
0.75001
20
11.14172
11
0.75001
21
10.67322
0
LINE
5
149
100
AcDbEntity
8
vector
6
ByLayer
62
3
370
-1
100
AcDbLine
10
1.82001
20
10.67322
11
2.60001
21
10.67322
0
LINE
5
14A
100
AcDbEntity
8
vector
6
ByLayer
62
3
370
-1
100
AcDbLine
10
2.60001
20
10.67322
11
2.60001
21
10.55511
0
LINE
5
14B
100
AcDbEntity
8
vector
6
ByLayer
62
3
370
-1
100
AcDbLine
10
2.60001
20
10.55511
11
3.35001
21
10.55511
0
LINE
5
14C
100
AcDbEntity
8
vector
6
ByLayer
62
3
370
-1
100
AcDbLine
10
3.35001
20
10.55511
11
3.35001
21
10.67322
0
LINE
5
14D
100
AcDbEntity
8
vector
6
ByLayer
62
3
370
-1
100
AcDbLine
10
3.35001
20
12.11021
11
3.35001
21
12.22833
0
LINE
5
14E
100
AcDbEntity
8
vector
6
ByLayer
62
3
370
-1
100
AcDbLine
10
3.35001
20
12.22833
11
2.60001
21
12.22833
0
LINE
5
14F
100
AcDbEntity
8
vector
6
ByLayer
62
3
370
-1
100
AcDbLine
10
2.60001
20
12.22833
11
2.60001
21
12.11021
0
LINE
5
150
100
AcDbEntity
8
vector
6
ByLayer
62
3
370
-1
100
AcDbLine
10
2.60001
20
12.11021
11
1.82001
21
12.11021
0
LINE
5
151
100
AcDbEntity
8
vector
6
ByLayer
62
3
370
-1
100
AcDbLine
10
1.82001
20
12.11021
11
1.82001
21
12.22833
0
LINE
5
152
100
AcDbEntity
8
vector
6
ByLayer
62
3
370
-1
100
AcDbLine
10
1.82001
20
12.22833
11
1.07001
21
12.22833
0
LINE
5
153
100
AcDbEntity
8
vector
6
ByLayer
62
3
370
-1
100
AcDbLine
10
1.07001
20
12.22833
11
1.07001
21
12.11021
0
LINE
5
154
100
AcDbEntity
8
vector
6
ByLayer
62
3
370
-1
100
AcDbLine
10
1.07001
20
10.67322
11
1.07001
21
10.55511
0
LINE
5
155
100
AcDbEntity
8
vector
6
ByLayer
62
3
370
-1
100
AcDbLine
10
1.07001
20
10.55511
11
1.82001
21
10.55511
0
LINE
5
156
100
AcDbEntity
8
vector
6
ByLayer
62
3
370
-1
100
AcDbLine
10
1.82001
20
10.55511
11
1.82001
21
10.67322
0
LINE
5
157
100
AcDbEntity
8
vector
6
ByLayer
62
256
370
-1
100
AcDbLine
10
0.75001
20
12.11021
11
1.07001
21
12.11021
0
LINE
5
158
100
AcDbEntity
8
vector
6
ByLayer
62
256
370
-1
100
AcDbLine
10
0.75001
20
10.67322
11
1.07001
21
10.67322
0
LINE
5
159
100
AcDbEntity
8
vector
6
ByLayer
62
3
370
-1
100
AcDbLine
10
9.35472
20
0.76377
11
9.85472
21
0.76377
0
LINE
5
15A
100
AcDbEntity
8
vector
6
ByLayer
62
3
370
-1
100
AcDbLine
10
9.85472
20
0.76377
11
9.85472
21
0.64565
0
LINE
5
15B
100
AcDbEntity
8
vector
6
ByLayer
62
3
370
-1
100
AcDbLine
10
9.85472
20
0.64565
11
10.32322
21
0.64565
0
LINE
5
15C
100
AcDbEntity
8
vector
6
ByLayer
62
3
370
-1
100
AcDbLine
10
10.32322
20
0.64565
11
10.32322
21
1.22971
0
LINE
5
15D
100
AcDbEntity
8
vector
6
ByLayer
62
3
370
-1
100
AcDbLine
10
10.32322
20
1.22971
11
10.44133
21
1.22971
0
LINE
5
15E
100
AcDbEntity
8
vector
6
ByLayer
62
3
370
-1
100
AcDbLine
10
10.44133
20
1.22971
11
10.44133
21
1.979715
0
LINE
5
15F
100
AcDbEntity
8
vector
6
ByLayer
62
3
370
-1
100
AcDbLine
10
10.44133
20
1.979715
11
10.32322
21
1.979715
0
LINE
5
160
100
AcDbEntity
8
vector
6
ByLayer
62
3
370
-1
100
AcDbLine
10
10.32322
20
1.979715
11
10.32322
21
3.147805
0
LINE
5
161
100
AcDbEntity
8
vector
6
ByLayer
62
3
370
-1
100
AcDbLine
10
10.32322
20
3.147805
11
10.44133
21
3.147805
0
LINE
5
162
100
AcDbEntity
8
vector
6
ByLayer
62
3
370
-1
100
AcDbLine
10
10.44133
20
3.147805
11
10.44133
21
3.89781
0
LINE
5
163
100
AcDbEntity
8
vector
6
ByLayer
62
3
370
-1
100
AcDbLine
10
10.44133
20
3.89781
11
10.32322
21
3.89781
0
LINE
5
164
100
AcDbEntity
8
vector
6
ByLayer
62
3
370
-1
100
AcDbLine
10
10.32322
20
3.89781
11
10.32322
21
4.48187
0
LINE
5
165
100
AcDbEntity
8
vector
6
ByLayer
62
3
370
-1
100
AcDbLine
10
10.32322
20
4.48187
11
9.85472
21
4.48187
0
LINE
5
166
100
AcDbEntity
8
vector
6
ByLayer
62
3
370
-1
100
AcDbLine
10
9.85472
20
4.48187
11
9.85472
21
4.36375
0
LINE
5
167
100
AcDbEntity
8
vector
6
ByLayer
62
3
370
-1
100
AcDbLine
10
9.85472
20
4.36375
11
9.35472
21
4.36375
0
LINE
5
168
100
AcDbEntity
8
vector
6
ByLayer
62
3
370
-1
100
AcDbLine
10
9.35472
20
4.36375
11
9.35472
21
4.48187
0
LINE
5
169
100
AcDbEntity
8
vector
6
ByLayer
62
3
370
-1
100
AcDbLine
10
9.35472
20
4.48187
11
8.88623
21
4.48187
0
LINE
5
16A
100
AcDbEntity
8
vector
6
ByLayer
62
3
370
-1
100
AcDbLine
10
8.88623
20
4.48187
11
8.88623
21
3.89781
0
LINE
5
16B
100
AcDbEntity
8
vector
6
ByLayer
62
3
370
-1
100
AcDbLine
10
8.88623
20
3.89781
11
8.76811
21
3.89781
0
LINE
5
16C
100
AcDbEntity
8
vector
6
ByLayer
62
3
370
-1
100
AcDbLine
10
8.76811
20
3.89781
11
8.76811
21
3.147805
0
LINE
5
16D
100
AcDbEntity
8
vector
6
ByLayer
62
3
370
-1
100
AcDbLine
10
8.76811
20
3.147805
11
8.88623
21
3.147805
0
LINE
5
16E
100
AcDbEntity
8
vector
6
ByLayer
62
3
370
-1
100
AcDbLine
10
8.88623
20
3.147805
11
8.88623
21
1.979715
0
LINE
5
16F
100
AcDbEntity
8
vector
6
ByLayer
62
3
370
-1
100
AcDbLine
10
8.88623
20
1.979715
11
8.76811
21
1.979715
0
LINE
5
170
100
AcDbEntity
8
vector
6
ByLayer
62
3
370
-1
100
AcDbLine
10
8.76811
20
1.979715
11
8.76811
21
1.22971
0
LINE
5
171
100
AcDbEntity
8
vector
6
ByLayer
62
3
370
-1
100
AcDbLine
10
8.76811
20
1.22971
11
8.88623
21
1.22971
0
LINE
5
172
100
AcDbEntity
8
vector
6
ByLayer
62
3
370
-1
100
AcDbLine
10
8.88623
20
1.22971
11
8.88623
21
0.64565
0
LINE
5
173
100
AcDbEntity
8
vector
6
ByLayer
62
3
370
-1
100
AcDbLine
10
8.88623
20
0.64565
11
9.35472
21
0.64565
0
LINE
5
174
100
AcDbEntity
8
vector
6
ByLayer
62
3
370
-1
100
AcDbLine
10
9.35472
20
0.64565
11
9.35472
21
0.76377
0
ARC
5
175
100
AcDbEntity
8
vector
6
ByLayer
62
256
370
-1
100
AcDbCircle
10
9.74823
20
2.43386
40
0.05
100
AcDbArc
50
90
51
180
0
LINE
5
176
100
AcDbEntity
8
vector
6
ByLayer
62
256
370
-1
100
AcDbLine
10
9.74823
20
2.48386
11
10.09823
21
2.48386
0
ARC
5
177
100
AcDbEntity
8
vector
6
ByLayer
62
256
370
-1
100
AcDbCircle
10
10.09823
20
2.43386
40
0.05
100
AcDbArc
50
0
51
90
0
LINE
5
178
100
AcDbEntity
8
vector
6
ByLayer
62
256
370
-1
100
AcDbLine
10
10.14823
20
2.43386
11
10.14823
21
2.03386
0
ARC
5
179
100
AcDbEntity
8
vector
6
ByLayer
62
256
370
-1
100
AcDbCircle
10
10.09823
20
2.03386
40
0.05
100
AcDbArc
50
270
51
0
0
LINE
5
17A
100
AcDbEntity
8
vector
6
ByLayer
62
256
370
-1
100
AcDbLine
10
10.09823
20
1.98386
11
9.74823
21
1.98386
0
LINE
5
17B
100
AcDbEntity
8
vector
6
ByLayer
62
256
370
-1
100
AcDbLine
10
9.69823
20
2.03386
11
9.69823
21
2.43386
0
ARC
5
17C
100
AcDbEntity
8
vector
6
ByLayer
62
256
370
-1
100
AcDbCircle
10
9.74823
20
2.03386
40
0.05
100
AcDbArc
50
180
51
270
0
LINE
5
17D
100
AcDbEntity
8
vector
6
ByLayer
62
3
370
-1
100
AcDbLine
10
9.35472
20
4.90001
11
9.85472
21
4.90001
0
LINE
5
17E
100
AcDbEntity
8
vector
6
ByLayer
62
3
370
-1
100
AcDbLine
10
9.85472
20
4.90001
11
9.85472
21
4.78189
0
LINE
5
17F
100
AcDbEntity
8
vector
6
ByLayer
62
3
370
-1
100
AcDbLine
10
9.85472
20
4.78189
11
10.32321
21
4.78189
0
LINE
5
180
100
AcDbEntity
8
vector
6
ByLayer
62
3
370
-1
100
AcDbLine
10
10.32321
20
4.78189
11
10.32321
21
5.36595
0
LINE
5
181
100
AcDbEntity
8
vector
6
ByLayer
62
3
370
-1
100
AcDbLine
10
10.32321
20
5.36595
11
10.44133
21
5.36595
0
LINE
5
182
100
AcDbEntity
8
vector
6
ByLayer
62
3
370
-1
100
AcDbLine
10
10.44133
20
5.36595
11
10.44133
21
6.115955
0
LINE
5
183
100
AcDbEntity
8
vector
6
ByLayer
62
3
370
-1
100
AcDbLine
10
10.44133
20
6.115955
11
10.32321
21
6.115955
0
LINE
5
184
100
AcDbEntity
8
vector
6
ByLayer
62
3
370
-1
100
AcDbLine
10
10.32321
20
6.115955
11
10.32321
21
7.284045
0
LINE
5
185
100
AcDbEntity
8
vector
6
ByLayer
62
3
370
-1
100
AcDbLine
10
10.32321
20
7.284045
11
10.44133
21
7.284045
0
LINE
5
186
100
AcDbEntity
8
vector
6
ByLayer
62
3
370
-1
100
AcDbLine
10
10.44133
20
7.284045
11
10.44133
21
8.03405
0
LINE
5
187
100
AcDbEntity
8
vector
6
ByLayer
62
3
370
-1
100
AcDbLine
10
10.44133
20
8.03405
11
10.32321
21
8.03405
0
LINE
5
188
100
AcDbEntity
8
vector
6
ByLayer
62
3
370
-1
100
AcDbLine
10
10.32321
20
8.03405
11
10.32321
21
8.61811
0
LINE
5
189
100
AcDbEntity
8
vector
6
ByLayer
62
3
370
-1
100
AcDbLine
10
10.32321
20
8.61811
11
9.85472
21
8.61811
0
LINE
5
18A
100
AcDbEntity
8
vector
6
ByLayer
62
3
370
-1
100
AcDbLine
10
9.85472
20
8.61811
11
9.85472
21
8.49999
0
LINE
5
18B
100
AcDbEntity
8
vector
6
ByLayer
62
3
370
-1
100
AcDbLine
10
9.85472
20
8.49999
11
9.35472
21
8.49999
0
LINE
5
18C
100
AcDbEntity
8
vector
6
ByLayer
62
3
370
-1
100
AcDbLine
10
9.35472
20
8.49999
11
9.35472
21
8.61811
0
LINE
5
18D
100
AcDbEntity
8
vector
6
ByLayer
62
3
370
-1
100
AcDbLine
10
9.35472
20
8.61811
11
8.88622
21
8.61811
0
LINE
5
18E
100
AcDbEntity
8
vector
6
ByLayer
62
3
370
-1
100
AcDbLine
10
8.88622
20
8.61811
11
8.88622
21
8.03405
0
LINE
5
18F
100
AcDbEntity
8
vector
6
ByLayer
62
3
370
-1
100
AcDbLine
10
8.88622
20
8.03405
11
8.76811
21
8.03405
0
LINE
5
190
100
AcDbEntity
8
vector
6
ByLayer
62
3
370
-1
100
AcDbLine
10
8.76811
20
8.03405
11
8.76811
21
7.284045
0
LINE
5
191
100
AcDbEntity
8
vector
6
ByLayer
62
3
370
-1
100
AcDbLine
10
8.76811
20
7.284045
11
8.88622
21
7.284045
0
LINE
5
192
100
AcDbEntity
8
vector
6
ByLayer
62
3
370
-1
100
AcDbLine
10
8.88622
20
7.284045
11
8.88622
21
6.115955
0
LINE
5
193
100
AcDbEntity
8
vector
6
ByLayer
62
3
370
-1
100
AcDbLine
10
8.88622
20
6.115955
11
8.76811
21
6.115955
0
LINE
5
194
100
AcDbEntity
8
vector
6
ByLayer
62
3
370
-1
100
AcDbLine
10
8.76811
20
6.115955
11
8.76811
21
5.36595
0
LINE
5
195
100
AcDbEntity
8
vector
6
ByLayer
62
3
370
-1
100
AcDbLine
10
8.76811
20
5.36595
11
8.88622
21
5.36595
0
LINE
5
196
100
AcDbEntity
8
vector
6
ByLayer
62
3
370
-1
100
AcDbLine
10
8.88622
20
5.36595
11
8.88622
21
4.78189
0
LINE
5
197
100
AcDbEntity
8
vector
6
ByLayer
62
3
370
-1
100
AcDbLine
10
8.88622
20
4.78189
11
9.35472
21
4.78189
0
LINE
5
198
100
AcDbEntity
8
vector
6
ByLayer
62
3
370
-1
100
AcDbLine
10
9.35472
20
4.78189
11
9.35472
21
4.90001
0
LINE
5
199
100
AcDbEntity
8
vector
6
ByLayer
62
256
370
-1
100
AcDbLine
10
9.08321
20
6.70010005162
11
9.08321
21
7.37510005162
0
ARC
5
19A
100
AcDbEntity
8
vector
6
ByLayer
62
256
370
-1
100
AcDbCircle
10
9.13321
20
7.37510005162
40
0.05
100
AcDbArc
50
90
51
180
0
LINE
5
19B
100
AcDbEntity
8
vector
6
ByLayer
62
256
370
-1
100
AcDbLine
10
9.13321
20
7.42510005162
11
10.02321
21
7.42510005162
0
ARC
5
19C
100
AcDbEntity
8
vector
6
ByLayer
62
256
370
-1
100
AcDbCircle
10
10.02321
20
7.37510005162
40
0.05
100
AcDbArc
50
3.81666561776e-13
51
90
0
LINE
5
19D
100
AcDbEntity
8
vector
6
ByLayer
62
256
370
-1
100
AcDbLine
10
9.08321
20
6.70010005162
11
9.08321
21
6.02510005162
0
ARC
5
19E
100
AcDbEntity
8
vector
6
ByLayer
62
256
370
-1
100
AcDbCircle
10
9.13321
20
6.02510005162
40
0.05
100
AcDbArc
50
180
51
270
0
LINE
5
19F
100
AcDbEntity
8
vector
6
ByLayer
62
256
370
-1
100
AcDbLine
10
9.13321
20
5.97510005162
11
10.02321
21
5.97510005162
0
LINE
5
1A0
100
AcDbEntity
8
vector
6
ByLayer
62
256
370
-1
100
AcDbLine
10
10.07321
20
6.70010005162
11
10.07321
21
6.02510005162
0
ARC
5
1A1
100
AcDbEntity
8
vector
6
ByLayer
62
256
370
-1
100
AcDbCircle
10
10.02321
20
6.02510005162
40
0.05
100
AcDbArc
50
270
51
0
0
LINE
5
1A2
100
AcDbEntity
8
vector
6
ByLayer
62
256
370
-1
100
AcDbLine
10
10.07321
20
7.37510005162
11
10.07321
21
6.70010005162
0
LINE
5
1A3
100
AcDbEntity
8
material
6
ByLayer
62
256
370
-1
100
AcDbLine
10
0
20
0
11
24
21
0
0
LINE
5
1A4
100
AcDbEntity
8
material
6
ByLayer
62
256
370
-1
100
AcDbLine
10
24
20
0
11
24
21
24
0
LINE
5
1A5
100
AcDbEntity
8
material
6
ByLayer
62
256
370
-1
100
AcDbLine
10
24
20
24
11
0
21
24
0
LINE
5
1A6
100
AcDbEntity
8
material
6
ByLayer
62
256
370
-1
100
AcDbLine
10
0
20
24
11
0
21
0
0
LINE
5
1A7
100
AcDbEntity
8
lasercutter
6
ByLayer
62
256
370
-1
100
AcDbLine
10
0
20
0
11
35
21
0
0
LINE
5
1A8
100
AcDbEntity
8
lasercutter
6
ByLayer
62
256
370
-1
100
AcDbLine
10
35
20
0
11
35
21
23
0
LINE
5
1A9
100
AcDbEntity
8
lasercutter
6
ByLayer
62
256
370
-1
100
AcDbLine
10
35
20
23
11
0
21
23
0
LINE
5
1AA
100
AcDbEntity
8
lasercutter
6
ByLayer
62
256
370
-1
100
AcDbLine
10
0
20
23
11
0
21
0
0
LINE
5
1AB
100
AcDbEntity
8
vector
6
ByLayer
62
3
370
-1
100
AcDbLine
10
17.555
20
8.6
11
17.555
21
8.71811
0
LINE
5
1AC
100
AcDbEntity
8
vector
6
ByLayer
62
3
370
-1
100
AcDbLine
10
17.555
20
8.71811
11
18.305
21
8.71811
0
LINE
5
1AD
100
AcDbEntity
8
vector
6
ByLayer
62
3
370
-1
100
AcDbLine
10
18.305
20
8.71811
11
18.305
21
8.6
0
LINE
5
1AE
100
AcDbEntity
8
vector
6
ByLayer
62
3
370
-1
100
AcDbLine
10
18.305
20
8.6
11
17.555
21
8.6
0
LINE
5
1AF
100
AcDbEntity
8
vector
6
ByLayer
62
3
370
-1
100
AcDbLine
10
16.025
20
8.6
11
16.025
21
8.71811
0
LINE
5
1B0
100
AcDbEntity
8
vector
6
ByLayer
62
3
370
-1
100
AcDbLine
10
16.025
20
8.71811
11
16.775
21
8.71811
0
LINE
5
1B1
100
AcDbEntity
8
vector
6
ByLayer
62
3
370
-1
100
AcDbLine
10
16.775
20
8.71811
11
16.775
21
8.6
0
LINE
5
1B2
100
AcDbEntity
8
vector
6
ByLayer
62
3
370
-1
100
AcDbLine
10
16.775
20
8.6
11
16.025
21
8.6
0
LINE
5
1B3
100
AcDbEntity
8
vector
6
ByLayer
62
3
370
-1
100
AcDbLine
10
14.495
20
8.6
11
14.495
21
8.71811
0
LINE
5
1B4
100
AcDbEntity
8
vector
6
ByLayer
62
3
370
-1
100
AcDbLine
10
14.495
20
8.71811
11
15.245
21
8.71811
0
LINE
5
1B5
100
AcDbEntity
8
vector
6
ByLayer
62
3
370
-1
100
AcDbLine
10
15.245
20
8.71811
11
15.245
21
8.6
0
LINE
5
1B6
100
AcDbEntity
8
vector
6
ByLayer
62
3
370
-1
100
AcDbLine
10
15.245
20
8.6
11
14.495
21
8.6
0
LINE
5
1B7
100
AcDbEntity
8
vector
6
ByLayer
62
3
370
-1
100
AcDbLine
10
18.95
20
7.384045
11
18.95
21
8.13405
0
LINE
5
1B8
100
AcDbEntity
8
vector
6
ByLayer
62
3
370
-1
100
AcDbLine
10
18.95
20
8.13405
11
19.06811
21
8.13405
0
LINE
5
1B9
100
AcDbEntity
8
vector
6
ByLayer
62
3
370
-1
100
AcDbLine
10
19.06811
20
8.13405
11
19.06811
21
7.384045
0
LINE
5
1BA
100
AcDbEntity
8
vector
6
ByLayer
62
3
370
-1
100
AcDbLine
10
19.06811
20
7.384045
11
18.95
21
7.384045
0
LINE
5
1BB
100
AcDbEntity
8
vector
6
ByLayer
62
3
370
-1
100
AcDbLine
10
18.95
20
5.46595
11
18.95
21
6.215955
0
LINE
5
1BC
100
AcDbEntity
8
vector
6
ByLayer
62
3
370
-1
100
AcDbLine
10
18.95
20
6.215955
11
19.06811
21
6.215955
0
LINE
5
1BD
100
AcDbEntity
8
vector
6
ByLayer
62
3
370
-1
100
AcDbLine
10
19.06811
20
6.215955
11
19.06811
21
5.46595
0
LINE
5
1BE
100
AcDbEntity
8
vector
6
ByLayer
62
3
370
-1
100
AcDbLine
10
19.06811
20
5.46595
11
18.95
21
5.46595
0
LINE
5
1BF
100
AcDbEntity
8
vector
6
ByLayer
62
3
370
-1
100
AcDbLine
10
17.555
20
4.88189
11
17.555
21
5
0
LINE
5
1C0
100
AcDbEntity
8
vector
6
ByLayer
62
3
370
-1
100
AcDbLine
10
17.555
20
5
11
18.305
21
5
0
LINE
5
1C1
100
AcDbEntity
8
vector
6
ByLayer
62
3
370
-1
100
AcDbLine
10
18.305
20
5
11
18.305
21
4.88189
0
LINE
5
1C2
100
AcDbEntity
8
vector
6
ByLayer
62
3
370
-1
100
AcDbLine
10
18.305
20
4.88189
11
17.555
21
4.88189
0
LINE
5
1C3
100
AcDbEntity
8
vector
6
ByLayer
62
3
370
-1
100
AcDbLine
10
14.495
20
4.88189
11
14.495
21
5
0
LINE
5
1C4
100
AcDbEntity
8
vector
6
ByLayer
62
3
370
-1
100
AcDbLine
10
14.495
20
5
11
15.245
21
5
0
LINE
5
1C5
100
AcDbEntity
8
vector
6
ByLayer
62
3
370
-1
100
AcDbLine
10
15.245
20
5
11
15.245
21
4.88189
0
LINE
5
1C6
100
AcDbEntity
8
vector
6
ByLayer
62
3
370
-1
100
AcDbLine
10
15.245
20
4.88189
11
14.495
21
4.88189
0
LINE
5
1C7
100
AcDbEntity
8
vector
6
ByLayer
62
3
370
-1
100
AcDbLine
10
16.025
20
4.88189
11
16.025
21
5
0
LINE
5
1C8
100
AcDbEntity
8
vector
6
ByLayer
62
3
370
-1
100
AcDbLine
10
16.025
20
5
11
16.775
21
5
0
LINE
5
1C9
100
AcDbEntity
8
vector
6
ByLayer
62
3
370
-1
100
AcDbLine
10
16.775
20
5
11
16.775
21
4.88189
0
LINE
5
1CA
100
AcDbEntity
8
vector
6
ByLayer
62
3
370
-1
100
AcDbLine
10
16.775
20
4.88189
11
16.025
21
4.88189
0
CIRCLE
5
1CB
100
AcDbEntity
8
vector
6
ByLayer
62
256
370
-1
100
AcDbCircle
10
14.05
20
8.4001
40
0.058
0
CIRCLE
5
1CC
100
AcDbEntity
8
vector
6
ByLayer
62
256
370
-1
100
AcDbCircle
10
18.75
20
8.4001
40
0.058
0
CIRCLE
5
1CD
100
AcDbEntity
8
vector
6
ByLayer
62
256
370
-1
100
AcDbCircle
10
14.05
20
5.2001
40
0.058
0
CIRCLE
5
1CE
100
AcDbEntity
8
vector
6
ByLayer
62
256
370
-1
100
AcDbCircle
10
18.75
20
5.2001
40
0.058
0
CIRCLE
5
1CF
100
AcDbEntity
8
vector
6
ByLayer
62
256
370
-1
100
AcDbCircle
10
14.05
20
8.4001
40
0.058
0
CIRCLE
5
1D0
100
AcDbEntity
8
vector
6
ByLayer
62
256
370
-1
100
AcDbCircle
10
18.75
20
8.4001
40
0.058
0
CIRCLE
5
1D1
100
AcDbEntity
8
vector
6
ByLayer
62
256
370
-1
100
AcDbCircle
10
14.05
20
5.2001
40
0.058
0
CIRCLE
5
1D2
100
AcDbEntity
8
vector
6
ByLayer
62
256
370
-1
100
AcDbCircle
10
18.75
20
5.2001
40
0.058
0
CIRCLE
5
1D3
100
AcDbEntity
8
vector
6
ByLayer
62
256
370
-1
100
AcDbCircle
10
13.65
20
8.4001
40
0.058
0
CIRCLE
5
1D4
100
AcDbEntity
8
vector
6
ByLayer
62
256
370
-1
100
AcDbCircle
10
13.65
20
5.2001
40
0.058
0
CIRCLE
5
1D5
100
AcDbEntity
8
vector
6
ByLayer
62
256
370
-1
100
AcDbCircle
10
11.45
20
8.4001
40
0.058
0
CIRCLE
5
1D6
100
AcDbEntity
8
vector
6
ByLayer
62
256
370
-1
100
AcDbCircle
10
11.45
20
5.2001
40
0.058
0
LINE
5
1D7
100
AcDbEntity
8
vector
6
ByLayer
62
3
370
-1
100
AcDbLine
10
11.13189
20
7.384045
11
11.13189
21
8.13405
0
LINE
5
1D8
100
AcDbEntity
8
vector
6
ByLayer
62
3
370
-1
100
AcDbLine
10
11.13189
20
8.13405
11
11.25
21
8.13405
0
LINE
5
1D9
100
AcDbEntity
8
vector
6
ByLayer
62
3
370
-1
100
AcDbLine
10
11.25
20
8.13405
11
11.25
21
7.384045
0
LINE
5
1DA
100
AcDbEntity
8
vector
6
ByLayer
62
3
370
-1
100
AcDbLine
10
11.25
20
7.384045
11
11.13189
21
7.384045
0
LINE
5
1DB
100
AcDbEntity
8
vector
6
ByLayer
62
3
370
-1
100
AcDbLine
10
11.13189
20
5.46595
11
11.13189
21
6.215955
0
LINE
5
1DC
100
AcDbEntity
8
vector
6
ByLayer
62
3
370
-1
100
AcDbLine
10
11.13189
20
6.215955
11
11.25
21
6.215955
0
LINE
5
1DD
100
AcDbEntity
8
vector
6
ByLayer
62
3
370
-1
100
AcDbLine
10
11.25
20
6.215955
11
11.25
21
5.46595
0
LINE
5
1DE
100
AcDbEntity
8
vector
6
ByLayer
62
3
370
-1
100
AcDbLine
10
11.25
20
5.46595
11
11.13189
21
5.46595
0
LINE
5
1DF
100
AcDbEntity
8
vector
6
ByLayer
62
256
370
-1
100
AcDbLine
10
19.0181
20
8.8181
11
13.7819
21
8.8181
0
ARC
5
1E0
100
AcDbEntity
8
vector
6
ByLayer
62
256
370
-1
100
AcDbCircle
10
19.0181
20
8.6681
40
0.15
100
AcDbArc
50
0
51
90
0
LINE
5
1E1
100
AcDbEntity
8
vector
6
ByLayer
62
256
370
-1
100
AcDbLine
10
19.1681
20
4.9321
11
19.1681
21
8.6681
0
ARC
5
1E2
100
AcDbEntity
8
vector
6
ByLayer
62
256
370
-1
100
AcDbCircle
10
19.0181
20
4.9321
40
0.15
100
AcDbArc
50
270
51
0
0
LINE
5
1E3
100
AcDbEntity
8
vector
6
ByLayer
62
256
370
-1
100
AcDbLine
10
13.7819
20
4.7821
11
19.0181
21
4.7821
0
ARC
5
1E4
100
AcDbEntity
8
vector
6
ByLayer
62
256
370
-1
100
AcDbCircle
10
11.1819
20
8.66810005162
40
0.15
100
AcDbArc
50
90
51
180
0
LINE
5
1E5
100
AcDbEntity
8
vector
6
ByLayer
62
256
370
-1
100
AcDbLine
10
11.0319
20
8.66810005162
11
11.0319
21
4.93210005162
0
ARC
5
1E6
100
AcDbEntity
8
vector
6
ByLayer
62
256
370
-1
100
AcDbCircle
10
11.1819
20
4.93210005162
40
0.15
100
AcDbArc
50
180
51
270
0
LINE
5
1E7
100
AcDbEntity
8
vector
6
ByLayer
62
256
370
-1
100
AcDbLine
10
11.1819
20
8.81810005162
11
13.7819
21
8.8181
0
LINE
5
1E8
100
AcDbEntity
8
vector
6
ByLayer
62
256
370
-1
100
AcDbLine
10
11.1819
20
4.78210005162
11
13.7819
21
4.7821
0
LINE
5
1E9
100
AcDbEntity
8
vector
6
ByLayer
62
3
370
-1
100
AcDbLine
10
13.10001
20
8.6
11
13.10001
21
8.71811
0
LINE
5
1EA
100
AcDbEntity
8
vector
6
ByLayer
62
3
370
-1
100
AcDbLine
10
13.10001
20
8.71811
11
13.85001
21
8.71811
0
LINE
5
1EB
100
AcDbEntity
8
vector
6
ByLayer
62
3
370
-1
100
AcDbLine
10
13.85001
20
8.71811
11
13.85001
21
8.6
0
LINE
5
1EC
100
AcDbEntity
8
vector
6
ByLayer
62
3
370
-1
100
AcDbLine
10
13.85001
20
8.6
11
13.10001
21
8.6
0
LINE
5
1ED
100
AcDbEntity
8
vector
6
ByLayer
62
3
370
-1
100
AcDbLine
10
11.57001
20
8.6
11
11.57001
21
8.71811
0
LINE
5
1EE
100
AcDbEntity
8
vector
6
ByLayer
62
3
370
-1
100
AcDbLine
10
11.57001
20
8.71811
11
12.32001
21
8.71811
0
LINE
5
1EF
100
AcDbEntity
8
vector
6
ByLayer
62
3
370
-1
100
AcDbLine
10
12.32001
20
8.71811
11
12.32001
21
8.6
0
LINE
5
1F0
100
AcDbEntity
8
vector
6
ByLayer
62
3
370
-1
100
AcDbLine
10
12.32001
20
8.6
11
11.57001
21
8.6
0
LINE
5
1F1
100
AcDbEntity
8
vector
6
ByLayer
62
3
370
-1
100
AcDbLine
10
11.57001
20
4.88189
11
11.57001
21
5
0
LINE
5
1F2
100
AcDbEntity
8
vector
6
ByLayer
62
3
370
-1
100
AcDbLine
10
11.57001
20
5
11
12.32001
21
5
0
LINE
5
1F3
100
AcDbEntity
8
vector
6
ByLayer
62
3
370
-1
100
AcDbLine
10
12.32001
20
5
11
12.32001
21
4.88189
0
LINE
5
1F4
100
AcDbEntity
8
vector
6
ByLayer
62
3
370
-1
100
AcDbLine
10
12.32001
20
4.88189
11
11.57001
21
4.88189
0
LINE
5
1F5
100
AcDbEntity
8
vector
6
ByLayer
62
3
370
-1
100
AcDbLine
10
13.10001
20
4.88189
11
13.10001
21
5
0
LINE
5
1F6
100
AcDbEntity
8
vector
6
ByLayer
62
3
370
-1
100
AcDbLine
10
13.10001
20
5
11
13.85001
21
5
0
LINE
5
1F7
100
AcDbEntity
8
vector
6
ByLayer
62
3
370
-1
100
AcDbLine
10
13.85001
20
5
11
13.85001
21
4.88189
0
LINE
5
1F8
100
AcDbEntity
8
vector
6
ByLayer
62
3
370
-1
100
AcDbLine
10
13.85001
20
4.88189
11
13.10001
21
4.88189
0
LINE
5
1F9
100
AcDbEntity
8
vector
6
ByLayer
62
3
370
-1
100
AcDbLine
10
16.025
20
4.46377
11
16.025
21
4.58189
0
LINE
5
1FA
100
AcDbEntity
8
vector
6
ByLayer
62
3
370
-1
100
AcDbLine
10
16.025
20
4.58189
11
16.775
21
4.58189
0
LINE
5
1FB
100
AcDbEntity
8
vector
6
ByLayer
62
3
370
-1
100
AcDbLine
10
16.775
20
4.58189
11
16.775
21
4.46377
0
LINE
5
1FC
100
AcDbEntity
8
vector
6
ByLayer
62
3
370
-1
100
AcDbLine
10
16.775
20
4.46377
11
16.025
21
4.46377
0
LINE
5
1FD
100
AcDbEntity
8
vector
6
ByLayer
62
3
370
-1
100
AcDbLine
10
14.495
20
4.46377
11
14.495
21
4.58189
0
LINE
5
1FE
100
AcDbEntity
8
vector
6
ByLayer
62
3
370
-1
100
AcDbLine
10
14.495
20
4.58189
11
15.245
21
4.58189
0
LINE
5
1FF
100
AcDbEntity
8
vector
6
ByLayer
62
3
370
-1
100
AcDbLine
10
15.245
20
4.58189
11
15.245
21
4.46377
0
LINE
5
200
100
AcDbEntity
8
vector
6
ByLayer
62
3
370
-1
100
AcDbLine
10
15.245
20
4.46377
11
14.495
21
4.46377
0
LINE
5
201
100
AcDbEntity
8
vector
6
ByLayer
62
3
370
-1
100
AcDbLine
10
17.555
20
4.46377
11
17.555
21
4.58189
0
LINE
5
202
100
AcDbEntity
8
vector
6
ByLayer
62
3
370
-1
100
AcDbLine
10
17.555
20
4.58189
11
18.305
21
4.58189
0
LINE
5
203
100
AcDbEntity
8
vector
6
ByLayer
62
3
370
-1
100
AcDbLine
10
18.305
20
4.58189
11
18.305
21
4.46377
0
LINE
5
204
100
AcDbEntity
8
vector
6
ByLayer
62
3
370
-1
100
AcDbLine
10
18.305
20
4.46377
11
17.555
21
4.46377
0
LINE
5
205
100
AcDbEntity
8
vector
6
ByLayer
62
3
370
-1
100
AcDbLine
10
18.95
20
3.24783
11
18.95
21
3.99783
0
LINE
5
206
100
AcDbEntity
8
vector
6
ByLayer
62
3
370
-1
100
AcDbLine
10
18.95
20
3.99783
11
19.06811
21
3.99783
0
LINE
5
207
100
AcDbEntity
8
vector
6
ByLayer
62
3
370
-1
100
AcDbLine
10
19.06811
20
3.99783
11
19.06811
21
3.24783
0
LINE
5
208
100
AcDbEntity
8
vector
6
ByLayer
62
3
370
-1
100
AcDbLine
10
19.06811
20
3.24783
11
18.95
21
3.24783
0
LINE
5
209
100
AcDbEntity
8
vector
6
ByLayer
62
3
370
-1
100
AcDbLine
10
18.95
20
1.32971
11
18.95
21
2.07971
0
LINE
5
20A
100
AcDbEntity
8
vector
6
ByLayer
62
3
370
-1
100
AcDbLine
10
18.95
20
2.07971
11
19.06811
21
2.07971
0
LINE
5
20B
100
AcDbEntity
8
vector
6
ByLayer
62
3
370
-1
100
AcDbLine
10
19.06811
20
2.07971
11
19.06811
21
1.32971
0
LINE
5
20C
100
AcDbEntity
8
vector
6
ByLayer
62
3
370
-1
100
AcDbLine
10
19.06811
20
1.32971
11
18.95
21
1.32971
0
LINE
5
20D
100
AcDbEntity
8
vector
6
ByLayer
62
3
370
-1
100
AcDbLine
10
14.495
20
0.74565
11
14.495
21
0.86376
0
LINE
5
20E
100
AcDbEntity
8
vector
6
ByLayer
62
3
370
-1
100
AcDbLine
10
14.495
20
0.86376
11
15.245
21
0.86376
0
LINE
5
20F
100
AcDbEntity
8
vector
6
ByLayer
62
3
370
-1
100
AcDbLine
10
15.245
20
0.86376
11
15.245
21
0.74565
0
LINE
5
210
100
AcDbEntity
8
vector
6
ByLayer
62
3
370
-1
100
AcDbLine
10
15.245
20
0.74565
11
14.495
21
0.74565
0
LINE
5
211
100
AcDbEntity
8
vector
6
ByLayer
62
3
370
-1
100
AcDbLine
10
17.555
20
0.74565
11
17.555
21
0.86376
0
LINE
5
212
100
AcDbEntity
8
vector
6
ByLayer
62
3
370
-1
100
AcDbLine
10
17.555
20
0.86376
11
18.305
21
0.86376
0
LINE
5
213
100
AcDbEntity
8
vector
6
ByLayer
62
3
370
-1
100
AcDbLine
10
18.305
20
0.86376
11
18.305
21
0.74565
0
LINE
5
214
100
AcDbEntity
8
vector
6
ByLayer
62
3
370
-1
100
AcDbLine
10
18.305
20
0.74565
11
17.555
21
0.74565
0
LINE
5
215
100
AcDbEntity
8
vector
6
ByLayer
62
3
370
-1
100
AcDbLine
10
16.025
20
0.74565
11
16.025
21
0.86376
0
LINE
5
216
100
AcDbEntity
8
vector
6
ByLayer
62
3
370
-1
100
AcDbLine
10
16.025
20
0.86376
11
16.775
21
0.86376
0
LINE
5
217
100
AcDbEntity
8
vector
6
ByLayer
62
3
370
-1
100
AcDbLine
10
16.775
20
0.86376
11
16.775
21
0.74565
0
LINE
5
218
100
AcDbEntity
8
vector
6
ByLayer
62
3
370
-1
100
AcDbLine
10
16.775
20
0.74565
11
16.025
21
0.74565
0
LINE
5
219
100
AcDbEntity
8
vector
6
ByLayer
62
3
370
-1
100
AcDbLine
10
19.0181
20
4.68188
11
13.7819
21
4.68188
0
ARC
5
21A
100
AcDbEntity
8
vector
6
ByLayer
62
3
370
-1
100
AcDbCircle
10
19.0181
20
4.53188
40
0.15
100
AcDbArc
50
3.30777686872e-13
51
90
0
LINE
5
21B
100
AcDbEntity
8
vector
6
ByLayer
62
3
370
-1
100
AcDbLine
10
13.7819
20
0.64585
11
19.0181
21
0.64585
0
LINE
5
21C
100
AcDbEntity
8
vector
6
ByLayer
62
3
370
-1
100
AcDbLine
10
19.1681
20
0.79585
11
19.1681
21
4.53188
0
ARC
5
21D
100
AcDbEntity
8
vector
6
ByLayer
62
3
370
-1
100
AcDbCircle
10
19.0181
20
0.79585
40
0.15
100
AcDbArc
50
270
51
0
0
CIRCLE
5
21E
100
AcDbEntity
8
vector
6
ByLayer
62
256
370
-1
100
AcDbCircle
10
14.05
20
4.263965
40
0.058
0
CIRCLE
5
21F
100
AcDbEntity
8
vector
6
ByLayer
62
256
370
-1
100
AcDbCircle
10
18.75
20
4.263965
40
0.058
0
CIRCLE
5
220
100
AcDbEntity
8
vector
6
ByLayer
62
256
370
-1
100
AcDbCircle
10
14.05
20
1.063965
40
0.058
0
CIRCLE
5
221
100
AcDbEntity
8
vector
6
ByLayer
62
256
370
-1
100
AcDbCircle
10
18.75
20
1.063965
40
0.058
0
LINE
5
222
100
AcDbEntity
8
vector
6
ByLayer
62
3
370
-1
100
AcDbLine
10
11.13189
20
3.24783
11
11.13189
21
3.99783
0
LINE
5
223
100
AcDbEntity
8
vector
6
ByLayer
62
3
370
-1
100
AcDbLine
10
11.13189
20
3.99783
11
11.25
21
3.99783
0
LINE
5
224
100
AcDbEntity
8
vector
6
ByLayer
62
3
370
-1
100
AcDbLine
10
11.25
20
3.99783
11
11.25
21
3.24783
0
LINE
5
225
100
AcDbEntity
8
vector
6
ByLayer
62
3
370
-1
100
AcDbLine
10
11.25
20
3.24783
11
11.13189
21
3.24783
0
LINE
5
226
100
AcDbEntity
8
vector
6
ByLayer
62
3
370
-1
100
AcDbLine
10
11.13189
20
1.32971
11
11.13189
21
2.07971
0
LINE
5
227
100
AcDbEntity
8
vector
6
ByLayer
62
3
370
-1
100
AcDbLine
10
11.13189
20
2.07971
11
11.25
21
2.07971
0
LINE
5
228
100
AcDbEntity
8
vector
6
ByLayer
62
3
370
-1
100
AcDbLine
10
11.25
20
2.07971
11
11.25
21
1.32971
0
LINE
5
229
100
AcDbEntity
8
vector
6
ByLayer
62
3
370
-1
100
AcDbLine
10
11.25
20
1.32971
11
11.13189
21
1.32971
0
ARC
5
22A
100
AcDbEntity
8
vector
6
ByLayer
62
3
370
-1
100
AcDbCircle
10
11.1819
20
4.53188
40
0.15
100
AcDbArc
50
90
51
180
0
LINE
5
22B
100
AcDbEntity
8
vector
6
ByLayer
62
3
370
-1
100
AcDbLine
10
11.0319
20
4.53188
11
11.0319
21
0.79585
0
ARC
5
22C
100
AcDbEntity
8
vector
6
ByLayer
62
3
370
-1
100
AcDbCircle
10
11.1819
20
0.79585
40
0.15
100
AcDbArc
50
180
51
270
0
LINE
5
22D
100
AcDbEntity
8
vector
6
ByLayer
62
3
370
-1
100
AcDbLine
10
13.10001
20
4.46377
11
13.10001
21
4.58189
0
LINE
5
22E
100
AcDbEntity
8
vector
6
ByLayer
62
3
370
-1
100
AcDbLine
10
13.10001
20
4.58189
11
13.85001
21
4.58189
0
LINE
5
22F
100
AcDbEntity
8
vector
6
ByLayer
62
3
370
-1
100
AcDbLine
10
13.85001
20
4.58189
11
13.85001
21
4.46377
0
LINE
5
230
100
AcDbEntity
8
vector
6
ByLayer
62
3
370
-1
100
AcDbLine
10
13.85001
20
4.46377
11
13.10001
21
4.46377
0
LINE
5
231
100
AcDbEntity
8
vector
6
ByLayer
62
3
370
-1
100
AcDbLine
10
11.57001
20
4.46377
11
11.57001
21
4.58189
0
LINE
5
232
100
AcDbEntity
8
vector
6
ByLayer
62
3
370
-1
100
AcDbLine
10
11.57001
20
4.58189
11
12.32001
21
4.58189
0
LINE
5
233
100
AcDbEntity
8
vector
6
ByLayer
62
3
370
-1
100
AcDbLine
10
12.32001
20
4.58189
11
12.32001
21
4.46377
0
LINE
5
234
100
AcDbEntity
8
vector
6
ByLayer
62
3
370
-1
100
AcDbLine
10
12.32001
20
4.46377
11
11.57001
21
4.46377
0
LINE
5
235
100
AcDbEntity
8
vector
6
ByLayer
62
3
370
-1
100
AcDbLine
10
11.57001
20
0.74565
11
11.57001
21
0.86376
0
LINE
5
236
100
AcDbEntity
8
vector
6
ByLayer
62
3
370
-1
100
AcDbLine
10
11.57001
20
0.86376
11
12.32001
21
0.86376
0
LINE
5
237
100
AcDbEntity
8
vector
6
ByLayer
62
3
370
-1
100
AcDbLine
10
12.32001
20
0.86376
11
12.32001
21
0.74565
0
LINE
5
238
100
AcDbEntity
8
vector
6
ByLayer
62
3
370
-1
100
AcDbLine
10
12.32001
20
0.74565
11
11.57001
21
0.74565
0
LINE
5
239
100
AcDbEntity
8
vector
6
ByLayer
62
3
370
-1
100
AcDbLine
10
13.10001
20
0.74565
11
13.10001
21
0.86376
0
LINE
5
23A
100
AcDbEntity
8
vector
6
ByLayer
62
3
370
-1
100
AcDbLine
10
13.10001
20
0.86376
11
13.85001
21
0.86376
0
LINE
5
23B
100
AcDbEntity
8
vector
6
ByLayer
62
3
370
-1
100
AcDbLine
10
13.85001
20
0.86376
11
13.85001
21
0.74565
0
LINE
5
23C
100
AcDbEntity
8
vector
6
ByLayer
62
3
370
-1
100
AcDbLine
10
13.85001
20
0.74565
11
13.10001
21
0.74565
0
LINE
5
23D
100
AcDbEntity
8
vector
6
ByLayer
62
256
370
-1
100
AcDbLine
10
11.1819
20
4.68188
11
13.7819
21
4.68188
0
LINE
5
23E
100
AcDbEntity
8
vector
6
ByLayer
62
256
370
-1
100
AcDbLine
10
11.1819
20
0.64585
11
13.7819
21
0.64585
0
CIRCLE
5
23F
100
AcDbEntity
8
vector
6
ByLayer
62
256
370
-1
100
AcDbCircle
10
13.65
20
4.263965
40
0.058
0
CIRCLE
5
240
100
AcDbEntity
8
vector
6
ByLayer
62
256
370
-1
100
AcDbCircle
10
13.65
20
1.063965
40
0.058
0
CIRCLE
5
241
100
AcDbEntity
8
vector
6
ByLayer
62
256
370
-1
100
AcDbCircle
10
11.45
20
4.263965
40
0.058
0
CIRCLE
5
242
100
AcDbEntity
8
vector
6
ByLayer
62
256
370
-1
100
AcDbCircle
10
11.45
20
1.063965
40
0.058
0
LINE
5
243
100
AcDbEntity
8
vector
6
ByLayer
62
3
370
-1
100
AcDbLine
10
15.245
20
9.03623
11
16.025
21
9.03623
0
LINE
5
244
100
AcDbEntity
8
vector
6
ByLayer
62
3
370
-1
100
AcDbLine
10
16.025
20
9.03623
11
16.025
21
8.91811
0
LINE
5
245
100
AcDbEntity
8
vector
6
ByLayer
62
3
370
-1
100
AcDbLine
10
16.025
20
8.91811
11
16.775
21
8.91811
0
LINE
5
246
100
AcDbEntity
8
vector
6
ByLayer
62
3
370
-1
100
AcDbLine
10
16.775
20
8.91811
11
16.775
21
9.03623
0
LINE
5
247
100
AcDbEntity
8
vector
6
ByLayer
62
3
370
-1
100
AcDbLine
10
16.775
20
9.03623
11
17.555
21
9.03623
0
LINE
5
248
100
AcDbEntity
8
vector
6
ByLayer
62
3
370
-1
100
AcDbLine
10
17.555
20
9.03623
11
17.555
21
8.91811
0
LINE
5
249
100
AcDbEntity
8
vector
6
ByLayer
62
3
370
-1
100
AcDbLine
10
17.555
20
8.91811
11
18.305
21
8.91811
0
LINE
5
24A
100
AcDbEntity
8
vector
6
ByLayer
62
3
370
-1
100
AcDbLine
10
18.305
20
8.91811
11
18.305
21
9.03623
0
LINE
5
24B
100
AcDbEntity
8
vector
6
ByLayer
62
3
370
-1
100
AcDbLine
10
18.305
20
9.03623
11
18.94999
21
9.03623
0
LINE
5
24C
100
AcDbEntity
8
vector
6
ByLayer
62
3
370
-1
100
AcDbLine
10
18.94999
20
9.03623
11
18.94999
21
9.50472
0
LINE
5
24D
100
AcDbEntity
8
vector
6
ByLayer
62
3
370
-1
100
AcDbLine
10
18.94999
20
9.50472
11
19.06811
21
9.50472
0
LINE
5
24E
100
AcDbEntity
8
vector
6
ByLayer
62
3
370
-1
100
AcDbLine
10
19.06811
20
9.50472
11
19.06811
21
10.00472
0
LINE
5
24F
100
AcDbEntity
8
vector
6
ByLayer
62
3
370
-1
100
AcDbLine
10
19.06811
20
10.00472
11
18.94999
21
10.00472
0
LINE
5
250
100
AcDbEntity
8
vector
6
ByLayer
62
3
370
-1
100
AcDbLine
10
18.94999
20
10.00472
11
18.94999
21
10.47322
0
LINE
5
251
100
AcDbEntity
8
vector
6
ByLayer
62
3
370
-1
100
AcDbLine
10
18.94999
20
10.47322
11
18.305
21
10.47322
0
LINE
5
252
100
AcDbEntity
8
vector
6
ByLayer
62
3
370
-1
100
AcDbLine
10
18.305
20
10.47322
11
18.305
21
10.59133
0
LINE
5
253
100
AcDbEntity
8
vector
6
ByLayer
62
3
370
-1
100
AcDbLine
10
18.305
20
10.59133
11
17.555
21
10.59133
0
LINE
5
254
100
AcDbEntity
8
vector
6
ByLayer
62
3
370
-1
100
AcDbLine
10
17.555
20
10.59133
11
17.555
21
10.47322
0
LINE
5
255
100
AcDbEntity
8
vector
6
ByLayer
62
3
370
-1
100
AcDbLine
10
17.555
20
10.47322
11
16.775
21
10.47322
0
LINE
5
256
100
AcDbEntity
8
vector
6
ByLayer
62
3
370
-1
100
AcDbLine
10
16.775
20
10.47322
11
16.775
21
10.59133
0
LINE
5
257
100
AcDbEntity
8
vector
6
ByLayer
62
3
370
-1
100
AcDbLine
10
16.775
20
10.59133
11
16.025
21
10.59133
0
LINE
5
258
100
AcDbEntity
8
vector
6
ByLayer
62
3
370
-1
100
AcDbLine
10
16.025
20
10.59133
11
16.025
21
10.47322
0
LINE
5
259
100
AcDbEntity
8
vector
6
ByLayer
62
3
370
-1
100
AcDbLine
10
16.025
20
10.47322
11
15.245
21
10.47322
0
LINE
5
25A
100
AcDbEntity
8
vector
6
ByLayer
62
3
370
-1
100
AcDbLine
10
15.245
20
10.47322
11
15.245
21
10.59133
0
LINE
5
25B
100
AcDbEntity
8
vector
6
ByLayer
62
3
370
-1
100
AcDbLine
10
15.245
20
10.59133
11
14.495
21
10.59133
0
LINE
5
25C
100
AcDbEntity
8
vector
6
ByLayer
62
3
370
-1
100
AcDbLine
10
14.495
20
10.59133
11
14.495
21
10.47322
0
LINE
5
25D
100
AcDbEntity
8
vector
6
ByLayer
62
3
370
-1
100
AcDbLine
10
14.495
20
10.47322
11
13.85001
21
10.47322
0
LINE
5
25E
100
AcDbEntity
8
vector
6
ByLayer
62
3
370
-1
100
AcDbLine
10
13.85001
20
9.03623
11
14.495
21
9.03623
0
LINE
5
25F
100
AcDbEntity
8
vector
6
ByLayer
62
3
370
-1
100
AcDbLine
10
14.495
20
9.03623
11
14.495
21
8.91811
0
LINE
5
260
100
AcDbEntity
8
vector
6
ByLayer
62
3
370
-1
100
AcDbLine
10
14.495
20
8.91811
11
15.245
21
8.91811
0
LINE
5
261
100
AcDbEntity
8
vector
6
ByLayer
62
3
370
-1
100
AcDbLine
10
15.245
20
8.91811
11
15.245
21
9.03623
0
ARC
5
262
100
AcDbEntity
8
vector
6
ByLayer
62
256
370
-1
100
AcDbCircle
10
16.725
20
10.12323
40
0.05
100
AcDbArc
50
90
51
180
0
LINE
5
263
100
AcDbEntity
8
vector
6
ByLayer
62
256
370
-1
100
AcDbLine
10
16.725
20
10.17323
11
17.375
21
10.17323
0
ARC
5
264
100
AcDbEntity
8
vector
6
ByLayer
62
256
370
-1
100
AcDbCircle
10
17.375
20
10.12323
40
0.05
100
AcDbArc
50
0
51
90
0
LINE
5
265
100
AcDbEntity
8
vector
6
ByLayer
62
256
370
-1
100
AcDbLine
10
17.425
20
10.12323
11
17.425
21
9.82323
0
ARC
5
266
100
AcDbEntity
8
vector
6
ByLayer
62
256
370
-1
100
AcDbCircle
10
17.375
20
9.82323
40
0.05
100
AcDbArc
50
270
51
0
0
LINE
5
267
100
AcDbEntity
8
vector
6
ByLayer
62
256
370
-1
100
AcDbLine
10
17.375
20
9.77323
11
16.725
21
9.77323
0
LINE
5
268
100
AcDbEntity
8
vector
6
ByLayer
62
256
370
-1
100
AcDbLine
10
16.675
20
9.82323
11
16.675
21
10.12323
0
ARC
5
269
100
AcDbEntity
8
vector
6
ByLayer
62
256
370
-1
100
AcDbCircle
10
16.725
20
9.82323
40
0.05
100
AcDbArc
50
180
51
270
0
ARC
5
26A
100
AcDbEntity
8
vector
6
ByLayer
62
256
370
-1
100
AcDbCircle
10
17.745
20
10.12323
40
0.05
100
AcDbArc
50
90
51
180
0
LINE
5
26B
100
AcDbEntity
8
vector
6
ByLayer
62
256
370
-1
100
AcDbLine
10
17.745
20
10.17323
11
18.395
21
10.17323
0
ARC
5
26C
100
AcDbEntity
8
vector
6
ByLayer
62
256
370
-1
100
AcDbCircle
10
18.395
20
10.12323
40
0.05
100
AcDbArc
50
0
51
90
0
LINE
5
26D
100
AcDbEntity
8
vector
6
ByLayer
62
256
370
-1
100
AcDbLine
10
18.445
20
10.12323
11
18.445
21
9.82323
0
ARC
5
26E
100
AcDbEntity
8
vector
6
ByLayer
62
256
370
-1
100
AcDbCircle
10
18.395
20
9.82323
40
0.05
100
AcDbArc
50
270
51
0
0
LINE
5
26F
100
AcDbEntity
8
vector
6
ByLayer
62
256
370
-1
100
AcDbLine
10
18.395
20
9.77323
11
17.745
21
9.77323
0
LINE
5
270
100
AcDbEntity
8
vector
6
ByLayer
62
256
370
-1
100
AcDbLine
10
17.695
20
9.82323
11
17.695
21
10.12323
0
ARC
5
271
100
AcDbEntity
8
vector
6
ByLayer
62
256
370
-1
100
AcDbCircle
10
17.745
20
9.82323
40
0.05
100
AcDbArc
50
180
51
270
0
LINE
5
272
100
AcDbEntity
8
vector
6
ByLayer
62
3
370
-1
100
AcDbLine
10
11.25001
20
10.47322
11
11.25001
21
10.00472
0
LINE
5
273
100
AcDbEntity
8
vector
6
ByLayer
62
3
370
-1
100
AcDbLine
10
11.25001
20
10.00472
11
11.13189
21
10.00472
0
LINE
5
274
100
AcDbEntity
8
vector
6
ByLayer
62
3
370
-1
100
AcDbLine
10
11.13189
20
10.00472
11
11.13189
21
9.50472
0
LINE
5
275
100
AcDbEntity
8
vector
6
ByLayer
62
3
370
-1
100
AcDbLine
10
11.13189
20
9.50472
11
11.25001
21
9.50472
0
LINE
5
276
100
AcDbEntity
8
vector
6
ByLayer
62
3
370
-1
100
AcDbLine
10
11.25001
20
9.50472
11
11.25001
21
9.03623
0
LINE
5
277
100
AcDbEntity
8
vector
6
ByLayer
62
3
370
-1
100
AcDbLine
10
12.32001
20
9.03623
11
13.10001
21
9.03623
0
LINE
5
278
100
AcDbEntity
8
vector
6
ByLayer
62
3
370
-1
100
AcDbLine
10
13.10001
20
9.03623
11
13.10001
21
8.91811
0
LINE
5
279
100
AcDbEntity
8
vector
6
ByLayer
62
3
370
-1
100
AcDbLine
10
13.10001
20
8.91811
11
13.85001
21
8.91811
0
LINE
5
27A
100
AcDbEntity
8
vector
6
ByLayer
62
3
370
-1
100
AcDbLine
10
13.85001
20
8.91811
11
13.85001
21
9.03623
0
LINE
5
27B
100
AcDbEntity
8
vector
6
ByLayer
62
3
370
-1
100
AcDbLine
10
13.85001
20
10.47322
11
13.85001
21
10.59133
0
LINE
5
27C
100
AcDbEntity
8
vector
6
ByLayer
62
3
370
-1
100
AcDbLine
10
13.85001
20
10.59133
11
13.10001
21
10.59133
0
LINE
5
27D
100
AcDbEntity
8
vector
6
ByLayer
62
3
370
-1
100
AcDbLine
10
13.10001
20
10.59133
11
13.10001
21
10.47322
0
LINE
5
27E
100
AcDbEntity
8
vector
6
ByLayer
62
3
370
-1
100
AcDbLine
10
13.10001
20
10.47322
11
12.32001
21
10.47322
0
LINE
5
27F
100
AcDbEntity
8
vector
6
ByLayer
62
3
370
-1
100
AcDbLine
10
12.32001
20
10.47322
11
12.32001
21
10.59133
0
LINE
5
280
100
AcDbEntity
8
vector
6
ByLayer
62
3
370
-1
100
AcDbLine
10
12.32001
20
10.59133
11
11.57001
21
10.59133
0
LINE
5
281
100
AcDbEntity
8
vector
6
ByLayer
62
3
370
-1
100
AcDbLine
10
11.57001
20
10.59133
11
11.57001
21
10.47322
0
LINE
5
282
100
AcDbEntity
8
vector
6
ByLayer
62
3
370
-1
100
AcDbLine
10
11.57001
20
9.03623
11
11.57001
21
8.91811
0
LINE
5
283
100
AcDbEntity
8
vector
6
ByLayer
62
3
370
-1
100
AcDbLine
10
11.57001
20
8.91811
11
12.32001
21
8.91811
0
LINE
5
284
100
AcDbEntity
8
vector
6
ByLayer
62
3
370
-1
100
AcDbLine
10
12.32001
20
8.91811
11
12.32001
21
9.03623
0
LINE
5
285
100
AcDbEntity
8
vector
6
ByLayer
62
256
370
-1
100
AcDbLine
10
11.25001
20
10.47322
11
11.57001
21
10.47322
0
LINE
5
286
100
AcDbEntity
8
vector
6
ByLayer
62
256
370
-1
100
AcDbLine
10
11.25001
20
9.03623
11
11.57001
21
9.03623
0
LINE
5
287
100
AcDbEntity
8
vector
6
ByLayer
62
3
370
-1
100
AcDbLine
10
15.245
20
10.77322
11
16.025
21
10.77322
0
LINE
5
288
100
AcDbEntity
8
vector
6
ByLayer
62
3
370
-1
100
AcDbLine
10
16.025
20
10.77322
11
16.025
21
10.65511
0
LINE
5
289
100
AcDbEntity
8
vector
6
ByLayer
62
3
370
-1
100
AcDbLine
10
16.025
20
10.65511
11
16.775
21
10.65511
0
LINE
5
28A
100
AcDbEntity
8
vector
6
ByLayer
62
3
370
-1
100
AcDbLine
10
16.775
20
10.65511
11
16.775
21
10.77322
0
LINE
5
28B
100
AcDbEntity
8
vector
6
ByLayer
62
3
370
-1
100
AcDbLine
10
16.775
20
10.77322
11
17.555
21
10.77322
0
LINE
5
28C
100
AcDbEntity
8
vector
6
ByLayer
62
3
370
-1
100
AcDbLine
10
17.555
20
10.77322
11
17.555
21
10.65511
0
LINE
5
28D
100
AcDbEntity
8
vector
6
ByLayer
62
3
370
-1
100
AcDbLine
10
17.555
20
10.65511
11
18.305
21
10.65511
0
LINE
5
28E
100
AcDbEntity
8
vector
6
ByLayer
62
3
370
-1
100
AcDbLine
10
18.305
20
10.65511
11
18.305
21
10.77322
0
LINE
5
28F
100
AcDbEntity
8
vector
6
ByLayer
62
3
370
-1
100
AcDbLine
10
18.305
20
10.77322
11
18.94999
21
10.77322
0
LINE
5
290
100
AcDbEntity
8
vector
6
ByLayer
62
3
370
-1
100
AcDbLine
10
18.94999
20
10.77322
11
18.94999
21
11.24172
0
LINE
5
291
100
AcDbEntity
8
vector
6
ByLayer
62
3
370
-1
100
AcDbLine
10
18.94999
20
11.24172
11
19.06811
21
11.24172
0
LINE
5
292
100
AcDbEntity
8
vector
6
ByLayer
62
3
370
-1
100
AcDbLine
10
19.06811
20
11.24172
11
19.06811
21
11.74172
0
LINE
5
293
100
AcDbEntity
8
vector
6
ByLayer
62
3
370
-1
100
AcDbLine
10
19.06811
20
11.74172
11
18.94999
21
11.74172
0
LINE
5
294
100
AcDbEntity
8
vector
6
ByLayer
62
3
370
-1
100
AcDbLine
10
18.94999
20
11.74172
11
18.94999
21
12.21021
0
LINE
5
295
100
AcDbEntity
8
vector
6
ByLayer
62
3
370
-1
100
AcDbLine
10
18.94999
20
12.21021
11
18.305
21
12.21021
0
LINE
5
296
100
AcDbEntity
8
vector
6
ByLayer
62
3
370
-1
100
AcDbLine
10
18.305
20
12.21021
11
18.305
21
12.32833
0
LINE
5
297
100
AcDbEntity
8
vector
6
ByLayer
62
3
370
-1
100
AcDbLine
10
18.305
20
12.32833
11
17.555
21
12.32833
0
LINE
5
298
100
AcDbEntity
8
vector
6
ByLayer
62
3
370
-1
100
AcDbLine
10
17.555
20
12.32833
11
17.555
21
12.21021
0
LINE
5
299
100
AcDbEntity
8
vector
6
ByLayer
62
3
370
-1
100
AcDbLine
10
17.555
20
12.21021
11
16.775
21
12.21021
0
LINE
5
29A
100
AcDbEntity
8
vector
6
ByLayer
62
3
370
-1
100
AcDbLine
10
16.775
20
12.21021
11
16.775
21
12.32833
0
LINE
5
29B
100
AcDbEntity
8
vector
6
ByLayer
62
3
370
-1
100
AcDbLine
10
16.775
20
12.32833
11
16.025
21
12.32833
0
LINE
5
29C
100
AcDbEntity
8
vector
6
ByLayer
62
3
370
-1
100
AcDbLine
10
16.025
20
12.32833
11
16.025
21
12.21021
0
LINE
5
29D
100
AcDbEntity
8
vector
6
ByLayer
62
3
370
-1
100
AcDbLine
10
16.025
20
12.21021
11
15.245
21
12.21021
0
LINE
5
29E
100
AcDbEntity
8
vector
6
ByLayer
62
3
370
-1
100
AcDbLine
10
15.245
20
12.21021
11
15.245
21
12.32833
0
LINE
5
29F
100
AcDbEntity
8
vector
6
ByLayer
62
3
370
-1
100
AcDbLine
10
15.245
20
12.32833
11
14.495
21
12.32833
0
LINE
5
2A0
100
AcDbEntity
8
vector
6
ByLayer
62
3
370
-1
100
AcDbLine
10
14.495
20
12.32833
11
14.495
21
12.21021
0
LINE
5
2A1
100
AcDbEntity
8
vector
6
ByLayer
62
3
370
-1
100
AcDbLine
10
14.495
20
12.21021
11
13.85001
21
12.21021
0
LINE
5
2A2
100
AcDbEntity
8
vector
6
ByLayer
62
3
370
-1
100
AcDbLine
10
13.85001
20
10.77322
11
14.495
21
10.77322
0
LINE
5
2A3
100
AcDbEntity
8
vector
6
ByLayer
62
3
370
-1
100
AcDbLine
10
14.495
20
10.77322
11
14.495
21
10.65511
0
LINE
5
2A4
100
AcDbEntity
8
vector
6
ByLayer
62
3
370
-1
100
AcDbLine
10
14.495
20
10.65511
11
15.245
21
10.65511
0
LINE
5
2A5
100
AcDbEntity
8
vector
6
ByLayer
62
3
370
-1
100
AcDbLine
10
15.245
20
10.65511
11
15.245
21
10.77322
0
LINE
5
2A6
100
AcDbEntity
8
vector
6
ByLayer
62
3
370
-1
100
AcDbLine
10
11.25001
20
12.21021
11
11.25001
21
11.74172
0
LINE
5
2A7
100
AcDbEntity
8
vector
6
ByLayer
62
3
370
-1
100
AcDbLine
10
11.25001
20
11.74172
11
11.13189
21
11.74172
0
LINE
5
2A8
100
AcDbEntity
8
vector
6
ByLayer
62
3
370
-1
100
AcDbLine
10
11.13189
20
11.74172
11
11.13189
21
11.24172
0
LINE
5
2A9
100
AcDbEntity
8
vector
6
ByLayer
62
3
370
-1
100
AcDbLine
10
11.13189
20
11.24172
11
11.25001
21
11.24172
0
LINE
5
2AA
100
AcDbEntity
8
vector
6
ByLayer
62
3
370
-1
100
AcDbLine
10
11.25001
20
11.24172
11
11.25001
21
10.77322
0
LINE
5
2AB
100
AcDbEntity
8
vector
6
ByLayer
62
3
370
-1
100
AcDbLine
10
12.32001
20
10.77322
11
13.10001
21
10.77322
0
LINE
5
2AC
100
AcDbEntity
8
vector
6
ByLayer
62
3
370
-1
100
AcDbLine
10
13.10001
20
10.77322
11
13.10001
21
10.65511
0
LINE
5
2AD
100
AcDbEntity
8
vector
6
ByLayer
62
3
370
-1
100
AcDbLine
10
13.10001
20
10.65511
11
13.85001
21
10.65511
0
LINE
5
2AE
100
AcDbEntity
8
vector
6
ByLayer
62
3
370
-1
100
AcDbLine
10
13.85001
20
10.65511
11
13.85001
21
10.77322
0
LINE
5
2AF
100
AcDbEntity
8
vector
6
ByLayer
62
3
370
-1
100
AcDbLine
10
13.85001
20
12.21021
11
13.85001
21
12.32833
0
LINE
5
2B0
100
AcDbEntity
8
vector
6
ByLayer
62
3
370
-1
100
AcDbLine
10
13.85001
20
12.32833
11
13.10001
21
12.32833
0
LINE
5
2B1
100
AcDbEntity
8
vector
6
ByLayer
62
3
370
-1
100
AcDbLine
10
13.10001
20
12.32833
11
13.10001
21
12.21021
0
LINE
5
2B2
100
AcDbEntity
8
vector
6
ByLayer
62
3
370
-1
100
AcDbLine
10
13.10001
20
12.21021
11
12.32001
21
12.21021
0
LINE
5
2B3
100
AcDbEntity
8
vector
6
ByLayer
62
3
370
-1
100
AcDbLine
10
12.32001
20
12.21021
11
12.32001
21
12.32833
0
LINE
5
2B4
100
AcDbEntity
8
vector
6
ByLayer
62
3
370
-1
100
AcDbLine
10
12.32001
20
12.32833
11
11.57001
21
12.32833
0
LINE
5
2B5
100
AcDbEntity
8
vector
6
ByLayer
62
3
370
-1
100
AcDbLine
10
11.57001
20
12.32833
11
11.57001
21
12.21021
0
LINE
5
2B6
100
AcDbEntity
8
vector
6
ByLayer
62
3
370
-1
100
AcDbLine
10
11.57001
20
10.77322
11
11.57001
21
10.65511
0
LINE
5
2B7
100
AcDbEntity
8
vector
6
ByLayer
62
3
370
-1
100
AcDbLine
10
11.57001
20
10.65511
11
12.32001
21
10.65511
0
LINE
5
2B8
100
AcDbEntity
8
vector
6
ByLayer
62
3
370
-1
100
AcDbLine
10
12.32001
20
10.65511
11
12.32001
21
10.77322
0
LINE
5
2B9
100
AcDbEntity
8
vector
6
ByLayer
62
256
370
-1
100
AcDbLine
10
11.25001
20
12.21021
11
11.57001
21
12.21021
0
LINE
5
2BA
100
AcDbEntity
8
vector
6
ByLayer
62
256
370
-1
100
AcDbLine
10
11.25001
20
10.77322
11
11.57001
21
10.77322
0
LINE
5
2BB
100
AcDbEntity
8
vector
6
ByLayer
62
3
370
-1
100
AcDbLine
10
19.85472
20
0.86377
11
20.35472
21
0.86377
0
LINE
5
2BC
100
AcDbEntity
8
vector
6
ByLayer
62
3
370
-1
100
AcDbLine
10
20.35472
20
0.86377
11
20.35472
21
0.74565
0
LINE
5
2BD
100
AcDbEntity
8
vector
6
ByLayer
62
3
370
-1
100
AcDbLine
10
20.35472
20
0.74565
11
20.82322
21
0.74565
0
LINE
5
2BE
100
AcDbEntity
8
vector
6
ByLayer
62
3
370
-1
100
AcDbLine
10
20.82322
20
0.74565
11
20.82322
21
1.32971
0
LINE
5
2BF
100
AcDbEntity
8
vector
6
ByLayer
62
3
370
-1
100
AcDbLine
10
20.82322
20
1.32971
11
20.94133
21
1.32971
0
LINE
5
2C0
100
AcDbEntity
8
vector
6
ByLayer
62
3
370
-1
100
AcDbLine
10
20.94133
20
1.32971
11
20.94133
21
2.079715
0
LINE
5
2C1
100
AcDbEntity
8
vector
6
ByLayer
62
3
370
-1
100
AcDbLine
10
20.94133
20
2.079715
11
20.82322
21
2.079715
0
LINE
5
2C2
100
AcDbEntity
8
vector
6
ByLayer
62
3
370
-1
100
AcDbLine
10
20.82322
20
2.079715
11
20.82322
21
3.247805
0
LINE
5
2C3
100
AcDbEntity
8
vector
6
ByLayer
62
3
370
-1
100
AcDbLine
10
20.82322
20
3.247805
11
20.94133
21
3.247805
0
LINE
5
2C4
100
AcDbEntity
8
vector
6
ByLayer
62
3
370
-1
100
AcDbLine
10
20.94133
20
3.247805
11
20.94133
21
3.99781
0
LINE
5
2C5
100
AcDbEntity
8
vector
6
ByLayer
62
3
370
-1
100
AcDbLine
10
20.94133
20
3.99781
11
20.82322
21
3.99781
0
LINE
5
2C6
100
AcDbEntity
8
vector
6
ByLayer
62
3
370
-1
100
AcDbLine
10
20.82322
20
3.99781
11
20.82322
21
4.58187
0
LINE
5
2C7
100
AcDbEntity
8
vector
6
ByLayer
62
3
370
-1
100
AcDbLine
10
20.82322
20
4.58187
11
20.35472
21
4.58187
0
LINE
5
2C8
100
AcDbEntity
8
vector
6
ByLayer
62
3
370
-1
100
AcDbLine
10
20.35472
20
4.58187
11
20.35472
21
4.46375
0
LINE
5
2C9
100
AcDbEntity
8
vector
6
ByLayer
62
3
370
-1
100
AcDbLine
10
20.35472
20
4.46375
11
19.85472
21
4.46375
0
LINE
5
2CA
100
AcDbEntity
8
vector
6
ByLayer
62
3
370
-1
100
AcDbLine
10
19.85472
20
4.46375
11
19.85472
21
4.58187
0
LINE
5
2CB
100
AcDbEntity
8
vector
6
ByLayer
62
3
370
-1
100
AcDbLine
10
19.85472
20
4.58187
11
19.38623
21
4.58187
0
LINE
5
2CC
100
AcDbEntity
8
vector
6
ByLayer
62
3
370
-1
100
AcDbLine
10
19.38623
20
4.58187
11
19.38623
21
3.99781
0
LINE
5
2CD
100
AcDbEntity
8
vector
6
ByLayer
62
3
370
-1
100
AcDbLine
10
19.38623
20
3.99781
11
19.26811
21
3.99781
0
LINE
5
2CE
100
AcDbEntity
8
vector
6
ByLayer
62
3
370
-1
100
AcDbLine
10
19.26811
20
3.99781
11
19.26811
21
3.247805
0
LINE
5
2CF
100
AcDbEntity
8
vector
6
ByLayer
62
3
370
-1
100
AcDbLine
10
19.26811
20
3.247805
11
19.38623
21
3.247805
0
LINE
5
2D0
100
AcDbEntity
8
vector
6
ByLayer
62
3
370
-1
100
AcDbLine
10
19.38623
20
3.247805
11
19.38623
21
2.079715
0
LINE
5
2D1
100
AcDbEntity
8
vector
6
ByLayer
62
3
370
-1
100
AcDbLine
10
19.38623
20
2.079715
11
19.26811
21
2.079715
0
LINE
5
2D2
100
AcDbEntity
8
vector
6
ByLayer
62
3
370
-1
100
AcDbLine
10
19.26811
20
2.079715
11
19.26811
21
1.32971
0
LINE
5
2D3
100
AcDbEntity
8
vector
6
ByLayer
62
3
370
-1
100
AcDbLine
10
19.26811
20
1.32971
11
19.38623
21
1.32971
0
LINE
5
2D4
100
AcDbEntity
8
vector
6
ByLayer
62
3
370
-1
100
AcDbLine
10
19.38623
20
1.32971
11
19.38623
21
0.74565
0
LINE
5
2D5
100
AcDbEntity
8
vector
6
ByLayer
62
3
370
-1
100
AcDbLine
10
19.38623
20
0.74565
11
19.85472
21
0.74565
0
LINE
5
2D6
100
AcDbEntity
8
vector
6
ByLayer
62
3
370
-1
100
AcDbLine
10
19.85472
20
0.74565
11
19.85472
21
0.86377
0
ARC
5
2D7
100
AcDbEntity
8
vector
6
ByLayer
62
256
370
-1
100
AcDbCircle
10
20.24823
20
2.53386
40
0.05
100
AcDbArc
50
90
51
180
0
LINE
5
2D8
100
AcDbEntity
8
vector
6
ByLayer
62
256
370
-1
100
AcDbLine
10
20.24823
20
2.58386
11
20.59823
21
2.58386
0
ARC
5
2D9
100
AcDbEntity
8
vector
6
ByLayer
62
256
370
-1
100
AcDbCircle
10
20.59823
20
2.53386
40
0.05
100
AcDbArc
50
0
51
90
0
LINE
5
2DA
100
AcDbEntity
8
vector
6
ByLayer
62
256
370
-1
100
AcDbLine
10
20.64823
20
2.53386
11
20.64823
21
2.13386
0
ARC
5
2DB
100
AcDbEntity
8
vector
6
ByLayer
62
256
370
-1
100
AcDbCircle
10
20.59823
20
2.13386
40
0.05
100
AcDbArc
50
270
51
0
0
LINE
5
2DC
100
AcDbEntity
8
vector
6
ByLayer
62
256
370
-1
100
AcDbLine
10
20.59823
20
2.08386
11
20.24823
21
2.08386
0
LINE
5
2DD
100
AcDbEntity
8
vector
6
ByLayer
62
256
370
-1
100
AcDbLine
10
20.19823
20
2.13386
11
20.19823
21
2.53386
0
ARC
5
2DE
100
AcDbEntity
8
vector
6
ByLayer
62
256
370
-1
100
AcDbCircle
10
20.24823
20
2.13386
40
0.05
100
AcDbArc
50
180
51
270
0
LINE
5
2DF
100
AcDbEntity
8
vector
6
ByLayer
62
3
370
-1
100
AcDbLine
10
19.85472
20
5.00001
11
20.35472
21
5.00001
0
LINE
5
2E0
100
AcDbEntity
8
vector
6
ByLayer
62
3
370
-1
100
AcDbLine
10
20.35472
20
5.00001
11
20.35472
21
4.88189
0
LINE
5
2E1
100
AcDbEntity
8
vector
6
ByLayer
62
3
370
-1
100
AcDbLine
10
20.35472
20
4.88189
11
20.82321
21
4.88189
0
LINE
5
2E2
100
AcDbEntity
8
vector
6
ByLayer
62
3
370
-1
100
AcDbLine
10
20.82321
20
4.88189
11
20.82321
21
5.46595
0
LINE
5
2E3
100
AcDbEntity
8
vector
6
ByLayer
62
3
370
-1
100
AcDbLine
10
20.82321
20
5.46595
11
20.94133
21
5.46595
0
LINE
5
2E4
100
AcDbEntity
8
vector
6
ByLayer
62
3
370
-1
100
AcDbLine
10
20.94133
20
5.46595
11
20.94133
21
6.215955
0
LINE
5
2E5
100
AcDbEntity
8
vector
6
ByLayer
62
3
370
-1
100
AcDbLine
10
20.94133
20
6.215955
11
20.82321
21
6.215955
0
LINE
5
2E6
100
AcDbEntity
8
vector
6
ByLayer
62
3
370
-1
100
AcDbLine
10
20.82321
20
6.215955
11
20.82321
21
7.384045
0
LINE
5
2E7
100
AcDbEntity
8
vector
6
ByLayer
62
3
370
-1
100
AcDbLine
10
20.82321
20
7.384045
11
20.94133
21
7.384045
0
LINE
5
2E8
100
AcDbEntity
8
vector
6
ByLayer
62
3
370
-1
100
AcDbLine
10
20.94133
20
7.384045
11
20.94133
21
8.13405
0
LINE
5
2E9
100
AcDbEntity
8
vector
6
ByLayer
62
3
370
-1
100
AcDbLine
10
20.94133
20
8.13405
11
20.82321
21
8.13405
0
LINE
5
2EA
100
AcDbEntity
8
vector
6
ByLayer
62
3
370
-1
100
AcDbLine
10
20.82321
20
8.13405
11
20.82321
21
8.71811
0
LINE
5
2EB
100
AcDbEntity
8
vector
6
ByLayer
62
3
370
-1
100
AcDbLine
10
20.82321
20
8.71811
11
20.35472
21
8.71811
0
LINE
5
2EC
100
AcDbEntity
8
vector
6
ByLayer
62
3
370
-1
100
AcDbLine
10
20.35472
20
8.71811
11
20.35472
21
8.59999
0
LINE
5
2ED
100
AcDbEntity
8
vector
6
ByLayer
62
3
370
-1
100
AcDbLine
10
20.35472
20
8.59999
11
19.85472
21
8.59999
0
LINE
5
2EE
100
AcDbEntity
8
vector
6
ByLayer
62
3
370
-1
100
AcDbLine
10
19.85472
20
8.59999
11
19.85472
21
8.71811
0
LINE
5
2EF
100
AcDbEntity
8
vector
6
ByLayer
62
3
370
-1
100
AcDbLine
10
19.85472
20
8.71811
11
19.38622
21
8.71811
0
LINE
5
2F0
100
AcDbEntity
8
vector
6
ByLayer
62
3
370
-1
100
AcDbLine
10
19.38622
20
8.71811
11
19.38622
21
8.13405
0
LINE
5
2F1
100
AcDbEntity
8
vector
6
ByLayer
62
3
370
-1
100
AcDbLine
10
19.38622
20
8.13405
11
19.26811
21
8.13405
0
LINE
5
2F2
100
AcDbEntity
8
vector
6
ByLayer
62
3
370
-1
100
AcDbLine
10
19.26811
20
8.13405
11
19.26811
21
7.384045
0
LINE
5
2F3
100
AcDbEntity
8
vector
6
ByLayer
62
3
370
-1
100
AcDbLine
10
19.26811
20
7.384045
11
19.38622
21
7.384045
0
LINE
5
2F4
100
AcDbEntity
8
vector
6
ByLayer
62
3
370
-1
100
AcDbLine
10
19.38622
20
7.384045
11
19.38622
21
6.215955
0
LINE
5
2F5
100
AcDbEntity
8
vector
6
ByLayer
62
3
370
-1
100
AcDbLine
10
19.38622
20
6.215955
11
19.26811
21
6.215955
0
LINE
5
2F6
100
AcDbEntity
8
vector
6
ByLayer
62
3
370
-1
100
AcDbLine
10
19.26811
20
6.215955
11
19.26811
21
5.46595
0
LINE
5
2F7
100
AcDbEntity
8
vector
6
ByLayer
62
3
370
-1
100
AcDbLine
10
19.26811
20
5.46595
11
19.38622
21
5.46595
0
LINE
5
2F8
100
AcDbEntity
8
vector
6
ByLayer
62
3
370
-1
100
AcDbLine
10
19.38622
20
5.46595
11
19.38622
21
4.88189
0
LINE
5
2F9
100
AcDbEntity
8
vector
6
ByLayer
62
3
370
-1
100
AcDbLine
10
19.38622
20
4.88189
11
19.85472
21
4.88189
0
LINE
5
2FA
100
AcDbEntity
8
vector
6
ByLayer
62
3
370
-1
100
AcDbLine
10
19.85472
20
4.88189
11
19.85472
21
5.00001
0
LINE
5
2FB
100
AcDbEntity
8
vector
6
ByLayer
62
256
370
-1
100
AcDbLine
10
19.58321
20
6.80010005162
11
19.58321
21
7.47510005162
0
ARC
5
2FC
100
AcDbEntity
8
vector
6
ByLayer
62
256
370
-1
100
AcDbCircle
10
19.63321
20
7.47510005162
40
0.05
100
AcDbArc
50
90
51
180
0
LINE
5
2FD
100
AcDbEntity
8
vector
6
ByLayer
62
256
370
-1
100
AcDbLine
10
19.63321
20
7.52510005162
11
20.52321
21
7.52510005162
0
ARC
5
2FE
100
AcDbEntity
8
vector
6
ByLayer
62
256
370
-1
100
AcDbCircle
10
20.52321
20
7.47510005162
40
0.05
100
AcDbArc
50
3.81666561776e-13
51
90
0
LINE
5
2FF
100
AcDbEntity
8
vector
6
ByLayer
62
256
370
-1
100
AcDbLine
10
19.58321
20
6.80010005162
11
19.58321
21
6.12510005162
0
ARC
5
300
100
AcDbEntity
8
vector
6
ByLayer
62
256
370
-1
100
AcDbCircle
10
19.63321
20
6.12510005162
40
0.05
100
AcDbArc
50
180
51
270
0
LINE
5
301
100
AcDbEntity
8
vector
6
ByLayer
62
256
370
-1
100
AcDbLine
10
19.63321
20
6.07510005162
11
20.52321
21
6.07510005162
0
LINE
5
302
100
AcDbEntity
8
vector
6
ByLayer
62
256
370
-1
100
AcDbLine
10
20.57321
20
6.80010005162
11
20.57321
21
6.12510005162
0
ARC
5
303
100
AcDbEntity
8
vector
6
ByLayer
62
256
370
-1
100
AcDbCircle
10
20.52321
20
6.12510005162
40
0.05
100
AcDbArc
50
270
51
0
0
LINE
5
304
100
AcDbEntity
8
vector
6
ByLayer
62
256
370
-1
100
AcDbLine
10
20.57321
20
7.47510005162
11
20.57321
21
6.80010005162
0
LINE
5
305
100
AcDbEntity
8
vector
6
ByLayer
62
3
370
-1
100
AcDbLine
10
7.155
20
20.7
11
7.155
21
20.81811
0
LINE
5
306
100
AcDbEntity
8
vector
6
ByLayer
62
3
370
-1
100
AcDbLine
10
7.155
20
20.81811
11
7.905
21
20.81811
0
LINE
5
307
100
AcDbEntity
8
vector
6
ByLayer
62
3
370
-1
100
AcDbLine
10
7.905
20
20.81811
11
7.905
21
20.7
0
LINE
5
308
100
AcDbEntity
8
vector
6
ByLayer
62
3
370
-1
100
AcDbLine
10
7.905
20
20.7
11
7.155
21
20.7
0
LINE
5
309
100
AcDbEntity
8
vector
6
ByLayer
62
3
370
-1
100
AcDbLine
10
5.625
20
20.7
11
5.625
21
20.81811
0
LINE
5
30A
100
AcDbEntity
8
vector
6
ByLayer
62
3
370
-1
100
AcDbLine
10
5.625
20
20.81811
11
6.375
21
20.81811
0
LINE
5
30B
100
AcDbEntity
8
vector
6
ByLayer
62
3
370
-1
100
AcDbLine
10
6.375
20
20.81811
11
6.375
21
20.7
0
LINE
5
30C
100
AcDbEntity
8
vector
6
ByLayer
62
3
370
-1
100
AcDbLine
10
6.375
20
20.7
11
5.625
21
20.7
0
LINE
5
30D
100
AcDbEntity
8
vector
6
ByLayer
62
3
370
-1
100
AcDbLine
10
4.095
20
20.7
11
4.095
21
20.81811
0
LINE
5
30E
100
AcDbEntity
8
vector
6
ByLayer
62
3
370
-1
100
AcDbLine
10
4.095
20
20.81811
11
4.845
21
20.81811
0
LINE
5
30F
100
AcDbEntity
8
vector
6
ByLayer
62
3
370
-1
100
AcDbLine
10
4.845
20
20.81811
11
4.845
21
20.7
0
LINE
5
310
100
AcDbEntity
8
vector
6
ByLayer
62
3
370
-1
100
AcDbLine
10
4.845
20
20.7
11
4.095
21
20.7
0
LINE
5
311
100
AcDbEntity
8
vector
6
ByLayer
62
3
370
-1
100
AcDbLine
10
8.55
20
19.484045
11
8.55
21
20.23405
0
LINE
5
312
100
AcDbEntity
8
vector
6
ByLayer
62
3
370
-1
100
AcDbLine
10
8.55
20
20.23405
11
8.66811
21
20.23405
0
LINE
5
313
100
AcDbEntity
8
vector
6
ByLayer
62
3
370
-1
100
AcDbLine
10
8.66811
20
20.23405
11
8.66811
21
19.484045
0
LINE
5
314
100
AcDbEntity
8
vector
6
ByLayer
62
3
370
-1
100
AcDbLine
10
8.66811
20
19.484045
11
8.55
21
19.484045
0
LINE
5
315
100
AcDbEntity
8
vector
6
ByLayer
62
3
370
-1
100
AcDbLine
10
8.55
20
17.56595
11
8.55
21
18.315955
0
LINE
5
316
100
AcDbEntity
8
vector
6
ByLayer
62
3
370
-1
100
AcDbLine
10
8.55
20
18.315955
11
8.66811
21
18.315955
0
LINE
5
317
100
AcDbEntity
8
vector
6
ByLayer
62
3
370
-1
100
AcDbLine
10
8.66811
20
18.315955
11
8.66811
21
17.56595
0
LINE
5
318
100
AcDbEntity
8
vector
6
ByLayer
62
3
370
-1
100
AcDbLine
10
8.66811
20
17.56595
11
8.55
21
17.56595
0
LINE
5
319
100
AcDbEntity
8
vector
6
ByLayer
62
3
370
-1
100
AcDbLine
10
7.155
20
16.98189
11
7.155
21
17.1
0
LINE
5
31A
100
AcDbEntity
8
vector
6
ByLayer
62
3
370
-1
100
AcDbLine
10
7.155
20
17.1
11
7.905
21
17.1
0
LINE
5
31B
100
AcDbEntity
8
vector
6
ByLayer
62
3
370
-1
100
AcDbLine
10
7.905
20
17.1
11
7.905
21
16.98189
0
LINE
5
31C
100
AcDbEntity
8
vector
6
ByLayer
62
3
370
-1
100
AcDbLine
10
7.905
20
16.98189
11
7.155
21
16.98189
0
LINE
5
31D
100
AcDbEntity
8
vector
6
ByLayer
62
3
370
-1
100
AcDbLine
10
4.095
20
16.98189
11
4.095
21
17.1
0
LINE
5
31E
100
AcDbEntity
8
vector
6
ByLayer
62
3
370
-1
100
AcDbLine
10
4.095
20
17.1
11
4.845
21
17.1
0
LINE
5
31F
100
AcDbEntity
8
vector
6
ByLayer
62
3
370
-1
100
AcDbLine
10
4.845
20
17.1
11
4.845
21
16.98189
0
LINE
5
320
100
AcDbEntity
8
vector
6
ByLayer
62
3
370
-1
100
AcDbLine
10
4.845
20
16.98189
11
4.095
21
16.98189
0
LINE
5
321
100
AcDbEntity
8
vector
6
ByLayer
62
3
370
-1
100
AcDbLine
10
5.625
20
16.98189
11
5.625
21
17.1
0
LINE
5
322
100
AcDbEntity
8
vector
6
ByLayer
62
3
370
-1
100
AcDbLine
10
5.625
20
17.1
11
6.375
21
17.1
0
LINE
5
323
100
AcDbEntity
8
vector
6
ByLayer
62
3
370
-1
100
AcDbLine
10
6.375
20
17.1
11
6.375
21
16.98189
0
LINE
5
324
100
AcDbEntity
8
vector
6
ByLayer
62
3
370
-1
100
AcDbLine
10
6.375
20
16.98189
11
5.625
21
16.98189
0
CIRCLE
5
325
100
AcDbEntity
8
vector
6
ByLayer
62
256
370
-1
100
AcDbCircle
10
3.65
20
20.5001
40
0.058
0
CIRCLE
5
326
100
AcDbEntity
8
vector
6
ByLayer
62
256
370
-1
100
AcDbCircle
10
8.35
20
20.5001
40
0.058
0
CIRCLE
5
327
100
AcDbEntity
8
vector
6
ByLayer
62
256
370
-1
100
AcDbCircle
10
3.65
20
17.3001
40
0.058
0
CIRCLE
5
328
100
AcDbEntity
8
vector
6
ByLayer
62
256
370
-1
100
AcDbCircle
10
8.35
20
17.3001
40
0.058
0
CIRCLE
5
329
100
AcDbEntity
8
vector
6
ByLayer
62
256
370
-1
100
AcDbCircle
10
3.65
20
20.5001
40
0.058
0
CIRCLE
5
32A
100
AcDbEntity
8
vector
6
ByLayer
62
256
370
-1
100
AcDbCircle
10
8.35
20
20.5001
40
0.058
0
CIRCLE
5
32B
100
AcDbEntity
8
vector
6
ByLayer
62
256
370
-1
100
AcDbCircle
10
3.65
20
17.3001
40
0.058
0
CIRCLE
5
32C
100
AcDbEntity
8
vector
6
ByLayer
62
256
370
-1
100
AcDbCircle
10
8.35
20
17.3001
40
0.058
0
CIRCLE
5
32D
100
AcDbEntity
8
vector
6
ByLayer
62
256
370
-1
100
AcDbCircle
10
3.25
20
20.5001
40
0.058
0
CIRCLE
5
32E
100
AcDbEntity
8
vector
6
ByLayer
62
256
370
-1
100
AcDbCircle
10
3.25
20
17.3001
40
0.058
0
CIRCLE
5
32F
100
AcDbEntity
8
vector
6
ByLayer
62
256
370
-1
100
AcDbCircle
10
1.05
20
20.5001
40
0.058
0
CIRCLE
5
330
100
AcDbEntity
8
vector
6
ByLayer
62
256
370
-1
100
AcDbCircle
10
1.05
20
17.3001
40
0.058
0
LINE
5
331
100
AcDbEntity
8
vector
6
ByLayer
62
3
370
-1
100
AcDbLine
10
0.73189
20
19.484045
11
0.73189
21
20.23405
0
LINE
5
332
100
AcDbEntity
8
vector
6
ByLayer
62
3
370
-1
100
AcDbLine
10
0.73189
20
20.23405
11
0.85
21
20.23405
0
LINE
5
333
100
AcDbEntity
8
vector
6
ByLayer
62
3
370
-1
100
AcDbLine
10
0.85
20
20.23405
11
0.85
21
19.484045
0
LINE
5
334
100
AcDbEntity
8
vector
6
ByLayer
62
3
370
-1
100
AcDbLine
10
0.85
20
19.484045
11
0.73189
21
19.484045
0
LINE
5
335
100
AcDbEntity
8
vector
6
ByLayer
62
3
370
-1
100
AcDbLine
10
0.73189
20
17.56595
11
0.73189
21
18.315955
0
LINE
5
336
100
AcDbEntity
8
vector
6
ByLayer
62
3
370
-1
100
AcDbLine
10
0.73189
20
18.315955
11
0.85
21
18.315955
0
LINE
5
337
100
AcDbEntity
8
vector
6
ByLayer
62
3
370
-1
100
AcDbLine
10
0.85
20
18.315955
11
0.85
21
17.56595
0
LINE
5
338
100
AcDbEntity
8
vector
6
ByLayer
62
3
370
-1
100
AcDbLine
10
0.85
20
17.56595
11
0.73189
21
17.56595
0
LINE
5
339
100
AcDbEntity
8
vector
6
ByLayer
62
256
370
-1
100
AcDbLine
10
8.6181
20
20.9181
11
3.3819
21
20.9181
0
ARC
5
33A
100
AcDbEntity
8
vector
6
ByLayer
62
256
370
-1
100
AcDbCircle
10
8.6181
20
20.7681
40
0.15
100
AcDbArc
50
0
51
90
0
LINE
5
33B
100
AcDbEntity
8
vector
6
ByLayer
62
256
370
-1
100
AcDbLine
10
8.7681
20
17.0321
11
8.7681
21
20.7681
0
ARC
5
33C
100
AcDbEntity
8
vector
6
ByLayer
62
256
370
-1
100
AcDbCircle
10
8.6181
20
17.0321
40
0.15
100
AcDbArc
50
270
51
0
0
LINE
5
33D
100
AcDbEntity
8
vector
6
ByLayer
62
256
370
-1
100
AcDbLine
10
3.3819
20
16.8821
11
8.6181
21
16.8821
0
ARC
5
33E
100
AcDbEntity
8
vector
6
ByLayer
62
256
370
-1
100
AcDbCircle
10
0.7819
20
20.7681000516
40
0.15
100
AcDbArc
50
90
51
180
0
LINE
5
33F
100
AcDbEntity
8
vector
6
ByLayer
62
256
370
-1
100
AcDbLine
10
0.6319
20
20.7681000516
11
0.6319
21
17.0321000516
0
ARC
5
340
100
AcDbEntity
8
vector
6
ByLayer
62
256
370
-1
100
AcDbCircle
10
0.7819
20
17.0321000516
40
0.15
100
AcDbArc
50
180
51
270
0
LINE
5
341
100
AcDbEntity
8
vector
6
ByLayer
62
256
370
-1
100
AcDbLine
10
0.7819
20
20.9181000516
11
3.3819
21
20.9181
0
LINE
5
342
100
AcDbEntity
8
vector
6
ByLayer
62
256
370
-1
100
AcDbLine
10
0.7819
20
16.8821000516
11
3.3819
21
16.8821
0
LINE
5
343
100
AcDbEntity
8
vector
6
ByLayer
62
3
370
-1
100
AcDbLine
10
2.70001
20
20.7
11
2.70001
21
20.81811
0
LINE
5
344
100
AcDbEntity
8
vector
6
ByLayer
62
3
370
-1
100
AcDbLine
10
2.70001
20
20.81811
11
3.45001
21
20.81811
0
LINE
5
345
100
AcDbEntity
8
vector
6
ByLayer
62
3
370
-1
100
AcDbLine
10
3.45001
20
20.81811
11
3.45001
21
20.7
0
LINE
5
346
100
AcDbEntity
8
vector
6
ByLayer
62
3
370
-1
100
AcDbLine
10
3.45001
20
20.7
11
2.70001
21
20.7
0
LINE
5
347
100
AcDbEntity
8
vector
6
ByLayer
62
3
370
-1
100
AcDbLine
10
1.17001
20
20.7
11
1.17001
21
20.81811
0
LINE
5
348
100
AcDbEntity
8
vector
6
ByLayer
62
3
370
-1
100
AcDbLine
10
1.17001
20
20.81811
11
1.92001
21
20.81811
0
LINE
5
349
100
AcDbEntity
8
vector
6
ByLayer
62
3
370
-1
100
AcDbLine
10
1.92001
20
20.81811
11
1.92001
21
20.7
0
LINE
5
34A
100
AcDbEntity
8
vector
6
ByLayer
62
3
370
-1
100
AcDbLine
10
1.92001
20
20.7
11
1.17001
21
20.7
0
LINE
5
34B
100
AcDbEntity
8
vector
6
ByLayer
62
3
370
-1
100
AcDbLine
10
1.17001
20
16.98189
11
1.17001
21
17.1
0
LINE
5
34C
100
AcDbEntity
8
vector
6
ByLayer
62
3
370
-1
100
AcDbLine
10
1.17001
20
17.1
11
1.92001
21
17.1
0
LINE
5
34D
100
AcDbEntity
8
vector
6
ByLayer
62
3
370
-1
100
AcDbLine
10
1.92001
20
17.1
11
1.92001
21
16.98189
0
LINE
5
34E
100
AcDbEntity
8
vector
6
ByLayer
62
3
370
-1
100
AcDbLine
10
1.92001
20
16.98189
11
1.17001
21
16.98189
0
LINE
5
34F
100
AcDbEntity
8
vector
6
ByLayer
62
3
370
-1
100
AcDbLine
10
2.70001
20
16.98189
11
2.70001
21
17.1
0
LINE
5
350
100
AcDbEntity
8
vector
6
ByLayer
62
3
370
-1
100
AcDbLine
10
2.70001
20
17.1
11
3.45001
21
17.1
0
LINE
5
351
100
AcDbEntity
8
vector
6
ByLayer
62
3
370
-1
100
AcDbLine
10
3.45001
20
17.1
11
3.45001
21
16.98189
0
LINE
5
352
100
AcDbEntity
8
vector
6
ByLayer
62
3
370
-1
100
AcDbLine
10
3.45001
20
16.98189
11
2.70001
21
16.98189
0
LINE
5
353
100
AcDbEntity
8
vector
6
ByLayer
62
3
370
-1
100
AcDbLine
10
5.625
20
16.56377
11
5.625
21
16.68189
0
LINE
5
354
100
AcDbEntity
8
vector
6
ByLayer
62
3
370
-1
100
AcDbLine
10
5.625
20
16.68189
11
6.375
21
16.68189
0
LINE
5
355
100
AcDbEntity
8
vector
6
ByLayer
62
3
370
-1
100
AcDbLine
10
6.375
20
16.68189
11
6.375
21
16.56377
0
LINE
5
356
100
AcDbEntity
8
vector
6
ByLayer
62
3
370
-1
100
AcDbLine
10
6.375
20
16.56377
11
5.625
21
16.56377
0
LINE
5
357
100
AcDbEntity
8
vector
6
ByLayer
62
3
370
-1
100
AcDbLine
10
4.095
20
16.56377
11
4.095
21
16.68189
0
LINE
5
358
100
AcDbEntity
8
vector
6
ByLayer
62
3
370
-1
100
AcDbLine
10
4.095
20
16.68189
11
4.845
21
16.68189
0
LINE
5
359
100
AcDbEntity
8
vector
6
ByLayer
62
3
370
-1
100
AcDbLine
10
4.845
20
16.68189
11
4.845
21
16.56377
0
LINE
5
35A
100
AcDbEntity
8
vector
6
ByLayer
62
3
370
-1
100
AcDbLine
10
4.845
20
16.56377
11
4.095
21
16.56377
0
LINE
5
35B
100
AcDbEntity
8
vector
6
ByLayer
62
3
370
-1
100
AcDbLine
10
7.155
20
16.56377
11
7.155
21
16.68189
0
LINE
5
35C
100
AcDbEntity
8
vector
6
ByLayer
62
3
370
-1
100
AcDbLine
10
7.155
20
16.68189
11
7.905
21
16.68189
0
LINE
5
35D
100
AcDbEntity
8
vector
6
ByLayer
62
3
370
-1
100
AcDbLine
10
7.905
20
16.68189
11
7.905
21
16.56377
0
LINE
5
35E
100
AcDbEntity
8
vector
6
ByLayer
62
3
370
-1
100
AcDbLine
10
7.905
20
16.56377
11
7.155
21
16.56377
0
LINE
5
35F
100
AcDbEntity
8
vector
6
ByLayer
62
3
370
-1
100
AcDbLine
10
8.55
20
15.34783
11
8.55
21
16.09783
0
LINE
5
360
100
AcDbEntity
8
vector
6
ByLayer
62
3
370
-1
100
AcDbLine
10
8.55
20
16.09783
11
8.66811
21
16.09783
0
LINE
5
361
100
AcDbEntity
8
vector
6
ByLayer
62
3
370
-1
100
AcDbLine
10
8.66811
20
16.09783
11
8.66811
21
15.34783
0
LINE
5
362
100
AcDbEntity
8
vector
6
ByLayer
62
3
370
-1
100
AcDbLine
10
8.66811
20
15.34783
11
8.55
21
15.34783
0
LINE
5
363
100
AcDbEntity
8
vector
6
ByLayer
62
3
370
-1
100
AcDbLine
10
8.55
20
13.42971
11
8.55
21
14.17971
0
LINE
5
364
100
AcDbEntity
8
vector
6
ByLayer
62
3
370
-1
100
AcDbLine
10
8.55
20
14.17971
11
8.66811
21
14.17971
0
LINE
5
365
100
AcDbEntity
8
vector
6
ByLayer
62
3
370
-1
100
AcDbLine
10
8.66811
20
14.17971
11
8.66811
21
13.42971
0
LINE
5
366
100
AcDbEntity
8
vector
6
ByLayer
62
3
370
-1
100
AcDbLine
10
8.66811
20
13.42971
11
8.55
21
13.42971
0
LINE
5
367
100
AcDbEntity
8
vector
6
ByLayer
62
3
370
-1
100
AcDbLine
10
4.095
20
12.84565
11
4.095
21
12.96376
0
LINE
5
368
100
AcDbEntity
8
vector
6
ByLayer
62
3
370
-1
100
AcDbLine
10
4.095
20
12.96376
11
4.845
21
12.96376
0
LINE
5
369
100
AcDbEntity
8
vector
6
ByLayer
62
3
370
-1
100
AcDbLine
10
4.845
20
12.96376
11
4.845
21
12.84565
0
LINE
5
36A
100
AcDbEntity
8
vector
6
ByLayer
62
3
370
-1
100
AcDbLine
10
4.845
20
12.84565
11
4.095
21
12.84565
0
LINE
5
36B
100
AcDbEntity
8
vector
6
ByLayer
62
3
370
-1
100
AcDbLine
10
7.155
20
12.84565
11
7.155
21
12.96376
0
LINE
5
36C
100
AcDbEntity
8
vector
6
ByLayer
62
3
370
-1
100
AcDbLine
10
7.155
20
12.96376
11
7.905
21
12.96376
0
LINE
5
36D
100
AcDbEntity
8
vector
6
ByLayer
62
3
370
-1
100
AcDbLine
10
7.905
20
12.96376
11
7.905
21
12.84565
0
LINE
5
36E
100
AcDbEntity
8
vector
6
ByLayer
62
3
370
-1
100
AcDbLine
10
7.905
20
12.84565
11
7.155
21
12.84565
0
LINE
5
36F
100
AcDbEntity
8
vector
6
ByLayer
62
3
370
-1
100
AcDbLine
10
5.625
20
12.84565
11
5.625
21
12.96376
0
LINE
5
370
100
AcDbEntity
8
vector
6
ByLayer
62
3
370
-1
100
AcDbLine
10
5.625
20
12.96376
11
6.375
21
12.96376
0
LINE
5
371
100
AcDbEntity
8
vector
6
ByLayer
62
3
370
-1
100
AcDbLine
10
6.375
20
12.96376
11
6.375
21
12.84565
0
LINE
5
372
100
AcDbEntity
8
vector
6
ByLayer
62
3
370
-1
100
AcDbLine
10
6.375
20
12.84565
11
5.625
21
12.84565
0
LINE
5
373
100
AcDbEntity
8
vector
6
ByLayer
62
3
370
-1
100
AcDbLine
10
8.6181
20
16.78188
11
3.3819
21
16.78188
0
ARC
5
374
100
AcDbEntity
8
vector
6
ByLayer
62
3
370
-1
100
AcDbCircle
10
8.6181
20
16.63188
40
0.15
100
AcDbArc
50
3.30777686872e-13
51
90
0
LINE
5
375
100
AcDbEntity
8
vector
6
ByLayer
62
3
370
-1
100
AcDbLine
10
3.3819
20
12.74585
11
8.6181
21
12.74585
0
LINE
5
376
100
AcDbEntity
8
vector
6
ByLayer
62
3
370
-1
100
AcDbLine
10
8.7681
20
12.89585
11
8.7681
21
16.63188
0
ARC
5
377
100
AcDbEntity
8
vector
6
ByLayer
62
3
370
-1
100
AcDbCircle
10
8.6181
20
12.89585
40
0.15
100
AcDbArc
50
270
51
0
0
CIRCLE
5
378
100
AcDbEntity
8
vector
6
ByLayer
62
256
370
-1
100
AcDbCircle
10
3.65
20
16.363965
40
0.058
0
CIRCLE
5
379
100
AcDbEntity
8
vector
6
ByLayer
62
256
370
-1
100
AcDbCircle
10
8.35
20
16.363965
40
0.058
0
CIRCLE
5
37A
100
AcDbEntity
8
vector
6
ByLayer
62
256
370
-1
100
AcDbCircle
10
3.65
20
13.163965
40
0.058
0
CIRCLE
5
37B
100
AcDbEntity
8
vector
6
ByLayer
62
256
370
-1
100
AcDbCircle
10
8.35
20
13.163965
40
0.058
0
LINE
5
37C
100
AcDbEntity
8
vector
6
ByLayer
62
3
370
-1
100
AcDbLine
10
0.73189
20
15.34783
11
0.73189
21
16.09783
0
LINE
5
37D
100
AcDbEntity
8
vector
6
ByLayer
62
3
370
-1
100
AcDbLine
10
0.73189
20
16.09783
11
0.85
21
16.09783
0
LINE
5
37E
100
AcDbEntity
8
vector
6
ByLayer
62
3
370
-1
100
AcDbLine
10
0.85
20
16.09783
11
0.85
21
15.34783
0
LINE
5
37F
100
AcDbEntity
8
vector
6
ByLayer
62
3
370
-1
100
AcDbLine
10
0.85
20
15.34783
11
0.73189
21
15.34783
0
LINE
5
380
100
AcDbEntity
8
vector
6
ByLayer
62
3
370
-1
100
AcDbLine
10
0.73189
20
13.42971
11
0.73189
21
14.17971
0
LINE
5
381
100
AcDbEntity
8
vector
6
ByLayer
62
3
370
-1
100
AcDbLine
10
0.73189
20
14.17971
11
0.85
21
14.17971
0
LINE
5
382
100
AcDbEntity
8
vector
6
ByLayer
62
3
370
-1
100
AcDbLine
10
0.85
20
14.17971
11
0.85
21
13.42971
0
LINE
5
383
100
AcDbEntity
8
vector
6
ByLayer
62
3
370
-1
100
AcDbLine
10
0.85
20
13.42971
11
0.73189
21
13.42971
0
ARC
5
384
100
AcDbEntity
8
vector
6
ByLayer
62
3
370
-1
100
AcDbCircle
10
0.7819
20
16.63188
40
0.15
100
AcDbArc
50
90
51
180
0
LINE
5
385
100
AcDbEntity
8
vector
6
ByLayer
62
3
370
-1
100
AcDbLine
10
0.6319
20
16.63188
11
0.6319
21
12.89585
0
ARC
5
386
100
AcDbEntity
8
vector
6
ByLayer
62
3
370
-1
100
AcDbCircle
10
0.7819
20
12.89585
40
0.15
100
AcDbArc
50
180
51
270
0
LINE
5
387
100
AcDbEntity
8
vector
6
ByLayer
62
3
370
-1
100
AcDbLine
10
2.70001
20
16.56377
11
2.70001
21
16.68189
0
LINE
5
388
100
AcDbEntity
8
vector
6
ByLayer
62
3
370
-1
100
AcDbLine
10
2.70001
20
16.68189
11
3.45001
21
16.68189
0
LINE
5
389
100
AcDbEntity
8
vector
6
ByLayer
62
3
370
-1
100
AcDbLine
10
3.45001
20
16.68189
11
3.45001
21
16.56377
0
LINE
5
38A
100
AcDbEntity
8
vector
6
ByLayer
62
3
370
-1
100
AcDbLine
10
3.45001
20
16.56377
11
2.70001
21
16.56377
0
LINE
5
38B
100
AcDbEntity
8
vector
6
ByLayer
62
3
370
-1
100
AcDbLine
10
1.17001
20
16.56377
11
1.17001
21
16.68189
0
LINE
5
38C
100
AcDbEntity
8
vector
6
ByLayer
62
3
370
-1
100
AcDbLine
10
1.17001
20
16.68189
11
1.92001
21
16.68189
0
LINE
5
38D
100
AcDbEntity
8
vector
6
ByLayer
62
3
370
-1
100
AcDbLine
10
1.92001
20
16.68189
11
1.92001
21
16.56377
0
LINE
5
38E
100
AcDbEntity
8
vector
6
ByLayer
62
3
370
-1
100
AcDbLine
10
1.92001
20
16.56377
11
1.17001
21
16.56377
0
LINE
5
38F
100
AcDbEntity
8
vector
6
ByLayer
62
3
370
-1
100
AcDbLine
10
1.17001
20
12.84565
11
1.17001
21
12.96376
0
LINE
5
390
100
AcDbEntity
8
vector
6
ByLayer
62
3
370
-1
100
AcDbLine
10
1.17001
20
12.96376
11
1.92001
21
12.96376
0
LINE
5
391
100
AcDbEntity
8
vector
6
ByLayer
62
3
370
-1
100
AcDbLine
10
1.92001
20
12.96376
11
1.92001
21
12.84565
0
LINE
5
392
100
AcDbEntity
8
vector
6
ByLayer
62
3
370
-1
100
AcDbLine
10
1.92001
20
12.84565
11
1.17001
21
12.84565
0
LINE
5
393
100
AcDbEntity
8
vector
6
ByLayer
62
3
370
-1
100
AcDbLine
10
2.70001
20
12.84565
11
2.70001
21
12.96376
0
LINE
5
394
100
AcDbEntity
8
vector
6
ByLayer
62
3
370
-1
100
AcDbLine
10
2.70001
20
12.96376
11
3.45001
21
12.96376
0
LINE
5
395
100
AcDbEntity
8
vector
6
ByLayer
62
3
370
-1
100
AcDbLine
10
3.45001
20
12.96376
11
3.45001
21
12.84565
0
LINE
5
396
100
AcDbEntity
8
vector
6
ByLayer
62
3
370
-1
100
AcDbLine
10
3.45001
20
12.84565
11
2.70001
21
12.84565
0
LINE
5
397
100
AcDbEntity
8
vector
6
ByLayer
62
256
370
-1
100
AcDbLine
10
0.7819
20
16.78188
11
3.3819
21
16.78188
0
LINE
5
398
100
AcDbEntity
8
vector
6
ByLayer
62
256
370
-1
100
AcDbLine
10
0.7819
20
12.74585
11
3.3819
21
12.74585
0
CIRCLE
5
399
100
AcDbEntity
8
vector
6
ByLayer
62
256
370
-1
100
AcDbCircle
10
3.25
20
16.363965
40
0.058
0
CIRCLE
5
39A
100
AcDbEntity
8
vector
6
ByLayer
62
256
370
-1
100
AcDbCircle
10
3.25
20
13.163965
40
0.058
0
CIRCLE
5
39B
100
AcDbEntity
8
vector
6
ByLayer
62
256
370
-1
100
AcDbCircle
10
1.05
20
16.363965
40
0.058
0
CIRCLE
5
39C
100
AcDbEntity
8
vector
6
ByLayer
62
256
370
-1
100
AcDbCircle
10
1.05
20
13.163965
40
0.058
0
LINE
5
39D
100
AcDbEntity
8
vector
6
ByLayer
62
3
370
-1
100
AcDbLine
10
4.845
20
21.13623
11
5.625
21
21.13623
0
LINE
5
39E
100
AcDbEntity
8
vector
6
ByLayer
62
3
370
-1
100
AcDbLine
10
5.625
20
21.13623
11
5.625
21
21.01811
0
LINE
5
39F
100
AcDbEntity
8
vector
6
ByLayer
62
3
370
-1
100
AcDbLine
10
5.625
20
21.01811
11
6.375
21
21.01811
0
LINE
5
3A0
100
AcDbEntity
8
vector
6
ByLayer
62
3
370
-1
100
AcDbLine
10
6.375
20
21.01811
11
6.375
21
21.13623
0
LINE
5
3A1
100
AcDbEntity
8
vector
6
ByLayer
62
3
370
-1
100
AcDbLine
10
6.375
20
21.13623
11
7.155
21
21.13623
0
LINE
5
3A2
100
AcDbEntity
8
vector
6
ByLayer
62
3
370
-1
100
AcDbLine
10
7.155
20
21.13623
11
7.155
21
21.01811
0
LINE
5
3A3
100
AcDbEntity
8
vector
6
ByLayer
62
3
370
-1
100
AcDbLine
10
7.155
20
21.01811
11
7.905
21
21.01811
0
LINE
5
3A4
100
AcDbEntity
8
vector
6
ByLayer
62
3
370
-1
100
AcDbLine
10
7.905
20
21.01811
11
7.905
21
21.13623
0
LINE
5
3A5
100
AcDbEntity
8
vector
6
ByLayer
62
3
370
-1
100
AcDbLine
10
7.905
20
21.13623
11
8.54999
21
21.13623
0
LINE
5
3A6
100
AcDbEntity
8
vector
6
ByLayer
62
3
370
-1
100
AcDbLine
10
8.54999
20
21.13623
11
8.54999
21
21.60472
0
LINE
5
3A7
100
AcDbEntity
8
vector
6
ByLayer
62
3
370
-1
100
AcDbLine
10
8.54999
20
21.60472
11
8.66811
21
21.60472
0
LINE
5
3A8
100
AcDbEntity
8
vector
6
ByLayer
62
3
370
-1
100
AcDbLine
10
8.66811
20
21.60472
11
8.66811
21
22.10472
0
LINE
5
3A9
100
AcDbEntity
8
vector
6
ByLayer
62
3
370
-1
100
AcDbLine
10
8.66811
20
22.10472
11
8.54999
21
22.10472
0
LINE
5
3AA
100
AcDbEntity
8
vector
6
ByLayer
62
3
370
-1
100
AcDbLine
10
8.54999
20
22.10472
11
8.54999
21
22.57322
0
LINE
5
3AB
100
AcDbEntity
8
vector
6
ByLayer
62
3
370
-1
100
AcDbLine
10
8.54999
20
22.57322
11
7.905
21
22.57322
0
LINE
5
3AC
100
AcDbEntity
8
vector
6
ByLayer
62
3
370
-1
100
AcDbLine
10
7.905
20
22.57322
11
7.905
21
22.69133
0
LINE
5
3AD
100
AcDbEntity
8
vector
6
ByLayer
62
3
370
-1
100
AcDbLine
10
7.905
20
22.69133
11
7.155
21
22.69133
0
LINE
5
3AE
100
AcDbEntity
8
vector
6
ByLayer
62
3
370
-1
100
AcDbLine
10
7.155
20
22.69133
11
7.155
21
22.57322
0
LINE
5
3AF
100
AcDbEntity
8
vector
6
ByLayer
62
3
370
-1
100
AcDbLine
10
7.155
20
22.57322
11
6.375
21
22.57322
0
LINE
5
3B0
100
AcDbEntity
8
vector
6
ByLayer
62
3
370
-1
100
AcDbLine
10
6.375
20
22.57322
11
6.375
21
22.69133
0
LINE
5
3B1
100
AcDbEntity
8
vector
6
ByLayer
62
3
370
-1
100
AcDbLine
10
6.375
20
22.69133
11
5.625
21
22.69133
0
LINE
5
3B2
100
AcDbEntity
8
vector
6
ByLayer
62
3
370
-1
100
AcDbLine
10
5.625
20
22.69133
11
5.625
21
22.57322
0
LINE
5
3B3
100
AcDbEntity
8
vector
6
ByLayer
62
3
370
-1
100
AcDbLine
10
5.625
20
22.57322
11
4.845
21
22.57322
0
LINE
5
3B4
100
AcDbEntity
8
vector
6
ByLayer
62
3
370
-1
100
AcDbLine
10
4.845
20
22.57322
11
4.845
21
22.69133
0
LINE
5
3B5
100
AcDbEntity
8
vector
6
ByLayer
62
3
370
-1
100
AcDbLine
10
4.845
20
22.69133
11
4.095
21
22.69133
0
LINE
5
3B6
100
AcDbEntity
8
vector
6
ByLayer
62
3
370
-1
100
AcDbLine
10
4.095
20
22.69133
11
4.095
21
22.57322
0
LINE
5
3B7
100
AcDbEntity
8
vector
6
ByLayer
62
3
370
-1
100
AcDbLine
10
4.095
20
22.57322
11
3.45001
21
22.57322
0
LINE
5
3B8
100
AcDbEntity
8
vector
6
ByLayer
62
3
370
-1
100
AcDbLine
10
3.45001
20
21.13623
11
4.095
21
21.13623
0
LINE
5
3B9
100
AcDbEntity
8
vector
6
ByLayer
62
3
370
-1
100
AcDbLine
10
4.095
20
21.13623
11
4.095
21
21.01811
0
LINE
5
3BA
100
AcDbEntity
8
vector
6
ByLayer
62
3
370
-1
100
AcDbLine
10
4.095
20
21.01811
11
4.845
21
21.01811
0
LINE
5
3BB
100
AcDbEntity
8
vector
6
ByLayer
62
3
370
-1
100
AcDbLine
10
4.845
20
21.01811
11
4.845
21
21.13623
0
ARC
5
3BC
100
AcDbEntity
8
vector
6
ByLayer
62
256
370
-1
100
AcDbCircle
10
6.325
20
22.22323
40
0.05
100
AcDbArc
50
90
51
180
0
LINE
5
3BD
100
AcDbEntity
8
vector
6
ByLayer
62
256
370
-1
100
AcDbLine
10
6.325
20
22.27323
11
6.975
21
22.27323
0
ARC
5
3BE
100
AcDbEntity
8
vector
6
ByLayer
62
256
370
-1
100
AcDbCircle
10
6.975
20
22.22323
40
0.05
100
AcDbArc
50
0
51
90
0
LINE
5
3BF
100
AcDbEntity
8
vector
6
ByLayer
62
256
370
-1
100
AcDbLine
10
7.025
20
22.22323
11
7.025
21
21.92323
0
ARC
5
3C0
100
AcDbEntity
8
vector
6
ByLayer
62
256
370
-1
100
AcDbCircle
10
6.975
20
21.92323
40
0.05
100
AcDbArc
50
270
51
0
0
LINE
5
3C1
100
AcDbEntity
8
vector
6
ByLayer
62
256
370
-1
100
AcDbLine
10
6.975
20
21.87323
11
6.325
21
21.87323
0
LINE
5
3C2
100
AcDbEntity
8
vector
6
ByLayer
62
256
370
-1
100
AcDbLine
10
6.275
20
21.92323
11
6.275
21
22.22323
0
ARC
5
3C3
100
AcDbEntity
8
vector
6
ByLayer
62
256
370
-1
100
AcDbCircle
10
6.325
20
21.92323
40
0.05
100
AcDbArc
50
180
51
270
0
ARC
5
3C4
100
AcDbEntity
8
vector
6
ByLayer
62
256
370
-1
100
AcDbCircle
10
7.345
20
22.22323
40
0.05
100
AcDbArc
50
90
51
180
0
LINE
5
3C5
100
AcDbEntity
8
vector
6
ByLayer
62
256
370
-1
100
AcDbLine
10
7.345
20
22.27323
11
7.995
21
22.27323
0
ARC
5
3C6
100
AcDbEntity
8
vector
6
ByLayer
62
256
370
-1
100
AcDbCircle
10
7.995
20
22.22323
40
0.05
100
AcDbArc
50
0
51
90
0
LINE
5
3C7
100
AcDbEntity
8
vector
6
ByLayer
62
256
370
-1
100
AcDbLine
10
8.045
20
22.22323
11
8.045
21
21.92323
0
ARC
5
3C8
100
AcDbEntity
8
vector
6
ByLayer
62
256
370
-1
100
AcDbCircle
10
7.995
20
21.92323
40
0.05
100
AcDbArc
50
270
51
0
0
LINE
5
3C9
100
AcDbEntity
8
vector
6
ByLayer
62
256
370
-1
100
AcDbLine
10
7.995
20
21.87323
11
7.345
21
21.87323
0
LINE
5
3CA
100
AcDbEntity
8
vector
6
ByLayer
62
256
370
-1
100
AcDbLine
10
7.295
20
21.92323
11
7.295
21
22.22323
0
ARC
5
3CB
100
AcDbEntity
8
vector
6
ByLayer
62
256
370
-1
100
AcDbCircle
10
7.345
20
21.92323
40
0.05
100
AcDbArc
50
180
51
270
0
LINE
5
3CC
100
AcDbEntity
8
vector
6
ByLayer
62
3
370
-1
100
AcDbLine
10
0.85001
20
22.57322
11
0.85001
21
22.10472
0
LINE
5
3CD
100
AcDbEntity
8
vector
6
ByLayer
62
3
370
-1
100
AcDbLine
10
0.85001
20
22.10472
11
0.73189
21
22.10472
0
LINE
5
3CE
100
AcDbEntity
8
vector
6
ByLayer
62
3
370
-1
100
AcDbLine
10
0.73189
20
22.10472
11
0.73189
21
21.60472
0
LINE
5
3CF
100
AcDbEntity
8
vector
6
ByLayer
62
3
370
-1
100
AcDbLine
10
0.73189
20
21.60472
11
0.85001
21
21.60472
0
LINE
5
3D0
100
AcDbEntity
8
vector
6
ByLayer
62
3
370
-1
100
AcDbLine
10
0.85001
20
21.60472
11
0.85001
21
21.13623
0
LINE
5
3D1
100
AcDbEntity
8
vector
6
ByLayer
62
3
370
-1
100
AcDbLine
10
1.92001
20
21.13623
11
2.70001
21
21.13623
0
LINE
5
3D2
100
AcDbEntity
8
vector
6
ByLayer
62
3
370
-1
100
AcDbLine
10
2.70001
20
21.13623
11
2.70001
21
21.01811
0
LINE
5
3D3
100
AcDbEntity
8
vector
6
ByLayer
62
3
370
-1
100
AcDbLine
10
2.70001
20
21.01811
11
3.45001
21
21.01811
0
LINE
5
3D4
100
AcDbEntity
8
vector
6
ByLayer
62
3
370
-1
100
AcDbLine
10
3.45001
20
21.01811
11
3.45001
21
21.13623
0
LINE
5
3D5
100
AcDbEntity
8
vector
6
ByLayer
62
3
370
-1
100
AcDbLine
10
3.45001
20
22.57322
11
3.45001
21
22.69133
0
LINE
5
3D6
100
AcDbEntity
8
vector
6
ByLayer
62
3
370
-1
100
AcDbLine
10
3.45001
20
22.69133
11
2.70001
21
22.69133
0
LINE
5
3D7
100
AcDbEntity
8
vector
6
ByLayer
62
3
370
-1
100
AcDbLine
10
2.70001
20
22.69133
11
2.70001
21
22.57322
0
LINE
5
3D8
100
AcDbEntity
8
vector
6
ByLayer
62
3
370
-1
100
AcDbLine
10
2.70001
20
22.57322
11
1.92001
21
22.57322
0
LINE
5
3D9
100
AcDbEntity
8
vector
6
ByLayer
62
3
370
-1
100
AcDbLine
10
1.92001
20
22.57322
11
1.92001
21
22.69133
0
LINE
5
3DA
100
AcDbEntity
8
vector
6
ByLayer
62
3
370
-1
100
AcDbLine
10
1.92001
20
22.69133
11
1.17001
21
22.69133
0
LINE
5
3DB
100
AcDbEntity
8
vector
6
ByLayer
62
3
370
-1
100
AcDbLine
10
1.17001
20
22.69133
11
1.17001
21
22.57322
0
LINE
5
3DC
100
AcDbEntity
8
vector
6
ByLayer
62
3
370
-1
100
AcDbLine
10
1.17001
20
21.13623
11
1.17001
21
21.01811
0
LINE
5
3DD
100
AcDbEntity
8
vector
6
ByLayer
62
3
370
-1
100
AcDbLine
10
1.17001
20
21.01811
11
1.92001
21
21.01811
0
LINE
5
3DE
100
AcDbEntity
8
vector
6
ByLayer
62
3
370
-1
100
AcDbLine
10
1.92001
20
21.01811
11
1.92001
21
21.13623
0
LINE
5
3DF
100
AcDbEntity
8
vector
6
ByLayer
62
256
370
-1
100
AcDbLine
10
0.85001
20
22.57322
11
1.17001
21
22.57322
0
LINE
5
3E0
100
AcDbEntity
8
vector
6
ByLayer
62
256
370
-1
100
AcDbLine
10
0.85001
20
21.13623
11
1.17001
21
21.13623
0
LINE
5
3E1
100
AcDbEntity
8
vector
6
ByLayer
62
3
370
-1
100
AcDbLine
10
9.45472
20
12.96377
11
9.95472
21
12.96377
0
LINE
5
3E2
100
AcDbEntity
8
vector
6
ByLayer
62
3
370
-1
100
AcDbLine
10
9.95472
20
12.96377
11
9.95472
21
12.84565
0
LINE
5
3E3
100
AcDbEntity
8
vector
6
ByLayer
62
3
370
-1
100
AcDbLine
10
9.95472
20
12.84565
11
10.42322
21
12.84565
0
LINE
5
3E4
100
AcDbEntity
8
vector
6
ByLayer
62
3
370
-1
100
AcDbLine
10
10.42322
20
12.84565
11
10.42322
21
13.42971
0
LINE
5
3E5
100
AcDbEntity
8
vector
6
ByLayer
62
3
370
-1
100
AcDbLine
10
10.42322
20
13.42971
11
10.54133
21
13.42971
0
LINE
5
3E6
100
AcDbEntity
8
vector
6
ByLayer
62
3
370
-1
100
AcDbLine
10
10.54133
20
13.42971
11
10.54133
21
14.179715
0
LINE
5
3E7
100
AcDbEntity
8
vector
6
ByLayer
62
3
370
-1
100
AcDbLine
10
10.54133
20
14.179715
11
10.42322
21
14.179715
0
LINE
5
3E8
100
AcDbEntity
8
vector
6
ByLayer
62
3
370
-1
100
AcDbLine
10
10.42322
20
14.179715
11
10.42322
21
15.347805
0
LINE
5
3E9
100
AcDbEntity
8
vector
6
ByLayer
62
3
370
-1
100
AcDbLine
10
10.42322
20
15.347805
11
10.54133
21
15.347805
0
LINE
5
3EA
100
AcDbEntity
8
vector
6
ByLayer
62
3
370
-1
100
AcDbLine
10
10.54133
20
15.347805
11
10.54133
21
16.09781
0
LINE
5
3EB
100
AcDbEntity
8
vector
6
ByLayer
62
3
370
-1
100
AcDbLine
10
10.54133
20
16.09781
11
10.42322
21
16.09781
0
LINE
5
3EC
100
AcDbEntity
8
vector
6
ByLayer
62
3
370
-1
100
AcDbLine
10
10.42322
20
16.09781
11
10.42322
21
16.68187
0
LINE
5
3ED
100
AcDbEntity
8
vector
6
ByLayer
62
3
370
-1
100
AcDbLine
10
10.42322
20
16.68187
11
9.95472
21
16.68187
0
LINE
5
3EE
100
AcDbEntity
8
vector
6
ByLayer
62
3
370
-1
100
AcDbLine
10
9.95472
20
16.68187
11
9.95472
21
16.56375
0
LINE
5
3EF
100
AcDbEntity
8
vector
6
ByLayer
62
3
370
-1
100
AcDbLine
10
9.95472
20
16.56375
11
9.45472
21
16.56375
0
LINE
5
3F0
100
AcDbEntity
8
vector
6
ByLayer
62
3
370
-1
100
AcDbLine
10
9.45472
20
16.56375
11
9.45472
21
16.68187
0
LINE
5
3F1
100
AcDbEntity
8
vector
6
ByLayer
62
3
370
-1
100
AcDbLine
10
9.45472
20
16.68187
11
8.98623
21
16.68187
0
LINE
5
3F2
100
AcDbEntity
8
vector
6
ByLayer
62
3
370
-1
100
AcDbLine
10
8.98623
20
16.68187
11
8.98623
21
16.09781
0
LINE
5
3F3
100
AcDbEntity
8
vector
6
ByLayer
62
3
370
-1
100
AcDbLine
10
8.98623
20
16.09781
11
8.86811
21
16.09781
0
LINE
5
3F4
100
AcDbEntity
8
vector
6
ByLayer
62
3
370
-1
100
AcDbLine
10
8.86811
20
16.09781
11
8.86811
21
15.347805
0
LINE
5
3F5
100
AcDbEntity
8
vector
6
ByLayer
62
3
370
-1
100
AcDbLine
10
8.86811
20
15.347805
11
8.98623
21
15.347805
0
LINE
5
3F6
100
AcDbEntity
8
vector
6
ByLayer
62
3
370
-1
100
AcDbLine
10
8.98623
20
15.347805
11
8.98623
21
14.179715
0
LINE
5
3F7
100
AcDbEntity
8
vector
6
ByLayer
62
3
370
-1
100
AcDbLine
10
8.98623
20
14.179715
11
8.86811
21
14.179715
0
LINE
5
3F8
100
AcDbEntity
8
vector
6
ByLayer
62
3
370
-1
100
AcDbLine
10
8.86811
20
14.179715
11
8.86811
21
13.42971
0
LINE
5
3F9
100
AcDbEntity
8
vector
6
ByLayer
62
3
370
-1
100
AcDbLine
10
8.86811
20
13.42971
11
8.98623
21
13.42971
0
LINE
5
3FA
100
AcDbEntity
8
vector
6
ByLayer
62
3
370
-1
100
AcDbLine
10
8.98623
20
13.42971
11
8.98623
21
12.84565
0
LINE
5
3FB
100
AcDbEntity
8
vector
6
ByLayer
62
3
370
-1
100
AcDbLine
10
8.98623
20
12.84565
11
9.45472
21
12.84565
0
LINE
5
3FC
100
AcDbEntity
8
vector
6
ByLayer
62
3
370
-1
100
AcDbLine
10
9.45472
20
12.84565
11
9.45472
21
12.96377
0
ARC
5
3FD
100
AcDbEntity
8
vector
6
ByLayer
62
256
370
-1
100
AcDbCircle
10
9.84823
20
14.63386
40
0.05
100
AcDbArc
50
90
51
180
0
LINE
5
3FE
100
AcDbEntity
8
vector
6
ByLayer
62
256
370
-1
100
AcDbLine
10
9.84823
20
14.68386
11
10.19823
21
14.68386
0
ARC
5
3FF
100
AcDbEntity
8
vector
6
ByLayer
62
256
370
-1
100
AcDbCircle
10
10.19823
20
14.63386
40
0.05
100
AcDbArc
50
0
51
90
0
LINE
5
400
100
AcDbEntity
8
vector
6
ByLayer
62
256
370
-1
100
AcDbLine
10
10.24823
20
14.63386
11
10.24823
21
14.23386
0
ARC
5
401
100
AcDbEntity
8
vector
6
ByLayer
62
256
370
-1
100
AcDbCircle
10
10.19823
20
14.23386
40
0.05
100
AcDbArc
50
270
51
0
0
LINE
5
402
100
AcDbEntity
8
vector
6
ByLayer
62
256
370
-1
100
AcDbLine
10
10.19823
20
14.18386
11
9.84823
21
14.18386
0
LINE
5
403
100
AcDbEntity
8
vector
6
ByLayer
62
256
370
-1
100
AcDbLine
10
9.79823
20
14.23386
11
9.79823
21
14.63386
0
ARC
5
404
100
AcDbEntity
8
vector
6
ByLayer
62
256
370
-1
100
AcDbCircle
10
9.84823
20
14.23386
40
0.05
100
AcDbArc
50
180
51
270
0
LINE
5
405
100
AcDbEntity
8
vector
6
ByLayer
62
3
370
-1
100
AcDbLine
10
9.45472
20
17.10001
11
9.95472
21
17.10001
0
LINE
5
406
100
AcDbEntity
8
vector
6
ByLayer
62
3
370
-1
100
AcDbLine
10
9.95472
20
17.10001
11
9.95472
21
16.98189
0
LINE
5
407
100
AcDbEntity
8
vector
6
ByLayer
62
3
370
-1
100
AcDbLine
10
9.95472
20
16.98189
11
10.42321
21
16.98189
0
LINE
5
408
100
AcDbEntity
8
vector
6
ByLayer
62
3
370
-1
100
AcDbLine
10
10.42321
20
16.98189
11
10.42321
21
17.56595
0
LINE
5
409
100
AcDbEntity
8
vector
6
ByLayer
62
3
370
-1
100
AcDbLine
10
10.42321
20
17.56595
11
10.54133
21
17.56595
0
LINE
5
40A
100
AcDbEntity
8
vector
6
ByLayer
62
3
370
-1
100
AcDbLine
10
10.54133
20
17.56595
11
10.54133
21
18.315955
0
LINE
5
40B
100
AcDbEntity
8
vector
6
ByLayer
62
3
370
-1
100
AcDbLine
10
10.54133
20
18.315955
11
10.42321
21
18.315955
0
LINE
5
40C
100
AcDbEntity
8
vector
6
ByLayer
62
3
370
-1
100
AcDbLine
10
10.42321
20
18.315955
11
10.42321
21
19.484045
0
LINE
5
40D
100
AcDbEntity
8
vector
6
ByLayer
62
3
370
-1
100
AcDbLine
10
10.42321
20
19.484045
11
10.54133
21
19.484045
0
LINE
5
40E
100
AcDbEntity
8
vector
6
ByLayer
62
3
370
-1
100
AcDbLine
10
10.54133
20
19.484045
11
10.54133
21
20.23405
0
LINE
5
40F
100
AcDbEntity
8
vector
6
ByLayer
62
3
370
-1
100
AcDbLine
10
10.54133
20
20.23405
11
10.42321
21
20.23405
0
LINE
5
410
100
AcDbEntity
8
vector
6
ByLayer
62
3
370
-1
100
AcDbLine
10
10.42321
20
20.23405
11
10.42321
21
20.81811
0
LINE
5
411
100
AcDbEntity
8
vector
6
ByLayer
62
3
370
-1
100
AcDbLine
10
10.42321
20
20.81811
11
9.95472
21
20.81811
0
LINE
5
412
100
AcDbEntity
8
vector
6
ByLayer
62
3
370
-1
100
AcDbLine
10
9.95472
20
20.81811
11
9.95472
21
20.69999
0
LINE
5
413
100
AcDbEntity
8
vector
6
ByLayer
62
3
370
-1
100
AcDbLine
10
9.95472
20
20.69999
11
9.45472
21
20.69999
0
LINE
5
414
100
AcDbEntity
8
vector
6
ByLayer
62
3
370
-1
100
AcDbLine
10
9.45472
20
20.69999
11
9.45472
21
20.81811
0
LINE
5
415
100
AcDbEntity
8
vector
6
ByLayer
62
3
370
-1
100
AcDbLine
10
9.45472
20
20.81811
11
8.98622
21
20.81811
0
LINE
5
416
100
AcDbEntity
8
vector
6
ByLayer
62
3
370
-1
100
AcDbLine
10
8.98622
20
20.81811
11
8.98622
21
20.23405
0
LINE
5
417
100
AcDbEntity
8
vector
6
ByLayer
62
3
370
-1
100
AcDbLine
10
8.98622
20
20.23405
11
8.86811
21
20.23405
0
LINE
5
418
100
AcDbEntity
8
vector
6
ByLayer
62
3
370
-1
100
AcDbLine
10
8.86811
20
20.23405
11
8.86811
21
19.484045
0
LINE
5
419
100
AcDbEntity
8
vector
6
ByLayer
62
3
370
-1
100
AcDbLine
10
8.86811
20
19.484045
11
8.98622
21
19.484045
0
LINE
5
41A
100
AcDbEntity
8
vector
6
ByLayer
62
3
370
-1
100
AcDbLine
10
8.98622
20
19.484045
11
8.98622
21
18.315955
0
LINE
5
41B
100
AcDbEntity
8
vector
6
ByLayer
62
3
370
-1
100
AcDbLine
10
8.98622
20
18.315955
11
8.86811
21
18.315955
0
LINE
5
41C
100
AcDbEntity
8
vector
6
ByLayer
62
3
370
-1
100
AcDbLine
10
8.86811
20
18.315955
11
8.86811
21
17.56595
0
LINE
5
41D
100
AcDbEntity
8
vector
6
ByLayer
62
3
370
-1
100
AcDbLine
10
8.86811
20
17.56595
11
8.98622
21
17.56595
0
LINE
5
41E
100
AcDbEntity
8
vector
6
ByLayer
62
3
370
-1
100
AcDbLine
10
8.98622
20
17.56595
11
8.98622
21
16.98189
0
LINE
5
41F
100
AcDbEntity
8
vector
6
ByLayer
62
3
370
-1
100
AcDbLine
10
8.98622
20
16.98189
11
9.45472
21
16.98189
0
LINE
5
420
100
AcDbEntity
8
vector
6
ByLayer
62
3
370
-1
100
AcDbLine
10
9.45472
20
16.98189
11
9.45472
21
17.10001
0
LINE
5
421
100
AcDbEntity
8
vector
6
ByLayer
62
256
370
-1
100
AcDbLine
10
9.18321
20
18.9001000516
11
9.18321
21
19.5751000516
0
ARC
5
422
100
AcDbEntity
8
vector
6
ByLayer
62
256
370
-1
100
AcDbCircle
10
9.23321
20
19.5751000516
40
0.05
100
AcDbArc
50
90
51
180
0
LINE
5
423
100
AcDbEntity
8
vector
6
ByLayer
62
256
370
-1
100
AcDbLine
10
9.23321
20
19.6251000516
11
10.12321
21
19.6251000516
0
ARC
5
424
100
AcDbEntity
8
vector
6
ByLayer
62
256
370
-1
100
AcDbCircle
10
10.12321
20
19.5751000516
40
0.05
100
AcDbArc
50
3.81666561776e-13
51
90
0
LINE
5
425
100
AcDbEntity
8
vector
6
ByLayer
62
256
370
-1
100
AcDbLine
10
9.18321
20
18.9001000516
11
9.18321
21
18.2251000516
0
ARC
5
426
100
AcDbEntity
8
vector
6
ByLayer
62
256
370
-1
100
AcDbCircle
10
9.23321
20
18.2251000516
40
0.05
100
AcDbArc
50
180
51
270
0
LINE
5
427
100
AcDbEntity
8
vector
6
ByLayer
62
256
370
-1
100
AcDbLine
10
9.23321
20
18.1751000516
11
10.12321
21
18.1751000516
0
LINE
5
428
100
AcDbEntity
8
vector
6
ByLayer
62
256
370
-1
100
AcDbLine
10
10.17321
20
18.9001000516
11
10.17321
21
18.2251000516
0
ARC
5
429
100
AcDbEntity
8
vector
6
ByLayer
62
256
370
-1
100
AcDbCircle
10
10.12321
20
18.2251000516
40
0.05
100
AcDbArc
50
270
51
0
0
LINE
5
42A
100
AcDbEntity
8
vector
6
ByLayer
62
256
370
-1
100
AcDbLine
10
10.17321
20
19.5751000516
11
10.17321
21
18.9001000516
0
LINE
5
42B
100
AcDbEntity
8
vector
6
ByLayer
62
3
370
-1
100
AcDbLine
10
17.655
20
20.8
11
17.655
21
20.91811
0
LINE
5
42C
100
AcDbEntity
8
vector
6
ByLayer
62
3
370
-1
100
AcDbLine
10
17.655
20
20.91811
11
18.405
21
20.91811
0
LINE
5
42D
100
AcDbEntity
8
vector
6
ByLayer
62
3
370
-1
100
AcDbLine
10
18.405
20
20.91811
11
18.405
21
20.8
0
LINE
5
42E
100
AcDbEntity
8
vector
6
ByLayer
62
3
370
-1
100
AcDbLine
10
18.405
20
20.8
11
17.655
21
20.8
0
LINE
5
42F
100
AcDbEntity
8
vector
6
ByLayer
62
3
370
-1
100
AcDbLine
10
16.125
20
20.8
11
16.125
21
20.91811
0
LINE
5
430
100
AcDbEntity
8
vector
6
ByLayer
62
3
370
-1
100
AcDbLine
10
16.125
20
20.91811
11
16.875
21
20.91811
0
LINE
5
431
100
AcDbEntity
8
vector
6
ByLayer
62
3
370
-1
100
AcDbLine
10
16.875
20
20.91811
11
16.875
21
20.8
0
LINE
5
432
100
AcDbEntity
8
vector
6
ByLayer
62
3
370
-1
100
AcDbLine
10
16.875
20
20.8
11
16.125
21
20.8
0
LINE
5
433
100
AcDbEntity
8
vector
6
ByLayer
62
3
370
-1
100
AcDbLine
10
14.595
20
20.8
11
14.595
21
20.91811
0
LINE
5
434
100
AcDbEntity
8
vector
6
ByLayer
62
3
370
-1
100
AcDbLine
10
14.595
20
20.91811
11
15.345
21
20.91811
0
LINE
5
435
100
AcDbEntity
8
vector
6
ByLayer
62
3
370
-1
100
AcDbLine
10
15.345
20
20.91811
11
15.345
21
20.8
0
LINE
5
436
100
AcDbEntity
8
vector
6
ByLayer
62
3
370
-1
100
AcDbLine
10
15.345
20
20.8
11
14.595
21
20.8
0
LINE
5
437
100
AcDbEntity
8
vector
6
ByLayer
62
3
370
-1
100
AcDbLine
10
19.05
20
19.584045
11
19.05
21
20.33405
0
LINE
5
438
100
AcDbEntity
8
vector
6
ByLayer
62
3
370
-1
100
AcDbLine
10
19.05
20
20.33405
11
19.16811
21
20.33405
0
LINE
5
439
100
AcDbEntity
8
vector
6
ByLayer
62
3
370
-1
100
AcDbLine
10
19.16811
20
20.33405
11
19.16811
21
19.584045
0
LINE
5
43A
100
AcDbEntity
8
vector
6
ByLayer
62
3
370
-1
100
AcDbLine
10
19.16811
20
19.584045
11
19.05
21
19.584045
0
LINE
5
43B
100
AcDbEntity
8
vector
6
ByLayer
62
3
370
-1
100
AcDbLine
10
19.05
20
17.66595
11
19.05
21
18.415955
0
LINE
5
43C
100
AcDbEntity
8
vector
6
ByLayer
62
3
370
-1
100
AcDbLine
10
19.05
20
18.415955
11
19.16811
21
18.415955
0
LINE
5
43D
100
AcDbEntity
8
vector
6
ByLayer
62
3
370
-1
100
AcDbLine
10
19.16811
20
18.415955
11
19.16811
21
17.66595
0
LINE
5
43E
100
AcDbEntity
8
vector
6
ByLayer
62
3
370
-1
100
AcDbLine
10
19.16811
20
17.66595
11
19.05
21
17.66595
0
LINE
5
43F
100
AcDbEntity
8
vector
6
ByLayer
62
3
370
-1
100
AcDbLine
10
17.655
20
17.08189
11
17.655
21
17.2
0
LINE
5
440
100
AcDbEntity
8
vector
6
ByLayer
62
3
370
-1
100
AcDbLine
10
17.655
20
17.2
11
18.405
21
17.2
0
LINE
5
441
100
AcDbEntity
8
vector
6
ByLayer
62
3
370
-1
100
AcDbLine
10
18.405
20
17.2
11
18.405
21
17.08189
0
LINE
5
442
100
AcDbEntity
8
vector
6
ByLayer
62
3
370
-1
100
AcDbLine
10
18.405
20
17.08189
11
17.655
21
17.08189
0
LINE
5
443
100
AcDbEntity
8
vector
6
ByLayer
62
3
370
-1
100
AcDbLine
10
14.595
20
17.08189
11
14.595
21
17.2
0
LINE
5
444
100
AcDbEntity
8
vector
6
ByLayer
62
3
370
-1
100
AcDbLine
10
14.595
20
17.2
11
15.345
21
17.2
0
LINE
5
445
100
AcDbEntity
8
vector
6
ByLayer
62
3
370
-1
100
AcDbLine
10
15.345
20
17.2
11
15.345
21
17.08189
0
LINE
5
446
100
AcDbEntity
8
vector
6
ByLayer
62
3
370
-1
100
AcDbLine
10
15.345
20
17.08189
11
14.595
21
17.08189
0
LINE
5
447
100
AcDbEntity
8
vector
6
ByLayer
62
3
370
-1
100
AcDbLine
10
16.125
20
17.08189
11
16.125
21
17.2
0
LINE
5
448
100
AcDbEntity
8
vector
6
ByLayer
62
3
370
-1
100
AcDbLine
10
16.125
20
17.2
11
16.875
21
17.2
0
LINE
5
449
100
AcDbEntity
8
vector
6
ByLayer
62
3
370
-1
100
AcDbLine
10
16.875
20
17.2
11
16.875
21
17.08189
0
LINE
5
44A
100
AcDbEntity
8
vector
6
ByLayer
62
3
370
-1
100
AcDbLine
10
16.875
20
17.08189
11
16.125
21
17.08189
0
CIRCLE
5
44B
100
AcDbEntity
8
vector
6
ByLayer
62
256
370
-1
100
AcDbCircle
10
14.15
20
20.6001
40
0.058
0
CIRCLE
5
44C
100
AcDbEntity
8
vector
6
ByLayer
62
256
370
-1
100
AcDbCircle
10
18.85
20
20.6001
40
0.058
0
CIRCLE
5
44D
100
AcDbEntity
8
vector
6
ByLayer
62
256
370
-1
100
AcDbCircle
10
14.15
20
17.4001
40
0.058
0
CIRCLE
5
44E
100
AcDbEntity
8
vector
6
ByLayer
62
256
370
-1
100
AcDbCircle
10
18.85
20
17.4001
40
0.058
0
CIRCLE
5
44F
100
AcDbEntity
8
vector
6
ByLayer
62
256
370
-1
100
AcDbCircle
10
14.15
20
20.6001
40
0.058
0
CIRCLE
5
450
100
AcDbEntity
8
vector
6
ByLayer
62
256
370
-1
100
AcDbCircle
10
18.85
20
20.6001
40
0.058
0
CIRCLE
5
451
100
AcDbEntity
8
vector
6
ByLayer
62
256
370
-1
100
AcDbCircle
10
14.15
20
17.4001
40
0.058
0
CIRCLE
5
452
100
AcDbEntity
8
vector
6
ByLayer
62
256
370
-1
100
AcDbCircle
10
18.85
20
17.4001
40
0.058
0
CIRCLE
5
453
100
AcDbEntity
8
vector
6
ByLayer
62
256
370
-1
100
AcDbCircle
10
13.75
20
20.6001
40
0.058
0
CIRCLE
5
454
100
AcDbEntity
8
vector
6
ByLayer
62
256
370
-1
100
AcDbCircle
10
13.75
20
17.4001
40
0.058
0
CIRCLE
5
455
100
AcDbEntity
8
vector
6
ByLayer
62
256
370
-1
100
AcDbCircle
10
11.55
20
20.6001
40
0.058
0
CIRCLE
5
456
100
AcDbEntity
8
vector
6
ByLayer
62
256
370
-1
100
AcDbCircle
10
11.55
20
17.4001
40
0.058
0
LINE
5
457
100
AcDbEntity
8
vector
6
ByLayer
62
3
370
-1
100
AcDbLine
10
11.23189
20
19.584045
11
11.23189
21
20.33405
0
LINE
5
458
100
AcDbEntity
8
vector
6
ByLayer
62
3
370
-1
100
AcDbLine
10
11.23189
20
20.33405
11
11.35
21
20.33405
0
LINE
5
459
100
AcDbEntity
8
vector
6
ByLayer
62
3
370
-1
100
AcDbLine
10
11.35
20
20.33405
11
11.35
21
19.584045
0
LINE
5
45A
100
AcDbEntity
8
vector
6
ByLayer
62
3
370
-1
100
AcDbLine
10
11.35
20
19.584045
11
11.23189
21
19.584045
0
LINE
5
45B
100
AcDbEntity
8
vector
6
ByLayer
62
3
370
-1
100
AcDbLine
10
11.23189
20
17.66595
11
11.23189
21
18.415955
0
LINE
5
45C
100
AcDbEntity
8
vector
6
ByLayer
62
3
370
-1
100
AcDbLine
10
11.23189
20
18.415955
11
11.35
21
18.415955
0
LINE
5
45D
100
AcDbEntity
8
vector
6
ByLayer
62
3
370
-1
100
AcDbLine
10
11.35
20
18.415955
11
11.35
21
17.66595
0
LINE
5
45E
100
AcDbEntity
8
vector
6
ByLayer
62
3
370
-1
100
AcDbLine
10
11.35
20
17.66595
11
11.23189
21
17.66595
0
LINE
5
45F
100
AcDbEntity
8
vector
6
ByLayer
62
256
370
-1
100
AcDbLine
10
19.1181
20
21.0181
11
13.8819
21
21.0181
0
ARC
5
460
100
AcDbEntity
8
vector
6
ByLayer
62
256
370
-1
100
AcDbCircle
10
19.1181
20
20.8681
40
0.15
100
AcDbArc
50
0
51
90
0
LINE
5
461
100
AcDbEntity
8
vector
6
ByLayer
62
256
370
-1
100
AcDbLine
10
19.2681
20
17.1321
11
19.2681
21
20.8681
0
ARC
5
462
100
AcDbEntity
8
vector
6
ByLayer
62
256
370
-1
100
AcDbCircle
10
19.1181
20
17.1321
40
0.15
100
AcDbArc
50
270
51
0
0
LINE
5
463
100
AcDbEntity
8
vector
6
ByLayer
62
256
370
-1
100
AcDbLine
10
13.8819
20
16.9821
11
19.1181
21
16.9821
0
ARC
5
464
100
AcDbEntity
8
vector
6
ByLayer
62
256
370
-1
100
AcDbCircle
10
11.2819
20
20.8681000516
40
0.15
100
AcDbArc
50
90
51
180
0
LINE
5
465
100
AcDbEntity
8
vector
6
ByLayer
62
256
370
-1
100
AcDbLine
10
11.1319
20
20.8681000516
11
11.1319
21
17.1321000516
0
ARC
5
466
100
AcDbEntity
8
vector
6
ByLayer
62
256
370
-1
100
AcDbCircle
10
11.2819
20
17.1321000516
40
0.15
100
AcDbArc
50
180
51
270
0
LINE
5
467
100
AcDbEntity
8
vector
6
ByLayer
62
256
370
-1
100
AcDbLine
10
11.2819
20
21.0181000516
11
13.8819
21
21.0181
0
LINE
5
468
100
AcDbEntity
8
vector
6
ByLayer
62
256
370
-1
100
AcDbLine
10
11.2819
20
16.9821000516
11
13.8819
21
16.9821
0
LINE
5
469
100
AcDbEntity
8
vector
6
ByLayer
62
3
370
-1
100
AcDbLine
10
13.20001
20
20.8
11
13.20001
21
20.91811
0
LINE
5
46A
100
AcDbEntity
8
vector
6
ByLayer
62
3
370
-1
100
AcDbLine
10
13.20001
20
20.91811
11
13.95001
21
20.91811
0
LINE
5
46B
100
AcDbEntity
8
vector
6
ByLayer
62
3
370
-1
100
AcDbLine
10
13.95001
20
20.91811
11
13.95001
21
20.8
0
LINE
5
46C
100
AcDbEntity
8
vector
6
ByLayer
62
3
370
-1
100
AcDbLine
10
13.95001
20
20.8
11
13.20001
21
20.8
0
LINE
5
46D
100
AcDbEntity
8
vector
6
ByLayer
62
3
370
-1
100
AcDbLine
10
11.67001
20
20.8
11
11.67001
21
20.91811
0
LINE
5
46E
100
AcDbEntity
8
vector
6
ByLayer
62
3
370
-1
100
AcDbLine
10
11.67001
20
20.91811
11
12.42001
21
20.91811
0
LINE
5
46F
100
AcDbEntity
8
vector
6
ByLayer
62
3
370
-1
100
AcDbLine
10
12.42001
20
20.91811
11
12.42001
21
20.8
0
LINE
5
470
100
AcDbEntity
8
vector
6
ByLayer
62
3
370
-1
100
AcDbLine
10
12.42001
20
20.8
11
11.67001
21
20.8
0
LINE
5
471
100
AcDbEntity
8
vector
6
ByLayer
62
3
370
-1
100
AcDbLine
10
11.67001
20
17.08189
11
11.67001
21
17.2
0
LINE
5
472
100
AcDbEntity
8
vector
6
ByLayer
62
3
370
-1
100
AcDbLine
10
11.67001
20
17.2
11
12.42001
21
17.2
0
LINE
5
473
100
AcDbEntity
8
vector
6
ByLayer
62
3
370
-1
100
AcDbLine
10
12.42001
20
17.2
11
12.42001
21
17.08189
0
LINE
5
474
100
AcDbEntity
8
vector
6
ByLayer
62
3
370
-1
100
AcDbLine
10
12.42001
20
17.08189
11
11.67001
21
17.08189
0
LINE
5
475
100
AcDbEntity
8
vector
6
ByLayer
62
3
370
-1
100
AcDbLine
10
13.20001
20
17.08189
11
13.20001
21
17.2
0
LINE
5
476
100
AcDbEntity
8
vector
6
ByLayer
62
3
370
-1
100
AcDbLine
10
13.20001
20
17.2
11
13.95001
21
17.2
0
LINE
5
477
100
AcDbEntity
8
vector
6
ByLayer
62
3
370
-1
100
AcDbLine
10
13.95001
20
17.2
11
13.95001
21
17.08189
0
LINE
5
478
100
AcDbEntity
8
vector
6
ByLayer
62
3
370
-1
100
AcDbLine
10
13.95001
20
17.08189
11
13.20001
21
17.08189
0
LINE
5
479
100
AcDbEntity
8
vector
6
ByLayer
62
3
370
-1
100
AcDbLine
10
16.125
20
16.66377
11
16.125
21
16.78189
0
LINE
5
47A
100
AcDbEntity
8
vector
6
ByLayer
62
3
370
-1
100
AcDbLine
10
16.125
20
16.78189
11
16.875
21
16.78189
0
LINE
5
47B
100
AcDbEntity
8
vector
6
ByLayer
62
3
370
-1
100
AcDbLine
10
16.875
20
16.78189
11
16.875
21
16.66377
0
LINE
5
47C
100
AcDbEntity
8
vector
6
ByLayer
62
3
370
-1
100
AcDbLine
10
16.875
20
16.66377
11
16.125
21
16.66377
0
LINE
5
47D
100
AcDbEntity
8
vector
6
ByLayer
62
3
370
-1
100
AcDbLine
10
14.595
20
16.66377
11
14.595
21
16.78189
0
LINE
5
47E
100
AcDbEntity
8
vector
6
ByLayer
62
3
370
-1
100
AcDbLine
10
14.595
20
16.78189
11
15.345
21
16.78189
0
LINE
5
47F
100
AcDbEntity
8
vector
6
ByLayer
62
3
370
-1
100
AcDbLine
10
15.345
20
16.78189
11
15.345
21
16.66377
0
LINE
5
480
100
AcDbEntity
8
vector
6
ByLayer
62
3
370
-1
100
AcDbLine
10
15.345
20
16.66377
11
14.595
21
16.66377
0
LINE
5
481
100
AcDbEntity
8
vector
6
ByLayer
62
3
370
-1
100
AcDbLine
10
17.655
20
16.66377
11
17.655
21
16.78189
0
LINE
5
482
100
AcDbEntity
8
vector
6
ByLayer
62
3
370
-1
100
AcDbLine
10
17.655
20
16.78189
11
18.405
21
16.78189
0
LINE
5
483
100
AcDbEntity
8
vector
6
ByLayer
62
3
370
-1
100
AcDbLine
10
18.405
20
16.78189
11
18.405
21
16.66377
0
LINE
5
484
100
AcDbEntity
8
vector
6
ByLayer
62
3
370
-1
100
AcDbLine
10
18.405
20
16.66377
11
17.655
21
16.66377
0
LINE
5
485
100
AcDbEntity
8
vector
6
ByLayer
62
3
370
-1
100
AcDbLine
10
19.05
20
15.44783
11
19.05
21
16.19783
0
LINE
5
486
100
AcDbEntity
8
vector
6
ByLayer
62
3
370
-1
100
AcDbLine
10
19.05
20
16.19783
11
19.16811
21
16.19783
0
LINE
5
487
100
AcDbEntity
8
vector
6
ByLayer
62
3
370
-1
100
AcDbLine
10
19.16811
20
16.19783
11
19.16811
21
15.44783
0
LINE
5
488
100
AcDbEntity
8
vector
6
ByLayer
62
3
370
-1
100
AcDbLine
10
19.16811
20
15.44783
11
19.05
21
15.44783
0
LINE
5
489
100
AcDbEntity
8
vector
6
ByLayer
62
3
370
-1
100
AcDbLine
10
19.05
20
13.52971
11
19.05
21
14.27971
0
LINE
5
48A
100
AcDbEntity
8
vector
6
ByLayer
62
3
370
-1
100
AcDbLine
10
19.05
20
14.27971
11
19.16811
21
14.27971
0
LINE
5
48B
100
AcDbEntity
8
vector
6
ByLayer
62
3
370
-1
100
AcDbLine
10
19.16811
20
14.27971
11
19.16811
21
13.52971
0
LINE
5
48C
100
AcDbEntity
8
vector
6
ByLayer
62
3
370
-1
100
AcDbLine
10
19.16811
20
13.52971
11
19.05
21
13.52971
0
LINE
5
48D
100
AcDbEntity
8
vector
6
ByLayer
62
3
370
-1
100
AcDbLine
10
14.595
20
12.94565
11
14.595
21
13.06376
0
LINE
5
48E
100
AcDbEntity
8
vector
6
ByLayer
62
3
370
-1
100
AcDbLine
10
14.595
20
13.06376
11
15.345
21
13.06376
0
LINE
5
48F
100
AcDbEntity
8
vector
6
ByLayer
62
3
370
-1
100
AcDbLine
10
15.345
20
13.06376
11
15.345
21
12.94565
0
LINE
5
490
100
AcDbEntity
8
vector
6
ByLayer
62
3
370
-1
100
AcDbLine
10
15.345
20
12.94565
11
14.595
21
12.94565
0
LINE
5
491
100
AcDbEntity
8
vector
6
ByLayer
62
3
370
-1
100
AcDbLine
10
17.655
20
12.94565
11
17.655
21
13.06376
0
LINE
5
492
100
AcDbEntity
8
vector
6
ByLayer
62
3
370
-1
100
AcDbLine
10
17.655
20
13.06376
11
18.405
21
13.06376
0
LINE
5
493
100
AcDbEntity
8
vector
6
ByLayer
62
3
370
-1
100
AcDbLine
10
18.405
20
13.06376
11
18.405
21
12.94565
0
LINE
5
494
100
AcDbEntity
8
vector
6
ByLayer
62
3
370
-1
100
AcDbLine
10
18.405
20
12.94565
11
17.655
21
12.94565
0
LINE
5
495
100
AcDbEntity
8
vector
6
ByLayer
62
3
370
-1
100
AcDbLine
10
16.125
20
12.94565
11
16.125
21
13.06376
0
LINE
5
496
100
AcDbEntity
8
vector
6
ByLayer
62
3
370
-1
100
AcDbLine
10
16.125
20
13.06376
11
16.875
21
13.06376
0
LINE
5
497
100
AcDbEntity
8
vector
6
ByLayer
62
3
370
-1
100
AcDbLine
10
16.875
20
13.06376
11
16.875
21
12.94565
0
LINE
5
498
100
AcDbEntity
8
vector
6
ByLayer
62
3
370
-1
100
AcDbLine
10
16.875
20
12.94565
11
16.125
21
12.94565
0
LINE
5
499
100
AcDbEntity
8
vector
6
ByLayer
62
3
370
-1
100
AcDbLine
10
19.1181
20
16.88188
11
13.8819
21
16.88188
0
ARC
5
49A
100
AcDbEntity
8
vector
6
ByLayer
62
3
370
-1
100
AcDbCircle
10
19.1181
20
16.73188
40
0.15
100
AcDbArc
50
3.30777686872e-13
51
90
0
LINE
5
49B
100
AcDbEntity
8
vector
6
ByLayer
62
3
370
-1
100
AcDbLine
10
13.8819
20
12.84585
11
19.1181
21
12.84585
0
LINE
5
49C
100
AcDbEntity
8
vector
6
ByLayer
62
3
370
-1
100
AcDbLine
10
19.2681
20
12.99585
11
19.2681
21
16.73188
0
ARC
5
49D
100
AcDbEntity
8
vector
6
ByLayer
62
3
370
-1
100
AcDbCircle
10
19.1181
20
12.99585
40
0.15
100
AcDbArc
50
270
51
0
0
CIRCLE
5
49E
100
AcDbEntity
8
vector
6
ByLayer
62
256
370
-1
100
AcDbCircle
10
14.15
20
16.463965
40
0.058
0
CIRCLE
5
49F
100
AcDbEntity
8
vector
6
ByLayer
62
256
370
-1
100
AcDbCircle
10
18.85
20
16.463965
40
0.058
0
CIRCLE
5
4A0
100
AcDbEntity
8
vector
6
ByLayer
62
256
370
-1
100
AcDbCircle
10
14.15
20
13.263965
40
0.058
0
CIRCLE
5
4A1
100
AcDbEntity
8
vector
6
ByLayer
62
256
370
-1
100
AcDbCircle
10
18.85
20
13.263965
40
0.058
0
LINE
5
4A2
100
AcDbEntity
8
vector
6
ByLayer
62
3
370
-1
100
AcDbLine
10
11.23189
20
15.44783
11
11.23189
21
16.19783
0
LINE
5
4A3
100
AcDbEntity
8
vector
6
ByLayer
62
3
370
-1
100
AcDbLine
10
11.23189
20
16.19783
11
11.35
21
16.19783
0
LINE
5
4A4
100
AcDbEntity
8
vector
6
ByLayer
62
3
370
-1
100
AcDbLine
10
11.35
20
16.19783
11
11.35
21
15.44783
0
LINE
5
4A5
100
AcDbEntity
8
vector
6
ByLayer
62
3
370
-1
100
AcDbLine
10
11.35
20
15.44783
11
11.23189
21
15.44783
0
LINE
5
4A6
100
AcDbEntity
8
vector
6
ByLayer
62
3
370
-1
100
AcDbLine
10
11.23189
20
13.52971
11
11.23189
21
14.27971
0
LINE
5
4A7
100
AcDbEntity
8
vector
6
ByLayer
62
3
370
-1
100
AcDbLine
10
11.23189
20
14.27971
11
11.35
21
14.27971
0
LINE
5
4A8
100
AcDbEntity
8
vector
6
ByLayer
62
3
370
-1
100
AcDbLine
10
11.35
20
14.27971
11
11.35
21
13.52971
0
LINE
5
4A9
100
AcDbEntity
8
vector
6
ByLayer
62
3
370
-1
100
AcDbLine
10
11.35
20
13.52971
11
11.23189
21
13.52971
0
ARC
5
4AA
100
AcDbEntity
8
vector
6
ByLayer
62
3
370
-1
100
AcDbCircle
10
11.2819
20
16.73188
40
0.15
100
AcDbArc
50
90
51
180
0
LINE
5
4AB
100
AcDbEntity
8
vector
6
ByLayer
62
3
370
-1
100
AcDbLine
10
11.1319
20
16.73188
11
11.1319
21
12.99585
0
ARC
5
4AC
100
AcDbEntity
8
vector
6
ByLayer
62
3
370
-1
100
AcDbCircle
10
11.2819
20
12.99585
40
0.15
100
AcDbArc
50
180
51
270
0
LINE
5
4AD
100
AcDbEntity
8
vector
6
ByLayer
62
3
370
-1
100
AcDbLine
10
13.20001
20
16.66377
11
13.20001
21
16.78189
0
LINE
5
4AE
100
AcDbEntity
8
vector
6
ByLayer
62
3
370
-1
100
AcDbLine
10
13.20001
20
16.78189
11
13.95001
21
16.78189
0
LINE
5
4AF
100
AcDbEntity
8
vector
6
ByLayer
62
3
370
-1
100
AcDbLine
10
13.95001
20
16.78189
11
13.95001
21
16.66377
0
LINE
5
4B0
100
AcDbEntity
8
vector
6
ByLayer
62
3
370
-1
100
AcDbLine
10
13.95001
20
16.66377
11
13.20001
21
16.66377
0
LINE
5
4B1
100
AcDbEntity
8
vector
6
ByLayer
62
3
370
-1
100
AcDbLine
10
11.67001
20
16.66377
11
11.67001
21
16.78189
0
LINE
5
4B2
100
AcDbEntity
8
vector
6
ByLayer
62
3
370
-1
100
AcDbLine
10
11.67001
20
16.78189
11
12.42001
21
16.78189
0
LINE
5
4B3
100
AcDbEntity
8
vector
6
ByLayer
62
3
370
-1
100
AcDbLine
10
12.42001
20
16.78189
11
12.42001
21
16.66377
0
LINE
5
4B4
100
AcDbEntity
8
vector
6
ByLayer
62
3
370
-1
100
AcDbLine
10
12.42001
20
16.66377
11
11.67001
21
16.66377
0
LINE
5
4B5
100
AcDbEntity
8
vector
6
ByLayer
62
3
370
-1
100
AcDbLine
10
11.67001
20
12.94565
11
11.67001
21
13.06376
0
LINE
5
4B6
100
AcDbEntity
8
vector
6
ByLayer
62
3
370
-1
100
AcDbLine
10
11.67001
20
13.06376
11
12.42001
21
13.06376
0
LINE
5
4B7
100
AcDbEntity
8
vector
6
ByLayer
62
3
370
-1
100
AcDbLine
10
12.42001
20
13.06376
11
12.42001
21
12.94565
0
LINE
5
4B8
100
AcDbEntity
8
vector
6
ByLayer
62
3
370
-1
100
AcDbLine
10
12.42001
20
12.94565
11
11.67001
21
12.94565
0
LINE
5
4B9
100
AcDbEntity
8
vector
6
ByLayer
62
3
370
-1
100
AcDbLine
10
13.20001
20
12.94565
11
13.20001
21
13.06376
0
LINE
5
4BA
100
AcDbEntity
8
vector
6
ByLayer
62
3
370
-1
100
AcDbLine
10
13.20001
20
13.06376
11
13.95001
21
13.06376
0
LINE
5
4BB
100
AcDbEntity
8
vector
6
ByLayer
62
3
370
-1
100
AcDbLine
10
13.95001
20
13.06376
11
13.95001
21
12.94565
0
LINE
5
4BC
100
AcDbEntity
8
vector
6
ByLayer
62
3
370
-1
100
AcDbLine
10
13.95001
20
12.94565
11
13.20001
21
12.94565
0
LINE
5
4BD
100
AcDbEntity
8
vector
6
ByLayer
62
256
370
-1
100
AcDbLine
10
11.2819
20
16.88188
11
13.8819
21
16.88188
0
LINE
5
4BE
100
AcDbEntity
8
vector
6
ByLayer
62
256
370
-1
100
AcDbLine
10
11.2819
20
12.84585
11
13.8819
21
12.84585
0
CIRCLE
5
4BF
100
AcDbEntity
8
vector
6
ByLayer
62
256
370
-1
100
AcDbCircle
10
13.75
20
16.463965
40
0.058
0
CIRCLE
5
4C0
100
AcDbEntity
8
vector
6
ByLayer
62
256
370
-1
100
AcDbCircle
10
13.75
20
13.263965
40
0.058
0
CIRCLE
5
4C1
100
AcDbEntity
8
vector
6
ByLayer
62
256
370
-1
100
AcDbCircle
10
11.55
20
16.463965
40
0.058
0
CIRCLE
5
4C2
100
AcDbEntity
8
vector
6
ByLayer
62
256
370
-1
100
AcDbCircle
10
11.55
20
13.263965
40
0.058
0
LINE
5
4C3
100
AcDbEntity
8
vector
6
ByLayer
62
3
370
-1
100
AcDbLine
10
15.345
20
21.23623
11
16.125
21
21.23623
0
LINE
5
4C4
100
AcDbEntity
8
vector
6
ByLayer
62
3
370
-1
100
AcDbLine
10
16.125
20
21.23623
11
16.125
21
21.11811
0
LINE
5
4C5
100
AcDbEntity
8
vector
6
ByLayer
62
3
370
-1
100
AcDbLine
10
16.125
20
21.11811
11
16.875
21
21.11811
0
LINE
5
4C6
100
AcDbEntity
8
vector
6
ByLayer
62
3
370
-1
100
AcDbLine
10
16.875
20
21.11811
11
16.875
21
21.23623
0
LINE
5
4C7
100
AcDbEntity
8
vector
6
ByLayer
62
3
370
-1
100
AcDbLine
10
16.875
20
21.23623
11
17.655
21
21.23623
0
LINE
5
4C8
100
AcDbEntity
8
vector
6
ByLayer
62
3
370
-1
100
AcDbLine
10
17.655
20
21.23623
11
17.655
21
21.11811
0
LINE
5
4C9
100
AcDbEntity
8
vector
6
ByLayer
62
3
370
-1
100
AcDbLine
10
17.655
20
21.11811
11
18.405
21
21.11811
0
LINE
5
4CA
100
AcDbEntity
8
vector
6
ByLayer
62
3
370
-1
100
AcDbLine
10
18.405
20
21.11811
11
18.405
21
21.23623
0
LINE
5
4CB
100
AcDbEntity
8
vector
6
ByLayer
62
3
370
-1
100
AcDbLine
10
18.405
20
21.23623
11
19.04999
21
21.23623
0
LINE
5
4CC
100
AcDbEntity
8
vector
6
ByLayer
62
3
370
-1
100
AcDbLine
10
19.04999
20
21.23623
11
19.04999
21
21.70472
0
LINE
5
4CD
100
AcDbEntity
8
vector
6
ByLayer
62
3
370
-1
100
AcDbLine
10
19.04999
20
21.70472
11
19.16811
21
21.70472
0
LINE
5
4CE
100
AcDbEntity
8
vector
6
ByLayer
62
3
370
-1
100
AcDbLine
10
19.16811
20
21.70472
11
19.16811
21
22.20472
0
LINE
5
4CF
100
AcDbEntity
8
vector
6
ByLayer
62
3
370
-1
100
AcDbLine
10
19.16811
20
22.20472
11
19.04999
21
22.20472
0
LINE
5
4D0
100
AcDbEntity
8
vector
6
ByLayer
62
3
370
-1
100
AcDbLine
10
19.04999
20
22.20472
11
19.04999
21
22.67322
0
LINE
5
4D1
100
AcDbEntity
8
vector
6
ByLayer
62
3
370
-1
100
AcDbLine
10
19.04999
20
22.67322
11
18.405
21
22.67322
0
LINE
5
4D2
100
AcDbEntity
8
vector
6
ByLayer
62
3
370
-1
100
AcDbLine
10
18.405
20
22.67322
11
18.405
21
22.79133
0
LINE
5
4D3
100
AcDbEntity
8
vector
6
ByLayer
62
3
370
-1
100
AcDbLine
10
18.405
20
22.79133
11
17.655
21
22.79133
0
LINE
5
4D4
100
AcDbEntity
8
vector
6
ByLayer
62
3
370
-1
100
AcDbLine
10
17.655
20
22.79133
11
17.655
21
22.67322
0
LINE
5
4D5
100
AcDbEntity
8
vector
6
ByLayer
62
3
370
-1
100
AcDbLine
10
17.655
20
22.67322
11
16.875
21
22.67322
0
LINE
5
4D6
100
AcDbEntity
8
vector
6
ByLayer
62
3
370
-1
100
AcDbLine
10
16.875
20
22.67322
11
16.875
21
22.79133
0
LINE
5
4D7
100
AcDbEntity
8
vector
6
ByLayer
62
3
370
-1
100
AcDbLine
10
16.875
20
22.79133
11
16.125
21
22.79133
0
LINE
5
4D8
100
AcDbEntity
8
vector
6
ByLayer
62
3
370
-1
100
AcDbLine
10
16.125
20
22.79133
11
16.125
21
22.67322
0
LINE
5
4D9
100
AcDbEntity
8
vector
6
ByLayer
62
3
370
-1
100
AcDbLine
10
16.125
20
22.67322
11
15.345
21
22.67322
0
LINE
5
4DA
100
AcDbEntity
8
vector
6
ByLayer
62
3
370
-1
100
AcDbLine
10
15.345
20
22.67322
11
15.345
21
22.79133
0
LINE
5
4DB
100
AcDbEntity
8
vector
6
ByLayer
62
3
370
-1
100
AcDbLine
10
15.345
20
22.79133
11
14.595
21
22.79133
0
LINE
5
4DC
100
AcDbEntity
8
vector
6
ByLayer
62
3
370
-1
100
AcDbLine
10
14.595
20
22.79133
11
14.595
21
22.67322
0
LINE
5
4DD
100
AcDbEntity
8
vector
6
ByLayer
62
3
370
-1
100
AcDbLine
10
14.595
20
22.67322
11
13.95001
21
22.67322
0
LINE
5
4DE
100
AcDbEntity
8
vector
6
ByLayer
62
3
370
-1
100
AcDbLine
10
13.95001
20
21.23623
11
14.595
21
21.23623
0
LINE
5
4DF
100
AcDbEntity
8
vector
6
ByLayer
62
3
370
-1
100
AcDbLine
10
14.595
20
21.23623
11
14.595
21
21.11811
0
LINE
5
4E0
100
AcDbEntity
8
vector
6
ByLayer
62
3
370
-1
100
AcDbLine
10
14.595
20
21.11811
11
15.345
21
21.11811
0
LINE
5
4E1
100
AcDbEntity
8
vector
6
ByLayer
62
3
370
-1
100
AcDbLine
10
15.345
20
21.11811
11
15.345
21
21.23623
0
ARC
5
4E2
100
AcDbEntity
8
vector
6
ByLayer
62
256
370
-1
100
AcDbCircle
10
16.825
20
22.32323
40
0.05
100
AcDbArc
50
90
51
180
0
LINE
5
4E3
100
AcDbEntity
8
vector
6
ByLayer
62
256
370
-1
100
AcDbLine
10
16.825
20
22.37323
11
17.475
21
22.37323
0
ARC
5
4E4
100
AcDbEntity
8
vector
6
ByLayer
62
256
370
-1
100
AcDbCircle
10
17.475
20
22.32323
40
0.05
100
AcDbArc
50
0
51
90
0
LINE
5
4E5
100
AcDbEntity
8
vector
6
ByLayer
62
256
370
-1
100
AcDbLine
10
17.525
20
22.32323
11
17.525
21
22.02323
0
ARC
5
4E6
100
AcDbEntity
8
vector
6
ByLayer
62
256
370
-1
100
AcDbCircle
10
17.475
20
22.02323
40
0.05
100
AcDbArc
50
270
51
0
0
LINE
5
4E7
100
AcDbEntity
8
vector
6
ByLayer
62
256
370
-1
100
AcDbLine
10
17.475
20
21.97323
11
16.825
21
21.97323
0
LINE
5
4E8
100
AcDbEntity
8
vector
6
ByLayer
62
256
370
-1
100
AcDbLine
10
16.775
20
22.02323
11
16.775
21
22.32323
0
ARC
5
4E9
100
AcDbEntity
8
vector
6
ByLayer
62
256
370
-1
100
AcDbCircle
10
16.825
20
22.02323
40
0.05
100
AcDbArc
50
180
51
270
0
ARC
5
4EA
100
AcDbEntity
8
vector
6
ByLayer
62
256
370
-1
100
AcDbCircle
10
17.845
20
22.32323
40
0.05
100
AcDbArc
50
90
51
180
0
LINE
5
4EB
100
AcDbEntity
8
vector
6
ByLayer
62
256
370
-1
100
AcDbLine
10
17.845
20
22.37323
11
18.495
21
22.37323
0
ARC
5
4EC
100
AcDbEntity
8
vector
6
ByLayer
62
256
370
-1
100
AcDbCircle
10
18.495
20
22.32323
40
0.05
100
AcDbArc
50
0
51
90
0
LINE
5
4ED
100
AcDbEntity
8
vector
6
ByLayer
62
256
370
-1
100
AcDbLine
10
18.545
20
22.32323
11
18.545
21
22.02323
0
ARC
5
4EE
100
AcDbEntity
8
vector
6
ByLayer
62
256
370
-1
100
AcDbCircle
10
18.495
20
22.02323
40
0.05
100
AcDbArc
50
270
51
0
0
LINE
5
4EF
100
AcDbEntity
8
vector
6
ByLayer
62
256
370
-1
100
AcDbLine
10
18.495
20
21.97323
11
17.845
21
21.97323
0
LINE
5
4F0
100
AcDbEntity
8
vector
6
ByLayer
62
256
370
-1
100
AcDbLine
10
17.795
20
22.02323
11
17.795
21
22.32323
0
ARC
5
4F1
100
AcDbEntity
8
vector
6
ByLayer
62
256
370
-1
100
AcDbCircle
10
17.845
20
22.02323
40
0.05
100
AcDbArc
50
180
51
270
0
LINE
5
4F2
100
AcDbEntity
8
vector
6
ByLayer
62
3
370
-1
100
AcDbLine
10
11.35001
20
22.67322
11
11.35001
21
22.20472
0
LINE
5
4F3
100
AcDbEntity
8
vector
6
ByLayer
62
3
370
-1
100
AcDbLine
10
11.35001
20
22.20472
11
11.23189
21
22.20472
0
LINE
5
4F4
100
AcDbEntity
8
vector
6
ByLayer
62
3
370
-1
100
AcDbLine
10
11.23189
20
22.20472
11
11.23189
21
21.70472
0
LINE
5
4F5
100
AcDbEntity
8
vector
6
ByLayer
62
3
370
-1
100
AcDbLine
10
11.23189
20
21.70472
11
11.35001
21
21.70472
0
LINE
5
4F6
100
AcDbEntity
8
vector
6
ByLayer
62
3
370
-1
100
AcDbLine
10
11.35001
20
21.70472
11
11.35001
21
21.23623
0
LINE
5
4F7
100
AcDbEntity
8
vector
6
ByLayer
62
3
370
-1
100
AcDbLine
10
12.42001
20
21.23623
11
13.20001
21
21.23623
0
LINE
5
4F8
100
AcDbEntity
8
vector
6
ByLayer
62
3
370
-1
100
AcDbLine
10
13.20001
20
21.23623
11
13.20001
21
21.11811
0
LINE
5
4F9
100
AcDbEntity
8
vector
6
ByLayer
62
3
370
-1
100
AcDbLine
10
13.20001
20
21.11811
11
13.95001
21
21.11811
0
LINE
5
4FA
100
AcDbEntity
8
vector
6
ByLayer
62
3
370
-1
100
AcDbLine
10
13.95001
20
21.11811
11
13.95001
21
21.23623
0
LINE
5
4FB
100
AcDbEntity
8
vector
6
ByLayer
62
3
370
-1
100
AcDbLine
10
13.95001
20
22.67322
11
13.95001
21
22.79133
0
LINE
5
4FC
100
AcDbEntity
8
vector
6
ByLayer
62
3
370
-1
100
AcDbLine
10
13.95001
20
22.79133
11
13.20001
21
22.79133
0
LINE
5
4FD
100
AcDbEntity
8
vector
6
ByLayer
62
3
370
-1
100
AcDbLine
10
13.20001
20
22.79133
11
13.20001
21
22.67322
0
LINE
5
4FE
100
AcDbEntity
8
vector
6
ByLayer
62
3
370
-1
100
AcDbLine
10
13.20001
20
22.67322
11
12.42001
21
22.67322
0
LINE
5
4FF
100
AcDbEntity
8
vector
6
ByLayer
62
3
370
-1
100
AcDbLine
10
12.42001
20
22.67322
11
12.42001
21
22.79133
0
LINE
5
500
100
AcDbEntity
8
vector
6
ByLayer
62
3
370
-1
100
AcDbLine
10
12.42001
20
22.79133
11
11.67001
21
22.79133
0
LINE
5
501
100
AcDbEntity
8
vector
6
ByLayer
62
3
370
-1
100
AcDbLine
10
11.67001
20
22.79133
11
11.67001
21
22.67322
0
LINE
5
502
100
AcDbEntity
8
vector
6
ByLayer
62
3
370
-1
100
AcDbLine
10
11.67001
20
21.23623
11
11.67001
21
21.11811
0
LINE
5
503
100
AcDbEntity
8
vector
6
ByLayer
62
3
370
-1
100
AcDbLine
10
11.67001
20
21.11811
11
12.42001
21
21.11811
0
LINE
5
504
100
AcDbEntity
8
vector
6
ByLayer
62
3
370
-1
100
AcDbLine
10
12.42001
20
21.11811
11
12.42001
21
21.23623
0
LINE
5
505
100
AcDbEntity
8
vector
6
ByLayer
62
256
370
-1
100
AcDbLine
10
11.35001
20
22.67322
11
11.67001
21
22.67322
0
LINE
5
506
100
AcDbEntity
8
vector
6
ByLayer
62
256
370
-1
100
AcDbLine
10
11.35001
20
21.23623
11
11.67001
21
21.23623
0
LINE
5
507
100
AcDbEntity
8
vector
6
ByLayer
62
3
370
-1
100
AcDbLine
10
19.95472
20
13.06377
11
20.45472
21
13.06377
0
LINE
5
508
100
AcDbEntity
8
vector
6
ByLayer
62
3
370
-1
100
AcDbLine
10
20.45472
20
13.06377
11
20.45472
21
12.94565
0
LINE
5
509
100
AcDbEntity
8
vector
6
ByLayer
62
3
370
-1
100
AcDbLine
10
20.45472
20
12.94565
11
20.92322
21
12.94565
0
LINE
5
50A
100
AcDbEntity
8
vector
6
ByLayer
62
3
370
-1
100
AcDbLine
10
20.92322
20
12.94565
11
20.92322
21
13.52971
0
LINE
5
50B
100
AcDbEntity
8
vector
6
ByLayer
62
3
370
-1
100
AcDbLine
10
20.92322
20
13.52971
11
21.04133
21
13.52971
0
LINE
5
50C
100
AcDbEntity
8
vector
6
ByLayer
62
3
370
-1
100
AcDbLine
10
21.04133
20
13.52971
11
21.04133
21
14.279715
0
LINE
5
50D
100
AcDbEntity
8
vector
6
ByLayer
62
3
370
-1
100
AcDbLine
10
21.04133
20
14.279715
11
20.92322
21
14.279715
0
LINE
5
50E
100
AcDbEntity
8
vector
6
ByLayer
62
3
370
-1
100
AcDbLine
10
20.92322
20
14.279715
11
20.92322
21
15.447805
0
LINE
5
50F
100
AcDbEntity
8
vector
6
ByLayer
62
3
370
-1
100
AcDbLine
10
20.92322
20
15.447805
11
21.04133
21
15.447805
0
LINE
5
510
100
AcDbEntity
8
vector
6
ByLayer
62
3
370
-1
100
AcDbLine
10
21.04133
20
15.447805
11
21.04133
21
16.19781
0
LINE
5
511
100
AcDbEntity
8
vector
6
ByLayer
62
3
370
-1
100
AcDbLine
10
21.04133
20
16.19781
11
20.92322
21
16.19781
0
LINE
5
512
100
AcDbEntity
8
vector
6
ByLayer
62
3
370
-1
100
AcDbLine
10
20.92322
20
16.19781
11
20.92322
21
16.78187
0
LINE
5
513
100
AcDbEntity
8
vector
6
ByLayer
62
3
370
-1
100
AcDbLine
10
20.92322
20
16.78187
11
20.45472
21
16.78187
0
LINE
5
514
100
AcDbEntity
8
vector
6
ByLayer
62
3
370
-1
100
AcDbLine
10
20.45472
20
16.78187
11
20.45472
21
16.66375
0
LINE
5
515
100
AcDbEntity
8
vector
6
ByLayer
62
3
370
-1
100
AcDbLine
10
20.45472
20
16.66375
11
19.95472
21
16.66375
0
LINE
5
516
100
AcDbEntity
8
vector
6
ByLayer
62
3
370
-1
100
AcDbLine
10
19.95472
20
16.66375
11
19.95472
21
16.78187
0
LINE
5
517
100
AcDbEntity
8
vector
6
ByLayer
62
3
370
-1
100
AcDbLine
10
19.95472
20
16.78187
11
19.48623
21
16.78187
0
LINE
5
518
100
AcDbEntity
8
vector
6
ByLayer
62
3
370
-1
100
AcDbLine
10
19.48623
20
16.78187
11
19.48623
21
16.19781
0
LINE
5
519
100
AcDbEntity
8
vector
6
ByLayer
62
3
370
-1
100
AcDbLine
10
19.48623
20
16.19781
11
19.36811
21
16.19781
0
LINE
5
51A
100
AcDbEntity
8
vector
6
ByLayer
62
3
370
-1
100
AcDbLine
10
19.36811
20
16.19781
11
19.36811
21
15.447805
0
LINE
5
51B
100
AcDbEntity
8
vector
6
ByLayer
62
3
370
-1
100
AcDbLine
10
19.36811
20
15.447805
11
19.48623
21
15.447805
0
LINE
5
51C
100
AcDbEntity
8
vector
6
ByLayer
62
3
370
-1
100
AcDbLine
10
19.48623
20
15.447805
11
19.48623
21
14.279715
0
LINE
5
51D
100
AcDbEntity
8
vector
6
ByLayer
62
3
370
-1
100
AcDbLine
10
19.48623
20
14.279715
11
19.36811
21
14.279715
0
LINE
5
51E
100
AcDbEntity
8
vector
6
ByLayer
62
3
370
-1
100
AcDbLine
10
19.36811
20
14.279715
11
19.36811
21
13.52971
0
LINE
5
51F
100
AcDbEntity
8
vector
6
ByLayer
62
3
370
-1
100
AcDbLine
10
19.36811
20
13.52971
11
19.48623
21
13.52971
0
LINE
5
520
100
AcDbEntity
8
vector
6
ByLayer
62
3
370
-1
100
AcDbLine
10
19.48623
20
13.52971
11
19.48623
21
12.94565
0
LINE
5
521
100
AcDbEntity
8
vector
6
ByLayer
62
3
370
-1
100
AcDbLine
10
19.48623
20
12.94565
11
19.95472
21
12.94565
0
LINE
5
522
100
AcDbEntity
8
vector
6
ByLayer
62
3
370
-1
100
AcDbLine
10
19.95472
20
12.94565
11
19.95472
21
13.06377
0
ARC
5
523
100
AcDbEntity
8
vector
6
ByLayer
62
256
370
-1
100
AcDbCircle
10
20.34823
20
14.73386
40
0.05
100
AcDbArc
50
90
51
180
0
LINE
5
524
100
AcDbEntity
8
vector
6
ByLayer
62
256
370
-1
100
AcDbLine
10
20.34823
20
14.78386
11
20.69823
21
14.78386
0
ARC
5
525
100
AcDbEntity
8
vector
6
ByLayer
62
256
370
-1
100
AcDbCircle
10
20.69823
20
14.73386
40
0.05
100
AcDbArc
50
0
51
90
0
LINE
5
526
100
AcDbEntity
8
vector
6
ByLayer
62
256
370
-1
100
AcDbLine
10
20.74823
20
14.73386
11
20.74823
21
14.33386
0
ARC
5
527
100
AcDbEntity
8
vector
6
ByLayer
62
256
370
-1
100
AcDbCircle
10
20.69823
20
14.33386
40
0.05
100
AcDbArc
50
270
51
0
0
LINE
5
528
100
AcDbEntity
8
vector
6
ByLayer
62
256
370
-1
100
AcDbLine
10
20.69823
20
14.28386
11
20.34823
21
14.28386
0
LINE
5
529
100
AcDbEntity
8
vector
6
ByLayer
62
256
370
-1
100
AcDbLine
10
20.29823
20
14.33386
11
20.29823
21
14.73386
0
ARC
5
52A
100
AcDbEntity
8
vector
6
ByLayer
62
256
370
-1
100
AcDbCircle
10
20.34823
20
14.33386
40
0.05
100
AcDbArc
50
180
51
270
0
LINE
5
52B
100
AcDbEntity
8
vector
6
ByLayer
62
3
370
-1
100
AcDbLine
10
19.95472
20
17.20001
11
20.45472
21
17.20001
0
LINE
5
52C
100
AcDbEntity
8
vector
6
ByLayer
62
3
370
-1
100
AcDbLine
10
20.45472
20
17.20001
11
20.45472
21
17.08189
0
LINE
5
52D
100
AcDbEntity
8
vector
6
ByLayer
62
3
370
-1
100
AcDbLine
10
20.45472
20
17.08189
11
20.92321
21
17.08189
0
LINE
5
52E
100
AcDbEntity
8
vector
6
ByLayer
62
3
370
-1
100
AcDbLine
10
20.92321
20
17.08189
11
20.92321
21
17.66595
0
LINE
5
52F
100
AcDbEntity
8
vector
6
ByLayer
62
3
370
-1
100
AcDbLine
10
20.92321
20
17.66595
11
21.04133
21
17.66595
0
LINE
5
530
100
AcDbEntity
8
vector
6
ByLayer
62
3
370
-1
100
AcDbLine
10
21.04133
20
17.66595
11
21.04133
21
18.415955
0
LINE
5
531
100
AcDbEntity
8
vector
6
ByLayer
62
3
370
-1
100
AcDbLine
10
21.04133
20
18.415955
11
20.92321
21
18.415955
0
LINE
5
532
100
AcDbEntity
8
vector
6
ByLayer
62
3
370
-1
100
AcDbLine
10
20.92321
20
18.415955
11
20.92321
21
19.584045
0
LINE
5
533
100
AcDbEntity
8
vector
6
ByLayer
62
3
370
-1
100
AcDbLine
10
20.92321
20
19.584045
11
21.04133
21
19.584045
0
LINE
5
534
100
AcDbEntity
8
vector
6
ByLayer
62
3
370
-1
100
AcDbLine
10
21.04133
20
19.584045
11
21.04133
21
20.33405
0
LINE
5
535
100
AcDbEntity
8
vector
6
ByLayer
62
3
370
-1
100
AcDbLine
10
21.04133
20
20.33405
11
20.92321
21
20.33405
0
LINE
5
536
100
AcDbEntity
8
vector
6
ByLayer
62
3
370
-1
100
AcDbLine
10
20.92321
20
20.33405
11
20.92321
21
20.91811
0
LINE
5
537
100
AcDbEntity
8
vector
6
ByLayer
62
3
370
-1
100
AcDbLine
10
20.92321
20
20.91811
11
20.45472
21
20.91811
0
LINE
5
538
100
AcDbEntity
8
vector
6
ByLayer
62
3
370
-1
100
AcDbLine
10
20.45472
20
20.91811
11
20.45472
21
20.79999
0
LINE
5
539
100
AcDbEntity
8
vector
6
ByLayer
62
3
370
-1
100
AcDbLine
10
20.45472
20
20.79999
11
19.95472
21
20.79999
0
LINE
5
53A
100
AcDbEntity
8
vector
6
ByLayer
62
3
370
-1
100
AcDbLine
10
19.95472
20
20.79999
11
19.95472
21
20.91811
0
LINE
5
53B
100
AcDbEntity
8
vector
6
ByLayer
62
3
370
-1
100
AcDbLine
10
19.95472
20
20.91811
11
19.48622
21
20.91811
0
LINE
5
53C
100
AcDbEntity
8
vector
6
ByLayer
62
3
370
-1
100
AcDbLine
10
19.48622
20
20.91811
11
19.48622
21
20.33405
0
LINE
5
53D
100
AcDbEntity
8
vector
6
ByLayer
62
3
370
-1
100
AcDbLine
10
19.48622
20
20.33405
11
19.36811
21
20.33405
0
LINE
5
53E
100
AcDbEntity
8
vector
6
ByLayer
62
3
370
-1
100
AcDbLine
10
19.36811
20
20.33405
11
19.36811
21
19.584045
0
LINE
5
53F
100
AcDbEntity
8
vector
6
ByLayer
62
3
370
-1
100
AcDbLine
10
19.36811
20
19.584045
11
19.48622
21
19.584045
0
LINE
5
540
100
AcDbEntity
8
vector
6
ByLayer
62
3
370
-1
100
AcDbLine
10
19.48622
20
19.584045
11
19.48622
21
18.415955
0
LINE
5
541
100
AcDbEntity
8
vector
6
ByLayer
62
3
370
-1
100
AcDbLine
10
19.48622
20
18.415955
11
19.36811
21
18.415955
0
LINE
5
542
100
AcDbEntity
8
vector
6
ByLayer
62
3
370
-1
100
AcDbLine
10
19.36811
20
18.415955
11
19.36811
21
17.66595
0
LINE
5
543
100
AcDbEntity
8
vector
6
ByLayer
62
3
370
-1
100
AcDbLine
10
19.36811
20
17.66595
11
19.48622
21
17.66595
0
LINE
5
544
100
AcDbEntity
8
vector
6
ByLayer
62
3
370
-1
100
AcDbLine
10
19.48622
20
17.66595
11
19.48622
21
17.08189
0
LINE
5
545
100
AcDbEntity
8
vector
6
ByLayer
62
3
370
-1
100
AcDbLine
10
19.48622
20
17.08189
11
19.95472
21
17.08189
0
LINE
5
546
100
AcDbEntity
8
vector
6
ByLayer
62
3
370
-1
100
AcDbLine
10
19.95472
20
17.08189
11
19.95472
21
17.20001
0
LINE
5
547
100
AcDbEntity
8
vector
6
ByLayer
62
256
370
-1
100
AcDbLine
10
19.68321
20
19.0001000516
11
19.68321
21
19.6751000516
0
ARC
5
548
100
AcDbEntity
8
vector
6
ByLayer
62
256
370
-1
100
AcDbCircle
10
19.73321
20
19.6751000516
40
0.05
100
AcDbArc
50
90
51
180
0
LINE
5
549
100
AcDbEntity
8
vector
6
ByLayer
62
256
370
-1
100
AcDbLine
10
19.73321
20
19.7251000516
11
20.62321
21
19.7251000516
0
ARC
5
54A
100
AcDbEntity
8
vector
6
ByLayer
62
256
370
-1
100
AcDbCircle
10
20.62321
20
19.6751000516
40
0.05
100
AcDbArc
50
3.81666561776e-13
51
90
0
LINE
5
54B
100
AcDbEntity
8
vector
6
ByLayer
62
256
370
-1
100
AcDbLine
10
19.68321
20
19.0001000516
11
19.68321
21
18.3251000516
0
ARC
5
54C
100
AcDbEntity
8
vector
6
ByLayer
62
256
370
-1
100
AcDbCircle
10
19.73321
20
18.3251000516
40
0.05
100
AcDbArc
50
180
51
270
0
LINE
5
54D
100
AcDbEntity
8
vector
6
ByLayer
62
256
370
-1
100
AcDbLine
10
19.73321
20
18.2751000516
11
20.62321
21
18.2751000516
0
LINE
5
54E
100
AcDbEntity
8
vector
6
ByLayer
62
256
370
-1
100
AcDbLine
10
20.67321
20
19.0001000516
11
20.67321
21
18.3251000516
0
ARC
5
54F
100
AcDbEntity
8
vector
6
ByLayer
62
256
370
-1
100
AcDbCircle
10
20.62321
20
18.3251000516
40
0.05
100
AcDbArc
50
270
51
0
0
LINE
5
550
100
AcDbEntity
8
vector
6
ByLayer
62
256
370
-1
100
AcDbLine
10
20.67321
20
19.6751000516
11
20.67321
21
19.0001000516
0
LINE
5
551
100
AcDbEntity
8
vector
6
ByLayer
62
3
370
-1
100
AcDbLine
10
22.83699
20
4.69499
11
22.83699
21
5.47499
0
LINE
5
552
100
AcDbEntity
8
vector
6
ByLayer
62
3
370
-1
100
AcDbLine
10
22.83699
20
5.47499
11
22.9551
21
5.47499
0
LINE
5
553
100
AcDbEntity
8
vector
6
ByLayer
62
3
370
-1
100
AcDbLine
10
22.9551
20
5.47499
11
22.9551
21
6.22499
0
LINE
5
554
100
AcDbEntity
8
vector
6
ByLayer
62
3
370
-1
100
AcDbLine
10
22.9551
20
6.22499
11
22.83699
21
6.22499
0
LINE
5
555
100
AcDbEntity
8
vector
6
ByLayer
62
3
370
-1
100
AcDbLine
10
22.83699
20
6.22499
11
22.83699
21
7.00499
0
LINE
5
556
100
AcDbEntity
8
vector
6
ByLayer
62
3
370
-1
100
AcDbLine
10
22.83699
20
7.00499
11
22.9551
21
7.00499
0
LINE
5
557
100
AcDbEntity
8
vector
6
ByLayer
62
3
370
-1
100
AcDbLine
10
22.9551
20
7.00499
11
22.9551
21
7.75499
0
LINE
5
558
100
AcDbEntity
8
vector
6
ByLayer
62
3
370
-1
100
AcDbLine
10
22.9551
20
7.75499
11
22.83699
21
7.75499
0
LINE
5
559
100
AcDbEntity
8
vector
6
ByLayer
62
3
370
-1
100
AcDbLine
10
22.83699
20
7.75499
11
22.83699
21
8.39998
0
LINE
5
55A
100
AcDbEntity
8
vector
6
ByLayer
62
3
370
-1
100
AcDbLine
10
22.83699
20
8.39998
11
22.36849
21
8.39998
0
LINE
5
55B
100
AcDbEntity
8
vector
6
ByLayer
62
3
370
-1
100
AcDbLine
10
22.36849
20
8.39998
11
22.36849
21
8.5181
0
LINE
5
55C
100
AcDbEntity
8
vector
6
ByLayer
62
3
370
-1
100
AcDbLine
10
22.36849
20
8.5181
11
21.86849
21
8.5181
0
LINE
5
55D
100
AcDbEntity
8
vector
6
ByLayer
62
3
370
-1
100
AcDbLine
10
21.86849
20
8.5181
11
21.86849
21
8.39998
0
LINE
5
55E
100
AcDbEntity
8
vector
6
ByLayer
62
3
370
-1
100
AcDbLine
10
21.86849
20
8.39998
11
21.4
21
8.39998
0
LINE
5
55F
100
AcDbEntity
8
vector
6
ByLayer
62
3
370
-1
100
AcDbLine
10
21.4
20
8.39998
11
21.4
21
7.75499
0
LINE
5
560
100
AcDbEntity
8
vector
6
ByLayer
62
3
370
-1
100
AcDbLine
10
21.4
20
7.75499
11
21.28188
21
7.75499
0
LINE
5
561
100
AcDbEntity
8
vector
6
ByLayer
62
3
370
-1
100
AcDbLine
10
21.28188
20
7.75499
11
21.28188
21
7.00499
0
LINE
5
562
100
AcDbEntity
8
vector
6
ByLayer
62
3
370
-1
100
AcDbLine
10
21.28188
20
7.00499
11
21.4
21
7.00499
0
LINE
5
563
100
AcDbEntity
8
vector
6
ByLayer
62
3
370
-1
100
AcDbLine
10
21.4
20
7.00499
11
21.4
21
6.22499
0
LINE
5
564
100
AcDbEntity
8
vector
6
ByLayer
62
3
370
-1
100
AcDbLine
10
21.4
20
6.22499
11
21.28188
21
6.22499
0
LINE
5
565
100
AcDbEntity
8
vector
6
ByLayer
62
3
370
-1
100
AcDbLine
10
21.28188
20
6.22499
11
21.28188
21
5.47499
0
LINE
5
566
100
AcDbEntity
8
vector
6
ByLayer
62
3
370
-1
100
AcDbLine
10
21.28188
20
5.47499
11
21.4
21
5.47499
0
LINE
5
567
100
AcDbEntity
8
vector
6
ByLayer
62
3
370
-1
100
AcDbLine
10
21.4
20
5.47499
11
21.4
21
4.69499
0
LINE
5
568
100
AcDbEntity
8
vector
6
ByLayer
62
3
370
-1
100
AcDbLine
10
21.4
20
4.69499
11
21.28188
21
4.69499
0
LINE
5
569
100
AcDbEntity
8
vector
6
ByLayer
62
3
370
-1
100
AcDbLine
10
21.28188
20
4.69499
11
21.28188
21
3.94499
0
LINE
5
56A
100
AcDbEntity
8
vector
6
ByLayer
62
3
370
-1
100
AcDbLine
10
21.28188
20
3.94499
11
21.4
21
3.94499
0
LINE
5
56B
100
AcDbEntity
8
vector
6
ByLayer
62
3
370
-1
100
AcDbLine
10
21.4
20
3.94499
11
21.4
21
3.3
0
LINE
5
56C
100
AcDbEntity
8
vector
6
ByLayer
62
3
370
-1
100
AcDbLine
10
22.83699
20
3.3
11
22.83699
21
3.94499
0
LINE
5
56D
100
AcDbEntity
8
vector
6
ByLayer
62
3
370
-1
100
AcDbLine
10
22.83699
20
3.94499
11
22.9551
21
3.94499
0
LINE
5
56E
100
AcDbEntity
8
vector
6
ByLayer
62
3
370
-1
100
AcDbLine
10
22.9551
20
3.94499
11
22.9551
21
4.69499
0
LINE
5
56F
100
AcDbEntity
8
vector
6
ByLayer
62
3
370
-1
100
AcDbLine
10
22.9551
20
4.69499
11
22.83699
21
4.69499
0
LINE
5
570
100
AcDbEntity
8
vector
6
ByLayer
62
3
370
-1
100
AcDbLine
10
21.4
20
0.7
11
21.86849
21
0.7
0
LINE
5
571
100
AcDbEntity
8
vector
6
ByLayer
62
3
370
-1
100
AcDbLine
10
21.86849
20
0.7
11
21.86849
21
0.58188
0
LINE
5
572
100
AcDbEntity
8
vector
6
ByLayer
62
3
370
-1
100
AcDbLine
10
21.86849
20
0.58188
11
22.36849
21
0.58188
0
LINE
5
573
100
AcDbEntity
8
vector
6
ByLayer
62
3
370
-1
100
AcDbLine
10
22.36849
20
0.58188
11
22.36849
21
0.7
0
LINE
5
574
100
AcDbEntity
8
vector
6
ByLayer
62
3
370
-1
100
AcDbLine
10
22.36849
20
0.7
11
22.83699
21
0.7
0
LINE
5
575
100
AcDbEntity
8
vector
6
ByLayer
62
3
370
-1
100
AcDbLine
10
22.83699
20
1.77
11
22.83699
21
2.55
0
LINE
5
576
100
AcDbEntity
8
vector
6
ByLayer
62
3
370
-1
100
AcDbLine
10
22.83699
20
2.55
11
22.9551
21
2.55
0
LINE
5
577
100
AcDbEntity
8
vector
6
ByLayer
62
3
370
-1
100
AcDbLine
10
22.9551
20
2.55
11
22.9551
21
3.3
0
LINE
5
578
100
AcDbEntity
8
vector
6
ByLayer
62
3
370
-1
100
AcDbLine
10
22.9551
20
3.3
11
22.83699
21
3.3
0
LINE
5
579
100
AcDbEntity
8
vector
6
ByLayer
62
3
370
-1
100
AcDbLine
10
21.4
20
3.3
11
21.28188
21
3.3
0
LINE
5
57A
100
AcDbEntity
8
vector
6
ByLayer
62
3
370
-1
100
AcDbLine
10
21.28188
20
3.3
11
21.28188
21
2.55
0
LINE
5
57B
100
AcDbEntity
8
vector
6
ByLayer
62
3
370
-1
100
AcDbLine
10
21.28188
20
2.55
11
21.4
21
2.55
0
LINE
5
57C
100
AcDbEntity
8
vector
6
ByLayer
62
3
370
-1
100
AcDbLine
10
21.4
20
2.55
11
21.4
21
1.77
0
LINE
5
57D
100
AcDbEntity
8
vector
6
ByLayer
62
3
370
-1
100
AcDbLine
10
21.4
20
1.77
11
21.28188
21
1.77
0
LINE
5
57E
100
AcDbEntity
8
vector
6
ByLayer
62
3
370
-1
100
AcDbLine
10
21.28188
20
1.77
11
21.28188
21
1.02
0
LINE
5
57F
100
AcDbEntity
8
vector
6
ByLayer
62
3
370
-1
100
AcDbLine
10
21.28188
20
1.02
11
21.4
21
1.02
0
LINE
5
580
100
AcDbEntity
8
vector
6
ByLayer
62
3
370
-1
100
AcDbLine
10
22.83699
20
1.02
11
22.9551
21
1.02
0
LINE
5
581
100
AcDbEntity
8
vector
6
ByLayer
62
3
370
-1
100
AcDbLine
10
22.9551
20
1.02
11
22.9551
21
1.77
0
LINE
5
582
100
AcDbEntity
8
vector
6
ByLayer
62
3
370
-1
100
AcDbLine
10
22.9551
20
1.77
11
22.83699
21
1.77
0
LINE
5
583
100
AcDbEntity
8
vector
6
ByLayer
62
256
370
-1
100
AcDbLine
10
21.4
20
0.7
11
21.4
21
1.02
0
LINE
5
584
100
AcDbEntity
8
vector
6
ByLayer
62
256
370
-1
100
AcDbLine
10
22.83699
20
0.7
11
22.83699
21
1.02
0
LINE
5
585
100
AcDbEntity
8
vector
6
ByLayer
62
3
370
-1
100
AcDbLine
10
22.73699
20
15.19499
11
22.73699
21
15.97499
0
LINE
5
586
100
AcDbEntity
8
vector
6
ByLayer
62
3
370
-1
100
AcDbLine
10
22.73699
20
15.97499
11
22.8551
21
15.97499
0
LINE
5
587
100
AcDbEntity
8
vector
6
ByLayer
62
3
370
-1
100
AcDbLine
10
22.8551
20
15.97499
11
22.8551
21
16.72499
0
LINE
5
588
100
AcDbEntity
8
vector
6
ByLayer
62
3
370
-1
100
AcDbLine
10
22.8551
20
16.72499
11
22.73699
21
16.72499
0
LINE
5
589
100
AcDbEntity
8
vector
6
ByLayer
62
3
370
-1
100
AcDbLine
10
22.73699
20
16.72499
11
22.73699
21
17.50499
0
LINE
5
58A
100
AcDbEntity
8
vector
6
ByLayer
62
3
370
-1
100
AcDbLine
10
22.73699
20
17.50499
11
22.8551
21
17.50499
0
LINE
5
58B
100
AcDbEntity
8
vector
6
ByLayer
62
3
370
-1
100
AcDbLine
10
22.8551
20
17.50499
11
22.8551
21
18.25499
0
LINE
5
58C
100
AcDbEntity
8
vector
6
ByLayer
62
3
370
-1
100
AcDbLine
10
22.8551
20
18.25499
11
22.73699
21
18.25499
0
LINE
5
58D
100
AcDbEntity
8
vector
6
ByLayer
62
3
370
-1
100
AcDbLine
10
22.73699
20
18.25499
11
22.73699
21
18.89998
0
LINE
5
58E
100
AcDbEntity
8
vector
6
ByLayer
62
3
370
-1
100
AcDbLine
10
22.73699
20
18.89998
11
22.26849
21
18.89998
0
LINE
5
58F
100
AcDbEntity
8
vector
6
ByLayer
62
3
370
-1
100
AcDbLine
10
22.26849
20
18.89998
11
22.26849
21
19.0181
0
LINE
5
590
100
AcDbEntity
8
vector
6
ByLayer
62
3
370
-1
100
AcDbLine
10
22.26849
20
19.0181
11
21.76849
21
19.0181
0
LINE
5
591
100
AcDbEntity
8
vector
6
ByLayer
62
3
370
-1
100
AcDbLine
10
21.76849
20
19.0181
11
21.76849
21
18.89998
0
LINE
5
592
100
AcDbEntity
8
vector
6
ByLayer
62
3
370
-1
100
AcDbLine
10
21.76849
20
18.89998
11
21.3
21
18.89998
0
LINE
5
593
100
AcDbEntity
8
vector
6
ByLayer
62
3
370
-1
100
AcDbLine
10
21.3
20
18.89998
11
21.3
21
18.25499
0
LINE
5
594
100
AcDbEntity
8
vector
6
ByLayer
62
3
370
-1
100
AcDbLine
10
21.3
20
18.25499
11
21.18188
21
18.25499
0
LINE
5
595
100
AcDbEntity
8
vector
6
ByLayer
62
3
370
-1
100
AcDbLine
10
21.18188
20
18.25499
11
21.18188
21
17.50499
0
LINE
5
596
100
AcDbEntity
8
vector
6
ByLayer
62
3
370
-1
100
AcDbLine
10
21.18188
20
17.50499
11
21.3
21
17.50499
0
LINE
5
597
100
AcDbEntity
8
vector
6
ByLayer
62
3
370
-1
100
AcDbLine
10
21.3
20
17.50499
11
21.3
21
16.72499
0
LINE
5
598
100
AcDbEntity
8
vector
6
ByLayer
62
3
370
-1
100
AcDbLine
10
21.3
20
16.72499
11
21.18188
21
16.72499
0
LINE
5
599
100
AcDbEntity
8
vector
6
ByLayer
62
3
370
-1
100
AcDbLine
10
21.18188
20
16.72499
11
21.18188
21
15.97499
0
LINE
5
59A
100
AcDbEntity
8
vector
6
ByLayer
62
3
370
-1
100
AcDbLine
10
21.18188
20
15.97499
11
21.3
21
15.97499
0
LINE
5
59B
100
AcDbEntity
8
vector
6
ByLayer
62
3
370
-1
100
AcDbLine
10
21.3
20
15.97499
11
21.3
21
15.19499
0
LINE
5
59C
100
AcDbEntity
8
vector
6
ByLayer
62
3
370
-1
100
AcDbLine
10
21.3
20
15.19499
11
21.18188
21
15.19499
0
LINE
5
59D
100
AcDbEntity
8
vector
6
ByLayer
62
3
370
-1
100
AcDbLine
10
21.18188
20
15.19499
11
21.18188
21
14.44499
0
LINE
5
59E
100
AcDbEntity
8
vector
6
ByLayer
62
3
370
-1
100
AcDbLine
10
21.18188
20
14.44499
11
21.3
21
14.44499
0
LINE
5
59F
100
AcDbEntity
8
vector
6
ByLayer
62
3
370
-1
100
AcDbLine
10
21.3
20
14.44499
11
21.3
21
13.8
0
LINE
5
5A0
100
AcDbEntity
8
vector
6
ByLayer
62
3
370
-1
100
AcDbLine
10
22.73699
20
13.8
11
22.73699
21
14.44499
0
LINE
5
5A1
100
AcDbEntity
8
vector
6
ByLayer
62
3
370
-1
100
AcDbLine
10
22.73699
20
14.44499
11
22.8551
21
14.44499
0
LINE
5
5A2
100
AcDbEntity
8
vector
6
ByLayer
62
3
370
-1
100
AcDbLine
10
22.8551
20
14.44499
11
22.8551
21
15.19499
0
LINE
5
5A3
100
AcDbEntity
8
vector
6
ByLayer
62
3
370
-1
100
AcDbLine
10
22.8551
20
15.19499
11
22.73699
21
15.19499
0
LINE
5
5A4
100
AcDbEntity
8
vector
6
ByLayer
62
3
370
-1
100
AcDbLine
10
21.3
20
11.2
11
21.76849
21
11.2
0
LINE
5
5A5
100
AcDbEntity
8
vector
6
ByLayer
62
3
370
-1
100
AcDbLine
10
21.76849
20
11.2
11
21.76849
21
11.08188
0
LINE
5
5A6
100
AcDbEntity
8
vector
6
ByLayer
62
3
370
-1
100
AcDbLine
10
21.76849
20
11.08188
11
22.26849
21
11.08188
0
LINE
5
5A7
100
AcDbEntity
8
vector
6
ByLayer
62
3
370
-1
100
AcDbLine
10
22.26849
20
11.08188
11
22.26849
21
11.2
0
LINE
5
5A8
100
AcDbEntity
8
vector
6
ByLayer
62
3
370
-1
100
AcDbLine
10
22.26849
20
11.2
11
22.73699
21
11.2
0
LINE
5
5A9
100
AcDbEntity
8
vector
6
ByLayer
62
3
370
-1
100
AcDbLine
10
22.73699
20
12.27
11
22.73699
21
13.05
0
LINE
5
5AA
100
AcDbEntity
8
vector
6
ByLayer
62
3
370
-1
100
AcDbLine
10
22.73699
20
13.05
11
22.8551
21
13.05
0
LINE
5
5AB
100
AcDbEntity
8
vector
6
ByLayer
62
3
370
-1
100
AcDbLine
10
22.8551
20
13.05
11
22.8551
21
13.8
0
LINE
5
5AC
100
AcDbEntity
8
vector
6
ByLayer
62
3
370
-1
100
AcDbLine
10
22.8551
20
13.8
11
22.73699
21
13.8
0
LINE
5
5AD
100
AcDbEntity
8
vector
6
ByLayer
62
3
370
-1
100
AcDbLine
10
21.3
20
13.8
11
21.18188
21
13.8
0
LINE
5
5AE
100
AcDbEntity
8
vector
6
ByLayer
62
3
370
-1
100
AcDbLine
10
21.18188
20
13.8
11
21.18188
21
13.05
0
LINE
5
5AF
100
AcDbEntity
8
vector
6
ByLayer
62
3
370
-1
100
AcDbLine
10
21.18188
20
13.05
11
21.3
21
13.05
0
LINE
5
5B0
100
AcDbEntity
8
vector
6
ByLayer
62
3
370
-1
100
AcDbLine
10
21.3
20
13.05
11
21.3
21
12.27
0
LINE
5
5B1
100
AcDbEntity
8
vector
6
ByLayer
62
3
370
-1
100
AcDbLine
10
21.3
20
12.27
11
21.18188
21
12.27
0
LINE
5
5B2
100
AcDbEntity
8
vector
6
ByLayer
62
3
370
-1
100
AcDbLine
10
21.18188
20
12.27
11
21.18188
21
11.52
0
LINE
5
5B3
100
AcDbEntity
8
vector
6
ByLayer
62
3
370
-1
100
AcDbLine
10
21.18188
20
11.52
11
21.3
21
11.52
0
LINE
5
5B4
100
AcDbEntity
8
vector
6
ByLayer
62
3
370
-1
100
AcDbLine
10
22.73699
20
11.52
11
22.8551
21
11.52
0
LINE
5
5B5
100
AcDbEntity
8
vector
6
ByLayer
62
3
370
-1
100
AcDbLine
10
22.8551
20
11.52
11
22.8551
21
12.27
0
LINE
5
5B6
100
AcDbEntity
8
vector
6
ByLayer
62
3
370
-1
100
AcDbLine
10
22.8551
20
12.27
11
22.73699
21
12.27
0
LINE
5
5B7
100
AcDbEntity
8
vector
6
ByLayer
62
256
370
-1
100
AcDbLine
10
21.3
20
11.2
11
21.3
21
11.52
0
LINE
5
5B8
100
AcDbEntity
8
vector
6
ByLayer
62
256
370
-1
100
AcDbLine
10
22.73699
20
11.2
11
22.73699
21
11.52
0
ENDSEC
0
SECTION
2
OBJECTS
0
DICTIONARY
5
C
330
0
100
AcDbDictionary
281
1
3
ACAD_GROUP
350
D
0
DICTIONARY
5
D
330
C
100
AcDbDictionary
281
1
0
ENDSEC
0
EOF
