G04 (created by PCBNEW (2013-jul-07)-stable) date Thu 17 Jan 2019 05:41:25 PM PST*
%MOIN*%
G04 Gerber Fmt 3.4, Leading zero omitted, Abs format*
%FSLAX34Y34*%
G01*
G70*
G90*
G04 APERTURE LIST*
%ADD10C,0.00590551*%
%ADD11R,0.07X0.07*%
%ADD12C,0.07*%
%ADD13R,0.06X0.06*%
%ADD14C,0.06*%
%ADD15C,0.01*%
G04 APERTURE END LIST*
G54D10*
G54D11*
X22500Y-28200D03*
G54D12*
X23500Y-28200D03*
X22500Y-29200D03*
X23500Y-29200D03*
X22500Y-30200D03*
X23500Y-30200D03*
X22500Y-31200D03*
X23500Y-31200D03*
X22500Y-32200D03*
X23500Y-32200D03*
G54D13*
X27500Y-22500D03*
G54D14*
X28500Y-22500D03*
X29500Y-22500D03*
G54D13*
X27500Y-25000D03*
G54D14*
X28500Y-25000D03*
X29500Y-25000D03*
G54D13*
X27500Y-27500D03*
G54D14*
X28500Y-27500D03*
X29500Y-27500D03*
G54D13*
X27500Y-30000D03*
G54D14*
X28500Y-30000D03*
X29500Y-30000D03*
G54D13*
X27500Y-32500D03*
G54D14*
X28500Y-32500D03*
X29500Y-32500D03*
G54D13*
X27500Y-35000D03*
G54D14*
X28500Y-35000D03*
X29500Y-35000D03*
G54D13*
X27500Y-37500D03*
G54D14*
X28500Y-37500D03*
X29500Y-37500D03*
G54D15*
X27500Y-37500D02*
X27500Y-35000D01*
X27500Y-35000D02*
X27500Y-32500D01*
X27500Y-32500D02*
X27500Y-30000D01*
X27500Y-25000D02*
X27500Y-22500D01*
X27500Y-27500D02*
X27500Y-25000D01*
X27500Y-28200D02*
X23500Y-28200D01*
X27500Y-30000D02*
X27500Y-28200D01*
X27500Y-28200D02*
X27500Y-27500D01*
X28500Y-37500D02*
X28500Y-35000D01*
X28500Y-35000D02*
X28500Y-32500D01*
X28500Y-32500D02*
X28500Y-30000D01*
X28500Y-30000D02*
X28500Y-27500D01*
X28500Y-27500D02*
X28500Y-25000D01*
X28500Y-25000D02*
X28500Y-22500D01*
X23500Y-34321D02*
X23500Y-32200D01*
X27128Y-37950D02*
X23500Y-34321D01*
X29049Y-37950D02*
X27128Y-37950D01*
X29500Y-37500D02*
X29049Y-37950D01*
M02*
