M48
;DRILL file {Pcbnew (2013-jul-07)-stable} date Thu 17 Jan 2019 05:41:27 PM PST
;FORMAT={-:-/ absolute / inch / decimal}
FMAT,2
INCH,TZ
T1C0.040
%
G90
G05
M72
T1
X2.25Y-2.82
X2.25Y-2.92
X2.25Y-3.02
X2.25Y-3.12
X2.25Y-3.22
X2.35Y-2.82
X2.35Y-2.92
X2.35Y-3.02
X2.35Y-3.12
X2.35Y-3.22
X2.75Y-2.25
X2.75Y-2.5
X2.75Y-2.75
X2.75Y-3.
X2.75Y-3.25
X2.75Y-3.5
X2.75Y-3.75
X2.85Y-2.25
X2.85Y-2.5
X2.85Y-2.75
X2.85Y-3.
X2.85Y-3.25
X2.85Y-3.5
X2.85Y-3.75
X2.95Y-2.25
X2.95Y-2.5
X2.95Y-2.75
X2.95Y-3.
X2.95Y-3.25
X2.95Y-3.5
X2.95Y-3.75
T0
M30
