G04 (created by PCBNEW (2013-jul-07)-stable) date Thu 17 Jan 2019 05:41:25 PM PST*
%MOIN*%
G04 Gerber Fmt 3.4, Leading zero omitted, Abs format*
%FSLAX34Y34*%
G01*
G70*
G90*
G04 APERTURE LIST*
%ADD10C,0.00590551*%
%ADD11C,0.008*%
%ADD12C,0.015*%
%ADD13C,0.01*%
G04 APERTURE END LIST*
G54D10*
G54D11*
X25561Y-27295D02*
X25371Y-27161D01*
X25561Y-27066D02*
X25161Y-27066D01*
X25161Y-27219D01*
X25180Y-27257D01*
X25200Y-27276D01*
X25238Y-27295D01*
X25295Y-27295D01*
X25333Y-27276D01*
X25352Y-27257D01*
X25371Y-27219D01*
X25371Y-27066D01*
X25561Y-27523D02*
X25542Y-27485D01*
X25523Y-27466D01*
X25485Y-27447D01*
X25371Y-27447D01*
X25333Y-27466D01*
X25314Y-27485D01*
X25295Y-27523D01*
X25295Y-27580D01*
X25314Y-27619D01*
X25333Y-27638D01*
X25371Y-27657D01*
X25485Y-27657D01*
X25523Y-27638D01*
X25542Y-27619D01*
X25561Y-27580D01*
X25561Y-27523D01*
X25561Y-28000D02*
X25161Y-28000D01*
X25542Y-28000D02*
X25561Y-27961D01*
X25561Y-27885D01*
X25542Y-27847D01*
X25523Y-27828D01*
X25485Y-27809D01*
X25371Y-27809D01*
X25333Y-27828D01*
X25314Y-27847D01*
X25295Y-27885D01*
X25295Y-27961D01*
X25314Y-28000D01*
X25542Y-28342D02*
X25561Y-28304D01*
X25561Y-28228D01*
X25542Y-28190D01*
X25504Y-28171D01*
X25352Y-28171D01*
X25314Y-28190D01*
X25295Y-28228D01*
X25295Y-28304D01*
X25314Y-28342D01*
X25352Y-28361D01*
X25390Y-28361D01*
X25428Y-28171D01*
X25561Y-28590D02*
X25542Y-28552D01*
X25523Y-28533D01*
X25485Y-28514D01*
X25371Y-28514D01*
X25333Y-28533D01*
X25314Y-28552D01*
X25295Y-28590D01*
X25295Y-28647D01*
X25314Y-28685D01*
X25333Y-28704D01*
X25371Y-28723D01*
X25485Y-28723D01*
X25523Y-28704D01*
X25542Y-28685D01*
X25561Y-28647D01*
X25561Y-28590D01*
X25542Y-28876D02*
X25561Y-28914D01*
X25561Y-28990D01*
X25542Y-29028D01*
X25504Y-29047D01*
X25485Y-29047D01*
X25447Y-29028D01*
X25428Y-28990D01*
X25428Y-28933D01*
X25409Y-28895D01*
X25371Y-28876D01*
X25352Y-28876D01*
X25314Y-28895D01*
X25295Y-28933D01*
X25295Y-28990D01*
X25314Y-29028D01*
X25295Y-29161D02*
X25295Y-29314D01*
X25161Y-29219D02*
X25504Y-29219D01*
X25542Y-29238D01*
X25561Y-29276D01*
X25561Y-29314D01*
X25561Y-29619D02*
X25352Y-29619D01*
X25314Y-29600D01*
X25295Y-29561D01*
X25295Y-29485D01*
X25314Y-29447D01*
X25542Y-29619D02*
X25561Y-29580D01*
X25561Y-29485D01*
X25542Y-29447D01*
X25504Y-29428D01*
X25466Y-29428D01*
X25428Y-29447D01*
X25409Y-29485D01*
X25409Y-29580D01*
X25390Y-29619D01*
X25295Y-29752D02*
X25295Y-29904D01*
X25161Y-29809D02*
X25504Y-29809D01*
X25542Y-29828D01*
X25561Y-29866D01*
X25561Y-29904D01*
X25561Y-30342D02*
X25161Y-30342D01*
X25447Y-30476D01*
X25161Y-30609D01*
X25561Y-30609D01*
X25295Y-30971D02*
X25561Y-30971D01*
X25295Y-30800D02*
X25504Y-30800D01*
X25542Y-30819D01*
X25561Y-30857D01*
X25561Y-30914D01*
X25542Y-30952D01*
X25523Y-30971D01*
X25561Y-31219D02*
X25542Y-31180D01*
X25504Y-31161D01*
X25161Y-31161D01*
X25295Y-31314D02*
X25295Y-31466D01*
X25161Y-31371D02*
X25504Y-31371D01*
X25542Y-31390D01*
X25561Y-31428D01*
X25561Y-31466D01*
X25561Y-31600D02*
X25295Y-31600D01*
X25161Y-31600D02*
X25180Y-31580D01*
X25200Y-31600D01*
X25180Y-31619D01*
X25161Y-31600D01*
X25200Y-31600D01*
X25295Y-31790D02*
X25695Y-31790D01*
X25314Y-31790D02*
X25295Y-31828D01*
X25295Y-31904D01*
X25314Y-31942D01*
X25333Y-31961D01*
X25371Y-31980D01*
X25485Y-31980D01*
X25523Y-31961D01*
X25542Y-31942D01*
X25561Y-31904D01*
X25561Y-31828D01*
X25542Y-31790D01*
X25561Y-32209D02*
X25542Y-32171D01*
X25504Y-32152D01*
X25161Y-32152D01*
X25542Y-32514D02*
X25561Y-32476D01*
X25561Y-32400D01*
X25542Y-32361D01*
X25504Y-32342D01*
X25352Y-32342D01*
X25314Y-32361D01*
X25295Y-32400D01*
X25295Y-32476D01*
X25314Y-32514D01*
X25352Y-32533D01*
X25390Y-32533D01*
X25428Y-32342D01*
X25561Y-32666D02*
X25295Y-32876D01*
X25295Y-32666D02*
X25561Y-32876D01*
X25542Y-33180D02*
X25561Y-33142D01*
X25561Y-33066D01*
X25542Y-33028D01*
X25504Y-33009D01*
X25352Y-33009D01*
X25314Y-33028D01*
X25295Y-33066D01*
X25295Y-33142D01*
X25314Y-33180D01*
X25352Y-33199D01*
X25390Y-33199D01*
X25428Y-33009D01*
X25561Y-33371D02*
X25295Y-33371D01*
X25371Y-33371D02*
X25333Y-33390D01*
X25314Y-33409D01*
X25295Y-33447D01*
X25295Y-33485D01*
X25801Y-26923D02*
X25801Y-27171D01*
X25954Y-27038D01*
X25954Y-27095D01*
X25973Y-27133D01*
X25992Y-27152D01*
X26030Y-27171D01*
X26125Y-27171D01*
X26163Y-27152D01*
X26182Y-27133D01*
X26201Y-27095D01*
X26201Y-26980D01*
X26182Y-26942D01*
X26163Y-26923D01*
X26049Y-27342D02*
X26049Y-27647D01*
X26201Y-27838D02*
X25801Y-27838D01*
X25801Y-27990D01*
X25820Y-28028D01*
X25840Y-28047D01*
X25878Y-28066D01*
X25935Y-28066D01*
X25973Y-28047D01*
X25992Y-28028D01*
X26011Y-27990D01*
X26011Y-27838D01*
X26201Y-28238D02*
X25935Y-28238D01*
X25801Y-28238D02*
X25820Y-28219D01*
X25840Y-28238D01*
X25820Y-28257D01*
X25801Y-28238D01*
X25840Y-28238D01*
X25935Y-28428D02*
X26201Y-28428D01*
X25973Y-28428D02*
X25954Y-28447D01*
X25935Y-28485D01*
X25935Y-28542D01*
X25954Y-28580D01*
X25992Y-28600D01*
X26201Y-28600D01*
X26087Y-29076D02*
X26087Y-29266D01*
X26201Y-29038D02*
X25801Y-29171D01*
X26201Y-29304D01*
X26201Y-29609D02*
X25801Y-29609D01*
X26182Y-29609D02*
X26201Y-29571D01*
X26201Y-29495D01*
X26182Y-29457D01*
X26163Y-29438D01*
X26125Y-29419D01*
X26011Y-29419D01*
X25973Y-29438D01*
X25954Y-29457D01*
X25935Y-29495D01*
X25935Y-29571D01*
X25954Y-29609D01*
X26201Y-29971D02*
X25992Y-29971D01*
X25954Y-29952D01*
X25935Y-29914D01*
X25935Y-29838D01*
X25954Y-29800D01*
X26182Y-29971D02*
X26201Y-29933D01*
X26201Y-29838D01*
X26182Y-29800D01*
X26144Y-29780D01*
X26106Y-29780D01*
X26068Y-29800D01*
X26049Y-29838D01*
X26049Y-29933D01*
X26030Y-29971D01*
X25935Y-30161D02*
X26335Y-30161D01*
X25954Y-30161D02*
X25935Y-30200D01*
X25935Y-30276D01*
X25954Y-30314D01*
X25973Y-30333D01*
X26011Y-30352D01*
X26125Y-30352D01*
X26163Y-30333D01*
X26182Y-30314D01*
X26201Y-30276D01*
X26201Y-30200D01*
X26182Y-30161D01*
X25935Y-30466D02*
X25935Y-30619D01*
X25801Y-30523D02*
X26144Y-30523D01*
X26182Y-30542D01*
X26201Y-30580D01*
X26201Y-30619D01*
X26182Y-30904D02*
X26201Y-30866D01*
X26201Y-30790D01*
X26182Y-30752D01*
X26144Y-30733D01*
X25992Y-30733D01*
X25954Y-30752D01*
X25935Y-30790D01*
X25935Y-30866D01*
X25954Y-30904D01*
X25992Y-30923D01*
X26030Y-30923D01*
X26068Y-30733D01*
X26201Y-31095D02*
X25935Y-31095D01*
X26011Y-31095D02*
X25973Y-31114D01*
X25954Y-31133D01*
X25935Y-31171D01*
X25935Y-31209D01*
X25801Y-31590D02*
X26201Y-31723D01*
X25801Y-31857D01*
X25801Y-32066D02*
X25801Y-32104D01*
X25820Y-32142D01*
X25840Y-32161D01*
X25878Y-32180D01*
X25954Y-32199D01*
X26049Y-32199D01*
X26125Y-32180D01*
X26163Y-32161D01*
X26182Y-32142D01*
X26201Y-32104D01*
X26201Y-32066D01*
X26182Y-32028D01*
X26163Y-32009D01*
X26125Y-31990D01*
X26049Y-31971D01*
X25954Y-31971D01*
X25878Y-31990D01*
X25840Y-32009D01*
X25820Y-32028D01*
X25801Y-32066D01*
X26163Y-32371D02*
X26182Y-32390D01*
X26201Y-32371D01*
X26182Y-32352D01*
X26163Y-32371D01*
X26201Y-32371D01*
X26201Y-32771D02*
X26201Y-32542D01*
X26201Y-32657D02*
X25801Y-32657D01*
X25859Y-32619D01*
X25897Y-32580D01*
X25916Y-32542D01*
X26201Y-33476D02*
X26011Y-33342D01*
X26201Y-33247D02*
X25801Y-33247D01*
X25801Y-33399D01*
X25820Y-33438D01*
X25840Y-33457D01*
X25878Y-33476D01*
X25935Y-33476D01*
X25973Y-33457D01*
X25992Y-33438D01*
X26011Y-33399D01*
X26011Y-33247D01*
X26201Y-33857D02*
X26201Y-33628D01*
X26201Y-33742D02*
X25801Y-33742D01*
X25859Y-33704D01*
X25897Y-33666D01*
X25916Y-33628D01*
X26575Y-27904D02*
X26841Y-27980D01*
X26651Y-28057D01*
X26841Y-28133D01*
X26575Y-28209D01*
X26575Y-28323D02*
X26841Y-28400D01*
X26651Y-28476D01*
X26841Y-28552D01*
X26575Y-28628D01*
X26575Y-28742D02*
X26841Y-28819D01*
X26651Y-28895D01*
X26841Y-28971D01*
X26575Y-29047D01*
X26803Y-29200D02*
X26822Y-29219D01*
X26841Y-29200D01*
X26822Y-29180D01*
X26803Y-29200D01*
X26841Y-29200D01*
X26841Y-29390D02*
X26575Y-29390D01*
X26441Y-29390D02*
X26460Y-29371D01*
X26480Y-29390D01*
X26460Y-29409D01*
X26441Y-29390D01*
X26480Y-29390D01*
X26841Y-29638D02*
X26822Y-29600D01*
X26803Y-29580D01*
X26765Y-29561D01*
X26651Y-29561D01*
X26613Y-29580D01*
X26594Y-29600D01*
X26575Y-29638D01*
X26575Y-29695D01*
X26594Y-29733D01*
X26613Y-29752D01*
X26651Y-29771D01*
X26765Y-29771D01*
X26803Y-29752D01*
X26822Y-29733D01*
X26841Y-29695D01*
X26841Y-29638D01*
X26841Y-29942D02*
X26575Y-29942D01*
X26651Y-29942D02*
X26613Y-29961D01*
X26594Y-29980D01*
X26575Y-30019D01*
X26575Y-30057D01*
X26841Y-30247D02*
X26822Y-30209D01*
X26803Y-30190D01*
X26765Y-30171D01*
X26651Y-30171D01*
X26613Y-30190D01*
X26594Y-30209D01*
X26575Y-30247D01*
X26575Y-30304D01*
X26594Y-30342D01*
X26613Y-30361D01*
X26651Y-30380D01*
X26765Y-30380D01*
X26803Y-30361D01*
X26822Y-30342D01*
X26841Y-30304D01*
X26841Y-30247D01*
X26841Y-30723D02*
X26441Y-30723D01*
X26822Y-30723D02*
X26841Y-30685D01*
X26841Y-30609D01*
X26822Y-30571D01*
X26803Y-30552D01*
X26765Y-30533D01*
X26651Y-30533D01*
X26613Y-30552D01*
X26594Y-30571D01*
X26575Y-30609D01*
X26575Y-30685D01*
X26594Y-30723D01*
X26822Y-31066D02*
X26841Y-31028D01*
X26841Y-30952D01*
X26822Y-30914D01*
X26784Y-30895D01*
X26632Y-30895D01*
X26594Y-30914D01*
X26575Y-30952D01*
X26575Y-31028D01*
X26594Y-31066D01*
X26632Y-31085D01*
X26670Y-31085D01*
X26708Y-30895D01*
X26841Y-31314D02*
X26822Y-31276D01*
X26803Y-31257D01*
X26765Y-31238D01*
X26651Y-31238D01*
X26613Y-31257D01*
X26594Y-31276D01*
X26575Y-31314D01*
X26575Y-31371D01*
X26594Y-31409D01*
X26613Y-31428D01*
X26651Y-31447D01*
X26765Y-31447D01*
X26803Y-31428D01*
X26822Y-31409D01*
X26841Y-31371D01*
X26841Y-31314D01*
X26803Y-31619D02*
X26822Y-31638D01*
X26841Y-31619D01*
X26822Y-31600D01*
X26803Y-31619D01*
X26841Y-31619D01*
X26822Y-31980D02*
X26841Y-31942D01*
X26841Y-31866D01*
X26822Y-31828D01*
X26803Y-31809D01*
X26765Y-31790D01*
X26651Y-31790D01*
X26613Y-31809D01*
X26594Y-31828D01*
X26575Y-31866D01*
X26575Y-31942D01*
X26594Y-31980D01*
X26841Y-32209D02*
X26822Y-32171D01*
X26803Y-32152D01*
X26765Y-32133D01*
X26651Y-32133D01*
X26613Y-32152D01*
X26594Y-32171D01*
X26575Y-32209D01*
X26575Y-32266D01*
X26594Y-32304D01*
X26613Y-32323D01*
X26651Y-32342D01*
X26765Y-32342D01*
X26803Y-32323D01*
X26822Y-32304D01*
X26841Y-32266D01*
X26841Y-32209D01*
X26841Y-32514D02*
X26575Y-32514D01*
X26613Y-32514D02*
X26594Y-32533D01*
X26575Y-32571D01*
X26575Y-32628D01*
X26594Y-32666D01*
X26632Y-32685D01*
X26841Y-32685D01*
X26632Y-32685D02*
X26594Y-32704D01*
X26575Y-32742D01*
X26575Y-32800D01*
X26594Y-32838D01*
X26632Y-32857D01*
X26841Y-32857D01*
G54D12*
X24900Y-26200D02*
X24900Y-34200D01*
X24900Y-34200D02*
X21100Y-34200D01*
X21100Y-34200D02*
X21100Y-26200D01*
X21100Y-26200D02*
X24900Y-26200D01*
X20126Y-27483D02*
X20126Y-28665D01*
X20839Y-28088D02*
X20139Y-27488D01*
X20140Y-28688D02*
X20840Y-28088D01*
G54D11*
X23295Y-25961D02*
X23295Y-25561D01*
X23142Y-25561D01*
X23104Y-25580D01*
X23085Y-25600D01*
X23066Y-25638D01*
X23066Y-25695D01*
X23085Y-25733D01*
X23104Y-25752D01*
X23142Y-25771D01*
X23295Y-25771D01*
X22685Y-25961D02*
X22914Y-25961D01*
X22799Y-25961D02*
X22799Y-25561D01*
X22838Y-25619D01*
X22876Y-25657D01*
X22914Y-25676D01*
G54D13*
X24462Y-32033D02*
X24462Y-31748D01*
X24462Y-31890D02*
X23962Y-31890D01*
X24033Y-31843D01*
X24081Y-31795D01*
X24105Y-31748D01*
X23962Y-32343D02*
X23962Y-32390D01*
X23986Y-32438D01*
X24010Y-32462D01*
X24057Y-32486D01*
X24152Y-32509D01*
X24271Y-32509D01*
X24367Y-32486D01*
X24414Y-32462D01*
X24438Y-32438D01*
X24462Y-32390D01*
X24462Y-32343D01*
X24438Y-32295D01*
X24414Y-32271D01*
X24367Y-32248D01*
X24271Y-32224D01*
X24152Y-32224D01*
X24057Y-32248D01*
X24010Y-32271D01*
X23986Y-32295D01*
X23962Y-32343D01*
X21824Y-32151D02*
X21824Y-32247D01*
X21800Y-32294D01*
X21776Y-32318D01*
X21705Y-32366D01*
X21610Y-32389D01*
X21419Y-32389D01*
X21372Y-32366D01*
X21348Y-32342D01*
X21324Y-32294D01*
X21324Y-32199D01*
X21348Y-32151D01*
X21372Y-32127D01*
X21419Y-32104D01*
X21538Y-32104D01*
X21586Y-32127D01*
X21610Y-32151D01*
X21633Y-32199D01*
X21633Y-32294D01*
X21610Y-32342D01*
X21586Y-32366D01*
X21538Y-32389D01*
X24010Y-28049D02*
X23986Y-28072D01*
X23962Y-28120D01*
X23962Y-28239D01*
X23986Y-28287D01*
X24010Y-28311D01*
X24057Y-28334D01*
X24105Y-28334D01*
X24176Y-28311D01*
X24462Y-28025D01*
X24462Y-28334D01*
M02*
