999
dxfrw 0.5.11
0
SECTION
2
HEADER
9
$ACADVER
1
AC1021
9
$HANDSEED
5
20000
9
$DWGCODEPAGE
3
ANSI_1252
9
$INSBASE
10
0
20
0
30
0
9
$EXTMIN
10
-5.3681
20
-6.15415
30
0
9
$EXTMAX
10
10.44133
20
12.22833
30
0
9
$LIMMIN
10
0
20
0
9
$LIMMAX
10
420
20
297
9
$ORTHOMODE
70
0
9
$LTSCALE
40
1
9
$TEXTSTYLE
7
STANDARD
9
$CLAYER
8
0
9
$DIMASZ
40
0.1
9
$DIMLFAC
40
1
9
$DIMSCALE
40
1
9
$DIMEXO
40
0.025
9
$DIMEXE
40
0.05
9
$DIMTXT
40
0.1
9
$DIMTSZ
40
0
9
$DIMAUNIT
70
0
9
$DIMADEC
70
2
9
$DIMLUNIT
70
2
9
$DIMSTYLE
2
Standard
9
$DIMGAP
40
0.025
9
$DIMTIH
70
0
9
$LUNITS
70
2
9
$LUPREC
70
4
9
$AUNITS
70
0
9
$AUPREC
70
2
9
$SPLINESEGS
70
8
9
$GRIDMODE
70
1
9
$SNAPSTYLE
70
0
9
$GRIDUNIT
10
0
20
0
9
$PINSBASE
10
0
20
0
30
0
9
$PLIMMIN
10
0
20
0
9
$PLIMMAX
10
4.7721774e-11
20
6.7492118e-11
9
$INSUNITS
70
1
9
$PSVPSCALE
40
1
0
ENDSEC
0
SECTION
2
CLASSES
0
ENDSEC
0
SECTION
2
TABLES
0
TABLE
2
VPORT
5
8
330
0
100
AcDbSymbolTable
70
1
0
VPORT
5
31
330
2
100
AcDbSymbolTableRecord
100
AcDbViewportTableRecord
2
*ACTIVE
70
0
10
0
20
0
11
1
21
1
12
4.3589210235
22
2.20262386018
13
0
23
0
14
10
24
10
15
10
25
10
16
0
26
0
36
1
17
0
27
0
37
0
40
5.99720148547
41
2.34691011236
42
50
43
0
44
0
50
0
51
0
71
0
72
100
73
1
74
3
75
0
76
1
77
0
78
0
281
0
65
1
110
0
120
0
130
0
111
1
121
0
131
0
112
0
122
1
132
0
79
0
146
0
348
10020
60
7
61
5
292
1
282
1
141
0
142
0
63
250
421
3358443
0
ENDTAB
0
TABLE
2
LTYPE
5
5
330
0
100
AcDbSymbolTable
70
4
0
LTYPE
5
14
330
5
100
AcDbSymbolTableRecord
100
AcDbLinetypeTableRecord
2
ByBlock
70
0
3

72
65
73
0
40
0
0
LTYPE
5
15
330
5
100
AcDbSymbolTableRecord
100
AcDbLinetypeTableRecord
2
ByLayer
70
0
3

72
65
73
0
40
0
0
LTYPE
5
16
330
5
100
AcDbSymbolTableRecord
100
AcDbLinetypeTableRecord
2
Continuous
70
0
3
Solid line
72
65
73
0
40
0
0
LTYPE
5
32
330
5
100
AcDbSymbolTableRecord
100
AcDbLinetypeTableRecord
2
DOT
70
0
3
Dot . . . . . . . . . . . . . . . . . . . . . .
72
65
73
2
40
6.35
49
0
74
0
49
-6.35
74
0
0
LTYPE
5
33
330
5
100
AcDbSymbolTableRecord
100
AcDbLinetypeTableRecord
2
DOT2
70
0
3
Dot (.5x) .....................................
72
65
73
2
40
3.175
49
0
74
0
49
-3.175
74
0
0
LTYPE
5
34
330
5
100
AcDbSymbolTableRecord
100
AcDbLinetypeTableRecord
2
DOTX2
70
0
3
Dot (2x) .  .  .  .  .  .  .  .  .  .  .  .  .
72
65
73
2
40
12.7
49
0
74
0
49
-12.7
74
0
0
LTYPE
5
35
330
5
100
AcDbSymbolTableRecord
100
AcDbLinetypeTableRecord
2
DASHED
70
0
3
Dot . . . . . . . . . . . . . . . . . . . . . .
72
65
73
2
40
19.05
49
12.7
74
0
49
-6.35
74
0
0
LTYPE
5
36
330
5
100
AcDbSymbolTableRecord
100
AcDbLinetypeTableRecord
2
DASHED2
70
0
3
Dashed (.5x) _ _ _ _ _ _ _ _ _ _ _ _ _ _ _ _ _
72
65
73
2
40
9.525
49
6.35
74
0
49
-3.175
74
0
0
LTYPE
5
37
330
5
100
AcDbSymbolTableRecord
100
AcDbLinetypeTableRecord
2
DASHEDX2
70
0
3
Dashed (2x) ____  ____  ____  ____  ____  ___
72
65
73
2
40
38.1
49
25.4
74
0
49
-12.7
74
0
0
LTYPE
5
38
330
5
100
AcDbSymbolTableRecord
100
AcDbLinetypeTableRecord
2
DASHDOT
70
0
3
Dash dot __ . __ . __ . __ . __ . __ . __ . __
72
65
73
4
40
25.4
49
12.7
74
0
49
-6.35
74
0
49
0
74
0
49
-6.35
74
0
0
LTYPE
5
39
330
5
100
AcDbSymbolTableRecord
100
AcDbLinetypeTableRecord
2
DASHDOT2
70
0
3
Dash dot (.5x) _._._._._._._._._._._._._._._.
72
65
73
4
40
12.7
49
6.35
74
0
49
-3.175
74
0
49
0
74
0
49
-3.175
74
0
0
LTYPE
5
3A
330
5
100
AcDbSymbolTableRecord
100
AcDbLinetypeTableRecord
2
DASHDOTX2
70
0
3
Dash dot (2x) ____  .  ____  .  ____  .  ___
72
65
73
4
40
50.8
49
25.4
74
0
49
-12.7
74
0
49
0
74
0
49
-12.7
74
0
0
LTYPE
5
3B
330
5
100
AcDbSymbolTableRecord
100
AcDbLinetypeTableRecord
2
DIVIDE
70
0
3
Divide ____ . . ____ . . ____ . . ____ . . ____
72
65
73
6
40
31.75
49
12.7
74
0
49
-6.35
74
0
49
0
74
0
49
-6.35
74
0
49
0
74
0
49
-6.35
74
0
0
LTYPE
5
3C
330
5
100
AcDbSymbolTableRecord
100
AcDbLinetypeTableRecord
2
DIVIDE2
70
0
3
Divide (.5x) __..__..__..__..__..__..__..__.._
72
65
73
6
40
15.875
49
6.35
74
0
49
-3.175
74
0
49
0
74
0
49
-3.175
74
0
49
0
74
0
49
-3.175
74
0
0
LTYPE
5
3D
330
5
100
AcDbSymbolTableRecord
100
AcDbLinetypeTableRecord
2
DIVIDEX2
70
0
3
Divide (2x) ________  .  .  ________  .  .  _
72
65
73
6
40
63.5
49
25.4
74
0
49
-12.7
74
0
49
0
74
0
49
-12.7
74
0
49
0
74
0
49
-12.7
74
0
0
LTYPE
5
3E
330
5
100
AcDbSymbolTableRecord
100
AcDbLinetypeTableRecord
2
BORDER
70
0
3
Border __ __ . __ __ . __ __ . __ __ . __ __ .
72
65
73
6
40
44.45
49
12.7
74
0
49
-6.35
74
0
49
12.7
74
0
49
-6.35
74
0
49
0
74
0
49
-6.35
74
0
0
LTYPE
5
3F
330
5
100
AcDbSymbolTableRecord
100
AcDbLinetypeTableRecord
2
BORDER2
70
0
3
Border (.5x) __.__.__.__.__.__.__.__.__.__.__.
72
65
73
6
40
22.225
49
6.35
74
0
49
-3.175
74
0
49
6.35
74
0
49
-3.175
74
0
49
0
74
0
49
-3.175
74
0
0
LTYPE
5
40
330
5
100
AcDbSymbolTableRecord
100
AcDbLinetypeTableRecord
2
BORDERX2
70
0
3
Border (2x) ____  ____  .  ____  ____  .  ___
72
65
73
6
40
88.9
49
25.4
74
0
49
-12.7
74
0
49
25.4
74
0
49
-12.7
74
0
49
0
74
0
49
-12.7
74
0
0
LTYPE
5
41
330
5
100
AcDbSymbolTableRecord
100
AcDbLinetypeTableRecord
2
CENTER
70
0
3
Center ____ _ ____ _ ____ _ ____ _ ____ _ ____
72
65
73
4
40
50.8
49
31.75
74
0
49
-6.35
74
0
49
6.35
74
0
49
-6.35
74
0
0
LTYPE
5
42
330
5
100
AcDbSymbolTableRecord
100
AcDbLinetypeTableRecord
2
CENTER2
70
0
3
Center (.5x) ___ _ ___ _ ___ _ ___ _ ___ _ ___
72
65
73
4
40
28.575
49
19.05
74
0
49
-3.175
74
0
49
3.175
74
0
49
-3.175
74
0
0
LTYPE
5
43
330
5
100
AcDbSymbolTableRecord
100
AcDbLinetypeTableRecord
2
CENTERX2
70
0
3
Center (2x) ________  __  ________  __  _____
72
65
73
4
40
101.6
49
63.5
74
0
49
-12.7
74
0
49
12.7
74
0
49
-12.7
74
0
0
ENDTAB
0
TABLE
2
LAYER
5
2
330
0
100
AcDbSymbolTable
70
1
0
LAYER
5
10
330
2
100
AcDbSymbolTableRecord
100
AcDbLayerTableRecord
2
0
70
0
62
7
6
CONTINUOUS
370
0
390
F
0
LAYER
5
44
330
2
100
AcDbSymbolTableRecord
100
AcDbLayerTableRecord
2
vector
70
0
62
3
6
CONTINUOUS
370
0
390
F
0
ENDTAB
0
TABLE
2
STYLE
5
3
330
0
100
AcDbSymbolTable
70
3
0
STYLE
5
45
330
2
100
AcDbSymbolTableRecord
100
AcDbTextStyleTableRecord
2
Standard
70
0
40
0
41
1
50
0
71
0
42
1
3
txt
4

0
ENDTAB
0
TABLE
2
VIEW
5
6
330
0
100
AcDbSymbolTable
70
0
0
ENDTAB
0
TABLE
2
UCS
5
7
330
0
100
AcDbSymbolTable
70
0
0
ENDTAB
0
TABLE
2
APPID
5
9
330
0
100
AcDbSymbolTable
70
1
0
APPID
5
12
330
9
100
AcDbSymbolTableRecord
100
AcDbRegAppTableRecord
2
ACAD
70
0
0
ENDTAB
0
TABLE
2
DIMSTYLE
5
A
330
0
100
AcDbSymbolTable
70
1
100
AcDbDimStyleTable
71
1
0
DIMSTYLE
105
46
330
A
100
AcDbSymbolTableRecord
100
AcDbDimStyleTableRecord
2
Standard
70
0
40
1
41
0.1
42
0.025
43
0.38
44
0.05
45
0
46
0
47
0
48
0
140
0.1
141
0.09
142
0
143
25.4
144
1
145
0
146
1
147
0.025
148
0
71
0
72
0
73
0
74
1
75
0
76
0
77
0
78
0
79
0
170
0
171
2
172
0
173
0
174
0
175
0
176
0
177
0
178
0
179
0
271
4
272
4
273
2
274
2
275
0
276
0
277
2
278
46
279
0
280
0
281
0
282
0
283
1
284
0
285
0
286
0
288
0
289
3
340
Standard
341

371
-2
372
-2
0
ENDTAB
0
TABLE
2
BLOCK_RECORD
5
1
330
0
100
AcDbSymbolTable
70
2
0
BLOCK_RECORD
5
1F
330
1
100
AcDbSymbolTableRecord
100
AcDbBlockTableRecord
2
*Model_Space
70
0
280
1
281
0
0
BLOCK_RECORD
5
1E
330
1
100
AcDbSymbolTableRecord
100
AcDbBlockTableRecord
2
*Paper_Space
70
0
280
1
281
0
0
ENDTAB
0
ENDSEC
0
SECTION
2
BLOCKS
0
BLOCK
5
20
330
1F
100
AcDbEntity
8
0
100
AcDbBlockBegin
2
*Model_Space
70
0
10
0
20
0
30
0
3
*Model_Space
1

0
ENDBLK
5
21
330
1F
100
AcDbEntity
8
0
100
AcDbBlockEnd
0
BLOCK
5
1C
330
1B
100
AcDbEntity
8
0
100
AcDbBlockBegin
2
*Paper_Space
70
0
10
0
20
0
30
0
3
*Paper_Space
1

0
ENDBLK
5
1D
330
1F
100
AcDbEntity
8
0
100
AcDbBlockEnd
0
ENDSEC
0
SECTION
2
ENTITIES
0
LINE
5
47
100
AcDbEntity
8
vector
6
ByLayer
62
3
370
-1
100
AcDbLine
10
7.055
20
8.5
11
7.055
21
8.61811
0
LINE
5
48
100
AcDbEntity
8
vector
6
ByLayer
62
3
370
-1
100
AcDbLine
10
7.055
20
8.61811
11
7.805
21
8.61811
0
LINE
5
49
100
AcDbEntity
8
vector
6
ByLayer
62
3
370
-1
100
AcDbLine
10
7.805
20
8.61811
11
7.805
21
8.5
0
LINE
5
4A
100
AcDbEntity
8
vector
6
ByLayer
62
3
370
-1
100
AcDbLine
10
7.805
20
8.5
11
7.055
21
8.5
0
LINE
5
4B
100
AcDbEntity
8
vector
6
ByLayer
62
3
370
-1
100
AcDbLine
10
5.525
20
8.5
11
5.525
21
8.61811
0
LINE
5
4C
100
AcDbEntity
8
vector
6
ByLayer
62
3
370
-1
100
AcDbLine
10
5.525
20
8.61811
11
6.275
21
8.61811
0
LINE
5
4D
100
AcDbEntity
8
vector
6
ByLayer
62
3
370
-1
100
AcDbLine
10
6.275
20
8.61811
11
6.275
21
8.5
0
LINE
5
4E
100
AcDbEntity
8
vector
6
ByLayer
62
3
370
-1
100
AcDbLine
10
6.275
20
8.5
11
5.525
21
8.5
0
LINE
5
4F
100
AcDbEntity
8
vector
6
ByLayer
62
3
370
-1
100
AcDbLine
10
3.995
20
8.5
11
3.995
21
8.61811
0
LINE
5
50
100
AcDbEntity
8
vector
6
ByLayer
62
3
370
-1
100
AcDbLine
10
3.995
20
8.61811
11
4.745
21
8.61811
0
LINE
5
51
100
AcDbEntity
8
vector
6
ByLayer
62
3
370
-1
100
AcDbLine
10
4.745
20
8.61811
11
4.745
21
8.5
0
LINE
5
52
100
AcDbEntity
8
vector
6
ByLayer
62
3
370
-1
100
AcDbLine
10
4.745
20
8.5
11
3.995
21
8.5
0
LINE
5
53
100
AcDbEntity
8
vector
6
ByLayer
62
3
370
-1
100
AcDbLine
10
8.45
20
7.284045
11
8.45
21
8.03405
0
LINE
5
54
100
AcDbEntity
8
vector
6
ByLayer
62
3
370
-1
100
AcDbLine
10
8.45
20
8.03405
11
8.56811
21
8.03405
0
LINE
5
55
100
AcDbEntity
8
vector
6
ByLayer
62
3
370
-1
100
AcDbLine
10
8.56811
20
8.03405
11
8.56811
21
7.284045
0
LINE
5
56
100
AcDbEntity
8
vector
6
ByLayer
62
3
370
-1
100
AcDbLine
10
8.56811
20
7.284045
11
8.45
21
7.284045
0
LINE
5
57
100
AcDbEntity
8
vector
6
ByLayer
62
3
370
-1
100
AcDbLine
10
8.45
20
5.36595
11
8.45
21
6.115955
0
LINE
5
58
100
AcDbEntity
8
vector
6
ByLayer
62
3
370
-1
100
AcDbLine
10
8.45
20
6.115955
11
8.56811
21
6.115955
0
LINE
5
59
100
AcDbEntity
8
vector
6
ByLayer
62
3
370
-1
100
AcDbLine
10
8.56811
20
6.115955
11
8.56811
21
5.36595
0
LINE
5
5A
100
AcDbEntity
8
vector
6
ByLayer
62
3
370
-1
100
AcDbLine
10
8.56811
20
5.36595
11
8.45
21
5.36595
0
LINE
5
5B
100
AcDbEntity
8
vector
6
ByLayer
62
3
370
-1
100
AcDbLine
10
7.055
20
4.78189
11
7.055
21
4.9
0
LINE
5
5C
100
AcDbEntity
8
vector
6
ByLayer
62
3
370
-1
100
AcDbLine
10
7.055
20
4.9
11
7.805
21
4.9
0
LINE
5
5D
100
AcDbEntity
8
vector
6
ByLayer
62
3
370
-1
100
AcDbLine
10
7.805
20
4.9
11
7.805
21
4.78189
0
LINE
5
5E
100
AcDbEntity
8
vector
6
ByLayer
62
3
370
-1
100
AcDbLine
10
7.805
20
4.78189
11
7.055
21
4.78189
0
LINE
5
5F
100
AcDbEntity
8
vector
6
ByLayer
62
3
370
-1
100
AcDbLine
10
3.995
20
4.78189
11
3.995
21
4.9
0
LINE
5
60
100
AcDbEntity
8
vector
6
ByLayer
62
3
370
-1
100
AcDbLine
10
3.995
20
4.9
11
4.745
21
4.9
0
LINE
5
61
100
AcDbEntity
8
vector
6
ByLayer
62
3
370
-1
100
AcDbLine
10
4.745
20
4.9
11
4.745
21
4.78189
0
LINE
5
62
100
AcDbEntity
8
vector
6
ByLayer
62
3
370
-1
100
AcDbLine
10
4.745
20
4.78189
11
3.995
21
4.78189
0
LINE
5
63
100
AcDbEntity
8
vector
6
ByLayer
62
3
370
-1
100
AcDbLine
10
5.525
20
4.78189
11
5.525
21
4.9
0
LINE
5
64
100
AcDbEntity
8
vector
6
ByLayer
62
3
370
-1
100
AcDbLine
10
5.525
20
4.9
11
6.275
21
4.9
0
LINE
5
65
100
AcDbEntity
8
vector
6
ByLayer
62
3
370
-1
100
AcDbLine
10
6.275
20
4.9
11
6.275
21
4.78189
0
LINE
5
66
100
AcDbEntity
8
vector
6
ByLayer
62
3
370
-1
100
AcDbLine
10
6.275
20
4.78189
11
5.525
21
4.78189
0
CIRCLE
5
67
100
AcDbEntity
8
vector
6
ByLayer
62
256
370
-1
100
AcDbCircle
10
3.55
20
8.3001
40
0.058
0
CIRCLE
5
68
100
AcDbEntity
8
vector
6
ByLayer
62
256
370
-1
100
AcDbCircle
10
8.25
20
8.3001
40
0.058
0
CIRCLE
5
69
100
AcDbEntity
8
vector
6
ByLayer
62
256
370
-1
100
AcDbCircle
10
3.55
20
5.1001
40
0.058
0
CIRCLE
5
6A
100
AcDbEntity
8
vector
6
ByLayer
62
256
370
-1
100
AcDbCircle
10
8.25
20
5.1001
40
0.058
0
CIRCLE
5
6B
100
AcDbEntity
8
vector
6
ByLayer
62
256
370
-1
100
AcDbCircle
10
3.55
20
8.3001
40
0.058
0
CIRCLE
5
6C
100
AcDbEntity
8
vector
6
ByLayer
62
256
370
-1
100
AcDbCircle
10
8.25
20
8.3001
40
0.058
0
CIRCLE
5
6D
100
AcDbEntity
8
vector
6
ByLayer
62
256
370
-1
100
AcDbCircle
10
3.55
20
5.1001
40
0.058
0
CIRCLE
5
6E
100
AcDbEntity
8
vector
6
ByLayer
62
256
370
-1
100
AcDbCircle
10
8.25
20
5.1001
40
0.058
0
CIRCLE
5
6F
100
AcDbEntity
8
vector
6
ByLayer
62
256
370
-1
100
AcDbCircle
10
3.15
20
8.3001
40
0.058
0
CIRCLE
5
70
100
AcDbEntity
8
vector
6
ByLayer
62
256
370
-1
100
AcDbCircle
10
3.15
20
5.1001
40
0.058
0
CIRCLE
5
71
100
AcDbEntity
8
vector
6
ByLayer
62
256
370
-1
100
AcDbCircle
10
0.95
20
8.3001
40
0.058
0
CIRCLE
5
72
100
AcDbEntity
8
vector
6
ByLayer
62
256
370
-1
100
AcDbCircle
10
0.95
20
5.1001
40
0.058
0
LINE
5
73
100
AcDbEntity
8
vector
6
ByLayer
62
3
370
-1
100
AcDbLine
10
0.63189
20
7.284045
11
0.63189
21
8.03405
0
LINE
5
74
100
AcDbEntity
8
vector
6
ByLayer
62
3
370
-1
100
AcDbLine
10
0.63189
20
8.03405
11
0.75
21
8.03405
0
LINE
5
75
100
AcDbEntity
8
vector
6
ByLayer
62
3
370
-1
100
AcDbLine
10
0.75
20
8.03405
11
0.75
21
7.284045
0
LINE
5
76
100
AcDbEntity
8
vector
6
ByLayer
62
3
370
-1
100
AcDbLine
10
0.75
20
7.284045
11
0.63189
21
7.284045
0
LINE
5
77
100
AcDbEntity
8
vector
6
ByLayer
62
3
370
-1
100
AcDbLine
10
0.63189
20
5.36595
11
0.63189
21
6.115955
0
LINE
5
78
100
AcDbEntity
8
vector
6
ByLayer
62
3
370
-1
100
AcDbLine
10
0.63189
20
6.115955
11
0.75
21
6.115955
0
LINE
5
79
100
AcDbEntity
8
vector
6
ByLayer
62
3
370
-1
100
AcDbLine
10
0.75
20
6.115955
11
0.75
21
5.36595
0
LINE
5
7A
100
AcDbEntity
8
vector
6
ByLayer
62
3
370
-1
100
AcDbLine
10
0.75
20
5.36595
11
0.63189
21
5.36595
0
LINE
5
7B
100
AcDbEntity
8
vector
6
ByLayer
62
256
370
-1
100
AcDbLine
10
8.5181
20
8.7181
11
3.2819
21
8.7181
0
ARC
5
7C
100
AcDbEntity
8
vector
6
ByLayer
62
256
370
-1
100
AcDbCircle
10
8.5181
20
8.5681
40
0.15
100
AcDbArc
50
0
51
90
0
LINE
5
7D
100
AcDbEntity
8
vector
6
ByLayer
62
256
370
-1
100
AcDbLine
10
8.6681
20
4.8321
11
8.6681
21
8.5681
0
ARC
5
7E
100
AcDbEntity
8
vector
6
ByLayer
62
256
370
-1
100
AcDbCircle
10
8.5181
20
4.8321
40
0.15
100
AcDbArc
50
270
51
0
0
LINE
5
7F
100
AcDbEntity
8
vector
6
ByLayer
62
256
370
-1
100
AcDbLine
10
3.2819
20
4.6821
11
8.5181
21
4.6821
0
ARC
5
80
100
AcDbEntity
8
vector
6
ByLayer
62
256
370
-1
100
AcDbCircle
10
0.6819
20
8.56810005162
40
0.15
100
AcDbArc
50
90
51
180
0
LINE
5
81
100
AcDbEntity
8
vector
6
ByLayer
62
256
370
-1
100
AcDbLine
10
0.5319
20
8.56810005162
11
0.5319
21
4.83210005162
0
ARC
5
82
100
AcDbEntity
8
vector
6
ByLayer
62
256
370
-1
100
AcDbCircle
10
0.6819
20
4.83210005162
40
0.15
100
AcDbArc
50
180
51
270
0
LINE
5
83
100
AcDbEntity
8
vector
6
ByLayer
62
256
370
-1
100
AcDbLine
10
0.6819
20
8.71810005162
11
3.2819
21
8.7181
0
LINE
5
84
100
AcDbEntity
8
vector
6
ByLayer
62
256
370
-1
100
AcDbLine
10
0.6819
20
4.68210005162
11
3.2819
21
4.6821
0
LINE
5
85
100
AcDbEntity
8
vector
6
ByLayer
62
3
370
-1
100
AcDbLine
10
2.60001
20
8.5
11
2.60001
21
8.61811
0
LINE
5
86
100
AcDbEntity
8
vector
6
ByLayer
62
3
370
-1
100
AcDbLine
10
2.60001
20
8.61811
11
3.35001
21
8.61811
0
LINE
5
87
100
AcDbEntity
8
vector
6
ByLayer
62
3
370
-1
100
AcDbLine
10
3.35001
20
8.61811
11
3.35001
21
8.5
0
LINE
5
88
100
AcDbEntity
8
vector
6
ByLayer
62
3
370
-1
100
AcDbLine
10
3.35001
20
8.5
11
2.60001
21
8.5
0
LINE
5
89
100
AcDbEntity
8
vector
6
ByLayer
62
3
370
-1
100
AcDbLine
10
1.07001
20
8.5
11
1.07001
21
8.61811
0
LINE
5
8A
100
AcDbEntity
8
vector
6
ByLayer
62
3
370
-1
100
AcDbLine
10
1.07001
20
8.61811
11
1.82001
21
8.61811
0
LINE
5
8B
100
AcDbEntity
8
vector
6
ByLayer
62
3
370
-1
100
AcDbLine
10
1.82001
20
8.61811
11
1.82001
21
8.5
0
LINE
5
8C
100
AcDbEntity
8
vector
6
ByLayer
62
3
370
-1
100
AcDbLine
10
1.82001
20
8.5
11
1.07001
21
8.5
0
LINE
5
8D
100
AcDbEntity
8
vector
6
ByLayer
62
3
370
-1
100
AcDbLine
10
1.07001
20
4.78189
11
1.07001
21
4.9
0
LINE
5
8E
100
AcDbEntity
8
vector
6
ByLayer
62
3
370
-1
100
AcDbLine
10
1.07001
20
4.9
11
1.82001
21
4.9
0
LINE
5
8F
100
AcDbEntity
8
vector
6
ByLayer
62
3
370
-1
100
AcDbLine
10
1.82001
20
4.9
11
1.82001
21
4.78189
0
LINE
5
90
100
AcDbEntity
8
vector
6
ByLayer
62
3
370
-1
100
AcDbLine
10
1.82001
20
4.78189
11
1.07001
21
4.78189
0
LINE
5
91
100
AcDbEntity
8
vector
6
ByLayer
62
3
370
-1
100
AcDbLine
10
2.60001
20
4.78189
11
2.60001
21
4.9
0
LINE
5
92
100
AcDbEntity
8
vector
6
ByLayer
62
3
370
-1
100
AcDbLine
10
2.60001
20
4.9
11
3.35001
21
4.9
0
LINE
5
93
100
AcDbEntity
8
vector
6
ByLayer
62
3
370
-1
100
AcDbLine
10
3.35001
20
4.9
11
3.35001
21
4.78189
0
LINE
5
94
100
AcDbEntity
8
vector
6
ByLayer
62
3
370
-1
100
AcDbLine
10
3.35001
20
4.78189
11
2.60001
21
4.78189
0
LINE
5
95
100
AcDbEntity
8
vector
6
ByLayer
62
3
370
-1
100
AcDbLine
10
5.525
20
4.36377
11
5.525
21
4.48189
0
LINE
5
96
100
AcDbEntity
8
vector
6
ByLayer
62
3
370
-1
100
AcDbLine
10
5.525
20
4.48189
11
6.275
21
4.48189
0
LINE
5
97
100
AcDbEntity
8
vector
6
ByLayer
62
3
370
-1
100
AcDbLine
10
6.275
20
4.48189
11
6.275
21
4.36377
0
LINE
5
98
100
AcDbEntity
8
vector
6
ByLayer
62
3
370
-1
100
AcDbLine
10
6.275
20
4.36377
11
5.525
21
4.36377
0
LINE
5
99
100
AcDbEntity
8
vector
6
ByLayer
62
3
370
-1
100
AcDbLine
10
3.995
20
4.36377
11
3.995
21
4.48189
0
LINE
5
9A
100
AcDbEntity
8
vector
6
ByLayer
62
3
370
-1
100
AcDbLine
10
3.995
20
4.48189
11
4.745
21
4.48189
0
LINE
5
9B
100
AcDbEntity
8
vector
6
ByLayer
62
3
370
-1
100
AcDbLine
10
4.745
20
4.48189
11
4.745
21
4.36377
0
LINE
5
9C
100
AcDbEntity
8
vector
6
ByLayer
62
3
370
-1
100
AcDbLine
10
4.745
20
4.36377
11
3.995
21
4.36377
0
LINE
5
9D
100
AcDbEntity
8
vector
6
ByLayer
62
3
370
-1
100
AcDbLine
10
7.055
20
4.36377
11
7.055
21
4.48189
0
LINE
5
9E
100
AcDbEntity
8
vector
6
ByLayer
62
3
370
-1
100
AcDbLine
10
7.055
20
4.48189
11
7.805
21
4.48189
0
LINE
5
9F
100
AcDbEntity
8
vector
6
ByLayer
62
3
370
-1
100
AcDbLine
10
7.805
20
4.48189
11
7.805
21
4.36377
0
LINE
5
A0
100
AcDbEntity
8
vector
6
ByLayer
62
3
370
-1
100
AcDbLine
10
7.805
20
4.36377
11
7.055
21
4.36377
0
LINE
5
A1
100
AcDbEntity
8
vector
6
ByLayer
62
3
370
-1
100
AcDbLine
10
8.45
20
3.14783
11
8.45
21
3.89783
0
LINE
5
A2
100
AcDbEntity
8
vector
6
ByLayer
62
3
370
-1
100
AcDbLine
10
8.45
20
3.89783
11
8.56811
21
3.89783
0
LINE
5
A3
100
AcDbEntity
8
vector
6
ByLayer
62
3
370
-1
100
AcDbLine
10
8.56811
20
3.89783
11
8.56811
21
3.14783
0
LINE
5
A4
100
AcDbEntity
8
vector
6
ByLayer
62
3
370
-1
100
AcDbLine
10
8.56811
20
3.14783
11
8.45
21
3.14783
0
LINE
5
A5
100
AcDbEntity
8
vector
6
ByLayer
62
3
370
-1
100
AcDbLine
10
8.45
20
1.22971
11
8.45
21
1.97971
0
LINE
5
A6
100
AcDbEntity
8
vector
6
ByLayer
62
3
370
-1
100
AcDbLine
10
8.45
20
1.97971
11
8.56811
21
1.97971
0
LINE
5
A7
100
AcDbEntity
8
vector
6
ByLayer
62
3
370
-1
100
AcDbLine
10
8.56811
20
1.97971
11
8.56811
21
1.22971
0
LINE
5
A8
100
AcDbEntity
8
vector
6
ByLayer
62
3
370
-1
100
AcDbLine
10
8.56811
20
1.22971
11
8.45
21
1.22971
0
LINE
5
A9
100
AcDbEntity
8
vector
6
ByLayer
62
3
370
-1
100
AcDbLine
10
3.995
20
0.64565
11
3.995
21
0.76376
0
LINE
5
AA
100
AcDbEntity
8
vector
6
ByLayer
62
3
370
-1
100
AcDbLine
10
3.995
20
0.76376
11
4.745
21
0.76376
0
LINE
5
AB
100
AcDbEntity
8
vector
6
ByLayer
62
3
370
-1
100
AcDbLine
10
4.745
20
0.76376
11
4.745
21
0.64565
0
LINE
5
AC
100
AcDbEntity
8
vector
6
ByLayer
62
3
370
-1
100
AcDbLine
10
4.745
20
0.64565
11
3.995
21
0.64565
0
LINE
5
AD
100
AcDbEntity
8
vector
6
ByLayer
62
3
370
-1
100
AcDbLine
10
7.055
20
0.64565
11
7.055
21
0.76376
0
LINE
5
AE
100
AcDbEntity
8
vector
6
ByLayer
62
3
370
-1
100
AcDbLine
10
7.055
20
0.76376
11
7.805
21
0.76376
0
LINE
5
AF
100
AcDbEntity
8
vector
6
ByLayer
62
3
370
-1
100
AcDbLine
10
7.805
20
0.76376
11
7.805
21
0.64565
0
LINE
5
B0
100
AcDbEntity
8
vector
6
ByLayer
62
3
370
-1
100
AcDbLine
10
7.805
20
0.64565
11
7.055
21
0.64565
0
LINE
5
B1
100
AcDbEntity
8
vector
6
ByLayer
62
3
370
-1
100
AcDbLine
10
5.525
20
0.64565
11
5.525
21
0.76376
0
LINE
5
B2
100
AcDbEntity
8
vector
6
ByLayer
62
3
370
-1
100
AcDbLine
10
5.525
20
0.76376
11
6.275
21
0.76376
0
LINE
5
B3
100
AcDbEntity
8
vector
6
ByLayer
62
3
370
-1
100
AcDbLine
10
6.275
20
0.76376
11
6.275
21
0.64565
0
LINE
5
B4
100
AcDbEntity
8
vector
6
ByLayer
62
3
370
-1
100
AcDbLine
10
6.275
20
0.64565
11
5.525
21
0.64565
0
LINE
5
B5
100
AcDbEntity
8
vector
6
ByLayer
62
3
370
-1
100
AcDbLine
10
8.5181
20
4.58188
11
3.2819
21
4.58188
0
ARC
5
B6
100
AcDbEntity
8
vector
6
ByLayer
62
3
370
-1
100
AcDbCircle
10
8.5181
20
4.43188
40
0.15
100
AcDbArc
50
3.30777686872e-13
51
90
0
LINE
5
B7
100
AcDbEntity
8
vector
6
ByLayer
62
3
370
-1
100
AcDbLine
10
3.2819
20
0.54585
11
8.5181
21
0.54585
0
LINE
5
B8
100
AcDbEntity
8
vector
6
ByLayer
62
3
370
-1
100
AcDbLine
10
8.6681
20
0.69585
11
8.6681
21
4.43188
0
ARC
5
B9
100
AcDbEntity
8
vector
6
ByLayer
62
3
370
-1
100
AcDbCircle
10
8.5181
20
0.69585
40
0.15
100
AcDbArc
50
270
51
0
0
CIRCLE
5
BA
100
AcDbEntity
8
vector
6
ByLayer
62
256
370
-1
100
AcDbCircle
10
3.55
20
4.163965
40
0.058
0
CIRCLE
5
BB
100
AcDbEntity
8
vector
6
ByLayer
62
256
370
-1
100
AcDbCircle
10
8.25
20
4.163965
40
0.058
0
CIRCLE
5
BC
100
AcDbEntity
8
vector
6
ByLayer
62
256
370
-1
100
AcDbCircle
10
3.55
20
0.963965
40
0.058
0
CIRCLE
5
BD
100
AcDbEntity
8
vector
6
ByLayer
62
256
370
-1
100
AcDbCircle
10
8.25
20
0.963965
40
0.058
0
LINE
5
BE
100
AcDbEntity
8
vector
6
ByLayer
62
3
370
-1
100
AcDbLine
10
0.63189
20
3.14783
11
0.63189
21
3.89783
0
LINE
5
BF
100
AcDbEntity
8
vector
6
ByLayer
62
3
370
-1
100
AcDbLine
10
0.63189
20
3.89783
11
0.75
21
3.89783
0
LINE
5
C0
100
AcDbEntity
8
vector
6
ByLayer
62
3
370
-1
100
AcDbLine
10
0.75
20
3.89783
11
0.75
21
3.14783
0
LINE
5
C1
100
AcDbEntity
8
vector
6
ByLayer
62
3
370
-1
100
AcDbLine
10
0.75
20
3.14783
11
0.63189
21
3.14783
0
LINE
5
C2
100
AcDbEntity
8
vector
6
ByLayer
62
3
370
-1
100
AcDbLine
10
0.63189
20
1.22971
11
0.63189
21
1.97971
0
LINE
5
C3
100
AcDbEntity
8
vector
6
ByLayer
62
3
370
-1
100
AcDbLine
10
0.63189
20
1.97971
11
0.75
21
1.97971
0
LINE
5
C4
100
AcDbEntity
8
vector
6
ByLayer
62
3
370
-1
100
AcDbLine
10
0.75
20
1.97971
11
0.75
21
1.22971
0
LINE
5
C5
100
AcDbEntity
8
vector
6
ByLayer
62
3
370
-1
100
AcDbLine
10
0.75
20
1.22971
11
0.63189
21
1.22971
0
ARC
5
C6
100
AcDbEntity
8
vector
6
ByLayer
62
3
370
-1
100
AcDbCircle
10
0.6819
20
4.43188
40
0.15
100
AcDbArc
50
90
51
180
0
LINE
5
C7
100
AcDbEntity
8
vector
6
ByLayer
62
3
370
-1
100
AcDbLine
10
0.5319
20
4.43188
11
0.5319
21
0.69585
0
ARC
5
C8
100
AcDbEntity
8
vector
6
ByLayer
62
3
370
-1
100
AcDbCircle
10
0.6819
20
0.69585
40
0.15
100
AcDbArc
50
180
51
270
0
LINE
5
C9
100
AcDbEntity
8
vector
6
ByLayer
62
3
370
-1
100
AcDbLine
10
2.60001
20
4.36377
11
2.60001
21
4.48189
0
LINE
5
CA
100
AcDbEntity
8
vector
6
ByLayer
62
3
370
-1
100
AcDbLine
10
2.60001
20
4.48189
11
3.35001
21
4.48189
0
LINE
5
CB
100
AcDbEntity
8
vector
6
ByLayer
62
3
370
-1
100
AcDbLine
10
3.35001
20
4.48189
11
3.35001
21
4.36377
0
LINE
5
CC
100
AcDbEntity
8
vector
6
ByLayer
62
3
370
-1
100
AcDbLine
10
3.35001
20
4.36377
11
2.60001
21
4.36377
0
LINE
5
CD
100
AcDbEntity
8
vector
6
ByLayer
62
3
370
-1
100
AcDbLine
10
1.07001
20
4.36377
11
1.07001
21
4.48189
0
LINE
5
CE
100
AcDbEntity
8
vector
6
ByLayer
62
3
370
-1
100
AcDbLine
10
1.07001
20
4.48189
11
1.82001
21
4.48189
0
LINE
5
CF
100
AcDbEntity
8
vector
6
ByLayer
62
3
370
-1
100
AcDbLine
10
1.82001
20
4.48189
11
1.82001
21
4.36377
0
LINE
5
D0
100
AcDbEntity
8
vector
6
ByLayer
62
3
370
-1
100
AcDbLine
10
1.82001
20
4.36377
11
1.07001
21
4.36377
0
LINE
5
D1
100
AcDbEntity
8
vector
6
ByLayer
62
3
370
-1
100
AcDbLine
10
1.07001
20
0.64565
11
1.07001
21
0.76376
0
LINE
5
D2
100
AcDbEntity
8
vector
6
ByLayer
62
3
370
-1
100
AcDbLine
10
1.07001
20
0.76376
11
1.82001
21
0.76376
0
LINE
5
D3
100
AcDbEntity
8
vector
6
ByLayer
62
3
370
-1
100
AcDbLine
10
1.82001
20
0.76376
11
1.82001
21
0.64565
0
LINE
5
D4
100
AcDbEntity
8
vector
6
ByLayer
62
3
370
-1
100
AcDbLine
10
1.82001
20
0.64565
11
1.07001
21
0.64565
0
LINE
5
D5
100
AcDbEntity
8
vector
6
ByLayer
62
3
370
-1
100
AcDbLine
10
2.60001
20
0.64565
11
2.60001
21
0.76376
0
LINE
5
D6
100
AcDbEntity
8
vector
6
ByLayer
62
3
370
-1
100
AcDbLine
10
2.60001
20
0.76376
11
3.35001
21
0.76376
0
LINE
5
D7
100
AcDbEntity
8
vector
6
ByLayer
62
3
370
-1
100
AcDbLine
10
3.35001
20
0.76376
11
3.35001
21
0.64565
0
LINE
5
D8
100
AcDbEntity
8
vector
6
ByLayer
62
3
370
-1
100
AcDbLine
10
3.35001
20
0.64565
11
2.60001
21
0.64565
0
LINE
5
D9
100
AcDbEntity
8
vector
6
ByLayer
62
256
370
-1
100
AcDbLine
10
0.6819
20
4.58188
11
3.2819
21
4.58188
0
LINE
5
DA
100
AcDbEntity
8
vector
6
ByLayer
62
256
370
-1
100
AcDbLine
10
0.6819
20
0.54585
11
3.2819
21
0.54585
0
CIRCLE
5
DB
100
AcDbEntity
8
vector
6
ByLayer
62
256
370
-1
100
AcDbCircle
10
3.15
20
4.163965
40
0.058
0
CIRCLE
5
DC
100
AcDbEntity
8
vector
6
ByLayer
62
256
370
-1
100
AcDbCircle
10
3.15
20
0.963965
40
0.058
0
CIRCLE
5
DD
100
AcDbEntity
8
vector
6
ByLayer
62
256
370
-1
100
AcDbCircle
10
0.95
20
4.163965
40
0.058
0
CIRCLE
5
DE
100
AcDbEntity
8
vector
6
ByLayer
62
256
370
-1
100
AcDbCircle
10
0.95
20
0.963965
40
0.058
0
LINE
5
DF
100
AcDbEntity
8
vector
6
ByLayer
62
3
370
-1
100
AcDbLine
10
4.745
20
8.93623
11
5.525
21
8.93623
0
LINE
5
E0
100
AcDbEntity
8
vector
6
ByLayer
62
3
370
-1
100
AcDbLine
10
5.525
20
8.93623
11
5.525
21
8.81811
0
LINE
5
E1
100
AcDbEntity
8
vector
6
ByLayer
62
3
370
-1
100
AcDbLine
10
5.525
20
8.81811
11
6.275
21
8.81811
0
LINE
5
E2
100
AcDbEntity
8
vector
6
ByLayer
62
3
370
-1
100
AcDbLine
10
6.275
20
8.81811
11
6.275
21
8.93623
0
LINE
5
E3
100
AcDbEntity
8
vector
6
ByLayer
62
3
370
-1
100
AcDbLine
10
6.275
20
8.93623
11
7.055
21
8.93623
0
LINE
5
E4
100
AcDbEntity
8
vector
6
ByLayer
62
3
370
-1
100
AcDbLine
10
7.055
20
8.93623
11
7.055
21
8.81811
0
LINE
5
E5
100
AcDbEntity
8
vector
6
ByLayer
62
3
370
-1
100
AcDbLine
10
7.055
20
8.81811
11
7.805
21
8.81811
0
LINE
5
E6
100
AcDbEntity
8
vector
6
ByLayer
62
3
370
-1
100
AcDbLine
10
7.805
20
8.81811
11
7.805
21
8.93623
0
LINE
5
E7
100
AcDbEntity
8
vector
6
ByLayer
62
3
370
-1
100
AcDbLine
10
7.805
20
8.93623
11
8.44999
21
8.93623
0
LINE
5
E8
100
AcDbEntity
8
vector
6
ByLayer
62
3
370
-1
100
AcDbLine
10
8.44999
20
8.93623
11
8.44999
21
9.40472
0
LINE
5
E9
100
AcDbEntity
8
vector
6
ByLayer
62
3
370
-1
100
AcDbLine
10
8.44999
20
9.40472
11
8.56811
21
9.40472
0
LINE
5
EA
100
AcDbEntity
8
vector
6
ByLayer
62
3
370
-1
100
AcDbLine
10
8.56811
20
9.40472
11
8.56811
21
9.90472
0
LINE
5
EB
100
AcDbEntity
8
vector
6
ByLayer
62
3
370
-1
100
AcDbLine
10
8.56811
20
9.90472
11
8.44999
21
9.90472
0
LINE
5
EC
100
AcDbEntity
8
vector
6
ByLayer
62
3
370
-1
100
AcDbLine
10
8.44999
20
9.90472
11
8.44999
21
10.37322
0
LINE
5
ED
100
AcDbEntity
8
vector
6
ByLayer
62
3
370
-1
100
AcDbLine
10
8.44999
20
10.37322
11
7.805
21
10.37322
0
LINE
5
EE
100
AcDbEntity
8
vector
6
ByLayer
62
3
370
-1
100
AcDbLine
10
7.805
20
10.37322
11
7.805
21
10.49133
0
LINE
5
EF
100
AcDbEntity
8
vector
6
ByLayer
62
3
370
-1
100
AcDbLine
10
7.805
20
10.49133
11
7.055
21
10.49133
0
LINE
5
F0
100
AcDbEntity
8
vector
6
ByLayer
62
3
370
-1
100
AcDbLine
10
7.055
20
10.49133
11
7.055
21
10.37322
0
LINE
5
F1
100
AcDbEntity
8
vector
6
ByLayer
62
3
370
-1
100
AcDbLine
10
7.055
20
10.37322
11
6.275
21
10.37322
0
LINE
5
F2
100
AcDbEntity
8
vector
6
ByLayer
62
3
370
-1
100
AcDbLine
10
6.275
20
10.37322
11
6.275
21
10.49133
0
LINE
5
F3
100
AcDbEntity
8
vector
6
ByLayer
62
3
370
-1
100
AcDbLine
10
6.275
20
10.49133
11
5.525
21
10.49133
0
LINE
5
F4
100
AcDbEntity
8
vector
6
ByLayer
62
3
370
-1
100
AcDbLine
10
5.525
20
10.49133
11
5.525
21
10.37322
0
LINE
5
F5
100
AcDbEntity
8
vector
6
ByLayer
62
3
370
-1
100
AcDbLine
10
5.525
20
10.37322
11
4.745
21
10.37322
0
LINE
5
F6
100
AcDbEntity
8
vector
6
ByLayer
62
3
370
-1
100
AcDbLine
10
4.745
20
10.37322
11
4.745
21
10.49133
0
LINE
5
F7
100
AcDbEntity
8
vector
6
ByLayer
62
3
370
-1
100
AcDbLine
10
4.745
20
10.49133
11
3.995
21
10.49133
0
LINE
5
F8
100
AcDbEntity
8
vector
6
ByLayer
62
3
370
-1
100
AcDbLine
10
3.995
20
10.49133
11
3.995
21
10.37322
0
LINE
5
F9
100
AcDbEntity
8
vector
6
ByLayer
62
3
370
-1
100
AcDbLine
10
3.995
20
10.37322
11
3.35001
21
10.37322
0
LINE
5
FA
100
AcDbEntity
8
vector
6
ByLayer
62
3
370
-1
100
AcDbLine
10
3.35001
20
8.93623
11
3.995
21
8.93623
0
LINE
5
FB
100
AcDbEntity
8
vector
6
ByLayer
62
3
370
-1
100
AcDbLine
10
3.995
20
8.93623
11
3.995
21
8.81811
0
LINE
5
FC
100
AcDbEntity
8
vector
6
ByLayer
62
3
370
-1
100
AcDbLine
10
3.995
20
8.81811
11
4.745
21
8.81811
0
LINE
5
FD
100
AcDbEntity
8
vector
6
ByLayer
62
3
370
-1
100
AcDbLine
10
4.745
20
8.81811
11
4.745
21
8.93623
0
ARC
5
FE
100
AcDbEntity
8
vector
6
ByLayer
62
256
370
-1
100
AcDbCircle
10
6.225
20
10.02323
40
0.05
100
AcDbArc
50
90
51
180
0
LINE
5
FF
100
AcDbEntity
8
vector
6
ByLayer
62
256
370
-1
100
AcDbLine
10
6.225
20
10.07323
11
6.875
21
10.07323
0
ARC
5
100
100
AcDbEntity
8
vector
6
ByLayer
62
256
370
-1
100
AcDbCircle
10
6.875
20
10.02323
40
0.05
100
AcDbArc
50
0
51
90
0
LINE
5
101
100
AcDbEntity
8
vector
6
ByLayer
62
256
370
-1
100
AcDbLine
10
6.925
20
10.02323
11
6.925
21
9.72323
0
ARC
5
102
100
AcDbEntity
8
vector
6
ByLayer
62
256
370
-1
100
AcDbCircle
10
6.875
20
9.72323
40
0.05
100
AcDbArc
50
270
51
0
0
LINE
5
103
100
AcDbEntity
8
vector
6
ByLayer
62
256
370
-1
100
AcDbLine
10
6.875
20
9.67323
11
6.225
21
9.67323
0
LINE
5
104
100
AcDbEntity
8
vector
6
ByLayer
62
256
370
-1
100
AcDbLine
10
6.175
20
9.72323
11
6.175
21
10.02323
0
ARC
5
105
100
AcDbEntity
8
vector
6
ByLayer
62
256
370
-1
100
AcDbCircle
10
6.225
20
9.72323
40
0.05
100
AcDbArc
50
180
51
270
0
ARC
5
106
100
AcDbEntity
8
vector
6
ByLayer
62
256
370
-1
100
AcDbCircle
10
7.245
20
10.02323
40
0.05
100
AcDbArc
50
90
51
180
0
LINE
5
107
100
AcDbEntity
8
vector
6
ByLayer
62
256
370
-1
100
AcDbLine
10
7.245
20
10.07323
11
7.895
21
10.07323
0
ARC
5
108
100
AcDbEntity
8
vector
6
ByLayer
62
256
370
-1
100
AcDbCircle
10
7.895
20
10.02323
40
0.05
100
AcDbArc
50
0
51
90
0
LINE
5
109
100
AcDbEntity
8
vector
6
ByLayer
62
256
370
-1
100
AcDbLine
10
7.945
20
10.02323
11
7.945
21
9.72323
0
ARC
5
10A
100
AcDbEntity
8
vector
6
ByLayer
62
256
370
-1
100
AcDbCircle
10
7.895
20
9.72323
40
0.05
100
AcDbArc
50
270
51
0
0
LINE
5
10B
100
AcDbEntity
8
vector
6
ByLayer
62
256
370
-1
100
AcDbLine
10
7.895
20
9.67323
11
7.245
21
9.67323
0
LINE
5
10C
100
AcDbEntity
8
vector
6
ByLayer
62
256
370
-1
100
AcDbLine
10
7.195
20
9.72323
11
7.195
21
10.02323
0
ARC
5
10D
100
AcDbEntity
8
vector
6
ByLayer
62
256
370
-1
100
AcDbCircle
10
7.245
20
9.72323
40
0.05
100
AcDbArc
50
180
51
270
0
LINE
5
10E
100
AcDbEntity
8
vector
6
ByLayer
62
3
370
-1
100
AcDbLine
10
0.75001
20
10.37322
11
0.75001
21
9.90472
0
LINE
5
10F
100
AcDbEntity
8
vector
6
ByLayer
62
3
370
-1
100
AcDbLine
10
0.75001
20
9.90472
11
0.63189
21
9.90472
0
LINE
5
110
100
AcDbEntity
8
vector
6
ByLayer
62
3
370
-1
100
AcDbLine
10
0.63189
20
9.90472
11
0.63189
21
9.40472
0
LINE
5
111
100
AcDbEntity
8
vector
6
ByLayer
62
3
370
-1
100
AcDbLine
10
0.63189
20
9.40472
11
0.75001
21
9.40472
0
LINE
5
112
100
AcDbEntity
8
vector
6
ByLayer
62
3
370
-1
100
AcDbLine
10
0.75001
20
9.40472
11
0.75001
21
8.93623
0
LINE
5
113
100
AcDbEntity
8
vector
6
ByLayer
62
3
370
-1
100
AcDbLine
10
1.82001
20
8.93623
11
2.60001
21
8.93623
0
LINE
5
114
100
AcDbEntity
8
vector
6
ByLayer
62
3
370
-1
100
AcDbLine
10
2.60001
20
8.93623
11
2.60001
21
8.81811
0
LINE
5
115
100
AcDbEntity
8
vector
6
ByLayer
62
3
370
-1
100
AcDbLine
10
2.60001
20
8.81811
11
3.35001
21
8.81811
0
LINE
5
116
100
AcDbEntity
8
vector
6
ByLayer
62
3
370
-1
100
AcDbLine
10
3.35001
20
8.81811
11
3.35001
21
8.93623
0
LINE
5
117
100
AcDbEntity
8
vector
6
ByLayer
62
3
370
-1
100
AcDbLine
10
3.35001
20
10.37322
11
3.35001
21
10.49133
0
LINE
5
118
100
AcDbEntity
8
vector
6
ByLayer
62
3
370
-1
100
AcDbLine
10
3.35001
20
10.49133
11
2.60001
21
10.49133
0
LINE
5
119
100
AcDbEntity
8
vector
6
ByLayer
62
3
370
-1
100
AcDbLine
10
2.60001
20
10.49133
11
2.60001
21
10.37322
0
LINE
5
11A
100
AcDbEntity
8
vector
6
ByLayer
62
3
370
-1
100
AcDbLine
10
2.60001
20
10.37322
11
1.82001
21
10.37322
0
LINE
5
11B
100
AcDbEntity
8
vector
6
ByLayer
62
3
370
-1
100
AcDbLine
10
1.82001
20
10.37322
11
1.82001
21
10.49133
0
LINE
5
11C
100
AcDbEntity
8
vector
6
ByLayer
62
3
370
-1
100
AcDbLine
10
1.82001
20
10.49133
11
1.07001
21
10.49133
0
LINE
5
11D
100
AcDbEntity
8
vector
6
ByLayer
62
3
370
-1
100
AcDbLine
10
1.07001
20
10.49133
11
1.07001
21
10.37322
0
LINE
5
11E
100
AcDbEntity
8
vector
6
ByLayer
62
3
370
-1
100
AcDbLine
10
1.07001
20
8.93623
11
1.07001
21
8.81811
0
LINE
5
11F
100
AcDbEntity
8
vector
6
ByLayer
62
3
370
-1
100
AcDbLine
10
1.07001
20
8.81811
11
1.82001
21
8.81811
0
LINE
5
120
100
AcDbEntity
8
vector
6
ByLayer
62
3
370
-1
100
AcDbLine
10
1.82001
20
8.81811
11
1.82001
21
8.93623
0
LINE
5
121
100
AcDbEntity
8
vector
6
ByLayer
62
256
370
-1
100
AcDbLine
10
0.75001
20
10.37322
11
1.07001
21
10.37322
0
LINE
5
122
100
AcDbEntity
8
vector
6
ByLayer
62
256
370
-1
100
AcDbLine
10
0.75001
20
8.93623
11
1.07001
21
8.93623
0
LINE
5
123
100
AcDbEntity
8
vector
6
ByLayer
62
3
370
-1
100
AcDbLine
10
4.745
20
10.67322
11
5.525
21
10.67322
0
LINE
5
124
100
AcDbEntity
8
vector
6
ByLayer
62
3
370
-1
100
AcDbLine
10
5.525
20
10.67322
11
5.525
21
10.55511
0
LINE
5
125
100
AcDbEntity
8
vector
6
ByLayer
62
3
370
-1
100
AcDbLine
10
5.525
20
10.55511
11
6.275
21
10.55511
0
LINE
5
126
100
AcDbEntity
8
vector
6
ByLayer
62
3
370
-1
100
AcDbLine
10
6.275
20
10.55511
11
6.275
21
10.67322
0
LINE
5
127
100
AcDbEntity
8
vector
6
ByLayer
62
3
370
-1
100
AcDbLine
10
6.275
20
10.67322
11
7.055
21
10.67322
0
LINE
5
128
100
AcDbEntity
8
vector
6
ByLayer
62
3
370
-1
100
AcDbLine
10
7.055
20
10.67322
11
7.055
21
10.55511
0
LINE
5
129
100
AcDbEntity
8
vector
6
ByLayer
62
3
370
-1
100
AcDbLine
10
7.055
20
10.55511
11
7.805
21
10.55511
0
LINE
5
12A
100
AcDbEntity
8
vector
6
ByLayer
62
3
370
-1
100
AcDbLine
10
7.805
20
10.55511
11
7.805
21
10.67322
0
LINE
5
12B
100
AcDbEntity
8
vector
6
ByLayer
62
3
370
-1
100
AcDbLine
10
7.805
20
10.67322
11
8.44999
21
10.67322
0
LINE
5
12C
100
AcDbEntity
8
vector
6
ByLayer
62
3
370
-1
100
AcDbLine
10
8.44999
20
10.67322
11
8.44999
21
11.14172
0
LINE
5
12D
100
AcDbEntity
8
vector
6
ByLayer
62
3
370
-1
100
AcDbLine
10
8.44999
20
11.14172
11
8.56811
21
11.14172
0
LINE
5
12E
100
AcDbEntity
8
vector
6
ByLayer
62
3
370
-1
100
AcDbLine
10
8.56811
20
11.14172
11
8.56811
21
11.64172
0
LINE
5
12F
100
AcDbEntity
8
vector
6
ByLayer
62
3
370
-1
100
AcDbLine
10
8.56811
20
11.64172
11
8.44999
21
11.64172
0
LINE
5
130
100
AcDbEntity
8
vector
6
ByLayer
62
3
370
-1
100
AcDbLine
10
8.44999
20
11.64172
11
8.44999
21
12.11021
0
LINE
5
131
100
AcDbEntity
8
vector
6
ByLayer
62
3
370
-1
100
AcDbLine
10
8.44999
20
12.11021
11
7.805
21
12.11021
0
LINE
5
132
100
AcDbEntity
8
vector
6
ByLayer
62
3
370
-1
100
AcDbLine
10
7.805
20
12.11021
11
7.805
21
12.22833
0
LINE
5
133
100
AcDbEntity
8
vector
6
ByLayer
62
3
370
-1
100
AcDbLine
10
7.805
20
12.22833
11
7.055
21
12.22833
0
LINE
5
134
100
AcDbEntity
8
vector
6
ByLayer
62
3
370
-1
100
AcDbLine
10
7.055
20
12.22833
11
7.055
21
12.11021
0
LINE
5
135
100
AcDbEntity
8
vector
6
ByLayer
62
3
370
-1
100
AcDbLine
10
7.055
20
12.11021
11
6.275
21
12.11021
0
LINE
5
136
100
AcDbEntity
8
vector
6
ByLayer
62
3
370
-1
100
AcDbLine
10
6.275
20
12.11021
11
6.275
21
12.22833
0
LINE
5
137
100
AcDbEntity
8
vector
6
ByLayer
62
3
370
-1
100
AcDbLine
10
6.275
20
12.22833
11
5.525
21
12.22833
0
LINE
5
138
100
AcDbEntity
8
vector
6
ByLayer
62
3
370
-1
100
AcDbLine
10
5.525
20
12.22833
11
5.525
21
12.11021
0
LINE
5
139
100
AcDbEntity
8
vector
6
ByLayer
62
3
370
-1
100
AcDbLine
10
5.525
20
12.11021
11
4.745
21
12.11021
0
LINE
5
13A
100
AcDbEntity
8
vector
6
ByLayer
62
3
370
-1
100
AcDbLine
10
4.745
20
12.11021
11
4.745
21
12.22833
0
LINE
5
13B
100
AcDbEntity
8
vector
6
ByLayer
62
3
370
-1
100
AcDbLine
10
4.745
20
12.22833
11
3.995
21
12.22833
0
LINE
5
13C
100
AcDbEntity
8
vector
6
ByLayer
62
3
370
-1
100
AcDbLine
10
3.995
20
12.22833
11
3.995
21
12.11021
0
LINE
5
13D
100
AcDbEntity
8
vector
6
ByLayer
62
3
370
-1
100
AcDbLine
10
3.995
20
12.11021
11
3.35001
21
12.11021
0
LINE
5
13E
100
AcDbEntity
8
vector
6
ByLayer
62
3
370
-1
100
AcDbLine
10
3.35001
20
10.67322
11
3.995
21
10.67322
0
LINE
5
13F
100
AcDbEntity
8
vector
6
ByLayer
62
3
370
-1
100
AcDbLine
10
3.995
20
10.67322
11
3.995
21
10.55511
0
LINE
5
140
100
AcDbEntity
8
vector
6
ByLayer
62
3
370
-1
100
AcDbLine
10
3.995
20
10.55511
11
4.745
21
10.55511
0
LINE
5
141
100
AcDbEntity
8
vector
6
ByLayer
62
3
370
-1
100
AcDbLine
10
4.745
20
10.55511
11
4.745
21
10.67322
0
LINE
5
142
100
AcDbEntity
8
vector
6
ByLayer
62
3
370
-1
100
AcDbLine
10
0.75001
20
12.11021
11
0.75001
21
11.64172
0
LINE
5
143
100
AcDbEntity
8
vector
6
ByLayer
62
3
370
-1
100
AcDbLine
10
0.75001
20
11.64172
11
0.63189
21
11.64172
0
LINE
5
144
100
AcDbEntity
8
vector
6
ByLayer
62
3
370
-1
100
AcDbLine
10
0.63189
20
11.64172
11
0.63189
21
11.14172
0
LINE
5
145
100
AcDbEntity
8
vector
6
ByLayer
62
3
370
-1
100
AcDbLine
10
0.63189
20
11.14172
11
0.75001
21
11.14172
0
LINE
5
146
100
AcDbEntity
8
vector
6
ByLayer
62
3
370
-1
100
AcDbLine
10
0.75001
20
11.14172
11
0.75001
21
10.67322
0
LINE
5
147
100
AcDbEntity
8
vector
6
ByLayer
62
3
370
-1
100
AcDbLine
10
1.82001
20
10.67322
11
2.60001
21
10.67322
0
LINE
5
148
100
AcDbEntity
8
vector
6
ByLayer
62
3
370
-1
100
AcDbLine
10
2.60001
20
10.67322
11
2.60001
21
10.55511
0
LINE
5
149
100
AcDbEntity
8
vector
6
ByLayer
62
3
370
-1
100
AcDbLine
10
2.60001
20
10.55511
11
3.35001
21
10.55511
0
LINE
5
14A
100
AcDbEntity
8
vector
6
ByLayer
62
3
370
-1
100
AcDbLine
10
3.35001
20
10.55511
11
3.35001
21
10.67322
0
LINE
5
14B
100
AcDbEntity
8
vector
6
ByLayer
62
3
370
-1
100
AcDbLine
10
3.35001
20
12.11021
11
3.35001
21
12.22833
0
LINE
5
14C
100
AcDbEntity
8
vector
6
ByLayer
62
3
370
-1
100
AcDbLine
10
3.35001
20
12.22833
11
2.60001
21
12.22833
0
LINE
5
14D
100
AcDbEntity
8
vector
6
ByLayer
62
3
370
-1
100
AcDbLine
10
2.60001
20
12.22833
11
2.60001
21
12.11021
0
LINE
5
14E
100
AcDbEntity
8
vector
6
ByLayer
62
3
370
-1
100
AcDbLine
10
2.60001
20
12.11021
11
1.82001
21
12.11021
0
LINE
5
14F
100
AcDbEntity
8
vector
6
ByLayer
62
3
370
-1
100
AcDbLine
10
1.82001
20
12.11021
11
1.82001
21
12.22833
0
LINE
5
150
100
AcDbEntity
8
vector
6
ByLayer
62
3
370
-1
100
AcDbLine
10
1.82001
20
12.22833
11
1.07001
21
12.22833
0
LINE
5
151
100
AcDbEntity
8
vector
6
ByLayer
62
3
370
-1
100
AcDbLine
10
1.07001
20
12.22833
11
1.07001
21
12.11021
0
LINE
5
152
100
AcDbEntity
8
vector
6
ByLayer
62
3
370
-1
100
AcDbLine
10
1.07001
20
10.67322
11
1.07001
21
10.55511
0
LINE
5
153
100
AcDbEntity
8
vector
6
ByLayer
62
3
370
-1
100
AcDbLine
10
1.07001
20
10.55511
11
1.82001
21
10.55511
0
LINE
5
154
100
AcDbEntity
8
vector
6
ByLayer
62
3
370
-1
100
AcDbLine
10
1.82001
20
10.55511
11
1.82001
21
10.67322
0
LINE
5
155
100
AcDbEntity
8
vector
6
ByLayer
62
256
370
-1
100
AcDbLine
10
0.75001
20
12.11021
11
1.07001
21
12.11021
0
LINE
5
156
100
AcDbEntity
8
vector
6
ByLayer
62
256
370
-1
100
AcDbLine
10
0.75001
20
10.67322
11
1.07001
21
10.67322
0
LINE
5
157
100
AcDbEntity
8
vector
6
ByLayer
62
3
370
-1
100
AcDbLine
10
9.35472
20
0.76377
11
9.85472
21
0.76377
0
LINE
5
158
100
AcDbEntity
8
vector
6
ByLayer
62
3
370
-1
100
AcDbLine
10
9.85472
20
0.76377
11
9.85472
21
0.64565
0
LINE
5
159
100
AcDbEntity
8
vector
6
ByLayer
62
3
370
-1
100
AcDbLine
10
9.85472
20
0.64565
11
10.32322
21
0.64565
0
LINE
5
15A
100
AcDbEntity
8
vector
6
ByLayer
62
3
370
-1
100
AcDbLine
10
10.32322
20
0.64565
11
10.32322
21
1.22971
0
LINE
5
15B
100
AcDbEntity
8
vector
6
ByLayer
62
3
370
-1
100
AcDbLine
10
10.32322
20
1.22971
11
10.44133
21
1.22971
0
LINE
5
15C
100
AcDbEntity
8
vector
6
ByLayer
62
3
370
-1
100
AcDbLine
10
10.44133
20
1.22971
11
10.44133
21
1.979715
0
LINE
5
15D
100
AcDbEntity
8
vector
6
ByLayer
62
3
370
-1
100
AcDbLine
10
10.44133
20
1.979715
11
10.32322
21
1.979715
0
LINE
5
15E
100
AcDbEntity
8
vector
6
ByLayer
62
3
370
-1
100
AcDbLine
10
10.32322
20
1.979715
11
10.32322
21
3.147805
0
LINE
5
15F
100
AcDbEntity
8
vector
6
ByLayer
62
3
370
-1
100
AcDbLine
10
10.32322
20
3.147805
11
10.44133
21
3.147805
0
LINE
5
160
100
AcDbEntity
8
vector
6
ByLayer
62
3
370
-1
100
AcDbLine
10
10.44133
20
3.147805
11
10.44133
21
3.89781
0
LINE
5
161
100
AcDbEntity
8
vector
6
ByLayer
62
3
370
-1
100
AcDbLine
10
10.44133
20
3.89781
11
10.32322
21
3.89781
0
LINE
5
162
100
AcDbEntity
8
vector
6
ByLayer
62
3
370
-1
100
AcDbLine
10
10.32322
20
3.89781
11
10.32322
21
4.48187
0
LINE
5
163
100
AcDbEntity
8
vector
6
ByLayer
62
3
370
-1
100
AcDbLine
10
10.32322
20
4.48187
11
9.85472
21
4.48187
0
LINE
5
164
100
AcDbEntity
8
vector
6
ByLayer
62
3
370
-1
100
AcDbLine
10
9.85472
20
4.48187
11
9.85472
21
4.36375
0
LINE
5
165
100
AcDbEntity
8
vector
6
ByLayer
62
3
370
-1
100
AcDbLine
10
9.85472
20
4.36375
11
9.35472
21
4.36375
0
LINE
5
166
100
AcDbEntity
8
vector
6
ByLayer
62
3
370
-1
100
AcDbLine
10
9.35472
20
4.36375
11
9.35472
21
4.48187
0
LINE
5
167
100
AcDbEntity
8
vector
6
ByLayer
62
3
370
-1
100
AcDbLine
10
9.35472
20
4.48187
11
8.88623
21
4.48187
0
LINE
5
168
100
AcDbEntity
8
vector
6
ByLayer
62
3
370
-1
100
AcDbLine
10
8.88623
20
4.48187
11
8.88623
21
3.89781
0
LINE
5
169
100
AcDbEntity
8
vector
6
ByLayer
62
3
370
-1
100
AcDbLine
10
8.88623
20
3.89781
11
8.76811
21
3.89781
0
LINE
5
16A
100
AcDbEntity
8
vector
6
ByLayer
62
3
370
-1
100
AcDbLine
10
8.76811
20
3.89781
11
8.76811
21
3.147805
0
LINE
5
16B
100
AcDbEntity
8
vector
6
ByLayer
62
3
370
-1
100
AcDbLine
10
8.76811
20
3.147805
11
8.88623
21
3.147805
0
LINE
5
16C
100
AcDbEntity
8
vector
6
ByLayer
62
3
370
-1
100
AcDbLine
10
8.88623
20
3.147805
11
8.88623
21
1.979715
0
LINE
5
16D
100
AcDbEntity
8
vector
6
ByLayer
62
3
370
-1
100
AcDbLine
10
8.88623
20
1.979715
11
8.76811
21
1.979715
0
LINE
5
16E
100
AcDbEntity
8
vector
6
ByLayer
62
3
370
-1
100
AcDbLine
10
8.76811
20
1.979715
11
8.76811
21
1.22971
0
LINE
5
16F
100
AcDbEntity
8
vector
6
ByLayer
62
3
370
-1
100
AcDbLine
10
8.76811
20
1.22971
11
8.88623
21
1.22971
0
LINE
5
170
100
AcDbEntity
8
vector
6
ByLayer
62
3
370
-1
100
AcDbLine
10
8.88623
20
1.22971
11
8.88623
21
0.64565
0
LINE
5
171
100
AcDbEntity
8
vector
6
ByLayer
62
3
370
-1
100
AcDbLine
10
8.88623
20
0.64565
11
9.35472
21
0.64565
0
LINE
5
172
100
AcDbEntity
8
vector
6
ByLayer
62
3
370
-1
100
AcDbLine
10
9.35472
20
0.64565
11
9.35472
21
0.76377
0
ARC
5
173
100
AcDbEntity
8
vector
6
ByLayer
62
256
370
-1
100
AcDbCircle
10
9.74823
20
2.43386
40
0.05
100
AcDbArc
50
90
51
180
0
LINE
5
174
100
AcDbEntity
8
vector
6
ByLayer
62
256
370
-1
100
AcDbLine
10
9.74823
20
2.48386
11
10.09823
21
2.48386
0
ARC
5
175
100
AcDbEntity
8
vector
6
ByLayer
62
256
370
-1
100
AcDbCircle
10
10.09823
20
2.43386
40
0.05
100
AcDbArc
50
0
51
90
0
LINE
5
176
100
AcDbEntity
8
vector
6
ByLayer
62
256
370
-1
100
AcDbLine
10
10.14823
20
2.43386
11
10.14823
21
2.03386
0
ARC
5
177
100
AcDbEntity
8
vector
6
ByLayer
62
256
370
-1
100
AcDbCircle
10
10.09823
20
2.03386
40
0.05
100
AcDbArc
50
270
51
0
0
LINE
5
178
100
AcDbEntity
8
vector
6
ByLayer
62
256
370
-1
100
AcDbLine
10
10.09823
20
1.98386
11
9.74823
21
1.98386
0
LINE
5
179
100
AcDbEntity
8
vector
6
ByLayer
62
256
370
-1
100
AcDbLine
10
9.69823
20
2.03386
11
9.69823
21
2.43386
0
ARC
5
17A
100
AcDbEntity
8
vector
6
ByLayer
62
256
370
-1
100
AcDbCircle
10
9.74823
20
2.03386
40
0.05
100
AcDbArc
50
180
51
270
0
LINE
5
17B
100
AcDbEntity
8
vector
6
ByLayer
62
3
370
-1
100
AcDbLine
10
9.35472
20
4.90001
11
9.85472
21
4.90001
0
LINE
5
17C
100
AcDbEntity
8
vector
6
ByLayer
62
3
370
-1
100
AcDbLine
10
9.85472
20
4.90001
11
9.85472
21
4.78189
0
LINE
5
17D
100
AcDbEntity
8
vector
6
ByLayer
62
3
370
-1
100
AcDbLine
10
9.85472
20
4.78189
11
10.32321
21
4.78189
0
LINE
5
17E
100
AcDbEntity
8
vector
6
ByLayer
62
3
370
-1
100
AcDbLine
10
10.32321
20
4.78189
11
10.32321
21
5.36595
0
LINE
5
17F
100
AcDbEntity
8
vector
6
ByLayer
62
3
370
-1
100
AcDbLine
10
10.32321
20
5.36595
11
10.44133
21
5.36595
0
LINE
5
180
100
AcDbEntity
8
vector
6
ByLayer
62
3
370
-1
100
AcDbLine
10
10.44133
20
5.36595
11
10.44133
21
6.115955
0
LINE
5
181
100
AcDbEntity
8
vector
6
ByLayer
62
3
370
-1
100
AcDbLine
10
10.44133
20
6.115955
11
10.32321
21
6.115955
0
LINE
5
182
100
AcDbEntity
8
vector
6
ByLayer
62
3
370
-1
100
AcDbLine
10
10.32321
20
6.115955
11
10.32321
21
7.284045
0
LINE
5
183
100
AcDbEntity
8
vector
6
ByLayer
62
3
370
-1
100
AcDbLine
10
10.32321
20
7.284045
11
10.44133
21
7.284045
0
LINE
5
184
100
AcDbEntity
8
vector
6
ByLayer
62
3
370
-1
100
AcDbLine
10
10.44133
20
7.284045
11
10.44133
21
8.03405
0
LINE
5
185
100
AcDbEntity
8
vector
6
ByLayer
62
3
370
-1
100
AcDbLine
10
10.44133
20
8.03405
11
10.32321
21
8.03405
0
LINE
5
186
100
AcDbEntity
8
vector
6
ByLayer
62
3
370
-1
100
AcDbLine
10
10.32321
20
8.03405
11
10.32321
21
8.61811
0
LINE
5
187
100
AcDbEntity
8
vector
6
ByLayer
62
3
370
-1
100
AcDbLine
10
10.32321
20
8.61811
11
9.85472
21
8.61811
0
LINE
5
188
100
AcDbEntity
8
vector
6
ByLayer
62
3
370
-1
100
AcDbLine
10
9.85472
20
8.61811
11
9.85472
21
8.49999
0
LINE
5
189
100
AcDbEntity
8
vector
6
ByLayer
62
3
370
-1
100
AcDbLine
10
9.85472
20
8.49999
11
9.35472
21
8.49999
0
LINE
5
18A
100
AcDbEntity
8
vector
6
ByLayer
62
3
370
-1
100
AcDbLine
10
9.35472
20
8.49999
11
9.35472
21
8.61811
0
LINE
5
18B
100
AcDbEntity
8
vector
6
ByLayer
62
3
370
-1
100
AcDbLine
10
9.35472
20
8.61811
11
8.88622
21
8.61811
0
LINE
5
18C
100
AcDbEntity
8
vector
6
ByLayer
62
3
370
-1
100
AcDbLine
10
8.88622
20
8.61811
11
8.88622
21
8.03405
0
LINE
5
18D
100
AcDbEntity
8
vector
6
ByLayer
62
3
370
-1
100
AcDbLine
10
8.88622
20
8.03405
11
8.76811
21
8.03405
0
LINE
5
18E
100
AcDbEntity
8
vector
6
ByLayer
62
3
370
-1
100
AcDbLine
10
8.76811
20
8.03405
11
8.76811
21
7.284045
0
LINE
5
18F
100
AcDbEntity
8
vector
6
ByLayer
62
3
370
-1
100
AcDbLine
10
8.76811
20
7.284045
11
8.88622
21
7.284045
0
LINE
5
190
100
AcDbEntity
8
vector
6
ByLayer
62
3
370
-1
100
AcDbLine
10
8.88622
20
7.284045
11
8.88622
21
6.115955
0
LINE
5
191
100
AcDbEntity
8
vector
6
ByLayer
62
3
370
-1
100
AcDbLine
10
8.88622
20
6.115955
11
8.76811
21
6.115955
0
LINE
5
192
100
AcDbEntity
8
vector
6
ByLayer
62
3
370
-1
100
AcDbLine
10
8.76811
20
6.115955
11
8.76811
21
5.36595
0
LINE
5
193
100
AcDbEntity
8
vector
6
ByLayer
62
3
370
-1
100
AcDbLine
10
8.76811
20
5.36595
11
8.88622
21
5.36595
0
LINE
5
194
100
AcDbEntity
8
vector
6
ByLayer
62
3
370
-1
100
AcDbLine
10
8.88622
20
5.36595
11
8.88622
21
4.78189
0
LINE
5
195
100
AcDbEntity
8
vector
6
ByLayer
62
3
370
-1
100
AcDbLine
10
8.88622
20
4.78189
11
9.35472
21
4.78189
0
LINE
5
196
100
AcDbEntity
8
vector
6
ByLayer
62
3
370
-1
100
AcDbLine
10
9.35472
20
4.78189
11
9.35472
21
4.90001
0
LINE
5
197
100
AcDbEntity
8
vector
6
ByLayer
62
256
370
-1
100
AcDbLine
10
9.08321
20
6.70010005162
11
9.08321
21
7.37510005162
0
ARC
5
198
100
AcDbEntity
8
vector
6
ByLayer
62
256
370
-1
100
AcDbCircle
10
9.13321
20
7.37510005162
40
0.05
100
AcDbArc
50
90
51
180
0
LINE
5
199
100
AcDbEntity
8
vector
6
ByLayer
62
256
370
-1
100
AcDbLine
10
9.13321
20
7.42510005162
11
10.02321
21
7.42510005162
0
ARC
5
19A
100
AcDbEntity
8
vector
6
ByLayer
62
256
370
-1
100
AcDbCircle
10
10.02321
20
7.37510005162
40
0.05
100
AcDbArc
50
3.81666561776e-13
51
90
0
LINE
5
19B
100
AcDbEntity
8
vector
6
ByLayer
62
256
370
-1
100
AcDbLine
10
9.08321
20
6.70010005162
11
9.08321
21
6.02510005162
0
ARC
5
19C
100
AcDbEntity
8
vector
6
ByLayer
62
256
370
-1
100
AcDbCircle
10
9.13321
20
6.02510005162
40
0.05
100
AcDbArc
50
180
51
270
0
LINE
5
19D
100
AcDbEntity
8
vector
6
ByLayer
62
256
370
-1
100
AcDbLine
10
9.13321
20
5.97510005162
11
10.02321
21
5.97510005162
0
LINE
5
19E
100
AcDbEntity
8
vector
6
ByLayer
62
256
370
-1
100
AcDbLine
10
10.07321
20
6.70010005162
11
10.07321
21
6.02510005162
0
ARC
5
19F
100
AcDbEntity
8
vector
6
ByLayer
62
256
370
-1
100
AcDbCircle
10
10.02321
20
6.02510005162
40
0.05
100
AcDbArc
50
270
51
0
0
LINE
5
1A0
100
AcDbEntity
8
vector
6
ByLayer
62
256
370
-1
100
AcDbLine
10
10.07321
20
7.37510005162
11
10.07321
21
6.70010005162
0
ENDSEC
0
SECTION
2
OBJECTS
0
DICTIONARY
5
C
330
0
100
AcDbDictionary
281
1
3
ACAD_GROUP
350
D
0
DICTIONARY
5
D
330
C
100
AcDbDictionary
281
1
0
ENDSEC
0
EOF
