G04 (created by PCBNEW (2013-jul-07)-stable) date Thu 17 Jan 2019 05:03:46 PM PST*
%MOIN*%
G04 Gerber Fmt 3.4, Leading zero omitted, Abs format*
%FSLAX34Y34*%
G01*
G70*
G90*
G04 APERTURE LIST*
%ADD10C,0.00590551*%
%ADD11R,0.0787402X0.0787402*%
%ADD12C,0.0787402*%
%ADD13R,0.07X0.07*%
%ADD14C,0.07*%
%ADD15C,0.01*%
G04 APERTURE END LIST*
G54D10*
G54D11*
X29000Y-29366D03*
G54D12*
X29000Y-30744D03*
X29000Y-32122D03*
X29000Y-33500D03*
X29000Y-34877D03*
X29000Y-36255D03*
X29000Y-37633D03*
X29000Y-24000D03*
G54D11*
X29000Y-22622D03*
G54D12*
X29000Y-25378D03*
G54D13*
X22500Y-28200D03*
G54D14*
X23500Y-28200D03*
X22500Y-29200D03*
X23500Y-29200D03*
X22500Y-30200D03*
X23500Y-30200D03*
X22500Y-31200D03*
X23500Y-31200D03*
X22500Y-32200D03*
X23500Y-32200D03*
G54D15*
X27700Y-24000D02*
X29000Y-24000D01*
X23500Y-28200D02*
X27700Y-24000D01*
X28077Y-22622D02*
X29000Y-22622D01*
X22500Y-28200D02*
X28077Y-22622D01*
X29556Y-31300D02*
X29000Y-30744D01*
X29556Y-33712D02*
X29556Y-31300D01*
X29225Y-34044D02*
X29556Y-33712D01*
X23345Y-34044D02*
X29225Y-34044D01*
X21798Y-32497D02*
X23345Y-34044D01*
X21798Y-30901D02*
X21798Y-32497D01*
X22500Y-30200D02*
X21798Y-30901D01*
X23084Y-33500D02*
X29000Y-33500D01*
X21999Y-32415D02*
X23084Y-33500D01*
X21999Y-31700D02*
X21999Y-32415D01*
X22500Y-31200D02*
X21999Y-31700D01*
M02*
