M48
;DRILL file {Pcbnew (2013-jul-07)-stable} date Thu 17 Jan 2019 05:03:48 PM PST
;FORMAT={-:-/ absolute / inch / decimal}
FMAT,2
INCH,TZ
T1C0.040
T2C0.047
%
G90
G05
M72
T1
X2.25Y-2.82
X2.25Y-2.92
X2.25Y-3.02
X2.25Y-3.12
X2.25Y-3.22
X2.35Y-2.82
X2.35Y-2.92
X2.35Y-3.02
X2.35Y-3.12
X2.35Y-3.22
T2
X2.9Y-2.2622
X2.9Y-2.4
X2.9Y-2.5378
X2.9Y-2.9366
X2.9Y-3.0744
X2.9Y-3.2122
X2.9Y-3.35
X2.9Y-3.4878
X2.9Y-3.6256
X2.9Y-3.7634
T0
M30
