G04 (created by PCBNEW (2013-jul-07)-stable) date Thu 17 Jan 2019 05:03:46 PM PST*
%MOIN*%
G04 Gerber Fmt 3.4, Leading zero omitted, Abs format*
%FSLAX34Y34*%
G01*
G70*
G90*
G04 APERTURE LIST*
%ADD10C,0.00590551*%
%ADD11C,0.008*%
%ADD12C,0.015*%
G04 APERTURE END LIST*
G54D10*
G54D11*
X25857Y-37436D02*
X25952Y-37836D01*
X26028Y-37551D01*
X26104Y-37836D01*
X26200Y-37436D01*
X26580Y-37836D02*
X26447Y-37646D01*
X26352Y-37836D02*
X26352Y-37436D01*
X26504Y-37436D01*
X26542Y-37455D01*
X26561Y-37475D01*
X26580Y-37513D01*
X26580Y-37570D01*
X26561Y-37608D01*
X26542Y-37627D01*
X26504Y-37646D01*
X26352Y-37646D01*
X26752Y-37836D02*
X26752Y-37436D01*
X26980Y-37836D02*
X26809Y-37608D01*
X26980Y-37436D02*
X26752Y-37665D01*
X27114Y-37436D02*
X27380Y-37436D01*
X27209Y-37836D01*
X25857Y-36061D02*
X25952Y-36461D01*
X26028Y-36176D01*
X26104Y-36461D01*
X26200Y-36061D01*
X26580Y-36461D02*
X26447Y-36271D01*
X26352Y-36461D02*
X26352Y-36061D01*
X26504Y-36061D01*
X26542Y-36080D01*
X26561Y-36100D01*
X26580Y-36138D01*
X26580Y-36195D01*
X26561Y-36233D01*
X26542Y-36252D01*
X26504Y-36271D01*
X26352Y-36271D01*
X26752Y-36461D02*
X26752Y-36061D01*
X26980Y-36461D02*
X26809Y-36233D01*
X26980Y-36061D02*
X26752Y-36290D01*
X27323Y-36061D02*
X27247Y-36061D01*
X27209Y-36080D01*
X27190Y-36100D01*
X27152Y-36157D01*
X27133Y-36233D01*
X27133Y-36385D01*
X27152Y-36423D01*
X27171Y-36442D01*
X27209Y-36461D01*
X27285Y-36461D01*
X27323Y-36442D01*
X27342Y-36423D01*
X27361Y-36385D01*
X27361Y-36290D01*
X27342Y-36252D01*
X27323Y-36233D01*
X27285Y-36214D01*
X27209Y-36214D01*
X27171Y-36233D01*
X27152Y-36252D01*
X27133Y-36290D01*
X25857Y-34686D02*
X25952Y-35086D01*
X26028Y-34801D01*
X26104Y-35086D01*
X26200Y-34686D01*
X26580Y-35086D02*
X26447Y-34896D01*
X26352Y-35086D02*
X26352Y-34686D01*
X26504Y-34686D01*
X26542Y-34705D01*
X26561Y-34725D01*
X26580Y-34763D01*
X26580Y-34820D01*
X26561Y-34858D01*
X26542Y-34877D01*
X26504Y-34896D01*
X26352Y-34896D01*
X26752Y-35086D02*
X26752Y-34686D01*
X26980Y-35086D02*
X26809Y-34858D01*
X26980Y-34686D02*
X26752Y-34915D01*
X27342Y-34686D02*
X27152Y-34686D01*
X27133Y-34877D01*
X27152Y-34858D01*
X27190Y-34839D01*
X27285Y-34839D01*
X27323Y-34858D01*
X27342Y-34877D01*
X27361Y-34915D01*
X27361Y-35010D01*
X27342Y-35048D01*
X27323Y-35067D01*
X27285Y-35086D01*
X27190Y-35086D01*
X27152Y-35067D01*
X27133Y-35048D01*
X25857Y-33311D02*
X25952Y-33711D01*
X26028Y-33426D01*
X26104Y-33711D01*
X26200Y-33311D01*
X26580Y-33711D02*
X26447Y-33521D01*
X26352Y-33711D02*
X26352Y-33311D01*
X26504Y-33311D01*
X26542Y-33330D01*
X26561Y-33350D01*
X26580Y-33388D01*
X26580Y-33445D01*
X26561Y-33483D01*
X26542Y-33502D01*
X26504Y-33521D01*
X26352Y-33521D01*
X26752Y-33711D02*
X26752Y-33311D01*
X26980Y-33711D02*
X26809Y-33483D01*
X26980Y-33311D02*
X26752Y-33540D01*
X27323Y-33445D02*
X27323Y-33711D01*
X27228Y-33292D02*
X27133Y-33578D01*
X27380Y-33578D01*
X25857Y-31936D02*
X25952Y-32336D01*
X26028Y-32051D01*
X26104Y-32336D01*
X26200Y-31936D01*
X26580Y-32336D02*
X26447Y-32146D01*
X26352Y-32336D02*
X26352Y-31936D01*
X26504Y-31936D01*
X26542Y-31955D01*
X26561Y-31975D01*
X26580Y-32013D01*
X26580Y-32070D01*
X26561Y-32108D01*
X26542Y-32127D01*
X26504Y-32146D01*
X26352Y-32146D01*
X26752Y-32336D02*
X26752Y-31936D01*
X26980Y-32336D02*
X26809Y-32108D01*
X26980Y-31936D02*
X26752Y-32165D01*
X27114Y-31936D02*
X27361Y-31936D01*
X27228Y-32089D01*
X27285Y-32089D01*
X27323Y-32108D01*
X27342Y-32127D01*
X27361Y-32165D01*
X27361Y-32260D01*
X27342Y-32298D01*
X27323Y-32317D01*
X27285Y-32336D01*
X27171Y-32336D01*
X27133Y-32317D01*
X27114Y-32298D01*
X25838Y-30561D02*
X25933Y-30961D01*
X26009Y-30676D01*
X26085Y-30961D01*
X26180Y-30561D01*
X26561Y-30961D02*
X26428Y-30771D01*
X26333Y-30961D02*
X26333Y-30561D01*
X26485Y-30561D01*
X26523Y-30580D01*
X26542Y-30600D01*
X26561Y-30638D01*
X26561Y-30695D01*
X26542Y-30733D01*
X26523Y-30752D01*
X26485Y-30771D01*
X26333Y-30771D01*
X26733Y-30961D02*
X26733Y-30561D01*
X26961Y-30961D02*
X26790Y-30733D01*
X26961Y-30561D02*
X26733Y-30790D01*
X27114Y-30600D02*
X27133Y-30580D01*
X27171Y-30561D01*
X27266Y-30561D01*
X27304Y-30580D01*
X27323Y-30600D01*
X27342Y-30638D01*
X27342Y-30676D01*
X27323Y-30733D01*
X27095Y-30961D01*
X27342Y-30961D01*
X25857Y-29161D02*
X25952Y-29561D01*
X26028Y-29276D01*
X26104Y-29561D01*
X26200Y-29161D01*
X26580Y-29561D02*
X26447Y-29371D01*
X26352Y-29561D02*
X26352Y-29161D01*
X26504Y-29161D01*
X26542Y-29180D01*
X26561Y-29200D01*
X26580Y-29238D01*
X26580Y-29295D01*
X26561Y-29333D01*
X26542Y-29352D01*
X26504Y-29371D01*
X26352Y-29371D01*
X26752Y-29561D02*
X26752Y-29161D01*
X26980Y-29561D02*
X26809Y-29333D01*
X26980Y-29161D02*
X26752Y-29390D01*
X27361Y-29561D02*
X27133Y-29561D01*
X27247Y-29561D02*
X27247Y-29161D01*
X27209Y-29219D01*
X27171Y-29257D01*
X27133Y-29276D01*
X26623Y-25586D02*
X26490Y-25396D01*
X26395Y-25586D02*
X26395Y-25186D01*
X26547Y-25186D01*
X26585Y-25205D01*
X26604Y-25225D01*
X26623Y-25263D01*
X26623Y-25320D01*
X26604Y-25358D01*
X26585Y-25377D01*
X26547Y-25396D01*
X26395Y-25396D01*
X26795Y-25377D02*
X26928Y-25377D01*
X26985Y-25586D02*
X26795Y-25586D01*
X26795Y-25186D01*
X26985Y-25186D01*
X27290Y-25377D02*
X27157Y-25377D01*
X27157Y-25586D02*
X27157Y-25186D01*
X27347Y-25186D01*
X26623Y-24148D02*
X26604Y-24167D01*
X26547Y-24186D01*
X26509Y-24186D01*
X26452Y-24167D01*
X26414Y-24129D01*
X26395Y-24091D01*
X26376Y-24015D01*
X26376Y-23958D01*
X26395Y-23882D01*
X26414Y-23844D01*
X26452Y-23805D01*
X26509Y-23786D01*
X26547Y-23786D01*
X26604Y-23805D01*
X26623Y-23825D01*
X26738Y-23786D02*
X26966Y-23786D01*
X26852Y-24186D02*
X26852Y-23786D01*
X27328Y-24186D02*
X27195Y-23996D01*
X27100Y-24186D02*
X27100Y-23786D01*
X27252Y-23786D01*
X27290Y-23805D01*
X27309Y-23825D01*
X27328Y-23863D01*
X27328Y-23920D01*
X27309Y-23958D01*
X27290Y-23977D01*
X27252Y-23996D01*
X27100Y-23996D01*
X26504Y-22430D02*
X26466Y-22411D01*
X26409Y-22411D01*
X26352Y-22430D01*
X26314Y-22469D01*
X26295Y-22507D01*
X26276Y-22583D01*
X26276Y-22640D01*
X26295Y-22716D01*
X26314Y-22754D01*
X26352Y-22792D01*
X26409Y-22811D01*
X26447Y-22811D01*
X26504Y-22792D01*
X26523Y-22773D01*
X26523Y-22640D01*
X26447Y-22640D01*
X26695Y-22811D02*
X26695Y-22411D01*
X26923Y-22811D01*
X26923Y-22411D01*
X27114Y-22811D02*
X27114Y-22411D01*
X27209Y-22411D01*
X27266Y-22430D01*
X27304Y-22469D01*
X27323Y-22507D01*
X27342Y-22583D01*
X27342Y-22640D01*
X27323Y-22716D01*
X27304Y-22754D01*
X27266Y-22792D01*
X27209Y-22811D01*
X27114Y-22811D01*
G54D12*
X30338Y-33500D02*
X30338Y-28460D01*
X30338Y-28460D02*
X27661Y-28460D01*
X27661Y-28460D02*
X27661Y-38539D01*
X27661Y-38539D02*
X30338Y-38539D01*
X30338Y-38539D02*
X30338Y-33500D01*
X30339Y-21717D02*
X27661Y-21717D01*
X27661Y-21717D02*
X27661Y-26283D01*
X27661Y-26283D02*
X30339Y-26283D01*
X30339Y-26283D02*
X30339Y-21717D01*
G54D11*
X28704Y-28261D02*
X28704Y-27861D01*
X28857Y-27861D01*
X28895Y-27880D01*
X28914Y-27900D01*
X28933Y-27938D01*
X28933Y-27995D01*
X28914Y-28033D01*
X28895Y-28052D01*
X28857Y-28071D01*
X28704Y-28071D01*
X29085Y-27900D02*
X29104Y-27880D01*
X29142Y-27861D01*
X29238Y-27861D01*
X29276Y-27880D01*
X29295Y-27900D01*
X29314Y-27938D01*
X29314Y-27976D01*
X29295Y-28033D01*
X29066Y-28261D01*
X29314Y-28261D01*
X28704Y-21461D02*
X28704Y-21061D01*
X28933Y-21461D02*
X28761Y-21233D01*
X28933Y-21061D02*
X28704Y-21290D01*
X29314Y-21461D02*
X29085Y-21461D01*
X29200Y-21461D02*
X29200Y-21061D01*
X29161Y-21119D01*
X29123Y-21157D01*
X29085Y-21176D01*
M02*
