G04 (created by PCBNEW (2013-jul-07)-stable) date Thu 17 Jan 2019 05:03:46 PM PST*
%MOIN*%
G04 Gerber Fmt 3.4, Leading zero omitted, Abs format*
%FSLAX34Y34*%
G01*
G70*
G90*
G04 APERTURE LIST*
%ADD10C,0.00590551*%
%ADD11R,0.0787402X0.0787402*%
%ADD12C,0.0787402*%
%ADD13R,0.07X0.07*%
%ADD14C,0.07*%
%ADD15C,0.01*%
G04 APERTURE END LIST*
G54D10*
G54D11*
X29000Y-29366D03*
G54D12*
X29000Y-30744D03*
X29000Y-32122D03*
X29000Y-33500D03*
X29000Y-34877D03*
X29000Y-36255D03*
X29000Y-37633D03*
X29000Y-24000D03*
G54D11*
X29000Y-22622D03*
G54D12*
X29000Y-25378D03*
G54D13*
X22500Y-28200D03*
G54D14*
X23500Y-28200D03*
X22500Y-29200D03*
X23500Y-29200D03*
X22500Y-30200D03*
X23500Y-30200D03*
X22500Y-31200D03*
X23500Y-31200D03*
X22500Y-32200D03*
X23500Y-32200D03*
G54D15*
X24404Y-25377D02*
X29000Y-25377D01*
X21999Y-27783D02*
X24404Y-25377D01*
X21999Y-28699D02*
X21999Y-27783D01*
X22500Y-29200D02*
X21999Y-28699D01*
X28290Y-29200D02*
X28456Y-29366D01*
X23500Y-29200D02*
X28290Y-29200D01*
X29000Y-29366D02*
X28456Y-29366D01*
X27077Y-30200D02*
X29000Y-32122D01*
X23500Y-30200D02*
X27077Y-30200D01*
X25322Y-31200D02*
X29000Y-34877D01*
X23500Y-31200D02*
X25322Y-31200D01*
X29559Y-36815D02*
X29000Y-36255D01*
X29559Y-37854D02*
X29559Y-36815D01*
X29236Y-38177D02*
X29559Y-37854D01*
X28477Y-38177D02*
X29236Y-38177D01*
X22500Y-32200D02*
X28477Y-38177D01*
X28933Y-37633D02*
X29000Y-37633D01*
X23500Y-32200D02*
X28933Y-37633D01*
M02*
