G04 (created by PCBNEW (2013-jul-07)-stable) date Thu 17 Jan 2019 05:03:46 PM PST*
%MOIN*%
G04 Gerber Fmt 3.4, Leading zero omitted, Abs format*
%FSLAX34Y34*%
G01*
G70*
G90*
G04 APERTURE LIST*
%ADD10C,0.00590551*%
%ADD11C,0.008*%
%ADD12C,0.015*%
%ADD13C,0.01*%
G04 APERTURE END LIST*
G54D10*
G54D11*
X25961Y-27295D02*
X25771Y-27161D01*
X25961Y-27066D02*
X25561Y-27066D01*
X25561Y-27219D01*
X25580Y-27257D01*
X25600Y-27276D01*
X25638Y-27295D01*
X25695Y-27295D01*
X25733Y-27276D01*
X25752Y-27257D01*
X25771Y-27219D01*
X25771Y-27066D01*
X25961Y-27523D02*
X25942Y-27485D01*
X25923Y-27466D01*
X25885Y-27447D01*
X25771Y-27447D01*
X25733Y-27466D01*
X25714Y-27485D01*
X25695Y-27523D01*
X25695Y-27580D01*
X25714Y-27619D01*
X25733Y-27638D01*
X25771Y-27657D01*
X25885Y-27657D01*
X25923Y-27638D01*
X25942Y-27619D01*
X25961Y-27580D01*
X25961Y-27523D01*
X25961Y-28000D02*
X25561Y-28000D01*
X25942Y-28000D02*
X25961Y-27961D01*
X25961Y-27885D01*
X25942Y-27847D01*
X25923Y-27828D01*
X25885Y-27809D01*
X25771Y-27809D01*
X25733Y-27828D01*
X25714Y-27847D01*
X25695Y-27885D01*
X25695Y-27961D01*
X25714Y-28000D01*
X25942Y-28342D02*
X25961Y-28304D01*
X25961Y-28228D01*
X25942Y-28190D01*
X25904Y-28171D01*
X25752Y-28171D01*
X25714Y-28190D01*
X25695Y-28228D01*
X25695Y-28304D01*
X25714Y-28342D01*
X25752Y-28361D01*
X25790Y-28361D01*
X25828Y-28171D01*
X25961Y-28590D02*
X25942Y-28552D01*
X25923Y-28533D01*
X25885Y-28514D01*
X25771Y-28514D01*
X25733Y-28533D01*
X25714Y-28552D01*
X25695Y-28590D01*
X25695Y-28647D01*
X25714Y-28685D01*
X25733Y-28704D01*
X25771Y-28723D01*
X25885Y-28723D01*
X25923Y-28704D01*
X25942Y-28685D01*
X25961Y-28647D01*
X25961Y-28590D01*
X25942Y-28876D02*
X25961Y-28914D01*
X25961Y-28990D01*
X25942Y-29028D01*
X25904Y-29047D01*
X25885Y-29047D01*
X25847Y-29028D01*
X25828Y-28990D01*
X25828Y-28933D01*
X25809Y-28895D01*
X25771Y-28876D01*
X25752Y-28876D01*
X25714Y-28895D01*
X25695Y-28933D01*
X25695Y-28990D01*
X25714Y-29028D01*
X25695Y-29161D02*
X25695Y-29314D01*
X25561Y-29219D02*
X25904Y-29219D01*
X25942Y-29238D01*
X25961Y-29276D01*
X25961Y-29314D01*
X25961Y-29619D02*
X25752Y-29619D01*
X25714Y-29600D01*
X25695Y-29561D01*
X25695Y-29485D01*
X25714Y-29447D01*
X25942Y-29619D02*
X25961Y-29580D01*
X25961Y-29485D01*
X25942Y-29447D01*
X25904Y-29428D01*
X25866Y-29428D01*
X25828Y-29447D01*
X25809Y-29485D01*
X25809Y-29580D01*
X25790Y-29619D01*
X25695Y-29752D02*
X25695Y-29904D01*
X25561Y-29809D02*
X25904Y-29809D01*
X25942Y-29828D01*
X25961Y-29866D01*
X25961Y-29904D01*
X25961Y-30342D02*
X25561Y-30342D01*
X25847Y-30476D01*
X25561Y-30609D01*
X25961Y-30609D01*
X25695Y-30971D02*
X25961Y-30971D01*
X25695Y-30800D02*
X25904Y-30800D01*
X25942Y-30819D01*
X25961Y-30857D01*
X25961Y-30914D01*
X25942Y-30952D01*
X25923Y-30971D01*
X25961Y-31219D02*
X25942Y-31180D01*
X25904Y-31161D01*
X25561Y-31161D01*
X25695Y-31314D02*
X25695Y-31466D01*
X25561Y-31371D02*
X25904Y-31371D01*
X25942Y-31390D01*
X25961Y-31428D01*
X25961Y-31466D01*
X25961Y-31600D02*
X25695Y-31600D01*
X25561Y-31600D02*
X25580Y-31580D01*
X25600Y-31600D01*
X25580Y-31619D01*
X25561Y-31600D01*
X25600Y-31600D01*
X25695Y-31790D02*
X26095Y-31790D01*
X25714Y-31790D02*
X25695Y-31828D01*
X25695Y-31904D01*
X25714Y-31942D01*
X25733Y-31961D01*
X25771Y-31980D01*
X25885Y-31980D01*
X25923Y-31961D01*
X25942Y-31942D01*
X25961Y-31904D01*
X25961Y-31828D01*
X25942Y-31790D01*
X25961Y-32209D02*
X25942Y-32171D01*
X25904Y-32152D01*
X25561Y-32152D01*
X25942Y-32514D02*
X25961Y-32476D01*
X25961Y-32400D01*
X25942Y-32361D01*
X25904Y-32342D01*
X25752Y-32342D01*
X25714Y-32361D01*
X25695Y-32400D01*
X25695Y-32476D01*
X25714Y-32514D01*
X25752Y-32533D01*
X25790Y-32533D01*
X25828Y-32342D01*
X25961Y-32666D02*
X25695Y-32876D01*
X25695Y-32666D02*
X25961Y-32876D01*
X25942Y-33180D02*
X25961Y-33142D01*
X25961Y-33066D01*
X25942Y-33028D01*
X25904Y-33009D01*
X25752Y-33009D01*
X25714Y-33028D01*
X25695Y-33066D01*
X25695Y-33142D01*
X25714Y-33180D01*
X25752Y-33199D01*
X25790Y-33199D01*
X25828Y-33009D01*
X25961Y-33371D02*
X25695Y-33371D01*
X25771Y-33371D02*
X25733Y-33390D01*
X25714Y-33409D01*
X25695Y-33447D01*
X25695Y-33485D01*
X26582Y-25561D02*
X26601Y-25619D01*
X26601Y-25714D01*
X26582Y-25752D01*
X26563Y-25771D01*
X26525Y-25790D01*
X26487Y-25790D01*
X26449Y-25771D01*
X26430Y-25752D01*
X26411Y-25714D01*
X26392Y-25638D01*
X26373Y-25600D01*
X26354Y-25580D01*
X26316Y-25561D01*
X26278Y-25561D01*
X26240Y-25580D01*
X26220Y-25600D01*
X26201Y-25638D01*
X26201Y-25733D01*
X26220Y-25790D01*
X26582Y-26133D02*
X26601Y-26095D01*
X26601Y-26019D01*
X26582Y-25980D01*
X26563Y-25961D01*
X26525Y-25942D01*
X26411Y-25942D01*
X26373Y-25961D01*
X26354Y-25980D01*
X26335Y-26019D01*
X26335Y-26095D01*
X26354Y-26133D01*
X26601Y-26304D02*
X26335Y-26304D01*
X26411Y-26304D02*
X26373Y-26323D01*
X26354Y-26342D01*
X26335Y-26380D01*
X26335Y-26419D01*
X26582Y-26704D02*
X26601Y-26666D01*
X26601Y-26590D01*
X26582Y-26552D01*
X26544Y-26533D01*
X26392Y-26533D01*
X26354Y-26552D01*
X26335Y-26590D01*
X26335Y-26666D01*
X26354Y-26704D01*
X26392Y-26723D01*
X26430Y-26723D01*
X26468Y-26533D01*
X26335Y-26857D02*
X26601Y-26933D01*
X26411Y-27009D01*
X26601Y-27085D01*
X26335Y-27161D01*
X26201Y-27561D02*
X26201Y-27790D01*
X26601Y-27676D02*
X26201Y-27676D01*
X26582Y-28076D02*
X26601Y-28038D01*
X26601Y-27961D01*
X26582Y-27923D01*
X26544Y-27904D01*
X26392Y-27904D01*
X26354Y-27923D01*
X26335Y-27961D01*
X26335Y-28038D01*
X26354Y-28076D01*
X26392Y-28095D01*
X26430Y-28095D01*
X26468Y-27904D01*
X26601Y-28266D02*
X26335Y-28266D01*
X26411Y-28266D02*
X26373Y-28285D01*
X26354Y-28304D01*
X26335Y-28342D01*
X26335Y-28380D01*
X26601Y-28514D02*
X26335Y-28514D01*
X26373Y-28514D02*
X26354Y-28533D01*
X26335Y-28571D01*
X26335Y-28628D01*
X26354Y-28666D01*
X26392Y-28685D01*
X26601Y-28685D01*
X26392Y-28685D02*
X26354Y-28704D01*
X26335Y-28742D01*
X26335Y-28800D01*
X26354Y-28838D01*
X26392Y-28857D01*
X26601Y-28857D01*
X26601Y-29047D02*
X26335Y-29047D01*
X26201Y-29047D02*
X26220Y-29028D01*
X26240Y-29047D01*
X26220Y-29066D01*
X26201Y-29047D01*
X26240Y-29047D01*
X26335Y-29238D02*
X26601Y-29238D01*
X26373Y-29238D02*
X26354Y-29257D01*
X26335Y-29295D01*
X26335Y-29352D01*
X26354Y-29390D01*
X26392Y-29409D01*
X26601Y-29409D01*
X26601Y-29771D02*
X26392Y-29771D01*
X26354Y-29752D01*
X26335Y-29714D01*
X26335Y-29638D01*
X26354Y-29600D01*
X26582Y-29771D02*
X26601Y-29733D01*
X26601Y-29638D01*
X26582Y-29600D01*
X26544Y-29580D01*
X26506Y-29580D01*
X26468Y-29600D01*
X26449Y-29638D01*
X26449Y-29733D01*
X26430Y-29771D01*
X26601Y-30019D02*
X26582Y-29980D01*
X26544Y-29961D01*
X26201Y-29961D01*
X26487Y-30457D02*
X26487Y-30647D01*
X26601Y-30419D02*
X26201Y-30552D01*
X26601Y-30685D01*
X26601Y-30990D02*
X26201Y-30990D01*
X26582Y-30990D02*
X26601Y-30952D01*
X26601Y-30876D01*
X26582Y-30838D01*
X26563Y-30819D01*
X26525Y-30800D01*
X26411Y-30800D01*
X26373Y-30819D01*
X26354Y-30838D01*
X26335Y-30876D01*
X26335Y-30952D01*
X26354Y-30990D01*
X26601Y-31352D02*
X26392Y-31352D01*
X26354Y-31333D01*
X26335Y-31295D01*
X26335Y-31219D01*
X26354Y-31180D01*
X26582Y-31352D02*
X26601Y-31314D01*
X26601Y-31219D01*
X26582Y-31180D01*
X26544Y-31161D01*
X26506Y-31161D01*
X26468Y-31180D01*
X26449Y-31219D01*
X26449Y-31314D01*
X26430Y-31352D01*
X26335Y-31542D02*
X26735Y-31542D01*
X26354Y-31542D02*
X26335Y-31580D01*
X26335Y-31657D01*
X26354Y-31695D01*
X26373Y-31714D01*
X26411Y-31733D01*
X26525Y-31733D01*
X26563Y-31714D01*
X26582Y-31695D01*
X26601Y-31657D01*
X26601Y-31580D01*
X26582Y-31542D01*
X26335Y-31847D02*
X26335Y-32000D01*
X26201Y-31904D02*
X26544Y-31904D01*
X26582Y-31923D01*
X26601Y-31961D01*
X26601Y-32000D01*
X26582Y-32285D02*
X26601Y-32247D01*
X26601Y-32171D01*
X26582Y-32133D01*
X26544Y-32114D01*
X26392Y-32114D01*
X26354Y-32133D01*
X26335Y-32171D01*
X26335Y-32247D01*
X26354Y-32285D01*
X26392Y-32304D01*
X26430Y-32304D01*
X26468Y-32114D01*
X26601Y-32476D02*
X26335Y-32476D01*
X26411Y-32476D02*
X26373Y-32495D01*
X26354Y-32514D01*
X26335Y-32552D01*
X26335Y-32590D01*
X26201Y-32971D02*
X26601Y-33104D01*
X26201Y-33238D01*
X26201Y-33447D02*
X26201Y-33485D01*
X26220Y-33523D01*
X26240Y-33542D01*
X26278Y-33561D01*
X26354Y-33580D01*
X26449Y-33580D01*
X26525Y-33561D01*
X26563Y-33542D01*
X26582Y-33523D01*
X26601Y-33485D01*
X26601Y-33447D01*
X26582Y-33409D01*
X26563Y-33390D01*
X26525Y-33371D01*
X26449Y-33352D01*
X26354Y-33352D01*
X26278Y-33371D01*
X26240Y-33390D01*
X26220Y-33409D01*
X26201Y-33447D01*
X26563Y-33752D02*
X26582Y-33771D01*
X26601Y-33752D01*
X26582Y-33733D01*
X26563Y-33752D01*
X26601Y-33752D01*
X26601Y-34152D02*
X26601Y-33923D01*
X26601Y-34038D02*
X26201Y-34038D01*
X26259Y-33999D01*
X26297Y-33961D01*
X26316Y-33923D01*
X26601Y-34857D02*
X26411Y-34723D01*
X26601Y-34628D02*
X26201Y-34628D01*
X26201Y-34780D01*
X26220Y-34819D01*
X26240Y-34838D01*
X26278Y-34857D01*
X26335Y-34857D01*
X26373Y-34838D01*
X26392Y-34819D01*
X26411Y-34780D01*
X26411Y-34628D01*
X26601Y-35238D02*
X26601Y-35009D01*
X26601Y-35123D02*
X26201Y-35123D01*
X26259Y-35085D01*
X26297Y-35047D01*
X26316Y-35009D01*
X26975Y-27904D02*
X27241Y-27980D01*
X27051Y-28057D01*
X27241Y-28133D01*
X26975Y-28209D01*
X26975Y-28323D02*
X27241Y-28400D01*
X27051Y-28476D01*
X27241Y-28552D01*
X26975Y-28628D01*
X26975Y-28742D02*
X27241Y-28819D01*
X27051Y-28895D01*
X27241Y-28971D01*
X26975Y-29047D01*
X27203Y-29200D02*
X27222Y-29219D01*
X27241Y-29200D01*
X27222Y-29180D01*
X27203Y-29200D01*
X27241Y-29200D01*
X27241Y-29390D02*
X26975Y-29390D01*
X26841Y-29390D02*
X26860Y-29371D01*
X26880Y-29390D01*
X26860Y-29409D01*
X26841Y-29390D01*
X26880Y-29390D01*
X27241Y-29638D02*
X27222Y-29600D01*
X27203Y-29580D01*
X27165Y-29561D01*
X27051Y-29561D01*
X27013Y-29580D01*
X26994Y-29600D01*
X26975Y-29638D01*
X26975Y-29695D01*
X26994Y-29733D01*
X27013Y-29752D01*
X27051Y-29771D01*
X27165Y-29771D01*
X27203Y-29752D01*
X27222Y-29733D01*
X27241Y-29695D01*
X27241Y-29638D01*
X27241Y-29942D02*
X26975Y-29942D01*
X27051Y-29942D02*
X27013Y-29961D01*
X26994Y-29980D01*
X26975Y-30019D01*
X26975Y-30057D01*
X27241Y-30247D02*
X27222Y-30209D01*
X27203Y-30190D01*
X27165Y-30171D01*
X27051Y-30171D01*
X27013Y-30190D01*
X26994Y-30209D01*
X26975Y-30247D01*
X26975Y-30304D01*
X26994Y-30342D01*
X27013Y-30361D01*
X27051Y-30380D01*
X27165Y-30380D01*
X27203Y-30361D01*
X27222Y-30342D01*
X27241Y-30304D01*
X27241Y-30247D01*
X27241Y-30723D02*
X26841Y-30723D01*
X27222Y-30723D02*
X27241Y-30685D01*
X27241Y-30609D01*
X27222Y-30571D01*
X27203Y-30552D01*
X27165Y-30533D01*
X27051Y-30533D01*
X27013Y-30552D01*
X26994Y-30571D01*
X26975Y-30609D01*
X26975Y-30685D01*
X26994Y-30723D01*
X27222Y-31066D02*
X27241Y-31028D01*
X27241Y-30952D01*
X27222Y-30914D01*
X27184Y-30895D01*
X27032Y-30895D01*
X26994Y-30914D01*
X26975Y-30952D01*
X26975Y-31028D01*
X26994Y-31066D01*
X27032Y-31085D01*
X27070Y-31085D01*
X27108Y-30895D01*
X27241Y-31314D02*
X27222Y-31276D01*
X27203Y-31257D01*
X27165Y-31238D01*
X27051Y-31238D01*
X27013Y-31257D01*
X26994Y-31276D01*
X26975Y-31314D01*
X26975Y-31371D01*
X26994Y-31409D01*
X27013Y-31428D01*
X27051Y-31447D01*
X27165Y-31447D01*
X27203Y-31428D01*
X27222Y-31409D01*
X27241Y-31371D01*
X27241Y-31314D01*
X27203Y-31619D02*
X27222Y-31638D01*
X27241Y-31619D01*
X27222Y-31600D01*
X27203Y-31619D01*
X27241Y-31619D01*
X27222Y-31980D02*
X27241Y-31942D01*
X27241Y-31866D01*
X27222Y-31828D01*
X27203Y-31809D01*
X27165Y-31790D01*
X27051Y-31790D01*
X27013Y-31809D01*
X26994Y-31828D01*
X26975Y-31866D01*
X26975Y-31942D01*
X26994Y-31980D01*
X27241Y-32209D02*
X27222Y-32171D01*
X27203Y-32152D01*
X27165Y-32133D01*
X27051Y-32133D01*
X27013Y-32152D01*
X26994Y-32171D01*
X26975Y-32209D01*
X26975Y-32266D01*
X26994Y-32304D01*
X27013Y-32323D01*
X27051Y-32342D01*
X27165Y-32342D01*
X27203Y-32323D01*
X27222Y-32304D01*
X27241Y-32266D01*
X27241Y-32209D01*
X27241Y-32514D02*
X26975Y-32514D01*
X27013Y-32514D02*
X26994Y-32533D01*
X26975Y-32571D01*
X26975Y-32628D01*
X26994Y-32666D01*
X27032Y-32685D01*
X27241Y-32685D01*
X27032Y-32685D02*
X26994Y-32704D01*
X26975Y-32742D01*
X26975Y-32800D01*
X26994Y-32838D01*
X27032Y-32857D01*
X27241Y-32857D01*
G54D12*
X24900Y-26200D02*
X24900Y-34200D01*
X24900Y-34200D02*
X21100Y-34200D01*
X21100Y-34200D02*
X21100Y-26200D01*
X21100Y-26200D02*
X24900Y-26200D01*
X20126Y-27483D02*
X20126Y-28665D01*
X20839Y-28088D02*
X20139Y-27488D01*
X20140Y-28688D02*
X20840Y-28088D01*
G54D11*
X23295Y-25961D02*
X23295Y-25561D01*
X23142Y-25561D01*
X23104Y-25580D01*
X23085Y-25600D01*
X23066Y-25638D01*
X23066Y-25695D01*
X23085Y-25733D01*
X23104Y-25752D01*
X23142Y-25771D01*
X23295Y-25771D01*
X22685Y-25961D02*
X22914Y-25961D01*
X22799Y-25961D02*
X22799Y-25561D01*
X22838Y-25619D01*
X22876Y-25657D01*
X22914Y-25676D01*
G54D13*
X24462Y-32033D02*
X24462Y-31748D01*
X24462Y-31890D02*
X23962Y-31890D01*
X24033Y-31843D01*
X24081Y-31795D01*
X24105Y-31748D01*
X23962Y-32343D02*
X23962Y-32390D01*
X23986Y-32438D01*
X24010Y-32462D01*
X24057Y-32486D01*
X24152Y-32509D01*
X24271Y-32509D01*
X24367Y-32486D01*
X24414Y-32462D01*
X24438Y-32438D01*
X24462Y-32390D01*
X24462Y-32343D01*
X24438Y-32295D01*
X24414Y-32271D01*
X24367Y-32248D01*
X24271Y-32224D01*
X24152Y-32224D01*
X24057Y-32248D01*
X24010Y-32271D01*
X23986Y-32295D01*
X23962Y-32343D01*
X21824Y-32151D02*
X21824Y-32247D01*
X21800Y-32294D01*
X21776Y-32318D01*
X21705Y-32366D01*
X21610Y-32389D01*
X21419Y-32389D01*
X21372Y-32366D01*
X21348Y-32342D01*
X21324Y-32294D01*
X21324Y-32199D01*
X21348Y-32151D01*
X21372Y-32127D01*
X21419Y-32104D01*
X21538Y-32104D01*
X21586Y-32127D01*
X21610Y-32151D01*
X21633Y-32199D01*
X21633Y-32294D01*
X21610Y-32342D01*
X21586Y-32366D01*
X21538Y-32389D01*
X24010Y-28049D02*
X23986Y-28072D01*
X23962Y-28120D01*
X23962Y-28239D01*
X23986Y-28287D01*
X24010Y-28311D01*
X24057Y-28334D01*
X24105Y-28334D01*
X24176Y-28311D01*
X24462Y-28025D01*
X24462Y-28334D01*
M02*
