%TF.GenerationSoftware,KiCad,Pcbnew,5.1.7-a382d34a8~87~ubuntu18.04.1*%
%TF.CreationDate,2021-02-16T09:57:15-08:00*%
%TF.ProjectId,potentiostat,706f7465-6e74-4696-9f73-7461742e6b69,rev?*%
%TF.SameCoordinates,Original*%
%TF.FileFunction,Copper,L2,Bot*%
%TF.FilePolarity,Positive*%
%FSLAX46Y46*%
G04 Gerber Fmt 4.6, Leading zero omitted, Abs format (unit mm)*
G04 Created by KiCad (PCBNEW 5.1.7-a382d34a8~87~ubuntu18.04.1) date 2021-02-16 09:57:15*
%MOMM*%
%LPD*%
G01*
G04 APERTURE LIST*
%TA.AperFunction,ComponentPad*%
%ADD10R,1.524000X1.524000*%
%TD*%
%TA.AperFunction,ComponentPad*%
%ADD11C,1.524000*%
%TD*%
%TA.AperFunction,ComponentPad*%
%ADD12C,1.854200*%
%TD*%
%TA.AperFunction,ComponentPad*%
%ADD13R,1.854200X1.854200*%
%TD*%
%TA.AperFunction,ComponentPad*%
%ADD14C,1.700000*%
%TD*%
%TA.AperFunction,ComponentPad*%
%ADD15R,1.700000X1.700000*%
%TD*%
%TA.AperFunction,ComponentPad*%
%ADD16C,1.650000*%
%TD*%
%TA.AperFunction,ComponentPad*%
%ADD17C,3.810000*%
%TD*%
%TA.AperFunction,ComponentPad*%
%ADD18C,1.651000*%
%TD*%
%TA.AperFunction,ViaPad*%
%ADD19C,0.889000*%
%TD*%
%TA.AperFunction,Conductor*%
%ADD20C,0.381000*%
%TD*%
%TA.AperFunction,Conductor*%
%ADD21C,0.254000*%
%TD*%
G04 APERTURE END LIST*
D10*
%TO.P,P5,1*%
%TO.N,/AGND*%
X53340000Y-68580000D03*
D11*
%TO.P,P5,2*%
X55880000Y-68580000D03*
%TD*%
D10*
%TO.P,K1,1*%
%TO.N,/CTR_ELECT_OUT*%
X175514000Y-115062000D03*
D11*
%TO.P,K1,2*%
%TO.N,/REF_ELECT_OUT*%
X175514000Y-117602000D03*
%TO.P,K1,3*%
%TO.N,/WRK_ELECT_OUT*%
X175514000Y-120142000D03*
%TD*%
D12*
%TO.P,P1,2*%
%TO.N,/AGND*%
X189230000Y-72870060D03*
D13*
%TO.P,P1,1*%
%TO.N,/CTR_ELECT_OUT*%
X189230000Y-69369940D03*
%TD*%
D12*
%TO.P,P2,2*%
%TO.N,/AGND*%
X189230000Y-84300060D03*
D13*
%TO.P,P2,1*%
%TO.N,/REF_ELECT_OUT*%
X189230000Y-80799940D03*
%TD*%
D12*
%TO.P,P3,2*%
%TO.N,/AGND*%
X189230000Y-95730060D03*
D13*
%TO.P,P3,1*%
%TO.N,/WRK_ELECT_OUT*%
X189230000Y-92229940D03*
%TD*%
D14*
%TO.P,P14,10*%
%TO.N,/D31*%
X66802000Y-134620000D03*
%TO.P,P14,9*%
%TO.N,/D30*%
X66802000Y-132080000D03*
%TO.P,P14,8*%
%TO.N,/D29*%
X69342000Y-134620000D03*
%TO.P,P14,7*%
%TO.N,/D28*%
X69342000Y-132080000D03*
%TO.P,P14,6*%
%TO.N,/D27*%
X71882000Y-134620000D03*
%TO.P,P14,5*%
%TO.N,/D26*%
X71882000Y-132080000D03*
%TO.P,P14,4*%
%TO.N,/D25*%
X74422000Y-134620000D03*
%TO.P,P14,3*%
%TO.N,/D24*%
X74422000Y-132080000D03*
%TO.P,P14,2*%
%TO.N,/GND*%
X76962000Y-134620000D03*
D15*
%TO.P,P14,1*%
%TO.N,/VEXP*%
X76962000Y-132080000D03*
%TD*%
D14*
%TO.P,P13,10*%
%TO.N,/CS*%
X92710000Y-134620000D03*
%TO.P,P13,9*%
%TO.N,/SCK*%
X92710000Y-132080000D03*
%TO.P,P13,8*%
%TO.N,/MOSI*%
X95250000Y-134620000D03*
%TO.P,P13,7*%
%TO.N,/MISO*%
X95250000Y-132080000D03*
%TO.P,P13,6*%
%TO.N,/SDA*%
X97790000Y-134620000D03*
%TO.P,P13,5*%
%TO.N,/SCL*%
X97790000Y-132080000D03*
%TO.P,P13,4*%
%TO.N,/D4*%
X100330000Y-134620000D03*
%TO.P,P13,3*%
%TO.N,/D3*%
X100330000Y-132080000D03*
%TO.P,P13,2*%
%TO.N,/GND*%
X102870000Y-134620000D03*
D15*
%TO.P,P13,1*%
%TO.N,/VUEXT*%
X102870000Y-132080000D03*
%TD*%
D16*
%TO.P,U2,*%
%TO.N,*%
X57658000Y-81788000D03*
%TO.P,U2,51*%
%TO.N,Net-(U2-Pad51)*%
X55118000Y-81788000D03*
%TO.P,U2,50*%
%TO.N,Net-(U2-Pad50)*%
X60198000Y-81788000D03*
%TO.P,U2,49*%
%TO.N,Net-(U2-Pad49)*%
X62738000Y-81788000D03*
%TO.P,U2,48*%
%TO.N,Net-(U2-Pad48)*%
X65278000Y-81788000D03*
%TO.P,U2,47*%
%TO.N,Net-(U2-Pad47)*%
X67818000Y-84328000D03*
%TO.P,U2,46*%
%TO.N,Net-(U2-Pad46)*%
X70358000Y-84328000D03*
%TO.P,U2,45*%
%TO.N,Net-(U2-Pad45)*%
X72898000Y-84328000D03*
%TO.P,U2,44*%
%TO.N,Net-(U2-Pad44)*%
X75438000Y-84328000D03*
%TO.P,U2,43*%
%TO.N,/D31*%
X77978000Y-84328000D03*
%TO.P,U2,42*%
%TO.N,/D30*%
X80518000Y-84328000D03*
%TO.P,U2,41*%
%TO.N,/D29*%
X83058000Y-84328000D03*
%TO.P,U2,40*%
%TO.N,/D28*%
X83058000Y-86868000D03*
%TO.P,U2,39*%
%TO.N,/D27*%
X80518000Y-86868000D03*
%TO.P,U2,38*%
%TO.N,/D26*%
X77978000Y-86868000D03*
%TO.P,U2,37*%
%TO.N,/D25*%
X75438000Y-86868000D03*
%TO.P,U2,36*%
%TO.N,/D24*%
X72898000Y-86868000D03*
%TO.P,U2,35*%
%TO.N,Net-(U2-Pad35)*%
X70358000Y-86868000D03*
%TO.P,U2,34*%
%TO.N,Net-(U2-Pad34)*%
X67818000Y-86868000D03*
%TO.P,U2,33*%
%TO.N,/5V*%
X52578000Y-79248000D03*
%TO.P,U2,32*%
%TO.N,/AGND*%
X55118000Y-79248000D03*
%TO.P,U2,31*%
%TO.N,Net-(U2-Pad31)*%
X57658000Y-79248000D03*
%TO.P,U2,30*%
%TO.N,Net-(U2-Pad30)*%
X60198000Y-79248000D03*
%TO.P,U2,29*%
%TO.N,Net-(U2-Pad29)*%
X62738000Y-79248000D03*
%TO.P,U2,28*%
%TO.N,/REF_GAIN_A1*%
X65278000Y-79248000D03*
%TO.P,U2,27*%
%TO.N,/REF_GAIN_A0*%
X67818000Y-79248000D03*
%TO.P,U2,26*%
%TO.N,/SCL*%
X70358000Y-79248000D03*
%TO.P,U2,25*%
%TO.N,/SDA*%
X72898000Y-79248000D03*
%TO.P,U2,24*%
%TO.N,Net-(U2-Pad24)*%
X75438000Y-79248000D03*
%TO.P,U2,23*%
%TO.N,/REF_ELECT_UNI*%
X77978000Y-79248000D03*
%TO.P,U2,22*%
%TO.N,/TIA_OUT_UNI*%
X80518000Y-79248000D03*
%TO.P,U2,21*%
%TO.N,Net-(U2-Pad21)*%
X83058000Y-79248000D03*
%TO.P,U2,20*%
%TO.N,/SCK*%
X85598000Y-79248000D03*
%TO.P,U2,19*%
%TO.N,/DAC_UNI*%
X85598000Y-81788000D03*
%TO.P,U2,18*%
%TO.N,Net-(U2-Pad18)*%
X85598000Y-84328000D03*
%TO.P,U2,17*%
%TO.N,/GND*%
X85598000Y-86868000D03*
%TO.P,U2,16*%
%TO.N,/3V3*%
X85598000Y-89408000D03*
%TO.P,U2,15*%
%TO.N,Net-(U2-Pad15)*%
X85598000Y-91948000D03*
%TO.P,U2,14*%
%TO.N,/MISO*%
X85598000Y-94488000D03*
%TO.P,U2,13*%
%TO.N,/MOSI*%
X83058000Y-94488000D03*
%TO.P,U2,12*%
%TO.N,/CS*%
X80518000Y-94488000D03*
%TO.P,U2,11*%
%TO.N,/SW_WRK_ELECT*%
X77978000Y-94488000D03*
%TO.P,U2,10*%
%TO.N,/SW_REF_ELECT*%
X75438000Y-94488000D03*
%TO.P,U2,9*%
%TO.N,/SW_CTR_ELECT*%
X72898000Y-94488000D03*
%TO.P,U2,8*%
%TO.N,/TIA_GAIN_A1*%
X70358000Y-94488000D03*
%TO.P,U2,7*%
%TO.N,/TIA_GAIN_A0*%
X67818000Y-94488000D03*
%TO.P,U2,6*%
%TO.N,/D4*%
X65278000Y-94488000D03*
%TO.P,U2,5*%
%TO.N,/D3*%
X62738000Y-94488000D03*
%TO.P,U2,4*%
%TO.N,Net-(U2-Pad4)*%
X60198000Y-94488000D03*
%TO.P,U2,3*%
%TO.N,/DAC_GAIN_A1*%
X57658000Y-94488000D03*
%TO.P,U2,2*%
%TO.N,/DAC_GAIN_A0*%
X55118000Y-94488000D03*
%TO.P,U2,1*%
%TO.N,/GND*%
X52578000Y-94488000D03*
%TD*%
D10*
%TO.P,P7,1*%
%TO.N,/DAC_BIP*%
X129540000Y-53340000D03*
D11*
%TO.P,P7,2*%
X129540000Y-55880000D03*
%TD*%
D10*
%TO.P,P9,1*%
%TO.N,/DAC_BIP_NX*%
X137668000Y-53340000D03*
D11*
%TO.P,P9,2*%
X137668000Y-55880000D03*
%TD*%
D10*
%TO.P,P20,1*%
%TO.N,/CTR_ELECT*%
X163068000Y-134366000D03*
D11*
%TO.P,P20,2*%
X163068000Y-136906000D03*
%TD*%
%TO.P,P21,2*%
%TO.N,/REF_ELECT_UNI*%
X145796000Y-56134000D03*
D10*
%TO.P,P21,1*%
X145796000Y-53594000D03*
%TD*%
%TO.P,P19,1*%
%TO.N,/REF_ELECT_BUF*%
X153924000Y-53340000D03*
D11*
%TO.P,P19,2*%
X153924000Y-55880000D03*
%TD*%
D10*
%TO.P,P6,1*%
%TO.N,/DAC_UNI*%
X121412000Y-53340000D03*
D11*
%TO.P,P6,2*%
X121412000Y-55880000D03*
%TD*%
D10*
%TO.P,P10,1*%
%TO.N,/REF_0V6*%
X105156000Y-53340000D03*
D11*
%TO.P,P10,2*%
X105156000Y-55880000D03*
%TD*%
D10*
%TO.P,P12,1*%
%TO.N,/+15V*%
X97028000Y-53340000D03*
D11*
%TO.P,P12,2*%
X97028000Y-55880000D03*
%TD*%
D10*
%TO.P,P11,1*%
%TO.N,/-15V*%
X88900000Y-53340000D03*
D11*
%TO.P,P11,2*%
X88900000Y-55880000D03*
%TD*%
D10*
%TO.P,P4,1*%
%TO.N,/GND*%
X55880000Y-102362000D03*
D11*
%TO.P,P4,2*%
X53340000Y-102362000D03*
%TD*%
D10*
%TO.P,P18,1*%
%TO.N,/TIA_OUT_UNI*%
X140716000Y-134366000D03*
D11*
%TO.P,P18,2*%
X140716000Y-136906000D03*
%TD*%
D10*
%TO.P,P17,1*%
%TO.N,/TIA_OUT_BIP*%
X151892000Y-134366000D03*
D11*
%TO.P,P17,2*%
X151892000Y-136906000D03*
%TD*%
D10*
%TO.P,P8,1*%
%TO.N,/REF_NEG_0V6*%
X113284000Y-53340000D03*
D11*
%TO.P,P8,2*%
X113284000Y-55880000D03*
%TD*%
D10*
%TO.P,P16,1*%
%TO.N,/5V*%
X127254000Y-137160000D03*
D11*
%TO.P,P16,2*%
%TO.N,/VEXP*%
X127254000Y-134620000D03*
%TO.P,P16,3*%
%TO.N,/3V3*%
X129794000Y-137160000D03*
%TO.P,P16,4*%
%TO.N,/VEXP*%
X129794000Y-134620000D03*
%TD*%
D10*
%TO.P,P15,1*%
%TO.N,/5V*%
X115824000Y-137160000D03*
D11*
%TO.P,P15,2*%
%TO.N,/VUEXT*%
X115824000Y-134620000D03*
%TO.P,P15,3*%
%TO.N,/3V3*%
X118364000Y-137160000D03*
%TO.P,P15,4*%
%TO.N,/VUEXT*%
X118364000Y-134620000D03*
%TD*%
D17*
%TO.P,H3,*%
%TO.N,*%
X173990000Y-135890000D03*
%TD*%
%TO.P,H4,*%
%TO.N,*%
X54610000Y-135890000D03*
%TD*%
%TO.P,H1,*%
%TO.N,*%
X54610000Y-54610000D03*
%TD*%
%TO.P,H2,*%
%TO.N,*%
X173990000Y-54610000D03*
%TD*%
D18*
%TO.P,U6,1*%
%TO.N,/5V*%
X64008000Y-54102000D03*
%TO.P,U6,2*%
%TO.N,/GND*%
X66548000Y-54102000D03*
%TO.P,U6,4*%
%TO.N,/-15V*%
X71628000Y-54102000D03*
%TO.P,U6,5*%
%TO.N,/GND*%
X74168000Y-54102000D03*
%TO.P,U6,6*%
%TO.N,/+15V*%
X76708000Y-54102000D03*
%TD*%
D10*
%TO.P,P22,1*%
%TO.N,/REF_ELECT_BIP*%
X162052000Y-53340000D03*
D11*
%TO.P,P22,2*%
X162052000Y-55880000D03*
%TD*%
D19*
%TO.N,/3V3*%
X162229500Y-118895000D03*
X131732500Y-121395900D03*
X131732500Y-127097600D03*
X139429000Y-95893800D03*
X142761400Y-83006300D03*
X171751100Y-105157100D03*
X172149700Y-70231000D03*
X78598400Y-74205700D03*
%TO.N,/5V*%
X62664800Y-59395600D03*
%TO.N,/AGND*%
X161087000Y-118110000D03*
X140513000Y-118466000D03*
X134620000Y-103632000D03*
X141935000Y-106274000D03*
X174650000Y-102464000D03*
X158191000Y-104292000D03*
X156464000Y-98298000D03*
X150876000Y-91592400D03*
X130607000Y-94081600D03*
X134417000Y-118364000D03*
X116078000Y-118466000D03*
X116078000Y-111252000D03*
X96266000Y-113792000D03*
X102921000Y-92964000D03*
X112776000Y-80518000D03*
X112776000Y-66167000D03*
X156464000Y-93599000D03*
X156464000Y-82931000D03*
X178054000Y-91059000D03*
X178054000Y-80391000D03*
X137414000Y-77724000D03*
X137922000Y-66548000D03*
X146558000Y-83185000D03*
X146177000Y-61595000D03*
X156464000Y-68580000D03*
X116459000Y-82423000D03*
X94107000Y-83058000D03*
X116459000Y-69088000D03*
X94107000Y-68707000D03*
X81788000Y-64516000D03*
X178054000Y-68326000D03*
%TO.N,/CS*%
X85182600Y-127092600D03*
%TO.N,/CTR_ELECT*%
X174310200Y-109323600D03*
%TO.N,/D25*%
X77554000Y-124659900D03*
%TO.N,/D26*%
X74857400Y-127105600D03*
%TO.N,/D27*%
X76668200Y-127119300D03*
%TO.N,/D28*%
X83392600Y-117788000D03*
%TO.N,/D29*%
X85155200Y-118827400D03*
%TO.N,/D30*%
X81181300Y-117858800D03*
%TO.N,/D31*%
X78917700Y-120110000D03*
%TO.N,/DAC_BIP*%
X119023200Y-66304600D03*
X128096200Y-79087300D03*
%TO.N,/DAC_BIP_NX*%
X139175300Y-65803000D03*
X142222000Y-68519000D03*
X155623700Y-91059000D03*
X147783300Y-76767200D03*
%TO.N,/DAC_UNI*%
X118400900Y-64024200D03*
X118405800Y-76181900D03*
%TO.N,/GND*%
X176936000Y-70256400D03*
X144628000Y-83210400D03*
X174650000Y-107798000D03*
X161138000Y-119736000D03*
X134976000Y-130454000D03*
X134468000Y-120142000D03*
X77114400Y-116180000D03*
X58877200Y-115976000D03*
%TO.N,/MISO*%
X90045500Y-125970000D03*
%TO.N,/MOSI*%
X90036600Y-127098100D03*
%TO.N,/REF_0V6*%
X107425400Y-64027500D03*
X104085600Y-79385900D03*
%TO.N,/REF_ELECT_BUF*%
X158338300Y-63986000D03*
X159274800Y-88190800D03*
X159350600Y-79530600D03*
%TO.N,/REF_ELECT_UNI*%
X92516100Y-73001700D03*
%TO.N,/SCK*%
X89649200Y-124469600D03*
%TO.N,/SCL*%
X92176600Y-120788700D03*
%TO.N,/SDA*%
X89882700Y-113821400D03*
%TO.N,/TIA_OUT_UNI*%
X107219700Y-125841800D03*
X95418100Y-100203000D03*
%TO.N,/WRK_ELECT*%
X145398500Y-123329100D03*
X151572800Y-117358700D03*
X156658900Y-113026600D03*
X157683900Y-105994400D03*
%TO.N,/-15V*%
X155534900Y-94699900D03*
X146263800Y-68432000D03*
X104449300Y-114760000D03*
X136936700Y-94107000D03*
X106362600Y-72534500D03*
X145593000Y-85945000D03*
X105076400Y-86743000D03*
X149920100Y-118491000D03*
X150504300Y-106369400D03*
%TO.N,/+15V*%
X127326600Y-111871000D03*
X126070700Y-118491000D03*
X110066300Y-79150700D03*
X110903900Y-111252000D03*
X109592200Y-67158300D03*
%TO.N,Net-(C30-Pad1)*%
X105633300Y-100203000D03*
X108414600Y-109013900D03*
%TO.N,/REF_NEG_0V6*%
X99632000Y-108050700D03*
X104656700Y-70621900D03*
X97180200Y-79605700D03*
%TO.N,/D4*%
X78557300Y-122996100D03*
%TO.N,Net-(R10-Pad2)*%
X137002600Y-71184700D03*
X137002500Y-76586800D03*
X126286800Y-66548000D03*
%TO.N,/SW_GAIN_1X*%
X65857800Y-107572600D03*
X73524100Y-72778200D03*
%TO.N,/SW_GAIN_2X*%
X69480700Y-108230800D03*
X87190000Y-74892000D03*
%TO.N,/SW_GAIN_5X*%
X69543900Y-109418100D03*
X66548000Y-83058000D03*
%TO.N,/SW_GAIN_10X*%
X66189600Y-112706600D03*
X63333200Y-83432700D03*
%TO.N,/REF_GAIN_A1*%
X77742500Y-68046100D03*
%TO.N,/REF_GAIN_A0*%
X78555500Y-68796000D03*
%TO.N,/SW_CTR_ELECT*%
X162325500Y-109829500D03*
X163511700Y-100457000D03*
%TO.N,/SW_TIA_GAIN_4*%
X117731500Y-123233700D03*
X126055800Y-114481300D03*
%TO.N,Net-(U7-Pad10)*%
X146626900Y-121178700D03*
X146846500Y-103039600D03*
X146516200Y-115951000D03*
%TO.N,/SW_TIA_GAIN_1*%
X97195100Y-115007300D03*
X124444700Y-115316000D03*
%TD*%
D20*
%TO.N,/3V3*%
X171751100Y-105157100D02*
X171751100Y-109373400D01*
X171751100Y-109373400D02*
X162229500Y-118895000D01*
X142761400Y-95893800D02*
X139429000Y-95893800D01*
X131732500Y-121395900D02*
X131732500Y-127097600D01*
X142761400Y-95893800D02*
X142773500Y-95905900D01*
X142773500Y-95905900D02*
X142773500Y-117405500D01*
X142773500Y-117405500D02*
X140810900Y-119368100D01*
X140810900Y-119368100D02*
X135370100Y-119368100D01*
X135370100Y-119368100D02*
X135300900Y-119298900D01*
X135300900Y-119298900D02*
X133829500Y-119298900D01*
X133829500Y-119298900D02*
X131732500Y-121395900D01*
X85598000Y-89408000D02*
X84378900Y-88188900D01*
X84378900Y-88188900D02*
X84378900Y-86445700D01*
X84378900Y-86445700D02*
X83480300Y-85547100D01*
X83480300Y-85547100D02*
X82546500Y-85547100D01*
X82546500Y-85547100D02*
X81788000Y-84788600D01*
X81788000Y-84788600D02*
X81788000Y-83843800D01*
X81788000Y-83843800D02*
X79480800Y-81536600D01*
X79480800Y-81536600D02*
X73456600Y-81536600D01*
X73456600Y-81536600D02*
X71679000Y-79759000D01*
X71679000Y-79759000D02*
X71679000Y-78719300D01*
X71679000Y-78719300D02*
X76192600Y-74205700D01*
X76192600Y-74205700D02*
X78598400Y-74205700D01*
X172149700Y-70231000D02*
X171751100Y-70629600D01*
X171751100Y-70629600D02*
X171751100Y-105157100D01*
X142761400Y-95893800D02*
X142761400Y-83006300D01*
%TO.N,/5V*%
X115824000Y-137160000D02*
X67577900Y-137160000D01*
X67577900Y-137160000D02*
X51204100Y-120786200D01*
X51204100Y-120786200D02*
X51204100Y-80621900D01*
X51204100Y-80621900D02*
X52578000Y-79248000D01*
X116402000Y-137160000D02*
X115824000Y-137160000D01*
X116402000Y-137160000D02*
X116980000Y-137160000D01*
X127254000Y-137160000D02*
X126098000Y-137160000D01*
X116980000Y-137160000D02*
X116980000Y-136871000D01*
X116980000Y-136871000D02*
X117847000Y-136004000D01*
X117847000Y-136004000D02*
X124942000Y-136004000D01*
X124942000Y-136004000D02*
X126098000Y-137160000D01*
X61087000Y-60769500D02*
X61290900Y-60769500D01*
X61290900Y-60769500D02*
X62664800Y-59395600D01*
X61087000Y-60769500D02*
X61087000Y-55626000D01*
X61087000Y-55626000D02*
X62611000Y-54102000D01*
X62611000Y-54102000D02*
X64008000Y-54102000D01*
X52578000Y-79248000D02*
X52578000Y-74422000D01*
X52578000Y-74422000D02*
X61087000Y-65913000D01*
X61087000Y-65913000D02*
X61087000Y-60769500D01*
%TO.N,/AGND*%
X69180200Y-67183000D02*
X65278000Y-63280800D01*
X65278000Y-63280800D02*
X65278000Y-53574900D01*
X65278000Y-53574900D02*
X64567500Y-52864400D01*
X64567500Y-52864400D02*
X63019100Y-52864400D01*
X63019100Y-52864400D02*
X55880000Y-60003500D01*
X55880000Y-60003500D02*
X55880000Y-68580000D01*
X69180200Y-67183000D02*
X79121000Y-67183000D01*
X79121000Y-67183000D02*
X81788000Y-64516000D01*
X55118000Y-79248000D02*
X55118000Y-73406000D01*
X55118000Y-73406000D02*
X61341000Y-67183000D01*
X61341000Y-67183000D02*
X69180200Y-67183000D01*
X128626000Y-94081600D02*
X129388000Y-94081600D01*
X116459000Y-83489800D02*
X127051000Y-94081600D01*
X127051000Y-94081600D02*
X128626000Y-94081600D01*
X134493000Y-63119000D02*
X134366000Y-63119000D01*
X146177000Y-63119000D02*
X134493000Y-63119000D01*
X173990000Y-63119000D02*
X153289000Y-63119000D01*
X177673000Y-66548000D02*
X174244000Y-63119000D01*
X174244000Y-63119000D02*
X173990000Y-63119000D01*
X177673000Y-66548000D02*
X190627000Y-66548000D01*
X190627000Y-66548000D02*
X191770000Y-67691000D01*
X191770000Y-67691000D02*
X191770000Y-71628000D01*
X173990000Y-63119000D02*
X177419000Y-66548000D01*
X177419000Y-66548000D02*
X177673000Y-66548000D01*
X178054000Y-68326000D02*
X178054000Y-66929000D01*
X178054000Y-66929000D02*
X177673000Y-66548000D01*
X112776000Y-64262500D02*
X112712000Y-64198500D01*
X116459000Y-69088000D02*
X116459000Y-67945000D01*
X116459000Y-67945000D02*
X112776000Y-64262500D01*
X112776000Y-66167000D02*
X112776000Y-64262500D01*
X94107000Y-84150200D02*
X94107000Y-83058000D01*
X96266000Y-113792000D02*
X96266000Y-97536000D01*
X96266000Y-97536000D02*
X94107000Y-95377000D01*
X94107000Y-95377000D02*
X94107000Y-84150200D01*
X116459000Y-83489800D02*
X116459000Y-82423000D01*
X161087000Y-118110000D02*
X161087000Y-107188000D01*
X161087000Y-107188000D02*
X158191000Y-104292000D01*
X134417000Y-118364000D02*
X134417000Y-117704000D01*
X134417000Y-117704000D02*
X134239000Y-117526000D01*
X134239000Y-117526000D02*
X116078000Y-99364800D01*
X140513000Y-118466000D02*
X139573000Y-117526000D01*
X139573000Y-117526000D02*
X134239000Y-117526000D01*
X141935000Y-106274000D02*
X133960000Y-98298000D01*
X133960000Y-98298000D02*
X130607000Y-94945200D01*
X130607000Y-94945200D02*
X130607000Y-94081600D01*
X134620000Y-103632000D02*
X134620000Y-98958400D01*
X134620000Y-98958400D02*
X133960000Y-98298000D01*
X174650000Y-102464000D02*
X178054000Y-99060000D01*
X178054000Y-99060000D02*
X178054000Y-91059000D01*
X156464000Y-98298000D02*
X156464000Y-102565000D01*
X156464000Y-102565000D02*
X158191000Y-104292000D01*
X156464000Y-93599000D02*
X156464000Y-98298000D01*
X150876000Y-91592400D02*
X146558000Y-87274400D01*
X146558000Y-87274400D02*
X146558000Y-83185000D01*
X130607000Y-94081600D02*
X129388000Y-94081600D01*
X116459000Y-82423000D02*
X116459000Y-83489800D01*
X116078000Y-111252000D02*
X116078000Y-99364800D01*
X116078000Y-99364800D02*
X116078000Y-86715600D01*
X116078000Y-86715600D02*
X116459000Y-86334600D01*
X116459000Y-86334600D02*
X116459000Y-83489800D01*
X116078000Y-111252000D02*
X116078000Y-118466000D01*
X102921000Y-92964000D02*
X94107000Y-84150200D01*
X94107000Y-84150200D02*
X94107000Y-83058000D01*
X116459000Y-69088000D02*
X116459000Y-76200000D01*
X116459000Y-76200000D02*
X116459000Y-82423000D01*
X112776000Y-80518000D02*
X112776000Y-79883000D01*
X112776000Y-79883000D02*
X116459000Y-76200000D01*
X112712000Y-64198500D02*
X111633000Y-63119000D01*
X112776000Y-64262500D02*
X112776000Y-64262000D01*
X112776000Y-64262000D02*
X112712000Y-64198500D01*
X156464000Y-82931000D02*
X156464000Y-93599000D01*
X156464000Y-68580000D02*
X156464000Y-82931000D01*
X178054000Y-80391000D02*
X178054000Y-91059000D01*
X178054000Y-68326000D02*
X178054000Y-80391000D01*
X191770000Y-83439000D02*
X191770000Y-94742000D01*
X191770000Y-94742000D02*
X190782000Y-95730100D01*
X190782000Y-95730100D02*
X189230000Y-95730100D01*
X191770000Y-83439000D02*
X190909000Y-84300100D01*
X190909000Y-84300100D02*
X189230000Y-84300100D01*
X191770000Y-71628000D02*
X191770000Y-83439000D01*
X191770000Y-71628000D02*
X190528000Y-72870100D01*
X190528000Y-72870100D02*
X189230000Y-72870100D01*
X137922000Y-66548000D02*
X137922000Y-77216000D01*
X137922000Y-77216000D02*
X137414000Y-77724000D01*
X134366000Y-63119000D02*
X111633000Y-63119000D01*
X137922000Y-66548000D02*
X134493000Y-63119000D01*
X134493000Y-63119000D02*
X134366000Y-63119000D01*
X146558000Y-83185000D02*
X146558000Y-75184000D01*
X146558000Y-75184000D02*
X137922000Y-66548000D01*
X153289000Y-63119000D02*
X146177000Y-63119000D01*
X146177000Y-61595000D02*
X146177000Y-63119000D01*
X156464000Y-68580000D02*
X156464000Y-66294000D01*
X156464000Y-66294000D02*
X153289000Y-63119000D01*
X94107000Y-68707000D02*
X94107000Y-83058000D01*
X111633000Y-63119000D02*
X90170000Y-63119000D01*
X90170000Y-63119000D02*
X83185000Y-63119000D01*
X83185000Y-63119000D02*
X81788000Y-64516000D01*
X94107000Y-68707000D02*
X94107000Y-67056000D01*
X94107000Y-67056000D02*
X90170000Y-63119000D01*
D21*
%TO.N,/CS*%
X80518000Y-94488000D02*
X80406300Y-94599700D01*
X80406300Y-94599700D02*
X80406300Y-118179800D01*
X80406300Y-118179800D02*
X85182600Y-122956100D01*
X85182600Y-122956100D02*
X85182600Y-127092600D01*
%TO.N,/CTR_ELECT*%
X163068000Y-133273500D02*
X174310200Y-122031300D01*
X174310200Y-122031300D02*
X174310200Y-109323600D01*
X163068000Y-134366000D02*
X163068000Y-133273500D01*
%TO.N,/D25*%
X75438000Y-86868000D02*
X71742000Y-90564000D01*
X71742000Y-90564000D02*
X71742000Y-108519500D01*
X71742000Y-108519500D02*
X78383500Y-115161000D01*
X78383500Y-115161000D02*
X78383500Y-119093800D01*
X78383500Y-119093800D02*
X78118000Y-119359300D01*
X78118000Y-119359300D02*
X78118000Y-121460700D01*
X78118000Y-121460700D02*
X79332300Y-122675000D01*
X79332300Y-122675000D02*
X79332300Y-123317200D01*
X79332300Y-123317200D02*
X77989600Y-124659900D01*
X77989600Y-124659900D02*
X77554000Y-124659900D01*
%TO.N,/D26*%
X77978000Y-86868000D02*
X77978000Y-89395800D01*
X77978000Y-89395800D02*
X76787400Y-90586400D01*
X76787400Y-90586400D02*
X76787400Y-111226200D01*
X76787400Y-111226200D02*
X79491300Y-113930100D01*
X79491300Y-113930100D02*
X79491300Y-118558800D01*
X79491300Y-118558800D02*
X79799900Y-118867400D01*
X79799900Y-118867400D02*
X79799900Y-123533200D01*
X79799900Y-123533200D02*
X77100800Y-126232300D01*
X77100800Y-126232300D02*
X75730700Y-126232300D01*
X75730700Y-126232300D02*
X74857400Y-127105600D01*
%TO.N,/D27*%
X80518000Y-86868000D02*
X79361200Y-88024800D01*
X79361200Y-88024800D02*
X79361200Y-112506000D01*
X79361200Y-112506000D02*
X79948800Y-113093600D01*
X79948800Y-113093600D02*
X79948800Y-118369300D01*
X79948800Y-118369300D02*
X80257600Y-118678100D01*
X80257600Y-118678100D02*
X80257600Y-123745100D01*
X80257600Y-123745100D02*
X76883400Y-127119300D01*
X76883400Y-127119300D02*
X76668200Y-127119300D01*
%TO.N,/D28*%
X83058000Y-86868000D02*
X83058000Y-90000400D01*
X83058000Y-90000400D02*
X84214700Y-91157100D01*
X84214700Y-91157100D02*
X84214700Y-116965900D01*
X84214700Y-116965900D02*
X83392600Y-117788000D01*
%TO.N,/D29*%
X83058000Y-84328000D02*
X84328000Y-85598000D01*
X84328000Y-85598000D02*
X85995600Y-85598000D01*
X85995600Y-85598000D02*
X86768300Y-86370700D01*
X86768300Y-86370700D02*
X86768300Y-117214300D01*
X86768300Y-117214300D02*
X85155200Y-118827400D01*
%TO.N,/D30*%
X80518000Y-84328000D02*
X81712200Y-85522200D01*
X81712200Y-85522200D02*
X81712200Y-117327900D01*
X81712200Y-117327900D02*
X81181300Y-117858800D01*
%TO.N,/D31*%
X77978000Y-84328000D02*
X76822400Y-85483600D01*
X76822400Y-85483600D02*
X76822400Y-89492500D01*
X76822400Y-89492500D02*
X74271400Y-92043500D01*
X74271400Y-92043500D02*
X74271400Y-109777400D01*
X74271400Y-109777400D02*
X78917700Y-114423700D01*
X78917700Y-114423700D02*
X78917700Y-120110000D01*
%TO.N,/DAC_BIP*%
X119023200Y-66304600D02*
X128096200Y-75377600D01*
X128096200Y-75377600D02*
X128096200Y-79087300D01*
X129540000Y-55880000D02*
X129540000Y-53340000D01*
%TO.N,/DAC_BIP_NX*%
X142222000Y-68519000D02*
X139506000Y-65803000D01*
X139506000Y-65803000D02*
X139175300Y-65803000D01*
X145216900Y-68519000D02*
X142222000Y-68519000D01*
X147783300Y-76767200D02*
X147783300Y-71085400D01*
X147783300Y-71085400D02*
X145216900Y-68519000D01*
X145216900Y-68519000D02*
X145216900Y-68315700D01*
X145216900Y-68315700D02*
X145894000Y-67638600D01*
X145894000Y-67638600D02*
X146577400Y-67638600D01*
X146577400Y-67638600D02*
X155623700Y-76684900D01*
X155623700Y-76684900D02*
X155623700Y-91059000D01*
X137668000Y-55880000D02*
X137668000Y-53340000D01*
%TO.N,/DAC_UNI*%
X118400900Y-64024200D02*
X118212000Y-64213100D01*
X118212000Y-64213100D02*
X118212000Y-75988100D01*
X118212000Y-75988100D02*
X118405800Y-76181900D01*
D20*
%TO.N,/GND*%
X75692000Y-127965000D02*
X75692000Y-133350000D01*
X75692000Y-133350000D02*
X76962000Y-134620000D01*
X75692000Y-127965000D02*
X64363600Y-127965000D01*
X64363600Y-127965000D02*
X51866800Y-115468000D01*
X51866800Y-115468000D02*
X51866800Y-115062000D01*
X101600000Y-127965000D02*
X75692000Y-127965000D01*
X101600000Y-127965000D02*
X101600000Y-133350000D01*
X101600000Y-133350000D02*
X102870000Y-134620000D01*
X132283000Y-127965000D02*
X101600000Y-127965000D01*
X51866800Y-115062000D02*
X51866800Y-114960000D01*
X132486000Y-127965000D02*
X132283000Y-127965000D01*
X132639000Y-127965000D02*
X132486000Y-127965000D01*
X139446000Y-127965000D02*
X132639000Y-127965000D01*
X144628000Y-83210400D02*
X144628000Y-122784000D01*
X144628000Y-122784000D02*
X139446000Y-127965000D01*
X174650000Y-107798000D02*
X173330000Y-106477000D01*
X173330000Y-106477000D02*
X173330000Y-101803000D01*
X173330000Y-101803000D02*
X177038000Y-98094800D01*
X177038000Y-98094800D02*
X177038000Y-70358000D01*
X177038000Y-70358000D02*
X176936000Y-70256400D01*
X161138000Y-119736000D02*
X161138000Y-126492000D01*
X161138000Y-126492000D02*
X159664000Y-127965000D01*
X159664000Y-127965000D02*
X139446000Y-127965000D01*
X174650000Y-107798000D02*
X162712000Y-119736000D01*
X162712000Y-119736000D02*
X161138000Y-119736000D01*
X134976000Y-130454000D02*
X132486000Y-127965000D01*
X132486000Y-127965000D02*
X132283000Y-127965000D01*
X77114400Y-116180000D02*
X59080400Y-116180000D01*
X59080400Y-116180000D02*
X58877200Y-115976000D01*
X51866800Y-108966000D02*
X51866800Y-114960000D01*
X51866800Y-114960000D02*
X51866800Y-115062000D01*
X134468000Y-120142000D02*
X134468000Y-126136000D01*
X134468000Y-126136000D02*
X132639000Y-127965000D01*
X52578000Y-94488000D02*
X52578000Y-100228000D01*
X52578000Y-100228000D02*
X51866800Y-100940000D01*
X51866800Y-100940000D02*
X51866800Y-108966000D01*
X51866800Y-108966000D02*
X58877200Y-115976000D01*
D21*
%TO.N,/MISO*%
X85598000Y-94488000D02*
X85598000Y-117288600D01*
X85598000Y-117288600D02*
X84380200Y-118506400D01*
X84380200Y-118506400D02*
X84380200Y-120304700D01*
X84380200Y-120304700D02*
X90045500Y-125970000D01*
%TO.N,/MOSI*%
X90036600Y-127098100D02*
X82606900Y-119668400D01*
X82606900Y-119668400D02*
X82606900Y-94939100D01*
X82606900Y-94939100D02*
X83058000Y-94488000D01*
%TO.N,/REF_0V6*%
X104085600Y-79385900D02*
X104085600Y-73715400D01*
X104085600Y-73715400D02*
X107425400Y-70375600D01*
X107425400Y-70375600D02*
X107425400Y-64027500D01*
X105156000Y-55880000D02*
X105156000Y-53340000D01*
%TO.N,/REF_ELECT_BUF*%
X159350600Y-79530600D02*
X158338300Y-78518300D01*
X158338300Y-78518300D02*
X158338300Y-63986000D01*
X159350600Y-79530600D02*
X159350600Y-88115000D01*
X159350600Y-88115000D02*
X159274800Y-88190800D01*
%TO.N,/REF_ELECT_UNI*%
X77978000Y-79248000D02*
X79639900Y-77586100D01*
X79639900Y-77586100D02*
X87931700Y-77586100D01*
X87931700Y-77586100D02*
X92516100Y-73001700D01*
X145796000Y-53594000D02*
X145796000Y-56134000D01*
%TO.N,/SCK*%
X85598000Y-79248000D02*
X91316500Y-84966500D01*
X91316500Y-84966500D02*
X91316500Y-112202000D01*
X91316500Y-112202000D02*
X93002000Y-113887500D01*
X93002000Y-113887500D02*
X93002000Y-121116800D01*
X93002000Y-121116800D02*
X89649200Y-124469600D01*
%TO.N,/SCL*%
X92176600Y-120788700D02*
X92176600Y-114839200D01*
X92176600Y-114839200D02*
X89198400Y-111861000D01*
X89198400Y-111861000D02*
X89198400Y-83703500D01*
X89198400Y-83703500D02*
X85898500Y-80403600D01*
X85898500Y-80403600D02*
X77474300Y-80403600D01*
X77474300Y-80403600D02*
X76803800Y-79733100D01*
X76803800Y-79733100D02*
X76803800Y-77096300D01*
X76803800Y-77096300D02*
X79373400Y-74526700D01*
X79373400Y-74526700D02*
X79373400Y-73838500D01*
X79373400Y-73838500D02*
X78955100Y-73420200D01*
X78955100Y-73420200D02*
X76185800Y-73420200D01*
X76185800Y-73420200D02*
X70358000Y-79248000D01*
%TO.N,/SDA*%
X89882700Y-113821400D02*
X87466900Y-111405600D01*
X87466900Y-111405600D02*
X87466900Y-84526100D01*
X87466900Y-84526100D02*
X85998800Y-83058000D01*
X85998800Y-83058000D02*
X83437100Y-83058000D01*
X83437100Y-83058000D02*
X81394600Y-81015500D01*
X81394600Y-81015500D02*
X74665500Y-81015500D01*
X74665500Y-81015500D02*
X72898000Y-79248000D01*
%TO.N,/TIA_OUT_BIP*%
X151892000Y-136906000D02*
X151892000Y-134366000D01*
%TO.N,/TIA_OUT_UNI*%
X95418100Y-100203000D02*
X95418100Y-114326300D01*
X95418100Y-114326300D02*
X106933600Y-125841800D01*
X106933600Y-125841800D02*
X107219700Y-125841800D01*
X80518000Y-79248000D02*
X81722300Y-78043700D01*
X81722300Y-78043700D02*
X86092400Y-78043700D01*
X86092400Y-78043700D02*
X92026600Y-83977900D01*
X92026600Y-83977900D02*
X92026600Y-96811500D01*
X92026600Y-96811500D02*
X95418100Y-100203000D01*
X140716000Y-136906000D02*
X140716000Y-134366000D01*
%TO.N,/WRK_ELECT*%
X145398500Y-123329100D02*
X146186300Y-123329100D01*
X146186300Y-123329100D02*
X151572800Y-117942600D01*
X151572800Y-117942600D02*
X151572800Y-117358700D01*
X156658900Y-113026600D02*
X157683900Y-112001600D01*
X157683900Y-112001600D02*
X157683900Y-105994400D01*
X151572800Y-117358700D02*
X152326800Y-117358700D01*
X152326800Y-117358700D02*
X156658900Y-113026600D01*
D20*
%TO.N,/-15V*%
X88900000Y-53340000D02*
X87744000Y-53340000D01*
X87744000Y-53340000D02*
X87286400Y-52882400D01*
X87286400Y-52882400D02*
X72847600Y-52882400D01*
X72847600Y-52882400D02*
X71628000Y-54102000D01*
X88900000Y-55880000D02*
X88900000Y-53340000D01*
X151717900Y-94699900D02*
X151717900Y-92986200D01*
X151717900Y-92986200D02*
X151199400Y-92467700D01*
X150504300Y-106369400D02*
X151717900Y-105155800D01*
X151717900Y-105155800D02*
X151717900Y-94699900D01*
X151717900Y-94699900D02*
X155534900Y-94699900D01*
X151199400Y-92467700D02*
X151733600Y-91933500D01*
X151733600Y-91933500D02*
X151733600Y-73901800D01*
X151733600Y-73901800D02*
X146263800Y-68432000D01*
X145593000Y-85945000D02*
X145593000Y-87562200D01*
X145593000Y-87562200D02*
X150498500Y-92467700D01*
X150498500Y-92467700D02*
X151199400Y-92467700D01*
X105076400Y-86743000D02*
X104449300Y-87370100D01*
X104449300Y-87370100D02*
X104449300Y-114760000D01*
X106362600Y-72534500D02*
X106362600Y-85456800D01*
X106362600Y-85456800D02*
X105076400Y-86743000D01*
X145593000Y-85945000D02*
X145593000Y-82982200D01*
X145593000Y-82982200D02*
X144761200Y-82150400D01*
X144761200Y-82150400D02*
X142414800Y-82150400D01*
X142414800Y-82150400D02*
X136936700Y-87628500D01*
X136936700Y-87628500D02*
X136936700Y-94107000D01*
X150504300Y-106369400D02*
X149920100Y-106953600D01*
X149920100Y-106953600D02*
X149920100Y-118491000D01*
%TO.N,/+15V*%
X126443800Y-113626700D02*
X127326600Y-112743900D01*
X127326600Y-112743900D02*
X127326600Y-111871000D01*
X126443800Y-113626700D02*
X126894400Y-114077300D01*
X126894400Y-114077300D02*
X126894400Y-117667300D01*
X126894400Y-117667300D02*
X126070700Y-118491000D01*
X110903900Y-111252000D02*
X110903900Y-114502200D01*
X110903900Y-114502200D02*
X115759600Y-119357900D01*
X115759600Y-119357900D02*
X118349400Y-119357900D01*
X118349400Y-119357900D02*
X124080600Y-113626700D01*
X124080600Y-113626700D02*
X126443800Y-113626700D01*
X110066300Y-79150700D02*
X110066300Y-110414400D01*
X110066300Y-110414400D02*
X110903900Y-111252000D01*
X110066300Y-79150700D02*
X109592200Y-78676600D01*
X109592200Y-78676600D02*
X109592200Y-67158300D01*
X97028000Y-55880000D02*
X97028000Y-53340000D01*
D21*
%TO.N,Net-(C30-Pad1)*%
X108414600Y-109013900D02*
X105633300Y-106232600D01*
X105633300Y-106232600D02*
X105633300Y-100203000D01*
%TO.N,/REF_ELECT_OUT*%
X189230000Y-80799900D02*
X189230000Y-82057500D01*
X175514000Y-117602000D02*
X176872400Y-116243600D01*
X176872400Y-116243600D02*
X176872400Y-103534000D01*
X176872400Y-103534000D02*
X187972400Y-92434000D01*
X187972400Y-92434000D02*
X187972400Y-83315100D01*
X187972400Y-83315100D02*
X189230000Y-82057500D01*
%TO.N,/CTR_ELECT_OUT*%
X189230000Y-70627500D02*
X179264400Y-80593100D01*
X179264400Y-80593100D02*
X179264400Y-98586500D01*
X179264400Y-98586500D02*
X175514000Y-102336900D01*
X175514000Y-102336900D02*
X175514000Y-115062000D01*
X189230000Y-69369900D02*
X189230000Y-70627500D01*
%TO.N,/REF_NEG_0V6*%
X97180200Y-79605700D02*
X103734700Y-86160200D01*
X103734700Y-86160200D02*
X103734700Y-103948000D01*
X103734700Y-103948000D02*
X99632000Y-108050700D01*
X97180200Y-79605700D02*
X104656700Y-72129200D01*
X104656700Y-72129200D02*
X104656700Y-70621900D01*
X113284000Y-55880000D02*
X113284000Y-54432500D01*
X113284000Y-53340000D02*
X113284000Y-54432500D01*
%TO.N,/D4*%
X65278000Y-94488000D02*
X65278000Y-105896700D01*
X65278000Y-105896700D02*
X66632800Y-107251500D01*
X66632800Y-107251500D02*
X66632800Y-107603000D01*
X66632800Y-107603000D02*
X70125600Y-111095800D01*
X70125600Y-111095800D02*
X73130400Y-111095800D01*
X73130400Y-111095800D02*
X77926000Y-115891400D01*
X77926000Y-115891400D02*
X77926000Y-118396200D01*
X77926000Y-118396200D02*
X77639000Y-118683200D01*
X77639000Y-118683200D02*
X77639000Y-122077800D01*
X77639000Y-122077800D02*
X78557300Y-122996100D01*
%TO.N,/REF_ELECT_BIP*%
X162052000Y-55880000D02*
X162052000Y-53340000D01*
%TO.N,Net-(R10-Pad2)*%
X137002500Y-71308600D02*
X137002500Y-76586800D01*
X126286800Y-66548000D02*
X131047400Y-71308600D01*
X131047400Y-71308600D02*
X137002500Y-71308600D01*
X137002500Y-71308600D02*
X137002600Y-71308600D01*
X137002600Y-71308600D02*
X137002600Y-71184700D01*
%TO.N,/SW_GAIN_1X*%
X73524100Y-72778200D02*
X72653600Y-72778200D01*
X72653600Y-72778200D02*
X66433600Y-78998200D01*
X66433600Y-78998200D02*
X66433600Y-79791300D01*
X66433600Y-79791300D02*
X65706900Y-80518000D01*
X65706900Y-80518000D02*
X64815600Y-80518000D01*
X64815600Y-80518000D02*
X64122400Y-81211200D01*
X64122400Y-81211200D02*
X64122400Y-105837200D01*
X64122400Y-105837200D02*
X65857800Y-107572600D01*
%TO.N,/SW_GAIN_2X*%
X69480700Y-108230800D02*
X69186200Y-107936300D01*
X69186200Y-107936300D02*
X69186200Y-78781900D01*
X69186200Y-78781900D02*
X73957400Y-74010700D01*
X73957400Y-74010700D02*
X74034600Y-74010700D01*
X74034600Y-74010700D02*
X75127100Y-72918200D01*
X75127100Y-72918200D02*
X85216200Y-72918200D01*
X85216200Y-72918200D02*
X87190000Y-74892000D01*
%TO.N,/SW_GAIN_5X*%
X69543900Y-109418100D02*
X66548000Y-106422200D01*
X66548000Y-106422200D02*
X66548000Y-83058000D01*
%TO.N,/SW_GAIN_10X*%
X66189600Y-112706600D02*
X61559900Y-108076900D01*
X61559900Y-108076900D02*
X61559900Y-85206000D01*
X61559900Y-85206000D02*
X63333200Y-83432700D01*
%TO.N,/REF_GAIN_A1*%
X77742500Y-68046100D02*
X76479900Y-68046100D01*
X76479900Y-68046100D02*
X65278000Y-79248000D01*
%TO.N,/REF_GAIN_A0*%
X67818000Y-79248000D02*
X73512800Y-73553200D01*
X73512800Y-73553200D02*
X73845200Y-73553200D01*
X73845200Y-73553200D02*
X78555500Y-68842900D01*
X78555500Y-68842900D02*
X78555500Y-68796000D01*
%TO.N,/SW_CTR_ELECT*%
X162325500Y-109829500D02*
X162325500Y-101643200D01*
X162325500Y-101643200D02*
X163511700Y-100457000D01*
%TO.N,/SW_TIA_GAIN_4*%
X126055800Y-114481300D02*
X126055800Y-114909400D01*
X126055800Y-114909400D02*
X117731500Y-123233700D01*
%TO.N,Net-(U7-Pad10)*%
X146516200Y-115951000D02*
X146516200Y-103369900D01*
X146516200Y-103369900D02*
X146846500Y-103039600D01*
X146516200Y-115951000D02*
X146516200Y-121068000D01*
X146516200Y-121068000D02*
X146626900Y-121178700D01*
%TO.N,/SW_TIA_GAIN_1*%
X97195100Y-115007300D02*
X102098200Y-119910400D01*
X102098200Y-119910400D02*
X119850300Y-119910400D01*
X119850300Y-119910400D02*
X124444700Y-115316000D01*
%TD*%
M02*
