G04 (created by PCBNEW (2013-jul-07)-stable) date Thu 17 Jan 2019 04:45:59 PM PST*
%MOIN*%
G04 Gerber Fmt 3.4, Leading zero omitted, Abs format*
%FSLAX34Y34*%
G01*
G70*
G90*
G04 APERTURE LIST*
%ADD10C,0.00590551*%
%ADD11R,0.06X0.06*%
%ADD12C,0.06*%
%ADD13R,0.07X0.07*%
%ADD14C,0.07*%
%ADD15C,0.15*%
%ADD16C,0.035*%
%ADD17C,0.015*%
G04 APERTURE END LIST*
G54D10*
G54D11*
X34010Y-55350D03*
G54D12*
X33980Y-56350D03*
X33980Y-57350D03*
G54D11*
X39000Y-31000D03*
G54D12*
X39000Y-32000D03*
G54D11*
X42500Y-31000D03*
G54D12*
X42500Y-32000D03*
G54D13*
X39400Y-62000D03*
G54D14*
X39400Y-63000D03*
X38400Y-62000D03*
X38400Y-63000D03*
X37400Y-62000D03*
X37400Y-63000D03*
X36400Y-62000D03*
X36400Y-63000D03*
X35400Y-62000D03*
X35400Y-63000D03*
G54D13*
X49600Y-62000D03*
G54D14*
X49600Y-63000D03*
X48600Y-62000D03*
X48600Y-63000D03*
X47600Y-62000D03*
X47600Y-63000D03*
X46600Y-62000D03*
X46600Y-63000D03*
X45600Y-62000D03*
X45600Y-63000D03*
G54D15*
X31500Y-31500D03*
X53500Y-31500D03*
X53500Y-63500D03*
X31500Y-63500D03*
G54D13*
X59500Y-45500D03*
G54D14*
X60500Y-45500D03*
X59500Y-46500D03*
X60500Y-46500D03*
X59500Y-47500D03*
X60500Y-47500D03*
X59500Y-48500D03*
X60500Y-48500D03*
X59500Y-49500D03*
X60500Y-49500D03*
G54D16*
X51187Y-40446D03*
X53509Y-40208D03*
X47600Y-51878D03*
X40352Y-52225D03*
X49054Y-40408D03*
X51197Y-51497D03*
X49076Y-51497D03*
X42519Y-45959D03*
X42481Y-39390D03*
X38518Y-55563D03*
X42505Y-51080D03*
X51492Y-50406D03*
X46241Y-45374D03*
X42000Y-48447D03*
X50840Y-45500D03*
X48234Y-51928D03*
X50097Y-47123D03*
X52326Y-40725D03*
X43629Y-40068D03*
X43607Y-41494D03*
X49076Y-41576D03*
X42785Y-46324D03*
X43427Y-47500D03*
X44008Y-44449D03*
X41258Y-48933D03*
X53706Y-49477D03*
X49637Y-50021D03*
G54D17*
X50946Y-40446D02*
X51187Y-40446D01*
X42500Y-32000D02*
X50946Y-40446D01*
X51425Y-40208D02*
X53509Y-40208D01*
X51187Y-40446D02*
X51425Y-40208D01*
X47252Y-52225D02*
X47600Y-51878D01*
X40352Y-52225D02*
X47252Y-52225D01*
X34010Y-55350D02*
X34010Y-54894D01*
X34010Y-53975D02*
X34010Y-54894D01*
X47576Y-40408D02*
X34010Y-53975D01*
X49054Y-40408D02*
X47576Y-40408D01*
X47124Y-63524D02*
X46600Y-63000D01*
X49821Y-63524D02*
X47124Y-63524D01*
X51197Y-62147D02*
X49821Y-63524D01*
X51197Y-51497D02*
X51197Y-62147D01*
X46600Y-54773D02*
X46600Y-62000D01*
X49076Y-52296D02*
X46600Y-54773D01*
X49076Y-51497D02*
X49076Y-52296D01*
X40920Y-47558D02*
X42519Y-45959D01*
X40920Y-49063D02*
X40920Y-47558D01*
X41121Y-49264D02*
X40920Y-49063D01*
X46038Y-49264D02*
X41121Y-49264D01*
X48566Y-51791D02*
X46038Y-49264D01*
X48566Y-52089D02*
X48566Y-51791D01*
X39579Y-61076D02*
X48566Y-52089D01*
X39323Y-61076D02*
X39579Y-61076D01*
X38400Y-62000D02*
X39323Y-61076D01*
X42481Y-45163D02*
X42481Y-39390D01*
X33270Y-54373D02*
X42481Y-45163D01*
X33270Y-61946D02*
X33270Y-54373D01*
X35092Y-63767D02*
X33270Y-61946D01*
X37632Y-63767D02*
X35092Y-63767D01*
X38400Y-63000D02*
X37632Y-63767D01*
X38518Y-59881D02*
X38518Y-55563D01*
X36400Y-62000D02*
X38518Y-59881D01*
X35865Y-63534D02*
X36400Y-63000D01*
X35200Y-63534D02*
X35865Y-63534D01*
X33524Y-61858D02*
X35200Y-63534D01*
X33524Y-56146D02*
X33524Y-61858D01*
X33820Y-55850D02*
X33524Y-56146D01*
X34358Y-55850D02*
X33820Y-55850D01*
X39127Y-51080D02*
X34358Y-55850D01*
X42505Y-51080D02*
X39127Y-51080D01*
X48600Y-53298D02*
X48600Y-62000D01*
X51492Y-50406D02*
X48600Y-53298D01*
X59500Y-45500D02*
X58994Y-45500D01*
X58994Y-45500D02*
X50840Y-45500D01*
X50715Y-45374D02*
X50840Y-45500D01*
X46241Y-45374D02*
X50715Y-45374D01*
X45073Y-45374D02*
X42000Y-48447D01*
X46241Y-45374D02*
X45073Y-45374D01*
X34210Y-56350D02*
X33980Y-56350D01*
X35327Y-55232D02*
X34210Y-56350D01*
X44929Y-55232D02*
X35327Y-55232D01*
X48234Y-51928D02*
X44929Y-55232D01*
X50720Y-46500D02*
X50097Y-47123D01*
X59500Y-46500D02*
X50720Y-46500D01*
X43629Y-41472D02*
X43607Y-41494D01*
X43629Y-40068D02*
X43629Y-41472D01*
X49861Y-40791D02*
X49076Y-41576D01*
X49861Y-40776D02*
X49861Y-40791D01*
X52275Y-40776D02*
X49861Y-40776D01*
X52326Y-40725D02*
X52275Y-40776D01*
X49206Y-40068D02*
X43629Y-40068D01*
X49861Y-40722D02*
X49206Y-40068D01*
X49861Y-40776D02*
X49861Y-40722D01*
X44133Y-44976D02*
X42785Y-46324D01*
X60703Y-44976D02*
X44133Y-44976D01*
X61015Y-45289D02*
X60703Y-44976D01*
X61015Y-45984D02*
X61015Y-45289D01*
X60500Y-46500D02*
X61015Y-45984D01*
X59500Y-47500D02*
X43427Y-47500D01*
X60537Y-44449D02*
X44008Y-44449D01*
X61246Y-45157D02*
X60537Y-44449D01*
X61246Y-46753D02*
X61246Y-45157D01*
X60500Y-47500D02*
X61246Y-46753D01*
X59066Y-48933D02*
X59500Y-48500D01*
X41258Y-48933D02*
X59066Y-48933D01*
X59477Y-49477D02*
X59500Y-49500D01*
X53706Y-49477D02*
X59477Y-49477D01*
X59978Y-50021D02*
X49637Y-50021D01*
X60500Y-49500D02*
X59978Y-50021D01*
M02*
