M48
;DRILL file {Pcbnew (2013-jul-07)-stable} date Tue 15 Jan 2019 06:57:46 PM PST
;FORMAT={-:-/ absolute / inch / decimal}
FMAT,2
INCH,TZ
T1C0.025
T2C0.040
T3C0.116
%
G90
G05
M72
T1
X3.814Y-5.7844
X3.9223Y-3.9904
X4.0361Y-5.2328
X4.0377Y-5.1481
X4.1397Y-4.9306
X4.1501Y-5.3489
X4.151Y-3.9807
X4.155Y-4.2039
X4.2223Y-5.4675
X4.2743Y-4.8442
X4.368Y-4.2039
X4.4454Y-5.3059
X4.52Y-5.1892
X4.5371Y-4.7186
X4.5711Y-4.4992
X4.705Y-5.2328
X4.7056Y-5.3059
X4.814Y-4.06
X4.9073Y-5.1746
X4.9177Y-5.7056
X5.0097Y-4.6919
X5.0212Y-3.9115
X5.0427Y-5.0008
X5.1023Y-5.3297
X5.15Y-5.6802
X5.2223Y-4.7938
X5.2325Y-3.9395
X5.2329Y-4.0703
X5.2536Y-5.036
X5.2574Y-5.2275
X5.3056Y-4.0407
T2
X3.398Y-5.635
X3.398Y-5.735
X3.401Y-5.535
X3.54Y-6.2
X3.54Y-6.3
X3.64Y-6.2
X3.64Y-6.3
X3.74Y-6.2
X3.74Y-6.3
X3.84Y-6.2
X3.84Y-6.3
X3.9Y-3.1
X3.9Y-3.2
X3.94Y-6.2
X3.94Y-6.3
X4.25Y-3.1
X4.25Y-3.2
X4.56Y-6.2
X4.56Y-6.3
X4.66Y-6.2
X4.66Y-6.3
X4.76Y-6.2
X4.76Y-6.3
X4.86Y-6.2
X4.86Y-6.3
X4.96Y-6.2
X4.96Y-6.3
X5.9Y-4.55
X5.9Y-4.65
X5.9Y-4.75
X5.9Y-4.85
X5.9Y-4.95
X6.Y-4.55
X6.Y-4.65
X6.Y-4.75
X6.Y-4.85
X6.Y-4.95
T3
X3.15Y-3.15
X3.15Y-6.35
X5.35Y-3.15
X5.35Y-6.35
T0
M30
