G04 (created by PCBNEW (2013-jul-07)-stable) date Tue 15 Jan 2019 06:57:42 PM PST*
%MOIN*%
G04 Gerber Fmt 3.4, Leading zero omitted, Abs format*
%FSLAX34Y34*%
G01*
G70*
G90*
G04 APERTURE LIST*
%ADD10C,0.00590551*%
%ADD11R,0.055X0.035*%
%ADD12R,0.06X0.06*%
%ADD13C,0.06*%
%ADD14R,0.07X0.07*%
%ADD15C,0.07*%
%ADD16R,0.0610236X0.023622*%
%ADD17C,0.15*%
%ADD18C,0.035*%
%ADD19C,0.015*%
G04 APERTURE END LIST*
G54D10*
G54D11*
X53379Y-52275D03*
X53379Y-53025D03*
X47600Y-53075D03*
X47600Y-52325D03*
X53509Y-40784D03*
X53509Y-41534D03*
X47600Y-41475D03*
X47600Y-40725D03*
X45200Y-52325D03*
X45200Y-53075D03*
X38800Y-53075D03*
X38800Y-52325D03*
X45300Y-40725D03*
X45300Y-41475D03*
X38800Y-41475D03*
X38800Y-40725D03*
G54D12*
X34010Y-55350D03*
G54D13*
X33980Y-56350D03*
X33980Y-57350D03*
G54D12*
X39000Y-31000D03*
G54D13*
X39000Y-32000D03*
G54D12*
X42500Y-31000D03*
G54D13*
X42500Y-32000D03*
G54D14*
X39400Y-62000D03*
G54D15*
X39400Y-63000D03*
X38400Y-62000D03*
X38400Y-63000D03*
X37400Y-62000D03*
X37400Y-63000D03*
X36400Y-62000D03*
X36400Y-63000D03*
X35400Y-62000D03*
X35400Y-63000D03*
G54D14*
X49600Y-62000D03*
G54D15*
X49600Y-63000D03*
X48600Y-62000D03*
X48600Y-63000D03*
X47600Y-62000D03*
X47600Y-63000D03*
X46600Y-62000D03*
X46600Y-63000D03*
X45600Y-62000D03*
X45600Y-63000D03*
G54D16*
X49637Y-50850D03*
X49637Y-51350D03*
X49637Y-51850D03*
X49637Y-52350D03*
X51762Y-52350D03*
X51762Y-51850D03*
X51762Y-51350D03*
X51762Y-50850D03*
X49637Y-52850D03*
X49637Y-53350D03*
X49637Y-53850D03*
X49637Y-54350D03*
X51762Y-53350D03*
X51762Y-53850D03*
X51762Y-54350D03*
X51762Y-52850D03*
X49637Y-39250D03*
X49637Y-39750D03*
X49637Y-40250D03*
X49637Y-40750D03*
X51762Y-40750D03*
X51762Y-40250D03*
X51762Y-39750D03*
X51762Y-39250D03*
X49637Y-41250D03*
X49637Y-41750D03*
X49637Y-42250D03*
X49637Y-42750D03*
X51762Y-41750D03*
X51762Y-42250D03*
X51762Y-42750D03*
X51762Y-41250D03*
X40937Y-50850D03*
X40937Y-51350D03*
X40937Y-51850D03*
X40937Y-52350D03*
X43062Y-52350D03*
X43062Y-51850D03*
X43062Y-51350D03*
X43062Y-50850D03*
X40937Y-52850D03*
X40937Y-53350D03*
X40937Y-53850D03*
X40937Y-54350D03*
X43062Y-53350D03*
X43062Y-53850D03*
X43062Y-54350D03*
X43062Y-52850D03*
X40937Y-39250D03*
X40937Y-39750D03*
X40937Y-40250D03*
X40937Y-40750D03*
X43062Y-40750D03*
X43062Y-40250D03*
X43062Y-39750D03*
X43062Y-39250D03*
X40937Y-41250D03*
X40937Y-41750D03*
X40937Y-42250D03*
X40937Y-42750D03*
X43062Y-41750D03*
X43062Y-42250D03*
X43062Y-42750D03*
X43062Y-41250D03*
G54D17*
X31500Y-31500D03*
X53500Y-31500D03*
X53500Y-63500D03*
X31500Y-63500D03*
G54D14*
X59000Y-45500D03*
G54D15*
X60000Y-45500D03*
X59000Y-46500D03*
X60000Y-46500D03*
X59000Y-47500D03*
X60000Y-47500D03*
X59000Y-48500D03*
X60000Y-48500D03*
X59000Y-49500D03*
X60000Y-49500D03*
G54D18*
X52574Y-52275D03*
X45200Y-51891D03*
X52329Y-40703D03*
X53055Y-40407D03*
X39223Y-39903D03*
X40360Y-52328D03*
X47050Y-52328D03*
X48139Y-40600D03*
X49176Y-57055D03*
X51023Y-53296D03*
X51499Y-56801D03*
X38139Y-57843D03*
X40376Y-51481D03*
X42222Y-54675D03*
X50211Y-39115D03*
X52325Y-39395D03*
X44453Y-53058D03*
X41500Y-53489D03*
X47055Y-53058D03*
X49073Y-51746D03*
X50097Y-46919D03*
X41550Y-42039D03*
X43680Y-42039D03*
X41510Y-39807D03*
X41397Y-49306D03*
X45371Y-47186D03*
X45711Y-44992D03*
X42742Y-48442D03*
X52536Y-50359D03*
X52223Y-47937D03*
X50427Y-50008D03*
G54D19*
X45300Y-40725D02*
X44869Y-40725D01*
X43528Y-40725D02*
X44869Y-40725D01*
X43523Y-40730D02*
X43528Y-40725D01*
X43523Y-40750D02*
X43523Y-40730D01*
X43062Y-40750D02*
X43523Y-40750D01*
X45200Y-52325D02*
X44769Y-52325D01*
X43062Y-52350D02*
X43523Y-52350D01*
X43528Y-33028D02*
X42500Y-32000D01*
X43528Y-40725D02*
X43528Y-33028D01*
X42500Y-31000D02*
X42500Y-32000D01*
X51762Y-52350D02*
X52223Y-52350D01*
X43548Y-52325D02*
X43523Y-52350D01*
X44769Y-52325D02*
X43548Y-52325D01*
X53072Y-52275D02*
X52574Y-52275D01*
X52298Y-52275D02*
X52574Y-52275D01*
X52223Y-52350D02*
X52298Y-52275D01*
X45200Y-52325D02*
X45200Y-51891D01*
X53509Y-40784D02*
X53079Y-40784D01*
X53379Y-52275D02*
X53226Y-52275D01*
X53226Y-52275D02*
X53072Y-52275D01*
X51762Y-40750D02*
X52223Y-40750D01*
X52282Y-40750D02*
X52329Y-40703D01*
X52223Y-40750D02*
X52282Y-40750D01*
X53079Y-52128D02*
X53079Y-40784D01*
X53226Y-52275D02*
X53079Y-52128D01*
X53079Y-40431D02*
X53079Y-40784D01*
X53055Y-40407D02*
X53079Y-40431D01*
X40706Y-40750D02*
X40476Y-40750D01*
X40706Y-40750D02*
X40937Y-40750D01*
X40451Y-40725D02*
X39230Y-40725D01*
X40476Y-40750D02*
X40451Y-40725D01*
X38800Y-52325D02*
X39230Y-52325D01*
X38957Y-40725D02*
X39093Y-40725D01*
X39093Y-40725D02*
X39230Y-40725D01*
X39223Y-40595D02*
X39223Y-39903D01*
X39093Y-40725D02*
X39223Y-40595D01*
X39000Y-31000D02*
X39000Y-32000D01*
X39000Y-31000D02*
X39455Y-31000D01*
X40937Y-52350D02*
X40476Y-52350D01*
X49151Y-52325D02*
X49176Y-52350D01*
X47600Y-52325D02*
X49151Y-52325D01*
X49637Y-52350D02*
X49176Y-52350D01*
X47600Y-35278D02*
X47600Y-40725D01*
X42866Y-30544D02*
X47600Y-35278D01*
X39910Y-30544D02*
X42866Y-30544D01*
X39455Y-31000D02*
X39910Y-30544D01*
X49637Y-40750D02*
X49176Y-40750D01*
X48996Y-40930D02*
X49176Y-40750D01*
X47805Y-40930D02*
X48996Y-40930D01*
X47600Y-40725D02*
X47805Y-40930D01*
X40455Y-52328D02*
X40360Y-52328D01*
X40476Y-52350D02*
X40455Y-52328D01*
X39233Y-52328D02*
X39230Y-52325D01*
X40360Y-52328D02*
X39233Y-52328D01*
X47600Y-52325D02*
X47169Y-52325D01*
X47166Y-52328D02*
X47050Y-52328D01*
X47169Y-52325D02*
X47166Y-52328D01*
X38957Y-40725D02*
X38800Y-40725D01*
X38369Y-51564D02*
X38800Y-51994D01*
X38369Y-41232D02*
X38369Y-51564D01*
X38547Y-41055D02*
X38369Y-41232D01*
X38800Y-41055D02*
X38547Y-41055D01*
X38800Y-40725D02*
X38800Y-41055D01*
X38800Y-52325D02*
X38800Y-51994D01*
X48489Y-40250D02*
X48139Y-40600D01*
X49637Y-40250D02*
X48489Y-40250D01*
X59155Y-44655D02*
X60000Y-45500D01*
X58432Y-44655D02*
X59155Y-44655D01*
X52483Y-38707D02*
X58432Y-44655D01*
X51139Y-38707D02*
X52483Y-38707D01*
X50097Y-39750D02*
X51139Y-38707D01*
X49637Y-39750D02*
X50097Y-39750D01*
X49637Y-54350D02*
X49176Y-54350D01*
X49176Y-54350D02*
X49176Y-57055D01*
X51023Y-51129D02*
X51023Y-53296D01*
X51302Y-50850D02*
X51023Y-51129D01*
X51762Y-50850D02*
X51302Y-50850D01*
X46600Y-52308D02*
X46600Y-62000D01*
X48058Y-50850D02*
X46600Y-52308D01*
X49637Y-50850D02*
X48058Y-50850D01*
X51762Y-56538D02*
X51499Y-56801D01*
X51762Y-54350D02*
X51762Y-56538D01*
X49637Y-42750D02*
X49176Y-42750D01*
X47065Y-63534D02*
X47600Y-63000D01*
X45399Y-63534D02*
X47065Y-63534D01*
X45092Y-63227D02*
X45399Y-63534D01*
X45092Y-61596D02*
X45092Y-63227D01*
X46139Y-60549D02*
X45092Y-61596D01*
X46139Y-52000D02*
X46139Y-60549D01*
X49176Y-48963D02*
X46139Y-52000D01*
X49176Y-42750D02*
X49176Y-48963D01*
X50677Y-58922D02*
X47600Y-62000D01*
X50677Y-50226D02*
X50677Y-58922D01*
X51302Y-49601D02*
X50677Y-50226D01*
X51302Y-42750D02*
X51302Y-49601D01*
X51762Y-42750D02*
X51302Y-42750D01*
X39394Y-39250D02*
X40937Y-39250D01*
X38139Y-40505D02*
X39394Y-39250D01*
X38139Y-57843D02*
X38139Y-40505D01*
X37650Y-63749D02*
X38400Y-63000D01*
X35090Y-63749D02*
X37650Y-63749D01*
X34416Y-63075D02*
X35090Y-63749D01*
X34416Y-60430D02*
X34416Y-63075D01*
X37619Y-57227D02*
X34416Y-60430D01*
X37619Y-40352D02*
X37619Y-57227D01*
X39224Y-38746D02*
X37619Y-40352D01*
X42099Y-38746D02*
X39224Y-38746D01*
X42602Y-39250D02*
X42099Y-38746D01*
X43062Y-39250D02*
X42602Y-39250D01*
X43062Y-42750D02*
X43523Y-42750D01*
X45909Y-53490D02*
X37400Y-62000D01*
X45909Y-51905D02*
X45909Y-53490D01*
X46041Y-51773D02*
X45909Y-51905D01*
X46041Y-44855D02*
X46041Y-51773D01*
X43936Y-42750D02*
X46041Y-44855D01*
X43523Y-42750D02*
X43936Y-42750D01*
X40937Y-42750D02*
X41397Y-42750D01*
X41887Y-42259D02*
X41397Y-42750D01*
X41887Y-39557D02*
X41887Y-42259D01*
X41306Y-38976D02*
X41887Y-39557D01*
X39342Y-38976D02*
X41306Y-38976D01*
X37909Y-40409D02*
X39342Y-38976D01*
X37909Y-57425D02*
X37909Y-40409D01*
X34651Y-60683D02*
X37909Y-57425D01*
X34651Y-62974D02*
X34651Y-60683D01*
X35190Y-63513D02*
X34651Y-62974D01*
X36886Y-63513D02*
X35190Y-63513D01*
X37400Y-63000D02*
X36886Y-63513D01*
X40476Y-51381D02*
X40376Y-51481D01*
X40476Y-50850D02*
X40476Y-51381D01*
X40937Y-50850D02*
X40476Y-50850D01*
X43062Y-50850D02*
X42602Y-50850D01*
X42222Y-51230D02*
X42222Y-54675D01*
X42602Y-50850D02*
X42222Y-51230D01*
X49637Y-39250D02*
X50097Y-39250D01*
X50097Y-39229D02*
X50211Y-39115D01*
X50097Y-39250D02*
X50097Y-39229D01*
X43062Y-54350D02*
X42602Y-54350D01*
X42602Y-54797D02*
X42602Y-54350D01*
X35400Y-62000D02*
X42602Y-54797D01*
X34888Y-62488D02*
X35400Y-63000D01*
X34888Y-61587D02*
X34888Y-62488D01*
X40476Y-55999D02*
X34888Y-61587D01*
X40476Y-54350D02*
X40476Y-55999D01*
X40937Y-54350D02*
X40476Y-54350D01*
X52223Y-39293D02*
X52325Y-39395D01*
X52223Y-39250D02*
X52223Y-39293D01*
X51762Y-39250D02*
X52223Y-39250D01*
X45200Y-53075D02*
X44769Y-53075D01*
X51762Y-51850D02*
X51302Y-51850D01*
X38800Y-41475D02*
X39230Y-41475D01*
X40937Y-41250D02*
X40476Y-41250D01*
X44469Y-53075D02*
X44453Y-53058D01*
X44769Y-53075D02*
X44469Y-53075D01*
X51762Y-53350D02*
X52223Y-53350D01*
X51762Y-53350D02*
X51360Y-53350D01*
X51360Y-53350D02*
X51353Y-53350D01*
X51302Y-53109D02*
X51302Y-51850D01*
X51353Y-53160D02*
X51302Y-53109D01*
X51353Y-53350D02*
X51353Y-53160D01*
X52548Y-53025D02*
X53379Y-53025D01*
X52223Y-53350D02*
X52548Y-53025D01*
X53379Y-53025D02*
X53379Y-52694D01*
X57471Y-45500D02*
X59000Y-45500D01*
X53632Y-52694D02*
X53379Y-52694D01*
X57471Y-48856D02*
X53632Y-52694D01*
X57471Y-45500D02*
X57471Y-48856D01*
X40164Y-63764D02*
X39400Y-63000D01*
X49557Y-63764D02*
X40164Y-63764D01*
X51169Y-62152D02*
X49557Y-63764D01*
X51169Y-53617D02*
X51169Y-62152D01*
X51353Y-53433D02*
X51169Y-53617D01*
X51353Y-53350D02*
X51353Y-53433D01*
X39455Y-52850D02*
X39230Y-53075D01*
X40937Y-52850D02*
X39455Y-52850D01*
X38800Y-53075D02*
X39230Y-53075D01*
X40251Y-41475D02*
X40032Y-41475D01*
X40476Y-41250D02*
X40251Y-41475D01*
X40032Y-41475D02*
X39230Y-41475D01*
X48951Y-41475D02*
X47600Y-41475D01*
X49176Y-41250D02*
X48951Y-41475D01*
X47600Y-41475D02*
X45300Y-41475D01*
X49637Y-52850D02*
X49406Y-52850D01*
X49637Y-53350D02*
X49176Y-53350D01*
X49171Y-53075D02*
X49176Y-53080D01*
X47600Y-53075D02*
X49171Y-53075D01*
X49406Y-52850D02*
X49176Y-53080D01*
X49176Y-53080D02*
X49176Y-53350D01*
X41361Y-53350D02*
X41500Y-53489D01*
X41339Y-53350D02*
X41361Y-53350D01*
X47600Y-53075D02*
X47169Y-53075D01*
X47153Y-53058D02*
X47055Y-53058D01*
X47169Y-53075D02*
X47153Y-53058D01*
X41138Y-53350D02*
X41138Y-52850D01*
X40937Y-52850D02*
X41138Y-52850D01*
X40937Y-53350D02*
X41138Y-53350D01*
X41138Y-53350D02*
X41339Y-53350D01*
X44162Y-53350D02*
X43062Y-53350D01*
X44453Y-53058D02*
X44162Y-53350D01*
X42602Y-53350D02*
X42602Y-51850D01*
X43062Y-53350D02*
X42602Y-53350D01*
X43062Y-51850D02*
X42602Y-51850D01*
X40274Y-51850D02*
X40937Y-51850D01*
X40032Y-51607D02*
X40274Y-51850D01*
X40032Y-41475D02*
X40032Y-51607D01*
X41397Y-52591D02*
X41138Y-52850D01*
X41397Y-51850D02*
X41397Y-52591D01*
X40937Y-51850D02*
X41397Y-51850D01*
X53509Y-41534D02*
X53939Y-41534D01*
X49406Y-41250D02*
X49176Y-41250D01*
X49406Y-41250D02*
X49637Y-41250D01*
X53939Y-40515D02*
X53939Y-41534D01*
X52381Y-38956D02*
X53939Y-40515D01*
X51412Y-38956D02*
X52381Y-38956D01*
X50097Y-40272D02*
X51412Y-38956D01*
X50097Y-41250D02*
X50097Y-40272D01*
X49637Y-41250D02*
X50097Y-41250D01*
X53939Y-41968D02*
X57471Y-45500D01*
X53939Y-41534D02*
X53939Y-41968D01*
X49637Y-51850D02*
X49176Y-51850D01*
X49176Y-51850D02*
X49073Y-51746D01*
X49637Y-51350D02*
X50097Y-51350D01*
X50097Y-51350D02*
X50097Y-46919D01*
X51302Y-41750D02*
X51302Y-40250D01*
X51762Y-41750D02*
X51302Y-41750D01*
X51762Y-40250D02*
X51302Y-40250D01*
X40937Y-41750D02*
X41397Y-41750D01*
X40937Y-40250D02*
X41397Y-40250D01*
X41397Y-41750D02*
X41397Y-40250D01*
X41550Y-41902D02*
X41550Y-42039D01*
X41397Y-41750D02*
X41550Y-41902D01*
X43293Y-41750D02*
X43523Y-41750D01*
X43293Y-41750D02*
X43062Y-41750D01*
X42602Y-41750D02*
X42602Y-40250D01*
X43062Y-41750D02*
X42602Y-41750D01*
X43062Y-40250D02*
X42602Y-40250D01*
X49637Y-41750D02*
X51302Y-41750D01*
X49637Y-41750D02*
X49176Y-41750D01*
X49019Y-41906D02*
X49176Y-41750D01*
X43680Y-41906D02*
X49019Y-41906D01*
X43523Y-41750D02*
X43680Y-41906D01*
X43680Y-41906D02*
X43680Y-42039D01*
X41454Y-39807D02*
X41510Y-39807D01*
X41397Y-39750D02*
X41454Y-39807D01*
X40937Y-39750D02*
X41397Y-39750D01*
X40937Y-51350D02*
X41397Y-51350D01*
X41397Y-51350D02*
X41397Y-49306D01*
X43062Y-39750D02*
X42602Y-39750D01*
X43062Y-51350D02*
X43523Y-51350D01*
X45371Y-49501D02*
X45371Y-47186D01*
X43523Y-51350D02*
X45371Y-49501D01*
X42355Y-44170D02*
X45371Y-47186D01*
X42355Y-39997D02*
X42355Y-44170D01*
X42602Y-39750D02*
X42355Y-39997D01*
X43062Y-42250D02*
X42602Y-42250D01*
X43062Y-53850D02*
X43523Y-53850D01*
X45182Y-45520D02*
X45711Y-44992D01*
X42602Y-42940D02*
X42602Y-42250D01*
X45182Y-45520D02*
X42602Y-42940D01*
X45107Y-53850D02*
X43523Y-53850D01*
X45679Y-53278D02*
X45107Y-53850D01*
X45679Y-51810D02*
X45679Y-53278D01*
X45701Y-51788D02*
X45679Y-51810D01*
X45701Y-46039D02*
X45701Y-51788D01*
X45182Y-45520D02*
X45701Y-46039D01*
X40937Y-42250D02*
X40476Y-42250D01*
X40476Y-46228D02*
X42690Y-48442D01*
X40476Y-42250D02*
X40476Y-46228D01*
X40937Y-53850D02*
X41397Y-53850D01*
X42690Y-48442D02*
X42742Y-48442D01*
X41907Y-49224D02*
X42690Y-48442D01*
X41907Y-53557D02*
X41907Y-49224D01*
X41615Y-53850D02*
X41907Y-53557D01*
X41397Y-53850D02*
X41615Y-53850D01*
X51762Y-51350D02*
X52223Y-51350D01*
X52536Y-51036D02*
X52223Y-51350D01*
X52536Y-50359D02*
X52536Y-51036D01*
X51762Y-39750D02*
X52223Y-39750D01*
X52659Y-50236D02*
X52536Y-50359D01*
X52659Y-40186D02*
X52659Y-50236D01*
X52223Y-39750D02*
X52659Y-40186D01*
X54650Y-53850D02*
X51762Y-53850D01*
X59000Y-49500D02*
X54650Y-53850D01*
X51762Y-42250D02*
X52223Y-42250D01*
X52223Y-42250D02*
X52223Y-47937D01*
X49637Y-53850D02*
X50097Y-53850D01*
X49637Y-42250D02*
X50097Y-42250D01*
X50427Y-42580D02*
X50427Y-50008D01*
X50097Y-42250D02*
X50427Y-42580D01*
X50427Y-53519D02*
X50097Y-53850D01*
X50427Y-50008D02*
X50427Y-53519D01*
M02*
