G04 (created by PCBNEW (2013-jul-07)-stable) date Tue 15 Jan 2019 06:57:42 PM PST*
%MOIN*%
G04 Gerber Fmt 3.4, Leading zero omitted, Abs format*
%FSLAX34Y34*%
G01*
G70*
G90*
G04 APERTURE LIST*
%ADD10C,0.00590551*%
%ADD11R,0.055X0.035*%
%ADD12R,0.06X0.06*%
%ADD13C,0.06*%
%ADD14R,0.07X0.07*%
%ADD15C,0.07*%
%ADD16R,0.0610236X0.023622*%
%ADD17C,0.15*%
G04 APERTURE END LIST*
G54D10*
G54D11*
X53379Y-52275D03*
X53379Y-53025D03*
X47600Y-53075D03*
X47600Y-52325D03*
X53509Y-40784D03*
X53509Y-41534D03*
X47600Y-41475D03*
X47600Y-40725D03*
X45200Y-52325D03*
X45200Y-53075D03*
X38800Y-53075D03*
X38800Y-52325D03*
X45300Y-40725D03*
X45300Y-41475D03*
X38800Y-41475D03*
X38800Y-40725D03*
G54D12*
X34010Y-55350D03*
G54D13*
X33980Y-56350D03*
X33980Y-57350D03*
G54D12*
X39000Y-31000D03*
G54D13*
X39000Y-32000D03*
G54D12*
X42500Y-31000D03*
G54D13*
X42500Y-32000D03*
G54D14*
X39400Y-62000D03*
G54D15*
X39400Y-63000D03*
X38400Y-62000D03*
X38400Y-63000D03*
X37400Y-62000D03*
X37400Y-63000D03*
X36400Y-62000D03*
X36400Y-63000D03*
X35400Y-62000D03*
X35400Y-63000D03*
G54D14*
X49600Y-62000D03*
G54D15*
X49600Y-63000D03*
X48600Y-62000D03*
X48600Y-63000D03*
X47600Y-62000D03*
X47600Y-63000D03*
X46600Y-62000D03*
X46600Y-63000D03*
X45600Y-62000D03*
X45600Y-63000D03*
G54D16*
X49637Y-50850D03*
X49637Y-51350D03*
X49637Y-51850D03*
X49637Y-52350D03*
X51762Y-52350D03*
X51762Y-51850D03*
X51762Y-51350D03*
X51762Y-50850D03*
X49637Y-52850D03*
X49637Y-53350D03*
X49637Y-53850D03*
X49637Y-54350D03*
X51762Y-53350D03*
X51762Y-53850D03*
X51762Y-54350D03*
X51762Y-52850D03*
X49637Y-39250D03*
X49637Y-39750D03*
X49637Y-40250D03*
X49637Y-40750D03*
X51762Y-40750D03*
X51762Y-40250D03*
X51762Y-39750D03*
X51762Y-39250D03*
X49637Y-41250D03*
X49637Y-41750D03*
X49637Y-42250D03*
X49637Y-42750D03*
X51762Y-41750D03*
X51762Y-42250D03*
X51762Y-42750D03*
X51762Y-41250D03*
X40937Y-50850D03*
X40937Y-51350D03*
X40937Y-51850D03*
X40937Y-52350D03*
X43062Y-52350D03*
X43062Y-51850D03*
X43062Y-51350D03*
X43062Y-50850D03*
X40937Y-52850D03*
X40937Y-53350D03*
X40937Y-53850D03*
X40937Y-54350D03*
X43062Y-53350D03*
X43062Y-53850D03*
X43062Y-54350D03*
X43062Y-52850D03*
X40937Y-39250D03*
X40937Y-39750D03*
X40937Y-40250D03*
X40937Y-40750D03*
X43062Y-40750D03*
X43062Y-40250D03*
X43062Y-39750D03*
X43062Y-39250D03*
X40937Y-41250D03*
X40937Y-41750D03*
X40937Y-42250D03*
X40937Y-42750D03*
X43062Y-41750D03*
X43062Y-42250D03*
X43062Y-42750D03*
X43062Y-41250D03*
G54D17*
X31500Y-31500D03*
X53500Y-31500D03*
X53500Y-63500D03*
X31500Y-63500D03*
G54D14*
X59000Y-45500D03*
G54D15*
X60000Y-45500D03*
X59000Y-46500D03*
X60000Y-46500D03*
X59000Y-47500D03*
X60000Y-47500D03*
X59000Y-48500D03*
X60000Y-48500D03*
X59000Y-49500D03*
X60000Y-49500D03*
M02*
