G04 (created by PCBNEW (2013-jul-07)-stable) date Tue 15 Jan 2019 06:57:42 PM PST*
%MOIN*%
G04 Gerber Fmt 3.4, Leading zero omitted, Abs format*
%FSLAX34Y34*%
G01*
G70*
G90*
G04 APERTURE LIST*
%ADD10C,0.00590551*%
%ADD11R,0.06X0.06*%
%ADD12C,0.06*%
%ADD13R,0.07X0.07*%
%ADD14C,0.07*%
%ADD15C,0.15*%
%ADD16C,0.035*%
%ADD17C,0.015*%
G04 APERTURE END LIST*
G54D10*
G54D11*
X34010Y-55350D03*
G54D12*
X33980Y-56350D03*
X33980Y-57350D03*
G54D11*
X39000Y-31000D03*
G54D12*
X39000Y-32000D03*
G54D11*
X42500Y-31000D03*
G54D12*
X42500Y-32000D03*
G54D13*
X39400Y-62000D03*
G54D14*
X39400Y-63000D03*
X38400Y-62000D03*
X38400Y-63000D03*
X37400Y-62000D03*
X37400Y-63000D03*
X36400Y-62000D03*
X36400Y-63000D03*
X35400Y-62000D03*
X35400Y-63000D03*
G54D13*
X49600Y-62000D03*
G54D14*
X49600Y-63000D03*
X48600Y-62000D03*
X48600Y-63000D03*
X47600Y-62000D03*
X47600Y-63000D03*
X46600Y-62000D03*
X46600Y-63000D03*
X45600Y-62000D03*
X45600Y-63000D03*
G54D15*
X31500Y-31500D03*
X53500Y-31500D03*
X53500Y-63500D03*
X31500Y-63500D03*
G54D13*
X59000Y-45500D03*
G54D14*
X60000Y-45500D03*
X59000Y-46500D03*
X60000Y-46500D03*
X59000Y-47500D03*
X60000Y-47500D03*
X59000Y-48500D03*
X60000Y-48500D03*
X59000Y-49500D03*
X60000Y-49500D03*
G54D16*
X52574Y-52275D03*
X45200Y-51891D03*
X52329Y-40703D03*
X53055Y-40407D03*
X39223Y-39903D03*
X40360Y-52328D03*
X47050Y-52328D03*
X48139Y-40600D03*
X49176Y-57055D03*
X51023Y-53296D03*
X51499Y-56801D03*
X38139Y-57843D03*
X40376Y-51481D03*
X42222Y-54675D03*
X50211Y-39115D03*
X52325Y-39395D03*
X44453Y-53058D03*
X41500Y-53489D03*
X47055Y-53058D03*
X49073Y-51746D03*
X50097Y-46919D03*
X41550Y-42039D03*
X43680Y-42039D03*
X41510Y-39807D03*
X41397Y-49306D03*
X45371Y-47186D03*
X45711Y-44992D03*
X42742Y-48442D03*
X52536Y-50359D03*
X52223Y-47937D03*
X50427Y-50008D03*
G54D17*
X47262Y-51891D02*
X45200Y-51891D01*
X47645Y-52275D02*
X47262Y-51891D01*
X52574Y-52275D02*
X47645Y-52275D01*
X43625Y-32000D02*
X52329Y-40703D01*
X42500Y-32000D02*
X43625Y-32000D01*
X52625Y-40407D02*
X52329Y-40703D01*
X53055Y-40407D02*
X52625Y-40407D01*
X39223Y-32223D02*
X39000Y-32000D01*
X39223Y-39903D02*
X39223Y-32223D01*
X40360Y-52328D02*
X47050Y-52328D01*
X48139Y-40765D02*
X34010Y-54894D01*
X48139Y-40600D02*
X48139Y-40765D01*
X34010Y-55350D02*
X34010Y-54894D01*
X45094Y-61137D02*
X49176Y-57055D01*
X45094Y-62494D02*
X45094Y-61137D01*
X45600Y-63000D02*
X45094Y-62494D01*
X46090Y-63509D02*
X46600Y-63000D01*
X45391Y-63509D02*
X46090Y-63509D01*
X44854Y-62971D02*
X45391Y-63509D01*
X44854Y-59466D02*
X44854Y-62971D01*
X51023Y-53296D02*
X44854Y-59466D01*
X50798Y-56801D02*
X45600Y-62000D01*
X51499Y-56801D02*
X50798Y-56801D01*
X38400Y-58104D02*
X38139Y-57843D01*
X38400Y-62000D02*
X38400Y-58104D01*
X36400Y-55458D02*
X36400Y-62000D01*
X40376Y-51481D02*
X36400Y-55458D01*
X36922Y-63522D02*
X36400Y-63000D01*
X39613Y-63522D02*
X36922Y-63522D01*
X42222Y-60913D02*
X39613Y-63522D01*
X42222Y-54675D02*
X42222Y-60913D01*
X53645Y-42549D02*
X50211Y-39115D01*
X58435Y-42549D02*
X53645Y-42549D01*
X60985Y-45100D02*
X58435Y-42549D01*
X60985Y-49555D02*
X60985Y-45100D01*
X59684Y-50856D02*
X60985Y-49555D01*
X57658Y-50856D02*
X59684Y-50856D01*
X52178Y-56335D02*
X57658Y-50856D01*
X52178Y-58421D02*
X52178Y-56335D01*
X48600Y-62000D02*
X52178Y-58421D01*
X52510Y-39395D02*
X52325Y-39395D01*
X55204Y-42089D02*
X52510Y-39395D01*
X58300Y-42089D02*
X55204Y-42089D01*
X61215Y-45004D02*
X58300Y-42089D01*
X61215Y-49669D02*
X61215Y-45004D01*
X59799Y-51086D02*
X61215Y-49669D01*
X57755Y-51086D02*
X59799Y-51086D01*
X52594Y-56247D02*
X57755Y-51086D01*
X52594Y-60732D02*
X52594Y-56247D01*
X49796Y-63530D02*
X52594Y-60732D01*
X49130Y-63530D02*
X49796Y-63530D01*
X48600Y-63000D02*
X49130Y-63530D01*
X41499Y-60900D02*
X39400Y-63000D01*
X41499Y-54907D02*
X41499Y-60900D01*
X42209Y-54198D02*
X41499Y-54907D01*
X42209Y-54198D02*
X41500Y-53489D01*
X43348Y-53058D02*
X44453Y-53058D01*
X42209Y-54198D02*
X43348Y-53058D01*
X44453Y-53058D02*
X47055Y-53058D01*
X48464Y-51138D02*
X49073Y-51746D01*
X39191Y-51138D02*
X48464Y-51138D01*
X33980Y-56350D02*
X39191Y-51138D01*
X58580Y-46919D02*
X59000Y-46500D01*
X50097Y-46919D02*
X58580Y-46919D01*
X43680Y-42039D02*
X41550Y-42039D01*
X33524Y-56894D02*
X33980Y-57350D01*
X33524Y-53925D02*
X33524Y-56894D01*
X41550Y-45900D02*
X33524Y-53925D01*
X41550Y-42039D02*
X41550Y-45900D01*
X45848Y-45322D02*
X45381Y-45322D01*
X46177Y-44993D02*
X45848Y-45322D01*
X60208Y-44993D02*
X46177Y-44993D01*
X60510Y-45295D02*
X60208Y-44993D01*
X60510Y-45990D02*
X60510Y-45295D01*
X60000Y-46500D02*
X60510Y-45990D01*
X47845Y-39807D02*
X41510Y-39807D01*
X48486Y-40448D02*
X47845Y-39807D01*
X48486Y-41641D02*
X48486Y-40448D01*
X45380Y-44747D02*
X48486Y-41641D01*
X45380Y-45321D02*
X45380Y-44747D01*
X45381Y-45322D02*
X45380Y-45321D01*
X45381Y-45322D02*
X41397Y-49306D01*
X58749Y-47249D02*
X59000Y-47500D01*
X45434Y-47249D02*
X58749Y-47249D01*
X45371Y-47186D02*
X45434Y-47249D01*
X60745Y-46754D02*
X60000Y-47500D01*
X60745Y-45204D02*
X60745Y-46754D01*
X60297Y-44756D02*
X60745Y-45204D01*
X45946Y-44756D02*
X60297Y-44756D01*
X45711Y-44992D02*
X45946Y-44756D01*
X43592Y-47592D02*
X42742Y-48442D01*
X58092Y-47592D02*
X43592Y-47592D01*
X59000Y-48500D02*
X58092Y-47592D01*
X59855Y-50359D02*
X52536Y-50359D01*
X60522Y-49693D02*
X59855Y-50359D01*
X60522Y-49022D02*
X60522Y-49693D01*
X60000Y-48500D02*
X60522Y-49022D01*
X57437Y-47937D02*
X59000Y-49500D01*
X52223Y-47937D02*
X57437Y-47937D01*
X59491Y-50008D02*
X50427Y-50008D01*
X60000Y-49500D02*
X59491Y-50008D01*
M02*
