  0
SECTION
  2
HEADER
  9
$ANGBASE
  50
0.0
  9
$ANGDIR
  70
  1
  9
$MEASUREMENT
  70
0
  0
ENDSEC
  0
SECTION
  2
TABLES
  0
TABLE
  2
LTYPE
  70
1
  0
LTYPE
  2
CONTINUOUS
  70
0
  3
Solid line
  72
65
  73
0
  40
0.0
  0
ENDTAB
  0
TABLE
  2
STYLE
  70
4
  0
STYLE
  2
KICAD
  70
0
  40
0
  41
1
  42
1
  50
0
  71
0
  3
isocp.shx
  0
STYLE
  2
KICADB
  70
0
  40
0
  41
1
  42
1
  50
0
  71
0
  3
isocp.shx
  0
STYLE
  2
KICADI
  70
0
  40
0
  41
1
  42
1
  50
15
  71
0
  3
isocp.shx
  0
STYLE
  2
KICADBI
  70
0
  40
0
  41
1
  42
1
  50
15
  71
0
  3
isocp.shx
  0
ENDTAB
  0
TABLE
  2
LAYER
  70
24
  0
LAYER
  2
BLACK
  70
0
  62
250
  6
CONTINUOUS
  0
LAYER
  2
BLUE
  70
0
  62
5
  6
CONTINUOUS
  0
LAYER
  2
GREEN
  70
0
  62
3
  6
CONTINUOUS
  0
LAYER
  2
CYAN
  70
0
  62
4
  6
CONTINUOUS
  0
LAYER
  2
RED
  70
0
  62
1
  6
CONTINUOUS
  0
LAYER
  2
MAGENTA
  70
0
  62
6
  6
CONTINUOUS
  0
LAYER
  2
BROWN
  70
0
  62
54
  6
CONTINUOUS
  0
LAYER
  2
LIGHTGRAY
  70
0
  62
9
  6
CONTINUOUS
  0
LAYER
  2
DARKGRAY
  70
0
  62
8
  6
CONTINUOUS
  0
LAYER
  2
LIGHTBLUE
  70
0
  62
171
  6
CONTINUOUS
  0
LAYER
  2
LIGHTGREEN
  70
0
  62
91
  6
CONTINUOUS
  0
LAYER
  2
LIGHTCYAN
  70
0
  62
131
  6
CONTINUOUS
  0
LAYER
  2
LIGHTRED
  70
0
  62
11
  6
CONTINUOUS
  0
LAYER
  2
LIGHTMAGENTA
  70
0
  62
221
  6
CONTINUOUS
  0
LAYER
  2
YELLOW
  70
0
  62
2
  6
CONTINUOUS
  0
LAYER
  2
WHITE
  70
0
  62
7
  6
CONTINUOUS
  0
LAYER
  2
DARKDARKGRAY
  70
0
  62
251
  6
CONTINUOUS
  0
LAYER
  2
DARKBLUE
  70
0
  62
178
  6
CONTINUOUS
  0
LAYER
  2
DARKGREEN
  70
0
  62
98
  6
CONTINUOUS
  0
LAYER
  2
DARKCYAN
  70
0
  62
138
  6
CONTINUOUS
  0
LAYER
  2
DARKRED
  70
0
  62
18
  6
CONTINUOUS
  0
LAYER
  2
DARKMAGENTA
  70
0
  62
228
  6
CONTINUOUS
  0
LAYER
  2
DARKBROWN
  70
0
  62
58
  6
CONTINUOUS
  0
LAYER
  2
LIGHTYELLOW
  70
0
  62
51
  6
CONTINUOUS
  0
ENDTAB
  0
ENDSEC
  0
SECTION
  2
ENTITIES
0
LINE
8
BLACK
10
177.927
20
-60.96
11
177.927
21
-53.34
0
LINE
8
BLACK
10
177.673
20
-60.96
11
177.673
21
-53.34
0
ARC
8
BLACK
10
177.8
20
-53.34
40
0.127
50
360
51
540
0
ARC
8
BLACK
10
177.8
20
-60.96
40
0.127
50
180
51
360
0
LINE
8
BLACK
10
180.34
20
-63.627
11
193.04
21
-63.627
0
LINE
8
BLACK
10
180.34
20
-63.373
11
193.04
21
-63.373
0
ARC
8
BLACK
10
193.04
20
-63.5
40
0.127
50
270
51
450
0
ARC
8
BLACK
10
180.34
20
-63.5
40
0.127
50
90
51
270
0
LINE
8
BLACK
10
195.707
20
-99.06
11
195.707
21
-66.04
0
LINE
8
BLACK
10
195.453
20
-99.06
11
195.453
21
-66.04
0
ARC
8
BLACK
10
195.58
20
-66.04
40
0.127
50
360
51
540
0
ARC
8
BLACK
10
195.58
20
-99.06
40
0.127
50
180
51
360
0
LINE
8
BLACK
10
180.34
20
-101.727
11
193.04
21
-101.727
0
LINE
8
BLACK
10
180.34
20
-101.473
11
193.04
21
-101.473
0
ARC
8
BLACK
10
193.04
20
-101.6
40
0.127
50
270
51
450
0
ARC
8
BLACK
10
180.34
20
-101.6
40
0.127
50
90
51
270
0
LINE
8
BLACK
10
177.927
20
-137.16
11
177.927
21
-104.14
0
LINE
8
BLACK
10
177.673
20
-137.16
11
177.673
21
-104.14
0
ARC
8
BLACK
10
177.8
20
-104.14
40
0.127
50
360
51
540
0
ARC
8
BLACK
10
177.8
20
-137.16
40
0.127
50
180
51
360
0
LINE
8
BLACK
10
53.34
20
-139.827
11
175.26
21
-139.827
0
LINE
8
BLACK
10
53.34
20
-139.573
11
175.26
21
-139.573
0
ARC
8
BLACK
10
175.26
20
-139.7
40
0.127
50
270
51
450
0
ARC
8
BLACK
10
53.34
20
-139.7
40
0.127
50
90
51
270
0
LINE
8
BLACK
10
53.34
20
-50.927
11
175.26
21
-50.927
0
LINE
8
BLACK
10
53.34
20
-50.673
11
175.26
21
-50.673
0
ARC
8
BLACK
10
175.26
20
-50.8
40
0.127
50
270
51
450
0
ARC
8
BLACK
10
53.34
20
-50.8
40
0.127
50
90
51
270
0
LINE
8
BLACK
10
50.927
20
-137.16
11
50.927
21
-53.34
0
LINE
8
BLACK
10
50.673
20
-137.16
11
50.673
21
-53.34
0
ARC
8
BLACK
10
50.8
20
-53.34
40
0.127
50
360
51
540
0
ARC
8
BLACK
10
50.8
20
-137.16
40
0.127
50
180
51
360
0
ARC
8
BLACK
10
53.34
20
-53.34
40
2.54
50
90
51
180
0
ARC
8
BLACK
10
53.34
20
-137.16
40
2.54
50
-180
51
-90
0
ARC
8
BLACK
10
175.26
20
-137.16
40
2.54
50
-90
51
0
0
ARC
8
BLACK
10
180.34
20
-104.14
40
2.54
50
90
51
180
0
ARC
8
BLACK
10
193.04
20
-99.06
40
2.54
50
-90
51
0
0
ARC
8
BLACK
10
193.04
20
-66.04
40
2.54
50
0
51
90
0
ARC
8
BLACK
10
180.34
20
-60.96
40
2.54
50
-180
51
-90
0
ARC
8
BLACK
10
175.26
20
-53.34
40
2.54
50
0
51
90
  0
ENDSEC
  0
EOF
