%TF.GenerationSoftware,KiCad,Pcbnew,5.1.7-a382d34a8~87~ubuntu18.04.1*%
%TF.CreationDate,2022-10-25T10:50:56-07:00*%
%TF.ProjectId,potentiostat,706f7465-6e74-4696-9f73-7461742e6b69,rev?*%
%TF.SameCoordinates,Original*%
%TF.FileFunction,Paste,Top*%
%TF.FilePolarity,Positive*%
%FSLAX46Y46*%
G04 Gerber Fmt 4.6, Leading zero omitted, Abs format (unit mm)*
G04 Created by KiCad (PCBNEW 5.1.7-a382d34a8~87~ubuntu18.04.1) date 2022-10-25 10:50:56*
%MOMM*%
%LPD*%
G01*
G04 APERTURE LIST*
%ADD10R,0.800000X0.900000*%
%ADD11R,0.900000X0.800000*%
G04 APERTURE END LIST*
%TO.C,C3*%
G36*
G01*
X174188000Y-104390000D02*
X174188000Y-103890000D01*
G75*
G02*
X174413000Y-103665000I225000J0D01*
G01*
X174863000Y-103665000D01*
G75*
G02*
X175088000Y-103890000I0J-225000D01*
G01*
X175088000Y-104390000D01*
G75*
G02*
X174863000Y-104615000I-225000J0D01*
G01*
X174413000Y-104615000D01*
G75*
G02*
X174188000Y-104390000I0J225000D01*
G01*
G37*
G36*
G01*
X172638000Y-104390000D02*
X172638000Y-103890000D01*
G75*
G02*
X172863000Y-103665000I225000J0D01*
G01*
X173313000Y-103665000D01*
G75*
G02*
X173538000Y-103890000I0J-225000D01*
G01*
X173538000Y-104390000D01*
G75*
G02*
X173313000Y-104615000I-225000J0D01*
G01*
X172863000Y-104615000D01*
G75*
G02*
X172638000Y-104390000I0J225000D01*
G01*
G37*
%TD*%
%TO.C,U11*%
G36*
G01*
X123804000Y-76604000D02*
X123804000Y-76304000D01*
G75*
G02*
X123954000Y-76154000I150000J0D01*
G01*
X125604000Y-76154000D01*
G75*
G02*
X125754000Y-76304000I0J-150000D01*
G01*
X125754000Y-76604000D01*
G75*
G02*
X125604000Y-76754000I-150000J0D01*
G01*
X123954000Y-76754000D01*
G75*
G02*
X123804000Y-76604000I0J150000D01*
G01*
G37*
G36*
G01*
X123804000Y-77874000D02*
X123804000Y-77574000D01*
G75*
G02*
X123954000Y-77424000I150000J0D01*
G01*
X125604000Y-77424000D01*
G75*
G02*
X125754000Y-77574000I0J-150000D01*
G01*
X125754000Y-77874000D01*
G75*
G02*
X125604000Y-78024000I-150000J0D01*
G01*
X123954000Y-78024000D01*
G75*
G02*
X123804000Y-77874000I0J150000D01*
G01*
G37*
G36*
G01*
X123804000Y-79144000D02*
X123804000Y-78844000D01*
G75*
G02*
X123954000Y-78694000I150000J0D01*
G01*
X125604000Y-78694000D01*
G75*
G02*
X125754000Y-78844000I0J-150000D01*
G01*
X125754000Y-79144000D01*
G75*
G02*
X125604000Y-79294000I-150000J0D01*
G01*
X123954000Y-79294000D01*
G75*
G02*
X123804000Y-79144000I0J150000D01*
G01*
G37*
G36*
G01*
X123804000Y-80414000D02*
X123804000Y-80114000D01*
G75*
G02*
X123954000Y-79964000I150000J0D01*
G01*
X125604000Y-79964000D01*
G75*
G02*
X125754000Y-80114000I0J-150000D01*
G01*
X125754000Y-80414000D01*
G75*
G02*
X125604000Y-80564000I-150000J0D01*
G01*
X123954000Y-80564000D01*
G75*
G02*
X123804000Y-80414000I0J150000D01*
G01*
G37*
G36*
G01*
X128754000Y-80414000D02*
X128754000Y-80114000D01*
G75*
G02*
X128904000Y-79964000I150000J0D01*
G01*
X130554000Y-79964000D01*
G75*
G02*
X130704000Y-80114000I0J-150000D01*
G01*
X130704000Y-80414000D01*
G75*
G02*
X130554000Y-80564000I-150000J0D01*
G01*
X128904000Y-80564000D01*
G75*
G02*
X128754000Y-80414000I0J150000D01*
G01*
G37*
G36*
G01*
X128754000Y-79144000D02*
X128754000Y-78844000D01*
G75*
G02*
X128904000Y-78694000I150000J0D01*
G01*
X130554000Y-78694000D01*
G75*
G02*
X130704000Y-78844000I0J-150000D01*
G01*
X130704000Y-79144000D01*
G75*
G02*
X130554000Y-79294000I-150000J0D01*
G01*
X128904000Y-79294000D01*
G75*
G02*
X128754000Y-79144000I0J150000D01*
G01*
G37*
G36*
G01*
X128754000Y-77874000D02*
X128754000Y-77574000D01*
G75*
G02*
X128904000Y-77424000I150000J0D01*
G01*
X130554000Y-77424000D01*
G75*
G02*
X130704000Y-77574000I0J-150000D01*
G01*
X130704000Y-77874000D01*
G75*
G02*
X130554000Y-78024000I-150000J0D01*
G01*
X128904000Y-78024000D01*
G75*
G02*
X128754000Y-77874000I0J150000D01*
G01*
G37*
G36*
G01*
X128754000Y-76604000D02*
X128754000Y-76304000D01*
G75*
G02*
X128904000Y-76154000I150000J0D01*
G01*
X130554000Y-76154000D01*
G75*
G02*
X130704000Y-76304000I0J-150000D01*
G01*
X130704000Y-76604000D01*
G75*
G02*
X130554000Y-76754000I-150000J0D01*
G01*
X128904000Y-76754000D01*
G75*
G02*
X128754000Y-76604000I0J150000D01*
G01*
G37*
%TD*%
%TO.C,C1*%
G36*
G01*
X86416000Y-71632000D02*
X86416000Y-72132000D01*
G75*
G02*
X86191000Y-72357000I-225000J0D01*
G01*
X85741000Y-72357000D01*
G75*
G02*
X85516000Y-72132000I0J225000D01*
G01*
X85516000Y-71632000D01*
G75*
G02*
X85741000Y-71407000I225000J0D01*
G01*
X86191000Y-71407000D01*
G75*
G02*
X86416000Y-71632000I0J-225000D01*
G01*
G37*
G36*
G01*
X87966000Y-71632000D02*
X87966000Y-72132000D01*
G75*
G02*
X87741000Y-72357000I-225000J0D01*
G01*
X87291000Y-72357000D01*
G75*
G02*
X87066000Y-72132000I0J225000D01*
G01*
X87066000Y-71632000D01*
G75*
G02*
X87291000Y-71407000I225000J0D01*
G01*
X87741000Y-71407000D01*
G75*
G02*
X87966000Y-71632000I0J-225000D01*
G01*
G37*
%TD*%
%TO.C,C2*%
G36*
G01*
X162642000Y-104017000D02*
X162642000Y-104517000D01*
G75*
G02*
X162417000Y-104742000I-225000J0D01*
G01*
X161967000Y-104742000D01*
G75*
G02*
X161742000Y-104517000I0J225000D01*
G01*
X161742000Y-104017000D01*
G75*
G02*
X161967000Y-103792000I225000J0D01*
G01*
X162417000Y-103792000D01*
G75*
G02*
X162642000Y-104017000I0J-225000D01*
G01*
G37*
G36*
G01*
X161092000Y-104017000D02*
X161092000Y-104517000D01*
G75*
G02*
X160867000Y-104742000I-225000J0D01*
G01*
X160417000Y-104742000D01*
G75*
G02*
X160192000Y-104517000I0J225000D01*
G01*
X160192000Y-104017000D01*
G75*
G02*
X160417000Y-103792000I225000J0D01*
G01*
X160867000Y-103792000D01*
G75*
G02*
X161092000Y-104017000I0J-225000D01*
G01*
G37*
%TD*%
%TO.C,C4*%
G36*
G01*
X174188000Y-106041000D02*
X174188000Y-105541000D01*
G75*
G02*
X174413000Y-105316000I225000J0D01*
G01*
X174863000Y-105316000D01*
G75*
G02*
X175088000Y-105541000I0J-225000D01*
G01*
X175088000Y-106041000D01*
G75*
G02*
X174863000Y-106266000I-225000J0D01*
G01*
X174413000Y-106266000D01*
G75*
G02*
X174188000Y-106041000I0J225000D01*
G01*
G37*
G36*
G01*
X172638000Y-106041000D02*
X172638000Y-105541000D01*
G75*
G02*
X172863000Y-105316000I225000J0D01*
G01*
X173313000Y-105316000D01*
G75*
G02*
X173538000Y-105541000I0J-225000D01*
G01*
X173538000Y-106041000D01*
G75*
G02*
X173313000Y-106266000I-225000J0D01*
G01*
X172863000Y-106266000D01*
G75*
G02*
X172638000Y-106041000I0J225000D01*
G01*
G37*
%TD*%
%TO.C,C5*%
G36*
G01*
X87966000Y-64266000D02*
X87966000Y-64766000D01*
G75*
G02*
X87741000Y-64991000I-225000J0D01*
G01*
X87291000Y-64991000D01*
G75*
G02*
X87066000Y-64766000I0J225000D01*
G01*
X87066000Y-64266000D01*
G75*
G02*
X87291000Y-64041000I225000J0D01*
G01*
X87741000Y-64041000D01*
G75*
G02*
X87966000Y-64266000I0J-225000D01*
G01*
G37*
G36*
G01*
X86416000Y-64266000D02*
X86416000Y-64766000D01*
G75*
G02*
X86191000Y-64991000I-225000J0D01*
G01*
X85741000Y-64991000D01*
G75*
G02*
X85516000Y-64766000I0J225000D01*
G01*
X85516000Y-64266000D01*
G75*
G02*
X85741000Y-64041000I225000J0D01*
G01*
X86191000Y-64041000D01*
G75*
G02*
X86416000Y-64266000I0J-225000D01*
G01*
G37*
%TD*%
%TO.C,C6*%
G36*
G01*
X126802000Y-85729000D02*
X126802000Y-86229000D01*
G75*
G02*
X126577000Y-86454000I-225000J0D01*
G01*
X126127000Y-86454000D01*
G75*
G02*
X125902000Y-86229000I0J225000D01*
G01*
X125902000Y-85729000D01*
G75*
G02*
X126127000Y-85504000I225000J0D01*
G01*
X126577000Y-85504000D01*
G75*
G02*
X126802000Y-85729000I0J-225000D01*
G01*
G37*
G36*
G01*
X128352000Y-85729000D02*
X128352000Y-86229000D01*
G75*
G02*
X128127000Y-86454000I-225000J0D01*
G01*
X127677000Y-86454000D01*
G75*
G02*
X127452000Y-86229000I0J225000D01*
G01*
X127452000Y-85729000D01*
G75*
G02*
X127677000Y-85504000I225000J0D01*
G01*
X128127000Y-85504000D01*
G75*
G02*
X128352000Y-85729000I0J-225000D01*
G01*
G37*
%TD*%
%TO.C,C7*%
G36*
G01*
X52828000Y-76155000D02*
X52328000Y-76155000D01*
G75*
G02*
X52103000Y-75930000I0J225000D01*
G01*
X52103000Y-75480000D01*
G75*
G02*
X52328000Y-75255000I225000J0D01*
G01*
X52828000Y-75255000D01*
G75*
G02*
X53053000Y-75480000I0J-225000D01*
G01*
X53053000Y-75930000D01*
G75*
G02*
X52828000Y-76155000I-225000J0D01*
G01*
G37*
G36*
G01*
X52828000Y-74605000D02*
X52328000Y-74605000D01*
G75*
G02*
X52103000Y-74380000I0J225000D01*
G01*
X52103000Y-73930000D01*
G75*
G02*
X52328000Y-73705000I225000J0D01*
G01*
X52828000Y-73705000D01*
G75*
G02*
X53053000Y-73930000I0J-225000D01*
G01*
X53053000Y-74380000D01*
G75*
G02*
X52828000Y-74605000I-225000J0D01*
G01*
G37*
%TD*%
%TO.C,C8*%
G36*
G01*
X90928000Y-88067000D02*
X90428000Y-88067000D01*
G75*
G02*
X90203000Y-87842000I0J225000D01*
G01*
X90203000Y-87392000D01*
G75*
G02*
X90428000Y-87167000I225000J0D01*
G01*
X90928000Y-87167000D01*
G75*
G02*
X91153000Y-87392000I0J-225000D01*
G01*
X91153000Y-87842000D01*
G75*
G02*
X90928000Y-88067000I-225000J0D01*
G01*
G37*
G36*
G01*
X90928000Y-89617000D02*
X90428000Y-89617000D01*
G75*
G02*
X90203000Y-89392000I0J225000D01*
G01*
X90203000Y-88942000D01*
G75*
G02*
X90428000Y-88717000I225000J0D01*
G01*
X90928000Y-88717000D01*
G75*
G02*
X91153000Y-88942000I0J-225000D01*
G01*
X91153000Y-89392000D01*
G75*
G02*
X90928000Y-89617000I-225000J0D01*
G01*
G37*
%TD*%
%TO.C,C9*%
G36*
G01*
X135251000Y-134829000D02*
X134751000Y-134829000D01*
G75*
G02*
X134526000Y-134604000I0J225000D01*
G01*
X134526000Y-134154000D01*
G75*
G02*
X134751000Y-133929000I225000J0D01*
G01*
X135251000Y-133929000D01*
G75*
G02*
X135476000Y-134154000I0J-225000D01*
G01*
X135476000Y-134604000D01*
G75*
G02*
X135251000Y-134829000I-225000J0D01*
G01*
G37*
G36*
G01*
X135251000Y-133279000D02*
X134751000Y-133279000D01*
G75*
G02*
X134526000Y-133054000I0J225000D01*
G01*
X134526000Y-132604000D01*
G75*
G02*
X134751000Y-132379000I225000J0D01*
G01*
X135251000Y-132379000D01*
G75*
G02*
X135476000Y-132604000I0J-225000D01*
G01*
X135476000Y-133054000D01*
G75*
G02*
X135251000Y-133279000I-225000J0D01*
G01*
G37*
%TD*%
%TO.C,C10*%
G36*
G01*
X71370000Y-105847000D02*
X70870000Y-105847000D01*
G75*
G02*
X70645000Y-105622000I0J225000D01*
G01*
X70645000Y-105172000D01*
G75*
G02*
X70870000Y-104947000I225000J0D01*
G01*
X71370000Y-104947000D01*
G75*
G02*
X71595000Y-105172000I0J-225000D01*
G01*
X71595000Y-105622000D01*
G75*
G02*
X71370000Y-105847000I-225000J0D01*
G01*
G37*
G36*
G01*
X71370000Y-107397000D02*
X70870000Y-107397000D01*
G75*
G02*
X70645000Y-107172000I0J225000D01*
G01*
X70645000Y-106722000D01*
G75*
G02*
X70870000Y-106497000I225000J0D01*
G01*
X71370000Y-106497000D01*
G75*
G02*
X71595000Y-106722000I0J-225000D01*
G01*
X71595000Y-107172000D01*
G75*
G02*
X71370000Y-107397000I-225000J0D01*
G01*
G37*
%TD*%
%TO.C,C11*%
G36*
G01*
X123018000Y-83697000D02*
X123018000Y-84197000D01*
G75*
G02*
X122793000Y-84422000I-225000J0D01*
G01*
X122343000Y-84422000D01*
G75*
G02*
X122118000Y-84197000I0J225000D01*
G01*
X122118000Y-83697000D01*
G75*
G02*
X122343000Y-83472000I225000J0D01*
G01*
X122793000Y-83472000D01*
G75*
G02*
X123018000Y-83697000I0J-225000D01*
G01*
G37*
G36*
G01*
X121468000Y-83697000D02*
X121468000Y-84197000D01*
G75*
G02*
X121243000Y-84422000I-225000J0D01*
G01*
X120793000Y-84422000D01*
G75*
G02*
X120568000Y-84197000I0J225000D01*
G01*
X120568000Y-83697000D01*
G75*
G02*
X120793000Y-83472000I225000J0D01*
G01*
X121243000Y-83472000D01*
G75*
G02*
X121468000Y-83697000I0J-225000D01*
G01*
G37*
%TD*%
%TO.C,C12*%
G36*
G01*
X97338000Y-68457000D02*
X97338000Y-68957000D01*
G75*
G02*
X97113000Y-69182000I-225000J0D01*
G01*
X96663000Y-69182000D01*
G75*
G02*
X96438000Y-68957000I0J225000D01*
G01*
X96438000Y-68457000D01*
G75*
G02*
X96663000Y-68232000I225000J0D01*
G01*
X97113000Y-68232000D01*
G75*
G02*
X97338000Y-68457000I0J-225000D01*
G01*
G37*
G36*
G01*
X98888000Y-68457000D02*
X98888000Y-68957000D01*
G75*
G02*
X98663000Y-69182000I-225000J0D01*
G01*
X98213000Y-69182000D01*
G75*
G02*
X97988000Y-68957000I0J225000D01*
G01*
X97988000Y-68457000D01*
G75*
G02*
X98213000Y-68232000I225000J0D01*
G01*
X98663000Y-68232000D01*
G75*
G02*
X98888000Y-68457000I0J-225000D01*
G01*
G37*
%TD*%
%TO.C,C13*%
G36*
G01*
X144403000Y-78150000D02*
X144903000Y-78150000D01*
G75*
G02*
X145128000Y-78375000I0J-225000D01*
G01*
X145128000Y-78825000D01*
G75*
G02*
X144903000Y-79050000I-225000J0D01*
G01*
X144403000Y-79050000D01*
G75*
G02*
X144178000Y-78825000I0J225000D01*
G01*
X144178000Y-78375000D01*
G75*
G02*
X144403000Y-78150000I225000J0D01*
G01*
G37*
G36*
G01*
X144403000Y-79700000D02*
X144903000Y-79700000D01*
G75*
G02*
X145128000Y-79925000I0J-225000D01*
G01*
X145128000Y-80375000D01*
G75*
G02*
X144903000Y-80600000I-225000J0D01*
G01*
X144403000Y-80600000D01*
G75*
G02*
X144178000Y-80375000I0J225000D01*
G01*
X144178000Y-79925000D01*
G75*
G02*
X144403000Y-79700000I225000J0D01*
G01*
G37*
%TD*%
%TO.C,C14*%
G36*
G01*
X122129000Y-68838000D02*
X122129000Y-69338000D01*
G75*
G02*
X121904000Y-69563000I-225000J0D01*
G01*
X121454000Y-69563000D01*
G75*
G02*
X121229000Y-69338000I0J225000D01*
G01*
X121229000Y-68838000D01*
G75*
G02*
X121454000Y-68613000I225000J0D01*
G01*
X121904000Y-68613000D01*
G75*
G02*
X122129000Y-68838000I0J-225000D01*
G01*
G37*
G36*
G01*
X120579000Y-68838000D02*
X120579000Y-69338000D01*
G75*
G02*
X120354000Y-69563000I-225000J0D01*
G01*
X119904000Y-69563000D01*
G75*
G02*
X119679000Y-69338000I0J225000D01*
G01*
X119679000Y-68838000D01*
G75*
G02*
X119904000Y-68613000I225000J0D01*
G01*
X120354000Y-68613000D01*
G75*
G02*
X120579000Y-68838000I0J-225000D01*
G01*
G37*
%TD*%
%TO.C,C15*%
G36*
G01*
X98380000Y-82808000D02*
X98380000Y-83308000D01*
G75*
G02*
X98155000Y-83533000I-225000J0D01*
G01*
X97705000Y-83533000D01*
G75*
G02*
X97480000Y-83308000I0J225000D01*
G01*
X97480000Y-82808000D01*
G75*
G02*
X97705000Y-82583000I225000J0D01*
G01*
X98155000Y-82583000D01*
G75*
G02*
X98380000Y-82808000I0J-225000D01*
G01*
G37*
G36*
G01*
X96830000Y-82808000D02*
X96830000Y-83308000D01*
G75*
G02*
X96605000Y-83533000I-225000J0D01*
G01*
X96155000Y-83533000D01*
G75*
G02*
X95930000Y-83308000I0J225000D01*
G01*
X95930000Y-82808000D01*
G75*
G02*
X96155000Y-82583000I225000J0D01*
G01*
X96605000Y-82583000D01*
G75*
G02*
X96830000Y-82808000I0J-225000D01*
G01*
G37*
%TD*%
%TO.C,C16*%
G36*
G01*
X133929000Y-77974000D02*
X133929000Y-77474000D01*
G75*
G02*
X134154000Y-77249000I225000J0D01*
G01*
X134604000Y-77249000D01*
G75*
G02*
X134829000Y-77474000I0J-225000D01*
G01*
X134829000Y-77974000D01*
G75*
G02*
X134604000Y-78199000I-225000J0D01*
G01*
X134154000Y-78199000D01*
G75*
G02*
X133929000Y-77974000I0J225000D01*
G01*
G37*
G36*
G01*
X132379000Y-77974000D02*
X132379000Y-77474000D01*
G75*
G02*
X132604000Y-77249000I225000J0D01*
G01*
X133054000Y-77249000D01*
G75*
G02*
X133279000Y-77474000I0J-225000D01*
G01*
X133279000Y-77974000D01*
G75*
G02*
X133054000Y-78199000I-225000J0D01*
G01*
X132604000Y-78199000D01*
G75*
G02*
X132379000Y-77974000I0J225000D01*
G01*
G37*
%TD*%
%TO.C,C17*%
G36*
G01*
X146427000Y-65842000D02*
X145927000Y-65842000D01*
G75*
G02*
X145702000Y-65617000I0J225000D01*
G01*
X145702000Y-65167000D01*
G75*
G02*
X145927000Y-64942000I225000J0D01*
G01*
X146427000Y-64942000D01*
G75*
G02*
X146652000Y-65167000I0J-225000D01*
G01*
X146652000Y-65617000D01*
G75*
G02*
X146427000Y-65842000I-225000J0D01*
G01*
G37*
G36*
G01*
X146427000Y-67392000D02*
X145927000Y-67392000D01*
G75*
G02*
X145702000Y-67167000I0J225000D01*
G01*
X145702000Y-66717000D01*
G75*
G02*
X145927000Y-66492000I225000J0D01*
G01*
X146427000Y-66492000D01*
G75*
G02*
X146652000Y-66717000I0J-225000D01*
G01*
X146652000Y-67167000D01*
G75*
G02*
X146427000Y-67392000I-225000J0D01*
G01*
G37*
%TD*%
%TO.C,C18*%
G36*
G01*
X109926000Y-66417000D02*
X109926000Y-65917000D01*
G75*
G02*
X110151000Y-65692000I225000J0D01*
G01*
X110601000Y-65692000D01*
G75*
G02*
X110826000Y-65917000I0J-225000D01*
G01*
X110826000Y-66417000D01*
G75*
G02*
X110601000Y-66642000I-225000J0D01*
G01*
X110151000Y-66642000D01*
G75*
G02*
X109926000Y-66417000I0J225000D01*
G01*
G37*
G36*
G01*
X108376000Y-66417000D02*
X108376000Y-65917000D01*
G75*
G02*
X108601000Y-65692000I225000J0D01*
G01*
X109051000Y-65692000D01*
G75*
G02*
X109276000Y-65917000I0J-225000D01*
G01*
X109276000Y-66417000D01*
G75*
G02*
X109051000Y-66642000I-225000J0D01*
G01*
X108601000Y-66642000D01*
G75*
G02*
X108376000Y-66417000I0J225000D01*
G01*
G37*
%TD*%
%TO.C,C19*%
G36*
G01*
X134056000Y-66798000D02*
X134056000Y-66298000D01*
G75*
G02*
X134281000Y-66073000I225000J0D01*
G01*
X134731000Y-66073000D01*
G75*
G02*
X134956000Y-66298000I0J-225000D01*
G01*
X134956000Y-66798000D01*
G75*
G02*
X134731000Y-67023000I-225000J0D01*
G01*
X134281000Y-67023000D01*
G75*
G02*
X134056000Y-66798000I0J225000D01*
G01*
G37*
G36*
G01*
X132506000Y-66798000D02*
X132506000Y-66298000D01*
G75*
G02*
X132731000Y-66073000I225000J0D01*
G01*
X133181000Y-66073000D01*
G75*
G02*
X133406000Y-66298000I0J-225000D01*
G01*
X133406000Y-66798000D01*
G75*
G02*
X133181000Y-67023000I-225000J0D01*
G01*
X132731000Y-67023000D01*
G75*
G02*
X132506000Y-66798000I0J225000D01*
G01*
G37*
%TD*%
%TO.C,C20*%
G36*
G01*
X146308000Y-78150000D02*
X146808000Y-78150000D01*
G75*
G02*
X147033000Y-78375000I0J-225000D01*
G01*
X147033000Y-78825000D01*
G75*
G02*
X146808000Y-79050000I-225000J0D01*
G01*
X146308000Y-79050000D01*
G75*
G02*
X146083000Y-78825000I0J225000D01*
G01*
X146083000Y-78375000D01*
G75*
G02*
X146308000Y-78150000I225000J0D01*
G01*
G37*
G36*
G01*
X146308000Y-79700000D02*
X146808000Y-79700000D01*
G75*
G02*
X147033000Y-79925000I0J-225000D01*
G01*
X147033000Y-80375000D01*
G75*
G02*
X146808000Y-80600000I-225000J0D01*
G01*
X146308000Y-80600000D01*
G75*
G02*
X146083000Y-80375000I0J225000D01*
G01*
X146083000Y-79925000D01*
G75*
G02*
X146308000Y-79700000I225000J0D01*
G01*
G37*
%TD*%
%TO.C,C21*%
G36*
G01*
X108249000Y-80768000D02*
X108249000Y-80268000D01*
G75*
G02*
X108474000Y-80043000I225000J0D01*
G01*
X108924000Y-80043000D01*
G75*
G02*
X109149000Y-80268000I0J-225000D01*
G01*
X109149000Y-80768000D01*
G75*
G02*
X108924000Y-80993000I-225000J0D01*
G01*
X108474000Y-80993000D01*
G75*
G02*
X108249000Y-80768000I0J225000D01*
G01*
G37*
G36*
G01*
X109799000Y-80768000D02*
X109799000Y-80268000D01*
G75*
G02*
X110024000Y-80043000I225000J0D01*
G01*
X110474000Y-80043000D01*
G75*
G02*
X110699000Y-80268000I0J-225000D01*
G01*
X110699000Y-80768000D01*
G75*
G02*
X110474000Y-80993000I-225000J0D01*
G01*
X110024000Y-80993000D01*
G75*
G02*
X109799000Y-80768000I0J225000D01*
G01*
G37*
%TD*%
%TO.C,C22*%
G36*
G01*
X70276000Y-59559000D02*
X70276000Y-59059000D01*
G75*
G02*
X70501000Y-58834000I225000J0D01*
G01*
X70951000Y-58834000D01*
G75*
G02*
X71176000Y-59059000I0J-225000D01*
G01*
X71176000Y-59559000D01*
G75*
G02*
X70951000Y-59784000I-225000J0D01*
G01*
X70501000Y-59784000D01*
G75*
G02*
X70276000Y-59559000I0J225000D01*
G01*
G37*
G36*
G01*
X71826000Y-59559000D02*
X71826000Y-59059000D01*
G75*
G02*
X72051000Y-58834000I225000J0D01*
G01*
X72501000Y-58834000D01*
G75*
G02*
X72726000Y-59059000I0J-225000D01*
G01*
X72726000Y-59559000D01*
G75*
G02*
X72501000Y-59784000I-225000J0D01*
G01*
X72051000Y-59784000D01*
G75*
G02*
X71826000Y-59559000I0J225000D01*
G01*
G37*
%TD*%
%TO.C,C23*%
G36*
G01*
X76637000Y-59059000D02*
X76637000Y-59559000D01*
G75*
G02*
X76412000Y-59784000I-225000J0D01*
G01*
X75962000Y-59784000D01*
G75*
G02*
X75737000Y-59559000I0J225000D01*
G01*
X75737000Y-59059000D01*
G75*
G02*
X75962000Y-58834000I225000J0D01*
G01*
X76412000Y-58834000D01*
G75*
G02*
X76637000Y-59059000I0J-225000D01*
G01*
G37*
G36*
G01*
X78187000Y-59059000D02*
X78187000Y-59559000D01*
G75*
G02*
X77962000Y-59784000I-225000J0D01*
G01*
X77512000Y-59784000D01*
G75*
G02*
X77287000Y-59559000I0J225000D01*
G01*
X77287000Y-59059000D01*
G75*
G02*
X77512000Y-58834000I225000J0D01*
G01*
X77962000Y-58834000D01*
G75*
G02*
X78187000Y-59059000I0J-225000D01*
G01*
G37*
%TD*%
%TO.C,C24*%
G36*
G01*
X65349000Y-59432000D02*
X65349000Y-58932000D01*
G75*
G02*
X65574000Y-58707000I225000J0D01*
G01*
X66024000Y-58707000D01*
G75*
G02*
X66249000Y-58932000I0J-225000D01*
G01*
X66249000Y-59432000D01*
G75*
G02*
X66024000Y-59657000I-225000J0D01*
G01*
X65574000Y-59657000D01*
G75*
G02*
X65349000Y-59432000I0J225000D01*
G01*
G37*
G36*
G01*
X63799000Y-59432000D02*
X63799000Y-58932000D01*
G75*
G02*
X64024000Y-58707000I225000J0D01*
G01*
X64474000Y-58707000D01*
G75*
G02*
X64699000Y-58932000I0J-225000D01*
G01*
X64699000Y-59432000D01*
G75*
G02*
X64474000Y-59657000I-225000J0D01*
G01*
X64024000Y-59657000D01*
G75*
G02*
X63799000Y-59432000I0J225000D01*
G01*
G37*
%TD*%
%TO.C,C25*%
G36*
G01*
X145497000Y-114431000D02*
X145497000Y-114931000D01*
G75*
G02*
X145272000Y-115156000I-225000J0D01*
G01*
X144822000Y-115156000D01*
G75*
G02*
X144597000Y-114931000I0J225000D01*
G01*
X144597000Y-114431000D01*
G75*
G02*
X144822000Y-114206000I225000J0D01*
G01*
X145272000Y-114206000D01*
G75*
G02*
X145497000Y-114431000I0J-225000D01*
G01*
G37*
G36*
G01*
X143947000Y-114431000D02*
X143947000Y-114931000D01*
G75*
G02*
X143722000Y-115156000I-225000J0D01*
G01*
X143272000Y-115156000D01*
G75*
G02*
X143047000Y-114931000I0J225000D01*
G01*
X143047000Y-114431000D01*
G75*
G02*
X143272000Y-114206000I225000J0D01*
G01*
X143722000Y-114206000D01*
G75*
G02*
X143947000Y-114431000I0J-225000D01*
G01*
G37*
%TD*%
%TO.C,C26*%
G36*
G01*
X141990000Y-123388000D02*
X142490000Y-123388000D01*
G75*
G02*
X142715000Y-123613000I0J-225000D01*
G01*
X142715000Y-124063000D01*
G75*
G02*
X142490000Y-124288000I-225000J0D01*
G01*
X141990000Y-124288000D01*
G75*
G02*
X141765000Y-124063000I0J225000D01*
G01*
X141765000Y-123613000D01*
G75*
G02*
X141990000Y-123388000I225000J0D01*
G01*
G37*
G36*
G01*
X141990000Y-121838000D02*
X142490000Y-121838000D01*
G75*
G02*
X142715000Y-122063000I0J-225000D01*
G01*
X142715000Y-122513000D01*
G75*
G02*
X142490000Y-122738000I-225000J0D01*
G01*
X141990000Y-122738000D01*
G75*
G02*
X141765000Y-122513000I0J225000D01*
G01*
X141765000Y-122063000D01*
G75*
G02*
X141990000Y-121838000I225000J0D01*
G01*
G37*
%TD*%
%TO.C,C27*%
G36*
G01*
X155874000Y-124075000D02*
X155874000Y-123575000D01*
G75*
G02*
X156099000Y-123350000I225000J0D01*
G01*
X156549000Y-123350000D01*
G75*
G02*
X156774000Y-123575000I0J-225000D01*
G01*
X156774000Y-124075000D01*
G75*
G02*
X156549000Y-124300000I-225000J0D01*
G01*
X156099000Y-124300000D01*
G75*
G02*
X155874000Y-124075000I0J225000D01*
G01*
G37*
G36*
G01*
X157424000Y-124075000D02*
X157424000Y-123575000D01*
G75*
G02*
X157649000Y-123350000I225000J0D01*
G01*
X158099000Y-123350000D01*
G75*
G02*
X158324000Y-123575000I0J-225000D01*
G01*
X158324000Y-124075000D01*
G75*
G02*
X158099000Y-124300000I-225000J0D01*
G01*
X157649000Y-124300000D01*
G75*
G02*
X157424000Y-124075000I0J225000D01*
G01*
G37*
%TD*%
%TO.C,C28*%
G36*
G01*
X155874000Y-114423000D02*
X155874000Y-113923000D01*
G75*
G02*
X156099000Y-113698000I225000J0D01*
G01*
X156549000Y-113698000D01*
G75*
G02*
X156774000Y-113923000I0J-225000D01*
G01*
X156774000Y-114423000D01*
G75*
G02*
X156549000Y-114648000I-225000J0D01*
G01*
X156099000Y-114648000D01*
G75*
G02*
X155874000Y-114423000I0J225000D01*
G01*
G37*
G36*
G01*
X157424000Y-114423000D02*
X157424000Y-113923000D01*
G75*
G02*
X157649000Y-113698000I225000J0D01*
G01*
X158099000Y-113698000D01*
G75*
G02*
X158324000Y-113923000I0J-225000D01*
G01*
X158324000Y-114423000D01*
G75*
G02*
X158099000Y-114648000I-225000J0D01*
G01*
X157649000Y-114648000D01*
G75*
G02*
X157424000Y-114423000I0J225000D01*
G01*
G37*
%TD*%
%TO.C,C29*%
G36*
G01*
X167061000Y-96016000D02*
X167061000Y-96516000D01*
G75*
G02*
X166836000Y-96741000I-225000J0D01*
G01*
X166386000Y-96741000D01*
G75*
G02*
X166161000Y-96516000I0J225000D01*
G01*
X166161000Y-96016000D01*
G75*
G02*
X166386000Y-95791000I225000J0D01*
G01*
X166836000Y-95791000D01*
G75*
G02*
X167061000Y-96016000I0J-225000D01*
G01*
G37*
G36*
G01*
X168611000Y-96016000D02*
X168611000Y-96516000D01*
G75*
G02*
X168386000Y-96741000I-225000J0D01*
G01*
X167936000Y-96741000D01*
G75*
G02*
X167711000Y-96516000I0J225000D01*
G01*
X167711000Y-96016000D01*
G75*
G02*
X167936000Y-95791000I225000J0D01*
G01*
X168386000Y-95791000D01*
G75*
G02*
X168611000Y-96016000I0J-225000D01*
G01*
G37*
%TD*%
%TO.C,C30*%
G36*
G01*
X107778000Y-117860000D02*
X107778000Y-118360000D01*
G75*
G02*
X107553000Y-118585000I-225000J0D01*
G01*
X107103000Y-118585000D01*
G75*
G02*
X106878000Y-118360000I0J225000D01*
G01*
X106878000Y-117860000D01*
G75*
G02*
X107103000Y-117635000I225000J0D01*
G01*
X107553000Y-117635000D01*
G75*
G02*
X107778000Y-117860000I0J-225000D01*
G01*
G37*
G36*
G01*
X106228000Y-117860000D02*
X106228000Y-118360000D01*
G75*
G02*
X106003000Y-118585000I-225000J0D01*
G01*
X105553000Y-118585000D01*
G75*
G02*
X105328000Y-118360000I0J225000D01*
G01*
X105328000Y-117860000D01*
G75*
G02*
X105553000Y-117635000I225000J0D01*
G01*
X106003000Y-117635000D01*
G75*
G02*
X106228000Y-117860000I0J-225000D01*
G01*
G37*
%TD*%
%TO.C,C31*%
G36*
G01*
X160457000Y-68330000D02*
X160457000Y-68830000D01*
G75*
G02*
X160232000Y-69055000I-225000J0D01*
G01*
X159782000Y-69055000D01*
G75*
G02*
X159557000Y-68830000I0J225000D01*
G01*
X159557000Y-68330000D01*
G75*
G02*
X159782000Y-68105000I225000J0D01*
G01*
X160232000Y-68105000D01*
G75*
G02*
X160457000Y-68330000I0J-225000D01*
G01*
G37*
G36*
G01*
X162007000Y-68330000D02*
X162007000Y-68830000D01*
G75*
G02*
X161782000Y-69055000I-225000J0D01*
G01*
X161332000Y-69055000D01*
G75*
G02*
X161107000Y-68830000I0J225000D01*
G01*
X161107000Y-68330000D01*
G75*
G02*
X161332000Y-68105000I225000J0D01*
G01*
X161782000Y-68105000D01*
G75*
G02*
X162007000Y-68330000I0J-225000D01*
G01*
G37*
%TD*%
%TO.C,C32*%
G36*
G01*
X160838000Y-93349000D02*
X160838000Y-93849000D01*
G75*
G02*
X160613000Y-94074000I-225000J0D01*
G01*
X160163000Y-94074000D01*
G75*
G02*
X159938000Y-93849000I0J225000D01*
G01*
X159938000Y-93349000D01*
G75*
G02*
X160163000Y-93124000I225000J0D01*
G01*
X160613000Y-93124000D01*
G75*
G02*
X160838000Y-93349000I0J-225000D01*
G01*
G37*
G36*
G01*
X162388000Y-93349000D02*
X162388000Y-93849000D01*
G75*
G02*
X162163000Y-94074000I-225000J0D01*
G01*
X161713000Y-94074000D01*
G75*
G02*
X161488000Y-93849000I0J225000D01*
G01*
X161488000Y-93349000D01*
G75*
G02*
X161713000Y-93124000I225000J0D01*
G01*
X162163000Y-93124000D01*
G75*
G02*
X162388000Y-93349000I0J-225000D01*
G01*
G37*
%TD*%
%TO.C,C33*%
G36*
G01*
X145497000Y-118241000D02*
X145497000Y-118741000D01*
G75*
G02*
X145272000Y-118966000I-225000J0D01*
G01*
X144822000Y-118966000D01*
G75*
G02*
X144597000Y-118741000I0J225000D01*
G01*
X144597000Y-118241000D01*
G75*
G02*
X144822000Y-118016000I225000J0D01*
G01*
X145272000Y-118016000D01*
G75*
G02*
X145497000Y-118241000I0J-225000D01*
G01*
G37*
G36*
G01*
X143947000Y-118241000D02*
X143947000Y-118741000D01*
G75*
G02*
X143722000Y-118966000I-225000J0D01*
G01*
X143272000Y-118966000D01*
G75*
G02*
X143047000Y-118741000I0J225000D01*
G01*
X143047000Y-118241000D01*
G75*
G02*
X143272000Y-118016000I225000J0D01*
G01*
X143722000Y-118016000D01*
G75*
G02*
X143947000Y-118241000I0J-225000D01*
G01*
G37*
%TD*%
%TO.C,C34*%
G36*
G01*
X144582000Y-106049000D02*
X144582000Y-106549000D01*
G75*
G02*
X144357000Y-106774000I-225000J0D01*
G01*
X143907000Y-106774000D01*
G75*
G02*
X143682000Y-106549000I0J225000D01*
G01*
X143682000Y-106049000D01*
G75*
G02*
X143907000Y-105824000I225000J0D01*
G01*
X144357000Y-105824000D01*
G75*
G02*
X144582000Y-106049000I0J-225000D01*
G01*
G37*
G36*
G01*
X146132000Y-106049000D02*
X146132000Y-106549000D01*
G75*
G02*
X145907000Y-106774000I-225000J0D01*
G01*
X145457000Y-106774000D01*
G75*
G02*
X145232000Y-106549000I0J225000D01*
G01*
X145232000Y-106049000D01*
G75*
G02*
X145457000Y-105824000I225000J0D01*
G01*
X145907000Y-105824000D01*
G75*
G02*
X146132000Y-106049000I0J-225000D01*
G01*
G37*
%TD*%
%TO.C,C35*%
G36*
G01*
X172892000Y-68576000D02*
X172892000Y-68076000D01*
G75*
G02*
X173117000Y-67851000I225000J0D01*
G01*
X173567000Y-67851000D01*
G75*
G02*
X173792000Y-68076000I0J-225000D01*
G01*
X173792000Y-68576000D01*
G75*
G02*
X173567000Y-68801000I-225000J0D01*
G01*
X173117000Y-68801000D01*
G75*
G02*
X172892000Y-68576000I0J225000D01*
G01*
G37*
G36*
G01*
X174442000Y-68576000D02*
X174442000Y-68076000D01*
G75*
G02*
X174667000Y-67851000I225000J0D01*
G01*
X175117000Y-67851000D01*
G75*
G02*
X175342000Y-68076000I0J-225000D01*
G01*
X175342000Y-68576000D01*
G75*
G02*
X175117000Y-68801000I-225000J0D01*
G01*
X174667000Y-68801000D01*
G75*
G02*
X174442000Y-68576000I0J225000D01*
G01*
G37*
%TD*%
%TO.C,C36*%
G36*
G01*
X160711000Y-82681000D02*
X160711000Y-83181000D01*
G75*
G02*
X160486000Y-83406000I-225000J0D01*
G01*
X160036000Y-83406000D01*
G75*
G02*
X159811000Y-83181000I0J225000D01*
G01*
X159811000Y-82681000D01*
G75*
G02*
X160036000Y-82456000I225000J0D01*
G01*
X160486000Y-82456000D01*
G75*
G02*
X160711000Y-82681000I0J-225000D01*
G01*
G37*
G36*
G01*
X162261000Y-82681000D02*
X162261000Y-83181000D01*
G75*
G02*
X162036000Y-83406000I-225000J0D01*
G01*
X161586000Y-83406000D01*
G75*
G02*
X161361000Y-83181000I0J225000D01*
G01*
X161361000Y-82681000D01*
G75*
G02*
X161586000Y-82456000I225000J0D01*
G01*
X162036000Y-82456000D01*
G75*
G02*
X162261000Y-82681000I0J-225000D01*
G01*
G37*
%TD*%
%TO.C,C37*%
G36*
G01*
X157424000Y-118360000D02*
X157424000Y-117860000D01*
G75*
G02*
X157649000Y-117635000I225000J0D01*
G01*
X158099000Y-117635000D01*
G75*
G02*
X158324000Y-117860000I0J-225000D01*
G01*
X158324000Y-118360000D01*
G75*
G02*
X158099000Y-118585000I-225000J0D01*
G01*
X157649000Y-118585000D01*
G75*
G02*
X157424000Y-118360000I0J225000D01*
G01*
G37*
G36*
G01*
X155874000Y-118360000D02*
X155874000Y-117860000D01*
G75*
G02*
X156099000Y-117635000I225000J0D01*
G01*
X156549000Y-117635000D01*
G75*
G02*
X156774000Y-117860000I0J-225000D01*
G01*
X156774000Y-118360000D01*
G75*
G02*
X156549000Y-118585000I-225000J0D01*
G01*
X156099000Y-118585000D01*
G75*
G02*
X155874000Y-118360000I0J225000D01*
G01*
G37*
%TD*%
%TO.C,C38*%
G36*
G01*
X156587000Y-102825000D02*
X156087000Y-102825000D01*
G75*
G02*
X155862000Y-102600000I0J225000D01*
G01*
X155862000Y-102150000D01*
G75*
G02*
X156087000Y-101925000I225000J0D01*
G01*
X156587000Y-101925000D01*
G75*
G02*
X156812000Y-102150000I0J-225000D01*
G01*
X156812000Y-102600000D01*
G75*
G02*
X156587000Y-102825000I-225000J0D01*
G01*
G37*
G36*
G01*
X156587000Y-101275000D02*
X156087000Y-101275000D01*
G75*
G02*
X155862000Y-101050000I0J225000D01*
G01*
X155862000Y-100600000D01*
G75*
G02*
X156087000Y-100375000I225000J0D01*
G01*
X156587000Y-100375000D01*
G75*
G02*
X156812000Y-100600000I0J-225000D01*
G01*
X156812000Y-101050000D01*
G75*
G02*
X156587000Y-101275000I-225000J0D01*
G01*
G37*
%TD*%
%TO.C,C39*%
G36*
G01*
X136099000Y-93857000D02*
X136099000Y-94357000D01*
G75*
G02*
X135874000Y-94582000I-225000J0D01*
G01*
X135424000Y-94582000D01*
G75*
G02*
X135199000Y-94357000I0J225000D01*
G01*
X135199000Y-93857000D01*
G75*
G02*
X135424000Y-93632000I225000J0D01*
G01*
X135874000Y-93632000D01*
G75*
G02*
X136099000Y-93857000I0J-225000D01*
G01*
G37*
G36*
G01*
X134549000Y-93857000D02*
X134549000Y-94357000D01*
G75*
G02*
X134324000Y-94582000I-225000J0D01*
G01*
X133874000Y-94582000D01*
G75*
G02*
X133649000Y-94357000I0J225000D01*
G01*
X133649000Y-93857000D01*
G75*
G02*
X133874000Y-93632000I225000J0D01*
G01*
X134324000Y-93632000D01*
G75*
G02*
X134549000Y-93857000I0J-225000D01*
G01*
G37*
%TD*%
%TO.C,C40*%
G36*
G01*
X172892000Y-70481000D02*
X172892000Y-69981000D01*
G75*
G02*
X173117000Y-69756000I225000J0D01*
G01*
X173567000Y-69756000D01*
G75*
G02*
X173792000Y-69981000I0J-225000D01*
G01*
X173792000Y-70481000D01*
G75*
G02*
X173567000Y-70706000I-225000J0D01*
G01*
X173117000Y-70706000D01*
G75*
G02*
X172892000Y-70481000I0J225000D01*
G01*
G37*
G36*
G01*
X174442000Y-70481000D02*
X174442000Y-69981000D01*
G75*
G02*
X174667000Y-69756000I225000J0D01*
G01*
X175117000Y-69756000D01*
G75*
G02*
X175342000Y-69981000I0J-225000D01*
G01*
X175342000Y-70481000D01*
G75*
G02*
X175117000Y-70706000I-225000J0D01*
G01*
X174667000Y-70706000D01*
G75*
G02*
X174442000Y-70481000I0J225000D01*
G01*
G37*
%TD*%
%TO.C,C41*%
G36*
G01*
X157424000Y-120011000D02*
X157424000Y-119511000D01*
G75*
G02*
X157649000Y-119286000I225000J0D01*
G01*
X158099000Y-119286000D01*
G75*
G02*
X158324000Y-119511000I0J-225000D01*
G01*
X158324000Y-120011000D01*
G75*
G02*
X158099000Y-120236000I-225000J0D01*
G01*
X157649000Y-120236000D01*
G75*
G02*
X157424000Y-120011000I0J225000D01*
G01*
G37*
G36*
G01*
X155874000Y-120011000D02*
X155874000Y-119511000D01*
G75*
G02*
X156099000Y-119286000I225000J0D01*
G01*
X156549000Y-119286000D01*
G75*
G02*
X156774000Y-119511000I0J-225000D01*
G01*
X156774000Y-120011000D01*
G75*
G02*
X156549000Y-120236000I-225000J0D01*
G01*
X156099000Y-120236000D01*
G75*
G02*
X155874000Y-120011000I0J225000D01*
G01*
G37*
%TD*%
%TO.C,C42*%
G36*
G01*
X120478000Y-105922000D02*
X120478000Y-106422000D01*
G75*
G02*
X120253000Y-106647000I-225000J0D01*
G01*
X119803000Y-106647000D01*
G75*
G02*
X119578000Y-106422000I0J225000D01*
G01*
X119578000Y-105922000D01*
G75*
G02*
X119803000Y-105697000I225000J0D01*
G01*
X120253000Y-105697000D01*
G75*
G02*
X120478000Y-105922000I0J-225000D01*
G01*
G37*
G36*
G01*
X118928000Y-105922000D02*
X118928000Y-106422000D01*
G75*
G02*
X118703000Y-106647000I-225000J0D01*
G01*
X118253000Y-106647000D01*
G75*
G02*
X118028000Y-106422000I0J225000D01*
G01*
X118028000Y-105922000D01*
G75*
G02*
X118253000Y-105697000I225000J0D01*
G01*
X118703000Y-105697000D01*
G75*
G02*
X118928000Y-105922000I0J-225000D01*
G01*
G37*
%TD*%
%TO.C,C43*%
G36*
G01*
X174442000Y-91309000D02*
X174442000Y-90809000D01*
G75*
G02*
X174667000Y-90584000I225000J0D01*
G01*
X175117000Y-90584000D01*
G75*
G02*
X175342000Y-90809000I0J-225000D01*
G01*
X175342000Y-91309000D01*
G75*
G02*
X175117000Y-91534000I-225000J0D01*
G01*
X174667000Y-91534000D01*
G75*
G02*
X174442000Y-91309000I0J225000D01*
G01*
G37*
G36*
G01*
X172892000Y-91309000D02*
X172892000Y-90809000D01*
G75*
G02*
X173117000Y-90584000I225000J0D01*
G01*
X173567000Y-90584000D01*
G75*
G02*
X173792000Y-90809000I0J-225000D01*
G01*
X173792000Y-91309000D01*
G75*
G02*
X173567000Y-91534000I-225000J0D01*
G01*
X173117000Y-91534000D01*
G75*
G02*
X172892000Y-91309000I0J225000D01*
G01*
G37*
%TD*%
%TO.C,C44*%
G36*
G01*
X100132000Y-113542000D02*
X100132000Y-114042000D01*
G75*
G02*
X99907000Y-114267000I-225000J0D01*
G01*
X99457000Y-114267000D01*
G75*
G02*
X99232000Y-114042000I0J225000D01*
G01*
X99232000Y-113542000D01*
G75*
G02*
X99457000Y-113317000I225000J0D01*
G01*
X99907000Y-113317000D01*
G75*
G02*
X100132000Y-113542000I0J-225000D01*
G01*
G37*
G36*
G01*
X101682000Y-113542000D02*
X101682000Y-114042000D01*
G75*
G02*
X101457000Y-114267000I-225000J0D01*
G01*
X101007000Y-114267000D01*
G75*
G02*
X100782000Y-114042000I0J225000D01*
G01*
X100782000Y-113542000D01*
G75*
G02*
X101007000Y-113317000I225000J0D01*
G01*
X101457000Y-113317000D01*
G75*
G02*
X101682000Y-113542000I0J-225000D01*
G01*
G37*
%TD*%
%TO.C,C45*%
G36*
G01*
X173019000Y-80641000D02*
X173019000Y-80141000D01*
G75*
G02*
X173244000Y-79916000I225000J0D01*
G01*
X173694000Y-79916000D01*
G75*
G02*
X173919000Y-80141000I0J-225000D01*
G01*
X173919000Y-80641000D01*
G75*
G02*
X173694000Y-80866000I-225000J0D01*
G01*
X173244000Y-80866000D01*
G75*
G02*
X173019000Y-80641000I0J225000D01*
G01*
G37*
G36*
G01*
X174569000Y-80641000D02*
X174569000Y-80141000D01*
G75*
G02*
X174794000Y-79916000I225000J0D01*
G01*
X175244000Y-79916000D01*
G75*
G02*
X175469000Y-80141000I0J-225000D01*
G01*
X175469000Y-80641000D01*
G75*
G02*
X175244000Y-80866000I-225000J0D01*
G01*
X174794000Y-80866000D01*
G75*
G02*
X174569000Y-80641000I0J225000D01*
G01*
G37*
%TD*%
%TO.C,C46*%
G36*
G01*
X88896000Y-107651000D02*
X88396000Y-107651000D01*
G75*
G02*
X88171000Y-107426000I0J225000D01*
G01*
X88171000Y-106976000D01*
G75*
G02*
X88396000Y-106751000I225000J0D01*
G01*
X88896000Y-106751000D01*
G75*
G02*
X89121000Y-106976000I0J-225000D01*
G01*
X89121000Y-107426000D01*
G75*
G02*
X88896000Y-107651000I-225000J0D01*
G01*
G37*
G36*
G01*
X88896000Y-106101000D02*
X88396000Y-106101000D01*
G75*
G02*
X88171000Y-105876000I0J225000D01*
G01*
X88171000Y-105426000D01*
G75*
G02*
X88396000Y-105201000I225000J0D01*
G01*
X88896000Y-105201000D01*
G75*
G02*
X89121000Y-105426000I0J-225000D01*
G01*
X89121000Y-105876000D01*
G75*
G02*
X88896000Y-106101000I-225000J0D01*
G01*
G37*
%TD*%
%TO.C,C47*%
G36*
G01*
X75483000Y-73783000D02*
X75483000Y-73283000D01*
G75*
G02*
X75708000Y-73058000I225000J0D01*
G01*
X76158000Y-73058000D01*
G75*
G02*
X76383000Y-73283000I0J-225000D01*
G01*
X76383000Y-73783000D01*
G75*
G02*
X76158000Y-74008000I-225000J0D01*
G01*
X75708000Y-74008000D01*
G75*
G02*
X75483000Y-73783000I0J225000D01*
G01*
G37*
G36*
G01*
X77033000Y-73783000D02*
X77033000Y-73283000D01*
G75*
G02*
X77258000Y-73058000I225000J0D01*
G01*
X77708000Y-73058000D01*
G75*
G02*
X77933000Y-73283000I0J-225000D01*
G01*
X77933000Y-73783000D01*
G75*
G02*
X77708000Y-74008000I-225000J0D01*
G01*
X77258000Y-74008000D01*
G75*
G02*
X77033000Y-73783000I0J225000D01*
G01*
G37*
%TD*%
%TO.C,C48*%
G36*
G01*
X130220000Y-103882000D02*
X130220000Y-103382000D01*
G75*
G02*
X130445000Y-103157000I225000J0D01*
G01*
X130895000Y-103157000D01*
G75*
G02*
X131120000Y-103382000I0J-225000D01*
G01*
X131120000Y-103882000D01*
G75*
G02*
X130895000Y-104107000I-225000J0D01*
G01*
X130445000Y-104107000D01*
G75*
G02*
X130220000Y-103882000I0J225000D01*
G01*
G37*
G36*
G01*
X131770000Y-103882000D02*
X131770000Y-103382000D01*
G75*
G02*
X131995000Y-103157000I225000J0D01*
G01*
X132445000Y-103157000D01*
G75*
G02*
X132670000Y-103382000I0J-225000D01*
G01*
X132670000Y-103882000D01*
G75*
G02*
X132445000Y-104107000I-225000J0D01*
G01*
X131995000Y-104107000D01*
G75*
G02*
X131770000Y-103882000I0J225000D01*
G01*
G37*
%TD*%
%TO.C,C50*%
G36*
G01*
X146603000Y-91817000D02*
X146603000Y-91317000D01*
G75*
G02*
X146828000Y-91092000I225000J0D01*
G01*
X147278000Y-91092000D01*
G75*
G02*
X147503000Y-91317000I0J-225000D01*
G01*
X147503000Y-91817000D01*
G75*
G02*
X147278000Y-92042000I-225000J0D01*
G01*
X146828000Y-92042000D01*
G75*
G02*
X146603000Y-91817000I0J225000D01*
G01*
G37*
G36*
G01*
X148153000Y-91817000D02*
X148153000Y-91317000D01*
G75*
G02*
X148378000Y-91092000I225000J0D01*
G01*
X148828000Y-91092000D01*
G75*
G02*
X149053000Y-91317000I0J-225000D01*
G01*
X149053000Y-91817000D01*
G75*
G02*
X148828000Y-92042000I-225000J0D01*
G01*
X148378000Y-92042000D01*
G75*
G02*
X148153000Y-91817000I0J225000D01*
G01*
G37*
%TD*%
%TO.C,C52*%
G36*
G01*
X113228000Y-111502000D02*
X113228000Y-111002000D01*
G75*
G02*
X113453000Y-110777000I225000J0D01*
G01*
X113903000Y-110777000D01*
G75*
G02*
X114128000Y-111002000I0J-225000D01*
G01*
X114128000Y-111502000D01*
G75*
G02*
X113903000Y-111727000I-225000J0D01*
G01*
X113453000Y-111727000D01*
G75*
G02*
X113228000Y-111502000I0J225000D01*
G01*
G37*
G36*
G01*
X111678000Y-111502000D02*
X111678000Y-111002000D01*
G75*
G02*
X111903000Y-110777000I225000J0D01*
G01*
X112353000Y-110777000D01*
G75*
G02*
X112578000Y-111002000I0J-225000D01*
G01*
X112578000Y-111502000D01*
G75*
G02*
X112353000Y-111727000I-225000J0D01*
G01*
X111903000Y-111727000D01*
G75*
G02*
X111678000Y-111502000I0J225000D01*
G01*
G37*
%TD*%
D10*
%TO.C,D1*%
X117536000Y-92980000D03*
X115636000Y-92980000D03*
X116586000Y-94980000D03*
%TD*%
%TO.C,D2*%
X102931000Y-95647000D03*
X101031000Y-95647000D03*
X101981000Y-97647000D03*
%TD*%
%TO.C,R1*%
G36*
G01*
X119844000Y-76560000D02*
X119844000Y-77110000D01*
G75*
G02*
X119644000Y-77310000I-200000J0D01*
G01*
X119244000Y-77310000D01*
G75*
G02*
X119044000Y-77110000I0J200000D01*
G01*
X119044000Y-76560000D01*
G75*
G02*
X119244000Y-76360000I200000J0D01*
G01*
X119644000Y-76360000D01*
G75*
G02*
X119844000Y-76560000I0J-200000D01*
G01*
G37*
G36*
G01*
X121494000Y-76560000D02*
X121494000Y-77110000D01*
G75*
G02*
X121294000Y-77310000I-200000J0D01*
G01*
X120894000Y-77310000D01*
G75*
G02*
X120694000Y-77110000I0J200000D01*
G01*
X120694000Y-76560000D01*
G75*
G02*
X120894000Y-76360000I200000J0D01*
G01*
X121294000Y-76360000D01*
G75*
G02*
X121494000Y-76560000I0J-200000D01*
G01*
G37*
%TD*%
%TO.C,R2*%
G36*
G01*
X119844000Y-78719000D02*
X119844000Y-79269000D01*
G75*
G02*
X119644000Y-79469000I-200000J0D01*
G01*
X119244000Y-79469000D01*
G75*
G02*
X119044000Y-79269000I0J200000D01*
G01*
X119044000Y-78719000D01*
G75*
G02*
X119244000Y-78519000I200000J0D01*
G01*
X119644000Y-78519000D01*
G75*
G02*
X119844000Y-78719000I0J-200000D01*
G01*
G37*
G36*
G01*
X121494000Y-78719000D02*
X121494000Y-79269000D01*
G75*
G02*
X121294000Y-79469000I-200000J0D01*
G01*
X120894000Y-79469000D01*
G75*
G02*
X120694000Y-79269000I0J200000D01*
G01*
X120694000Y-78719000D01*
G75*
G02*
X120894000Y-78519000I200000J0D01*
G01*
X121294000Y-78519000D01*
G75*
G02*
X121494000Y-78719000I0J-200000D01*
G01*
G37*
%TD*%
%TO.C,R3*%
G36*
G01*
X119044000Y-81428000D02*
X119044000Y-80878000D01*
G75*
G02*
X119244000Y-80678000I200000J0D01*
G01*
X119644000Y-80678000D01*
G75*
G02*
X119844000Y-80878000I0J-200000D01*
G01*
X119844000Y-81428000D01*
G75*
G02*
X119644000Y-81628000I-200000J0D01*
G01*
X119244000Y-81628000D01*
G75*
G02*
X119044000Y-81428000I0J200000D01*
G01*
G37*
G36*
G01*
X120694000Y-81428000D02*
X120694000Y-80878000D01*
G75*
G02*
X120894000Y-80678000I200000J0D01*
G01*
X121294000Y-80678000D01*
G75*
G02*
X121494000Y-80878000I0J-200000D01*
G01*
X121494000Y-81428000D01*
G75*
G02*
X121294000Y-81628000I-200000J0D01*
G01*
X120894000Y-81628000D01*
G75*
G02*
X120694000Y-81428000I0J200000D01*
G01*
G37*
%TD*%
%TO.C,R4*%
G36*
G01*
X97238000Y-65892000D02*
X97238000Y-66442000D01*
G75*
G02*
X97038000Y-66642000I-200000J0D01*
G01*
X96638000Y-66642000D01*
G75*
G02*
X96438000Y-66442000I0J200000D01*
G01*
X96438000Y-65892000D01*
G75*
G02*
X96638000Y-65692000I200000J0D01*
G01*
X97038000Y-65692000D01*
G75*
G02*
X97238000Y-65892000I0J-200000D01*
G01*
G37*
G36*
G01*
X98888000Y-65892000D02*
X98888000Y-66442000D01*
G75*
G02*
X98688000Y-66642000I-200000J0D01*
G01*
X98288000Y-66642000D01*
G75*
G02*
X98088000Y-66442000I0J200000D01*
G01*
X98088000Y-65892000D01*
G75*
G02*
X98288000Y-65692000I200000J0D01*
G01*
X98688000Y-65692000D01*
G75*
G02*
X98888000Y-65892000I0J-200000D01*
G01*
G37*
%TD*%
%TO.C,R5*%
G36*
G01*
X128352000Y-83545000D02*
X128352000Y-84095000D01*
G75*
G02*
X128152000Y-84295000I-200000J0D01*
G01*
X127752000Y-84295000D01*
G75*
G02*
X127552000Y-84095000I0J200000D01*
G01*
X127552000Y-83545000D01*
G75*
G02*
X127752000Y-83345000I200000J0D01*
G01*
X128152000Y-83345000D01*
G75*
G02*
X128352000Y-83545000I0J-200000D01*
G01*
G37*
G36*
G01*
X126702000Y-83545000D02*
X126702000Y-84095000D01*
G75*
G02*
X126502000Y-84295000I-200000J0D01*
G01*
X126102000Y-84295000D01*
G75*
G02*
X125902000Y-84095000I0J200000D01*
G01*
X125902000Y-83545000D01*
G75*
G02*
X126102000Y-83345000I200000J0D01*
G01*
X126502000Y-83345000D01*
G75*
G02*
X126702000Y-83545000I0J-200000D01*
G01*
G37*
%TD*%
%TO.C,R6*%
G36*
G01*
X104984000Y-71480000D02*
X104984000Y-72030000D01*
G75*
G02*
X104784000Y-72230000I-200000J0D01*
G01*
X104384000Y-72230000D01*
G75*
G02*
X104184000Y-72030000I0J200000D01*
G01*
X104184000Y-71480000D01*
G75*
G02*
X104384000Y-71280000I200000J0D01*
G01*
X104784000Y-71280000D01*
G75*
G02*
X104984000Y-71480000I0J-200000D01*
G01*
G37*
G36*
G01*
X103334000Y-71480000D02*
X103334000Y-72030000D01*
G75*
G02*
X103134000Y-72230000I-200000J0D01*
G01*
X102734000Y-72230000D01*
G75*
G02*
X102534000Y-72030000I0J200000D01*
G01*
X102534000Y-71480000D01*
G75*
G02*
X102734000Y-71280000I200000J0D01*
G01*
X103134000Y-71280000D01*
G75*
G02*
X103334000Y-71480000I0J-200000D01*
G01*
G37*
%TD*%
%TO.C,R7*%
G36*
G01*
X122129000Y-66273000D02*
X122129000Y-66823000D01*
G75*
G02*
X121929000Y-67023000I-200000J0D01*
G01*
X121529000Y-67023000D01*
G75*
G02*
X121329000Y-66823000I0J200000D01*
G01*
X121329000Y-66273000D01*
G75*
G02*
X121529000Y-66073000I200000J0D01*
G01*
X121929000Y-66073000D01*
G75*
G02*
X122129000Y-66273000I0J-200000D01*
G01*
G37*
G36*
G01*
X120479000Y-66273000D02*
X120479000Y-66823000D01*
G75*
G02*
X120279000Y-67023000I-200000J0D01*
G01*
X119879000Y-67023000D01*
G75*
G02*
X119679000Y-66823000I0J200000D01*
G01*
X119679000Y-66273000D01*
G75*
G02*
X119879000Y-66073000I200000J0D01*
G01*
X120279000Y-66073000D01*
G75*
G02*
X120479000Y-66273000I0J-200000D01*
G01*
G37*
%TD*%
%TO.C,R8*%
G36*
G01*
X96730000Y-80243000D02*
X96730000Y-80793000D01*
G75*
G02*
X96530000Y-80993000I-200000J0D01*
G01*
X96130000Y-80993000D01*
G75*
G02*
X95930000Y-80793000I0J200000D01*
G01*
X95930000Y-80243000D01*
G75*
G02*
X96130000Y-80043000I200000J0D01*
G01*
X96530000Y-80043000D01*
G75*
G02*
X96730000Y-80243000I0J-200000D01*
G01*
G37*
G36*
G01*
X98380000Y-80243000D02*
X98380000Y-80793000D01*
G75*
G02*
X98180000Y-80993000I-200000J0D01*
G01*
X97780000Y-80993000D01*
G75*
G02*
X97580000Y-80793000I0J200000D01*
G01*
X97580000Y-80243000D01*
G75*
G02*
X97780000Y-80043000I200000J0D01*
G01*
X98180000Y-80043000D01*
G75*
G02*
X98380000Y-80243000I0J-200000D01*
G01*
G37*
%TD*%
%TO.C,R9*%
G36*
G01*
X148992000Y-65742000D02*
X148442000Y-65742000D01*
G75*
G02*
X148242000Y-65542000I0J200000D01*
G01*
X148242000Y-65142000D01*
G75*
G02*
X148442000Y-64942000I200000J0D01*
G01*
X148992000Y-64942000D01*
G75*
G02*
X149192000Y-65142000I0J-200000D01*
G01*
X149192000Y-65542000D01*
G75*
G02*
X148992000Y-65742000I-200000J0D01*
G01*
G37*
G36*
G01*
X148992000Y-67392000D02*
X148442000Y-67392000D01*
G75*
G02*
X148242000Y-67192000I0J200000D01*
G01*
X148242000Y-66792000D01*
G75*
G02*
X148442000Y-66592000I200000J0D01*
G01*
X148992000Y-66592000D01*
G75*
G02*
X149192000Y-66792000I0J-200000D01*
G01*
X149192000Y-67192000D01*
G75*
G02*
X148992000Y-67392000I-200000J0D01*
G01*
G37*
%TD*%
%TO.C,R10*%
G36*
G01*
X143912000Y-67265000D02*
X143362000Y-67265000D01*
G75*
G02*
X143162000Y-67065000I0J200000D01*
G01*
X143162000Y-66665000D01*
G75*
G02*
X143362000Y-66465000I200000J0D01*
G01*
X143912000Y-66465000D01*
G75*
G02*
X144112000Y-66665000I0J-200000D01*
G01*
X144112000Y-67065000D01*
G75*
G02*
X143912000Y-67265000I-200000J0D01*
G01*
G37*
G36*
G01*
X143912000Y-65615000D02*
X143362000Y-65615000D01*
G75*
G02*
X143162000Y-65415000I0J200000D01*
G01*
X143162000Y-65015000D01*
G75*
G02*
X143362000Y-64815000I200000J0D01*
G01*
X143912000Y-64815000D01*
G75*
G02*
X144112000Y-65015000I0J-200000D01*
G01*
X144112000Y-65415000D01*
G75*
G02*
X143912000Y-65615000I-200000J0D01*
G01*
G37*
%TD*%
%TO.C,R11*%
G36*
G01*
X142092000Y-79800000D02*
X142642000Y-79800000D01*
G75*
G02*
X142842000Y-80000000I0J-200000D01*
G01*
X142842000Y-80400000D01*
G75*
G02*
X142642000Y-80600000I-200000J0D01*
G01*
X142092000Y-80600000D01*
G75*
G02*
X141892000Y-80400000I0J200000D01*
G01*
X141892000Y-80000000D01*
G75*
G02*
X142092000Y-79800000I200000J0D01*
G01*
G37*
G36*
G01*
X142092000Y-78150000D02*
X142642000Y-78150000D01*
G75*
G02*
X142842000Y-78350000I0J-200000D01*
G01*
X142842000Y-78750000D01*
G75*
G02*
X142642000Y-78950000I-200000J0D01*
G01*
X142092000Y-78950000D01*
G75*
G02*
X141892000Y-78750000I0J200000D01*
G01*
X141892000Y-78350000D01*
G75*
G02*
X142092000Y-78150000I200000J0D01*
G01*
G37*
%TD*%
%TO.C,R12*%
G36*
G01*
X148442000Y-78150000D02*
X148992000Y-78150000D01*
G75*
G02*
X149192000Y-78350000I0J-200000D01*
G01*
X149192000Y-78750000D01*
G75*
G02*
X148992000Y-78950000I-200000J0D01*
G01*
X148442000Y-78950000D01*
G75*
G02*
X148242000Y-78750000I0J200000D01*
G01*
X148242000Y-78350000D01*
G75*
G02*
X148442000Y-78150000I200000J0D01*
G01*
G37*
G36*
G01*
X148442000Y-79800000D02*
X148992000Y-79800000D01*
G75*
G02*
X149192000Y-80000000I0J-200000D01*
G01*
X149192000Y-80400000D01*
G75*
G02*
X148992000Y-80600000I-200000J0D01*
G01*
X148442000Y-80600000D01*
G75*
G02*
X148242000Y-80400000I0J200000D01*
G01*
X148242000Y-80000000D01*
G75*
G02*
X148442000Y-79800000I200000J0D01*
G01*
G37*
%TD*%
%TO.C,R13*%
G36*
G01*
X102699000Y-85577000D02*
X102699000Y-86127000D01*
G75*
G02*
X102499000Y-86327000I-200000J0D01*
G01*
X102099000Y-86327000D01*
G75*
G02*
X101899000Y-86127000I0J200000D01*
G01*
X101899000Y-85577000D01*
G75*
G02*
X102099000Y-85377000I200000J0D01*
G01*
X102499000Y-85377000D01*
G75*
G02*
X102699000Y-85577000I0J-200000D01*
G01*
G37*
G36*
G01*
X104349000Y-85577000D02*
X104349000Y-86127000D01*
G75*
G02*
X104149000Y-86327000I-200000J0D01*
G01*
X103749000Y-86327000D01*
G75*
G02*
X103549000Y-86127000I0J200000D01*
G01*
X103549000Y-85577000D01*
G75*
G02*
X103749000Y-85377000I200000J0D01*
G01*
X104149000Y-85377000D01*
G75*
G02*
X104349000Y-85577000I0J-200000D01*
G01*
G37*
%TD*%
%TO.C,R14*%
G36*
G01*
X143847000Y-116311000D02*
X143847000Y-116861000D01*
G75*
G02*
X143647000Y-117061000I-200000J0D01*
G01*
X143247000Y-117061000D01*
G75*
G02*
X143047000Y-116861000I0J200000D01*
G01*
X143047000Y-116311000D01*
G75*
G02*
X143247000Y-116111000I200000J0D01*
G01*
X143647000Y-116111000D01*
G75*
G02*
X143847000Y-116311000I0J-200000D01*
G01*
G37*
G36*
G01*
X145497000Y-116311000D02*
X145497000Y-116861000D01*
G75*
G02*
X145297000Y-117061000I-200000J0D01*
G01*
X144897000Y-117061000D01*
G75*
G02*
X144697000Y-116861000I0J200000D01*
G01*
X144697000Y-116311000D01*
G75*
G02*
X144897000Y-116111000I200000J0D01*
G01*
X145297000Y-116111000D01*
G75*
G02*
X145497000Y-116311000I0J-200000D01*
G01*
G37*
%TD*%
%TO.C,R15*%
G36*
G01*
X143997000Y-123488000D02*
X144547000Y-123488000D01*
G75*
G02*
X144747000Y-123688000I0J-200000D01*
G01*
X144747000Y-124088000D01*
G75*
G02*
X144547000Y-124288000I-200000J0D01*
G01*
X143997000Y-124288000D01*
G75*
G02*
X143797000Y-124088000I0J200000D01*
G01*
X143797000Y-123688000D01*
G75*
G02*
X143997000Y-123488000I200000J0D01*
G01*
G37*
G36*
G01*
X143997000Y-121838000D02*
X144547000Y-121838000D01*
G75*
G02*
X144747000Y-122038000I0J-200000D01*
G01*
X144747000Y-122438000D01*
G75*
G02*
X144547000Y-122638000I-200000J0D01*
G01*
X143997000Y-122638000D01*
G75*
G02*
X143797000Y-122438000I0J200000D01*
G01*
X143797000Y-122038000D01*
G75*
G02*
X143997000Y-121838000I200000J0D01*
G01*
G37*
%TD*%
%TO.C,R16*%
G36*
G01*
X155874000Y-122195000D02*
X155874000Y-121645000D01*
G75*
G02*
X156074000Y-121445000I200000J0D01*
G01*
X156474000Y-121445000D01*
G75*
G02*
X156674000Y-121645000I0J-200000D01*
G01*
X156674000Y-122195000D01*
G75*
G02*
X156474000Y-122395000I-200000J0D01*
G01*
X156074000Y-122395000D01*
G75*
G02*
X155874000Y-122195000I0J200000D01*
G01*
G37*
G36*
G01*
X157524000Y-122195000D02*
X157524000Y-121645000D01*
G75*
G02*
X157724000Y-121445000I200000J0D01*
G01*
X158124000Y-121445000D01*
G75*
G02*
X158324000Y-121645000I0J-200000D01*
G01*
X158324000Y-122195000D01*
G75*
G02*
X158124000Y-122395000I-200000J0D01*
G01*
X157724000Y-122395000D01*
G75*
G02*
X157524000Y-122195000I0J200000D01*
G01*
G37*
%TD*%
%TO.C,R17*%
G36*
G01*
X157524000Y-116353000D02*
X157524000Y-115803000D01*
G75*
G02*
X157724000Y-115603000I200000J0D01*
G01*
X158124000Y-115603000D01*
G75*
G02*
X158324000Y-115803000I0J-200000D01*
G01*
X158324000Y-116353000D01*
G75*
G02*
X158124000Y-116553000I-200000J0D01*
G01*
X157724000Y-116553000D01*
G75*
G02*
X157524000Y-116353000I0J200000D01*
G01*
G37*
G36*
G01*
X155874000Y-116353000D02*
X155874000Y-115803000D01*
G75*
G02*
X156074000Y-115603000I200000J0D01*
G01*
X156474000Y-115603000D01*
G75*
G02*
X156674000Y-115803000I0J-200000D01*
G01*
X156674000Y-116353000D01*
G75*
G02*
X156474000Y-116553000I-200000J0D01*
G01*
X156074000Y-116553000D01*
G75*
G02*
X155874000Y-116353000I0J200000D01*
G01*
G37*
%TD*%
%TO.C,R18*%
G36*
G01*
X160738000Y-90784000D02*
X160738000Y-91334000D01*
G75*
G02*
X160538000Y-91534000I-200000J0D01*
G01*
X160138000Y-91534000D01*
G75*
G02*
X159938000Y-91334000I0J200000D01*
G01*
X159938000Y-90784000D01*
G75*
G02*
X160138000Y-90584000I200000J0D01*
G01*
X160538000Y-90584000D01*
G75*
G02*
X160738000Y-90784000I0J-200000D01*
G01*
G37*
G36*
G01*
X162388000Y-90784000D02*
X162388000Y-91334000D01*
G75*
G02*
X162188000Y-91534000I-200000J0D01*
G01*
X161788000Y-91534000D01*
G75*
G02*
X161588000Y-91334000I0J200000D01*
G01*
X161588000Y-90784000D01*
G75*
G02*
X161788000Y-90584000I200000J0D01*
G01*
X162188000Y-90584000D01*
G75*
G02*
X162388000Y-90784000I0J-200000D01*
G01*
G37*
%TD*%
%TO.C,R19*%
G36*
G01*
X159938000Y-88921000D02*
X159938000Y-88371000D01*
G75*
G02*
X160138000Y-88171000I200000J0D01*
G01*
X160538000Y-88171000D01*
G75*
G02*
X160738000Y-88371000I0J-200000D01*
G01*
X160738000Y-88921000D01*
G75*
G02*
X160538000Y-89121000I-200000J0D01*
G01*
X160138000Y-89121000D01*
G75*
G02*
X159938000Y-88921000I0J200000D01*
G01*
G37*
G36*
G01*
X161588000Y-88921000D02*
X161588000Y-88371000D01*
G75*
G02*
X161788000Y-88171000I200000J0D01*
G01*
X162188000Y-88171000D01*
G75*
G02*
X162388000Y-88371000I0J-200000D01*
G01*
X162388000Y-88921000D01*
G75*
G02*
X162188000Y-89121000I-200000J0D01*
G01*
X161788000Y-89121000D01*
G75*
G02*
X161588000Y-88921000I0J200000D01*
G01*
G37*
%TD*%
%TO.C,R20*%
G36*
G01*
X162261000Y-80116000D02*
X162261000Y-80666000D01*
G75*
G02*
X162061000Y-80866000I-200000J0D01*
G01*
X161661000Y-80866000D01*
G75*
G02*
X161461000Y-80666000I0J200000D01*
G01*
X161461000Y-80116000D01*
G75*
G02*
X161661000Y-79916000I200000J0D01*
G01*
X162061000Y-79916000D01*
G75*
G02*
X162261000Y-80116000I0J-200000D01*
G01*
G37*
G36*
G01*
X160611000Y-80116000D02*
X160611000Y-80666000D01*
G75*
G02*
X160411000Y-80866000I-200000J0D01*
G01*
X160011000Y-80866000D01*
G75*
G02*
X159811000Y-80666000I0J200000D01*
G01*
X159811000Y-80116000D01*
G75*
G02*
X160011000Y-79916000I200000J0D01*
G01*
X160411000Y-79916000D01*
G75*
G02*
X160611000Y-80116000I0J-200000D01*
G01*
G37*
%TD*%
%TO.C,R21*%
G36*
G01*
X160357000Y-65765000D02*
X160357000Y-66315000D01*
G75*
G02*
X160157000Y-66515000I-200000J0D01*
G01*
X159757000Y-66515000D01*
G75*
G02*
X159557000Y-66315000I0J200000D01*
G01*
X159557000Y-65765000D01*
G75*
G02*
X159757000Y-65565000I200000J0D01*
G01*
X160157000Y-65565000D01*
G75*
G02*
X160357000Y-65765000I0J-200000D01*
G01*
G37*
G36*
G01*
X162007000Y-65765000D02*
X162007000Y-66315000D01*
G75*
G02*
X161807000Y-66515000I-200000J0D01*
G01*
X161407000Y-66515000D01*
G75*
G02*
X161207000Y-66315000I0J200000D01*
G01*
X161207000Y-65765000D01*
G75*
G02*
X161407000Y-65565000I200000J0D01*
G01*
X161807000Y-65565000D01*
G75*
G02*
X162007000Y-65765000I0J-200000D01*
G01*
G37*
%TD*%
%TO.C,R22*%
G36*
G01*
X160230000Y-70845000D02*
X160230000Y-71395000D01*
G75*
G02*
X160030000Y-71595000I-200000J0D01*
G01*
X159630000Y-71595000D01*
G75*
G02*
X159430000Y-71395000I0J200000D01*
G01*
X159430000Y-70845000D01*
G75*
G02*
X159630000Y-70645000I200000J0D01*
G01*
X160030000Y-70645000D01*
G75*
G02*
X160230000Y-70845000I0J-200000D01*
G01*
G37*
G36*
G01*
X161880000Y-70845000D02*
X161880000Y-71395000D01*
G75*
G02*
X161680000Y-71595000I-200000J0D01*
G01*
X161280000Y-71595000D01*
G75*
G02*
X161080000Y-71395000I0J200000D01*
G01*
X161080000Y-70845000D01*
G75*
G02*
X161280000Y-70645000I200000J0D01*
G01*
X161680000Y-70645000D01*
G75*
G02*
X161880000Y-70845000I0J-200000D01*
G01*
G37*
%TD*%
%TO.C,R23*%
G36*
G01*
X173019000Y-72665000D02*
X173019000Y-72115000D01*
G75*
G02*
X173219000Y-71915000I200000J0D01*
G01*
X173619000Y-71915000D01*
G75*
G02*
X173819000Y-72115000I0J-200000D01*
G01*
X173819000Y-72665000D01*
G75*
G02*
X173619000Y-72865000I-200000J0D01*
G01*
X173219000Y-72865000D01*
G75*
G02*
X173019000Y-72665000I0J200000D01*
G01*
G37*
G36*
G01*
X174669000Y-72665000D02*
X174669000Y-72115000D01*
G75*
G02*
X174869000Y-71915000I200000J0D01*
G01*
X175269000Y-71915000D01*
G75*
G02*
X175469000Y-72115000I0J-200000D01*
G01*
X175469000Y-72665000D01*
G75*
G02*
X175269000Y-72865000I-200000J0D01*
G01*
X174869000Y-72865000D01*
G75*
G02*
X174669000Y-72665000I0J200000D01*
G01*
G37*
%TD*%
%TO.C,R24*%
G36*
G01*
X174542000Y-66315000D02*
X174542000Y-65765000D01*
G75*
G02*
X174742000Y-65565000I200000J0D01*
G01*
X175142000Y-65565000D01*
G75*
G02*
X175342000Y-65765000I0J-200000D01*
G01*
X175342000Y-66315000D01*
G75*
G02*
X175142000Y-66515000I-200000J0D01*
G01*
X174742000Y-66515000D01*
G75*
G02*
X174542000Y-66315000I0J200000D01*
G01*
G37*
G36*
G01*
X172892000Y-66315000D02*
X172892000Y-65765000D01*
G75*
G02*
X173092000Y-65565000I200000J0D01*
G01*
X173492000Y-65565000D01*
G75*
G02*
X173692000Y-65765000I0J-200000D01*
G01*
X173692000Y-66315000D01*
G75*
G02*
X173492000Y-66515000I-200000J0D01*
G01*
X173092000Y-66515000D01*
G75*
G02*
X172892000Y-66315000I0J200000D01*
G01*
G37*
%TD*%
%TO.C,R25*%
G36*
G01*
X136099000Y-91292000D02*
X136099000Y-91842000D01*
G75*
G02*
X135899000Y-92042000I-200000J0D01*
G01*
X135499000Y-92042000D01*
G75*
G02*
X135299000Y-91842000I0J200000D01*
G01*
X135299000Y-91292000D01*
G75*
G02*
X135499000Y-91092000I200000J0D01*
G01*
X135899000Y-91092000D01*
G75*
G02*
X136099000Y-91292000I0J-200000D01*
G01*
G37*
G36*
G01*
X134449000Y-91292000D02*
X134449000Y-91842000D01*
G75*
G02*
X134249000Y-92042000I-200000J0D01*
G01*
X133849000Y-92042000D01*
G75*
G02*
X133649000Y-91842000I0J200000D01*
G01*
X133649000Y-91292000D01*
G75*
G02*
X133849000Y-91092000I200000J0D01*
G01*
X134249000Y-91092000D01*
G75*
G02*
X134449000Y-91292000I0J-200000D01*
G01*
G37*
%TD*%
%TO.C,R26*%
G36*
G01*
X136099000Y-89006000D02*
X136099000Y-89556000D01*
G75*
G02*
X135899000Y-89756000I-200000J0D01*
G01*
X135499000Y-89756000D01*
G75*
G02*
X135299000Y-89556000I0J200000D01*
G01*
X135299000Y-89006000D01*
G75*
G02*
X135499000Y-88806000I200000J0D01*
G01*
X135899000Y-88806000D01*
G75*
G02*
X136099000Y-89006000I0J-200000D01*
G01*
G37*
G36*
G01*
X134449000Y-89006000D02*
X134449000Y-89556000D01*
G75*
G02*
X134249000Y-89756000I-200000J0D01*
G01*
X133849000Y-89756000D01*
G75*
G02*
X133649000Y-89556000I0J200000D01*
G01*
X133649000Y-89006000D01*
G75*
G02*
X133849000Y-88806000I200000J0D01*
G01*
X134249000Y-88806000D01*
G75*
G02*
X134449000Y-89006000I0J-200000D01*
G01*
G37*
%TD*%
%TO.C,R27*%
G36*
G01*
X120478000Y-103357000D02*
X120478000Y-103907000D01*
G75*
G02*
X120278000Y-104107000I-200000J0D01*
G01*
X119878000Y-104107000D01*
G75*
G02*
X119678000Y-103907000I0J200000D01*
G01*
X119678000Y-103357000D01*
G75*
G02*
X119878000Y-103157000I200000J0D01*
G01*
X120278000Y-103157000D01*
G75*
G02*
X120478000Y-103357000I0J-200000D01*
G01*
G37*
G36*
G01*
X118828000Y-103357000D02*
X118828000Y-103907000D01*
G75*
G02*
X118628000Y-104107000I-200000J0D01*
G01*
X118228000Y-104107000D01*
G75*
G02*
X118028000Y-103907000I0J200000D01*
G01*
X118028000Y-103357000D01*
G75*
G02*
X118228000Y-103157000I200000J0D01*
G01*
X118628000Y-103157000D01*
G75*
G02*
X118828000Y-103357000I0J-200000D01*
G01*
G37*
%TD*%
%TO.C,R28*%
G36*
G01*
X140926000Y-96245000D02*
X140926000Y-96795000D01*
G75*
G02*
X140726000Y-96995000I-200000J0D01*
G01*
X140326000Y-96995000D01*
G75*
G02*
X140126000Y-96795000I0J200000D01*
G01*
X140126000Y-96245000D01*
G75*
G02*
X140326000Y-96045000I200000J0D01*
G01*
X140726000Y-96045000D01*
G75*
G02*
X140926000Y-96245000I0J-200000D01*
G01*
G37*
G36*
G01*
X142576000Y-96245000D02*
X142576000Y-96795000D01*
G75*
G02*
X142376000Y-96995000I-200000J0D01*
G01*
X141976000Y-96995000D01*
G75*
G02*
X141776000Y-96795000I0J200000D01*
G01*
X141776000Y-96245000D01*
G75*
G02*
X141976000Y-96045000I200000J0D01*
G01*
X142376000Y-96045000D01*
G75*
G02*
X142576000Y-96245000I0J-200000D01*
G01*
G37*
%TD*%
%TO.C,R29*%
G36*
G01*
X124924000Y-108183000D02*
X124924000Y-108733000D01*
G75*
G02*
X124724000Y-108933000I-200000J0D01*
G01*
X124324000Y-108933000D01*
G75*
G02*
X124124000Y-108733000I0J200000D01*
G01*
X124124000Y-108183000D01*
G75*
G02*
X124324000Y-107983000I200000J0D01*
G01*
X124724000Y-107983000D01*
G75*
G02*
X124924000Y-108183000I0J-200000D01*
G01*
G37*
G36*
G01*
X126574000Y-108183000D02*
X126574000Y-108733000D01*
G75*
G02*
X126374000Y-108933000I-200000J0D01*
G01*
X125974000Y-108933000D01*
G75*
G02*
X125774000Y-108733000I0J200000D01*
G01*
X125774000Y-108183000D01*
G75*
G02*
X125974000Y-107983000I200000J0D01*
G01*
X126374000Y-107983000D01*
G75*
G02*
X126574000Y-108183000I0J-200000D01*
G01*
G37*
%TD*%
%TO.C,R30*%
G36*
G01*
X117266000Y-97430000D02*
X117266000Y-96880000D01*
G75*
G02*
X117466000Y-96680000I200000J0D01*
G01*
X117866000Y-96680000D01*
G75*
G02*
X118066000Y-96880000I0J-200000D01*
G01*
X118066000Y-97430000D01*
G75*
G02*
X117866000Y-97630000I-200000J0D01*
G01*
X117466000Y-97630000D01*
G75*
G02*
X117266000Y-97430000I0J200000D01*
G01*
G37*
G36*
G01*
X118916000Y-97430000D02*
X118916000Y-96880000D01*
G75*
G02*
X119116000Y-96680000I200000J0D01*
G01*
X119516000Y-96680000D01*
G75*
G02*
X119716000Y-96880000I0J-200000D01*
G01*
X119716000Y-97430000D01*
G75*
G02*
X119516000Y-97630000I-200000J0D01*
G01*
X119116000Y-97630000D01*
G75*
G02*
X118916000Y-97430000I0J200000D01*
G01*
G37*
%TD*%
%TO.C,R31*%
G36*
G01*
X113456000Y-97430000D02*
X113456000Y-96880000D01*
G75*
G02*
X113656000Y-96680000I200000J0D01*
G01*
X114056000Y-96680000D01*
G75*
G02*
X114256000Y-96880000I0J-200000D01*
G01*
X114256000Y-97430000D01*
G75*
G02*
X114056000Y-97630000I-200000J0D01*
G01*
X113656000Y-97630000D01*
G75*
G02*
X113456000Y-97430000I0J200000D01*
G01*
G37*
G36*
G01*
X115106000Y-97430000D02*
X115106000Y-96880000D01*
G75*
G02*
X115306000Y-96680000I200000J0D01*
G01*
X115706000Y-96680000D01*
G75*
G02*
X115906000Y-96880000I0J-200000D01*
G01*
X115906000Y-97430000D01*
G75*
G02*
X115706000Y-97630000I-200000J0D01*
G01*
X115306000Y-97630000D01*
G75*
G02*
X115106000Y-97430000I0J200000D01*
G01*
G37*
%TD*%
%TO.C,R32*%
G36*
G01*
X96499000Y-120060000D02*
X97049000Y-120060000D01*
G75*
G02*
X97249000Y-120260000I0J-200000D01*
G01*
X97249000Y-120660000D01*
G75*
G02*
X97049000Y-120860000I-200000J0D01*
G01*
X96499000Y-120860000D01*
G75*
G02*
X96299000Y-120660000I0J200000D01*
G01*
X96299000Y-120260000D01*
G75*
G02*
X96499000Y-120060000I200000J0D01*
G01*
G37*
G36*
G01*
X96499000Y-121710000D02*
X97049000Y-121710000D01*
G75*
G02*
X97249000Y-121910000I0J-200000D01*
G01*
X97249000Y-122310000D01*
G75*
G02*
X97049000Y-122510000I-200000J0D01*
G01*
X96499000Y-122510000D01*
G75*
G02*
X96299000Y-122310000I0J200000D01*
G01*
X96299000Y-121910000D01*
G75*
G02*
X96499000Y-121710000I200000J0D01*
G01*
G37*
%TD*%
%TO.C,R33*%
G36*
G01*
X100032000Y-110977000D02*
X100032000Y-111527000D01*
G75*
G02*
X99832000Y-111727000I-200000J0D01*
G01*
X99432000Y-111727000D01*
G75*
G02*
X99232000Y-111527000I0J200000D01*
G01*
X99232000Y-110977000D01*
G75*
G02*
X99432000Y-110777000I200000J0D01*
G01*
X99832000Y-110777000D01*
G75*
G02*
X100032000Y-110977000I0J-200000D01*
G01*
G37*
G36*
G01*
X101682000Y-110977000D02*
X101682000Y-111527000D01*
G75*
G02*
X101482000Y-111727000I-200000J0D01*
G01*
X101082000Y-111727000D01*
G75*
G02*
X100882000Y-111527000I0J200000D01*
G01*
X100882000Y-110977000D01*
G75*
G02*
X101082000Y-110777000I200000J0D01*
G01*
X101482000Y-110777000D01*
G75*
G02*
X101682000Y-110977000I0J-200000D01*
G01*
G37*
%TD*%
%TO.C,R34*%
G36*
G01*
X101682000Y-108945000D02*
X101682000Y-109495000D01*
G75*
G02*
X101482000Y-109695000I-200000J0D01*
G01*
X101082000Y-109695000D01*
G75*
G02*
X100882000Y-109495000I0J200000D01*
G01*
X100882000Y-108945000D01*
G75*
G02*
X101082000Y-108745000I200000J0D01*
G01*
X101482000Y-108745000D01*
G75*
G02*
X101682000Y-108945000I0J-200000D01*
G01*
G37*
G36*
G01*
X100032000Y-108945000D02*
X100032000Y-109495000D01*
G75*
G02*
X99832000Y-109695000I-200000J0D01*
G01*
X99432000Y-109695000D01*
G75*
G02*
X99232000Y-109495000I0J200000D01*
G01*
X99232000Y-108945000D01*
G75*
G02*
X99432000Y-108745000I200000J0D01*
G01*
X99832000Y-108745000D01*
G75*
G02*
X100032000Y-108945000I0J-200000D01*
G01*
G37*
%TD*%
%TO.C,R35*%
G36*
G01*
X98531000Y-120060000D02*
X99081000Y-120060000D01*
G75*
G02*
X99281000Y-120260000I0J-200000D01*
G01*
X99281000Y-120660000D01*
G75*
G02*
X99081000Y-120860000I-200000J0D01*
G01*
X98531000Y-120860000D01*
G75*
G02*
X98331000Y-120660000I0J200000D01*
G01*
X98331000Y-120260000D01*
G75*
G02*
X98531000Y-120060000I200000J0D01*
G01*
G37*
G36*
G01*
X98531000Y-121710000D02*
X99081000Y-121710000D01*
G75*
G02*
X99281000Y-121910000I0J-200000D01*
G01*
X99281000Y-122310000D01*
G75*
G02*
X99081000Y-122510000I-200000J0D01*
G01*
X98531000Y-122510000D01*
G75*
G02*
X98331000Y-122310000I0J200000D01*
G01*
X98331000Y-121910000D01*
G75*
G02*
X98531000Y-121710000I200000J0D01*
G01*
G37*
%TD*%
%TO.C,R36*%
G36*
G01*
X106128000Y-115676000D02*
X106128000Y-116226000D01*
G75*
G02*
X105928000Y-116426000I-200000J0D01*
G01*
X105528000Y-116426000D01*
G75*
G02*
X105328000Y-116226000I0J200000D01*
G01*
X105328000Y-115676000D01*
G75*
G02*
X105528000Y-115476000I200000J0D01*
G01*
X105928000Y-115476000D01*
G75*
G02*
X106128000Y-115676000I0J-200000D01*
G01*
G37*
G36*
G01*
X107778000Y-115676000D02*
X107778000Y-116226000D01*
G75*
G02*
X107578000Y-116426000I-200000J0D01*
G01*
X107178000Y-116426000D01*
G75*
G02*
X106978000Y-116226000I0J200000D01*
G01*
X106978000Y-115676000D01*
G75*
G02*
X107178000Y-115476000I200000J0D01*
G01*
X107578000Y-115476000D01*
G75*
G02*
X107778000Y-115676000I0J-200000D01*
G01*
G37*
%TD*%
%TO.C,R37*%
G36*
G01*
X102534000Y-100478000D02*
X102534000Y-99928000D01*
G75*
G02*
X102734000Y-99728000I200000J0D01*
G01*
X103134000Y-99728000D01*
G75*
G02*
X103334000Y-99928000I0J-200000D01*
G01*
X103334000Y-100478000D01*
G75*
G02*
X103134000Y-100678000I-200000J0D01*
G01*
X102734000Y-100678000D01*
G75*
G02*
X102534000Y-100478000I0J200000D01*
G01*
G37*
G36*
G01*
X104184000Y-100478000D02*
X104184000Y-99928000D01*
G75*
G02*
X104384000Y-99728000I200000J0D01*
G01*
X104784000Y-99728000D01*
G75*
G02*
X104984000Y-99928000I0J-200000D01*
G01*
X104984000Y-100478000D01*
G75*
G02*
X104784000Y-100678000I-200000J0D01*
G01*
X104384000Y-100678000D01*
G75*
G02*
X104184000Y-100478000I0J200000D01*
G01*
G37*
%TD*%
%TO.C,R38*%
G36*
G01*
X100755000Y-100478000D02*
X100755000Y-99928000D01*
G75*
G02*
X100955000Y-99728000I200000J0D01*
G01*
X101355000Y-99728000D01*
G75*
G02*
X101555000Y-99928000I0J-200000D01*
G01*
X101555000Y-100478000D01*
G75*
G02*
X101355000Y-100678000I-200000J0D01*
G01*
X100955000Y-100678000D01*
G75*
G02*
X100755000Y-100478000I0J200000D01*
G01*
G37*
G36*
G01*
X99105000Y-100478000D02*
X99105000Y-99928000D01*
G75*
G02*
X99305000Y-99728000I200000J0D01*
G01*
X99705000Y-99728000D01*
G75*
G02*
X99905000Y-99928000I0J-200000D01*
G01*
X99905000Y-100478000D01*
G75*
G02*
X99705000Y-100678000I-200000J0D01*
G01*
X99305000Y-100678000D01*
G75*
G02*
X99105000Y-100478000I0J200000D01*
G01*
G37*
%TD*%
%TO.C,U1*%
G36*
G01*
X66778000Y-107211000D02*
X66778000Y-106911000D01*
G75*
G02*
X66928000Y-106761000I150000J0D01*
G01*
X68578000Y-106761000D01*
G75*
G02*
X68728000Y-106911000I0J-150000D01*
G01*
X68728000Y-107211000D01*
G75*
G02*
X68578000Y-107361000I-150000J0D01*
G01*
X66928000Y-107361000D01*
G75*
G02*
X66778000Y-107211000I0J150000D01*
G01*
G37*
G36*
G01*
X66778000Y-108481000D02*
X66778000Y-108181000D01*
G75*
G02*
X66928000Y-108031000I150000J0D01*
G01*
X68578000Y-108031000D01*
G75*
G02*
X68728000Y-108181000I0J-150000D01*
G01*
X68728000Y-108481000D01*
G75*
G02*
X68578000Y-108631000I-150000J0D01*
G01*
X66928000Y-108631000D01*
G75*
G02*
X66778000Y-108481000I0J150000D01*
G01*
G37*
G36*
G01*
X66778000Y-109751000D02*
X66778000Y-109451000D01*
G75*
G02*
X66928000Y-109301000I150000J0D01*
G01*
X68578000Y-109301000D01*
G75*
G02*
X68728000Y-109451000I0J-150000D01*
G01*
X68728000Y-109751000D01*
G75*
G02*
X68578000Y-109901000I-150000J0D01*
G01*
X66928000Y-109901000D01*
G75*
G02*
X66778000Y-109751000I0J150000D01*
G01*
G37*
G36*
G01*
X66778000Y-111021000D02*
X66778000Y-110721000D01*
G75*
G02*
X66928000Y-110571000I150000J0D01*
G01*
X68578000Y-110571000D01*
G75*
G02*
X68728000Y-110721000I0J-150000D01*
G01*
X68728000Y-111021000D01*
G75*
G02*
X68578000Y-111171000I-150000J0D01*
G01*
X66928000Y-111171000D01*
G75*
G02*
X66778000Y-111021000I0J150000D01*
G01*
G37*
G36*
G01*
X66778000Y-112291000D02*
X66778000Y-111991000D01*
G75*
G02*
X66928000Y-111841000I150000J0D01*
G01*
X68578000Y-111841000D01*
G75*
G02*
X68728000Y-111991000I0J-150000D01*
G01*
X68728000Y-112291000D01*
G75*
G02*
X68578000Y-112441000I-150000J0D01*
G01*
X66928000Y-112441000D01*
G75*
G02*
X66778000Y-112291000I0J150000D01*
G01*
G37*
G36*
G01*
X66778000Y-113561000D02*
X66778000Y-113261000D01*
G75*
G02*
X66928000Y-113111000I150000J0D01*
G01*
X68578000Y-113111000D01*
G75*
G02*
X68728000Y-113261000I0J-150000D01*
G01*
X68728000Y-113561000D01*
G75*
G02*
X68578000Y-113711000I-150000J0D01*
G01*
X66928000Y-113711000D01*
G75*
G02*
X66778000Y-113561000I0J150000D01*
G01*
G37*
G36*
G01*
X66778000Y-114831000D02*
X66778000Y-114531000D01*
G75*
G02*
X66928000Y-114381000I150000J0D01*
G01*
X68578000Y-114381000D01*
G75*
G02*
X68728000Y-114531000I0J-150000D01*
G01*
X68728000Y-114831000D01*
G75*
G02*
X68578000Y-114981000I-150000J0D01*
G01*
X66928000Y-114981000D01*
G75*
G02*
X66778000Y-114831000I0J150000D01*
G01*
G37*
G36*
G01*
X66778000Y-116101000D02*
X66778000Y-115801000D01*
G75*
G02*
X66928000Y-115651000I150000J0D01*
G01*
X68578000Y-115651000D01*
G75*
G02*
X68728000Y-115801000I0J-150000D01*
G01*
X68728000Y-116101000D01*
G75*
G02*
X68578000Y-116251000I-150000J0D01*
G01*
X66928000Y-116251000D01*
G75*
G02*
X66778000Y-116101000I0J150000D01*
G01*
G37*
G36*
G01*
X61828000Y-116101000D02*
X61828000Y-115801000D01*
G75*
G02*
X61978000Y-115651000I150000J0D01*
G01*
X63628000Y-115651000D01*
G75*
G02*
X63778000Y-115801000I0J-150000D01*
G01*
X63778000Y-116101000D01*
G75*
G02*
X63628000Y-116251000I-150000J0D01*
G01*
X61978000Y-116251000D01*
G75*
G02*
X61828000Y-116101000I0J150000D01*
G01*
G37*
G36*
G01*
X61828000Y-114831000D02*
X61828000Y-114531000D01*
G75*
G02*
X61978000Y-114381000I150000J0D01*
G01*
X63628000Y-114381000D01*
G75*
G02*
X63778000Y-114531000I0J-150000D01*
G01*
X63778000Y-114831000D01*
G75*
G02*
X63628000Y-114981000I-150000J0D01*
G01*
X61978000Y-114981000D01*
G75*
G02*
X61828000Y-114831000I0J150000D01*
G01*
G37*
G36*
G01*
X61828000Y-113561000D02*
X61828000Y-113261000D01*
G75*
G02*
X61978000Y-113111000I150000J0D01*
G01*
X63628000Y-113111000D01*
G75*
G02*
X63778000Y-113261000I0J-150000D01*
G01*
X63778000Y-113561000D01*
G75*
G02*
X63628000Y-113711000I-150000J0D01*
G01*
X61978000Y-113711000D01*
G75*
G02*
X61828000Y-113561000I0J150000D01*
G01*
G37*
G36*
G01*
X61828000Y-112291000D02*
X61828000Y-111991000D01*
G75*
G02*
X61978000Y-111841000I150000J0D01*
G01*
X63628000Y-111841000D01*
G75*
G02*
X63778000Y-111991000I0J-150000D01*
G01*
X63778000Y-112291000D01*
G75*
G02*
X63628000Y-112441000I-150000J0D01*
G01*
X61978000Y-112441000D01*
G75*
G02*
X61828000Y-112291000I0J150000D01*
G01*
G37*
G36*
G01*
X61828000Y-111021000D02*
X61828000Y-110721000D01*
G75*
G02*
X61978000Y-110571000I150000J0D01*
G01*
X63628000Y-110571000D01*
G75*
G02*
X63778000Y-110721000I0J-150000D01*
G01*
X63778000Y-111021000D01*
G75*
G02*
X63628000Y-111171000I-150000J0D01*
G01*
X61978000Y-111171000D01*
G75*
G02*
X61828000Y-111021000I0J150000D01*
G01*
G37*
G36*
G01*
X61828000Y-109751000D02*
X61828000Y-109451000D01*
G75*
G02*
X61978000Y-109301000I150000J0D01*
G01*
X63628000Y-109301000D01*
G75*
G02*
X63778000Y-109451000I0J-150000D01*
G01*
X63778000Y-109751000D01*
G75*
G02*
X63628000Y-109901000I-150000J0D01*
G01*
X61978000Y-109901000D01*
G75*
G02*
X61828000Y-109751000I0J150000D01*
G01*
G37*
G36*
G01*
X61828000Y-108481000D02*
X61828000Y-108181000D01*
G75*
G02*
X61978000Y-108031000I150000J0D01*
G01*
X63628000Y-108031000D01*
G75*
G02*
X63778000Y-108181000I0J-150000D01*
G01*
X63778000Y-108481000D01*
G75*
G02*
X63628000Y-108631000I-150000J0D01*
G01*
X61978000Y-108631000D01*
G75*
G02*
X61828000Y-108481000I0J150000D01*
G01*
G37*
G36*
G01*
X61828000Y-107211000D02*
X61828000Y-106911000D01*
G75*
G02*
X61978000Y-106761000I150000J0D01*
G01*
X63628000Y-106761000D01*
G75*
G02*
X63778000Y-106911000I0J-150000D01*
G01*
X63778000Y-107211000D01*
G75*
G02*
X63628000Y-107361000I-150000J0D01*
G01*
X61978000Y-107361000D01*
G75*
G02*
X61828000Y-107211000I0J150000D01*
G01*
G37*
%TD*%
%TO.C,U3*%
G36*
G01*
X149837000Y-69194000D02*
X150137000Y-69194000D01*
G75*
G02*
X150287000Y-69344000I0J-150000D01*
G01*
X150287000Y-70994000D01*
G75*
G02*
X150137000Y-71144000I-150000J0D01*
G01*
X149837000Y-71144000D01*
G75*
G02*
X149687000Y-70994000I0J150000D01*
G01*
X149687000Y-69344000D01*
G75*
G02*
X149837000Y-69194000I150000J0D01*
G01*
G37*
G36*
G01*
X148567000Y-69194000D02*
X148867000Y-69194000D01*
G75*
G02*
X149017000Y-69344000I0J-150000D01*
G01*
X149017000Y-70994000D01*
G75*
G02*
X148867000Y-71144000I-150000J0D01*
G01*
X148567000Y-71144000D01*
G75*
G02*
X148417000Y-70994000I0J150000D01*
G01*
X148417000Y-69344000D01*
G75*
G02*
X148567000Y-69194000I150000J0D01*
G01*
G37*
G36*
G01*
X147297000Y-69194000D02*
X147597000Y-69194000D01*
G75*
G02*
X147747000Y-69344000I0J-150000D01*
G01*
X147747000Y-70994000D01*
G75*
G02*
X147597000Y-71144000I-150000J0D01*
G01*
X147297000Y-71144000D01*
G75*
G02*
X147147000Y-70994000I0J150000D01*
G01*
X147147000Y-69344000D01*
G75*
G02*
X147297000Y-69194000I150000J0D01*
G01*
G37*
G36*
G01*
X146027000Y-69194000D02*
X146327000Y-69194000D01*
G75*
G02*
X146477000Y-69344000I0J-150000D01*
G01*
X146477000Y-70994000D01*
G75*
G02*
X146327000Y-71144000I-150000J0D01*
G01*
X146027000Y-71144000D01*
G75*
G02*
X145877000Y-70994000I0J150000D01*
G01*
X145877000Y-69344000D01*
G75*
G02*
X146027000Y-69194000I150000J0D01*
G01*
G37*
G36*
G01*
X144757000Y-69194000D02*
X145057000Y-69194000D01*
G75*
G02*
X145207000Y-69344000I0J-150000D01*
G01*
X145207000Y-70994000D01*
G75*
G02*
X145057000Y-71144000I-150000J0D01*
G01*
X144757000Y-71144000D01*
G75*
G02*
X144607000Y-70994000I0J150000D01*
G01*
X144607000Y-69344000D01*
G75*
G02*
X144757000Y-69194000I150000J0D01*
G01*
G37*
G36*
G01*
X143487000Y-69194000D02*
X143787000Y-69194000D01*
G75*
G02*
X143937000Y-69344000I0J-150000D01*
G01*
X143937000Y-70994000D01*
G75*
G02*
X143787000Y-71144000I-150000J0D01*
G01*
X143487000Y-71144000D01*
G75*
G02*
X143337000Y-70994000I0J150000D01*
G01*
X143337000Y-69344000D01*
G75*
G02*
X143487000Y-69194000I150000J0D01*
G01*
G37*
G36*
G01*
X142217000Y-69194000D02*
X142517000Y-69194000D01*
G75*
G02*
X142667000Y-69344000I0J-150000D01*
G01*
X142667000Y-70994000D01*
G75*
G02*
X142517000Y-71144000I-150000J0D01*
G01*
X142217000Y-71144000D01*
G75*
G02*
X142067000Y-70994000I0J150000D01*
G01*
X142067000Y-69344000D01*
G75*
G02*
X142217000Y-69194000I150000J0D01*
G01*
G37*
G36*
G01*
X140947000Y-69194000D02*
X141247000Y-69194000D01*
G75*
G02*
X141397000Y-69344000I0J-150000D01*
G01*
X141397000Y-70994000D01*
G75*
G02*
X141247000Y-71144000I-150000J0D01*
G01*
X140947000Y-71144000D01*
G75*
G02*
X140797000Y-70994000I0J150000D01*
G01*
X140797000Y-69344000D01*
G75*
G02*
X140947000Y-69194000I150000J0D01*
G01*
G37*
G36*
G01*
X140947000Y-74144000D02*
X141247000Y-74144000D01*
G75*
G02*
X141397000Y-74294000I0J-150000D01*
G01*
X141397000Y-75944000D01*
G75*
G02*
X141247000Y-76094000I-150000J0D01*
G01*
X140947000Y-76094000D01*
G75*
G02*
X140797000Y-75944000I0J150000D01*
G01*
X140797000Y-74294000D01*
G75*
G02*
X140947000Y-74144000I150000J0D01*
G01*
G37*
G36*
G01*
X142217000Y-74144000D02*
X142517000Y-74144000D01*
G75*
G02*
X142667000Y-74294000I0J-150000D01*
G01*
X142667000Y-75944000D01*
G75*
G02*
X142517000Y-76094000I-150000J0D01*
G01*
X142217000Y-76094000D01*
G75*
G02*
X142067000Y-75944000I0J150000D01*
G01*
X142067000Y-74294000D01*
G75*
G02*
X142217000Y-74144000I150000J0D01*
G01*
G37*
G36*
G01*
X143487000Y-74144000D02*
X143787000Y-74144000D01*
G75*
G02*
X143937000Y-74294000I0J-150000D01*
G01*
X143937000Y-75944000D01*
G75*
G02*
X143787000Y-76094000I-150000J0D01*
G01*
X143487000Y-76094000D01*
G75*
G02*
X143337000Y-75944000I0J150000D01*
G01*
X143337000Y-74294000D01*
G75*
G02*
X143487000Y-74144000I150000J0D01*
G01*
G37*
G36*
G01*
X144757000Y-74144000D02*
X145057000Y-74144000D01*
G75*
G02*
X145207000Y-74294000I0J-150000D01*
G01*
X145207000Y-75944000D01*
G75*
G02*
X145057000Y-76094000I-150000J0D01*
G01*
X144757000Y-76094000D01*
G75*
G02*
X144607000Y-75944000I0J150000D01*
G01*
X144607000Y-74294000D01*
G75*
G02*
X144757000Y-74144000I150000J0D01*
G01*
G37*
G36*
G01*
X146027000Y-74144000D02*
X146327000Y-74144000D01*
G75*
G02*
X146477000Y-74294000I0J-150000D01*
G01*
X146477000Y-75944000D01*
G75*
G02*
X146327000Y-76094000I-150000J0D01*
G01*
X146027000Y-76094000D01*
G75*
G02*
X145877000Y-75944000I0J150000D01*
G01*
X145877000Y-74294000D01*
G75*
G02*
X146027000Y-74144000I150000J0D01*
G01*
G37*
G36*
G01*
X147297000Y-74144000D02*
X147597000Y-74144000D01*
G75*
G02*
X147747000Y-74294000I0J-150000D01*
G01*
X147747000Y-75944000D01*
G75*
G02*
X147597000Y-76094000I-150000J0D01*
G01*
X147297000Y-76094000D01*
G75*
G02*
X147147000Y-75944000I0J150000D01*
G01*
X147147000Y-74294000D01*
G75*
G02*
X147297000Y-74144000I150000J0D01*
G01*
G37*
G36*
G01*
X148567000Y-74144000D02*
X148867000Y-74144000D01*
G75*
G02*
X149017000Y-74294000I0J-150000D01*
G01*
X149017000Y-75944000D01*
G75*
G02*
X148867000Y-76094000I-150000J0D01*
G01*
X148567000Y-76094000D01*
G75*
G02*
X148417000Y-75944000I0J150000D01*
G01*
X148417000Y-74294000D01*
G75*
G02*
X148567000Y-74144000I150000J0D01*
G01*
G37*
G36*
G01*
X149837000Y-74144000D02*
X150137000Y-74144000D01*
G75*
G02*
X150287000Y-74294000I0J-150000D01*
G01*
X150287000Y-75944000D01*
G75*
G02*
X150137000Y-76094000I-150000J0D01*
G01*
X149837000Y-76094000D01*
G75*
G02*
X149687000Y-75944000I0J150000D01*
G01*
X149687000Y-74294000D01*
G75*
G02*
X149837000Y-74144000I150000J0D01*
G01*
G37*
%TD*%
%TO.C,U4*%
G36*
G01*
X164190000Y-100607000D02*
X164190000Y-100307000D01*
G75*
G02*
X164340000Y-100157000I150000J0D01*
G01*
X165990000Y-100157000D01*
G75*
G02*
X166140000Y-100307000I0J-150000D01*
G01*
X166140000Y-100607000D01*
G75*
G02*
X165990000Y-100757000I-150000J0D01*
G01*
X164340000Y-100757000D01*
G75*
G02*
X164190000Y-100607000I0J150000D01*
G01*
G37*
G36*
G01*
X164190000Y-101877000D02*
X164190000Y-101577000D01*
G75*
G02*
X164340000Y-101427000I150000J0D01*
G01*
X165990000Y-101427000D01*
G75*
G02*
X166140000Y-101577000I0J-150000D01*
G01*
X166140000Y-101877000D01*
G75*
G02*
X165990000Y-102027000I-150000J0D01*
G01*
X164340000Y-102027000D01*
G75*
G02*
X164190000Y-101877000I0J150000D01*
G01*
G37*
G36*
G01*
X164190000Y-103147000D02*
X164190000Y-102847000D01*
G75*
G02*
X164340000Y-102697000I150000J0D01*
G01*
X165990000Y-102697000D01*
G75*
G02*
X166140000Y-102847000I0J-150000D01*
G01*
X166140000Y-103147000D01*
G75*
G02*
X165990000Y-103297000I-150000J0D01*
G01*
X164340000Y-103297000D01*
G75*
G02*
X164190000Y-103147000I0J150000D01*
G01*
G37*
G36*
G01*
X164190000Y-104417000D02*
X164190000Y-104117000D01*
G75*
G02*
X164340000Y-103967000I150000J0D01*
G01*
X165990000Y-103967000D01*
G75*
G02*
X166140000Y-104117000I0J-150000D01*
G01*
X166140000Y-104417000D01*
G75*
G02*
X165990000Y-104567000I-150000J0D01*
G01*
X164340000Y-104567000D01*
G75*
G02*
X164190000Y-104417000I0J150000D01*
G01*
G37*
G36*
G01*
X164190000Y-105687000D02*
X164190000Y-105387000D01*
G75*
G02*
X164340000Y-105237000I150000J0D01*
G01*
X165990000Y-105237000D01*
G75*
G02*
X166140000Y-105387000I0J-150000D01*
G01*
X166140000Y-105687000D01*
G75*
G02*
X165990000Y-105837000I-150000J0D01*
G01*
X164340000Y-105837000D01*
G75*
G02*
X164190000Y-105687000I0J150000D01*
G01*
G37*
G36*
G01*
X164190000Y-106957000D02*
X164190000Y-106657000D01*
G75*
G02*
X164340000Y-106507000I150000J0D01*
G01*
X165990000Y-106507000D01*
G75*
G02*
X166140000Y-106657000I0J-150000D01*
G01*
X166140000Y-106957000D01*
G75*
G02*
X165990000Y-107107000I-150000J0D01*
G01*
X164340000Y-107107000D01*
G75*
G02*
X164190000Y-106957000I0J150000D01*
G01*
G37*
G36*
G01*
X164190000Y-108227000D02*
X164190000Y-107927000D01*
G75*
G02*
X164340000Y-107777000I150000J0D01*
G01*
X165990000Y-107777000D01*
G75*
G02*
X166140000Y-107927000I0J-150000D01*
G01*
X166140000Y-108227000D01*
G75*
G02*
X165990000Y-108377000I-150000J0D01*
G01*
X164340000Y-108377000D01*
G75*
G02*
X164190000Y-108227000I0J150000D01*
G01*
G37*
G36*
G01*
X164190000Y-109497000D02*
X164190000Y-109197000D01*
G75*
G02*
X164340000Y-109047000I150000J0D01*
G01*
X165990000Y-109047000D01*
G75*
G02*
X166140000Y-109197000I0J-150000D01*
G01*
X166140000Y-109497000D01*
G75*
G02*
X165990000Y-109647000I-150000J0D01*
G01*
X164340000Y-109647000D01*
G75*
G02*
X164190000Y-109497000I0J150000D01*
G01*
G37*
G36*
G01*
X169140000Y-109497000D02*
X169140000Y-109197000D01*
G75*
G02*
X169290000Y-109047000I150000J0D01*
G01*
X170940000Y-109047000D01*
G75*
G02*
X171090000Y-109197000I0J-150000D01*
G01*
X171090000Y-109497000D01*
G75*
G02*
X170940000Y-109647000I-150000J0D01*
G01*
X169290000Y-109647000D01*
G75*
G02*
X169140000Y-109497000I0J150000D01*
G01*
G37*
G36*
G01*
X169140000Y-108227000D02*
X169140000Y-107927000D01*
G75*
G02*
X169290000Y-107777000I150000J0D01*
G01*
X170940000Y-107777000D01*
G75*
G02*
X171090000Y-107927000I0J-150000D01*
G01*
X171090000Y-108227000D01*
G75*
G02*
X170940000Y-108377000I-150000J0D01*
G01*
X169290000Y-108377000D01*
G75*
G02*
X169140000Y-108227000I0J150000D01*
G01*
G37*
G36*
G01*
X169140000Y-106957000D02*
X169140000Y-106657000D01*
G75*
G02*
X169290000Y-106507000I150000J0D01*
G01*
X170940000Y-106507000D01*
G75*
G02*
X171090000Y-106657000I0J-150000D01*
G01*
X171090000Y-106957000D01*
G75*
G02*
X170940000Y-107107000I-150000J0D01*
G01*
X169290000Y-107107000D01*
G75*
G02*
X169140000Y-106957000I0J150000D01*
G01*
G37*
G36*
G01*
X169140000Y-105687000D02*
X169140000Y-105387000D01*
G75*
G02*
X169290000Y-105237000I150000J0D01*
G01*
X170940000Y-105237000D01*
G75*
G02*
X171090000Y-105387000I0J-150000D01*
G01*
X171090000Y-105687000D01*
G75*
G02*
X170940000Y-105837000I-150000J0D01*
G01*
X169290000Y-105837000D01*
G75*
G02*
X169140000Y-105687000I0J150000D01*
G01*
G37*
G36*
G01*
X169140000Y-104417000D02*
X169140000Y-104117000D01*
G75*
G02*
X169290000Y-103967000I150000J0D01*
G01*
X170940000Y-103967000D01*
G75*
G02*
X171090000Y-104117000I0J-150000D01*
G01*
X171090000Y-104417000D01*
G75*
G02*
X170940000Y-104567000I-150000J0D01*
G01*
X169290000Y-104567000D01*
G75*
G02*
X169140000Y-104417000I0J150000D01*
G01*
G37*
G36*
G01*
X169140000Y-103147000D02*
X169140000Y-102847000D01*
G75*
G02*
X169290000Y-102697000I150000J0D01*
G01*
X170940000Y-102697000D01*
G75*
G02*
X171090000Y-102847000I0J-150000D01*
G01*
X171090000Y-103147000D01*
G75*
G02*
X170940000Y-103297000I-150000J0D01*
G01*
X169290000Y-103297000D01*
G75*
G02*
X169140000Y-103147000I0J150000D01*
G01*
G37*
G36*
G01*
X169140000Y-101877000D02*
X169140000Y-101577000D01*
G75*
G02*
X169290000Y-101427000I150000J0D01*
G01*
X170940000Y-101427000D01*
G75*
G02*
X171090000Y-101577000I0J-150000D01*
G01*
X171090000Y-101877000D01*
G75*
G02*
X170940000Y-102027000I-150000J0D01*
G01*
X169290000Y-102027000D01*
G75*
G02*
X169140000Y-101877000I0J150000D01*
G01*
G37*
G36*
G01*
X169140000Y-100607000D02*
X169140000Y-100307000D01*
G75*
G02*
X169290000Y-100157000I150000J0D01*
G01*
X170940000Y-100157000D01*
G75*
G02*
X171090000Y-100307000I0J-150000D01*
G01*
X171090000Y-100607000D01*
G75*
G02*
X170940000Y-100757000I-150000J0D01*
G01*
X169290000Y-100757000D01*
G75*
G02*
X169140000Y-100607000I0J150000D01*
G01*
G37*
%TD*%
%TO.C,U5*%
G36*
G01*
X163809000Y-64920000D02*
X163809000Y-64620000D01*
G75*
G02*
X163959000Y-64470000I150000J0D01*
G01*
X165609000Y-64470000D01*
G75*
G02*
X165759000Y-64620000I0J-150000D01*
G01*
X165759000Y-64920000D01*
G75*
G02*
X165609000Y-65070000I-150000J0D01*
G01*
X163959000Y-65070000D01*
G75*
G02*
X163809000Y-64920000I0J150000D01*
G01*
G37*
G36*
G01*
X163809000Y-66190000D02*
X163809000Y-65890000D01*
G75*
G02*
X163959000Y-65740000I150000J0D01*
G01*
X165609000Y-65740000D01*
G75*
G02*
X165759000Y-65890000I0J-150000D01*
G01*
X165759000Y-66190000D01*
G75*
G02*
X165609000Y-66340000I-150000J0D01*
G01*
X163959000Y-66340000D01*
G75*
G02*
X163809000Y-66190000I0J150000D01*
G01*
G37*
G36*
G01*
X163809000Y-67460000D02*
X163809000Y-67160000D01*
G75*
G02*
X163959000Y-67010000I150000J0D01*
G01*
X165609000Y-67010000D01*
G75*
G02*
X165759000Y-67160000I0J-150000D01*
G01*
X165759000Y-67460000D01*
G75*
G02*
X165609000Y-67610000I-150000J0D01*
G01*
X163959000Y-67610000D01*
G75*
G02*
X163809000Y-67460000I0J150000D01*
G01*
G37*
G36*
G01*
X163809000Y-68730000D02*
X163809000Y-68430000D01*
G75*
G02*
X163959000Y-68280000I150000J0D01*
G01*
X165609000Y-68280000D01*
G75*
G02*
X165759000Y-68430000I0J-150000D01*
G01*
X165759000Y-68730000D01*
G75*
G02*
X165609000Y-68880000I-150000J0D01*
G01*
X163959000Y-68880000D01*
G75*
G02*
X163809000Y-68730000I0J150000D01*
G01*
G37*
G36*
G01*
X163809000Y-70000000D02*
X163809000Y-69700000D01*
G75*
G02*
X163959000Y-69550000I150000J0D01*
G01*
X165609000Y-69550000D01*
G75*
G02*
X165759000Y-69700000I0J-150000D01*
G01*
X165759000Y-70000000D01*
G75*
G02*
X165609000Y-70150000I-150000J0D01*
G01*
X163959000Y-70150000D01*
G75*
G02*
X163809000Y-70000000I0J150000D01*
G01*
G37*
G36*
G01*
X163809000Y-71270000D02*
X163809000Y-70970000D01*
G75*
G02*
X163959000Y-70820000I150000J0D01*
G01*
X165609000Y-70820000D01*
G75*
G02*
X165759000Y-70970000I0J-150000D01*
G01*
X165759000Y-71270000D01*
G75*
G02*
X165609000Y-71420000I-150000J0D01*
G01*
X163959000Y-71420000D01*
G75*
G02*
X163809000Y-71270000I0J150000D01*
G01*
G37*
G36*
G01*
X163809000Y-72540000D02*
X163809000Y-72240000D01*
G75*
G02*
X163959000Y-72090000I150000J0D01*
G01*
X165609000Y-72090000D01*
G75*
G02*
X165759000Y-72240000I0J-150000D01*
G01*
X165759000Y-72540000D01*
G75*
G02*
X165609000Y-72690000I-150000J0D01*
G01*
X163959000Y-72690000D01*
G75*
G02*
X163809000Y-72540000I0J150000D01*
G01*
G37*
G36*
G01*
X163809000Y-73810000D02*
X163809000Y-73510000D01*
G75*
G02*
X163959000Y-73360000I150000J0D01*
G01*
X165609000Y-73360000D01*
G75*
G02*
X165759000Y-73510000I0J-150000D01*
G01*
X165759000Y-73810000D01*
G75*
G02*
X165609000Y-73960000I-150000J0D01*
G01*
X163959000Y-73960000D01*
G75*
G02*
X163809000Y-73810000I0J150000D01*
G01*
G37*
G36*
G01*
X168759000Y-73810000D02*
X168759000Y-73510000D01*
G75*
G02*
X168909000Y-73360000I150000J0D01*
G01*
X170559000Y-73360000D01*
G75*
G02*
X170709000Y-73510000I0J-150000D01*
G01*
X170709000Y-73810000D01*
G75*
G02*
X170559000Y-73960000I-150000J0D01*
G01*
X168909000Y-73960000D01*
G75*
G02*
X168759000Y-73810000I0J150000D01*
G01*
G37*
G36*
G01*
X168759000Y-72540000D02*
X168759000Y-72240000D01*
G75*
G02*
X168909000Y-72090000I150000J0D01*
G01*
X170559000Y-72090000D01*
G75*
G02*
X170709000Y-72240000I0J-150000D01*
G01*
X170709000Y-72540000D01*
G75*
G02*
X170559000Y-72690000I-150000J0D01*
G01*
X168909000Y-72690000D01*
G75*
G02*
X168759000Y-72540000I0J150000D01*
G01*
G37*
G36*
G01*
X168759000Y-71270000D02*
X168759000Y-70970000D01*
G75*
G02*
X168909000Y-70820000I150000J0D01*
G01*
X170559000Y-70820000D01*
G75*
G02*
X170709000Y-70970000I0J-150000D01*
G01*
X170709000Y-71270000D01*
G75*
G02*
X170559000Y-71420000I-150000J0D01*
G01*
X168909000Y-71420000D01*
G75*
G02*
X168759000Y-71270000I0J150000D01*
G01*
G37*
G36*
G01*
X168759000Y-70000000D02*
X168759000Y-69700000D01*
G75*
G02*
X168909000Y-69550000I150000J0D01*
G01*
X170559000Y-69550000D01*
G75*
G02*
X170709000Y-69700000I0J-150000D01*
G01*
X170709000Y-70000000D01*
G75*
G02*
X170559000Y-70150000I-150000J0D01*
G01*
X168909000Y-70150000D01*
G75*
G02*
X168759000Y-70000000I0J150000D01*
G01*
G37*
G36*
G01*
X168759000Y-68730000D02*
X168759000Y-68430000D01*
G75*
G02*
X168909000Y-68280000I150000J0D01*
G01*
X170559000Y-68280000D01*
G75*
G02*
X170709000Y-68430000I0J-150000D01*
G01*
X170709000Y-68730000D01*
G75*
G02*
X170559000Y-68880000I-150000J0D01*
G01*
X168909000Y-68880000D01*
G75*
G02*
X168759000Y-68730000I0J150000D01*
G01*
G37*
G36*
G01*
X168759000Y-67460000D02*
X168759000Y-67160000D01*
G75*
G02*
X168909000Y-67010000I150000J0D01*
G01*
X170559000Y-67010000D01*
G75*
G02*
X170709000Y-67160000I0J-150000D01*
G01*
X170709000Y-67460000D01*
G75*
G02*
X170559000Y-67610000I-150000J0D01*
G01*
X168909000Y-67610000D01*
G75*
G02*
X168759000Y-67460000I0J150000D01*
G01*
G37*
G36*
G01*
X168759000Y-66190000D02*
X168759000Y-65890000D01*
G75*
G02*
X168909000Y-65740000I150000J0D01*
G01*
X170559000Y-65740000D01*
G75*
G02*
X170709000Y-65890000I0J-150000D01*
G01*
X170709000Y-66190000D01*
G75*
G02*
X170559000Y-66340000I-150000J0D01*
G01*
X168909000Y-66340000D01*
G75*
G02*
X168759000Y-66190000I0J150000D01*
G01*
G37*
G36*
G01*
X168759000Y-64920000D02*
X168759000Y-64620000D01*
G75*
G02*
X168909000Y-64470000I150000J0D01*
G01*
X170559000Y-64470000D01*
G75*
G02*
X170709000Y-64620000I0J-150000D01*
G01*
X170709000Y-64920000D01*
G75*
G02*
X170559000Y-65070000I-150000J0D01*
G01*
X168909000Y-65070000D01*
G75*
G02*
X168759000Y-64920000I0J150000D01*
G01*
G37*
%TD*%
%TO.C,U7*%
G36*
G01*
X152249000Y-114831000D02*
X152249000Y-114531000D01*
G75*
G02*
X152399000Y-114381000I150000J0D01*
G01*
X154049000Y-114381000D01*
G75*
G02*
X154199000Y-114531000I0J-150000D01*
G01*
X154199000Y-114831000D01*
G75*
G02*
X154049000Y-114981000I-150000J0D01*
G01*
X152399000Y-114981000D01*
G75*
G02*
X152249000Y-114831000I0J150000D01*
G01*
G37*
G36*
G01*
X152249000Y-116101000D02*
X152249000Y-115801000D01*
G75*
G02*
X152399000Y-115651000I150000J0D01*
G01*
X154049000Y-115651000D01*
G75*
G02*
X154199000Y-115801000I0J-150000D01*
G01*
X154199000Y-116101000D01*
G75*
G02*
X154049000Y-116251000I-150000J0D01*
G01*
X152399000Y-116251000D01*
G75*
G02*
X152249000Y-116101000I0J150000D01*
G01*
G37*
G36*
G01*
X152249000Y-117371000D02*
X152249000Y-117071000D01*
G75*
G02*
X152399000Y-116921000I150000J0D01*
G01*
X154049000Y-116921000D01*
G75*
G02*
X154199000Y-117071000I0J-150000D01*
G01*
X154199000Y-117371000D01*
G75*
G02*
X154049000Y-117521000I-150000J0D01*
G01*
X152399000Y-117521000D01*
G75*
G02*
X152249000Y-117371000I0J150000D01*
G01*
G37*
G36*
G01*
X152249000Y-118641000D02*
X152249000Y-118341000D01*
G75*
G02*
X152399000Y-118191000I150000J0D01*
G01*
X154049000Y-118191000D01*
G75*
G02*
X154199000Y-118341000I0J-150000D01*
G01*
X154199000Y-118641000D01*
G75*
G02*
X154049000Y-118791000I-150000J0D01*
G01*
X152399000Y-118791000D01*
G75*
G02*
X152249000Y-118641000I0J150000D01*
G01*
G37*
G36*
G01*
X152249000Y-119911000D02*
X152249000Y-119611000D01*
G75*
G02*
X152399000Y-119461000I150000J0D01*
G01*
X154049000Y-119461000D01*
G75*
G02*
X154199000Y-119611000I0J-150000D01*
G01*
X154199000Y-119911000D01*
G75*
G02*
X154049000Y-120061000I-150000J0D01*
G01*
X152399000Y-120061000D01*
G75*
G02*
X152249000Y-119911000I0J150000D01*
G01*
G37*
G36*
G01*
X152249000Y-121181000D02*
X152249000Y-120881000D01*
G75*
G02*
X152399000Y-120731000I150000J0D01*
G01*
X154049000Y-120731000D01*
G75*
G02*
X154199000Y-120881000I0J-150000D01*
G01*
X154199000Y-121181000D01*
G75*
G02*
X154049000Y-121331000I-150000J0D01*
G01*
X152399000Y-121331000D01*
G75*
G02*
X152249000Y-121181000I0J150000D01*
G01*
G37*
G36*
G01*
X152249000Y-122451000D02*
X152249000Y-122151000D01*
G75*
G02*
X152399000Y-122001000I150000J0D01*
G01*
X154049000Y-122001000D01*
G75*
G02*
X154199000Y-122151000I0J-150000D01*
G01*
X154199000Y-122451000D01*
G75*
G02*
X154049000Y-122601000I-150000J0D01*
G01*
X152399000Y-122601000D01*
G75*
G02*
X152249000Y-122451000I0J150000D01*
G01*
G37*
G36*
G01*
X152249000Y-123721000D02*
X152249000Y-123421000D01*
G75*
G02*
X152399000Y-123271000I150000J0D01*
G01*
X154049000Y-123271000D01*
G75*
G02*
X154199000Y-123421000I0J-150000D01*
G01*
X154199000Y-123721000D01*
G75*
G02*
X154049000Y-123871000I-150000J0D01*
G01*
X152399000Y-123871000D01*
G75*
G02*
X152249000Y-123721000I0J150000D01*
G01*
G37*
G36*
G01*
X147299000Y-123721000D02*
X147299000Y-123421000D01*
G75*
G02*
X147449000Y-123271000I150000J0D01*
G01*
X149099000Y-123271000D01*
G75*
G02*
X149249000Y-123421000I0J-150000D01*
G01*
X149249000Y-123721000D01*
G75*
G02*
X149099000Y-123871000I-150000J0D01*
G01*
X147449000Y-123871000D01*
G75*
G02*
X147299000Y-123721000I0J150000D01*
G01*
G37*
G36*
G01*
X147299000Y-122451000D02*
X147299000Y-122151000D01*
G75*
G02*
X147449000Y-122001000I150000J0D01*
G01*
X149099000Y-122001000D01*
G75*
G02*
X149249000Y-122151000I0J-150000D01*
G01*
X149249000Y-122451000D01*
G75*
G02*
X149099000Y-122601000I-150000J0D01*
G01*
X147449000Y-122601000D01*
G75*
G02*
X147299000Y-122451000I0J150000D01*
G01*
G37*
G36*
G01*
X147299000Y-121181000D02*
X147299000Y-120881000D01*
G75*
G02*
X147449000Y-120731000I150000J0D01*
G01*
X149099000Y-120731000D01*
G75*
G02*
X149249000Y-120881000I0J-150000D01*
G01*
X149249000Y-121181000D01*
G75*
G02*
X149099000Y-121331000I-150000J0D01*
G01*
X147449000Y-121331000D01*
G75*
G02*
X147299000Y-121181000I0J150000D01*
G01*
G37*
G36*
G01*
X147299000Y-119911000D02*
X147299000Y-119611000D01*
G75*
G02*
X147449000Y-119461000I150000J0D01*
G01*
X149099000Y-119461000D01*
G75*
G02*
X149249000Y-119611000I0J-150000D01*
G01*
X149249000Y-119911000D01*
G75*
G02*
X149099000Y-120061000I-150000J0D01*
G01*
X147449000Y-120061000D01*
G75*
G02*
X147299000Y-119911000I0J150000D01*
G01*
G37*
G36*
G01*
X147299000Y-118641000D02*
X147299000Y-118341000D01*
G75*
G02*
X147449000Y-118191000I150000J0D01*
G01*
X149099000Y-118191000D01*
G75*
G02*
X149249000Y-118341000I0J-150000D01*
G01*
X149249000Y-118641000D01*
G75*
G02*
X149099000Y-118791000I-150000J0D01*
G01*
X147449000Y-118791000D01*
G75*
G02*
X147299000Y-118641000I0J150000D01*
G01*
G37*
G36*
G01*
X147299000Y-117371000D02*
X147299000Y-117071000D01*
G75*
G02*
X147449000Y-116921000I150000J0D01*
G01*
X149099000Y-116921000D01*
G75*
G02*
X149249000Y-117071000I0J-150000D01*
G01*
X149249000Y-117371000D01*
G75*
G02*
X149099000Y-117521000I-150000J0D01*
G01*
X147449000Y-117521000D01*
G75*
G02*
X147299000Y-117371000I0J150000D01*
G01*
G37*
G36*
G01*
X147299000Y-116101000D02*
X147299000Y-115801000D01*
G75*
G02*
X147449000Y-115651000I150000J0D01*
G01*
X149099000Y-115651000D01*
G75*
G02*
X149249000Y-115801000I0J-150000D01*
G01*
X149249000Y-116101000D01*
G75*
G02*
X149099000Y-116251000I-150000J0D01*
G01*
X147449000Y-116251000D01*
G75*
G02*
X147299000Y-116101000I0J150000D01*
G01*
G37*
G36*
G01*
X147299000Y-114831000D02*
X147299000Y-114531000D01*
G75*
G02*
X147449000Y-114381000I150000J0D01*
G01*
X149099000Y-114381000D01*
G75*
G02*
X149249000Y-114531000I0J-150000D01*
G01*
X149249000Y-114831000D01*
G75*
G02*
X149099000Y-114981000I-150000J0D01*
G01*
X147449000Y-114981000D01*
G75*
G02*
X147299000Y-114831000I0J150000D01*
G01*
G37*
%TD*%
%TO.C,U8*%
G36*
G01*
X121772000Y-114831000D02*
X121772000Y-114531000D01*
G75*
G02*
X121922000Y-114381000I150000J0D01*
G01*
X123572000Y-114381000D01*
G75*
G02*
X123722000Y-114531000I0J-150000D01*
G01*
X123722000Y-114831000D01*
G75*
G02*
X123572000Y-114981000I-150000J0D01*
G01*
X121922000Y-114981000D01*
G75*
G02*
X121772000Y-114831000I0J150000D01*
G01*
G37*
G36*
G01*
X121772000Y-116101000D02*
X121772000Y-115801000D01*
G75*
G02*
X121922000Y-115651000I150000J0D01*
G01*
X123572000Y-115651000D01*
G75*
G02*
X123722000Y-115801000I0J-150000D01*
G01*
X123722000Y-116101000D01*
G75*
G02*
X123572000Y-116251000I-150000J0D01*
G01*
X121922000Y-116251000D01*
G75*
G02*
X121772000Y-116101000I0J150000D01*
G01*
G37*
G36*
G01*
X121772000Y-117371000D02*
X121772000Y-117071000D01*
G75*
G02*
X121922000Y-116921000I150000J0D01*
G01*
X123572000Y-116921000D01*
G75*
G02*
X123722000Y-117071000I0J-150000D01*
G01*
X123722000Y-117371000D01*
G75*
G02*
X123572000Y-117521000I-150000J0D01*
G01*
X121922000Y-117521000D01*
G75*
G02*
X121772000Y-117371000I0J150000D01*
G01*
G37*
G36*
G01*
X121772000Y-118641000D02*
X121772000Y-118341000D01*
G75*
G02*
X121922000Y-118191000I150000J0D01*
G01*
X123572000Y-118191000D01*
G75*
G02*
X123722000Y-118341000I0J-150000D01*
G01*
X123722000Y-118641000D01*
G75*
G02*
X123572000Y-118791000I-150000J0D01*
G01*
X121922000Y-118791000D01*
G75*
G02*
X121772000Y-118641000I0J150000D01*
G01*
G37*
G36*
G01*
X121772000Y-119911000D02*
X121772000Y-119611000D01*
G75*
G02*
X121922000Y-119461000I150000J0D01*
G01*
X123572000Y-119461000D01*
G75*
G02*
X123722000Y-119611000I0J-150000D01*
G01*
X123722000Y-119911000D01*
G75*
G02*
X123572000Y-120061000I-150000J0D01*
G01*
X121922000Y-120061000D01*
G75*
G02*
X121772000Y-119911000I0J150000D01*
G01*
G37*
G36*
G01*
X121772000Y-121181000D02*
X121772000Y-120881000D01*
G75*
G02*
X121922000Y-120731000I150000J0D01*
G01*
X123572000Y-120731000D01*
G75*
G02*
X123722000Y-120881000I0J-150000D01*
G01*
X123722000Y-121181000D01*
G75*
G02*
X123572000Y-121331000I-150000J0D01*
G01*
X121922000Y-121331000D01*
G75*
G02*
X121772000Y-121181000I0J150000D01*
G01*
G37*
G36*
G01*
X121772000Y-122451000D02*
X121772000Y-122151000D01*
G75*
G02*
X121922000Y-122001000I150000J0D01*
G01*
X123572000Y-122001000D01*
G75*
G02*
X123722000Y-122151000I0J-150000D01*
G01*
X123722000Y-122451000D01*
G75*
G02*
X123572000Y-122601000I-150000J0D01*
G01*
X121922000Y-122601000D01*
G75*
G02*
X121772000Y-122451000I0J150000D01*
G01*
G37*
G36*
G01*
X121772000Y-123721000D02*
X121772000Y-123421000D01*
G75*
G02*
X121922000Y-123271000I150000J0D01*
G01*
X123572000Y-123271000D01*
G75*
G02*
X123722000Y-123421000I0J-150000D01*
G01*
X123722000Y-123721000D01*
G75*
G02*
X123572000Y-123871000I-150000J0D01*
G01*
X121922000Y-123871000D01*
G75*
G02*
X121772000Y-123721000I0J150000D01*
G01*
G37*
G36*
G01*
X126722000Y-123721000D02*
X126722000Y-123421000D01*
G75*
G02*
X126872000Y-123271000I150000J0D01*
G01*
X128522000Y-123271000D01*
G75*
G02*
X128672000Y-123421000I0J-150000D01*
G01*
X128672000Y-123721000D01*
G75*
G02*
X128522000Y-123871000I-150000J0D01*
G01*
X126872000Y-123871000D01*
G75*
G02*
X126722000Y-123721000I0J150000D01*
G01*
G37*
G36*
G01*
X126722000Y-122451000D02*
X126722000Y-122151000D01*
G75*
G02*
X126872000Y-122001000I150000J0D01*
G01*
X128522000Y-122001000D01*
G75*
G02*
X128672000Y-122151000I0J-150000D01*
G01*
X128672000Y-122451000D01*
G75*
G02*
X128522000Y-122601000I-150000J0D01*
G01*
X126872000Y-122601000D01*
G75*
G02*
X126722000Y-122451000I0J150000D01*
G01*
G37*
G36*
G01*
X126722000Y-121181000D02*
X126722000Y-120881000D01*
G75*
G02*
X126872000Y-120731000I150000J0D01*
G01*
X128522000Y-120731000D01*
G75*
G02*
X128672000Y-120881000I0J-150000D01*
G01*
X128672000Y-121181000D01*
G75*
G02*
X128522000Y-121331000I-150000J0D01*
G01*
X126872000Y-121331000D01*
G75*
G02*
X126722000Y-121181000I0J150000D01*
G01*
G37*
G36*
G01*
X126722000Y-119911000D02*
X126722000Y-119611000D01*
G75*
G02*
X126872000Y-119461000I150000J0D01*
G01*
X128522000Y-119461000D01*
G75*
G02*
X128672000Y-119611000I0J-150000D01*
G01*
X128672000Y-119911000D01*
G75*
G02*
X128522000Y-120061000I-150000J0D01*
G01*
X126872000Y-120061000D01*
G75*
G02*
X126722000Y-119911000I0J150000D01*
G01*
G37*
G36*
G01*
X126722000Y-118641000D02*
X126722000Y-118341000D01*
G75*
G02*
X126872000Y-118191000I150000J0D01*
G01*
X128522000Y-118191000D01*
G75*
G02*
X128672000Y-118341000I0J-150000D01*
G01*
X128672000Y-118641000D01*
G75*
G02*
X128522000Y-118791000I-150000J0D01*
G01*
X126872000Y-118791000D01*
G75*
G02*
X126722000Y-118641000I0J150000D01*
G01*
G37*
G36*
G01*
X126722000Y-117371000D02*
X126722000Y-117071000D01*
G75*
G02*
X126872000Y-116921000I150000J0D01*
G01*
X128522000Y-116921000D01*
G75*
G02*
X128672000Y-117071000I0J-150000D01*
G01*
X128672000Y-117371000D01*
G75*
G02*
X128522000Y-117521000I-150000J0D01*
G01*
X126872000Y-117521000D01*
G75*
G02*
X126722000Y-117371000I0J150000D01*
G01*
G37*
G36*
G01*
X126722000Y-116101000D02*
X126722000Y-115801000D01*
G75*
G02*
X126872000Y-115651000I150000J0D01*
G01*
X128522000Y-115651000D01*
G75*
G02*
X128672000Y-115801000I0J-150000D01*
G01*
X128672000Y-116101000D01*
G75*
G02*
X128522000Y-116251000I-150000J0D01*
G01*
X126872000Y-116251000D01*
G75*
G02*
X126722000Y-116101000I0J150000D01*
G01*
G37*
G36*
G01*
X126722000Y-114831000D02*
X126722000Y-114531000D01*
G75*
G02*
X126872000Y-114381000I150000J0D01*
G01*
X128522000Y-114381000D01*
G75*
G02*
X128672000Y-114531000I0J-150000D01*
G01*
X128672000Y-114831000D01*
G75*
G02*
X128522000Y-114981000I-150000J0D01*
G01*
X126872000Y-114981000D01*
G75*
G02*
X126722000Y-114831000I0J150000D01*
G01*
G37*
%TD*%
%TO.C,U9*%
G36*
G01*
X147426000Y-102639000D02*
X147426000Y-102339000D01*
G75*
G02*
X147576000Y-102189000I150000J0D01*
G01*
X149226000Y-102189000D01*
G75*
G02*
X149376000Y-102339000I0J-150000D01*
G01*
X149376000Y-102639000D01*
G75*
G02*
X149226000Y-102789000I-150000J0D01*
G01*
X147576000Y-102789000D01*
G75*
G02*
X147426000Y-102639000I0J150000D01*
G01*
G37*
G36*
G01*
X147426000Y-103909000D02*
X147426000Y-103609000D01*
G75*
G02*
X147576000Y-103459000I150000J0D01*
G01*
X149226000Y-103459000D01*
G75*
G02*
X149376000Y-103609000I0J-150000D01*
G01*
X149376000Y-103909000D01*
G75*
G02*
X149226000Y-104059000I-150000J0D01*
G01*
X147576000Y-104059000D01*
G75*
G02*
X147426000Y-103909000I0J150000D01*
G01*
G37*
G36*
G01*
X147426000Y-105179000D02*
X147426000Y-104879000D01*
G75*
G02*
X147576000Y-104729000I150000J0D01*
G01*
X149226000Y-104729000D01*
G75*
G02*
X149376000Y-104879000I0J-150000D01*
G01*
X149376000Y-105179000D01*
G75*
G02*
X149226000Y-105329000I-150000J0D01*
G01*
X147576000Y-105329000D01*
G75*
G02*
X147426000Y-105179000I0J150000D01*
G01*
G37*
G36*
G01*
X147426000Y-106449000D02*
X147426000Y-106149000D01*
G75*
G02*
X147576000Y-105999000I150000J0D01*
G01*
X149226000Y-105999000D01*
G75*
G02*
X149376000Y-106149000I0J-150000D01*
G01*
X149376000Y-106449000D01*
G75*
G02*
X149226000Y-106599000I-150000J0D01*
G01*
X147576000Y-106599000D01*
G75*
G02*
X147426000Y-106449000I0J150000D01*
G01*
G37*
G36*
G01*
X152376000Y-106449000D02*
X152376000Y-106149000D01*
G75*
G02*
X152526000Y-105999000I150000J0D01*
G01*
X154176000Y-105999000D01*
G75*
G02*
X154326000Y-106149000I0J-150000D01*
G01*
X154326000Y-106449000D01*
G75*
G02*
X154176000Y-106599000I-150000J0D01*
G01*
X152526000Y-106599000D01*
G75*
G02*
X152376000Y-106449000I0J150000D01*
G01*
G37*
G36*
G01*
X152376000Y-105179000D02*
X152376000Y-104879000D01*
G75*
G02*
X152526000Y-104729000I150000J0D01*
G01*
X154176000Y-104729000D01*
G75*
G02*
X154326000Y-104879000I0J-150000D01*
G01*
X154326000Y-105179000D01*
G75*
G02*
X154176000Y-105329000I-150000J0D01*
G01*
X152526000Y-105329000D01*
G75*
G02*
X152376000Y-105179000I0J150000D01*
G01*
G37*
G36*
G01*
X152376000Y-103909000D02*
X152376000Y-103609000D01*
G75*
G02*
X152526000Y-103459000I150000J0D01*
G01*
X154176000Y-103459000D01*
G75*
G02*
X154326000Y-103609000I0J-150000D01*
G01*
X154326000Y-103909000D01*
G75*
G02*
X154176000Y-104059000I-150000J0D01*
G01*
X152526000Y-104059000D01*
G75*
G02*
X152376000Y-103909000I0J150000D01*
G01*
G37*
G36*
G01*
X152376000Y-102639000D02*
X152376000Y-102339000D01*
G75*
G02*
X152526000Y-102189000I150000J0D01*
G01*
X154176000Y-102189000D01*
G75*
G02*
X154326000Y-102339000I0J-150000D01*
G01*
X154326000Y-102639000D01*
G75*
G02*
X154176000Y-102789000I-150000J0D01*
G01*
X152526000Y-102789000D01*
G75*
G02*
X152376000Y-102639000I0J150000D01*
G01*
G37*
%TD*%
D11*
%TO.C,U10*%
X85868000Y-68199000D03*
X87868000Y-67249000D03*
X87868000Y-69149000D03*
%TD*%
%TO.C,U12*%
G36*
G01*
X105005000Y-65047000D02*
X105005000Y-64747000D01*
G75*
G02*
X105155000Y-64597000I150000J0D01*
G01*
X106805000Y-64597000D01*
G75*
G02*
X106955000Y-64747000I0J-150000D01*
G01*
X106955000Y-65047000D01*
G75*
G02*
X106805000Y-65197000I-150000J0D01*
G01*
X105155000Y-65197000D01*
G75*
G02*
X105005000Y-65047000I0J150000D01*
G01*
G37*
G36*
G01*
X105005000Y-66317000D02*
X105005000Y-66017000D01*
G75*
G02*
X105155000Y-65867000I150000J0D01*
G01*
X106805000Y-65867000D01*
G75*
G02*
X106955000Y-66017000I0J-150000D01*
G01*
X106955000Y-66317000D01*
G75*
G02*
X106805000Y-66467000I-150000J0D01*
G01*
X105155000Y-66467000D01*
G75*
G02*
X105005000Y-66317000I0J150000D01*
G01*
G37*
G36*
G01*
X105005000Y-67587000D02*
X105005000Y-67287000D01*
G75*
G02*
X105155000Y-67137000I150000J0D01*
G01*
X106805000Y-67137000D01*
G75*
G02*
X106955000Y-67287000I0J-150000D01*
G01*
X106955000Y-67587000D01*
G75*
G02*
X106805000Y-67737000I-150000J0D01*
G01*
X105155000Y-67737000D01*
G75*
G02*
X105005000Y-67587000I0J150000D01*
G01*
G37*
G36*
G01*
X105005000Y-68857000D02*
X105005000Y-68557000D01*
G75*
G02*
X105155000Y-68407000I150000J0D01*
G01*
X106805000Y-68407000D01*
G75*
G02*
X106955000Y-68557000I0J-150000D01*
G01*
X106955000Y-68857000D01*
G75*
G02*
X106805000Y-69007000I-150000J0D01*
G01*
X105155000Y-69007000D01*
G75*
G02*
X105005000Y-68857000I0J150000D01*
G01*
G37*
G36*
G01*
X100055000Y-68857000D02*
X100055000Y-68557000D01*
G75*
G02*
X100205000Y-68407000I150000J0D01*
G01*
X101855000Y-68407000D01*
G75*
G02*
X102005000Y-68557000I0J-150000D01*
G01*
X102005000Y-68857000D01*
G75*
G02*
X101855000Y-69007000I-150000J0D01*
G01*
X100205000Y-69007000D01*
G75*
G02*
X100055000Y-68857000I0J150000D01*
G01*
G37*
G36*
G01*
X100055000Y-67587000D02*
X100055000Y-67287000D01*
G75*
G02*
X100205000Y-67137000I150000J0D01*
G01*
X101855000Y-67137000D01*
G75*
G02*
X102005000Y-67287000I0J-150000D01*
G01*
X102005000Y-67587000D01*
G75*
G02*
X101855000Y-67737000I-150000J0D01*
G01*
X100205000Y-67737000D01*
G75*
G02*
X100055000Y-67587000I0J150000D01*
G01*
G37*
G36*
G01*
X100055000Y-66317000D02*
X100055000Y-66017000D01*
G75*
G02*
X100205000Y-65867000I150000J0D01*
G01*
X101855000Y-65867000D01*
G75*
G02*
X102005000Y-66017000I0J-150000D01*
G01*
X102005000Y-66317000D01*
G75*
G02*
X101855000Y-66467000I-150000J0D01*
G01*
X100205000Y-66467000D01*
G75*
G02*
X100055000Y-66317000I0J150000D01*
G01*
G37*
G36*
G01*
X100055000Y-65047000D02*
X100055000Y-64747000D01*
G75*
G02*
X100205000Y-64597000I150000J0D01*
G01*
X101855000Y-64597000D01*
G75*
G02*
X102005000Y-64747000I0J-150000D01*
G01*
X102005000Y-65047000D01*
G75*
G02*
X101855000Y-65197000I-150000J0D01*
G01*
X100205000Y-65197000D01*
G75*
G02*
X100055000Y-65047000I0J150000D01*
G01*
G37*
%TD*%
%TO.C,U13*%
G36*
G01*
X123677000Y-65428000D02*
X123677000Y-65128000D01*
G75*
G02*
X123827000Y-64978000I150000J0D01*
G01*
X125477000Y-64978000D01*
G75*
G02*
X125627000Y-65128000I0J-150000D01*
G01*
X125627000Y-65428000D01*
G75*
G02*
X125477000Y-65578000I-150000J0D01*
G01*
X123827000Y-65578000D01*
G75*
G02*
X123677000Y-65428000I0J150000D01*
G01*
G37*
G36*
G01*
X123677000Y-66698000D02*
X123677000Y-66398000D01*
G75*
G02*
X123827000Y-66248000I150000J0D01*
G01*
X125477000Y-66248000D01*
G75*
G02*
X125627000Y-66398000I0J-150000D01*
G01*
X125627000Y-66698000D01*
G75*
G02*
X125477000Y-66848000I-150000J0D01*
G01*
X123827000Y-66848000D01*
G75*
G02*
X123677000Y-66698000I0J150000D01*
G01*
G37*
G36*
G01*
X123677000Y-67968000D02*
X123677000Y-67668000D01*
G75*
G02*
X123827000Y-67518000I150000J0D01*
G01*
X125477000Y-67518000D01*
G75*
G02*
X125627000Y-67668000I0J-150000D01*
G01*
X125627000Y-67968000D01*
G75*
G02*
X125477000Y-68118000I-150000J0D01*
G01*
X123827000Y-68118000D01*
G75*
G02*
X123677000Y-67968000I0J150000D01*
G01*
G37*
G36*
G01*
X123677000Y-69238000D02*
X123677000Y-68938000D01*
G75*
G02*
X123827000Y-68788000I150000J0D01*
G01*
X125477000Y-68788000D01*
G75*
G02*
X125627000Y-68938000I0J-150000D01*
G01*
X125627000Y-69238000D01*
G75*
G02*
X125477000Y-69388000I-150000J0D01*
G01*
X123827000Y-69388000D01*
G75*
G02*
X123677000Y-69238000I0J150000D01*
G01*
G37*
G36*
G01*
X128627000Y-69238000D02*
X128627000Y-68938000D01*
G75*
G02*
X128777000Y-68788000I150000J0D01*
G01*
X130427000Y-68788000D01*
G75*
G02*
X130577000Y-68938000I0J-150000D01*
G01*
X130577000Y-69238000D01*
G75*
G02*
X130427000Y-69388000I-150000J0D01*
G01*
X128777000Y-69388000D01*
G75*
G02*
X128627000Y-69238000I0J150000D01*
G01*
G37*
G36*
G01*
X128627000Y-67968000D02*
X128627000Y-67668000D01*
G75*
G02*
X128777000Y-67518000I150000J0D01*
G01*
X130427000Y-67518000D01*
G75*
G02*
X130577000Y-67668000I0J-150000D01*
G01*
X130577000Y-67968000D01*
G75*
G02*
X130427000Y-68118000I-150000J0D01*
G01*
X128777000Y-68118000D01*
G75*
G02*
X128627000Y-67968000I0J150000D01*
G01*
G37*
G36*
G01*
X128627000Y-66698000D02*
X128627000Y-66398000D01*
G75*
G02*
X128777000Y-66248000I150000J0D01*
G01*
X130427000Y-66248000D01*
G75*
G02*
X130577000Y-66398000I0J-150000D01*
G01*
X130577000Y-66698000D01*
G75*
G02*
X130427000Y-66848000I-150000J0D01*
G01*
X128777000Y-66848000D01*
G75*
G02*
X128627000Y-66698000I0J150000D01*
G01*
G37*
G36*
G01*
X128627000Y-65428000D02*
X128627000Y-65128000D01*
G75*
G02*
X128777000Y-64978000I150000J0D01*
G01*
X130427000Y-64978000D01*
G75*
G02*
X130577000Y-65128000I0J-150000D01*
G01*
X130577000Y-65428000D01*
G75*
G02*
X130427000Y-65578000I-150000J0D01*
G01*
X128777000Y-65578000D01*
G75*
G02*
X128627000Y-65428000I0J150000D01*
G01*
G37*
%TD*%
%TO.C,U14*%
G36*
G01*
X99801000Y-79398000D02*
X99801000Y-79098000D01*
G75*
G02*
X99951000Y-78948000I150000J0D01*
G01*
X101601000Y-78948000D01*
G75*
G02*
X101751000Y-79098000I0J-150000D01*
G01*
X101751000Y-79398000D01*
G75*
G02*
X101601000Y-79548000I-150000J0D01*
G01*
X99951000Y-79548000D01*
G75*
G02*
X99801000Y-79398000I0J150000D01*
G01*
G37*
G36*
G01*
X99801000Y-80668000D02*
X99801000Y-80368000D01*
G75*
G02*
X99951000Y-80218000I150000J0D01*
G01*
X101601000Y-80218000D01*
G75*
G02*
X101751000Y-80368000I0J-150000D01*
G01*
X101751000Y-80668000D01*
G75*
G02*
X101601000Y-80818000I-150000J0D01*
G01*
X99951000Y-80818000D01*
G75*
G02*
X99801000Y-80668000I0J150000D01*
G01*
G37*
G36*
G01*
X99801000Y-81938000D02*
X99801000Y-81638000D01*
G75*
G02*
X99951000Y-81488000I150000J0D01*
G01*
X101601000Y-81488000D01*
G75*
G02*
X101751000Y-81638000I0J-150000D01*
G01*
X101751000Y-81938000D01*
G75*
G02*
X101601000Y-82088000I-150000J0D01*
G01*
X99951000Y-82088000D01*
G75*
G02*
X99801000Y-81938000I0J150000D01*
G01*
G37*
G36*
G01*
X99801000Y-83208000D02*
X99801000Y-82908000D01*
G75*
G02*
X99951000Y-82758000I150000J0D01*
G01*
X101601000Y-82758000D01*
G75*
G02*
X101751000Y-82908000I0J-150000D01*
G01*
X101751000Y-83208000D01*
G75*
G02*
X101601000Y-83358000I-150000J0D01*
G01*
X99951000Y-83358000D01*
G75*
G02*
X99801000Y-83208000I0J150000D01*
G01*
G37*
G36*
G01*
X104751000Y-83208000D02*
X104751000Y-82908000D01*
G75*
G02*
X104901000Y-82758000I150000J0D01*
G01*
X106551000Y-82758000D01*
G75*
G02*
X106701000Y-82908000I0J-150000D01*
G01*
X106701000Y-83208000D01*
G75*
G02*
X106551000Y-83358000I-150000J0D01*
G01*
X104901000Y-83358000D01*
G75*
G02*
X104751000Y-83208000I0J150000D01*
G01*
G37*
G36*
G01*
X104751000Y-81938000D02*
X104751000Y-81638000D01*
G75*
G02*
X104901000Y-81488000I150000J0D01*
G01*
X106551000Y-81488000D01*
G75*
G02*
X106701000Y-81638000I0J-150000D01*
G01*
X106701000Y-81938000D01*
G75*
G02*
X106551000Y-82088000I-150000J0D01*
G01*
X104901000Y-82088000D01*
G75*
G02*
X104751000Y-81938000I0J150000D01*
G01*
G37*
G36*
G01*
X104751000Y-80668000D02*
X104751000Y-80368000D01*
G75*
G02*
X104901000Y-80218000I150000J0D01*
G01*
X106551000Y-80218000D01*
G75*
G02*
X106701000Y-80368000I0J-150000D01*
G01*
X106701000Y-80668000D01*
G75*
G02*
X106551000Y-80818000I-150000J0D01*
G01*
X104901000Y-80818000D01*
G75*
G02*
X104751000Y-80668000I0J150000D01*
G01*
G37*
G36*
G01*
X104751000Y-79398000D02*
X104751000Y-79098000D01*
G75*
G02*
X104901000Y-78948000I150000J0D01*
G01*
X106551000Y-78948000D01*
G75*
G02*
X106701000Y-79098000I0J-150000D01*
G01*
X106701000Y-79398000D01*
G75*
G02*
X106551000Y-79548000I-150000J0D01*
G01*
X104901000Y-79548000D01*
G75*
G02*
X104751000Y-79398000I0J150000D01*
G01*
G37*
%TD*%
%TO.C,U15*%
G36*
G01*
X169140000Y-89939000D02*
X169140000Y-89639000D01*
G75*
G02*
X169290000Y-89489000I150000J0D01*
G01*
X170940000Y-89489000D01*
G75*
G02*
X171090000Y-89639000I0J-150000D01*
G01*
X171090000Y-89939000D01*
G75*
G02*
X170940000Y-90089000I-150000J0D01*
G01*
X169290000Y-90089000D01*
G75*
G02*
X169140000Y-89939000I0J150000D01*
G01*
G37*
G36*
G01*
X169140000Y-91209000D02*
X169140000Y-90909000D01*
G75*
G02*
X169290000Y-90759000I150000J0D01*
G01*
X170940000Y-90759000D01*
G75*
G02*
X171090000Y-90909000I0J-150000D01*
G01*
X171090000Y-91209000D01*
G75*
G02*
X170940000Y-91359000I-150000J0D01*
G01*
X169290000Y-91359000D01*
G75*
G02*
X169140000Y-91209000I0J150000D01*
G01*
G37*
G36*
G01*
X169140000Y-92479000D02*
X169140000Y-92179000D01*
G75*
G02*
X169290000Y-92029000I150000J0D01*
G01*
X170940000Y-92029000D01*
G75*
G02*
X171090000Y-92179000I0J-150000D01*
G01*
X171090000Y-92479000D01*
G75*
G02*
X170940000Y-92629000I-150000J0D01*
G01*
X169290000Y-92629000D01*
G75*
G02*
X169140000Y-92479000I0J150000D01*
G01*
G37*
G36*
G01*
X169140000Y-93749000D02*
X169140000Y-93449000D01*
G75*
G02*
X169290000Y-93299000I150000J0D01*
G01*
X170940000Y-93299000D01*
G75*
G02*
X171090000Y-93449000I0J-150000D01*
G01*
X171090000Y-93749000D01*
G75*
G02*
X170940000Y-93899000I-150000J0D01*
G01*
X169290000Y-93899000D01*
G75*
G02*
X169140000Y-93749000I0J150000D01*
G01*
G37*
G36*
G01*
X164190000Y-93749000D02*
X164190000Y-93449000D01*
G75*
G02*
X164340000Y-93299000I150000J0D01*
G01*
X165990000Y-93299000D01*
G75*
G02*
X166140000Y-93449000I0J-150000D01*
G01*
X166140000Y-93749000D01*
G75*
G02*
X165990000Y-93899000I-150000J0D01*
G01*
X164340000Y-93899000D01*
G75*
G02*
X164190000Y-93749000I0J150000D01*
G01*
G37*
G36*
G01*
X164190000Y-92479000D02*
X164190000Y-92179000D01*
G75*
G02*
X164340000Y-92029000I150000J0D01*
G01*
X165990000Y-92029000D01*
G75*
G02*
X166140000Y-92179000I0J-150000D01*
G01*
X166140000Y-92479000D01*
G75*
G02*
X165990000Y-92629000I-150000J0D01*
G01*
X164340000Y-92629000D01*
G75*
G02*
X164190000Y-92479000I0J150000D01*
G01*
G37*
G36*
G01*
X164190000Y-91209000D02*
X164190000Y-90909000D01*
G75*
G02*
X164340000Y-90759000I150000J0D01*
G01*
X165990000Y-90759000D01*
G75*
G02*
X166140000Y-90909000I0J-150000D01*
G01*
X166140000Y-91209000D01*
G75*
G02*
X165990000Y-91359000I-150000J0D01*
G01*
X164340000Y-91359000D01*
G75*
G02*
X164190000Y-91209000I0J150000D01*
G01*
G37*
G36*
G01*
X164190000Y-89939000D02*
X164190000Y-89639000D01*
G75*
G02*
X164340000Y-89489000I150000J0D01*
G01*
X165990000Y-89489000D01*
G75*
G02*
X166140000Y-89639000I0J-150000D01*
G01*
X166140000Y-89939000D01*
G75*
G02*
X165990000Y-90089000I-150000J0D01*
G01*
X164340000Y-90089000D01*
G75*
G02*
X164190000Y-89939000I0J150000D01*
G01*
G37*
%TD*%
%TO.C,U16*%
G36*
G01*
X169140000Y-79271000D02*
X169140000Y-78971000D01*
G75*
G02*
X169290000Y-78821000I150000J0D01*
G01*
X170940000Y-78821000D01*
G75*
G02*
X171090000Y-78971000I0J-150000D01*
G01*
X171090000Y-79271000D01*
G75*
G02*
X170940000Y-79421000I-150000J0D01*
G01*
X169290000Y-79421000D01*
G75*
G02*
X169140000Y-79271000I0J150000D01*
G01*
G37*
G36*
G01*
X169140000Y-80541000D02*
X169140000Y-80241000D01*
G75*
G02*
X169290000Y-80091000I150000J0D01*
G01*
X170940000Y-80091000D01*
G75*
G02*
X171090000Y-80241000I0J-150000D01*
G01*
X171090000Y-80541000D01*
G75*
G02*
X170940000Y-80691000I-150000J0D01*
G01*
X169290000Y-80691000D01*
G75*
G02*
X169140000Y-80541000I0J150000D01*
G01*
G37*
G36*
G01*
X169140000Y-81811000D02*
X169140000Y-81511000D01*
G75*
G02*
X169290000Y-81361000I150000J0D01*
G01*
X170940000Y-81361000D01*
G75*
G02*
X171090000Y-81511000I0J-150000D01*
G01*
X171090000Y-81811000D01*
G75*
G02*
X170940000Y-81961000I-150000J0D01*
G01*
X169290000Y-81961000D01*
G75*
G02*
X169140000Y-81811000I0J150000D01*
G01*
G37*
G36*
G01*
X169140000Y-83081000D02*
X169140000Y-82781000D01*
G75*
G02*
X169290000Y-82631000I150000J0D01*
G01*
X170940000Y-82631000D01*
G75*
G02*
X171090000Y-82781000I0J-150000D01*
G01*
X171090000Y-83081000D01*
G75*
G02*
X170940000Y-83231000I-150000J0D01*
G01*
X169290000Y-83231000D01*
G75*
G02*
X169140000Y-83081000I0J150000D01*
G01*
G37*
G36*
G01*
X164190000Y-83081000D02*
X164190000Y-82781000D01*
G75*
G02*
X164340000Y-82631000I150000J0D01*
G01*
X165990000Y-82631000D01*
G75*
G02*
X166140000Y-82781000I0J-150000D01*
G01*
X166140000Y-83081000D01*
G75*
G02*
X165990000Y-83231000I-150000J0D01*
G01*
X164340000Y-83231000D01*
G75*
G02*
X164190000Y-83081000I0J150000D01*
G01*
G37*
G36*
G01*
X164190000Y-81811000D02*
X164190000Y-81511000D01*
G75*
G02*
X164340000Y-81361000I150000J0D01*
G01*
X165990000Y-81361000D01*
G75*
G02*
X166140000Y-81511000I0J-150000D01*
G01*
X166140000Y-81811000D01*
G75*
G02*
X165990000Y-81961000I-150000J0D01*
G01*
X164340000Y-81961000D01*
G75*
G02*
X164190000Y-81811000I0J150000D01*
G01*
G37*
G36*
G01*
X164190000Y-80541000D02*
X164190000Y-80241000D01*
G75*
G02*
X164340000Y-80091000I150000J0D01*
G01*
X165990000Y-80091000D01*
G75*
G02*
X166140000Y-80241000I0J-150000D01*
G01*
X166140000Y-80541000D01*
G75*
G02*
X165990000Y-80691000I-150000J0D01*
G01*
X164340000Y-80691000D01*
G75*
G02*
X164190000Y-80541000I0J150000D01*
G01*
G37*
G36*
G01*
X164190000Y-79271000D02*
X164190000Y-78971000D01*
G75*
G02*
X164340000Y-78821000I150000J0D01*
G01*
X165990000Y-78821000D01*
G75*
G02*
X166140000Y-78971000I0J-150000D01*
G01*
X166140000Y-79271000D01*
G75*
G02*
X165990000Y-79421000I-150000J0D01*
G01*
X164340000Y-79421000D01*
G75*
G02*
X164190000Y-79271000I0J150000D01*
G01*
G37*
%TD*%
%TO.C,U17*%
G36*
G01*
X142724000Y-90447000D02*
X142724000Y-90147000D01*
G75*
G02*
X142874000Y-89997000I150000J0D01*
G01*
X144524000Y-89997000D01*
G75*
G02*
X144674000Y-90147000I0J-150000D01*
G01*
X144674000Y-90447000D01*
G75*
G02*
X144524000Y-90597000I-150000J0D01*
G01*
X142874000Y-90597000D01*
G75*
G02*
X142724000Y-90447000I0J150000D01*
G01*
G37*
G36*
G01*
X142724000Y-91717000D02*
X142724000Y-91417000D01*
G75*
G02*
X142874000Y-91267000I150000J0D01*
G01*
X144524000Y-91267000D01*
G75*
G02*
X144674000Y-91417000I0J-150000D01*
G01*
X144674000Y-91717000D01*
G75*
G02*
X144524000Y-91867000I-150000J0D01*
G01*
X142874000Y-91867000D01*
G75*
G02*
X142724000Y-91717000I0J150000D01*
G01*
G37*
G36*
G01*
X142724000Y-92987000D02*
X142724000Y-92687000D01*
G75*
G02*
X142874000Y-92537000I150000J0D01*
G01*
X144524000Y-92537000D01*
G75*
G02*
X144674000Y-92687000I0J-150000D01*
G01*
X144674000Y-92987000D01*
G75*
G02*
X144524000Y-93137000I-150000J0D01*
G01*
X142874000Y-93137000D01*
G75*
G02*
X142724000Y-92987000I0J150000D01*
G01*
G37*
G36*
G01*
X142724000Y-94257000D02*
X142724000Y-93957000D01*
G75*
G02*
X142874000Y-93807000I150000J0D01*
G01*
X144524000Y-93807000D01*
G75*
G02*
X144674000Y-93957000I0J-150000D01*
G01*
X144674000Y-94257000D01*
G75*
G02*
X144524000Y-94407000I-150000J0D01*
G01*
X142874000Y-94407000D01*
G75*
G02*
X142724000Y-94257000I0J150000D01*
G01*
G37*
G36*
G01*
X137774000Y-94257000D02*
X137774000Y-93957000D01*
G75*
G02*
X137924000Y-93807000I150000J0D01*
G01*
X139574000Y-93807000D01*
G75*
G02*
X139724000Y-93957000I0J-150000D01*
G01*
X139724000Y-94257000D01*
G75*
G02*
X139574000Y-94407000I-150000J0D01*
G01*
X137924000Y-94407000D01*
G75*
G02*
X137774000Y-94257000I0J150000D01*
G01*
G37*
G36*
G01*
X137774000Y-92987000D02*
X137774000Y-92687000D01*
G75*
G02*
X137924000Y-92537000I150000J0D01*
G01*
X139574000Y-92537000D01*
G75*
G02*
X139724000Y-92687000I0J-150000D01*
G01*
X139724000Y-92987000D01*
G75*
G02*
X139574000Y-93137000I-150000J0D01*
G01*
X137924000Y-93137000D01*
G75*
G02*
X137774000Y-92987000I0J150000D01*
G01*
G37*
G36*
G01*
X137774000Y-91717000D02*
X137774000Y-91417000D01*
G75*
G02*
X137924000Y-91267000I150000J0D01*
G01*
X139574000Y-91267000D01*
G75*
G02*
X139724000Y-91417000I0J-150000D01*
G01*
X139724000Y-91717000D01*
G75*
G02*
X139574000Y-91867000I-150000J0D01*
G01*
X137924000Y-91867000D01*
G75*
G02*
X137774000Y-91717000I0J150000D01*
G01*
G37*
G36*
G01*
X137774000Y-90447000D02*
X137774000Y-90147000D01*
G75*
G02*
X137924000Y-89997000I150000J0D01*
G01*
X139574000Y-89997000D01*
G75*
G02*
X139724000Y-90147000I0J-150000D01*
G01*
X139724000Y-90447000D01*
G75*
G02*
X139574000Y-90597000I-150000J0D01*
G01*
X137924000Y-90597000D01*
G75*
G02*
X137774000Y-90447000I0J150000D01*
G01*
G37*
%TD*%
%TO.C,U18*%
G36*
G01*
X122026000Y-102512000D02*
X122026000Y-102212000D01*
G75*
G02*
X122176000Y-102062000I150000J0D01*
G01*
X123826000Y-102062000D01*
G75*
G02*
X123976000Y-102212000I0J-150000D01*
G01*
X123976000Y-102512000D01*
G75*
G02*
X123826000Y-102662000I-150000J0D01*
G01*
X122176000Y-102662000D01*
G75*
G02*
X122026000Y-102512000I0J150000D01*
G01*
G37*
G36*
G01*
X122026000Y-103782000D02*
X122026000Y-103482000D01*
G75*
G02*
X122176000Y-103332000I150000J0D01*
G01*
X123826000Y-103332000D01*
G75*
G02*
X123976000Y-103482000I0J-150000D01*
G01*
X123976000Y-103782000D01*
G75*
G02*
X123826000Y-103932000I-150000J0D01*
G01*
X122176000Y-103932000D01*
G75*
G02*
X122026000Y-103782000I0J150000D01*
G01*
G37*
G36*
G01*
X122026000Y-105052000D02*
X122026000Y-104752000D01*
G75*
G02*
X122176000Y-104602000I150000J0D01*
G01*
X123826000Y-104602000D01*
G75*
G02*
X123976000Y-104752000I0J-150000D01*
G01*
X123976000Y-105052000D01*
G75*
G02*
X123826000Y-105202000I-150000J0D01*
G01*
X122176000Y-105202000D01*
G75*
G02*
X122026000Y-105052000I0J150000D01*
G01*
G37*
G36*
G01*
X122026000Y-106322000D02*
X122026000Y-106022000D01*
G75*
G02*
X122176000Y-105872000I150000J0D01*
G01*
X123826000Y-105872000D01*
G75*
G02*
X123976000Y-106022000I0J-150000D01*
G01*
X123976000Y-106322000D01*
G75*
G02*
X123826000Y-106472000I-150000J0D01*
G01*
X122176000Y-106472000D01*
G75*
G02*
X122026000Y-106322000I0J150000D01*
G01*
G37*
G36*
G01*
X126976000Y-106322000D02*
X126976000Y-106022000D01*
G75*
G02*
X127126000Y-105872000I150000J0D01*
G01*
X128776000Y-105872000D01*
G75*
G02*
X128926000Y-106022000I0J-150000D01*
G01*
X128926000Y-106322000D01*
G75*
G02*
X128776000Y-106472000I-150000J0D01*
G01*
X127126000Y-106472000D01*
G75*
G02*
X126976000Y-106322000I0J150000D01*
G01*
G37*
G36*
G01*
X126976000Y-105052000D02*
X126976000Y-104752000D01*
G75*
G02*
X127126000Y-104602000I150000J0D01*
G01*
X128776000Y-104602000D01*
G75*
G02*
X128926000Y-104752000I0J-150000D01*
G01*
X128926000Y-105052000D01*
G75*
G02*
X128776000Y-105202000I-150000J0D01*
G01*
X127126000Y-105202000D01*
G75*
G02*
X126976000Y-105052000I0J150000D01*
G01*
G37*
G36*
G01*
X126976000Y-103782000D02*
X126976000Y-103482000D01*
G75*
G02*
X127126000Y-103332000I150000J0D01*
G01*
X128776000Y-103332000D01*
G75*
G02*
X128926000Y-103482000I0J-150000D01*
G01*
X128926000Y-103782000D01*
G75*
G02*
X128776000Y-103932000I-150000J0D01*
G01*
X127126000Y-103932000D01*
G75*
G02*
X126976000Y-103782000I0J150000D01*
G01*
G37*
G36*
G01*
X126976000Y-102512000D02*
X126976000Y-102212000D01*
G75*
G02*
X127126000Y-102062000I150000J0D01*
G01*
X128776000Y-102062000D01*
G75*
G02*
X128926000Y-102212000I0J-150000D01*
G01*
X128926000Y-102512000D01*
G75*
G02*
X128776000Y-102662000I-150000J0D01*
G01*
X127126000Y-102662000D01*
G75*
G02*
X126976000Y-102512000I0J150000D01*
G01*
G37*
%TD*%
%TO.C,U19*%
G36*
G01*
X75651000Y-69233000D02*
X75951000Y-69233000D01*
G75*
G02*
X76101000Y-69383000I0J-150000D01*
G01*
X76101000Y-71033000D01*
G75*
G02*
X75951000Y-71183000I-150000J0D01*
G01*
X75651000Y-71183000D01*
G75*
G02*
X75501000Y-71033000I0J150000D01*
G01*
X75501000Y-69383000D01*
G75*
G02*
X75651000Y-69233000I150000J0D01*
G01*
G37*
G36*
G01*
X74381000Y-69233000D02*
X74681000Y-69233000D01*
G75*
G02*
X74831000Y-69383000I0J-150000D01*
G01*
X74831000Y-71033000D01*
G75*
G02*
X74681000Y-71183000I-150000J0D01*
G01*
X74381000Y-71183000D01*
G75*
G02*
X74231000Y-71033000I0J150000D01*
G01*
X74231000Y-69383000D01*
G75*
G02*
X74381000Y-69233000I150000J0D01*
G01*
G37*
G36*
G01*
X73111000Y-69233000D02*
X73411000Y-69233000D01*
G75*
G02*
X73561000Y-69383000I0J-150000D01*
G01*
X73561000Y-71033000D01*
G75*
G02*
X73411000Y-71183000I-150000J0D01*
G01*
X73111000Y-71183000D01*
G75*
G02*
X72961000Y-71033000I0J150000D01*
G01*
X72961000Y-69383000D01*
G75*
G02*
X73111000Y-69233000I150000J0D01*
G01*
G37*
G36*
G01*
X71841000Y-69233000D02*
X72141000Y-69233000D01*
G75*
G02*
X72291000Y-69383000I0J-150000D01*
G01*
X72291000Y-71033000D01*
G75*
G02*
X72141000Y-71183000I-150000J0D01*
G01*
X71841000Y-71183000D01*
G75*
G02*
X71691000Y-71033000I0J150000D01*
G01*
X71691000Y-69383000D01*
G75*
G02*
X71841000Y-69233000I150000J0D01*
G01*
G37*
G36*
G01*
X70571000Y-69233000D02*
X70871000Y-69233000D01*
G75*
G02*
X71021000Y-69383000I0J-150000D01*
G01*
X71021000Y-71033000D01*
G75*
G02*
X70871000Y-71183000I-150000J0D01*
G01*
X70571000Y-71183000D01*
G75*
G02*
X70421000Y-71033000I0J150000D01*
G01*
X70421000Y-69383000D01*
G75*
G02*
X70571000Y-69233000I150000J0D01*
G01*
G37*
G36*
G01*
X69301000Y-69233000D02*
X69601000Y-69233000D01*
G75*
G02*
X69751000Y-69383000I0J-150000D01*
G01*
X69751000Y-71033000D01*
G75*
G02*
X69601000Y-71183000I-150000J0D01*
G01*
X69301000Y-71183000D01*
G75*
G02*
X69151000Y-71033000I0J150000D01*
G01*
X69151000Y-69383000D01*
G75*
G02*
X69301000Y-69233000I150000J0D01*
G01*
G37*
G36*
G01*
X68031000Y-69233000D02*
X68331000Y-69233000D01*
G75*
G02*
X68481000Y-69383000I0J-150000D01*
G01*
X68481000Y-71033000D01*
G75*
G02*
X68331000Y-71183000I-150000J0D01*
G01*
X68031000Y-71183000D01*
G75*
G02*
X67881000Y-71033000I0J150000D01*
G01*
X67881000Y-69383000D01*
G75*
G02*
X68031000Y-69233000I150000J0D01*
G01*
G37*
G36*
G01*
X66761000Y-69233000D02*
X67061000Y-69233000D01*
G75*
G02*
X67211000Y-69383000I0J-150000D01*
G01*
X67211000Y-71033000D01*
G75*
G02*
X67061000Y-71183000I-150000J0D01*
G01*
X66761000Y-71183000D01*
G75*
G02*
X66611000Y-71033000I0J150000D01*
G01*
X66611000Y-69383000D01*
G75*
G02*
X66761000Y-69233000I150000J0D01*
G01*
G37*
G36*
G01*
X66761000Y-64283000D02*
X67061000Y-64283000D01*
G75*
G02*
X67211000Y-64433000I0J-150000D01*
G01*
X67211000Y-66083000D01*
G75*
G02*
X67061000Y-66233000I-150000J0D01*
G01*
X66761000Y-66233000D01*
G75*
G02*
X66611000Y-66083000I0J150000D01*
G01*
X66611000Y-64433000D01*
G75*
G02*
X66761000Y-64283000I150000J0D01*
G01*
G37*
G36*
G01*
X68031000Y-64283000D02*
X68331000Y-64283000D01*
G75*
G02*
X68481000Y-64433000I0J-150000D01*
G01*
X68481000Y-66083000D01*
G75*
G02*
X68331000Y-66233000I-150000J0D01*
G01*
X68031000Y-66233000D01*
G75*
G02*
X67881000Y-66083000I0J150000D01*
G01*
X67881000Y-64433000D01*
G75*
G02*
X68031000Y-64283000I150000J0D01*
G01*
G37*
G36*
G01*
X69301000Y-64283000D02*
X69601000Y-64283000D01*
G75*
G02*
X69751000Y-64433000I0J-150000D01*
G01*
X69751000Y-66083000D01*
G75*
G02*
X69601000Y-66233000I-150000J0D01*
G01*
X69301000Y-66233000D01*
G75*
G02*
X69151000Y-66083000I0J150000D01*
G01*
X69151000Y-64433000D01*
G75*
G02*
X69301000Y-64283000I150000J0D01*
G01*
G37*
G36*
G01*
X70571000Y-64283000D02*
X70871000Y-64283000D01*
G75*
G02*
X71021000Y-64433000I0J-150000D01*
G01*
X71021000Y-66083000D01*
G75*
G02*
X70871000Y-66233000I-150000J0D01*
G01*
X70571000Y-66233000D01*
G75*
G02*
X70421000Y-66083000I0J150000D01*
G01*
X70421000Y-64433000D01*
G75*
G02*
X70571000Y-64283000I150000J0D01*
G01*
G37*
G36*
G01*
X71841000Y-64283000D02*
X72141000Y-64283000D01*
G75*
G02*
X72291000Y-64433000I0J-150000D01*
G01*
X72291000Y-66083000D01*
G75*
G02*
X72141000Y-66233000I-150000J0D01*
G01*
X71841000Y-66233000D01*
G75*
G02*
X71691000Y-66083000I0J150000D01*
G01*
X71691000Y-64433000D01*
G75*
G02*
X71841000Y-64283000I150000J0D01*
G01*
G37*
G36*
G01*
X73111000Y-64283000D02*
X73411000Y-64283000D01*
G75*
G02*
X73561000Y-64433000I0J-150000D01*
G01*
X73561000Y-66083000D01*
G75*
G02*
X73411000Y-66233000I-150000J0D01*
G01*
X73111000Y-66233000D01*
G75*
G02*
X72961000Y-66083000I0J150000D01*
G01*
X72961000Y-64433000D01*
G75*
G02*
X73111000Y-64283000I150000J0D01*
G01*
G37*
G36*
G01*
X74381000Y-64283000D02*
X74681000Y-64283000D01*
G75*
G02*
X74831000Y-64433000I0J-150000D01*
G01*
X74831000Y-66083000D01*
G75*
G02*
X74681000Y-66233000I-150000J0D01*
G01*
X74381000Y-66233000D01*
G75*
G02*
X74231000Y-66083000I0J150000D01*
G01*
X74231000Y-64433000D01*
G75*
G02*
X74381000Y-64283000I150000J0D01*
G01*
G37*
G36*
G01*
X75651000Y-64283000D02*
X75951000Y-64283000D01*
G75*
G02*
X76101000Y-64433000I0J-150000D01*
G01*
X76101000Y-66083000D01*
G75*
G02*
X75951000Y-66233000I-150000J0D01*
G01*
X75651000Y-66233000D01*
G75*
G02*
X75501000Y-66083000I0J150000D01*
G01*
X75501000Y-64433000D01*
G75*
G02*
X75651000Y-64283000I150000J0D01*
G01*
G37*
%TD*%
%TO.C,U20*%
G36*
G01*
X108180000Y-110132000D02*
X108180000Y-109832000D01*
G75*
G02*
X108330000Y-109682000I150000J0D01*
G01*
X109980000Y-109682000D01*
G75*
G02*
X110130000Y-109832000I0J-150000D01*
G01*
X110130000Y-110132000D01*
G75*
G02*
X109980000Y-110282000I-150000J0D01*
G01*
X108330000Y-110282000D01*
G75*
G02*
X108180000Y-110132000I0J150000D01*
G01*
G37*
G36*
G01*
X108180000Y-111402000D02*
X108180000Y-111102000D01*
G75*
G02*
X108330000Y-110952000I150000J0D01*
G01*
X109980000Y-110952000D01*
G75*
G02*
X110130000Y-111102000I0J-150000D01*
G01*
X110130000Y-111402000D01*
G75*
G02*
X109980000Y-111552000I-150000J0D01*
G01*
X108330000Y-111552000D01*
G75*
G02*
X108180000Y-111402000I0J150000D01*
G01*
G37*
G36*
G01*
X108180000Y-112672000D02*
X108180000Y-112372000D01*
G75*
G02*
X108330000Y-112222000I150000J0D01*
G01*
X109980000Y-112222000D01*
G75*
G02*
X110130000Y-112372000I0J-150000D01*
G01*
X110130000Y-112672000D01*
G75*
G02*
X109980000Y-112822000I-150000J0D01*
G01*
X108330000Y-112822000D01*
G75*
G02*
X108180000Y-112672000I0J150000D01*
G01*
G37*
G36*
G01*
X108180000Y-113942000D02*
X108180000Y-113642000D01*
G75*
G02*
X108330000Y-113492000I150000J0D01*
G01*
X109980000Y-113492000D01*
G75*
G02*
X110130000Y-113642000I0J-150000D01*
G01*
X110130000Y-113942000D01*
G75*
G02*
X109980000Y-114092000I-150000J0D01*
G01*
X108330000Y-114092000D01*
G75*
G02*
X108180000Y-113942000I0J150000D01*
G01*
G37*
G36*
G01*
X103230000Y-113942000D02*
X103230000Y-113642000D01*
G75*
G02*
X103380000Y-113492000I150000J0D01*
G01*
X105030000Y-113492000D01*
G75*
G02*
X105180000Y-113642000I0J-150000D01*
G01*
X105180000Y-113942000D01*
G75*
G02*
X105030000Y-114092000I-150000J0D01*
G01*
X103380000Y-114092000D01*
G75*
G02*
X103230000Y-113942000I0J150000D01*
G01*
G37*
G36*
G01*
X103230000Y-112672000D02*
X103230000Y-112372000D01*
G75*
G02*
X103380000Y-112222000I150000J0D01*
G01*
X105030000Y-112222000D01*
G75*
G02*
X105180000Y-112372000I0J-150000D01*
G01*
X105180000Y-112672000D01*
G75*
G02*
X105030000Y-112822000I-150000J0D01*
G01*
X103380000Y-112822000D01*
G75*
G02*
X103230000Y-112672000I0J150000D01*
G01*
G37*
G36*
G01*
X103230000Y-111402000D02*
X103230000Y-111102000D01*
G75*
G02*
X103380000Y-110952000I150000J0D01*
G01*
X105030000Y-110952000D01*
G75*
G02*
X105180000Y-111102000I0J-150000D01*
G01*
X105180000Y-111402000D01*
G75*
G02*
X105030000Y-111552000I-150000J0D01*
G01*
X103380000Y-111552000D01*
G75*
G02*
X103230000Y-111402000I0J150000D01*
G01*
G37*
G36*
G01*
X103230000Y-110132000D02*
X103230000Y-109832000D01*
G75*
G02*
X103380000Y-109682000I150000J0D01*
G01*
X105030000Y-109682000D01*
G75*
G02*
X105180000Y-109832000I0J-150000D01*
G01*
X105180000Y-110132000D01*
G75*
G02*
X105030000Y-110282000I-150000J0D01*
G01*
X103380000Y-110282000D01*
G75*
G02*
X103230000Y-110132000I0J150000D01*
G01*
G37*
%TD*%
%TO.C,U21*%
G36*
G01*
X84558000Y-107465000D02*
X84558000Y-107165000D01*
G75*
G02*
X84708000Y-107015000I150000J0D01*
G01*
X86358000Y-107015000D01*
G75*
G02*
X86508000Y-107165000I0J-150000D01*
G01*
X86508000Y-107465000D01*
G75*
G02*
X86358000Y-107615000I-150000J0D01*
G01*
X84708000Y-107615000D01*
G75*
G02*
X84558000Y-107465000I0J150000D01*
G01*
G37*
G36*
G01*
X84558000Y-108735000D02*
X84558000Y-108435000D01*
G75*
G02*
X84708000Y-108285000I150000J0D01*
G01*
X86358000Y-108285000D01*
G75*
G02*
X86508000Y-108435000I0J-150000D01*
G01*
X86508000Y-108735000D01*
G75*
G02*
X86358000Y-108885000I-150000J0D01*
G01*
X84708000Y-108885000D01*
G75*
G02*
X84558000Y-108735000I0J150000D01*
G01*
G37*
G36*
G01*
X84558000Y-110005000D02*
X84558000Y-109705000D01*
G75*
G02*
X84708000Y-109555000I150000J0D01*
G01*
X86358000Y-109555000D01*
G75*
G02*
X86508000Y-109705000I0J-150000D01*
G01*
X86508000Y-110005000D01*
G75*
G02*
X86358000Y-110155000I-150000J0D01*
G01*
X84708000Y-110155000D01*
G75*
G02*
X84558000Y-110005000I0J150000D01*
G01*
G37*
G36*
G01*
X84558000Y-111275000D02*
X84558000Y-110975000D01*
G75*
G02*
X84708000Y-110825000I150000J0D01*
G01*
X86358000Y-110825000D01*
G75*
G02*
X86508000Y-110975000I0J-150000D01*
G01*
X86508000Y-111275000D01*
G75*
G02*
X86358000Y-111425000I-150000J0D01*
G01*
X84708000Y-111425000D01*
G75*
G02*
X84558000Y-111275000I0J150000D01*
G01*
G37*
G36*
G01*
X84558000Y-112545000D02*
X84558000Y-112245000D01*
G75*
G02*
X84708000Y-112095000I150000J0D01*
G01*
X86358000Y-112095000D01*
G75*
G02*
X86508000Y-112245000I0J-150000D01*
G01*
X86508000Y-112545000D01*
G75*
G02*
X86358000Y-112695000I-150000J0D01*
G01*
X84708000Y-112695000D01*
G75*
G02*
X84558000Y-112545000I0J150000D01*
G01*
G37*
G36*
G01*
X84558000Y-113815000D02*
X84558000Y-113515000D01*
G75*
G02*
X84708000Y-113365000I150000J0D01*
G01*
X86358000Y-113365000D01*
G75*
G02*
X86508000Y-113515000I0J-150000D01*
G01*
X86508000Y-113815000D01*
G75*
G02*
X86358000Y-113965000I-150000J0D01*
G01*
X84708000Y-113965000D01*
G75*
G02*
X84558000Y-113815000I0J150000D01*
G01*
G37*
G36*
G01*
X84558000Y-115085000D02*
X84558000Y-114785000D01*
G75*
G02*
X84708000Y-114635000I150000J0D01*
G01*
X86358000Y-114635000D01*
G75*
G02*
X86508000Y-114785000I0J-150000D01*
G01*
X86508000Y-115085000D01*
G75*
G02*
X86358000Y-115235000I-150000J0D01*
G01*
X84708000Y-115235000D01*
G75*
G02*
X84558000Y-115085000I0J150000D01*
G01*
G37*
G36*
G01*
X84558000Y-116355000D02*
X84558000Y-116055000D01*
G75*
G02*
X84708000Y-115905000I150000J0D01*
G01*
X86358000Y-115905000D01*
G75*
G02*
X86508000Y-116055000I0J-150000D01*
G01*
X86508000Y-116355000D01*
G75*
G02*
X86358000Y-116505000I-150000J0D01*
G01*
X84708000Y-116505000D01*
G75*
G02*
X84558000Y-116355000I0J150000D01*
G01*
G37*
G36*
G01*
X79608000Y-116355000D02*
X79608000Y-116055000D01*
G75*
G02*
X79758000Y-115905000I150000J0D01*
G01*
X81408000Y-115905000D01*
G75*
G02*
X81558000Y-116055000I0J-150000D01*
G01*
X81558000Y-116355000D01*
G75*
G02*
X81408000Y-116505000I-150000J0D01*
G01*
X79758000Y-116505000D01*
G75*
G02*
X79608000Y-116355000I0J150000D01*
G01*
G37*
G36*
G01*
X79608000Y-115085000D02*
X79608000Y-114785000D01*
G75*
G02*
X79758000Y-114635000I150000J0D01*
G01*
X81408000Y-114635000D01*
G75*
G02*
X81558000Y-114785000I0J-150000D01*
G01*
X81558000Y-115085000D01*
G75*
G02*
X81408000Y-115235000I-150000J0D01*
G01*
X79758000Y-115235000D01*
G75*
G02*
X79608000Y-115085000I0J150000D01*
G01*
G37*
G36*
G01*
X79608000Y-113815000D02*
X79608000Y-113515000D01*
G75*
G02*
X79758000Y-113365000I150000J0D01*
G01*
X81408000Y-113365000D01*
G75*
G02*
X81558000Y-113515000I0J-150000D01*
G01*
X81558000Y-113815000D01*
G75*
G02*
X81408000Y-113965000I-150000J0D01*
G01*
X79758000Y-113965000D01*
G75*
G02*
X79608000Y-113815000I0J150000D01*
G01*
G37*
G36*
G01*
X79608000Y-112545000D02*
X79608000Y-112245000D01*
G75*
G02*
X79758000Y-112095000I150000J0D01*
G01*
X81408000Y-112095000D01*
G75*
G02*
X81558000Y-112245000I0J-150000D01*
G01*
X81558000Y-112545000D01*
G75*
G02*
X81408000Y-112695000I-150000J0D01*
G01*
X79758000Y-112695000D01*
G75*
G02*
X79608000Y-112545000I0J150000D01*
G01*
G37*
G36*
G01*
X79608000Y-111275000D02*
X79608000Y-110975000D01*
G75*
G02*
X79758000Y-110825000I150000J0D01*
G01*
X81408000Y-110825000D01*
G75*
G02*
X81558000Y-110975000I0J-150000D01*
G01*
X81558000Y-111275000D01*
G75*
G02*
X81408000Y-111425000I-150000J0D01*
G01*
X79758000Y-111425000D01*
G75*
G02*
X79608000Y-111275000I0J150000D01*
G01*
G37*
G36*
G01*
X79608000Y-110005000D02*
X79608000Y-109705000D01*
G75*
G02*
X79758000Y-109555000I150000J0D01*
G01*
X81408000Y-109555000D01*
G75*
G02*
X81558000Y-109705000I0J-150000D01*
G01*
X81558000Y-110005000D01*
G75*
G02*
X81408000Y-110155000I-150000J0D01*
G01*
X79758000Y-110155000D01*
G75*
G02*
X79608000Y-110005000I0J150000D01*
G01*
G37*
G36*
G01*
X79608000Y-108735000D02*
X79608000Y-108435000D01*
G75*
G02*
X79758000Y-108285000I150000J0D01*
G01*
X81408000Y-108285000D01*
G75*
G02*
X81558000Y-108435000I0J-150000D01*
G01*
X81558000Y-108735000D01*
G75*
G02*
X81408000Y-108885000I-150000J0D01*
G01*
X79758000Y-108885000D01*
G75*
G02*
X79608000Y-108735000I0J150000D01*
G01*
G37*
G36*
G01*
X79608000Y-107465000D02*
X79608000Y-107165000D01*
G75*
G02*
X79758000Y-107015000I150000J0D01*
G01*
X81408000Y-107015000D01*
G75*
G02*
X81558000Y-107165000I0J-150000D01*
G01*
X81558000Y-107465000D01*
G75*
G02*
X81408000Y-107615000I-150000J0D01*
G01*
X79758000Y-107615000D01*
G75*
G02*
X79608000Y-107465000I0J150000D01*
G01*
G37*
%TD*%
%TO.C,C53*%
G36*
G01*
X118674000Y-118241000D02*
X118674000Y-118741000D01*
G75*
G02*
X118449000Y-118966000I-225000J0D01*
G01*
X117999000Y-118966000D01*
G75*
G02*
X117774000Y-118741000I0J225000D01*
G01*
X117774000Y-118241000D01*
G75*
G02*
X117999000Y-118016000I225000J0D01*
G01*
X118449000Y-118016000D01*
G75*
G02*
X118674000Y-118241000I0J-225000D01*
G01*
G37*
G36*
G01*
X120224000Y-118241000D02*
X120224000Y-118741000D01*
G75*
G02*
X119999000Y-118966000I-225000J0D01*
G01*
X119549000Y-118966000D01*
G75*
G02*
X119324000Y-118741000I0J225000D01*
G01*
X119324000Y-118241000D01*
G75*
G02*
X119549000Y-118016000I225000J0D01*
G01*
X119999000Y-118016000D01*
G75*
G02*
X120224000Y-118241000I0J-225000D01*
G01*
G37*
%TD*%
%TO.C,C54*%
G36*
G01*
X129979000Y-118614000D02*
X129979000Y-118114000D01*
G75*
G02*
X130204000Y-117889000I225000J0D01*
G01*
X130654000Y-117889000D01*
G75*
G02*
X130879000Y-118114000I0J-225000D01*
G01*
X130879000Y-118614000D01*
G75*
G02*
X130654000Y-118839000I-225000J0D01*
G01*
X130204000Y-118839000D01*
G75*
G02*
X129979000Y-118614000I0J225000D01*
G01*
G37*
G36*
G01*
X131529000Y-118614000D02*
X131529000Y-118114000D01*
G75*
G02*
X131754000Y-117889000I225000J0D01*
G01*
X132204000Y-117889000D01*
G75*
G02*
X132429000Y-118114000I0J-225000D01*
G01*
X132429000Y-118614000D01*
G75*
G02*
X132204000Y-118839000I-225000J0D01*
G01*
X131754000Y-118839000D01*
G75*
G02*
X131529000Y-118614000I0J225000D01*
G01*
G37*
%TD*%
%TO.C,C55*%
G36*
G01*
X129966000Y-120392000D02*
X129966000Y-119892000D01*
G75*
G02*
X130191000Y-119667000I225000J0D01*
G01*
X130641000Y-119667000D01*
G75*
G02*
X130866000Y-119892000I0J-225000D01*
G01*
X130866000Y-120392000D01*
G75*
G02*
X130641000Y-120617000I-225000J0D01*
G01*
X130191000Y-120617000D01*
G75*
G02*
X129966000Y-120392000I0J225000D01*
G01*
G37*
G36*
G01*
X131516000Y-120392000D02*
X131516000Y-119892000D01*
G75*
G02*
X131741000Y-119667000I225000J0D01*
G01*
X132191000Y-119667000D01*
G75*
G02*
X132416000Y-119892000I0J-225000D01*
G01*
X132416000Y-120392000D01*
G75*
G02*
X132191000Y-120617000I-225000J0D01*
G01*
X131741000Y-120617000D01*
G75*
G02*
X131516000Y-120392000I0J225000D01*
G01*
G37*
%TD*%
M02*
