%TF.GenerationSoftware,KiCad,Pcbnew,5.1.7-a382d34a8~87~ubuntu18.04.1*%
%TF.CreationDate,2022-10-25T10:50:56-07:00*%
%TF.ProjectId,potentiostat,706f7465-6e74-4696-9f73-7461742e6b69,rev?*%
%TF.SameCoordinates,Original*%
%TF.FileFunction,Copper,L2,Bot*%
%TF.FilePolarity,Positive*%
%FSLAX46Y46*%
G04 Gerber Fmt 4.6, Leading zero omitted, Abs format (unit mm)*
G04 Created by KiCad (PCBNEW 5.1.7-a382d34a8~87~ubuntu18.04.1) date 2022-10-25 10:50:56*
%MOMM*%
%LPD*%
G01*
G04 APERTURE LIST*
%TA.AperFunction,ComponentPad*%
%ADD10C,1.651000*%
%TD*%
%TA.AperFunction,ComponentPad*%
%ADD11R,1.524000X1.524000*%
%TD*%
%TA.AperFunction,ComponentPad*%
%ADD12C,1.524000*%
%TD*%
%TA.AperFunction,ComponentPad*%
%ADD13C,1.700000*%
%TD*%
%TA.AperFunction,ComponentPad*%
%ADD14R,1.700000X1.700000*%
%TD*%
%TA.AperFunction,ComponentPad*%
%ADD15C,3.810000*%
%TD*%
%TA.AperFunction,ViaPad*%
%ADD16C,0.889000*%
%TD*%
%TA.AperFunction,Conductor*%
%ADD17C,0.381000*%
%TD*%
%TA.AperFunction,Conductor*%
%ADD18C,0.254000*%
%TD*%
G04 APERTURE END LIST*
D10*
%TO.P,U2,33*%
%TO.N,Net-(U2-Pad33)*%
X52540000Y-79180000D03*
%TO.P,U2,32*%
%TO.N,/GND*%
X55080000Y-79180000D03*
%TO.P,U2,31*%
%TO.N,/5V*%
X57620000Y-79180000D03*
%TO.P,U2,30*%
%TO.N,/SW_WRK_ELECT*%
X60160000Y-79180000D03*
%TO.P,U2,29*%
%TO.N,/SW_REF_ELECT*%
X62700000Y-79180000D03*
%TO.P,U2,28*%
%TO.N,/SW_CTR_ELECT*%
X65240000Y-79180000D03*
%TO.P,U2,27*%
%TO.N,/TIA_GAIN_A1*%
X67780000Y-79180000D03*
%TO.P,U2,26*%
%TO.N,/TIA_GAIN_A0*%
X70320000Y-79180000D03*
%TO.P,U2,25*%
%TO.N,/REF_GAIN_A1*%
X72860000Y-79180000D03*
%TO.P,U2,24*%
%TO.N,/REF_GAIN_A0*%
X75400000Y-79180000D03*
%TO.P,U2,23*%
%TO.N,/SCL*%
X77940000Y-79180000D03*
%TO.P,U2,22*%
%TO.N,/SDA*%
X80480000Y-79180000D03*
%TO.P,U2,21*%
%TO.N,/TX_D1*%
X83020000Y-79180000D03*
%TO.P,U2,20*%
%TO.N,/RX_D0*%
X85560000Y-79180000D03*
%TO.P,U2,19*%
%TO.N,/DAC_GAIN_A1*%
X85560000Y-81720000D03*
%TO.P,U2,18*%
%TO.N,/DAC_GAIN_A0*%
X85560000Y-84260000D03*
%TO.P,U2,17*%
%TO.N,Net-(U2-Pad17)*%
X85560000Y-86800000D03*
%TO.P,U2,16*%
%TO.N,Net-(U2-Pad16)*%
X85560000Y-89340000D03*
%TO.P,U2,15*%
%TO.N,Net-(U2-Pad15)*%
X85560000Y-91880000D03*
%TO.P,U2,14*%
%TO.N,/CS*%
X85560000Y-94420000D03*
%TO.P,U2,13*%
%TO.N,/POCI*%
X83020000Y-94420000D03*
%TO.P,U2,12*%
%TO.N,/PICO*%
X80480000Y-94420000D03*
%TO.P,U2,11*%
%TO.N,/SCK*%
X77940000Y-94420000D03*
%TO.P,U2,10*%
%TO.N,/A5_D19*%
X75400000Y-94420000D03*
%TO.P,U2,9*%
%TO.N,/A4_D18*%
X72860000Y-94420000D03*
%TO.P,U2,8*%
%TO.N,/REF_ELECT_UNI*%
X70320000Y-94420000D03*
%TO.P,U2,7*%
%TO.N,/TIA_OUT_UNI*%
X67780000Y-94420000D03*
%TO.P,U2,6*%
%TO.N,/A1_D15*%
X65240000Y-94420000D03*
%TO.P,U2,5*%
%TO.N,/DAC_UNI*%
X62700000Y-94420000D03*
%TO.P,U2,4*%
%TO.N,Net-(U2-Pad4)*%
X60160000Y-94420000D03*
%TO.P,U2,3*%
%TO.N,Net-(U2-Pad3)*%
X57620000Y-94420000D03*
%TO.P,U2,2*%
%TO.N,/3V3*%
X55080000Y-94420000D03*
%TO.P,U2,1*%
%TO.N,Net-(U2-Pad1)*%
X52540000Y-94420000D03*
%TD*%
D11*
%TO.P,P5,1*%
%TO.N,/GND*%
X53340000Y-68580000D03*
D12*
%TO.P,P5,2*%
X55880000Y-68580000D03*
%TD*%
D11*
%TO.P,K1,1*%
%TO.N,/CTR_ELECT_OUT*%
X175514000Y-115062000D03*
D12*
%TO.P,K1,2*%
%TO.N,/REF_ELECT_OUT*%
X175514000Y-117602000D03*
%TO.P,K1,3*%
%TO.N,/WRK_ELECT_OUT*%
X175514000Y-120142000D03*
%TD*%
D13*
%TO.P,P14,10*%
%TO.N,Net-(P14-Pad10)*%
X66802000Y-134620000D03*
%TO.P,P14,9*%
%TO.N,Net-(P14-Pad9)*%
X66802000Y-132080000D03*
%TO.P,P14,8*%
%TO.N,Net-(P14-Pad8)*%
X69342000Y-134620000D03*
%TO.P,P14,7*%
%TO.N,Net-(P14-Pad7)*%
X69342000Y-132080000D03*
%TO.P,P14,6*%
%TO.N,Net-(P14-Pad6)*%
X71882000Y-134620000D03*
%TO.P,P14,5*%
%TO.N,/A5_D19*%
X71882000Y-132080000D03*
%TO.P,P14,4*%
%TO.N,/A4_D18*%
X74422000Y-134620000D03*
%TO.P,P14,3*%
%TO.N,/A1_D15*%
X74422000Y-132080000D03*
%TO.P,P14,2*%
%TO.N,/GND*%
X76962000Y-134620000D03*
D14*
%TO.P,P14,1*%
%TO.N,/VEXP*%
X76962000Y-132080000D03*
%TD*%
D13*
%TO.P,P13,10*%
%TO.N,/CS*%
X92710000Y-134620000D03*
%TO.P,P13,9*%
%TO.N,/SCK*%
X92710000Y-132080000D03*
%TO.P,P13,8*%
%TO.N,/PICO*%
X95250000Y-134620000D03*
%TO.P,P13,7*%
%TO.N,/POCI*%
X95250000Y-132080000D03*
%TO.P,P13,6*%
%TO.N,/SDA*%
X97790000Y-134620000D03*
%TO.P,P13,5*%
%TO.N,/SCL*%
X97790000Y-132080000D03*
%TO.P,P13,4*%
%TO.N,/RX_D0*%
X100330000Y-134620000D03*
%TO.P,P13,3*%
%TO.N,/TX_D1*%
X100330000Y-132080000D03*
%TO.P,P13,2*%
%TO.N,/GND*%
X102870000Y-134620000D03*
D14*
%TO.P,P13,1*%
%TO.N,/VUEXT*%
X102870000Y-132080000D03*
%TD*%
D11*
%TO.P,P7,1*%
%TO.N,/DAC_BIP*%
X129540000Y-53340000D03*
D12*
%TO.P,P7,2*%
X129540000Y-55880000D03*
%TD*%
D11*
%TO.P,P9,1*%
%TO.N,/DAC_BIP_NX*%
X137668000Y-53340000D03*
D12*
%TO.P,P9,2*%
X137668000Y-55880000D03*
%TD*%
D11*
%TO.P,P20,1*%
%TO.N,/CTR_ELECT*%
X163068000Y-134366000D03*
D12*
%TO.P,P20,2*%
X163068000Y-136906000D03*
%TD*%
%TO.P,P21,2*%
%TO.N,/REF_ELECT_UNI*%
X145796000Y-56134000D03*
D11*
%TO.P,P21,1*%
X145796000Y-53594000D03*
%TD*%
%TO.P,P19,1*%
%TO.N,/REF_ELECT_BUF*%
X153924000Y-53340000D03*
D12*
%TO.P,P19,2*%
X153924000Y-55880000D03*
%TD*%
D11*
%TO.P,P6,1*%
%TO.N,/DAC_UNI*%
X121412000Y-53340000D03*
D12*
%TO.P,P6,2*%
X121412000Y-55880000D03*
%TD*%
D11*
%TO.P,P10,1*%
%TO.N,/REF_0V6*%
X105156000Y-53340000D03*
D12*
%TO.P,P10,2*%
X105156000Y-55880000D03*
%TD*%
D11*
%TO.P,P12,1*%
%TO.N,/+15V*%
X97028000Y-53340000D03*
D12*
%TO.P,P12,2*%
X97028000Y-55880000D03*
%TD*%
D11*
%TO.P,P11,1*%
%TO.N,/-15V*%
X88900000Y-53340000D03*
D12*
%TO.P,P11,2*%
X88900000Y-55880000D03*
%TD*%
D11*
%TO.P,P4,1*%
%TO.N,/GND*%
X55880000Y-102362000D03*
D12*
%TO.P,P4,2*%
X53340000Y-102362000D03*
%TD*%
D11*
%TO.P,P18,1*%
%TO.N,/TIA_OUT_UNI*%
X140716000Y-134366000D03*
D12*
%TO.P,P18,2*%
X140716000Y-136906000D03*
%TD*%
D11*
%TO.P,P17,1*%
%TO.N,/TIA_OUT_BIP*%
X151892000Y-134366000D03*
D12*
%TO.P,P17,2*%
X151892000Y-136906000D03*
%TD*%
D11*
%TO.P,P8,1*%
%TO.N,/REF_NEG_0V6*%
X113284000Y-53340000D03*
D12*
%TO.P,P8,2*%
X113284000Y-55880000D03*
%TD*%
D11*
%TO.P,P16,1*%
%TO.N,/5V*%
X127254000Y-137160000D03*
D12*
%TO.P,P16,2*%
%TO.N,/VEXP*%
X127254000Y-134620000D03*
%TO.P,P16,3*%
%TO.N,/3V3*%
X129794000Y-137160000D03*
%TO.P,P16,4*%
%TO.N,/VEXP*%
X129794000Y-134620000D03*
%TD*%
D11*
%TO.P,P15,1*%
%TO.N,/5V*%
X115824000Y-137160000D03*
D12*
%TO.P,P15,2*%
%TO.N,/VUEXT*%
X115824000Y-134620000D03*
%TO.P,P15,3*%
%TO.N,/3V3*%
X118364000Y-137160000D03*
%TO.P,P15,4*%
%TO.N,/VUEXT*%
X118364000Y-134620000D03*
%TD*%
D15*
%TO.P,H3,*%
%TO.N,*%
X173990000Y-135890000D03*
%TD*%
%TO.P,H4,*%
%TO.N,*%
X54610000Y-135890000D03*
%TD*%
%TO.P,H1,*%
%TO.N,*%
X54610000Y-54610000D03*
%TD*%
%TO.P,H2,*%
%TO.N,*%
X173990000Y-54610000D03*
%TD*%
D11*
%TO.P,P22,1*%
%TO.N,/REF_ELECT_BIP*%
X162052000Y-53340000D03*
D12*
%TO.P,P22,2*%
X162052000Y-55880000D03*
%TD*%
%TO.P,P1,2*%
%TO.N,/GND*%
X189230000Y-72390000D03*
D11*
%TO.P,P1,1*%
%TO.N,/CTR_ELECT_OUT*%
X189230000Y-69850000D03*
%TD*%
%TO.P,P2,1*%
%TO.N,/REF_ELECT_OUT*%
X189230000Y-81280000D03*
D12*
%TO.P,P2,2*%
%TO.N,/GND*%
X189230000Y-83820000D03*
%TD*%
%TO.P,P3,2*%
%TO.N,/GND*%
X189230000Y-95250000D03*
D11*
%TO.P,P3,1*%
%TO.N,/WRK_ELECT_OUT*%
X189230000Y-92710000D03*
%TD*%
D10*
%TO.P,U6,1*%
%TO.N,/5V*%
X64008000Y-54102000D03*
%TO.P,U6,2*%
%TO.N,/GND*%
X66548000Y-54102000D03*
%TO.P,U6,4*%
%TO.N,/-15V*%
X71628000Y-54102000D03*
%TO.P,U6,5*%
%TO.N,/GND*%
X74168000Y-54102000D03*
%TO.P,U6,6*%
%TO.N,/+15V*%
X76708000Y-54102000D03*
%TD*%
D16*
%TO.N,/3V3*%
X172464400Y-71108600D03*
X144974000Y-77380700D03*
X155057700Y-119727200D03*
X171863900Y-104961700D03*
%TO.N,/CTR_ELECT*%
X166775700Y-102385000D03*
%TO.N,/DAC_BIP*%
X128104600Y-78994000D03*
%TO.N,/DAC_BIP_NX*%
X159905900Y-89933000D03*
X147873900Y-68530500D03*
X131388100Y-67336000D03*
%TO.N,/DAC_UNI*%
X108591800Y-90610000D03*
X119444000Y-75695600D03*
%TO.N,/GND*%
X110877800Y-115597200D03*
X140408400Y-94252200D03*
X145033500Y-89474200D03*
X158974900Y-117595700D03*
X106472300Y-119819000D03*
X146472000Y-105029000D03*
X159530400Y-92148300D03*
X156244700Y-95434000D03*
%TO.N,/REF_0V6*%
X111143700Y-78563700D03*
%TO.N,/REF_ELECT_BUF*%
X161048500Y-79494600D03*
X161619400Y-87492400D03*
%TO.N,/REF_ELECT_UNI*%
X114073500Y-96026400D03*
%TO.N,/TIA_OUT_BIP*%
X125927000Y-107084300D03*
X106584700Y-106917500D03*
%TO.N,/TIA_OUT_UNI*%
X105358100Y-101121300D03*
%TO.N,/-15V*%
X121137500Y-106172000D03*
X144166600Y-87455100D03*
X99113200Y-83058000D03*
X137617500Y-95140600D03*
X142631500Y-109453700D03*
%TO.N,/+15V*%
X146558100Y-77451800D03*
X158843300Y-110977900D03*
X168475000Y-100402100D03*
X128010300Y-67171600D03*
X125916600Y-74458400D03*
X148476400Y-96486500D03*
%TO.N,Net-(C25-Pad1)*%
X144275200Y-113690600D03*
X124391000Y-115951000D03*
%TO.N,Net-(C26-Pad1)*%
X132403200Y-121512400D03*
X125254500Y-121031000D03*
%TO.N,Net-(C27-Pad1)*%
X151572400Y-121031000D03*
X129837900Y-122301000D03*
%TO.N,Net-(C28-Pad1)*%
X150429500Y-117331700D03*
X130219500Y-116219100D03*
%TO.N,/CTR_ELECT_OUT*%
X167754400Y-104634500D03*
%TO.N,/REF_NEG_0V6*%
X113002800Y-98847800D03*
X125674900Y-87101900D03*
X110539100Y-69082500D03*
%TO.N,/REF_ELECT_BIP*%
X147406400Y-93665900D03*
X167957800Y-81381600D03*
%TO.N,Net-(R10-Pad2)*%
X145013200Y-65339300D03*
X147581100Y-66901100D03*
%TO.N,/SW_GAIN_1X*%
X110502000Y-100038100D03*
X146835900Y-72592500D03*
%TO.N,/SW_GAIN_2X*%
X66123000Y-108275900D03*
X141097000Y-71796800D03*
%TO.N,/SW_GAIN_5X*%
X111308100Y-100781700D03*
X140129500Y-75747700D03*
%TO.N,/SW_GAIN_10X*%
X112528600Y-101962400D03*
X149678900Y-76743400D03*
%TO.N,/REF_GAIN_A0*%
X76815400Y-68317400D03*
%TO.N,/SW_WRK_ELECT*%
X63187500Y-118691300D03*
%TO.N,/SW_REF_ELECT*%
X132997200Y-101195700D03*
%TO.N,/SW_CTR_ELECT*%
X134828200Y-100472700D03*
%TO.N,/TIA_GAIN_A1*%
X77708000Y-103881300D03*
%TO.N,/TIA_GAIN_A0*%
X79632100Y-106364100D03*
%TO.N,/SW_GAIN_INV_2X*%
X69505300Y-67884000D03*
X160935800Y-72993300D03*
%TO.N,/SW_GAIN_INV_5X*%
X71224200Y-72165600D03*
X160344500Y-74543400D03*
%TO.N,/SW_TIA_GAIN_4*%
X119218100Y-121653700D03*
X150858600Y-115083300D03*
X129432500Y-115325800D03*
%TO.N,/SW_TIA_GAIN_3*%
X149924700Y-123671300D03*
X129819100Y-123571000D03*
%TO.N,/SW_TIA_GAIN_2*%
X146051300Y-123977800D03*
X126054600Y-123645200D03*
%TO.N,/SW_TIA_GAIN_1*%
X146398200Y-114770700D03*
X125069600Y-117891200D03*
%TD*%
D17*
%TO.N,/3V3*%
X159384300Y-111816400D02*
X158488600Y-111816400D01*
X158488600Y-111816400D02*
X145872000Y-99199800D01*
X145872000Y-99199800D02*
X145872000Y-78278700D01*
X145872000Y-78278700D02*
X144974000Y-77380700D01*
X168582600Y-101546500D02*
X166428400Y-101546500D01*
X166428400Y-101546500D02*
X159681800Y-108293100D01*
X159681800Y-108293100D02*
X159681800Y-111518900D01*
X159681800Y-111518900D02*
X159384300Y-111816400D01*
X172464400Y-71108600D02*
X172464400Y-97664700D01*
X172464400Y-97664700D02*
X168582600Y-101546500D01*
X171863900Y-104961700D02*
X168582600Y-101680400D01*
X168582600Y-101680400D02*
X168582600Y-101546500D01*
X155057700Y-119727200D02*
X158063100Y-119727200D01*
X158063100Y-119727200D02*
X159819300Y-117971000D01*
X159819300Y-117971000D02*
X159819300Y-112251400D01*
X159819300Y-112251400D02*
X159384300Y-111816400D01*
X155057700Y-119727200D02*
X155057700Y-135392600D01*
X155057700Y-135392600D02*
X152373500Y-138076800D01*
X152373500Y-138076800D02*
X130710800Y-138076800D01*
X130710800Y-138076800D02*
X129794000Y-137160000D01*
%TO.N,/5V*%
X57620000Y-79180000D02*
X58928000Y-80488000D01*
X58928000Y-80488000D02*
X58928000Y-118322300D01*
X58928000Y-118322300D02*
X70612000Y-130006300D01*
X70612000Y-130006300D02*
X70612000Y-135187400D01*
X70612000Y-135187400D02*
X72584600Y-137160000D01*
X72584600Y-137160000D02*
X115824000Y-137160000D01*
X115824000Y-137160000D02*
X116980000Y-137160000D01*
X116980000Y-137160000D02*
X116980000Y-137449100D01*
X116980000Y-137449100D02*
X117846900Y-138316000D01*
X117846900Y-138316000D02*
X124942000Y-138316000D01*
X124942000Y-138316000D02*
X126098000Y-137160000D01*
X127254000Y-137160000D02*
X126098000Y-137160000D01*
D18*
%TO.N,/CS*%
X92710000Y-134620000D02*
X93980000Y-133350000D01*
X93980000Y-133350000D02*
X98198100Y-133350000D01*
X98198100Y-133350000D02*
X99006100Y-132542000D01*
X99006100Y-132542000D02*
X99006100Y-107866100D01*
X99006100Y-107866100D02*
X85560000Y-94420000D01*
%TO.N,/CTR_ELECT*%
X166775700Y-102385000D02*
X163068000Y-106092700D01*
X163068000Y-106092700D02*
X163068000Y-134366000D01*
X163068000Y-136906000D02*
X163068000Y-134366000D01*
%TO.N,/DAC_BIP*%
X129540000Y-55880000D02*
X129540000Y-77558600D01*
X129540000Y-77558600D02*
X128104600Y-78994000D01*
X129540000Y-53340000D02*
X129540000Y-55880000D01*
%TO.N,/DAC_BIP_NX*%
X159905900Y-89933000D02*
X159905900Y-76078100D01*
X159905900Y-76078100D02*
X161119500Y-74864500D01*
X161119500Y-74864500D02*
X161119500Y-74222300D01*
X161119500Y-74222300D02*
X160665600Y-73768400D01*
X160665600Y-73768400D02*
X154107000Y-73768400D01*
X154107000Y-73768400D02*
X148371500Y-68032900D01*
X148371500Y-68032900D02*
X147873900Y-68530500D01*
X138760500Y-53340000D02*
X139648500Y-52452000D01*
X139648500Y-52452000D02*
X146649300Y-52452000D01*
X146649300Y-52452000D02*
X148371500Y-54174200D01*
X148371500Y-54174200D02*
X148371500Y-68032900D01*
X137668000Y-53340000D02*
X138760500Y-53340000D01*
X137668000Y-55880000D02*
X137668000Y-61056100D01*
X137668000Y-61056100D02*
X131388100Y-67336000D01*
X137668000Y-53340000D02*
X137668000Y-55880000D01*
%TO.N,/DAC_UNI*%
X121412000Y-55880000D02*
X121412000Y-53340000D01*
X119444000Y-75695600D02*
X119444000Y-57848000D01*
X119444000Y-57848000D02*
X121412000Y-55880000D01*
X119444000Y-75695600D02*
X119444000Y-79757800D01*
X119444000Y-79757800D02*
X108591800Y-90610000D01*
D17*
%TO.N,/GND*%
X106472300Y-119819000D02*
X106656000Y-119819000D01*
X106656000Y-119819000D02*
X110877800Y-115597200D01*
X102870000Y-134620000D02*
X103303300Y-134620000D01*
X103303300Y-134620000D02*
X106472300Y-131451000D01*
X106472300Y-131451000D02*
X106472300Y-119819000D01*
X189230000Y-72390000D02*
X190386100Y-73546100D01*
X190386100Y-73546100D02*
X190386100Y-82663900D01*
X190386100Y-82663900D02*
X189230000Y-83820000D01*
X140408400Y-94252200D02*
X140408400Y-98965400D01*
X140408400Y-98965400D02*
X146472000Y-105029000D01*
X145033500Y-89474200D02*
X140408400Y-94099300D01*
X140408400Y-94099300D02*
X140408400Y-94252200D01*
X55880000Y-102362000D02*
X55880000Y-101206000D01*
X55080000Y-79180000D02*
X56350000Y-80450000D01*
X56350000Y-80450000D02*
X56350000Y-100736000D01*
X56350000Y-100736000D02*
X55880000Y-101206000D01*
X156244700Y-95434000D02*
X159530400Y-92148300D01*
X74168000Y-54102000D02*
X72924900Y-55345100D01*
X72924900Y-55345100D02*
X67791100Y-55345100D01*
X67791100Y-55345100D02*
X66548000Y-54102000D01*
X146472000Y-105029000D02*
X158974900Y-117531900D01*
X158974900Y-117531900D02*
X158974900Y-117595700D01*
X53340000Y-68580000D02*
X55880000Y-68580000D01*
D18*
%TO.N,/REF_0V6*%
X105156000Y-55880000D02*
X105156000Y-72576000D01*
X105156000Y-72576000D02*
X111143700Y-78563700D01*
X105156000Y-53340000D02*
X105156000Y-55880000D01*
%TO.N,/REF_ELECT_BUF*%
X161547700Y-79490100D02*
X161053000Y-79490100D01*
X161053000Y-79490100D02*
X161048500Y-79494600D01*
X161547700Y-79490100D02*
X161710800Y-79327000D01*
X161710800Y-79327000D02*
X161710800Y-63666800D01*
X161710800Y-63666800D02*
X153924000Y-55880000D01*
X161619400Y-87492400D02*
X161619400Y-79561800D01*
X161619400Y-79561800D02*
X161547700Y-79490100D01*
X153924000Y-55880000D02*
X153924000Y-53340000D01*
%TO.N,/REF_ELECT_UNI*%
X145796000Y-56134000D02*
X145796000Y-53594000D01*
X114073500Y-96026400D02*
X130085700Y-80014200D01*
X130085700Y-80014200D02*
X130085700Y-71844300D01*
X130085700Y-71844300D02*
X145796000Y-56134000D01*
%TO.N,/SCK*%
X92710000Y-132080000D02*
X81750000Y-121120000D01*
X81750000Y-121120000D02*
X81750000Y-94039800D01*
X81750000Y-94039800D02*
X80964600Y-93254400D01*
X80964600Y-93254400D02*
X79105600Y-93254400D01*
X79105600Y-93254400D02*
X77940000Y-94420000D01*
%TO.N,/SCL*%
X97790000Y-132080000D02*
X84290000Y-118580000D01*
X84290000Y-118580000D02*
X84290000Y-85530000D01*
X84290000Y-85530000D02*
X77940000Y-79180000D01*
%TO.N,/SDA*%
X80480000Y-79180000D02*
X81674400Y-77985600D01*
X81674400Y-77985600D02*
X83473200Y-77985600D01*
X83473200Y-77985600D02*
X84290000Y-78802400D01*
X84290000Y-78802400D02*
X84290000Y-82108800D01*
X84290000Y-82108800D02*
X85171200Y-82990000D01*
X85171200Y-82990000D02*
X85938700Y-82990000D01*
X85938700Y-82990000D02*
X101519600Y-98570900D01*
X101519600Y-98570900D02*
X101519600Y-132564400D01*
X101519600Y-132564400D02*
X100644600Y-133439400D01*
X100644600Y-133439400D02*
X98970600Y-133439400D01*
X98970600Y-133439400D02*
X97790000Y-134620000D01*
%TO.N,/TIA_OUT_BIP*%
X125927000Y-107084300D02*
X130510700Y-111668000D01*
X130510700Y-111668000D02*
X148595700Y-111668000D01*
X148595700Y-111668000D02*
X152379800Y-115452100D01*
X152379800Y-115452100D02*
X152379800Y-132785700D01*
X152379800Y-132785700D02*
X151892000Y-133273500D01*
X106584700Y-106917500D02*
X106751500Y-107084300D01*
X106751500Y-107084300D02*
X125927000Y-107084300D01*
X151892000Y-134366000D02*
X151892000Y-133273500D01*
X151892000Y-136906000D02*
X151892000Y-134366000D01*
%TO.N,/TIA_OUT_UNI*%
X139623500Y-134366000D02*
X138531000Y-133273500D01*
X138531000Y-133273500D02*
X129741900Y-133273500D01*
X129741900Y-133273500D02*
X105358100Y-108889700D01*
X105358100Y-108889700D02*
X105358100Y-101121300D01*
X140716000Y-134366000D02*
X139623500Y-134366000D01*
X140716000Y-136906000D02*
X140716000Y-134366000D01*
D17*
%TO.N,/-15V*%
X137617500Y-105996000D02*
X121313500Y-105996000D01*
X121313500Y-105996000D02*
X121137500Y-106172000D01*
X137617500Y-105996000D02*
X137617500Y-95140600D01*
X142631500Y-109453700D02*
X139173800Y-105996000D01*
X139173800Y-105996000D02*
X137617500Y-105996000D01*
X144166600Y-87455100D02*
X137617500Y-94004200D01*
X137617500Y-94004200D02*
X137617500Y-95140600D01*
X88900000Y-55880000D02*
X88900000Y-72844800D01*
X88900000Y-72844800D02*
X99113200Y-83058000D01*
X88900000Y-53340000D02*
X88900000Y-55880000D01*
X88900000Y-53340000D02*
X87744000Y-53340000D01*
X87744000Y-53340000D02*
X87286400Y-52882400D01*
X87286400Y-52882400D02*
X72847600Y-52882400D01*
X72847600Y-52882400D02*
X71628000Y-54102000D01*
%TO.N,/+15V*%
X148476400Y-96486500D02*
X158489900Y-106500000D01*
X158489900Y-106500000D02*
X158843300Y-106500000D01*
X148476400Y-96486500D02*
X146558100Y-94568200D01*
X146558100Y-94568200D02*
X146558100Y-77451800D01*
X158843300Y-106500000D02*
X158843300Y-110977900D01*
X168475000Y-100402100D02*
X164941200Y-100402100D01*
X164941200Y-100402100D02*
X158843300Y-106500000D01*
X97028000Y-53340000D02*
X97028000Y-55880000D01*
X128010300Y-67171600D02*
X125916600Y-69265300D01*
X125916600Y-69265300D02*
X125916600Y-74458400D01*
D18*
%TO.N,Net-(C25-Pad1)*%
X124391000Y-115951000D02*
X126651400Y-113690600D01*
X126651400Y-113690600D02*
X144275200Y-113690600D01*
%TO.N,Net-(C26-Pad1)*%
X132403200Y-121512400D02*
X131921800Y-121031000D01*
X131921800Y-121031000D02*
X125254500Y-121031000D01*
%TO.N,Net-(C27-Pad1)*%
X151572400Y-121031000D02*
X150302400Y-122301000D01*
X150302400Y-122301000D02*
X129837900Y-122301000D01*
%TO.N,Net-(C28-Pad1)*%
X130219500Y-116219100D02*
X131332100Y-117331700D01*
X131332100Y-117331700D02*
X150429500Y-117331700D01*
%TO.N,/REF_ELECT_OUT*%
X189230000Y-81280000D02*
X189230000Y-82372500D01*
X175514000Y-117602000D02*
X177151400Y-115964600D01*
X177151400Y-115964600D02*
X177151400Y-94314500D01*
X177151400Y-94314500D02*
X189093400Y-82372500D01*
X189093400Y-82372500D02*
X189230000Y-82372500D01*
%TO.N,/CTR_ELECT_OUT*%
X175514000Y-105753100D02*
X175514000Y-115062000D01*
X189230000Y-70942500D02*
X189093400Y-70942500D01*
X189093400Y-70942500D02*
X175514000Y-84521900D01*
X175514000Y-84521900D02*
X175514000Y-105753100D01*
X175514000Y-105753100D02*
X168873000Y-105753100D01*
X168873000Y-105753100D02*
X167754400Y-104634500D01*
X189230000Y-69850000D02*
X189230000Y-70942500D01*
%TO.N,/REF_NEG_0V6*%
X114348700Y-97480100D02*
X124726800Y-87102000D01*
X124726800Y-87102000D02*
X125674900Y-87102000D01*
X125674900Y-87102000D02*
X125674900Y-87101900D01*
X114348700Y-97480100D02*
X107816800Y-90948200D01*
X107816800Y-90948200D02*
X107816800Y-89529000D01*
X107816800Y-89529000D02*
X111927100Y-85418700D01*
X111927100Y-85418700D02*
X111927100Y-69995400D01*
X114348700Y-97480100D02*
X114348700Y-97501900D01*
X114348700Y-97501900D02*
X113002800Y-98847800D01*
X111927100Y-69995400D02*
X111452000Y-69995400D01*
X111452000Y-69995400D02*
X110539100Y-69082500D01*
X113284000Y-55880000D02*
X113284000Y-68638500D01*
X113284000Y-68638500D02*
X111927100Y-69995400D01*
X113284000Y-55880000D02*
X113284000Y-53340000D01*
%TO.N,/REF_ELECT_BIP*%
X167957800Y-81381600D02*
X167957800Y-61785800D01*
X167957800Y-61785800D02*
X162052000Y-55880000D01*
X147406400Y-93665900D02*
X150118400Y-90953900D01*
X150118400Y-90953900D02*
X160000600Y-90953900D01*
X160000600Y-90953900D02*
X167957800Y-82996700D01*
X167957800Y-82996700D02*
X167957800Y-81381600D01*
X162052000Y-55880000D02*
X162052000Y-53340000D01*
%TO.N,Net-(R10-Pad2)*%
X145013200Y-65339300D02*
X146019300Y-65339300D01*
X146019300Y-65339300D02*
X147581100Y-66901100D01*
%TO.N,/SW_GAIN_1X*%
X146835900Y-72592500D02*
X142188800Y-72592500D01*
X142188800Y-72592500D02*
X114686200Y-100095100D01*
X114686200Y-100095100D02*
X111995600Y-100095100D01*
X111995600Y-100095100D02*
X111845000Y-99944500D01*
X111845000Y-99944500D02*
X110595600Y-99944500D01*
X110595600Y-99944500D02*
X110502000Y-100038100D01*
%TO.N,/SW_GAIN_2X*%
X141097000Y-71796800D02*
X141097000Y-72795300D01*
X141097000Y-72795300D02*
X114269400Y-99622900D01*
X114269400Y-99622900D02*
X112672000Y-99622900D01*
X112672000Y-99622900D02*
X79676500Y-66627400D01*
X79676500Y-66627400D02*
X73598600Y-66627400D01*
X73598600Y-66627400D02*
X61517600Y-78708400D01*
X61517600Y-78708400D02*
X61517600Y-80073400D01*
X61517600Y-80073400D02*
X66396100Y-84951900D01*
X66396100Y-84951900D02*
X66396100Y-108002800D01*
X66396100Y-108002800D02*
X66123000Y-108275900D01*
%TO.N,/SW_GAIN_5X*%
X140129500Y-75747700D02*
X115147400Y-100729800D01*
X115147400Y-100729800D02*
X111360000Y-100729800D01*
X111360000Y-100729800D02*
X111308100Y-100781700D01*
%TO.N,/SW_GAIN_10X*%
X112528600Y-101962400D02*
X119296100Y-101962400D01*
X119296100Y-101962400D02*
X144684700Y-76573800D01*
X144684700Y-76573800D02*
X149509300Y-76573800D01*
X149509300Y-76573800D02*
X149678900Y-76743400D01*
%TO.N,/REF_GAIN_A0*%
X76815400Y-68317400D02*
X76815400Y-77764600D01*
X76815400Y-77764600D02*
X75400000Y-79180000D01*
%TO.N,/SW_WRK_ELECT*%
X60160000Y-79180000D02*
X60160000Y-79915100D01*
X60160000Y-79915100D02*
X61322700Y-81077800D01*
X61322700Y-81077800D02*
X61322700Y-116826500D01*
X61322700Y-116826500D02*
X63187500Y-118691300D01*
%TO.N,/SW_REF_ELECT*%
X132997200Y-101195700D02*
X131450600Y-102742300D01*
X131450600Y-102742300D02*
X111456900Y-102742300D01*
X111456900Y-102742300D02*
X108563500Y-99848900D01*
X108563500Y-99848900D02*
X108563500Y-98969400D01*
X108563500Y-98969400D02*
X77136500Y-67542400D01*
X77136500Y-67542400D02*
X76494400Y-67542400D01*
X76494400Y-67542400D02*
X71999200Y-72037600D01*
X71999200Y-72037600D02*
X71999200Y-72524400D01*
X71999200Y-72524400D02*
X71512600Y-73011000D01*
X71512600Y-73011000D02*
X68869000Y-73011000D01*
X68869000Y-73011000D02*
X62700000Y-79180000D01*
%TO.N,/SW_CTR_ELECT*%
X65240000Y-79180000D02*
X66442600Y-77977400D01*
X66442600Y-77977400D02*
X70828100Y-77977400D01*
X70828100Y-77977400D02*
X71590000Y-78739300D01*
X71590000Y-78739300D02*
X71590000Y-79553700D01*
X71590000Y-79553700D02*
X72444900Y-80408600D01*
X72444900Y-80408600D02*
X75870300Y-80408600D01*
X75870300Y-80408600D02*
X76670000Y-79608900D01*
X76670000Y-79608900D02*
X76670000Y-78769100D01*
X76670000Y-78769100D02*
X77938100Y-77501000D01*
X77938100Y-77501000D02*
X85522300Y-77501000D01*
X85522300Y-77501000D02*
X111229900Y-103208600D01*
X111229900Y-103208600D02*
X132092300Y-103208600D01*
X132092300Y-103208600D02*
X134828200Y-100472700D01*
%TO.N,/TIA_GAIN_A1*%
X77708000Y-103881300D02*
X77708000Y-98620900D01*
X77708000Y-98620900D02*
X74130000Y-95042900D01*
X74130000Y-95042900D02*
X74130000Y-85530000D01*
X74130000Y-85530000D02*
X67780000Y-79180000D01*
%TO.N,/TIA_GAIN_A0*%
X70320000Y-79180000D02*
X76770400Y-85630400D01*
X76770400Y-85630400D02*
X76770400Y-95143300D01*
X76770400Y-95143300D02*
X79632100Y-98005000D01*
X79632100Y-98005000D02*
X79632100Y-106364100D01*
%TO.N,/SW_GAIN_INV_2X*%
X160935800Y-72993300D02*
X160935800Y-66009200D01*
X160935800Y-66009200D02*
X146916300Y-51989700D01*
X146916300Y-51989700D02*
X67024600Y-51989700D01*
X67024600Y-51989700D02*
X65382400Y-53631900D01*
X65382400Y-53631900D02*
X65382400Y-63761100D01*
X65382400Y-63761100D02*
X69505300Y-67884000D01*
%TO.N,/SW_GAIN_INV_5X*%
X71224200Y-72165600D02*
X76304900Y-67084900D01*
X76304900Y-67084900D02*
X77326000Y-67084900D01*
X77326000Y-67084900D02*
X109166400Y-98925300D01*
X109166400Y-98925300D02*
X109166400Y-99801100D01*
X109166400Y-99801100D02*
X110922000Y-101556700D01*
X110922000Y-101556700D02*
X111838300Y-101556700D01*
X111838300Y-101556700D02*
X112207600Y-101187400D01*
X112207600Y-101187400D02*
X119423900Y-101187400D01*
X119423900Y-101187400D02*
X146067900Y-74543400D01*
X146067900Y-74543400D02*
X160344500Y-74543400D01*
%TO.N,/SW_TIA_GAIN_4*%
X129432500Y-115325800D02*
X123104600Y-121653700D01*
X123104600Y-121653700D02*
X119218100Y-121653700D01*
X129432500Y-115325800D02*
X145857300Y-115325800D01*
X145857300Y-115325800D02*
X146077200Y-115545700D01*
X146077200Y-115545700D02*
X150396200Y-115545700D01*
X150396200Y-115545700D02*
X150858600Y-115083300D01*
%TO.N,/SW_TIA_GAIN_3*%
X149924700Y-123671300D02*
X149456200Y-123202800D01*
X149456200Y-123202800D02*
X130187300Y-123202800D01*
X130187300Y-123202800D02*
X129819100Y-123571000D01*
%TO.N,/SW_TIA_GAIN_2*%
X126054600Y-123645200D02*
X126789300Y-124379900D01*
X126789300Y-124379900D02*
X145649200Y-124379900D01*
X145649200Y-124379900D02*
X146051300Y-123977800D01*
%TO.N,/SW_TIA_GAIN_1*%
X146398200Y-114770700D02*
X146169400Y-114541900D01*
X146169400Y-114541900D02*
X128418900Y-114541900D01*
X128418900Y-114541900D02*
X125069600Y-117891200D01*
%TO.N,/PICO*%
X95250000Y-134620000D02*
X94069100Y-135800900D01*
X94069100Y-135800900D02*
X92191600Y-135800900D01*
X92191600Y-135800900D02*
X80480000Y-124089300D01*
X80480000Y-124089300D02*
X80480000Y-94420000D01*
%TO.N,/POCI*%
X95250000Y-132080000D02*
X83020000Y-119850000D01*
X83020000Y-119850000D02*
X83020000Y-94420000D01*
%TO.N,/RX_D0*%
X85560000Y-79180000D02*
X104050600Y-97670600D01*
X104050600Y-97670600D02*
X104050600Y-133113000D01*
X104050600Y-133113000D02*
X103903000Y-133260600D01*
X103903000Y-133260600D02*
X101689400Y-133260600D01*
X101689400Y-133260600D02*
X100330000Y-134620000D01*
%TO.N,/TX_D1*%
X83020000Y-79180000D02*
X83020000Y-83360000D01*
X83020000Y-83360000D02*
X85190000Y-85530000D01*
X85190000Y-85530000D02*
X85948800Y-85530000D01*
X85948800Y-85530000D02*
X100330000Y-99911200D01*
X100330000Y-99911200D02*
X100330000Y-132080000D01*
%TO.N,/A5_D19*%
X71882000Y-132080000D02*
X73152000Y-133350000D01*
X73152000Y-133350000D02*
X73152000Y-135030500D01*
X73152000Y-135030500D02*
X73933700Y-135812200D01*
X73933700Y-135812200D02*
X77439400Y-135812200D01*
X77439400Y-135812200D02*
X78483000Y-134768600D01*
X78483000Y-134768600D02*
X78483000Y-97503000D01*
X78483000Y-97503000D02*
X75400000Y-94420000D01*
%TO.N,/A4_D18*%
X74422000Y-134620000D02*
X75608100Y-133433900D01*
X75608100Y-133433900D02*
X75608100Y-97168100D01*
X75608100Y-97168100D02*
X72860000Y-94420000D01*
%TO.N,/A1_D15*%
X74422000Y-132080000D02*
X65240000Y-122898000D01*
X65240000Y-122898000D02*
X65240000Y-94420000D01*
%TD*%
M02*
