M48
; DRILL file {KiCad 5.1.7-a382d34a8~87~ubuntu18.04.1} date Tue Oct 25 10:51:04 2022
; FORMAT={-:-/ absolute / inch / decimal}
; #@! TF.CreationDate,2022-10-25T10:51:04-07:00
; #@! TF.GenerationSoftware,Kicad,Pcbnew,5.1.7-a382d34a8~87~ubuntu18.04.1
; #@! TF.FileFunction,Plated,1,2,PTH
FMAT,2
INCH
T1C0.0250
T2C0.0400
T3C0.1160
%
G90
G05
T1
X2.4877Y-4.6729
X2.6033Y-4.2628
X2.7364Y-2.6726
X2.8041Y-2.8412
X3.0242Y-2.6897
X3.0594Y-4.0898
X3.1351Y-4.1876
X3.9021Y-3.27
X4.148Y-3.9812
X4.1918Y-4.7173
X4.1962Y-4.2094
X4.2753Y-3.5673
X4.3505Y-3.9385
X4.3519Y-2.7198
X4.3653Y-4.5511
X4.3757Y-3.0931
X4.3822Y-3.9678
X4.4303Y-4.0143
X4.4489Y-3.8916
X4.4911Y-3.7806
X4.6936Y-4.7895
X4.7025Y-2.9801
X4.7692Y-4.18
X4.8973Y-4.565
X4.924Y-4.6414
X4.9313Y-4.765
X4.9478Y-3.4292
X4.9573Y-2.9314
X4.9578Y-4.2159
X4.9628Y-4.8679
X5.0398Y-2.6446
X5.0435Y-3.11
X5.0958Y-4.5404
X5.111Y-4.865
X5.1117Y-4.815
X5.1268Y-4.5756
X5.1728Y-2.651
X5.2127Y-4.784
X5.2361Y-3.9841
X5.3082Y-3.9556
X5.418Y-3.7457
X5.5169Y-2.9822
X5.5279Y-3.7107
X5.555Y-2.8266
X5.6154Y-4.3092
X5.6759Y-3.4431
X5.6801Y-4.476
X5.7076Y-3.0465
X5.7092Y-2.5724
X5.71Y-3.5226
X5.7501Y-4.881
X5.7637Y-4.5185
X5.7666Y-4.135
X5.77Y-3.0493
X5.7809Y-2.858
X5.8034Y-3.6876
X5.8103Y-2.6339
X5.8218Y-2.6981
X5.8455Y-3.7987
X5.8929Y-3.0214
X5.9025Y-4.8689
X5.9224Y-4.6194
X5.9393Y-4.5308
X5.9674Y-4.765
X6.1046Y-4.7137
X6.1514Y-3.7572
X6.2537Y-4.3692
X6.2589Y-4.6298
X6.2807Y-3.6279
X6.2955Y-3.5407
X6.3128Y-2.9348
X6.3361Y-2.8738
X6.3405Y-3.1297
X6.363Y-3.4446
X6.566Y-4.0309
X6.6045Y-4.1195
X6.6125Y-3.204
X6.6329Y-3.9528
X6.7663Y-4.1324
X6.7899Y-2.7996
T2
X6.38Y-2.1
X6.38Y-2.2
X5.42Y-2.1
X5.42Y-2.2
X3.65Y-5.2
X3.65Y-5.3
X3.75Y-5.2
X3.75Y-5.3
X3.85Y-5.2
X3.85Y-5.3
X3.95Y-5.2
X3.95Y-5.3
X4.05Y-5.2
X4.05Y-5.3
X4.46Y-2.1
X4.46Y-2.2
X6.42Y-5.29
X6.42Y-5.39
X5.74Y-2.11
X5.74Y-2.21
X4.14Y-2.1
X4.14Y-2.2
X4.78Y-2.1
X4.78Y-2.2
X4.56Y-5.3
X4.56Y-5.4
X4.66Y-5.3
X4.66Y-5.4
X7.45Y-3.2
X7.45Y-3.3
X2.1Y-4.03
X2.2Y-4.03
X5.01Y-5.3
X5.01Y-5.4
X5.11Y-5.3
X5.11Y-5.4
X7.45Y-2.75
X7.45Y-2.85
X3.82Y-2.1
X3.82Y-2.2
X3.5Y-2.1
X3.5Y-2.2
X7.45Y-3.65
X7.45Y-3.75
X6.91Y-4.53
X6.91Y-4.63
X6.91Y-4.73
X2.52Y-2.13
X2.62Y-2.13
X2.82Y-2.13
X2.92Y-2.13
X3.02Y-2.13
X2.0685Y-3.1173
X2.0685Y-3.7173
X2.1685Y-3.1173
X2.1685Y-3.7173
X2.2685Y-3.1173
X2.2685Y-3.7173
X2.3685Y-3.1173
X2.3685Y-3.7173
X2.4685Y-3.1173
X2.4685Y-3.7173
X2.5685Y-3.1173
X2.5685Y-3.7173
X2.6685Y-3.1173
X2.6685Y-3.7173
X2.7685Y-3.1173
X2.7685Y-3.7173
X2.8685Y-3.1173
X2.8685Y-3.7173
X2.9685Y-3.1173
X2.9685Y-3.7173
X3.0685Y-3.1173
X3.0685Y-3.7173
X3.1685Y-3.1173
X3.1685Y-3.7173
X3.2685Y-3.1173
X3.2685Y-3.7173
X3.3685Y-3.1173
X3.3685Y-3.2173
X3.3685Y-3.3173
X3.3685Y-3.4173
X3.3685Y-3.5173
X3.3685Y-3.6173
X3.3685Y-3.7173
X2.1Y-2.7
X2.2Y-2.7
X2.63Y-5.2
X2.63Y-5.3
X2.73Y-5.2
X2.73Y-5.3
X2.83Y-5.2
X2.83Y-5.3
X2.93Y-5.2
X2.93Y-5.3
X3.03Y-5.2
X3.03Y-5.3
X5.98Y-5.29
X5.98Y-5.39
X5.1Y-2.1
X5.1Y-2.2
X5.54Y-5.29
X5.54Y-5.39
X6.06Y-2.1
X6.06Y-2.2
T3
X6.85Y-5.35
X2.15Y-2.15
X2.15Y-5.35
X6.85Y-2.15
T0
M30
