%TF.GenerationSoftware,KiCad,Pcbnew,5.1.7-a382d34a8~87~ubuntu18.04.1*%
%TF.CreationDate,2022-08-29T12:24:22-07:00*%
%TF.ProjectId,smt_dummy_cell,736d745f-6475-46d6-9d79-5f63656c6c2e,rev?*%
%TF.SameCoordinates,Original*%
%TF.FileFunction,Legend,Bot*%
%TF.FilePolarity,Positive*%
%FSLAX46Y46*%
G04 Gerber Fmt 4.6, Leading zero omitted, Abs format (unit mm)*
G04 Created by KiCad (PCBNEW 5.1.7-a382d34a8~87~ubuntu18.04.1) date 2022-08-29 12:24:22*
%MOMM*%
%LPD*%
G01*
G04 APERTURE LIST*
%ADD10C,0.150000*%
G04 APERTURE END LIST*
D10*
X55885714Y-56261904D02*
X56552380Y-56452380D01*
X56076190Y-56642857D01*
X56552380Y-56833333D01*
X55885714Y-57023809D01*
X55885714Y-57309523D02*
X56552380Y-57500000D01*
X56076190Y-57690476D01*
X56552380Y-57880952D01*
X55885714Y-58071428D01*
X55885714Y-58357142D02*
X56552380Y-58547619D01*
X56076190Y-58738095D01*
X56552380Y-58928571D01*
X55885714Y-59119047D01*
X56457142Y-59499999D02*
X56504761Y-59547619D01*
X56552380Y-59499999D01*
X56504761Y-59452380D01*
X56457142Y-59499999D01*
X56552380Y-59499999D01*
X56552380Y-59976190D02*
X55885714Y-59976190D01*
X55552380Y-59976190D02*
X55600000Y-59928571D01*
X55647619Y-59976190D01*
X55600000Y-60023809D01*
X55552380Y-59976190D01*
X55647619Y-59976190D01*
X56552380Y-60595238D02*
X56504761Y-60499999D01*
X56457142Y-60452380D01*
X56361904Y-60404761D01*
X56076190Y-60404761D01*
X55980952Y-60452380D01*
X55933333Y-60499999D01*
X55885714Y-60595238D01*
X55885714Y-60738095D01*
X55933333Y-60833333D01*
X55980952Y-60880952D01*
X56076190Y-60928571D01*
X56361904Y-60928571D01*
X56457142Y-60880952D01*
X56504761Y-60833333D01*
X56552380Y-60738095D01*
X56552380Y-60595238D01*
X56552380Y-61357142D02*
X55885714Y-61357142D01*
X56076190Y-61357142D02*
X55980952Y-61404761D01*
X55933333Y-61452380D01*
X55885714Y-61547619D01*
X55885714Y-61642857D01*
X56552380Y-62119047D02*
X56504761Y-62023809D01*
X56457142Y-61976190D01*
X56361904Y-61928571D01*
X56076190Y-61928571D01*
X55980952Y-61976190D01*
X55933333Y-62023809D01*
X55885714Y-62119047D01*
X55885714Y-62261904D01*
X55933333Y-62357142D01*
X55980952Y-62404761D01*
X56076190Y-62452380D01*
X56361904Y-62452380D01*
X56457142Y-62404761D01*
X56504761Y-62357142D01*
X56552380Y-62261904D01*
X56552380Y-62119047D01*
X56552380Y-63309523D02*
X55552380Y-63309523D01*
X56504761Y-63309523D02*
X56552380Y-63214285D01*
X56552380Y-63023809D01*
X56504761Y-62928571D01*
X56457142Y-62880952D01*
X56361904Y-62833333D01*
X56076190Y-62833333D01*
X55980952Y-62880952D01*
X55933333Y-62928571D01*
X55885714Y-63023809D01*
X55885714Y-63214285D01*
X55933333Y-63309523D01*
X56504761Y-64166666D02*
X56552380Y-64071428D01*
X56552380Y-63880952D01*
X56504761Y-63785714D01*
X56409523Y-63738095D01*
X56028571Y-63738095D01*
X55933333Y-63785714D01*
X55885714Y-63880952D01*
X55885714Y-64071428D01*
X55933333Y-64166666D01*
X56028571Y-64214285D01*
X56123809Y-64214285D01*
X56219047Y-63738095D01*
X56552380Y-64785714D02*
X56504761Y-64690476D01*
X56457142Y-64642857D01*
X56361904Y-64595238D01*
X56076190Y-64595238D01*
X55980952Y-64642857D01*
X55933333Y-64690476D01*
X55885714Y-64785714D01*
X55885714Y-64928571D01*
X55933333Y-65023809D01*
X55980952Y-65071428D01*
X56076190Y-65119047D01*
X56361904Y-65119047D01*
X56457142Y-65071428D01*
X56504761Y-65023809D01*
X56552380Y-64928571D01*
X56552380Y-64785714D01*
X56457142Y-65547619D02*
X56504761Y-65595238D01*
X56552380Y-65547619D01*
X56504761Y-65499999D01*
X56457142Y-65547619D01*
X56552380Y-65547619D01*
X56504761Y-66452380D02*
X56552380Y-66357142D01*
X56552380Y-66166666D01*
X56504761Y-66071428D01*
X56457142Y-66023809D01*
X56361904Y-65976190D01*
X56076190Y-65976190D01*
X55980952Y-66023809D01*
X55933333Y-66071428D01*
X55885714Y-66166666D01*
X55885714Y-66357142D01*
X55933333Y-66452380D01*
X56552380Y-67023809D02*
X56504761Y-66928571D01*
X56457142Y-66880952D01*
X56361904Y-66833333D01*
X56076190Y-66833333D01*
X55980952Y-66880952D01*
X55933333Y-66928571D01*
X55885714Y-67023809D01*
X55885714Y-67166666D01*
X55933333Y-67261904D01*
X55980952Y-67309523D01*
X56076190Y-67357142D01*
X56361904Y-67357142D01*
X56457142Y-67309523D01*
X56504761Y-67261904D01*
X56552380Y-67166666D01*
X56552380Y-67023809D01*
X56552380Y-67785714D02*
X55885714Y-67785714D01*
X55980952Y-67785714D02*
X55933333Y-67833333D01*
X55885714Y-67928571D01*
X55885714Y-68071428D01*
X55933333Y-68166666D01*
X56028571Y-68214285D01*
X56552380Y-68214285D01*
X56028571Y-68214285D02*
X55933333Y-68261904D01*
X55885714Y-68357142D01*
X55885714Y-68500000D01*
X55933333Y-68595238D01*
X56028571Y-68642857D01*
X56552380Y-68642857D01*
X54202380Y-54880952D02*
X53202380Y-54880952D01*
X53202380Y-55119047D01*
X53250000Y-55261904D01*
X53345238Y-55357142D01*
X53440476Y-55404761D01*
X53630952Y-55452380D01*
X53773809Y-55452380D01*
X53964285Y-55404761D01*
X54059523Y-55357142D01*
X54154761Y-55261904D01*
X54202380Y-55119047D01*
X54202380Y-54880952D01*
X53535714Y-56309523D02*
X54202380Y-56309523D01*
X53535714Y-55880952D02*
X54059523Y-55880952D01*
X54154761Y-55928571D01*
X54202380Y-56023809D01*
X54202380Y-56166666D01*
X54154761Y-56261904D01*
X54107142Y-56309523D01*
X54202380Y-56785714D02*
X53535714Y-56785714D01*
X53630952Y-56785714D02*
X53583333Y-56833333D01*
X53535714Y-56928571D01*
X53535714Y-57071428D01*
X53583333Y-57166666D01*
X53678571Y-57214285D01*
X54202380Y-57214285D01*
X53678571Y-57214285D02*
X53583333Y-57261904D01*
X53535714Y-57357142D01*
X53535714Y-57500000D01*
X53583333Y-57595238D01*
X53678571Y-57642857D01*
X54202380Y-57642857D01*
X54202380Y-58119047D02*
X53535714Y-58119047D01*
X53630952Y-58119047D02*
X53583333Y-58166666D01*
X53535714Y-58261904D01*
X53535714Y-58404761D01*
X53583333Y-58500000D01*
X53678571Y-58547619D01*
X54202380Y-58547619D01*
X53678571Y-58547619D02*
X53583333Y-58595238D01*
X53535714Y-58690476D01*
X53535714Y-58833333D01*
X53583333Y-58928571D01*
X53678571Y-58976190D01*
X54202380Y-58976190D01*
X53535714Y-59357142D02*
X54202380Y-59595238D01*
X53535714Y-59833333D02*
X54202380Y-59595238D01*
X54440476Y-59500000D01*
X54488095Y-59452380D01*
X54535714Y-59357142D01*
X54107142Y-61547619D02*
X54154761Y-61500000D01*
X54202380Y-61357142D01*
X54202380Y-61261904D01*
X54154761Y-61119047D01*
X54059523Y-61023809D01*
X53964285Y-60976190D01*
X53773809Y-60928571D01*
X53630952Y-60928571D01*
X53440476Y-60976190D01*
X53345238Y-61023809D01*
X53250000Y-61119047D01*
X53202380Y-61261904D01*
X53202380Y-61357142D01*
X53250000Y-61500000D01*
X53297619Y-61547619D01*
X54154761Y-62357142D02*
X54202380Y-62261904D01*
X54202380Y-62071428D01*
X54154761Y-61976190D01*
X54059523Y-61928571D01*
X53678571Y-61928571D01*
X53583333Y-61976190D01*
X53535714Y-62071428D01*
X53535714Y-62261904D01*
X53583333Y-62357142D01*
X53678571Y-62404761D01*
X53773809Y-62404761D01*
X53869047Y-61928571D01*
X54202380Y-62976190D02*
X54154761Y-62880952D01*
X54059523Y-62833333D01*
X53202380Y-62833333D01*
X54202380Y-63500000D02*
X54154761Y-63404761D01*
X54059523Y-63357142D01*
X53202380Y-63357142D01*
X53202380Y-64500000D02*
X54202380Y-64833333D01*
X53202380Y-65166666D01*
X53202380Y-65690476D02*
X53202380Y-65785714D01*
X53250000Y-65880952D01*
X53297619Y-65928571D01*
X53392857Y-65976190D01*
X53583333Y-66023809D01*
X53821428Y-66023809D01*
X54011904Y-65976190D01*
X54107142Y-65928571D01*
X54154761Y-65880952D01*
X54202380Y-65785714D01*
X54202380Y-65690476D01*
X54154761Y-65595238D01*
X54107142Y-65547619D01*
X54011904Y-65500000D01*
X53821428Y-65452380D01*
X53583333Y-65452380D01*
X53392857Y-65500000D01*
X53297619Y-65547619D01*
X53250000Y-65595238D01*
X53202380Y-65690476D01*
X54107142Y-66452380D02*
X54154761Y-66500000D01*
X54202380Y-66452380D01*
X54154761Y-66404761D01*
X54107142Y-66452380D01*
X54202380Y-66452380D01*
X53297619Y-66880952D02*
X53250000Y-66928571D01*
X53202380Y-67023809D01*
X53202380Y-67261904D01*
X53250000Y-67357142D01*
X53297619Y-67404761D01*
X53392857Y-67452380D01*
X53488095Y-67452380D01*
X53630952Y-67404761D01*
X54202380Y-66833333D01*
X54202380Y-67452380D01*
X54202380Y-69214285D02*
X53726190Y-68880952D01*
X54202380Y-68642857D02*
X53202380Y-68642857D01*
X53202380Y-69023809D01*
X53250000Y-69119047D01*
X53297619Y-69166666D01*
X53392857Y-69214285D01*
X53535714Y-69214285D01*
X53630952Y-69166666D01*
X53678571Y-69119047D01*
X53726190Y-69023809D01*
X53726190Y-68642857D01*
X53297619Y-69595238D02*
X53250000Y-69642857D01*
X53202380Y-69738095D01*
X53202380Y-69976190D01*
X53250000Y-70071428D01*
X53297619Y-70119047D01*
X53392857Y-70166666D01*
X53488095Y-70166666D01*
X53630952Y-70119047D01*
X54202380Y-69547619D01*
X54202380Y-70166666D01*
M02*
