%TF.GenerationSoftware,KiCad,Pcbnew,5.1.7-a382d34a8~87~ubuntu18.04.1*%
%TF.CreationDate,2022-08-29T12:24:22-07:00*%
%TF.ProjectId,smt_dummy_cell,736d745f-6475-46d6-9d79-5f63656c6c2e,rev?*%
%TF.SameCoordinates,Original*%
%TF.FileFunction,Legend,Top*%
%TF.FilePolarity,Positive*%
%FSLAX46Y46*%
G04 Gerber Fmt 4.6, Leading zero omitted, Abs format (unit mm)*
G04 Created by KiCad (PCBNEW 5.1.7-a382d34a8~87~ubuntu18.04.1) date 2022-08-29 12:24:22*
%MOMM*%
%LPD*%
G01*
G04 APERTURE LIST*
%ADD10C,0.250000*%
%ADD11C,0.150000*%
%ADD12C,0.120000*%
%ADD13C,0.203200*%
G04 APERTURE END LIST*
D10*
X54285714Y-72478571D02*
X53571428Y-72478571D01*
X53500000Y-73192857D01*
X53571428Y-73121428D01*
X53714285Y-73050000D01*
X54071428Y-73050000D01*
X54214285Y-73121428D01*
X54285714Y-73192857D01*
X54357142Y-73335714D01*
X54357142Y-73692857D01*
X54285714Y-73835714D01*
X54214285Y-73907142D01*
X54071428Y-73978571D01*
X53714285Y-73978571D01*
X53571428Y-73907142D01*
X53500000Y-73835714D01*
X55285714Y-72478571D02*
X55428571Y-72478571D01*
X55571428Y-72550000D01*
X55642857Y-72621428D01*
X55714285Y-72764285D01*
X55785714Y-73050000D01*
X55785714Y-73407142D01*
X55714285Y-73692857D01*
X55642857Y-73835714D01*
X55571428Y-73907142D01*
X55428571Y-73978571D01*
X55285714Y-73978571D01*
X55142857Y-73907142D01*
X55071428Y-73835714D01*
X55000000Y-73692857D01*
X54928571Y-73407142D01*
X54928571Y-73050000D01*
X55000000Y-72764285D01*
X55071428Y-72621428D01*
X55142857Y-72550000D01*
X55285714Y-72478571D01*
X56428571Y-73978571D02*
X56428571Y-72478571D01*
X56571428Y-73407142D02*
X57000000Y-73978571D01*
X57000000Y-72978571D02*
X56428571Y-73550000D01*
D11*
X57957142Y-64871428D02*
X58004761Y-64919047D01*
X58052380Y-65061904D01*
X58052380Y-65157142D01*
X58004761Y-65300000D01*
X57909523Y-65395238D01*
X57814285Y-65442857D01*
X57623809Y-65490476D01*
X57480952Y-65490476D01*
X57290476Y-65442857D01*
X57195238Y-65395238D01*
X57100000Y-65300000D01*
X57052380Y-65157142D01*
X57052380Y-65061904D01*
X57100000Y-64919047D01*
X57147619Y-64871428D01*
X57052380Y-64585714D02*
X57052380Y-64014285D01*
X58052380Y-64300000D02*
X57052380Y-64300000D01*
X58052380Y-63109523D02*
X57576190Y-63442857D01*
X58052380Y-63680952D02*
X57052380Y-63680952D01*
X57052380Y-63300000D01*
X57100000Y-63204761D01*
X57147619Y-63157142D01*
X57242857Y-63109523D01*
X57385714Y-63109523D01*
X57480952Y-63157142D01*
X57528571Y-63204761D01*
X57576190Y-63300000D01*
X57576190Y-63680952D01*
X55502380Y-64871428D02*
X55026190Y-65204761D01*
X55502380Y-65442857D02*
X54502380Y-65442857D01*
X54502380Y-65061904D01*
X54550000Y-64966666D01*
X54597619Y-64919047D01*
X54692857Y-64871428D01*
X54835714Y-64871428D01*
X54930952Y-64919047D01*
X54978571Y-64966666D01*
X55026190Y-65061904D01*
X55026190Y-65442857D01*
X54978571Y-64442857D02*
X54978571Y-64109523D01*
X55502380Y-63966666D02*
X55502380Y-64442857D01*
X54502380Y-64442857D01*
X54502380Y-63966666D01*
X54978571Y-63204761D02*
X54978571Y-63538095D01*
X55502380Y-63538095D02*
X54502380Y-63538095D01*
X54502380Y-63061904D01*
X51952380Y-65778571D02*
X52952380Y-65540476D01*
X52238095Y-65350000D01*
X52952380Y-65159523D01*
X51952380Y-64921428D01*
X52952380Y-63969047D02*
X52476190Y-64302380D01*
X52952380Y-64540476D02*
X51952380Y-64540476D01*
X51952380Y-64159523D01*
X52000000Y-64064285D01*
X52047619Y-64016666D01*
X52142857Y-63969047D01*
X52285714Y-63969047D01*
X52380952Y-64016666D01*
X52428571Y-64064285D01*
X52476190Y-64159523D01*
X52476190Y-64540476D01*
X52952380Y-63540476D02*
X51952380Y-63540476D01*
X52952380Y-62969047D02*
X52380952Y-63397619D01*
X51952380Y-62969047D02*
X52523809Y-63540476D01*
%TO.C,J1*%
X50765000Y-58525000D02*
X59235000Y-58525000D01*
X50765000Y-50025000D02*
X59235000Y-50025000D01*
X50765000Y-62475000D02*
X59235000Y-62475000D01*
X59235000Y-50025000D02*
X59235000Y-62475000D01*
X50765000Y-50025000D02*
X50765000Y-62475000D01*
D12*
%TO.C,R1*%
X53512742Y-67177500D02*
X53987258Y-67177500D01*
X53512742Y-68222500D02*
X53987258Y-68222500D01*
%TO.C,J1*%
D13*
X54561333Y-55143619D02*
X54561333Y-55869333D01*
X54512952Y-56014476D01*
X54416190Y-56111238D01*
X54271047Y-56159619D01*
X54174285Y-56159619D01*
X55577333Y-56159619D02*
X54996761Y-56159619D01*
X55287047Y-56159619D02*
X55287047Y-55143619D01*
X55190285Y-55288761D01*
X55093523Y-55385523D01*
X54996761Y-55433904D01*
%TO.C,R1*%
D11*
X56383333Y-68302380D02*
X56050000Y-67826190D01*
X55811904Y-68302380D02*
X55811904Y-67302380D01*
X56192857Y-67302380D01*
X56288095Y-67350000D01*
X56335714Y-67397619D01*
X56383333Y-67492857D01*
X56383333Y-67635714D01*
X56335714Y-67730952D01*
X56288095Y-67778571D01*
X56192857Y-67826190D01*
X55811904Y-67826190D01*
X57335714Y-68302380D02*
X56764285Y-68302380D01*
X57050000Y-68302380D02*
X57050000Y-67302380D01*
X56954761Y-67445238D01*
X56859523Y-67540476D01*
X56764285Y-67588095D01*
%TD*%
M02*
