G04 (created by PCBNEW (2013-jul-07)-stable) date Tue 18 Dec 2018 06:03:29 PM PST*
%MOIN*%
G04 Gerber Fmt 3.4, Leading zero omitted, Abs format*
%FSLAX34Y34*%
G01*
G70*
G90*
G04 APERTURE LIST*
%ADD10C,0.00590551*%
%ADD11R,0.02X0.03*%
%ADD12R,0.0315X0.0394*%
%ADD13R,0.055X0.035*%
%ADD14R,0.035X0.055*%
%ADD15R,0.06X0.06*%
%ADD16C,0.06*%
%ADD17R,0.0394X0.0106*%
%ADD18R,0.0779528X0.0208661*%
%ADD19R,0.023622X0.0610236*%
%ADD20R,0.0610236X0.023622*%
%ADD21R,0.07X0.07*%
%ADD22C,0.07*%
%ADD23R,0.0106X0.0394*%
%ADD24C,0.15*%
%ADD25R,0.073X0.073*%
%ADD26C,0.073*%
%ADD27C,0.065*%
%ADD28C,0.035*%
%ADD29C,0.01*%
%ADD30C,0.02*%
%ADD31C,0.0105906*%
G04 APERTURE END LIST*
G54D10*
G54D11*
X28491Y-26698D03*
X29241Y-26698D03*
X28491Y-25698D03*
X28866Y-26698D03*
X29241Y-25698D03*
G54D12*
X39777Y-34474D03*
X40152Y-35340D03*
X39402Y-35340D03*
X64250Y-36683D03*
X63875Y-35817D03*
X64625Y-35817D03*
G54D13*
X38954Y-40873D03*
X38954Y-41623D03*
G54D14*
X43266Y-40704D03*
X44016Y-40704D03*
X60875Y-41500D03*
X61625Y-41500D03*
X61652Y-46074D03*
X60902Y-46074D03*
X60875Y-40250D03*
X61625Y-40250D03*
X61652Y-47492D03*
X60902Y-47492D03*
G54D13*
X36553Y-41623D03*
X36553Y-40873D03*
G54D14*
X43266Y-41925D03*
X44016Y-41925D03*
G54D13*
X35135Y-41623D03*
X35135Y-40873D03*
X40450Y-40873D03*
X40450Y-41623D03*
G54D14*
X57335Y-39271D03*
X56585Y-39271D03*
G54D13*
X56750Y-33875D03*
X56750Y-33125D03*
G54D14*
X54032Y-48309D03*
X53282Y-48309D03*
G54D13*
X53500Y-42699D03*
X53500Y-41949D03*
G54D14*
X62375Y-43250D03*
X63125Y-43250D03*
G54D13*
X64250Y-38625D03*
X64250Y-39375D03*
G54D14*
X51640Y-32472D03*
X50890Y-32472D03*
X51680Y-35464D03*
X50930Y-35464D03*
X48252Y-32433D03*
X49002Y-32433D03*
X51640Y-34047D03*
X50890Y-34047D03*
G54D13*
X45124Y-35128D03*
X45124Y-35878D03*
G54D14*
X41412Y-32742D03*
X40662Y-32742D03*
X38380Y-32702D03*
X37630Y-32702D03*
X49473Y-37551D03*
X50223Y-37551D03*
G54D13*
X46226Y-33083D03*
X46226Y-32333D03*
G54D14*
X53884Y-32472D03*
X53134Y-32472D03*
G54D13*
X24000Y-43225D03*
X24000Y-43975D03*
G54D14*
X24125Y-24000D03*
X24875Y-24000D03*
G54D13*
X30875Y-45999D03*
X30875Y-46749D03*
X29625Y-45999D03*
X29625Y-46749D03*
X59000Y-24875D03*
X59000Y-24125D03*
G54D14*
X61125Y-29000D03*
X61875Y-29000D03*
X61875Y-34000D03*
X61125Y-34000D03*
X61125Y-30250D03*
X61875Y-30250D03*
X61875Y-32750D03*
X61125Y-32750D03*
G54D13*
X37750Y-29125D03*
X37750Y-28375D03*
G54D14*
X39875Y-29250D03*
X40625Y-29250D03*
G54D13*
X48000Y-24875D03*
X48000Y-24125D03*
G54D14*
X45875Y-28000D03*
X46625Y-28000D03*
G54D13*
X49500Y-24875D03*
X49500Y-24125D03*
G54D14*
X45875Y-29250D03*
X46625Y-29250D03*
G54D13*
X36500Y-29125D03*
X36500Y-28375D03*
G54D14*
X50875Y-26500D03*
X51625Y-26500D03*
G54D13*
X53750Y-26625D03*
X53750Y-27375D03*
X52000Y-29125D03*
X52000Y-29875D03*
X57750Y-24875D03*
X57750Y-24125D03*
X53250Y-29125D03*
X53250Y-29875D03*
G54D14*
X46477Y-46320D03*
X47227Y-46320D03*
X46477Y-44785D03*
X47227Y-44785D03*
X43227Y-46198D03*
X43977Y-46198D03*
X39875Y-28000D03*
X40625Y-28000D03*
X26125Y-25750D03*
X26875Y-25750D03*
G54D13*
X31000Y-26375D03*
X31000Y-25625D03*
G54D14*
X28625Y-28250D03*
X29375Y-28250D03*
X46477Y-40789D03*
X47227Y-40789D03*
X43227Y-44702D03*
X43977Y-44702D03*
X46477Y-42049D03*
X47227Y-42049D03*
G54D15*
X69100Y-45300D03*
G54D16*
X69100Y-46300D03*
X69100Y-47300D03*
G54D15*
X50100Y-54000D03*
G54D16*
X50100Y-53000D03*
X51100Y-54000D03*
X51100Y-53000D03*
G54D15*
X45600Y-54000D03*
G54D16*
X45600Y-53000D03*
X46600Y-54000D03*
X46600Y-53000D03*
G54D15*
X46000Y-21000D03*
G54D16*
X46000Y-22000D03*
G54D15*
X41100Y-22000D03*
G54D16*
X41100Y-21000D03*
G54D15*
X22000Y-40300D03*
G54D16*
X21000Y-40300D03*
G54D15*
X49800Y-21000D03*
G54D16*
X49800Y-22000D03*
G54D15*
X21000Y-28250D03*
G54D16*
X22000Y-28250D03*
G54D15*
X53300Y-21000D03*
G54D16*
X53300Y-22000D03*
G54D15*
X57600Y-21000D03*
G54D16*
X57600Y-22000D03*
G54D15*
X55400Y-52900D03*
G54D16*
X55400Y-53900D03*
G54D15*
X61900Y-21100D03*
G54D16*
X61900Y-22100D03*
G54D15*
X64200Y-52900D03*
G54D16*
X64200Y-53900D03*
G54D15*
X59800Y-52900D03*
G54D16*
X59800Y-53900D03*
G54D15*
X65100Y-21000D03*
G54D16*
X65100Y-22000D03*
G54D15*
X37500Y-21000D03*
G54D16*
X37500Y-22000D03*
G54D15*
X34000Y-21000D03*
G54D16*
X34000Y-22000D03*
G54D17*
X44625Y-25600D03*
X44625Y-25800D03*
X44625Y-26000D03*
X44625Y-26200D03*
X44625Y-26400D03*
X46375Y-26400D03*
X46375Y-26200D03*
X46375Y-26000D03*
X46375Y-25800D03*
X46375Y-25600D03*
X37625Y-25600D03*
X37625Y-25800D03*
X37625Y-26000D03*
X37625Y-26200D03*
X37625Y-26400D03*
X39375Y-26400D03*
X39375Y-26200D03*
X39375Y-26000D03*
X39375Y-25800D03*
X39375Y-25600D03*
G54D18*
X26279Y-42500D03*
X26279Y-43000D03*
X26279Y-43500D03*
X26279Y-44000D03*
X28220Y-44000D03*
X28220Y-43500D03*
X28220Y-43000D03*
X28220Y-42500D03*
G54D19*
X37062Y-45933D03*
X37562Y-45933D03*
X38062Y-45933D03*
X38562Y-45933D03*
X38562Y-43807D03*
X38062Y-43807D03*
X37562Y-43807D03*
X37062Y-43807D03*
G54D20*
X55948Y-27000D03*
X55948Y-27500D03*
X55948Y-28000D03*
X55948Y-28500D03*
X58074Y-28500D03*
X58074Y-28000D03*
X58074Y-27500D03*
X58074Y-27000D03*
X66312Y-33000D03*
X66312Y-32500D03*
X66312Y-32000D03*
X66312Y-31500D03*
X64187Y-31500D03*
X64187Y-32000D03*
X64187Y-32500D03*
X64187Y-33000D03*
G54D19*
X48551Y-34519D03*
X48051Y-34519D03*
X47551Y-34519D03*
X47051Y-34519D03*
X47051Y-36645D03*
X47551Y-36645D03*
X48051Y-36645D03*
X48551Y-36645D03*
G54D21*
X30300Y-52000D03*
G54D22*
X30300Y-53000D03*
X29300Y-52000D03*
X29300Y-53000D03*
X28300Y-52000D03*
X28300Y-53000D03*
X27300Y-52000D03*
X27300Y-53000D03*
X26300Y-52000D03*
X26300Y-53000D03*
G54D21*
X40500Y-52000D03*
G54D22*
X40500Y-53000D03*
X39500Y-52000D03*
X39500Y-53000D03*
X38500Y-52000D03*
X38500Y-53000D03*
X37500Y-52000D03*
X37500Y-53000D03*
X36500Y-52000D03*
X36500Y-53000D03*
G54D19*
X51907Y-46537D03*
X52407Y-46537D03*
X52907Y-46537D03*
X53407Y-46537D03*
X53407Y-44411D03*
X52907Y-44411D03*
X52407Y-44411D03*
X51907Y-44411D03*
X53907Y-46537D03*
X54407Y-46537D03*
X54907Y-46537D03*
X55407Y-46537D03*
X54407Y-44411D03*
X54907Y-44411D03*
X55407Y-44411D03*
X53907Y-44411D03*
X55171Y-37500D03*
X55671Y-37500D03*
X56171Y-37500D03*
X56671Y-37500D03*
X56671Y-35374D03*
X56171Y-35374D03*
X55671Y-35374D03*
X55171Y-35374D03*
X57171Y-37500D03*
X57671Y-37500D03*
X58171Y-37500D03*
X58671Y-37500D03*
X57671Y-35374D03*
X58171Y-35374D03*
X58671Y-35374D03*
X57171Y-35374D03*
G54D23*
X59350Y-44875D03*
X59550Y-44875D03*
X59750Y-44875D03*
X59950Y-44875D03*
X60150Y-44875D03*
X60150Y-43125D03*
X59950Y-43125D03*
X59750Y-43125D03*
X59550Y-43125D03*
X59350Y-43125D03*
G54D24*
X68500Y-53500D03*
X21500Y-53500D03*
X21500Y-21500D03*
X68500Y-21500D03*
G54D13*
X53750Y-25125D03*
X53750Y-24375D03*
G54D25*
X74500Y-27311D03*
G54D26*
X74500Y-28689D03*
G54D25*
X74500Y-31811D03*
G54D26*
X74500Y-33189D03*
G54D25*
X74500Y-36311D03*
G54D26*
X74500Y-37689D03*
G54D27*
X25200Y-21300D03*
X26200Y-21300D03*
X28200Y-21300D03*
X29200Y-21300D03*
X30200Y-21300D03*
G54D16*
X20700Y-37200D03*
X21700Y-37200D03*
X22700Y-37200D03*
X23700Y-37200D03*
X24700Y-37200D03*
X25700Y-37200D03*
X26700Y-37200D03*
X27700Y-37200D03*
X28700Y-37200D03*
X29700Y-37200D03*
X30700Y-37200D03*
X31700Y-37200D03*
X32700Y-37200D03*
X33700Y-37200D03*
X33700Y-36200D03*
X33700Y-35200D03*
X33700Y-34200D03*
X33700Y-33200D03*
X33700Y-32200D03*
X33700Y-31200D03*
X32700Y-31200D03*
X31700Y-31200D03*
X30700Y-31200D03*
X29700Y-31200D03*
X28700Y-31200D03*
X27700Y-31200D03*
X26700Y-31200D03*
X25700Y-31200D03*
X24700Y-31200D03*
X23700Y-31200D03*
X22700Y-31200D03*
X21700Y-31200D03*
X20700Y-31200D03*
X26700Y-34200D03*
X27700Y-34200D03*
X28700Y-34200D03*
X29700Y-34200D03*
X30700Y-34200D03*
X31700Y-34200D03*
X32700Y-34200D03*
X32700Y-33200D03*
X31700Y-33200D03*
X30700Y-33200D03*
X29700Y-33200D03*
X28700Y-33200D03*
X27700Y-33200D03*
X26700Y-33200D03*
X25700Y-32200D03*
X24700Y-32200D03*
X23700Y-32200D03*
X21700Y-32200D03*
X22700Y-32200D03*
G54D28*
X38944Y-29077D03*
X39047Y-38906D03*
X56642Y-38163D03*
X59547Y-44415D03*
X47237Y-31958D03*
X37171Y-26355D03*
X45435Y-27325D03*
X63446Y-36086D03*
X54248Y-41949D03*
X54053Y-39071D03*
X52583Y-37695D03*
X31827Y-48327D03*
X42024Y-26798D03*
X41674Y-27702D03*
X37133Y-25758D03*
X41594Y-26656D03*
X59236Y-43799D03*
X52081Y-34238D03*
X54381Y-27396D03*
X53220Y-34229D03*
X46117Y-29841D03*
X25615Y-43514D03*
X29734Y-43318D03*
X47668Y-44846D03*
X39330Y-37901D03*
X53893Y-43770D03*
X55215Y-45976D03*
X34495Y-38706D03*
X53721Y-36125D03*
X52215Y-43849D03*
X55543Y-38341D03*
X52454Y-45668D03*
G54D29*
X24000Y-43225D02*
X24405Y-43225D01*
X60875Y-41500D02*
X60569Y-41500D01*
X26279Y-43000D02*
X25759Y-43000D01*
X48000Y-24875D02*
X48000Y-25027D01*
X49500Y-24875D02*
X49094Y-24875D01*
X36553Y-41623D02*
X36553Y-41928D01*
X53500Y-42547D02*
X53500Y-42394D01*
X59950Y-43125D02*
X59950Y-42797D01*
X48051Y-36645D02*
X48051Y-37035D01*
X59000Y-24875D02*
X59000Y-24722D01*
X57750Y-24875D02*
X58155Y-24875D01*
X61875Y-33594D02*
X61875Y-32750D01*
X64187Y-32500D02*
X63751Y-32500D01*
X58074Y-27500D02*
X57639Y-27500D01*
X63501Y-32750D02*
X63751Y-32500D01*
X61875Y-32750D02*
X63501Y-32750D01*
X57639Y-28172D02*
X57639Y-27500D01*
X57719Y-28251D02*
X57639Y-28172D01*
X61781Y-28251D02*
X57719Y-28251D01*
X64627Y-31097D02*
X61781Y-28251D01*
X64627Y-31686D02*
X64627Y-31097D01*
X64563Y-31750D02*
X64627Y-31686D01*
X63801Y-31750D02*
X64563Y-31750D01*
X63751Y-31800D02*
X63801Y-31750D01*
X63751Y-32500D02*
X63751Y-31800D01*
X57750Y-24875D02*
X57750Y-25180D01*
X61875Y-33797D02*
X61875Y-33594D01*
X37562Y-42937D02*
X37562Y-43371D01*
X36553Y-41928D02*
X37562Y-42937D01*
X37562Y-43807D02*
X37562Y-43371D01*
X53309Y-42394D02*
X53500Y-42394D01*
X53083Y-42169D02*
X53309Y-42394D01*
X53083Y-41720D02*
X53083Y-42169D01*
X53304Y-41500D02*
X53083Y-41720D01*
X60569Y-41500D02*
X53304Y-41500D01*
X48942Y-25027D02*
X48000Y-25027D01*
X49094Y-24875D02*
X48942Y-25027D01*
X47027Y-26000D02*
X46375Y-26000D01*
X48000Y-25027D02*
X47027Y-26000D01*
X53527Y-42574D02*
X53500Y-42547D01*
X53527Y-42672D02*
X53527Y-42574D01*
X53527Y-42672D02*
X53500Y-42699D01*
X56750Y-33875D02*
X56750Y-34180D01*
X49473Y-37551D02*
X49168Y-37551D01*
X60875Y-41500D02*
X60875Y-40250D01*
X24630Y-43000D02*
X24405Y-43225D01*
X25759Y-43000D02*
X24630Y-43000D01*
X35135Y-41623D02*
X35135Y-41584D01*
X36109Y-41584D02*
X36148Y-41623D01*
X35135Y-41584D02*
X36109Y-41584D01*
X36553Y-41623D02*
X36148Y-41623D01*
X39875Y-29250D02*
X39569Y-29250D01*
X39397Y-29077D02*
X39569Y-29250D01*
X26279Y-43000D02*
X26799Y-43000D01*
X28619Y-41179D02*
X26799Y-43000D01*
X34730Y-41179D02*
X28619Y-41179D01*
X34730Y-41179D02*
X35135Y-41584D01*
X39397Y-28172D02*
X39569Y-28000D01*
X39397Y-29077D02*
X39397Y-28172D01*
X39375Y-26200D02*
X39047Y-26200D01*
X39047Y-27477D02*
X39047Y-26200D01*
X39569Y-28000D02*
X39047Y-27477D01*
X48566Y-37551D02*
X48051Y-37035D01*
X49168Y-37551D02*
X48566Y-37551D01*
X38944Y-29077D02*
X39397Y-29077D01*
X56750Y-34258D02*
X56907Y-34416D01*
X56750Y-34180D02*
X56750Y-34258D01*
X49473Y-37551D02*
X49778Y-37551D01*
X49778Y-37360D02*
X49778Y-37551D01*
X50058Y-37080D02*
X49778Y-37360D01*
X51525Y-37080D02*
X50058Y-37080D01*
X53850Y-34756D02*
X51525Y-37080D01*
X56671Y-34756D02*
X53850Y-34756D01*
X56671Y-35374D02*
X56671Y-34756D01*
X56671Y-34652D02*
X56907Y-34416D01*
X56671Y-34756D02*
X56671Y-34652D01*
X61875Y-33797D02*
X61875Y-34000D01*
X60909Y-34860D02*
X60875Y-34860D01*
X61569Y-34200D02*
X60909Y-34860D01*
X61569Y-34000D02*
X61569Y-34200D01*
X60430Y-34416D02*
X60875Y-34860D01*
X56907Y-34416D02*
X60430Y-34416D01*
X60875Y-34860D02*
X60875Y-40250D01*
X61875Y-34000D02*
X61569Y-34000D01*
X38973Y-26200D02*
X39047Y-26200D01*
X37500Y-24726D02*
X38973Y-26200D01*
X37500Y-22000D02*
X37500Y-24726D01*
X57639Y-25290D02*
X57750Y-25180D01*
X57639Y-27500D02*
X57639Y-25290D01*
X39875Y-28000D02*
X39569Y-28000D01*
X58307Y-24722D02*
X59000Y-24722D01*
X58155Y-24875D02*
X58307Y-24722D01*
X49500Y-24875D02*
X49500Y-24569D01*
X37500Y-21000D02*
X37930Y-21000D01*
X50187Y-20569D02*
X51939Y-22321D01*
X38360Y-20569D02*
X50187Y-20569D01*
X37930Y-21000D02*
X38360Y-20569D01*
X52708Y-21552D02*
X51939Y-22321D01*
X53475Y-21552D02*
X52708Y-21552D01*
X53735Y-21811D02*
X53475Y-21552D01*
X53735Y-22222D02*
X53735Y-21811D01*
X53344Y-22613D02*
X53735Y-22222D01*
X53344Y-24610D02*
X53344Y-22613D01*
X53414Y-24680D02*
X53344Y-24610D01*
X54907Y-24680D02*
X53414Y-24680D01*
X55789Y-23798D02*
X54907Y-24680D01*
X59327Y-23798D02*
X55789Y-23798D01*
X59405Y-23876D02*
X59327Y-23798D01*
X59405Y-24367D02*
X59405Y-23876D01*
X59050Y-24722D02*
X59405Y-24367D01*
X59000Y-24722D02*
X59050Y-24722D01*
X49690Y-24569D02*
X49500Y-24569D01*
X51939Y-22321D02*
X49690Y-24569D01*
X36434Y-38906D02*
X39047Y-38906D01*
X34730Y-40610D02*
X36434Y-38906D01*
X34730Y-41179D02*
X34730Y-40610D01*
X59950Y-42797D02*
X53652Y-42797D01*
X53652Y-42797D02*
X53527Y-42672D01*
X53407Y-44411D02*
X53407Y-43976D01*
X53407Y-43042D02*
X53407Y-43976D01*
X53652Y-42797D02*
X53407Y-43042D01*
X53282Y-48309D02*
X53282Y-47903D01*
X60902Y-47492D02*
X60902Y-46074D01*
X28660Y-20839D02*
X28200Y-21300D01*
X33409Y-20839D02*
X28660Y-20839D01*
X33569Y-21000D02*
X33409Y-20839D01*
X34000Y-21000D02*
X33569Y-21000D01*
X38954Y-41623D02*
X38954Y-41775D01*
X59950Y-44875D02*
X59950Y-45202D01*
X60902Y-46074D02*
X60597Y-46074D01*
X38562Y-43807D02*
X38562Y-43371D01*
X38954Y-42980D02*
X38562Y-43371D01*
X38954Y-41775D02*
X38954Y-42980D01*
X61569Y-28809D02*
X61569Y-29000D01*
X61353Y-28592D02*
X61569Y-28809D01*
X60854Y-28592D02*
X61353Y-28592D01*
X60699Y-28748D02*
X60854Y-28592D01*
X56632Y-28748D02*
X60699Y-28748D01*
X56384Y-28500D02*
X56632Y-28748D01*
X55948Y-28500D02*
X56384Y-28500D01*
X61875Y-29000D02*
X61569Y-29000D01*
X61875Y-30250D02*
X61875Y-29000D01*
X64187Y-31500D02*
X63751Y-31500D01*
X40450Y-41623D02*
X40450Y-41470D01*
X38954Y-41623D02*
X39359Y-41623D01*
X46355Y-33388D02*
X46226Y-33388D01*
X47051Y-34084D02*
X46355Y-33388D01*
X47051Y-34519D02*
X47051Y-34084D01*
X62501Y-30250D02*
X63751Y-31500D01*
X61875Y-30250D02*
X62501Y-30250D01*
X36500Y-28375D02*
X36500Y-28222D01*
X37750Y-28375D02*
X37344Y-28375D01*
X56671Y-37500D02*
X56671Y-37935D01*
X60597Y-46074D02*
X59950Y-45427D01*
X46226Y-33083D02*
X46226Y-33388D01*
X52000Y-29875D02*
X52405Y-29875D01*
X56585Y-39271D02*
X56585Y-38866D01*
X56475Y-38756D02*
X56585Y-38866D01*
X53860Y-38756D02*
X56475Y-38756D01*
X53284Y-39332D02*
X53860Y-38756D01*
X41331Y-39332D02*
X53284Y-39332D01*
X40028Y-40635D02*
X41331Y-39332D01*
X40028Y-41470D02*
X40028Y-40635D01*
X40450Y-41470D02*
X40028Y-41470D01*
X39512Y-41470D02*
X39359Y-41623D01*
X40028Y-41470D02*
X39512Y-41470D01*
X46226Y-33083D02*
X46226Y-32778D01*
X59950Y-44875D02*
X59950Y-44547D01*
X37625Y-26200D02*
X37297Y-26200D01*
X36500Y-28222D02*
X37192Y-28222D01*
X37192Y-28222D02*
X37344Y-28375D01*
X53282Y-47097D02*
X53282Y-47903D01*
X53407Y-46972D02*
X53282Y-47097D01*
X53407Y-46537D02*
X53407Y-46972D01*
X59950Y-45202D02*
X59950Y-45427D01*
X53407Y-46537D02*
X53407Y-46102D01*
X58211Y-47165D02*
X59950Y-45427D01*
X54421Y-47165D02*
X58211Y-47165D01*
X54155Y-46899D02*
X54421Y-47165D01*
X54155Y-46152D02*
X54155Y-46899D01*
X54105Y-46102D02*
X54155Y-46152D01*
X53407Y-46102D02*
X54105Y-46102D01*
X52405Y-29875D02*
X53250Y-29875D01*
X54138Y-29875D02*
X55513Y-28500D01*
X53250Y-29875D02*
X54138Y-29875D01*
X55948Y-28500D02*
X55513Y-28500D01*
X46625Y-29250D02*
X46625Y-28000D01*
X46625Y-28000D02*
X46319Y-28000D01*
X46417Y-32778D02*
X47237Y-31958D01*
X46226Y-32778D02*
X46417Y-32778D01*
X49320Y-29875D02*
X52000Y-29875D01*
X47237Y-31958D02*
X49320Y-29875D01*
X56671Y-38134D02*
X56671Y-37935D01*
X56642Y-38163D02*
X56671Y-38134D01*
X56642Y-38809D02*
X56642Y-38163D01*
X56585Y-38866D02*
X56642Y-38809D01*
X59679Y-44547D02*
X59547Y-44415D01*
X59950Y-44547D02*
X59679Y-44547D01*
X37192Y-26366D02*
X37192Y-26366D01*
X37192Y-26305D02*
X37192Y-26366D01*
X37297Y-26200D02*
X37192Y-26305D01*
X37192Y-26366D02*
X37192Y-28222D01*
X37182Y-26366D02*
X37171Y-26355D01*
X37192Y-26366D02*
X37182Y-26366D01*
X46375Y-26400D02*
X46047Y-26400D01*
X45435Y-27325D02*
X45635Y-27125D01*
X46319Y-27809D02*
X45635Y-27125D01*
X46319Y-28000D02*
X46319Y-27809D01*
X45685Y-26761D02*
X46047Y-26400D01*
X45635Y-26761D02*
X45685Y-26761D01*
X44952Y-26078D02*
X45635Y-26761D01*
X44952Y-26000D02*
X44952Y-26078D01*
X45635Y-27125D02*
X45635Y-27125D01*
X45635Y-26761D02*
X45635Y-27125D01*
X44625Y-26000D02*
X44952Y-26000D01*
G54D30*
X29241Y-27661D02*
X29241Y-26698D01*
X29375Y-27794D02*
X29241Y-27661D01*
X30538Y-26368D02*
X29241Y-26368D01*
X30544Y-26375D02*
X30538Y-26368D01*
X29241Y-26698D02*
X29241Y-26368D01*
X29375Y-28250D02*
X29375Y-27794D01*
X40152Y-35340D02*
X39814Y-35340D01*
X30772Y-26375D02*
X30544Y-26375D01*
X30772Y-26375D02*
X31000Y-26375D01*
X50619Y-54480D02*
X51100Y-54000D01*
X47080Y-54480D02*
X50619Y-54480D01*
X46600Y-54000D02*
X47080Y-54480D01*
X63537Y-35995D02*
X63537Y-35817D01*
X63446Y-36086D02*
X63537Y-35995D01*
X63875Y-35817D02*
X63537Y-35817D01*
X29375Y-28250D02*
X29730Y-28250D01*
X30200Y-28719D02*
X29730Y-28250D01*
X30200Y-32008D02*
X30200Y-28719D01*
X31200Y-33008D02*
X30200Y-32008D01*
X31200Y-33389D02*
X31200Y-33008D01*
X31490Y-33680D02*
X31200Y-33389D01*
X33860Y-33680D02*
X31490Y-33680D01*
X34181Y-34000D02*
X33860Y-33680D01*
X34181Y-34963D02*
X34181Y-34000D01*
X39648Y-34963D02*
X34181Y-34963D01*
X39814Y-35129D02*
X39648Y-34963D01*
X39814Y-35340D02*
X39814Y-35129D01*
X33936Y-34963D02*
X33700Y-35200D01*
X34181Y-34963D02*
X33936Y-34963D01*
X24125Y-27775D02*
X20700Y-31200D01*
X24125Y-24000D02*
X24125Y-27775D01*
X24125Y-22375D02*
X24125Y-24000D01*
X25200Y-21300D02*
X24125Y-22375D01*
G54D29*
X28625Y-28250D02*
X28625Y-27844D01*
X40625Y-28000D02*
X40625Y-28405D01*
X66784Y-37689D02*
X64912Y-35817D01*
X74500Y-37689D02*
X66784Y-37689D01*
X64625Y-35817D02*
X64912Y-35817D01*
X40319Y-28710D02*
X40319Y-29250D01*
X40625Y-28405D02*
X40319Y-28710D01*
X37062Y-43807D02*
X37062Y-44242D01*
X37062Y-45933D02*
X37062Y-45497D01*
X28491Y-26698D02*
X28491Y-26559D01*
X28866Y-26698D02*
X28866Y-26418D01*
X57750Y-24125D02*
X57750Y-24277D01*
X58442Y-24277D02*
X58594Y-24125D01*
X57750Y-24277D02*
X58442Y-24277D01*
X59000Y-24125D02*
X58594Y-24125D01*
X61625Y-41500D02*
X61319Y-41500D01*
X53500Y-41949D02*
X53905Y-41949D01*
X61625Y-40250D02*
X61930Y-40250D01*
X61060Y-41949D02*
X54248Y-41949D01*
X61319Y-41690D02*
X61060Y-41949D01*
X61319Y-41500D02*
X61319Y-41690D01*
X53905Y-41949D02*
X53905Y-41949D01*
X54248Y-41949D02*
X53905Y-41949D01*
X56750Y-33125D02*
X57155Y-33125D01*
X61125Y-33125D02*
X57155Y-33125D01*
X61125Y-33125D02*
X61125Y-34000D01*
X61125Y-29000D02*
X61125Y-30250D01*
X61625Y-41500D02*
X61777Y-41500D01*
X61777Y-41500D02*
X61930Y-41500D01*
X61777Y-40807D02*
X61625Y-40655D01*
X61777Y-41500D02*
X61777Y-40807D01*
X61625Y-40250D02*
X61625Y-40655D01*
X61652Y-46074D02*
X61652Y-47492D01*
X60721Y-48309D02*
X54032Y-48309D01*
X61347Y-47682D02*
X60721Y-48309D01*
X61347Y-47492D02*
X61347Y-47682D01*
X61652Y-47492D02*
X61347Y-47492D01*
X60150Y-44875D02*
X60150Y-45202D01*
X54032Y-48309D02*
X54032Y-47903D01*
X61443Y-45461D02*
X61652Y-45669D01*
X61443Y-45202D02*
X61443Y-45461D01*
X62680Y-43965D02*
X61443Y-45202D01*
X62680Y-42250D02*
X62680Y-43965D01*
X61930Y-41500D02*
X62680Y-42250D01*
X61443Y-45202D02*
X60150Y-45202D01*
X61652Y-46074D02*
X61652Y-45669D01*
X57283Y-38047D02*
X57283Y-39271D01*
X57171Y-37935D02*
X57283Y-38047D01*
X57335Y-39271D02*
X57283Y-39271D01*
X57283Y-39271D02*
X57030Y-39271D01*
X57171Y-37500D02*
X57171Y-37935D01*
X40450Y-40873D02*
X40450Y-40796D01*
X40450Y-40796D02*
X40450Y-40720D01*
X37062Y-44242D02*
X37729Y-44242D01*
X40493Y-29250D02*
X40625Y-29250D01*
X28491Y-27711D02*
X28491Y-26698D01*
X28625Y-27844D02*
X28491Y-27711D01*
X26125Y-25750D02*
X26125Y-26155D01*
X28491Y-26559D02*
X28491Y-26418D01*
X38753Y-44242D02*
X37814Y-44242D01*
X40856Y-42139D02*
X38753Y-44242D01*
X40856Y-41202D02*
X40856Y-42139D01*
X40450Y-40796D02*
X40856Y-41202D01*
X37814Y-44242D02*
X37729Y-44242D01*
X38954Y-40873D02*
X38549Y-40873D01*
X40493Y-29250D02*
X40406Y-29250D01*
X40406Y-29250D02*
X40319Y-29250D01*
X37750Y-29125D02*
X38155Y-29125D01*
X36500Y-29125D02*
X37750Y-29125D01*
X46375Y-25800D02*
X46702Y-25800D01*
X53497Y-39628D02*
X54053Y-39071D01*
X41543Y-39628D02*
X53497Y-39628D01*
X40450Y-40720D02*
X41543Y-39628D01*
X57030Y-39462D02*
X57030Y-39271D01*
X56816Y-39676D02*
X57030Y-39462D01*
X54658Y-39676D02*
X56816Y-39676D01*
X54053Y-39071D02*
X54658Y-39676D01*
X21700Y-31200D02*
X26434Y-26465D01*
X26434Y-26465D02*
X26434Y-26465D01*
X28272Y-26465D02*
X26434Y-26465D01*
X28318Y-26418D02*
X28272Y-26465D01*
X28491Y-26418D02*
X28318Y-26418D01*
X26434Y-26465D02*
X26125Y-26155D01*
X36553Y-40873D02*
X36958Y-40873D01*
X37814Y-44242D02*
X37814Y-41140D01*
X38282Y-41140D02*
X37814Y-41140D01*
X38549Y-40873D02*
X38282Y-41140D01*
X37225Y-41140D02*
X36958Y-40873D01*
X37814Y-41140D02*
X37225Y-41140D01*
X35135Y-40873D02*
X36553Y-40873D01*
X37729Y-44242D02*
X37729Y-45164D01*
X37396Y-45164D02*
X37062Y-45497D01*
X37729Y-45164D02*
X37396Y-45164D01*
X38562Y-45497D02*
X38062Y-45497D01*
X38562Y-45933D02*
X38562Y-45497D01*
X38062Y-45933D02*
X38062Y-45497D01*
X37729Y-45164D02*
X38062Y-45497D01*
X48654Y-37956D02*
X47801Y-37103D01*
X49818Y-37956D02*
X48654Y-37956D01*
X50223Y-37551D02*
X49818Y-37956D01*
X39730Y-35668D02*
X39402Y-35340D01*
X41021Y-35668D02*
X39730Y-35668D01*
X42456Y-37103D02*
X41021Y-35668D01*
X47801Y-37103D02*
X42456Y-37103D01*
X41155Y-32333D02*
X46226Y-32333D01*
X41021Y-32467D02*
X41155Y-32333D01*
X41021Y-35668D02*
X41021Y-32467D01*
X46226Y-32333D02*
X46226Y-32028D01*
X45875Y-29250D02*
X46180Y-29250D01*
X61125Y-33125D02*
X61125Y-32750D01*
X61125Y-32750D02*
X61125Y-30250D01*
X64625Y-35817D02*
X64337Y-35817D01*
X50673Y-37695D02*
X50528Y-37551D01*
X52583Y-37695D02*
X50673Y-37695D01*
X50223Y-37551D02*
X50528Y-37551D01*
X37625Y-25800D02*
X37952Y-25800D01*
X28631Y-26418D02*
X28491Y-26559D01*
X28866Y-26418D02*
X28631Y-26418D01*
X37952Y-25492D02*
X37952Y-25800D01*
X37873Y-25414D02*
X37952Y-25492D01*
X36074Y-25414D02*
X37873Y-25414D01*
X35419Y-26069D02*
X36074Y-25414D01*
X29185Y-26069D02*
X35419Y-26069D01*
X28866Y-26389D02*
X29185Y-26069D01*
X28866Y-26418D02*
X28866Y-26389D01*
X64337Y-35920D02*
X64337Y-35817D01*
X61930Y-38328D02*
X64337Y-35920D01*
X61930Y-40250D02*
X61930Y-38328D01*
X56402Y-32472D02*
X56750Y-32819D01*
X53884Y-32472D02*
X56402Y-32472D01*
X56750Y-33125D02*
X56750Y-32819D01*
X51235Y-35814D02*
X51235Y-32067D01*
X50839Y-36210D02*
X51235Y-35814D01*
X47863Y-36210D02*
X50839Y-36210D01*
X47801Y-36272D02*
X47863Y-36210D01*
X47801Y-37103D02*
X47801Y-36272D01*
X53884Y-32472D02*
X53579Y-32472D01*
X38692Y-29662D02*
X38155Y-29125D01*
X40108Y-29662D02*
X38692Y-29662D01*
X40406Y-29363D02*
X40108Y-29662D01*
X40406Y-29250D02*
X40406Y-29363D01*
X37952Y-26400D02*
X37952Y-25800D01*
X37625Y-26400D02*
X37907Y-26400D01*
X37907Y-26400D02*
X37952Y-26400D01*
X38155Y-26602D02*
X38155Y-29125D01*
X37952Y-26400D02*
X38155Y-26602D01*
X48000Y-24125D02*
X48000Y-24277D01*
X48000Y-24277D02*
X48000Y-24430D01*
X48942Y-24277D02*
X49094Y-24125D01*
X48000Y-24277D02*
X48942Y-24277D01*
X49500Y-24125D02*
X49094Y-24125D01*
X46375Y-25800D02*
X46047Y-25800D01*
X57695Y-24277D02*
X57750Y-24277D01*
X56384Y-25588D02*
X57695Y-24277D01*
X56384Y-28000D02*
X56384Y-25588D01*
X55948Y-28000D02*
X56384Y-28000D01*
X54032Y-47097D02*
X53907Y-46972D01*
X54032Y-47903D02*
X54032Y-47097D01*
X53907Y-46537D02*
X53907Y-46972D01*
X51194Y-32026D02*
X51235Y-32067D01*
X48659Y-32026D02*
X51194Y-32026D01*
X48252Y-32433D02*
X48659Y-32026D01*
X53250Y-29125D02*
X53250Y-29086D01*
X52000Y-29125D02*
X52405Y-29125D01*
X53579Y-32281D02*
X53579Y-32472D01*
X53365Y-32067D02*
X53579Y-32281D01*
X51235Y-32067D02*
X53365Y-32067D01*
X51235Y-32067D02*
X51235Y-32067D01*
X52443Y-29086D02*
X53250Y-29086D01*
X52405Y-29125D02*
X52443Y-29086D01*
X54336Y-28000D02*
X55948Y-28000D01*
X53250Y-29086D02*
X54336Y-28000D01*
X40625Y-28000D02*
X40625Y-27594D01*
X44625Y-25600D02*
X44952Y-25600D01*
X45152Y-25800D02*
X44952Y-25600D01*
X46047Y-25800D02*
X45152Y-25800D01*
X45875Y-29250D02*
X45875Y-28000D01*
X40625Y-29250D02*
X40930Y-29250D01*
X45875Y-29250D02*
X40930Y-29250D01*
X44584Y-25559D02*
X44625Y-25600D01*
X42259Y-25559D02*
X44584Y-25559D01*
X40625Y-27194D02*
X42259Y-25559D01*
X40625Y-27594D02*
X40625Y-27194D01*
X47809Y-24430D02*
X48000Y-24430D01*
X46702Y-25537D02*
X47809Y-24430D01*
X46702Y-25800D02*
X46702Y-25537D01*
X47965Y-29125D02*
X52000Y-29125D01*
X47375Y-29715D02*
X47965Y-29125D01*
X46422Y-29715D02*
X47375Y-29715D01*
X46422Y-31832D02*
X46422Y-29715D01*
X46226Y-32028D02*
X46422Y-31832D01*
X46180Y-29473D02*
X46180Y-29250D01*
X46422Y-29715D02*
X46180Y-29473D01*
X36500Y-53000D02*
X31827Y-48327D01*
X55819Y-22000D02*
X53750Y-24069D01*
X57600Y-22000D02*
X55819Y-22000D01*
X53750Y-24375D02*
X53750Y-24069D01*
X57600Y-22000D02*
X57600Y-21000D01*
X58074Y-28000D02*
X58510Y-28000D01*
X61324Y-23813D02*
X59597Y-23813D01*
X63573Y-21565D02*
X61324Y-23813D01*
X65682Y-21565D02*
X63573Y-21565D01*
X71428Y-27310D02*
X65682Y-21565D01*
X74500Y-27310D02*
X71428Y-27310D01*
X59597Y-26912D02*
X59597Y-23813D01*
X58510Y-28000D02*
X59597Y-26912D01*
X57783Y-22000D02*
X57600Y-22000D01*
X59597Y-23813D02*
X57783Y-22000D01*
X28262Y-33762D02*
X28700Y-34200D01*
X23508Y-33762D02*
X28262Y-33762D01*
X20253Y-37017D02*
X23508Y-33762D01*
X20253Y-42953D02*
X20253Y-37017D01*
X29300Y-52000D02*
X20253Y-42953D01*
X49800Y-22000D02*
X49800Y-21000D01*
X39375Y-25800D02*
X39702Y-25800D01*
X39375Y-26400D02*
X39702Y-26400D01*
X49457Y-22000D02*
X49800Y-22000D01*
X46375Y-25082D02*
X49457Y-22000D01*
X46375Y-25600D02*
X46375Y-25082D01*
X46375Y-25600D02*
X46047Y-25600D01*
X39702Y-25800D02*
X39702Y-26400D01*
X45813Y-25366D02*
X46047Y-25600D01*
X40136Y-25366D02*
X45813Y-25366D01*
X39702Y-25800D02*
X40136Y-25366D01*
X50875Y-26500D02*
X50569Y-26500D01*
X50269Y-25030D02*
X53300Y-22000D01*
X50269Y-26200D02*
X50269Y-25030D01*
X46375Y-26200D02*
X50269Y-26200D01*
X50269Y-26200D02*
X50569Y-26500D01*
X42623Y-26200D02*
X42024Y-26798D01*
X44625Y-26200D02*
X42623Y-26200D01*
X42995Y-27702D02*
X41674Y-27702D01*
X44297Y-26400D02*
X42995Y-27702D01*
X44625Y-26400D02*
X44297Y-26400D01*
X37625Y-25600D02*
X37297Y-25600D01*
X37625Y-26000D02*
X37297Y-26000D01*
X37133Y-25758D02*
X37297Y-25758D01*
X37297Y-25758D02*
X37297Y-25600D01*
X37297Y-26000D02*
X37297Y-25758D01*
X34269Y-31630D02*
X33700Y-32200D01*
X34269Y-28823D02*
X34269Y-31630D01*
X37093Y-26000D02*
X34269Y-28823D01*
X37297Y-26000D02*
X37093Y-26000D01*
G54D30*
X24000Y-43975D02*
X24000Y-43619D01*
X24480Y-44000D02*
X24455Y-43975D01*
X26279Y-44000D02*
X24480Y-44000D01*
X24000Y-43975D02*
X24455Y-43975D01*
X30835Y-53000D02*
X30300Y-53000D01*
X31370Y-53535D02*
X30835Y-53000D01*
X39964Y-53535D02*
X31370Y-53535D01*
X40500Y-53000D02*
X39964Y-53535D01*
X26279Y-44842D02*
X26279Y-44000D01*
X30835Y-49398D02*
X26279Y-44842D01*
X30835Y-53000D02*
X30835Y-49398D01*
X24875Y-24000D02*
X25230Y-24000D01*
X26635Y-21735D02*
X26635Y-21805D01*
X26200Y-21300D02*
X26635Y-21735D01*
X33216Y-34683D02*
X33700Y-34200D01*
X23216Y-34683D02*
X33216Y-34683D01*
X20700Y-37200D02*
X23216Y-34683D01*
X26635Y-22595D02*
X25230Y-24000D01*
X26635Y-21805D02*
X26635Y-22595D01*
X28694Y-21805D02*
X29200Y-21300D01*
X26635Y-21805D02*
X28694Y-21805D01*
X23689Y-43619D02*
X24000Y-43619D01*
X22000Y-41930D02*
X23689Y-43619D01*
X22000Y-40300D02*
X22000Y-41930D01*
X22000Y-40300D02*
X21000Y-40300D01*
G54D31*
X44247Y-25800D02*
X44625Y-25800D01*
G54D30*
X42451Y-25800D02*
X44247Y-25800D01*
X41594Y-26656D02*
X42451Y-25800D01*
G54D29*
X31000Y-25625D02*
X30594Y-25625D01*
X28491Y-25628D02*
X29241Y-25628D01*
X29241Y-25698D02*
X29241Y-25628D01*
X29241Y-25628D02*
X29241Y-25418D01*
X30388Y-25418D02*
X30594Y-25625D01*
X29241Y-25418D02*
X30388Y-25418D01*
X28491Y-25663D02*
X28491Y-25628D01*
X28491Y-25663D02*
X28491Y-25698D01*
X28491Y-25698D02*
X28491Y-25978D01*
X26875Y-25750D02*
X27180Y-25750D01*
X27409Y-25978D02*
X27180Y-25750D01*
X28491Y-25978D02*
X27409Y-25978D01*
X41100Y-21000D02*
X41100Y-22000D01*
X31000Y-25625D02*
X31000Y-25319D01*
X31305Y-25319D02*
X31000Y-25319D01*
X35072Y-21552D02*
X31305Y-25319D01*
X37688Y-21552D02*
X35072Y-21552D01*
X39833Y-23696D02*
X37688Y-21552D01*
X39833Y-23696D02*
X41100Y-22430D01*
X41100Y-22000D02*
X41100Y-22430D01*
X59236Y-44761D02*
X59236Y-43799D01*
X59350Y-44875D02*
X59236Y-44761D01*
X39375Y-26000D02*
X39047Y-26000D01*
X39702Y-25272D02*
X39375Y-25600D01*
X39702Y-24715D02*
X39702Y-25272D01*
X39702Y-24715D02*
X39702Y-24715D01*
X39702Y-23827D02*
X39702Y-24715D01*
X39833Y-23696D02*
X39702Y-23827D01*
X39047Y-25600D02*
X39047Y-26000D01*
X39375Y-25600D02*
X39047Y-25600D01*
X55400Y-52900D02*
X54969Y-52900D01*
X28220Y-43500D02*
X28740Y-43500D01*
X52788Y-50719D02*
X54969Y-52900D01*
X40126Y-50719D02*
X52788Y-50719D01*
X34298Y-44890D02*
X40126Y-50719D01*
X30131Y-44890D02*
X34298Y-44890D01*
X28740Y-43500D02*
X30131Y-44890D01*
X51640Y-34047D02*
X51945Y-34047D01*
X51945Y-34103D02*
X52081Y-34238D01*
X51945Y-34047D02*
X51945Y-34103D01*
X73865Y-32000D02*
X74054Y-31810D01*
X66312Y-32000D02*
X73865Y-32000D01*
X74500Y-31810D02*
X74054Y-31810D01*
X66312Y-31500D02*
X66095Y-31500D01*
X64187Y-32000D02*
X64622Y-32000D01*
X66095Y-22995D02*
X65100Y-22000D01*
X66095Y-31500D02*
X66095Y-22995D01*
X64622Y-33000D02*
X64622Y-32000D01*
X65877Y-32282D02*
X65877Y-32500D01*
X65595Y-32000D02*
X65877Y-32282D01*
X64622Y-32000D02*
X65595Y-32000D01*
X65595Y-32000D02*
X66095Y-31500D01*
X66312Y-32500D02*
X66095Y-32500D01*
X66095Y-32500D02*
X65877Y-32500D01*
X65877Y-32717D02*
X65877Y-33000D01*
X66095Y-32500D02*
X65877Y-32717D01*
X66312Y-33000D02*
X65877Y-33000D01*
X64187Y-33000D02*
X64622Y-33000D01*
X54176Y-27396D02*
X54155Y-27375D01*
X54381Y-27396D02*
X54176Y-27396D01*
X53750Y-27375D02*
X54155Y-27375D01*
X51680Y-35464D02*
X51985Y-35464D01*
X51985Y-35464D02*
X53220Y-34229D01*
X32202Y-32702D02*
X30700Y-31200D01*
X37630Y-32702D02*
X32202Y-32702D01*
X37936Y-32512D02*
X37936Y-32702D01*
X40606Y-29841D02*
X37936Y-32512D01*
X46117Y-29841D02*
X40606Y-29841D01*
X37630Y-32702D02*
X37936Y-32702D01*
X33249Y-46749D02*
X30875Y-46749D01*
X38500Y-52000D02*
X33249Y-46749D01*
X29625Y-46749D02*
X29625Y-46444D01*
X25835Y-43734D02*
X25615Y-43514D01*
X26695Y-43734D02*
X25835Y-43734D01*
X29405Y-46444D02*
X26695Y-43734D01*
X29625Y-46444D02*
X29405Y-46444D01*
X33267Y-47054D02*
X29625Y-47054D01*
X38000Y-51787D02*
X33267Y-47054D01*
X38000Y-52500D02*
X38000Y-51787D01*
X38500Y-53000D02*
X38000Y-52500D01*
X29625Y-46749D02*
X29625Y-47054D01*
X59800Y-52900D02*
X59369Y-52900D01*
X57215Y-52900D02*
X59369Y-52900D01*
X52907Y-48592D02*
X57215Y-52900D01*
X52907Y-46972D02*
X52907Y-48592D01*
X52907Y-46537D02*
X52907Y-46972D01*
X54407Y-44411D02*
X54407Y-44846D01*
X52907Y-44411D02*
X52907Y-44846D01*
X54210Y-45043D02*
X54407Y-44846D01*
X53104Y-45043D02*
X54210Y-45043D01*
X52907Y-44846D02*
X53104Y-45043D01*
X59350Y-43125D02*
X59350Y-43452D01*
X57851Y-43452D02*
X55657Y-45645D01*
X59350Y-43452D02*
X57851Y-43452D01*
X54859Y-44846D02*
X55657Y-45645D01*
X54407Y-44846D02*
X54859Y-44846D01*
X54407Y-46675D02*
X54407Y-46537D01*
X54705Y-46972D02*
X54407Y-46675D01*
X55591Y-46972D02*
X54705Y-46972D01*
X55657Y-46905D02*
X55591Y-46972D01*
X55657Y-45645D02*
X55657Y-46905D01*
X53093Y-45916D02*
X52907Y-46102D01*
X54221Y-45916D02*
X53093Y-45916D01*
X54407Y-46102D02*
X54221Y-45916D01*
X54407Y-46537D02*
X54407Y-46102D01*
X52907Y-46537D02*
X52907Y-46102D01*
X64250Y-52419D02*
X64250Y-39375D01*
X64200Y-52469D02*
X64250Y-52419D01*
X64200Y-52900D02*
X64200Y-52469D01*
X55171Y-37500D02*
X55171Y-37935D01*
X53857Y-37935D02*
X55171Y-37935D01*
X53077Y-38715D02*
X53857Y-37935D01*
X40983Y-38715D02*
X53077Y-38715D01*
X40868Y-38600D02*
X40983Y-38715D01*
X35700Y-38600D02*
X40868Y-38600D01*
X35289Y-39011D02*
X35700Y-38600D01*
X25511Y-39011D02*
X35289Y-39011D01*
X23700Y-37200D02*
X25511Y-39011D01*
X28136Y-35763D02*
X26700Y-37200D01*
X39285Y-35763D02*
X28136Y-35763D01*
X41671Y-38149D02*
X39285Y-35763D01*
X52567Y-38149D02*
X41671Y-38149D01*
X54907Y-35809D02*
X52567Y-38149D01*
X55171Y-35809D02*
X54907Y-35809D01*
X55171Y-35374D02*
X55171Y-35809D01*
X58671Y-35374D02*
X58671Y-35809D01*
X58385Y-36094D02*
X58671Y-35809D01*
X54934Y-36094D02*
X58385Y-36094D01*
X52699Y-38329D02*
X54934Y-36094D01*
X41488Y-38329D02*
X52699Y-38329D01*
X39925Y-36766D02*
X41488Y-38329D01*
X28133Y-36766D02*
X39925Y-36766D01*
X27700Y-37200D02*
X28133Y-36766D01*
X58671Y-37500D02*
X58671Y-37064D01*
X58491Y-36884D02*
X58671Y-37064D01*
X54653Y-36884D02*
X58491Y-36884D01*
X53007Y-38530D02*
X54653Y-36884D01*
X41143Y-38530D02*
X53007Y-38530D01*
X41014Y-38401D02*
X41143Y-38530D01*
X29901Y-38401D02*
X41014Y-38401D01*
X28700Y-37200D02*
X29901Y-38401D01*
X51907Y-46537D02*
X51907Y-46972D01*
X36764Y-46972D02*
X51907Y-46972D01*
X33109Y-43318D02*
X36764Y-46972D01*
X29734Y-43318D02*
X33109Y-43318D01*
X51907Y-44411D02*
X51907Y-44846D01*
X31401Y-37901D02*
X30700Y-37200D01*
X39330Y-37901D02*
X31401Y-37901D01*
X51907Y-44846D02*
X47668Y-44846D01*
X55201Y-43770D02*
X53893Y-43770D01*
X55407Y-43976D02*
X55201Y-43770D01*
X55407Y-44411D02*
X55407Y-43976D01*
X55407Y-46537D02*
X55407Y-46102D01*
X55282Y-45976D02*
X55215Y-45976D01*
X55407Y-46102D02*
X55282Y-45976D01*
X26206Y-38706D02*
X24700Y-37200D01*
X34495Y-38706D02*
X26206Y-38706D01*
X51100Y-53000D02*
X50100Y-53000D01*
X49600Y-53500D02*
X50100Y-53000D01*
X40679Y-53500D02*
X49600Y-53500D01*
X40406Y-53772D02*
X40679Y-53500D01*
X30383Y-53772D02*
X40406Y-53772D01*
X29800Y-53188D02*
X30383Y-53772D01*
X29800Y-52800D02*
X29800Y-53188D01*
X30119Y-52480D02*
X29800Y-52800D01*
X30300Y-52480D02*
X30119Y-52480D01*
X30300Y-52000D02*
X30300Y-52480D01*
X46600Y-53000D02*
X45600Y-53000D01*
X40500Y-52000D02*
X40019Y-52000D01*
X30875Y-45999D02*
X29625Y-45999D01*
X40019Y-51819D02*
X40019Y-52000D01*
X34199Y-45999D02*
X40019Y-51819D01*
X31280Y-45999D02*
X34199Y-45999D01*
X30875Y-45999D02*
X31280Y-45999D01*
X43266Y-40704D02*
X43266Y-41925D01*
X42752Y-46368D02*
X42922Y-46198D01*
X37562Y-46368D02*
X42752Y-46368D01*
X37562Y-45933D02*
X37562Y-46368D01*
X43227Y-46198D02*
X42922Y-46198D01*
X46477Y-46320D02*
X46477Y-44785D01*
X43266Y-41925D02*
X43266Y-42330D01*
X46477Y-42049D02*
X46477Y-40789D01*
X45891Y-42330D02*
X43266Y-42330D01*
X46172Y-42049D02*
X45891Y-42330D01*
X46477Y-42049D02*
X46172Y-42049D01*
X43227Y-42369D02*
X43266Y-42330D01*
X43227Y-44702D02*
X43227Y-42369D01*
X43379Y-45260D02*
X43227Y-45107D01*
X43379Y-46198D02*
X43379Y-45260D01*
X43227Y-44702D02*
X43227Y-45107D01*
X43227Y-46198D02*
X43303Y-46198D01*
X43303Y-46198D02*
X43379Y-46198D01*
X43732Y-46627D02*
X43303Y-46198D01*
X45865Y-46627D02*
X43732Y-46627D01*
X46172Y-46320D02*
X45865Y-46627D01*
X69100Y-48789D02*
X69100Y-47300D01*
X64552Y-53336D02*
X69100Y-48789D01*
X57387Y-53336D02*
X64552Y-53336D01*
X52155Y-48104D02*
X57387Y-53336D01*
X52155Y-46178D02*
X52155Y-48104D01*
X52079Y-46102D02*
X52155Y-46178D01*
X48080Y-46102D02*
X52079Y-46102D01*
X47456Y-46726D02*
X48080Y-46102D01*
X46996Y-46726D02*
X47456Y-46726D01*
X46782Y-46511D02*
X46996Y-46726D01*
X46782Y-46320D02*
X46782Y-46511D01*
X46477Y-46320D02*
X46782Y-46320D01*
X46477Y-46320D02*
X46172Y-46320D01*
X61867Y-43452D02*
X62069Y-43250D01*
X60150Y-43452D02*
X61867Y-43452D01*
X60150Y-43125D02*
X60150Y-43452D01*
X62375Y-43250D02*
X62069Y-43250D01*
X58171Y-35809D02*
X55671Y-35809D01*
X55671Y-35374D02*
X55671Y-35809D01*
X58171Y-35546D02*
X58171Y-35809D01*
X55671Y-37500D02*
X55671Y-37935D01*
X58171Y-37064D02*
X55671Y-37064D01*
X58171Y-37500D02*
X58171Y-37064D01*
X55671Y-37500D02*
X55671Y-37064D01*
X55452Y-37935D02*
X55671Y-37935D01*
X54902Y-38485D02*
X55452Y-37935D01*
X53562Y-38485D02*
X54902Y-38485D01*
X53113Y-38933D02*
X53562Y-38485D01*
X41475Y-38933D02*
X53113Y-38933D01*
X39549Y-40859D02*
X41475Y-38933D01*
X39549Y-40939D02*
X39549Y-40859D01*
X39310Y-41178D02*
X39549Y-40939D01*
X38732Y-41178D02*
X39310Y-41178D01*
X38062Y-41847D02*
X38732Y-41178D01*
X38062Y-43807D02*
X38062Y-41847D01*
X58171Y-35546D02*
X58171Y-35374D01*
X58868Y-37935D02*
X58171Y-37935D01*
X58919Y-37884D02*
X58868Y-37935D01*
X58919Y-35010D02*
X58919Y-37884D01*
X58847Y-34938D02*
X58919Y-35010D01*
X58171Y-34938D02*
X58847Y-34938D01*
X58171Y-35374D02*
X58171Y-34938D01*
X58171Y-37500D02*
X58171Y-37935D01*
X64250Y-36682D02*
X64250Y-38625D01*
X63125Y-39864D02*
X63125Y-43250D01*
X64059Y-38930D02*
X63125Y-39864D01*
X64250Y-38930D02*
X64059Y-38930D01*
X64250Y-38625D02*
X64250Y-38930D01*
X53134Y-32472D02*
X51640Y-32472D01*
X40662Y-32742D02*
X40509Y-32742D01*
X39005Y-32702D02*
X39777Y-33474D01*
X38380Y-32702D02*
X39005Y-32702D01*
X40509Y-32742D02*
X39777Y-33474D01*
X39777Y-33474D02*
X39777Y-34474D01*
X44718Y-35743D02*
X44718Y-35878D01*
X41717Y-32742D02*
X44718Y-35743D01*
X41412Y-32742D02*
X41717Y-32742D01*
X45124Y-35878D02*
X44718Y-35878D01*
X45150Y-36210D02*
X45124Y-36184D01*
X47551Y-36210D02*
X45150Y-36210D01*
X47551Y-36645D02*
X47551Y-36210D01*
X45124Y-35878D02*
X45124Y-36184D01*
X50890Y-34047D02*
X50738Y-34047D01*
X50890Y-32472D02*
X50890Y-32877D01*
X47551Y-34519D02*
X47551Y-34954D01*
X50930Y-35464D02*
X50625Y-35464D01*
X47551Y-34954D02*
X50115Y-34954D01*
X50115Y-34954D02*
X50625Y-35464D01*
X50738Y-33030D02*
X50890Y-32877D01*
X50738Y-34047D02*
X50738Y-33030D01*
X50115Y-34670D02*
X50115Y-34954D01*
X50738Y-34047D02*
X50115Y-34670D01*
X49002Y-32433D02*
X48697Y-32433D01*
X47352Y-34077D02*
X48051Y-34077D01*
X47299Y-34130D02*
X47352Y-34077D01*
X47299Y-34878D02*
X47299Y-34130D01*
X47049Y-35128D02*
X47299Y-34878D01*
X45124Y-35128D02*
X47049Y-35128D01*
X48051Y-34519D02*
X48051Y-34077D01*
X48697Y-33431D02*
X48697Y-32433D01*
X48051Y-34077D02*
X48697Y-33431D01*
X43977Y-44702D02*
X44129Y-44702D01*
X44129Y-45641D02*
X43977Y-45793D01*
X44129Y-44702D02*
X44129Y-45641D01*
X43977Y-46198D02*
X43977Y-45793D01*
X52407Y-44411D02*
X52407Y-43976D01*
X56171Y-35374D02*
X56171Y-34938D01*
X52215Y-43849D02*
X52215Y-43913D01*
X52344Y-43913D02*
X52215Y-43913D01*
X52407Y-43976D02*
X52344Y-43913D01*
X44919Y-43913D02*
X44129Y-44702D01*
X52215Y-43913D02*
X44919Y-43913D01*
X54908Y-34938D02*
X53721Y-36125D01*
X56171Y-34938D02*
X54908Y-34938D01*
X44016Y-41925D02*
X44016Y-40704D01*
X57671Y-37500D02*
X57671Y-37935D01*
X44016Y-40704D02*
X44321Y-40704D01*
X54907Y-46537D02*
X54907Y-46102D01*
X44643Y-40382D02*
X46921Y-40382D01*
X44321Y-40704D02*
X44643Y-40382D01*
X57671Y-39573D02*
X57671Y-37935D01*
X56862Y-40382D02*
X57671Y-39573D01*
X46921Y-40382D02*
X56862Y-40382D01*
X54033Y-45228D02*
X54907Y-46102D01*
X53034Y-45228D02*
X54033Y-45228D01*
X52657Y-44851D02*
X53034Y-45228D01*
X52657Y-43842D02*
X52657Y-44851D01*
X52002Y-43187D02*
X52657Y-43842D01*
X47712Y-43187D02*
X52002Y-43187D01*
X46921Y-42396D02*
X47712Y-43187D01*
X46921Y-40382D02*
X46921Y-42396D01*
X47227Y-42049D02*
X47227Y-40789D01*
X54907Y-44411D02*
X54907Y-43976D01*
X57671Y-35374D02*
X57671Y-34938D01*
X53662Y-40877D02*
X51879Y-42660D01*
X56633Y-40877D02*
X53662Y-40877D01*
X59105Y-38405D02*
X56633Y-40877D01*
X59105Y-34931D02*
X59105Y-38405D01*
X58926Y-34752D02*
X59105Y-34931D01*
X57857Y-34752D02*
X58926Y-34752D01*
X57671Y-34938D02*
X57857Y-34752D01*
X51268Y-42049D02*
X51879Y-42660D01*
X47227Y-42049D02*
X51268Y-42049D01*
X54234Y-43976D02*
X54907Y-43976D01*
X54155Y-44055D02*
X54234Y-43976D01*
X54155Y-44779D02*
X54155Y-44055D01*
X54076Y-44858D02*
X54155Y-44779D01*
X53225Y-44858D02*
X54076Y-44858D01*
X53157Y-44789D02*
X53225Y-44858D01*
X53157Y-43938D02*
X53157Y-44789D01*
X51879Y-42660D02*
X53157Y-43938D01*
X51625Y-26500D02*
X51930Y-26500D01*
X53750Y-26500D02*
X51930Y-26500D01*
X53750Y-25125D02*
X53750Y-26500D01*
X53750Y-26500D02*
X53750Y-26625D01*
X54389Y-26625D02*
X53750Y-26625D01*
X55264Y-27500D02*
X54389Y-26625D01*
X55948Y-27500D02*
X55264Y-27500D01*
X52407Y-46537D02*
X52407Y-46102D01*
X47227Y-46320D02*
X47532Y-46320D01*
X47240Y-45190D02*
X47951Y-45901D01*
X47227Y-45190D02*
X47240Y-45190D01*
X47951Y-45901D02*
X47532Y-46320D01*
X47227Y-44785D02*
X47227Y-45190D01*
X52407Y-45911D02*
X52335Y-45839D01*
X52407Y-46102D02*
X52407Y-45911D01*
X48013Y-45839D02*
X47951Y-45901D01*
X52335Y-45839D02*
X48013Y-45839D01*
X52335Y-45787D02*
X52454Y-45668D01*
X52335Y-45839D02*
X52335Y-45787D01*
X55950Y-37935D02*
X55543Y-38341D01*
X56171Y-37935D02*
X55950Y-37935D01*
X56171Y-37500D02*
X56171Y-37935D01*
M02*
