999
dxfrw 0.5.10
0
SECTION
2
HEADER
9
$ACADVER
1
AC1021
9
$HANDSEED
5
20000
9
$DWGCODEPAGE
3
ANSI_1252
9
$INSBASE
10
0
20
0
30
0
9
$EXTMIN
10
-4.91376
20
-8.67223
30
0
9
$EXTMAX
10
13.6972221586
20
4.16376
30
0
9
$LIMMIN
10
0
20
0
9
$LIMMAX
10
420
20
297
9
$ORTHOMODE
70
0
9
$LTSCALE
40
1
9
$TEXTSTYLE
7
STANDARD
9
$CLAYER
8
Notes:
9
$DIMASZ
40
0.1
9
$DIMLFAC
40
1
9
$DIMSCALE
40
1
9
$DIMEXO
40
0.025
9
$DIMEXE
40
0.05
9
$DIMTXT
40
0.1
9
$DIMTSZ
40
0
9
$DIMAUNIT
70
0
9
$DIMADEC
70
2
9
$DIMLUNIT
70
2
9
$DIMSTYLE
2
Standard
9
$DIMGAP
40
0.025
9
$DIMTIH
70
0
9
$LUNITS
70
2
9
$LUPREC
70
4
9
$AUNITS
70
0
9
$AUPREC
70
2
9
$SPLINESEGS
70
8
9
$GRIDMODE
70
1
9
$SNAPSTYLE
70
0
9
$GRIDUNIT
10
0
20
0
9
$PINSBASE
10
0
20
0
30
0
9
$PLIMMIN
10
0
20
0
9
$PLIMMAX
10
4.7721774e-11
20
6.7492118e-11
9
$INSUNITS
70
1
9
$PSVPSCALE
40
1
0
ENDSEC
0
SECTION
2
CLASSES
0
ENDSEC
0
SECTION
2
TABLES
0
TABLE
2
VPORT
5
8
330
0
100
AcDbSymbolTable
70
1
0
VPORT
5
31
330
2
100
AcDbSymbolTableRecord
100
AcDbViewportTableRecord
2
*ACTIVE
70
0
10
0
20
0
11
1
21
1
12
11.4487721984
22
6.21428080641
13
0
23
0
14
10
24
10
15
10
25
10
16
0
26
0
36
1
17
0
27
0
37
0
40
21.0184962048
41
1.78288633461
42
50
43
0
44
0
50
0
51
0
71
0
72
100
73
1
74
3
75
0
76
1
77
0
78
0
281
0
65
1
110
0
120
0
130
0
111
1
121
0
131
0
112
0
122
1
132
0
79
0
146
0
348
10020
60
7
61
5
292
1
282
1
141
0
142
0
63
250
421
3358443
0
ENDTAB
0
TABLE
2
LTYPE
5
5
330
0
100
AcDbSymbolTable
70
4
0
LTYPE
5
14
330
5
100
AcDbSymbolTableRecord
100
AcDbLinetypeTableRecord
2
ByBlock
70
0
3

72
65
73
0
40
0
0
LTYPE
5
15
330
5
100
AcDbSymbolTableRecord
100
AcDbLinetypeTableRecord
2
ByLayer
70
0
3

72
65
73
0
40
0
0
LTYPE
5
16
330
5
100
AcDbSymbolTableRecord
100
AcDbLinetypeTableRecord
2
Continuous
70
0
3
Solid line
72
65
73
0
40
0
0
LTYPE
5
32
330
5
100
AcDbSymbolTableRecord
100
AcDbLinetypeTableRecord
2
DOT
70
0
3
Dot . . . . . . . . . . . . . . . . . . . . . .
72
65
73
2
40
6.35
49
0
74
0
49
-6.35
74
0
0
LTYPE
5
33
330
5
100
AcDbSymbolTableRecord
100
AcDbLinetypeTableRecord
2
DOT2
70
0
3
Dot (.5x) .....................................
72
65
73
2
40
3.175
49
0
74
0
49
-3.175
74
0
0
LTYPE
5
34
330
5
100
AcDbSymbolTableRecord
100
AcDbLinetypeTableRecord
2
DOTX2
70
0
3
Dot (2x) .  .  .  .  .  .  .  .  .  .  .  .  .
72
65
73
2
40
12.7
49
0
74
0
49
-12.7
74
0
0
LTYPE
5
35
330
5
100
AcDbSymbolTableRecord
100
AcDbLinetypeTableRecord
2
DASHED
70
0
3
Dot . . . . . . . . . . . . . . . . . . . . . .
72
65
73
2
40
19.05
49
12.7
74
0
49
-6.35
74
0
0
LTYPE
5
36
330
5
100
AcDbSymbolTableRecord
100
AcDbLinetypeTableRecord
2
DASHED2
70
0
3
Dashed (.5x) _ _ _ _ _ _ _ _ _ _ _ _ _ _ _ _ _
72
65
73
2
40
9.525
49
6.35
74
0
49
-3.175
74
0
0
LTYPE
5
37
330
5
100
AcDbSymbolTableRecord
100
AcDbLinetypeTableRecord
2
DASHEDX2
70
0
3
Dashed (2x) ____  ____  ____  ____  ____  ___
72
65
73
2
40
38.1
49
25.4
74
0
49
-12.7
74
0
0
LTYPE
5
38
330
5
100
AcDbSymbolTableRecord
100
AcDbLinetypeTableRecord
2
DASHDOT
70
0
3
Dash dot __ . __ . __ . __ . __ . __ . __ . __
72
65
73
4
40
25.4
49
12.7
74
0
49
-6.35
74
0
49
0
74
0
49
-6.35
74
0
0
LTYPE
5
39
330
5
100
AcDbSymbolTableRecord
100
AcDbLinetypeTableRecord
2
DASHDOT2
70
0
3
Dash dot (.5x) _._._._._._._._._._._._._._._.
72
65
73
4
40
12.7
49
6.35
74
0
49
-3.175
74
0
49
0
74
0
49
-3.175
74
0
0
LTYPE
5
3A
330
5
100
AcDbSymbolTableRecord
100
AcDbLinetypeTableRecord
2
DASHDOTX2
70
0
3
Dash dot (2x) ____  .  ____  .  ____  .  ___
72
65
73
4
40
50.8
49
25.4
74
0
49
-12.7
74
0
49
0
74
0
49
-12.7
74
0
0
LTYPE
5
3B
330
5
100
AcDbSymbolTableRecord
100
AcDbLinetypeTableRecord
2
DIVIDE
70
0
3
Divide ____ . . ____ . . ____ . . ____ . . ____
72
65
73
6
40
31.75
49
12.7
74
0
49
-6.35
74
0
49
0
74
0
49
-6.35
74
0
49
0
74
0
49
-6.35
74
0
0
LTYPE
5
3C
330
5
100
AcDbSymbolTableRecord
100
AcDbLinetypeTableRecord
2
DIVIDE2
70
0
3
Divide (.5x) __..__..__..__..__..__..__..__.._
72
65
73
6
40
15.875
49
6.35
74
0
49
-3.175
74
0
49
0
74
0
49
-3.175
74
0
49
0
74
0
49
-3.175
74
0
0
LTYPE
5
3D
330
5
100
AcDbSymbolTableRecord
100
AcDbLinetypeTableRecord
2
DIVIDEX2
70
0
3
Divide (2x) ________  .  .  ________  .  .  _
72
65
73
6
40
63.5
49
25.4
74
0
49
-12.7
74
0
49
0
74
0
49
-12.7
74
0
49
0
74
0
49
-12.7
74
0
0
LTYPE
5
3E
330
5
100
AcDbSymbolTableRecord
100
AcDbLinetypeTableRecord
2
BORDER
70
0
3
Border __ __ . __ __ . __ __ . __ __ . __ __ .
72
65
73
6
40
44.45
49
12.7
74
0
49
-6.35
74
0
49
12.7
74
0
49
-6.35
74
0
49
0
74
0
49
-6.35
74
0
0
LTYPE
5
3F
330
5
100
AcDbSymbolTableRecord
100
AcDbLinetypeTableRecord
2
BORDER2
70
0
3
Border (.5x) __.__.__.__.__.__.__.__.__.__.__.
72
65
73
6
40
22.225
49
6.35
74
0
49
-3.175
74
0
49
6.35
74
0
49
-3.175
74
0
49
0
74
0
49
-3.175
74
0
0
LTYPE
5
40
330
5
100
AcDbSymbolTableRecord
100
AcDbLinetypeTableRecord
2
BORDERX2
70
0
3
Border (2x) ____  ____  .  ____  ____  .  ___
72
65
73
6
40
88.9
49
25.4
74
0
49
-12.7
74
0
49
25.4
74
0
49
-12.7
74
0
49
0
74
0
49
-12.7
74
0
0
LTYPE
5
41
330
5
100
AcDbSymbolTableRecord
100
AcDbLinetypeTableRecord
2
CENTER
70
0
3
Center ____ _ ____ _ ____ _ ____ _ ____ _ ____
72
65
73
4
40
50.8
49
31.75
74
0
49
-6.35
74
0
49
6.35
74
0
49
-6.35
74
0
0
LTYPE
5
42
330
5
100
AcDbSymbolTableRecord
100
AcDbLinetypeTableRecord
2
CENTER2
70
0
3
Center (.5x) ___ _ ___ _ ___ _ ___ _ ___ _ ___
72
65
73
4
40
28.575
49
19.05
74
0
49
-3.175
74
0
49
3.175
74
0
49
-3.175
74
0
0
LTYPE
5
43
330
5
100
AcDbSymbolTableRecord
100
AcDbLinetypeTableRecord
2
CENTERX2
70
0
3
Center (2x) ________  __  ________  __  _____
72
65
73
4
40
101.6
49
63.5
74
0
49
-12.7
74
0
49
12.7
74
0
49
-12.7
74
0
0
ENDTAB
0
TABLE
2
LAYER
5
2
330
0
100
AcDbSymbolTable
70
1
0
LAYER
5
10
330
2
100
AcDbSymbolTableRecord
100
AcDbLayerTableRecord
2
0
70
0
62
7
6
CONTINUOUS
370
0
390
F
0
LAYER
5
44
330
2
100
AcDbSymbolTableRecord
100
AcDbLayerTableRecord
2
sketch1
70
1
62
56
420
8421376
6
CONTINUOUS
370
0
390
F
0
LAYER
5
45
330
2
100
AcDbSymbolTableRecord
100
AcDbLayerTableRecord
2
sketch2
70
1
62
136
420
32896
6
CONTINUOUS
370
0
390
F
0
LAYER
5
46
330
2
100
AcDbSymbolTableRecord
100
AcDbLayerTableRecord
2
sketch3
70
1
62
216
420
8388736
6
CONTINUOUS
370
0
390
F
0
LAYER
5
47
330
2
100
AcDbSymbolTableRecord
100
AcDbLayerTableRecord
2
pcb_bbox
70
1
62
253
420
10526884
6
CONTINUOUS
370
0
390
F
0
LAYER
5
48
330
2
100
AcDbSymbolTableRecord
100
AcDbLayerTableRecord
2
vector
70
0
62
3
6
CONTINUOUS
370
0
390
F
0
LAYER
5
49
330
2
100
AcDbSymbolTableRecord
100
AcDbLayerTableRecord
2
pcb_bndry
70
0
62
8
6
CONTINUOUS
370
0
390
F
0
LAYER
5
4A
330
2
100
AcDbSymbolTableRecord
100
AcDbLayerTableRecord
2
Notes:
70
0
62
7
6
CONTINUOUS
370
0
390
F
0
ENDTAB
0
TABLE
2
STYLE
5
3
330
0
100
AcDbSymbolTable
70
3
0
STYLE
5
4B
330
2
100
AcDbSymbolTableRecord
100
AcDbTextStyleTableRecord
2
iso
70
0
40
0
41
1
50
0
71
0
42
1
3
iso
4

0
STYLE
5
4C
330
2
100
AcDbSymbolTableRecord
100
AcDbTextStyleTableRecord
2
Standard
70
0
40
0
41
1
50
0
71
0
42
1
3
txt
4

0
ENDTAB
0
TABLE
2
VIEW
5
6
330
0
100
AcDbSymbolTable
70
0
0
ENDTAB
0
TABLE
2
UCS
5
7
330
0
100
AcDbSymbolTable
70
0
0
ENDTAB
0
TABLE
2
APPID
5
9
330
0
100
AcDbSymbolTable
70
1
0
APPID
5
12
330
9
100
AcDbSymbolTableRecord
100
AcDbRegAppTableRecord
2
ACAD
70
0
0
ENDTAB
0
TABLE
2
DIMSTYLE
5
A
330
0
100
AcDbSymbolTable
70
1
100
AcDbDimStyleTable
71
1
0
DIMSTYLE
105
4D
330
A
100
AcDbSymbolTableRecord
100
AcDbDimStyleTableRecord
2
Standard
70
0
40
1
41
0.1
42
0.025
43
0.38
44
0.05
45
0
46
0
47
0
48
0
140
0.1
141
0.09
142
0
143
25.4
144
1
145
0
146
1
147
0.025
148
0
71
0
72
0
73
0
74
1
75
0
76
0
77
0
78
0
79
0
170
0
171
2
172
0
173
0
174
0
175
0
176
0
177
0
178
0
179
0
271
4
272
4
273
2
274
2
275
0
276
0
277
2
278
46
279
0
280
0
281
0
282
0
283
1
284
0
285
0
286
0
288
0
289
3
340
Standard
341

371
-2
372
-2
0
ENDTAB
0
TABLE
2
BLOCK_RECORD
5
1
330
0
100
AcDbSymbolTable
70
2
0
BLOCK_RECORD
5
1F
330
1
100
AcDbSymbolTableRecord
100
AcDbBlockTableRecord
2
*Model_Space
70
0
280
1
281
0
0
BLOCK_RECORD
5
1E
330
1
100
AcDbSymbolTableRecord
100
AcDbBlockTableRecord
2
*Paper_Space
70
0
280
1
281
0
0
ENDTAB
0
ENDSEC
0
SECTION
2
BLOCKS
0
BLOCK
5
20
330
1F
100
AcDbEntity
8
0
100
AcDbBlockBegin
2
*Model_Space
70
0
10
0
20
0
30
0
3
*Model_Space
1

0
ENDBLK
5
21
330
1F
100
AcDbEntity
8
0
100
AcDbBlockEnd
0
BLOCK
5
1C
330
1B
100
AcDbEntity
8
0
100
AcDbBlockBegin
2
*Paper_Space
70
0
10
0
20
0
30
0
3
*Paper_Space
1

0
ENDBLK
5
1D
330
1F
100
AcDbEntity
8
0
100
AcDbBlockEnd
0
ENDSEC
0
SECTION
2
ENTITIES
0
LINE
5
4E
100
AcDbEntity
8
pcb_bbox
6
ByLayer
62
256
370
-1
100
AcDbLine
10
-2.5
20
1.7501
11
2.5
21
1.7501
0
LINE
5
4F
100
AcDbEntity
8
pcb_bbox
6
ByLayer
62
256
370
-1
100
AcDbLine
10
2.5
20
1.7501
11
2.5
21
-1.7499
0
LINE
5
50
100
AcDbEntity
8
pcb_bbox
6
ByLayer
62
256
370
-1
100
AcDbLine
10
2.5
20
-1.7499
11
-2.5
21
-1.7499
0
LINE
5
51
100
AcDbEntity
8
pcb_bbox
6
ByLayer
62
256
370
-1
100
AcDbLine
10
-2.5
20
-1.7499
11
-2.5
21
1.7501
0
LINE
5
52
100
AcDbEntity
8
vector
6
ByLayer
62
3
370
-1
100
AcDbLine
10
-1.155
20
2.60866
11
-0.375
21
2.60866
0
LINE
5
53
100
AcDbEntity
8
vector
6
ByLayer
62
3
370
-1
100
AcDbLine
10
-0.375
20
2.60866
11
-0.375
21
2.49054
0
LINE
5
54
100
AcDbEntity
8
vector
6
ByLayer
62
3
370
-1
100
AcDbLine
10
-0.375
20
2.49054
11
0.375
21
2.49054
0
LINE
5
55
100
AcDbEntity
8
vector
6
ByLayer
62
3
370
-1
100
AcDbLine
10
0.375
20
2.49054
11
0.375
21
2.60866
0
LINE
5
56
100
AcDbEntity
8
vector
6
ByLayer
62
3
370
-1
100
AcDbLine
10
0.375
20
2.60866
11
1.155
21
2.60866
0
LINE
5
57
100
AcDbEntity
8
vector
6
ByLayer
62
3
370
-1
100
AcDbLine
10
1.155
20
2.60866
11
1.155
21
2.49054
0
LINE
5
58
100
AcDbEntity
8
vector
6
ByLayer
62
3
370
-1
100
AcDbLine
10
1.155
20
2.49054
11
1.905
21
2.49054
0
LINE
5
59
100
AcDbEntity
8
vector
6
ByLayer
62
3
370
-1
100
AcDbLine
10
1.905
20
2.49054
11
1.905
21
2.60866
0
LINE
5
5A
100
AcDbEntity
8
vector
6
ByLayer
62
3
370
-1
100
AcDbLine
10
1.905
20
2.60866
11
2.54999
21
2.60866
0
LINE
5
5B
100
AcDbEntity
8
vector
6
ByLayer
62
3
370
-1
100
AcDbLine
10
2.54999
20
2.60866
11
2.54999
21
3.07715
0
LINE
5
5C
100
AcDbEntity
8
vector
6
ByLayer
62
3
370
-1
100
AcDbLine
10
2.54999
20
3.07715
11
2.66811
21
3.07715
0
LINE
5
5D
100
AcDbEntity
8
vector
6
ByLayer
62
3
370
-1
100
AcDbLine
10
2.66811
20
3.07715
11
2.66811
21
3.57715
0
LINE
5
5E
100
AcDbEntity
8
vector
6
ByLayer
62
3
370
-1
100
AcDbLine
10
2.66811
20
3.57715
11
2.54999
21
3.57715
0
LINE
5
5F
100
AcDbEntity
8
vector
6
ByLayer
62
3
370
-1
100
AcDbLine
10
2.54999
20
3.57715
11
2.54999
21
4.04565
0
LINE
5
60
100
AcDbEntity
8
vector
6
ByLayer
62
3
370
-1
100
AcDbLine
10
2.54999
20
4.04565
11
1.905
21
4.04565
0
LINE
5
61
100
AcDbEntity
8
vector
6
ByLayer
62
3
370
-1
100
AcDbLine
10
1.905
20
4.04565
11
1.905
21
4.16376
0
LINE
5
62
100
AcDbEntity
8
vector
6
ByLayer
62
3
370
-1
100
AcDbLine
10
1.905
20
4.16376
11
1.155
21
4.16376
0
LINE
5
63
100
AcDbEntity
8
vector
6
ByLayer
62
3
370
-1
100
AcDbLine
10
1.155
20
4.16376
11
1.155
21
4.04565
0
LINE
5
64
100
AcDbEntity
8
vector
6
ByLayer
62
3
370
-1
100
AcDbLine
10
1.155
20
4.04565
11
0.375
21
4.04565
0
LINE
5
65
100
AcDbEntity
8
vector
6
ByLayer
62
3
370
-1
100
AcDbLine
10
0.375
20
4.04565
11
0.375
21
4.16376
0
LINE
5
66
100
AcDbEntity
8
vector
6
ByLayer
62
3
370
-1
100
AcDbLine
10
0.375
20
4.16376
11
-0.375
21
4.16376
0
LINE
5
67
100
AcDbEntity
8
vector
6
ByLayer
62
3
370
-1
100
AcDbLine
10
-0.375
20
4.16376
11
-0.375
21
4.04565
0
LINE
5
68
100
AcDbEntity
8
vector
6
ByLayer
62
3
370
-1
100
AcDbLine
10
-0.375
20
4.04565
11
-1.155
21
4.04565
0
LINE
5
69
100
AcDbEntity
8
vector
6
ByLayer
62
3
370
-1
100
AcDbLine
10
-1.155
20
4.04565
11
-1.155
21
4.16376
0
LINE
5
6A
100
AcDbEntity
8
vector
6
ByLayer
62
3
370
-1
100
AcDbLine
10
-1.155
20
4.16376
11
-1.905
21
4.16376
0
LINE
5
6B
100
AcDbEntity
8
vector
6
ByLayer
62
3
370
-1
100
AcDbLine
10
-1.905
20
4.16376
11
-1.905
21
4.04565
0
LINE
5
6C
100
AcDbEntity
8
vector
6
ByLayer
62
3
370
-1
100
AcDbLine
10
-1.905
20
4.04565
11
-2.54999
21
4.04565
0
LINE
5
6D
100
AcDbEntity
8
vector
6
ByLayer
62
3
370
-1
100
AcDbLine
10
-2.54999
20
4.04565
11
-2.54999
21
3.57715
0
LINE
5
6E
100
AcDbEntity
8
vector
6
ByLayer
62
3
370
-1
100
AcDbLine
10
-2.54999
20
3.57715
11
-2.66811
21
3.57715
0
LINE
5
6F
100
AcDbEntity
8
vector
6
ByLayer
62
3
370
-1
100
AcDbLine
10
-2.66811
20
3.57715
11
-2.66811
21
3.07715
0
LINE
5
70
100
AcDbEntity
8
vector
6
ByLayer
62
3
370
-1
100
AcDbLine
10
-2.66811
20
3.07715
11
-2.54999
21
3.07715
0
LINE
5
71
100
AcDbEntity
8
vector
6
ByLayer
62
3
370
-1
100
AcDbLine
10
-2.54999
20
3.07715
11
-2.54999
21
2.60866
0
LINE
5
72
100
AcDbEntity
8
vector
6
ByLayer
62
3
370
-1
100
AcDbLine
10
-2.54999
20
2.60866
11
-1.905
21
2.60866
0
LINE
5
73
100
AcDbEntity
8
vector
6
ByLayer
62
3
370
-1
100
AcDbLine
10
-1.905
20
2.60866
11
-1.905
21
2.49054
0
LINE
5
74
100
AcDbEntity
8
vector
6
ByLayer
62
3
370
-1
100
AcDbLine
10
-1.905
20
2.49054
11
-1.155
21
2.49054
0
LINE
5
75
100
AcDbEntity
8
vector
6
ByLayer
62
3
370
-1
100
AcDbLine
10
-1.155
20
2.49054
11
-1.155
21
2.60866
0
LINE
5
76
100
AcDbEntity
8
vector
6
ByLayer
62
3
370
-1
100
AcDbLine
10
1.155
20
1.8
11
1.155
21
1.91811
0
LINE
5
77
100
AcDbEntity
8
vector
6
ByLayer
62
3
370
-1
100
AcDbLine
10
1.155
20
1.91811
11
1.905
21
1.91811
0
LINE
5
78
100
AcDbEntity
8
vector
6
ByLayer
62
3
370
-1
100
AcDbLine
10
1.905
20
1.91811
11
1.905
21
1.8
0
LINE
5
79
100
AcDbEntity
8
vector
6
ByLayer
62
3
370
-1
100
AcDbLine
10
1.905
20
1.8
11
1.155
21
1.8
0
LINE
5
7A
100
AcDbEntity
8
vector
6
ByLayer
62
3
370
-1
100
AcDbLine
10
-0.375
20
1.8
11
-0.375
21
1.91811
0
LINE
5
7B
100
AcDbEntity
8
vector
6
ByLayer
62
3
370
-1
100
AcDbLine
10
-0.375
20
1.91811
11
0.375
21
1.91811
0
LINE
5
7C
100
AcDbEntity
8
vector
6
ByLayer
62
3
370
-1
100
AcDbLine
10
0.375
20
1.91811
11
0.375
21
1.8
0
LINE
5
7D
100
AcDbEntity
8
vector
6
ByLayer
62
3
370
-1
100
AcDbLine
10
0.375
20
1.8
11
-0.375
21
1.8
0
LINE
5
7E
100
AcDbEntity
8
vector
6
ByLayer
62
3
370
-1
100
AcDbLine
10
-1.905
20
1.8
11
-1.905
21
1.91811
0
LINE
5
7F
100
AcDbEntity
8
vector
6
ByLayer
62
3
370
-1
100
AcDbLine
10
-1.905
20
1.91811
11
-1.155
21
1.91811
0
LINE
5
80
100
AcDbEntity
8
vector
6
ByLayer
62
3
370
-1
100
AcDbLine
10
-1.155
20
1.91811
11
-1.155
21
1.8
0
LINE
5
81
100
AcDbEntity
8
vector
6
ByLayer
62
3
370
-1
100
AcDbLine
10
-1.155
20
1.8
11
-1.905
21
1.8
0
LINE
5
82
100
AcDbEntity
8
vector
6
ByLayer
62
3
370
-1
100
AcDbLine
10
2.55
20
0.584045
11
2.55
21
1.33405
0
LINE
5
83
100
AcDbEntity
8
vector
6
ByLayer
62
3
370
-1
100
AcDbLine
10
2.55
20
1.33405
11
2.66811
21
1.33405
0
LINE
5
84
100
AcDbEntity
8
vector
6
ByLayer
62
3
370
-1
100
AcDbLine
10
2.66811
20
1.33405
11
2.66811
21
0.584045
0
LINE
5
85
100
AcDbEntity
8
vector
6
ByLayer
62
3
370
-1
100
AcDbLine
10
2.66811
20
0.584045
11
2.55
21
0.584045
0
LINE
5
86
100
AcDbEntity
8
vector
6
ByLayer
62
3
370
-1
100
AcDbLine
10
-2.66811
20
0.584045
11
-2.66811
21
1.33405
0
LINE
5
87
100
AcDbEntity
8
vector
6
ByLayer
62
3
370
-1
100
AcDbLine
10
-2.66811
20
1.33405
11
-2.55
21
1.33405
0
LINE
5
88
100
AcDbEntity
8
vector
6
ByLayer
62
3
370
-1
100
AcDbLine
10
-2.55
20
1.33405
11
-2.55
21
0.584045
0
LINE
5
89
100
AcDbEntity
8
vector
6
ByLayer
62
3
370
-1
100
AcDbLine
10
-2.55
20
0.584045
11
-2.66811
21
0.584045
0
LINE
5
8A
100
AcDbEntity
8
vector
6
ByLayer
62
3
370
-1
100
AcDbLine
10
2.55
20
-1.33405
11
2.55
21
-0.584045
0
LINE
5
8B
100
AcDbEntity
8
vector
6
ByLayer
62
3
370
-1
100
AcDbLine
10
2.55
20
-0.584045
11
2.66811
21
-0.584045
0
LINE
5
8C
100
AcDbEntity
8
vector
6
ByLayer
62
3
370
-1
100
AcDbLine
10
2.66811
20
-0.584045
11
2.66811
21
-1.33405
0
LINE
5
8D
100
AcDbEntity
8
vector
6
ByLayer
62
3
370
-1
100
AcDbLine
10
2.66811
20
-1.33405
11
2.55
21
-1.33405
0
LINE
5
8E
100
AcDbEntity
8
vector
6
ByLayer
62
3
370
-1
100
AcDbLine
10
-2.66811
20
-1.33405
11
-2.66811
21
-0.584045
0
LINE
5
8F
100
AcDbEntity
8
vector
6
ByLayer
62
3
370
-1
100
AcDbLine
10
-2.66811
20
-0.584045
11
-2.55
21
-0.584045
0
LINE
5
90
100
AcDbEntity
8
vector
6
ByLayer
62
3
370
-1
100
AcDbLine
10
-2.55
20
-0.584045
11
-2.55
21
-1.33405
0
LINE
5
91
100
AcDbEntity
8
vector
6
ByLayer
62
3
370
-1
100
AcDbLine
10
-2.55
20
-1.33405
11
-2.66811
21
-1.33405
0
LINE
5
92
100
AcDbEntity
8
vector
6
ByLayer
62
3
370
-1
100
AcDbLine
10
1.155
20
-1.91811
11
1.155
21
-1.8
0
LINE
5
93
100
AcDbEntity
8
vector
6
ByLayer
62
3
370
-1
100
AcDbLine
10
1.155
20
-1.8
11
1.905
21
-1.8
0
LINE
5
94
100
AcDbEntity
8
vector
6
ByLayer
62
3
370
-1
100
AcDbLine
10
1.905
20
-1.8
11
1.905
21
-1.91811
0
LINE
5
95
100
AcDbEntity
8
vector
6
ByLayer
62
3
370
-1
100
AcDbLine
10
1.905
20
-1.91811
11
1.155
21
-1.91811
0
LINE
5
96
100
AcDbEntity
8
vector
6
ByLayer
62
3
370
-1
100
AcDbLine
10
-1.905
20
-1.91811
11
-1.905
21
-1.8
0
LINE
5
97
100
AcDbEntity
8
vector
6
ByLayer
62
3
370
-1
100
AcDbLine
10
-1.905
20
-1.8
11
-1.155
21
-1.8
0
LINE
5
98
100
AcDbEntity
8
vector
6
ByLayer
62
3
370
-1
100
AcDbLine
10
-1.155
20
-1.8
11
-1.155
21
-1.91811
0
LINE
5
99
100
AcDbEntity
8
vector
6
ByLayer
62
3
370
-1
100
AcDbLine
10
-1.155
20
-1.91811
11
-1.905
21
-1.91811
0
LINE
5
9A
100
AcDbEntity
8
vector
6
ByLayer
62
3
370
-1
100
AcDbLine
10
-0.375
20
-1.91811
11
-0.375
21
-1.8
0
LINE
5
9B
100
AcDbEntity
8
vector
6
ByLayer
62
3
370
-1
100
AcDbLine
10
-0.375
20
-1.8
11
0.375
21
-1.8
0
LINE
5
9C
100
AcDbEntity
8
vector
6
ByLayer
62
3
370
-1
100
AcDbLine
10
0.375
20
-1.8
11
0.375
21
-1.91811
0
LINE
5
9D
100
AcDbEntity
8
vector
6
ByLayer
62
3
370
-1
100
AcDbLine
10
0.375
20
-1.91811
11
-0.375
21
-1.91811
0
LINE
5
9E
100
AcDbEntity
8
vector
6
ByLayer
62
3
370
-1
100
AcDbLine
10
3.82715
20
-1.79999
11
4.32715
21
-1.79999
0
LINE
5
9F
100
AcDbEntity
8
vector
6
ByLayer
62
3
370
-1
100
AcDbLine
10
4.32715
20
-1.79999
11
4.32715
21
-1.91811
0
LINE
5
A0
100
AcDbEntity
8
vector
6
ByLayer
62
3
370
-1
100
AcDbLine
10
4.32715
20
-1.91811
11
4.79565
21
-1.91811
0
LINE
5
A1
100
AcDbEntity
8
vector
6
ByLayer
62
3
370
-1
100
AcDbLine
10
4.79565
20
-1.91811
11
4.79565
21
-1.33405
0
LINE
5
A2
100
AcDbEntity
8
vector
6
ByLayer
62
3
370
-1
100
AcDbLine
10
4.79565
20
-1.33405
11
4.91376
21
-1.33405
0
LINE
5
A3
100
AcDbEntity
8
vector
6
ByLayer
62
3
370
-1
100
AcDbLine
10
4.91376
20
-1.33405
11
4.91376
21
-0.584045
0
LINE
5
A4
100
AcDbEntity
8
vector
6
ByLayer
62
3
370
-1
100
AcDbLine
10
4.91376
20
-0.584045
11
4.79565
21
-0.584045
0
LINE
5
A5
100
AcDbEntity
8
vector
6
ByLayer
62
3
370
-1
100
AcDbLine
10
4.79565
20
-0.584045
11
4.79565
21
0.584045
0
LINE
5
A6
100
AcDbEntity
8
vector
6
ByLayer
62
3
370
-1
100
AcDbLine
10
4.79565
20
0.584045
11
4.91376
21
0.584045
0
LINE
5
A7
100
AcDbEntity
8
vector
6
ByLayer
62
3
370
-1
100
AcDbLine
10
4.91376
20
0.584045
11
4.91376
21
1.33405
0
LINE
5
A8
100
AcDbEntity
8
vector
6
ByLayer
62
3
370
-1
100
AcDbLine
10
4.91376
20
1.33405
11
4.79565
21
1.33405
0
LINE
5
A9
100
AcDbEntity
8
vector
6
ByLayer
62
3
370
-1
100
AcDbLine
10
4.79565
20
1.33405
11
4.79565
21
1.91811
0
LINE
5
AA
100
AcDbEntity
8
vector
6
ByLayer
62
3
370
-1
100
AcDbLine
10
4.79565
20
1.91811
11
4.32715
21
1.91811
0
LINE
5
AB
100
AcDbEntity
8
vector
6
ByLayer
62
3
370
-1
100
AcDbLine
10
4.32715
20
1.91811
11
4.32715
21
1.79999
0
LINE
5
AC
100
AcDbEntity
8
vector
6
ByLayer
62
3
370
-1
100
AcDbLine
10
4.32715
20
1.79999
11
3.82715
21
1.79999
0
LINE
5
AD
100
AcDbEntity
8
vector
6
ByLayer
62
3
370
-1
100
AcDbLine
10
3.82715
20
1.79999
11
3.82715
21
1.91811
0
LINE
5
AE
100
AcDbEntity
8
vector
6
ByLayer
62
3
370
-1
100
AcDbLine
10
3.82715
20
1.91811
11
3.35866
21
1.91811
0
LINE
5
AF
100
AcDbEntity
8
vector
6
ByLayer
62
3
370
-1
100
AcDbLine
10
3.35866
20
1.91811
11
3.35866
21
1.33405
0
LINE
5
B0
100
AcDbEntity
8
vector
6
ByLayer
62
3
370
-1
100
AcDbLine
10
3.35866
20
1.33405
11
3.24054
21
1.33405
0
LINE
5
B1
100
AcDbEntity
8
vector
6
ByLayer
62
3
370
-1
100
AcDbLine
10
3.24054
20
1.33405
11
3.24054
21
0.584045
0
LINE
5
B2
100
AcDbEntity
8
vector
6
ByLayer
62
3
370
-1
100
AcDbLine
10
3.24054
20
0.584045
11
3.35866
21
0.584045
0
LINE
5
B3
100
AcDbEntity
8
vector
6
ByLayer
62
3
370
-1
100
AcDbLine
10
3.35866
20
0.584045
11
3.35866
21
-0.584045
0
LINE
5
B4
100
AcDbEntity
8
vector
6
ByLayer
62
3
370
-1
100
AcDbLine
10
3.35866
20
-0.584045
11
3.24054
21
-0.584045
0
LINE
5
B5
100
AcDbEntity
8
vector
6
ByLayer
62
3
370
-1
100
AcDbLine
10
3.24054
20
-0.584045
11
3.24054
21
-1.33405
0
LINE
5
B6
100
AcDbEntity
8
vector
6
ByLayer
62
3
370
-1
100
AcDbLine
10
3.24054
20
-1.33405
11
3.35866
21
-1.33405
0
LINE
5
B7
100
AcDbEntity
8
vector
6
ByLayer
62
3
370
-1
100
AcDbLine
10
3.35866
20
-1.33405
11
3.35866
21
-1.91811
0
LINE
5
B8
100
AcDbEntity
8
vector
6
ByLayer
62
3
370
-1
100
AcDbLine
10
3.35866
20
-1.91811
11
3.82715
21
-1.91811
0
LINE
5
B9
100
AcDbEntity
8
vector
6
ByLayer
62
3
370
-1
100
AcDbLine
10
3.82715
20
-1.91811
11
3.82715
21
-1.79999
0
LINE
5
BA
100
AcDbEntity
8
vector
6
ByLayer
62
3
370
-1
100
AcDbLine
10
-4.32715
20
-1.79999
11
-3.82715
21
-1.79999
0
LINE
5
BB
100
AcDbEntity
8
vector
6
ByLayer
62
3
370
-1
100
AcDbLine
10
-3.82715
20
-1.79999
11
-3.82715
21
-1.91811
0
LINE
5
BC
100
AcDbEntity
8
vector
6
ByLayer
62
3
370
-1
100
AcDbLine
10
-3.82715
20
-1.91811
11
-3.35866
21
-1.91811
0
LINE
5
BD
100
AcDbEntity
8
vector
6
ByLayer
62
3
370
-1
100
AcDbLine
10
-3.35866
20
-1.91811
11
-3.35866
21
-1.33405
0
LINE
5
BE
100
AcDbEntity
8
vector
6
ByLayer
62
3
370
-1
100
AcDbLine
10
-3.35866
20
-1.33405
11
-3.24054
21
-1.33405
0
LINE
5
BF
100
AcDbEntity
8
vector
6
ByLayer
62
3
370
-1
100
AcDbLine
10
-3.24054
20
-1.33405
11
-3.24054
21
-0.584045
0
LINE
5
C0
100
AcDbEntity
8
vector
6
ByLayer
62
3
370
-1
100
AcDbLine
10
-3.24054
20
-0.584045
11
-3.35866
21
-0.584045
0
LINE
5
C1
100
AcDbEntity
8
vector
6
ByLayer
62
3
370
-1
100
AcDbLine
10
-3.35866
20
-0.584045
11
-3.35866
21
0.584045
0
LINE
5
C2
100
AcDbEntity
8
vector
6
ByLayer
62
3
370
-1
100
AcDbLine
10
-3.35866
20
0.584045
11
-3.24054
21
0.584045
0
LINE
5
C3
100
AcDbEntity
8
vector
6
ByLayer
62
3
370
-1
100
AcDbLine
10
-3.24054
20
0.584045
11
-3.24054
21
1.33405
0
LINE
5
C4
100
AcDbEntity
8
vector
6
ByLayer
62
3
370
-1
100
AcDbLine
10
-3.24054
20
1.33405
11
-3.35866
21
1.33405
0
LINE
5
C5
100
AcDbEntity
8
vector
6
ByLayer
62
3
370
-1
100
AcDbLine
10
-3.35866
20
1.33405
11
-3.35866
21
1.91811
0
LINE
5
C6
100
AcDbEntity
8
vector
6
ByLayer
62
3
370
-1
100
AcDbLine
10
-3.35866
20
1.91811
11
-3.82715
21
1.91811
0
LINE
5
C7
100
AcDbEntity
8
vector
6
ByLayer
62
3
370
-1
100
AcDbLine
10
-3.82715
20
1.91811
11
-3.82715
21
1.79999
0
LINE
5
C8
100
AcDbEntity
8
vector
6
ByLayer
62
3
370
-1
100
AcDbLine
10
-3.82715
20
1.79999
11
-4.32715
21
1.79999
0
LINE
5
C9
100
AcDbEntity
8
vector
6
ByLayer
62
3
370
-1
100
AcDbLine
10
-4.32715
20
1.79999
11
-4.32715
21
1.91811
0
LINE
5
CA
100
AcDbEntity
8
vector
6
ByLayer
62
3
370
-1
100
AcDbLine
10
-4.32715
20
1.91811
11
-4.79565
21
1.91811
0
LINE
5
CB
100
AcDbEntity
8
vector
6
ByLayer
62
3
370
-1
100
AcDbLine
10
-4.79565
20
1.91811
11
-4.79565
21
1.33405
0
LINE
5
CC
100
AcDbEntity
8
vector
6
ByLayer
62
3
370
-1
100
AcDbLine
10
-4.79565
20
1.33405
11
-4.91376
21
1.33405
0
LINE
5
CD
100
AcDbEntity
8
vector
6
ByLayer
62
3
370
-1
100
AcDbLine
10
-4.91376
20
1.33405
11
-4.91376
21
0.584045
0
LINE
5
CE
100
AcDbEntity
8
vector
6
ByLayer
62
3
370
-1
100
AcDbLine
10
-4.91376
20
0.584045
11
-4.79565
21
0.584045
0
LINE
5
CF
100
AcDbEntity
8
vector
6
ByLayer
62
3
370
-1
100
AcDbLine
10
-4.79565
20
0.584045
11
-4.79565
21
-0.584045
0
LINE
5
D0
100
AcDbEntity
8
vector
6
ByLayer
62
3
370
-1
100
AcDbLine
10
-4.79565
20
-0.584045
11
-4.91376
21
-0.584045
0
LINE
5
D1
100
AcDbEntity
8
vector
6
ByLayer
62
3
370
-1
100
AcDbLine
10
-4.91376
20
-0.584045
11
-4.91376
21
-1.33405
0
LINE
5
D2
100
AcDbEntity
8
vector
6
ByLayer
62
3
370
-1
100
AcDbLine
10
-4.91376
20
-1.33405
11
-4.79565
21
-1.33405
0
LINE
5
D3
100
AcDbEntity
8
vector
6
ByLayer
62
3
370
-1
100
AcDbLine
10
-4.79565
20
-1.33405
11
-4.79565
21
-1.91811
0
LINE
5
D4
100
AcDbEntity
8
vector
6
ByLayer
62
3
370
-1
100
AcDbLine
10
-4.79565
20
-1.91811
11
-4.32715
21
-1.91811
0
LINE
5
D5
100
AcDbEntity
8
vector
6
ByLayer
62
3
370
-1
100
AcDbLine
10
-4.32715
20
-1.91811
11
-4.32715
21
-1.79999
0
LINE
5
D6
100
AcDbEntity
8
vector
6
ByLayer
62
3
370
-1
100
AcDbLine
10
-1.155
20
-4.04565
11
-0.375
21
-4.04565
0
LINE
5
D7
100
AcDbEntity
8
vector
6
ByLayer
62
3
370
-1
100
AcDbLine
10
-0.375
20
-4.04565
11
-0.375
21
-4.16376
0
LINE
5
D8
100
AcDbEntity
8
vector
6
ByLayer
62
3
370
-1
100
AcDbLine
10
-0.375
20
-4.16376
11
0.375
21
-4.16376
0
LINE
5
D9
100
AcDbEntity
8
vector
6
ByLayer
62
3
370
-1
100
AcDbLine
10
0.375
20
-4.16376
11
0.375
21
-4.04565
0
LINE
5
DA
100
AcDbEntity
8
vector
6
ByLayer
62
3
370
-1
100
AcDbLine
10
0.375
20
-4.04565
11
1.155
21
-4.04565
0
LINE
5
DB
100
AcDbEntity
8
vector
6
ByLayer
62
3
370
-1
100
AcDbLine
10
1.155
20
-4.04565
11
1.155
21
-4.16376
0
LINE
5
DC
100
AcDbEntity
8
vector
6
ByLayer
62
3
370
-1
100
AcDbLine
10
1.155
20
-4.16376
11
1.905
21
-4.16376
0
LINE
5
DD
100
AcDbEntity
8
vector
6
ByLayer
62
3
370
-1
100
AcDbLine
10
1.905
20
-4.16376
11
1.905
21
-4.04565
0
LINE
5
DE
100
AcDbEntity
8
vector
6
ByLayer
62
3
370
-1
100
AcDbLine
10
1.905
20
-4.04565
11
2.54999
21
-4.04565
0
LINE
5
DF
100
AcDbEntity
8
vector
6
ByLayer
62
3
370
-1
100
AcDbLine
10
2.54999
20
-4.04565
11
2.54999
21
-3.57715
0
LINE
5
E0
100
AcDbEntity
8
vector
6
ByLayer
62
3
370
-1
100
AcDbLine
10
2.54999
20
-3.57715
11
2.66811
21
-3.57715
0
LINE
5
E1
100
AcDbEntity
8
vector
6
ByLayer
62
3
370
-1
100
AcDbLine
10
2.66811
20
-3.57715
11
2.66811
21
-3.07715
0
LINE
5
E2
100
AcDbEntity
8
vector
6
ByLayer
62
3
370
-1
100
AcDbLine
10
2.66811
20
-3.07715
11
2.54999
21
-3.07715
0
LINE
5
E3
100
AcDbEntity
8
vector
6
ByLayer
62
3
370
-1
100
AcDbLine
10
2.54999
20
-3.07715
11
2.54999
21
-2.60866
0
LINE
5
E4
100
AcDbEntity
8
vector
6
ByLayer
62
3
370
-1
100
AcDbLine
10
2.54999
20
-2.60866
11
1.905
21
-2.60866
0
LINE
5
E5
100
AcDbEntity
8
vector
6
ByLayer
62
3
370
-1
100
AcDbLine
10
1.905
20
-2.60866
11
1.905
21
-2.49054
0
LINE
5
E6
100
AcDbEntity
8
vector
6
ByLayer
62
3
370
-1
100
AcDbLine
10
1.905
20
-2.49054
11
1.155
21
-2.49054
0
LINE
5
E7
100
AcDbEntity
8
vector
6
ByLayer
62
3
370
-1
100
AcDbLine
10
1.155
20
-2.49054
11
1.155
21
-2.60866
0
LINE
5
E8
100
AcDbEntity
8
vector
6
ByLayer
62
3
370
-1
100
AcDbLine
10
1.155
20
-2.60866
11
0.375
21
-2.60866
0
LINE
5
E9
100
AcDbEntity
8
vector
6
ByLayer
62
3
370
-1
100
AcDbLine
10
0.375
20
-2.60866
11
0.375
21
-2.49054
0
LINE
5
EA
100
AcDbEntity
8
vector
6
ByLayer
62
3
370
-1
100
AcDbLine
10
0.375
20
-2.49054
11
-0.375
21
-2.49054
0
LINE
5
EB
100
AcDbEntity
8
vector
6
ByLayer
62
3
370
-1
100
AcDbLine
10
-0.375
20
-2.49054
11
-0.375
21
-2.60866
0
LINE
5
EC
100
AcDbEntity
8
vector
6
ByLayer
62
3
370
-1
100
AcDbLine
10
-0.375
20
-2.60866
11
-1.155
21
-2.60866
0
LINE
5
ED
100
AcDbEntity
8
vector
6
ByLayer
62
3
370
-1
100
AcDbLine
10
-1.155
20
-2.60866
11
-1.155
21
-2.49054
0
LINE
5
EE
100
AcDbEntity
8
vector
6
ByLayer
62
3
370
-1
100
AcDbLine
10
-1.155
20
-2.49054
11
-1.905
21
-2.49054
0
LINE
5
EF
100
AcDbEntity
8
vector
6
ByLayer
62
3
370
-1
100
AcDbLine
10
-1.905
20
-2.49054
11
-1.905
21
-2.60866
0
LINE
5
F0
100
AcDbEntity
8
vector
6
ByLayer
62
3
370
-1
100
AcDbLine
10
-1.905
20
-2.60866
11
-2.54999
21
-2.60866
0
LINE
5
F1
100
AcDbEntity
8
vector
6
ByLayer
62
3
370
-1
100
AcDbLine
10
-2.54999
20
-2.60866
11
-2.54999
21
-3.07715
0
LINE
5
F2
100
AcDbEntity
8
vector
6
ByLayer
62
3
370
-1
100
AcDbLine
10
-2.54999
20
-3.07715
11
-2.66811
21
-3.07715
0
LINE
5
F3
100
AcDbEntity
8
vector
6
ByLayer
62
3
370
-1
100
AcDbLine
10
-2.66811
20
-3.07715
11
-2.66811
21
-3.57715
0
LINE
5
F4
100
AcDbEntity
8
vector
6
ByLayer
62
3
370
-1
100
AcDbLine
10
-2.66811
20
-3.57715
11
-2.54999
21
-3.57715
0
LINE
5
F5
100
AcDbEntity
8
vector
6
ByLayer
62
3
370
-1
100
AcDbLine
10
-2.54999
20
-3.57715
11
-2.54999
21
-4.04565
0
LINE
5
F6
100
AcDbEntity
8
vector
6
ByLayer
62
3
370
-1
100
AcDbLine
10
-2.54999
20
-4.04565
11
-1.905
21
-4.04565
0
LINE
5
F7
100
AcDbEntity
8
vector
6
ByLayer
62
3
370
-1
100
AcDbLine
10
-1.905
20
-4.04565
11
-1.905
21
-4.16376
0
LINE
5
F8
100
AcDbEntity
8
vector
6
ByLayer
62
3
370
-1
100
AcDbLine
10
-1.905
20
-4.16376
11
-1.155
21
-4.16376
0
LINE
5
F9
100
AcDbEntity
8
vector
6
ByLayer
62
3
370
-1
100
AcDbLine
10
-1.155
20
-4.16376
11
-1.155
21
-4.04565
0
LINE
5
FA
100
AcDbEntity
8
vector
6
ByLayer
62
3
370
-1
100
AcDbLine
10
-0.375
20
-4.85431
11
-0.375
21
-4.73619
0
LINE
5
FB
100
AcDbEntity
8
vector
6
ByLayer
62
3
370
-1
100
AcDbLine
10
-0.375
20
-4.73619
11
0.375
21
-4.73619
0
LINE
5
FC
100
AcDbEntity
8
vector
6
ByLayer
62
3
370
-1
100
AcDbLine
10
0.375
20
-4.73619
11
0.375
21
-4.85431
0
LINE
5
FD
100
AcDbEntity
8
vector
6
ByLayer
62
3
370
-1
100
AcDbLine
10
0.375
20
-4.85431
11
-0.375
21
-4.85431
0
LINE
5
FE
100
AcDbEntity
8
vector
6
ByLayer
62
3
370
-1
100
AcDbLine
10
-1.905
20
-4.85431
11
-1.905
21
-4.73619
0
LINE
5
FF
100
AcDbEntity
8
vector
6
ByLayer
62
3
370
-1
100
AcDbLine
10
-1.905
20
-4.73619
11
-1.155
21
-4.73619
0
LINE
5
100
100
AcDbEntity
8
vector
6
ByLayer
62
3
370
-1
100
AcDbLine
10
-1.155
20
-4.73619
11
-1.155
21
-4.85431
0
LINE
5
101
100
AcDbEntity
8
vector
6
ByLayer
62
3
370
-1
100
AcDbLine
10
-1.155
20
-4.85431
11
-1.905
21
-4.85431
0
LINE
5
102
100
AcDbEntity
8
vector
6
ByLayer
62
3
370
-1
100
AcDbLine
10
1.155
20
-4.85431
11
1.155
21
-4.73619
0
LINE
5
103
100
AcDbEntity
8
vector
6
ByLayer
62
3
370
-1
100
AcDbLine
10
1.155
20
-4.73619
11
1.905
21
-4.73619
0
LINE
5
104
100
AcDbEntity
8
vector
6
ByLayer
62
3
370
-1
100
AcDbLine
10
1.905
20
-4.73619
11
1.905
21
-4.85431
0
LINE
5
105
100
AcDbEntity
8
vector
6
ByLayer
62
3
370
-1
100
AcDbLine
10
1.905
20
-4.85431
11
1.155
21
-4.85431
0
LINE
5
106
100
AcDbEntity
8
vector
6
ByLayer
62
3
370
-1
100
AcDbLine
10
-2.66811
20
-6.07025
11
-2.66811
21
-5.32025
0
LINE
5
107
100
AcDbEntity
8
vector
6
ByLayer
62
3
370
-1
100
AcDbLine
10
-2.66811
20
-5.32025
11
-2.55
21
-5.32025
0
LINE
5
108
100
AcDbEntity
8
vector
6
ByLayer
62
3
370
-1
100
AcDbLine
10
-2.55
20
-5.32025
11
-2.55
21
-6.07025
0
LINE
5
109
100
AcDbEntity
8
vector
6
ByLayer
62
3
370
-1
100
AcDbLine
10
-2.55
20
-6.07025
11
-2.66811
21
-6.07025
0
LINE
5
10A
100
AcDbEntity
8
vector
6
ByLayer
62
3
370
-1
100
AcDbLine
10
2.55
20
-6.07025
11
2.55
21
-5.32025
0
LINE
5
10B
100
AcDbEntity
8
vector
6
ByLayer
62
3
370
-1
100
AcDbLine
10
2.55
20
-5.32025
11
2.66811
21
-5.32025
0
LINE
5
10C
100
AcDbEntity
8
vector
6
ByLayer
62
3
370
-1
100
AcDbLine
10
2.66811
20
-5.32025
11
2.66811
21
-6.07025
0
LINE
5
10D
100
AcDbEntity
8
vector
6
ByLayer
62
3
370
-1
100
AcDbLine
10
2.66811
20
-6.07025
11
2.55
21
-6.07025
0
LINE
5
10E
100
AcDbEntity
8
vector
6
ByLayer
62
3
370
-1
100
AcDbLine
10
2.55
20
-7.98837
11
2.55
21
-7.23837
0
LINE
5
10F
100
AcDbEntity
8
vector
6
ByLayer
62
3
370
-1
100
AcDbLine
10
2.55
20
-7.23837
11
2.66811
21
-7.23837
0
LINE
5
110
100
AcDbEntity
8
vector
6
ByLayer
62
3
370
-1
100
AcDbLine
10
2.66811
20
-7.23837
11
2.66811
21
-7.98837
0
LINE
5
111
100
AcDbEntity
8
vector
6
ByLayer
62
3
370
-1
100
AcDbLine
10
2.66811
20
-7.98837
11
2.55
21
-7.98837
0
LINE
5
112
100
AcDbEntity
8
vector
6
ByLayer
62
3
370
-1
100
AcDbLine
10
-2.66811
20
-7.98837
11
-2.66811
21
-7.23837
0
LINE
5
113
100
AcDbEntity
8
vector
6
ByLayer
62
3
370
-1
100
AcDbLine
10
-2.66811
20
-7.23837
11
-2.55
21
-7.23837
0
LINE
5
114
100
AcDbEntity
8
vector
6
ByLayer
62
3
370
-1
100
AcDbLine
10
-2.55
20
-7.23837
11
-2.55
21
-7.98837
0
LINE
5
115
100
AcDbEntity
8
vector
6
ByLayer
62
3
370
-1
100
AcDbLine
10
-2.55
20
-7.98837
11
-2.66811
21
-7.98837
0
LINE
5
116
100
AcDbEntity
8
vector
6
ByLayer
62
3
370
-1
100
AcDbLine
10
-1.905
20
-8.57243
11
-1.905
21
-8.45432
0
LINE
5
117
100
AcDbEntity
8
vector
6
ByLayer
62
3
370
-1
100
AcDbLine
10
-1.905
20
-8.45432
11
-1.155
21
-8.45432
0
LINE
5
118
100
AcDbEntity
8
vector
6
ByLayer
62
3
370
-1
100
AcDbLine
10
-1.155
20
-8.45432
11
-1.155
21
-8.57243
0
LINE
5
119
100
AcDbEntity
8
vector
6
ByLayer
62
3
370
-1
100
AcDbLine
10
-1.155
20
-8.57243
11
-1.905
21
-8.57243
0
LINE
5
11A
100
AcDbEntity
8
vector
6
ByLayer
62
3
370
-1
100
AcDbLine
10
1.155
20
-8.57243
11
1.155
21
-8.45432
0
LINE
5
11B
100
AcDbEntity
8
vector
6
ByLayer
62
3
370
-1
100
AcDbLine
10
1.155
20
-8.45432
11
1.905
21
-8.45432
0
LINE
5
11C
100
AcDbEntity
8
vector
6
ByLayer
62
3
370
-1
100
AcDbLine
10
1.905
20
-8.45432
11
1.905
21
-8.57243
0
LINE
5
11D
100
AcDbEntity
8
vector
6
ByLayer
62
3
370
-1
100
AcDbLine
10
1.905
20
-8.57243
11
1.155
21
-8.57243
0
LINE
5
11E
100
AcDbEntity
8
vector
6
ByLayer
62
3
370
-1
100
AcDbLine
10
-0.375
20
-8.57243
11
-0.375
21
-8.45432
0
LINE
5
11F
100
AcDbEntity
8
vector
6
ByLayer
62
3
370
-1
100
AcDbLine
10
-0.375
20
-8.45432
11
0.375
21
-8.45432
0
LINE
5
120
100
AcDbEntity
8
vector
6
ByLayer
62
3
370
-1
100
AcDbLine
10
0.375
20
-8.45432
11
0.375
21
-8.57243
0
LINE
5
121
100
AcDbEntity
8
vector
6
ByLayer
62
3
370
-1
100
AcDbLine
10
0.375
20
-8.57243
11
-0.375
21
-8.57243
0
ARC
5
122
100
AcDbEntity
8
vector
6
ByLayer
62
3
370
-1
100
AcDbCircle
10
-2.6181
20
1.8681
40
0.15
100
AcDbArc
50
90
51
180
0
LINE
5
123
100
AcDbEntity
8
vector
6
ByLayer
62
3
370
-1
100
AcDbLine
10
2.6181
20
2.0181
11
-2.6181
21
2.0181
0
ARC
5
124
100
AcDbEntity
8
vector
6
ByLayer
62
3
370
-1
100
AcDbCircle
10
2.6181
20
1.8681
40
0.15
100
AcDbArc
50
0
51
90
0
LINE
5
125
100
AcDbEntity
8
vector
6
ByLayer
62
3
370
-1
100
AcDbLine
10
2.7681
20
-1.8679
11
2.7681
21
1.8681
0
ARC
5
126
100
AcDbEntity
8
vector
6
ByLayer
62
3
370
-1
100
AcDbCircle
10
2.6181
20
-1.8679
40
0.15
100
AcDbArc
50
270
51
0
0
LINE
5
127
100
AcDbEntity
8
vector
6
ByLayer
62
3
370
-1
100
AcDbLine
10
-2.7681
20
1.8681
11
-2.7681
21
-1.8679
0
LINE
5
128
100
AcDbEntity
8
vector
6
ByLayer
62
3
370
-1
100
AcDbLine
10
-2.6181
20
-2.0179
11
2.6181
21
-2.0179
0
ARC
5
129
100
AcDbEntity
8
vector
6
ByLayer
62
3
370
-1
100
AcDbCircle
10
-2.6181
20
-1.8679
40
0.15
100
AcDbArc
50
180
51
270
0
ARC
5
12A
100
AcDbEntity
8
vector
6
ByLayer
62
3
370
-1
100
AcDbCircle
10
-2.6181
20
-4.7862
40
0.15
100
AcDbArc
50
90
51
180
0
LINE
5
12B
100
AcDbEntity
8
vector
6
ByLayer
62
3
370
-1
100
AcDbLine
10
2.6181
20
-4.6362
11
-2.6181
21
-4.6362
0
ARC
5
12C
100
AcDbEntity
8
vector
6
ByLayer
62
3
370
-1
100
AcDbCircle
10
2.6181
20
-4.7862
40
0.15
100
AcDbArc
50
3.30777686872e-13
51
90
0
LINE
5
12D
100
AcDbEntity
8
vector
6
ByLayer
62
3
370
-1
100
AcDbLine
10
-2.7681
20
-4.7862
11
-2.7681
21
-8.52223
0
ARC
5
12E
100
AcDbEntity
8
vector
6
ByLayer
62
3
370
-1
100
AcDbCircle
10
-2.6181
20
-8.52223
40
0.15
100
AcDbArc
50
180
51
270
0
LINE
5
12F
100
AcDbEntity
8
vector
6
ByLayer
62
3
370
-1
100
AcDbLine
10
-2.6181
20
-8.67223
11
2.6181
21
-8.67223
0
LINE
5
130
100
AcDbEntity
8
vector
6
ByLayer
62
3
370
-1
100
AcDbLine
10
2.7681
20
-8.52223
11
2.7681
21
-4.7862
0
ARC
5
131
100
AcDbEntity
8
vector
6
ByLayer
62
3
370
-1
100
AcDbCircle
10
2.6181
20
-8.52223
40
0.15
100
AcDbArc
50
270
51
0
0
CIRCLE
5
132
100
AcDbEntity
8
vector
6
ByLayer
62
256
370
-1
100
AcDbCircle
10
-2.35
20
1.6001
40
0.058
0
CIRCLE
5
133
100
AcDbEntity
8
vector
6
ByLayer
62
256
370
-1
100
AcDbCircle
10
2.35
20
1.6001
40
0.058
0
CIRCLE
5
134
100
AcDbEntity
8
vector
6
ByLayer
62
256
370
-1
100
AcDbCircle
10
-2.35
20
-1.5999
40
0.058
0
CIRCLE
5
135
100
AcDbEntity
8
vector
6
ByLayer
62
256
370
-1
100
AcDbCircle
10
2.35
20
-1.5999
40
0.058
0
LINE
5
136
100
AcDbEntity
8
sketch1
6
ByLayer
62
256
370
-1
100
AcDbLine
10
-2.4
20
-1.7499
11
-2.5
21
-1.7499
0
LINE
5
137
100
AcDbEntity
8
sketch1
6
ByLayer
62
256
370
-1
100
AcDbLine
10
-2.5
20
-1.6499
11
-2.5
21
-1.7499
0
ARC
5
138
100
AcDbEntity
8
pcb_bndry
6
ByLayer
62
256
370
-1
100
AcDbCircle
10
2.4
20
-1.6499
40
0.1
100
AcDbArc
50
270
51
360
0
ARC
5
139
100
AcDbEntity
8
pcb_bndry
6
ByLayer
62
256
370
-1
100
AcDbCircle
10
2.4
20
1.6501
40
0.1
100
AcDbArc
50
360
51
90
0
ARC
5
13A
100
AcDbEntity
8
pcb_bndry
6
ByLayer
62
256
370
-1
100
AcDbCircle
10
-2.4
20
1.6501
40
0.1
100
AcDbArc
50
90
51
180
0
ARC
5
13B
100
AcDbEntity
8
pcb_bndry
6
ByLayer
62
256
370
-1
100
AcDbCircle
10
-2.6
20
0.3501
40
0.1
100
AcDbArc
50
270
51
360
0
ARC
5
13C
100
AcDbEntity
8
pcb_bndry
6
ByLayer
62
256
370
-1
100
AcDbCircle
10
-3.1
20
0.1501
40
0.1
100
AcDbArc
50
90
51
180
0
ARC
5
13D
100
AcDbEntity
8
pcb_bndry
6
ByLayer
62
256
370
-1
100
AcDbCircle
10
-3.1
20
-1.1499
40
0.1
100
AcDbArc
50
180
51
270
0
ARC
5
13E
100
AcDbEntity
8
pcb_bndry
6
ByLayer
62
256
370
-1
100
AcDbCircle
10
-2.6
20
-1.3499
40
0.1
100
AcDbArc
50
360
51
90
0
ARC
5
13F
100
AcDbEntity
8
pcb_bndry
6
ByLayer
62
256
370
-1
100
AcDbCircle
10
-2.4
20
-1.6499
40
0.1
100
AcDbArc
50
180
51
270
0
LINE
5
140
100
AcDbEntity
8
pcb_bndry
6
ByLayer
62
256
370
-1
100
AcDbLine
10
-2.4
20
-1.7499
11
2.4
21
-1.7499
0
LINE
5
141
100
AcDbEntity
8
pcb_bndry
6
ByLayer
62
256
370
-1
100
AcDbLine
10
2.5
20
-1.6499
11
2.5
21
1.6501
0
LINE
5
142
100
AcDbEntity
8
pcb_bndry
6
ByLayer
62
256
370
-1
100
AcDbLine
10
2.4
20
1.7501
11
-2.4
21
1.7501
0
LINE
5
143
100
AcDbEntity
8
pcb_bndry
6
ByLayer
62
256
370
-1
100
AcDbLine
10
-2.5
20
1.6501
11
-2.5
21
0.3501
0
LINE
5
144
100
AcDbEntity
8
pcb_bndry
6
ByLayer
62
256
370
-1
100
AcDbLine
10
-2.6
20
0.2501
11
-3.1
21
0.2501
0
LINE
5
145
100
AcDbEntity
8
pcb_bndry
6
ByLayer
62
256
370
-1
100
AcDbLine
10
-3.2
20
0.1501
11
-3.2
21
-1.1499
0
LINE
5
146
100
AcDbEntity
8
pcb_bndry
6
ByLayer
62
256
370
-1
100
AcDbLine
10
-3.1
20
-1.2499
11
-2.6
21
-1.2499
0
LINE
5
147
100
AcDbEntity
8
pcb_bndry
6
ByLayer
62
256
370
-1
100
AcDbLine
10
-2.5
20
-1.3499
11
-2.5
21
-1.6499
0
LINE
5
148
100
AcDbEntity
8
sketch2
6
ByLayer
62
256
370
-1
100
AcDbLine
10
-3.35866
20
1.91811
11
-3.35866
21
-1.91811
0
LINE
5
149
100
AcDbEntity
8
sketch2
6
ByLayer
62
256
370
-1
100
AcDbLine
10
-3.35866
20
1.91811
11
-3.73366
21
1.91811
0
LINE
5
14A
100
AcDbEntity
8
sketch2
6
ByLayer
62
256
370
-1
100
AcDbLine
10
-3.35866
20
-1.91811
11
-3.73366
21
-1.91811
0
LINE
5
14B
100
AcDbEntity
8
sketch2
6
ByLayer
62
256
370
-1
100
AcDbLine
10
-3.73366
20
1.91811
11
-3.73366
21
-1.91811
0
LINE
5
14C
100
AcDbEntity
8
sketch2
6
ByLayer
62
256
370
-1
100
AcDbLine
10
-2.5
20
-1.3499
11
-3.73366
21
-1.3499
0
LINE
5
14D
100
AcDbEntity
8
sketch2
6
ByLayer
62
256
370
-1
100
AcDbLine
10
-2.5
20
0.3501
11
-3.73366
21
0.3501
0
LINE
5
14E
100
AcDbEntity
8
sketch3
6
ByLayer
62
256
370
-1
100
AcDbLine
10
-3.73366
20
0.3501
11
-4.21366
21
0.3501
0
LINE
5
14F
100
AcDbEntity
8
sketch3
6
ByLayer
62
256
370
-1
100
AcDbLine
10
-3.73366
20
-1.3499
11
-4.21366
21
-1.3499
0
LINE
5
150
100
AcDbEntity
8
sketch3
6
ByLayer
62
256
370
-1
100
AcDbLine
10
-3.73366
20
0.3501
11
-3.60866
21
0.3501
0
LINE
5
151
100
AcDbEntity
8
sketch3
6
ByLayer
62
256
370
-1
100
AcDbLine
10
-3.73366
20
-1.3499
11
-3.60866
21
-1.3499
0
ARC
5
152
100
AcDbEntity
8
vector
6
ByLayer
62
256
370
-1
100
AcDbCircle
10
-4.16366
20
0.3001
40
0.05
100
AcDbArc
50
90
51
180
0
LINE
5
153
100
AcDbEntity
8
vector
6
ByLayer
62
256
370
-1
100
AcDbLine
10
-4.16366
20
0.3501
11
-3.65866
21
0.3501
0
ARC
5
154
100
AcDbEntity
8
vector
6
ByLayer
62
256
370
-1
100
AcDbCircle
10
-3.65866
20
0.3001
40
0.05
100
AcDbArc
50
0
51
90
0
LINE
5
155
100
AcDbEntity
8
vector
6
ByLayer
62
256
370
-1
100
AcDbLine
10
-4.21366
20
-1.2999
11
-4.21366
21
0.3001
0
ARC
5
156
100
AcDbEntity
8
vector
6
ByLayer
62
256
370
-1
100
AcDbCircle
10
-4.16366
20
-1.2999
40
0.05
100
AcDbArc
50
180
51
270
0
LINE
5
157
100
AcDbEntity
8
vector
6
ByLayer
62
256
370
-1
100
AcDbLine
10
-3.65866
20
-1.3499
11
-4.16366
21
-1.3499
0
LINE
5
158
100
AcDbEntity
8
vector
6
ByLayer
62
256
370
-1
100
AcDbLine
10
-3.60866
20
0.3001
11
-3.60866
21
-1.2999
0
ARC
5
159
100
AcDbEntity
8
vector
6
ByLayer
62
256
370
-1
100
AcDbCircle
10
-3.65866
20
-1.2999
40
0.05
100
AcDbArc
50
270
51
0
0
LINE
5
15A
100
AcDbEntity
8
sketch2
6
ByLayer
62
256
370
-1
100
AcDbLine
10
3.35866
20
1.91811
11
3.35866
21
-1.91811
0
LINE
5
15B
100
AcDbEntity
8
sketch2
6
ByLayer
62
256
370
-1
100
AcDbLine
10
3.35866
20
1.91811
11
3.73366
21
1.91811
0
LINE
5
15C
100
AcDbEntity
8
sketch2
6
ByLayer
62
256
370
-1
100
AcDbLine
10
3.35866
20
-1.91811
11
3.73366
21
-1.91811
0
LINE
5
15D
100
AcDbEntity
8
sketch2
6
ByLayer
62
256
370
-1
100
AcDbLine
10
3.73366
20
1.91811
11
3.73366
21
-1.91811
0
LINE
5
15E
100
AcDbEntity
8
sketch2
6
ByLayer
62
256
370
-1
100
AcDbLine
10
3.73366
20
1.91811
11
3.79566
21
1.91811
0
LINE
5
15F
100
AcDbEntity
8
sketch2
6
ByLayer
62
256
370
-1
100
AcDbLine
10
3.73366
20
-1.91811
11
3.79566
21
-1.91811
0
LINE
5
160
100
AcDbEntity
8
sketch2
6
ByLayer
62
256
370
-1
100
AcDbLine
10
3.79566
20
1.91811
11
3.79566
21
-1.91811
0
LINE
5
161
100
AcDbEntity
8
sketch2
6
ByLayer
62
256
370
-1
100
AcDbLine
10
-3.73366
20
1.91811
11
-3.79566
21
1.91811
0
LINE
5
162
100
AcDbEntity
8
sketch2
6
ByLayer
62
256
370
-1
100
AcDbLine
10
-3.73366
20
-1.91811
11
-3.79566
21
-1.91811
0
LINE
5
163
100
AcDbEntity
8
sketch2
6
ByLayer
62
256
370
-1
100
AcDbLine
10
-3.79566
20
1.91811
11
-3.79566
21
-1.91811
0
LINE
5
164
100
AcDbEntity
8
sketch1
6
ByLayer
62
256
370
-1
100
AcDbLine
10
-2.7681
20
-6.654215
11
2.7681
21
-6.654215
0
LINE
5
165
100
AcDbEntity
8
sketch1
6
ByLayer
62
256
370
-1
100
AcDbLine
10
0
20
-4.6362
11
0
21
-8.67223
0
CIRCLE
5
166
100
AcDbEntity
8
vector
6
ByLayer
62
256
370
-1
100
AcDbCircle
10
-2.35
20
-5.054115
40
0.058
0
CIRCLE
5
167
100
AcDbEntity
8
vector
6
ByLayer
62
256
370
-1
100
AcDbCircle
10
2.35
20
-5.054115
40
0.058
0
CIRCLE
5
168
100
AcDbEntity
8
vector
6
ByLayer
62
256
370
-1
100
AcDbCircle
10
-2.35
20
-8.254115
40
0.058
0
CIRCLE
5
169
100
AcDbEntity
8
vector
6
ByLayer
62
256
370
-1
100
AcDbCircle
10
2.35
20
-8.254115
40
0.058
0
LINE
5
16A
100
AcDbEntity
8
sketch2
6
ByLayer
62
256
370
-1
100
AcDbLine
10
-2.35
20
1.6001
11
-2.35
21
0.8801
0
LINE
5
16B
100
AcDbEntity
8
sketch2
6
ByLayer
62
256
370
-1
100
AcDbLine
10
-2.35
20
0.8801
11
-3.79566
21
0.8801
0
LINE
5
16C
100
AcDbEntity
8
sketch3
6
ByLayer
62
256
370
-1
100
AcDbLine
10
-2.35
20
0.8801
11
-2.35
21
0.6801
0
LINE
5
16D
100
AcDbEntity
8
sketch3
6
ByLayer
62
256
370
-1
100
AcDbLine
10
-2.35
20
0.8801
11
-2.35
21
1.0801
0
LINE
5
16E
100
AcDbEntity
8
sketch2
6
ByLayer
62
256
370
-1
100
AcDbLine
10
-2.35
20
1.0801
11
-3.79566
21
1.0801
0
LINE
5
16F
100
AcDbEntity
8
sketch2
6
ByLayer
62
256
370
-1
100
AcDbLine
10
-2.35
20
0.6801
11
-3.79566
21
0.6801
0
LINE
5
170
100
AcDbEntity
8
sketch2
6
ByLayer
62
256
370
-1
100
AcDbLine
10
-3.79566
20
1.0801
11
-3.84566
21
1.0801
0
LINE
5
171
100
AcDbEntity
8
sketch2
6
ByLayer
62
256
370
-1
100
AcDbLine
10
-3.79566
20
0.6801
11
-3.84566
21
0.6801
0
LINE
5
172
100
AcDbEntity
8
sketch3
6
ByLayer
62
256
370
-1
100
AcDbLine
10
-3.84566
20
1.0801
11
-3.69566
21
1.0801
0
LINE
5
173
100
AcDbEntity
8
sketch3
6
ByLayer
62
256
370
-1
100
AcDbLine
10
-3.84566
20
0.6801
11
-3.69566
21
0.6801
0
LINE
5
174
100
AcDbEntity
8
sketch3
6
ByLayer
62
256
370
-1
100
AcDbLine
10
-3.84566
20
1.0801
11
-3.99566
21
1.0801
0
LINE
5
175
100
AcDbEntity
8
sketch3
6
ByLayer
62
256
370
-1
100
AcDbLine
10
-3.84566
20
0.6801
11
-3.99566
21
0.6801
0
ARC
5
176
100
AcDbEntity
8
vector
6
ByLayer
62
256
370
-1
100
AcDbCircle
10
-3.94566
20
1.0301
40
0.05
100
AcDbArc
50
90
51
180
0
LINE
5
177
100
AcDbEntity
8
vector
6
ByLayer
62
256
370
-1
100
AcDbLine
10
-3.94566
20
1.0801
11
-3.74566
21
1.0801
0
ARC
5
178
100
AcDbEntity
8
vector
6
ByLayer
62
256
370
-1
100
AcDbCircle
10
-3.74566
20
1.0301
40
0.05
100
AcDbArc
50
0
51
90
0
LINE
5
179
100
AcDbEntity
8
vector
6
ByLayer
62
256
370
-1
100
AcDbLine
10
-3.69566
20
1.0301
11
-3.69566
21
0.7301
0
ARC
5
17A
100
AcDbEntity
8
vector
6
ByLayer
62
256
370
-1
100
AcDbCircle
10
-3.74566
20
0.7301
40
0.05
100
AcDbArc
50
270
51
0
0
LINE
5
17B
100
AcDbEntity
8
vector
6
ByLayer
62
256
370
-1
100
AcDbLine
10
-3.74566
20
0.6801
11
-3.94566
21
0.6801
0
LINE
5
17C
100
AcDbEntity
8
vector
6
ByLayer
62
256
370
-1
100
AcDbLine
10
-3.99566
20
0.7301
11
-3.99566
21
1.0301
0
ARC
5
17D
100
AcDbEntity
8
vector
6
ByLayer
62
256
370
-1
100
AcDbCircle
10
-3.94566
20
0.7301
40
0.05
100
AcDbArc
50
180
51
270
0
LINE
5
17E
100
AcDbEntity
8
sketch2
6
ByLayer
62
256
370
-1
100
AcDbLine
10
2.35
20
-1.5999
11
2.35
21
-0.3299
0
LINE
5
17F
100
AcDbEntity
8
sketch2
6
ByLayer
62
256
370
-1
100
AcDbLine
10
2.35
20
-0.3299
11
3.79566
21
-0.3299
0
LINE
5
180
100
AcDbEntity
8
sketch2
6
ByLayer
62
256
370
-1
100
AcDbLine
10
3.79566
20
-0.3299
11
4.39566
21
-0.3299
0
LINE
5
181
100
AcDbEntity
8
sketch3
6
ByLayer
62
256
370
-1
100
AcDbLine
10
4.39566
20
-0.3299
11
4.62066
21
-0.3299
0
LINE
5
182
100
AcDbEntity
8
sketch3
6
ByLayer
62
256
370
-1
100
AcDbLine
10
4.39566
20
-0.3299
11
4.17066
21
-0.3299
0
LINE
5
183
100
AcDbEntity
8
sketch3
6
ByLayer
62
256
370
-1
100
AcDbLine
10
4.17066
20
-0.3299
11
4.17066
21
-0.0799
0
LINE
5
184
100
AcDbEntity
8
sketch3
6
ByLayer
62
256
370
-1
100
AcDbLine
10
4.62066
20
-0.3299
11
4.62066
21
-0.0799
0
LINE
5
185
100
AcDbEntity
8
sketch3
6
ByLayer
62
256
370
-1
100
AcDbLine
10
4.17066
20
-0.3299
11
4.17066
21
-0.5799
0
LINE
5
186
100
AcDbEntity
8
sketch3
6
ByLayer
62
256
370
-1
100
AcDbLine
10
4.62066
20
-0.3299
11
4.62066
21
-0.5799
0
ARC
5
187
100
AcDbEntity
8
vector
6
ByLayer
62
256
370
-1
100
AcDbCircle
10
4.22066
20
-0.1299
40
0.05
100
AcDbArc
50
90
51
180
0
LINE
5
188
100
AcDbEntity
8
vector
6
ByLayer
62
256
370
-1
100
AcDbLine
10
4.22066
20
-0.0799
11
4.57066
21
-0.0799
0
ARC
5
189
100
AcDbEntity
8
vector
6
ByLayer
62
256
370
-1
100
AcDbCircle
10
4.57066
20
-0.1299
40
0.05
100
AcDbArc
50
0
51
90
0
LINE
5
18A
100
AcDbEntity
8
vector
6
ByLayer
62
256
370
-1
100
AcDbLine
10
4.62066
20
-0.1299
11
4.62066
21
-0.5299
0
ARC
5
18B
100
AcDbEntity
8
vector
6
ByLayer
62
256
370
-1
100
AcDbCircle
10
4.57066
20
-0.5299
40
0.05
100
AcDbArc
50
270
51
0
0
LINE
5
18C
100
AcDbEntity
8
vector
6
ByLayer
62
256
370
-1
100
AcDbLine
10
4.57066
20
-0.5799
11
4.22066
21
-0.5799
0
LINE
5
18D
100
AcDbEntity
8
vector
6
ByLayer
62
256
370
-1
100
AcDbLine
10
4.17066
20
-0.5299
11
4.17066
21
-0.1299
0
ARC
5
18E
100
AcDbEntity
8
vector
6
ByLayer
62
256
370
-1
100
AcDbCircle
10
4.22066
20
-0.5299
40
0.05
100
AcDbArc
50
180
51
270
0
LINE
5
18F
100
AcDbEntity
8
sketch2
6
ByLayer
62
256
370
-1
100
AcDbLine
10
2.35
20
1.6001
11
0.65
21
1.6001
0
LINE
5
190
100
AcDbEntity
8
sketch3
6
ByLayer
62
256
370
-1
100
AcDbLine
10
2.35
20
1.6001
11
1.67
21
1.6001
0
LINE
5
191
100
AcDbEntity
8
sketch2
6
ByLayer
62
256
370
-1
100
AcDbLine
10
-2.54999
20
2.60866
11
2.54999
21
2.60866
0
LINE
5
192
100
AcDbEntity
8
sketch2
6
ByLayer
62
256
370
-1
100
AcDbLine
10
-2.54999
20
2.60866
11
-2.54999
21
2.98366
0
LINE
5
193
100
AcDbEntity
8
sketch2
6
ByLayer
62
256
370
-1
100
AcDbLine
10
2.54999
20
2.60866
11
2.54999
21
2.98366
0
LINE
5
194
100
AcDbEntity
8
sketch2
6
ByLayer
62
256
370
-1
100
AcDbLine
10
-2.54999
20
2.98366
11
2.54999
21
2.98366
0
LINE
5
195
100
AcDbEntity
8
sketch2
6
ByLayer
62
256
370
-1
100
AcDbLine
10
-2.54999
20
2.98366
11
-2.54999
21
3.04566
0
LINE
5
196
100
AcDbEntity
8
sketch2
6
ByLayer
62
256
370
-1
100
AcDbLine
10
2.54999
20
2.98366
11
2.54999
21
3.04566
0
LINE
5
197
100
AcDbEntity
8
sketch2
6
ByLayer
62
256
370
-1
100
AcDbLine
10
-2.54999
20
3.04566
11
2.54999
21
3.04566
0
LINE
5
198
100
AcDbEntity
8
sketch2
6
ByLayer
62
256
370
-1
100
AcDbLine
10
0.65
20
1.6001
11
0.65
21
3.04566
0
LINE
5
199
100
AcDbEntity
8
sketch2
6
ByLayer
62
256
370
-1
100
AcDbLine
10
1.67
20
1.6001
11
1.67
21
3.04566
0
LINE
5
19A
100
AcDbEntity
8
sketch2
6
ByLayer
62
256
370
-1
100
AcDbLine
10
1.67
20
3.04566
11
1.67
21
3.54566
0
LINE
5
19B
100
AcDbEntity
8
sketch2
6
ByLayer
62
256
370
-1
100
AcDbLine
10
0.65
20
3.04566
11
0.65
21
3.54566
0
LINE
5
19C
100
AcDbEntity
8
sketch3
6
ByLayer
62
256
370
-1
100
AcDbLine
10
1.67
20
3.54566
11
1.67
21
3.74566
0
LINE
5
19D
100
AcDbEntity
8
sketch3
6
ByLayer
62
256
370
-1
100
AcDbLine
10
0.65
20
3.54566
11
0.65
21
3.74566
0
LINE
5
19E
100
AcDbEntity
8
sketch3
6
ByLayer
62
256
370
-1
100
AcDbLine
10
1.67
20
3.54566
11
1.67
21
3.34566
0
LINE
5
19F
100
AcDbEntity
8
sketch3
6
ByLayer
62
256
370
-1
100
AcDbLine
10
0.65
20
3.54566
11
0.65
21
3.34566
0
LINE
5
1A0
100
AcDbEntity
8
sketch3
6
ByLayer
62
256
370
-1
100
AcDbLine
10
1.67
20
3.74566
11
2.045
21
3.74566
0
LINE
5
1A1
100
AcDbEntity
8
sketch3
6
ByLayer
62
256
370
-1
100
AcDbLine
10
1.67
20
3.34566
11
2.045
21
3.34566
0
LINE
5
1A2
100
AcDbEntity
8
sketch3
6
ByLayer
62
256
370
-1
100
AcDbLine
10
0.65
20
3.74566
11
1.025
21
3.74566
0
LINE
5
1A3
100
AcDbEntity
8
sketch3
6
ByLayer
62
256
370
-1
100
AcDbLine
10
0.65
20
3.34566
11
1.025
21
3.34566
0
LINE
5
1A4
100
AcDbEntity
8
sketch3
6
ByLayer
62
256
370
-1
100
AcDbLine
10
1.67
20
3.74566
11
1.295
21
3.74566
0
LINE
5
1A5
100
AcDbEntity
8
sketch3
6
ByLayer
62
256
370
-1
100
AcDbLine
10
1.67
20
3.34566
11
1.295
21
3.34566
0
LINE
5
1A6
100
AcDbEntity
8
sketch3
6
ByLayer
62
256
370
-1
100
AcDbLine
10
0.65
20
3.74566
11
0.275
21
3.74566
0
LINE
5
1A7
100
AcDbEntity
8
sketch3
6
ByLayer
62
256
370
-1
100
AcDbLine
10
0.65
20
3.34566
11
0.275
21
3.34566
0
ARC
5
1A8
100
AcDbEntity
8
vector
6
ByLayer
62
256
370
-1
100
AcDbCircle
10
0.325
20
3.69566
40
0.05
100
AcDbArc
50
90
51
180
0
LINE
5
1A9
100
AcDbEntity
8
vector
6
ByLayer
62
256
370
-1
100
AcDbLine
10
0.325
20
3.74566
11
0.975
21
3.74566
0
ARC
5
1AA
100
AcDbEntity
8
vector
6
ByLayer
62
256
370
-1
100
AcDbCircle
10
0.975
20
3.69566
40
0.05
100
AcDbArc
50
0
51
90
0
LINE
5
1AB
100
AcDbEntity
8
vector
6
ByLayer
62
256
370
-1
100
AcDbLine
10
1.025
20
3.69566
11
1.025
21
3.39566
0
ARC
5
1AC
100
AcDbEntity
8
vector
6
ByLayer
62
256
370
-1
100
AcDbCircle
10
0.975
20
3.39566
40
0.05
100
AcDbArc
50
270
51
0
0
LINE
5
1AD
100
AcDbEntity
8
vector
6
ByLayer
62
256
370
-1
100
AcDbLine
10
0.975
20
3.34566
11
0.325
21
3.34566
0
LINE
5
1AE
100
AcDbEntity
8
vector
6
ByLayer
62
256
370
-1
100
AcDbLine
10
0.275
20
3.39566
11
0.275
21
3.69566
0
ARC
5
1AF
100
AcDbEntity
8
vector
6
ByLayer
62
256
370
-1
100
AcDbCircle
10
0.325
20
3.39566
40
0.05
100
AcDbArc
50
180
51
270
0
ARC
5
1B0
100
AcDbEntity
8
vector
6
ByLayer
62
256
370
-1
100
AcDbCircle
10
1.345
20
3.69566
40
0.05
100
AcDbArc
50
90
51
180
0
LINE
5
1B1
100
AcDbEntity
8
vector
6
ByLayer
62
256
370
-1
100
AcDbLine
10
1.345
20
3.74566
11
1.995
21
3.74566
0
ARC
5
1B2
100
AcDbEntity
8
vector
6
ByLayer
62
256
370
-1
100
AcDbCircle
10
1.995
20
3.69566
40
0.05
100
AcDbArc
50
0
51
90
0
LINE
5
1B3
100
AcDbEntity
8
vector
6
ByLayer
62
256
370
-1
100
AcDbLine
10
2.045
20
3.69566
11
2.045
21
3.39566
0
ARC
5
1B4
100
AcDbEntity
8
vector
6
ByLayer
62
256
370
-1
100
AcDbCircle
10
1.995
20
3.39566
40
0.05
100
AcDbArc
50
270
51
0
0
LINE
5
1B5
100
AcDbEntity
8
vector
6
ByLayer
62
256
370
-1
100
AcDbLine
10
1.995
20
3.34566
11
1.345
21
3.34566
0
LINE
5
1B6
100
AcDbEntity
8
vector
6
ByLayer
62
256
370
-1
100
AcDbLine
10
1.295
20
3.39566
11
1.295
21
3.69566
0
ARC
5
1B7
100
AcDbEntity
8
vector
6
ByLayer
62
256
370
-1
100
AcDbCircle
10
1.345
20
3.39566
40
0.05
100
AcDbArc
50
180
51
270
0
MTEXT
5
1B8
100
AcDbEntity
8
Notes:
6
ByLayer
62
256
370
-1
100
AcDbMText
10
7
20
1
30
0
40
0.1
41
6.69722215862
71
1
72
1
1
Standoffs\P\P1. Aluminum Female Threaded Hex Standoff 1/4" Hex Size, 1" Length, 4-40 Thread Size. \P    McMaster-Carr 91780A167\P\P2. Aluminum Male-Female Threaded Hex Standoff 1/4" Hex Size, 3/8" Length, 4-40 Thread Size\P    McMaster-Carr 93505A431
7
iso
210
0
220
0
230
1
50
0
73
2
44
1
0
ENDSEC
0
SECTION
2
OBJECTS
0
DICTIONARY
5
C
330
0
100
AcDbDictionary
281
1
3
ACAD_GROUP
350
D
0
DICTIONARY
5
D
330
C
100
AcDbDictionary
281
1
0
ENDSEC
0
EOF
