999
dxfrw 0.5.11
0
SECTION
2
HEADER
9
$ACADVER
1
AC1021
9
$HANDSEED
5
20000
9
$DWGCODEPAGE
3
ANSI_1252
9
$INSBASE
10
0
20
0
30
0
9
$EXTMIN
10
0
20
0
30
0
9
$EXTMAX
10
35
20
24
30
0
9
$LIMMIN
10
0
20
0
9
$LIMMAX
10
420
20
297
9
$ORTHOMODE
70
0
9
$LTSCALE
40
1
9
$TEXTSTYLE
7
STANDARD
9
$CLAYER
8
lasercutter
9
$DIMASZ
40
0.1
9
$DIMLFAC
40
1
9
$DIMSCALE
40
1
9
$DIMEXO
40
0.025
9
$DIMEXE
40
0.05
9
$DIMTXT
40
0.1
9
$DIMTSZ
40
0
9
$DIMAUNIT
70
0
9
$DIMADEC
70
2
9
$DIMLUNIT
70
2
9
$DIMSTYLE
2
Standard
9
$DIMGAP
40
0.025
9
$DIMTIH
70
0
9
$LUNITS
70
2
9
$LUPREC
70
4
9
$AUNITS
70
0
9
$AUPREC
70
2
9
$SPLINESEGS
70
8
9
$GRIDMODE
70
1
9
$SNAPSTYLE
70
0
9
$GRIDUNIT
10
0
20
0
9
$PINSBASE
10
0
20
0
30
0
9
$PLIMMIN
10
0
20
0
9
$PLIMMAX
10
4.7721774e-11
20
6.7492118e-11
9
$INSUNITS
70
1
9
$PSVPSCALE
40
1
0
ENDSEC
0
SECTION
2
CLASSES
0
ENDSEC
0
SECTION
2
TABLES
0
TABLE
2
VPORT
5
8
330
0
100
AcDbSymbolTable
70
1
0
VPORT
5
31
330
2
100
AcDbSymbolTableRecord
100
AcDbViewportTableRecord
2
*ACTIVE
70
0
10
0
20
0
11
1
21
1
12
20.9606733565
22
13.6809185381
13
0
23
0
14
10
24
10
15
10
25
10
16
0
26
0
36
1
17
0
27
0
37
0
40
35.7461064188
41
2.34691011236
42
50
43
0
44
0
50
0
51
0
71
0
72
100
73
1
74
3
75
0
76
1
77
0
78
0
281
0
65
1
110
0
120
0
130
0
111
1
121
0
131
0
112
0
122
1
132
0
79
0
146
0
348
10020
60
7
61
5
292
1
282
1
141
0
142
0
63
250
421
3358443
0
ENDTAB
0
TABLE
2
LTYPE
5
5
330
0
100
AcDbSymbolTable
70
4
0
LTYPE
5
14
330
5
100
AcDbSymbolTableRecord
100
AcDbLinetypeTableRecord
2
ByBlock
70
0
3

72
65
73
0
40
0
0
LTYPE
5
15
330
5
100
AcDbSymbolTableRecord
100
AcDbLinetypeTableRecord
2
ByLayer
70
0
3

72
65
73
0
40
0
0
LTYPE
5
16
330
5
100
AcDbSymbolTableRecord
100
AcDbLinetypeTableRecord
2
Continuous
70
0
3
Solid line
72
65
73
0
40
0
0
LTYPE
5
32
330
5
100
AcDbSymbolTableRecord
100
AcDbLinetypeTableRecord
2
DOT
70
0
3
Dot . . . . . . . . . . . . . . . . . . . . . .
72
65
73
2
40
6.35
49
0
74
0
49
-6.35
74
0
0
LTYPE
5
33
330
5
100
AcDbSymbolTableRecord
100
AcDbLinetypeTableRecord
2
DOT2
70
0
3
Dot (.5x) .....................................
72
65
73
2
40
3.175
49
0
74
0
49
-3.175
74
0
0
LTYPE
5
34
330
5
100
AcDbSymbolTableRecord
100
AcDbLinetypeTableRecord
2
DOTX2
70
0
3
Dot (2x) .  .  .  .  .  .  .  .  .  .  .  .  .
72
65
73
2
40
12.7
49
0
74
0
49
-12.7
74
0
0
LTYPE
5
35
330
5
100
AcDbSymbolTableRecord
100
AcDbLinetypeTableRecord
2
DASHED
70
0
3
Dot . . . . . . . . . . . . . . . . . . . . . .
72
65
73
2
40
19.05
49
12.7
74
0
49
-6.35
74
0
0
LTYPE
5
36
330
5
100
AcDbSymbolTableRecord
100
AcDbLinetypeTableRecord
2
DASHED2
70
0
3
Dashed (.5x) _ _ _ _ _ _ _ _ _ _ _ _ _ _ _ _ _
72
65
73
2
40
9.525
49
6.35
74
0
49
-3.175
74
0
0
LTYPE
5
37
330
5
100
AcDbSymbolTableRecord
100
AcDbLinetypeTableRecord
2
DASHEDX2
70
0
3
Dashed (2x) ____  ____  ____  ____  ____  ___
72
65
73
2
40
38.1
49
25.4
74
0
49
-12.7
74
0
0
LTYPE
5
38
330
5
100
AcDbSymbolTableRecord
100
AcDbLinetypeTableRecord
2
DASHDOT
70
0
3
Dash dot __ . __ . __ . __ . __ . __ . __ . __
72
65
73
4
40
25.4
49
12.7
74
0
49
-6.35
74
0
49
0
74
0
49
-6.35
74
0
0
LTYPE
5
39
330
5
100
AcDbSymbolTableRecord
100
AcDbLinetypeTableRecord
2
DASHDOT2
70
0
3
Dash dot (.5x) _._._._._._._._._._._._._._._.
72
65
73
4
40
12.7
49
6.35
74
0
49
-3.175
74
0
49
0
74
0
49
-3.175
74
0
0
LTYPE
5
3A
330
5
100
AcDbSymbolTableRecord
100
AcDbLinetypeTableRecord
2
DASHDOTX2
70
0
3
Dash dot (2x) ____  .  ____  .  ____  .  ___
72
65
73
4
40
50.8
49
25.4
74
0
49
-12.7
74
0
49
0
74
0
49
-12.7
74
0
0
LTYPE
5
3B
330
5
100
AcDbSymbolTableRecord
100
AcDbLinetypeTableRecord
2
DIVIDE
70
0
3
Divide ____ . . ____ . . ____ . . ____ . . ____
72
65
73
6
40
31.75
49
12.7
74
0
49
-6.35
74
0
49
0
74
0
49
-6.35
74
0
49
0
74
0
49
-6.35
74
0
0
LTYPE
5
3C
330
5
100
AcDbSymbolTableRecord
100
AcDbLinetypeTableRecord
2
DIVIDE2
70
0
3
Divide (.5x) __..__..__..__..__..__..__..__.._
72
65
73
6
40
15.875
49
6.35
74
0
49
-3.175
74
0
49
0
74
0
49
-3.175
74
0
49
0
74
0
49
-3.175
74
0
0
LTYPE
5
3D
330
5
100
AcDbSymbolTableRecord
100
AcDbLinetypeTableRecord
2
DIVIDEX2
70
0
3
Divide (2x) ________  .  .  ________  .  .  _
72
65
73
6
40
63.5
49
25.4
74
0
49
-12.7
74
0
49
0
74
0
49
-12.7
74
0
49
0
74
0
49
-12.7
74
0
0
LTYPE
5
3E
330
5
100
AcDbSymbolTableRecord
100
AcDbLinetypeTableRecord
2
BORDER
70
0
3
Border __ __ . __ __ . __ __ . __ __ . __ __ .
72
65
73
6
40
44.45
49
12.7
74
0
49
-6.35
74
0
49
12.7
74
0
49
-6.35
74
0
49
0
74
0
49
-6.35
74
0
0
LTYPE
5
3F
330
5
100
AcDbSymbolTableRecord
100
AcDbLinetypeTableRecord
2
BORDER2
70
0
3
Border (.5x) __.__.__.__.__.__.__.__.__.__.__.
72
65
73
6
40
22.225
49
6.35
74
0
49
-3.175
74
0
49
6.35
74
0
49
-3.175
74
0
49
0
74
0
49
-3.175
74
0
0
LTYPE
5
40
330
5
100
AcDbSymbolTableRecord
100
AcDbLinetypeTableRecord
2
BORDERX2
70
0
3
Border (2x) ____  ____  .  ____  ____  .  ___
72
65
73
6
40
88.9
49
25.4
74
0
49
-12.7
74
0
49
25.4
74
0
49
-12.7
74
0
49
0
74
0
49
-12.7
74
0
0
LTYPE
5
41
330
5
100
AcDbSymbolTableRecord
100
AcDbLinetypeTableRecord
2
CENTER
70
0
3
Center ____ _ ____ _ ____ _ ____ _ ____ _ ____
72
65
73
4
40
50.8
49
31.75
74
0
49
-6.35
74
0
49
6.35
74
0
49
-6.35
74
0
0
LTYPE
5
42
330
5
100
AcDbSymbolTableRecord
100
AcDbLinetypeTableRecord
2
CENTER2
70
0
3
Center (.5x) ___ _ ___ _ ___ _ ___ _ ___ _ ___
72
65
73
4
40
28.575
49
19.05
74
0
49
-3.175
74
0
49
3.175
74
0
49
-3.175
74
0
0
LTYPE
5
43
330
5
100
AcDbSymbolTableRecord
100
AcDbLinetypeTableRecord
2
CENTERX2
70
0
3
Center (2x) ________  __  ________  __  _____
72
65
73
4
40
101.6
49
63.5
74
0
49
-12.7
74
0
49
12.7
74
0
49
-12.7
74
0
0
ENDTAB
0
TABLE
2
LAYER
5
2
330
0
100
AcDbSymbolTable
70
1
0
LAYER
5
10
330
2
100
AcDbSymbolTableRecord
100
AcDbLayerTableRecord
2
0
70
0
62
7
6
CONTINUOUS
370
0
390
F
0
LAYER
5
44
330
2
100
AcDbSymbolTableRecord
100
AcDbLayerTableRecord
2
lasercutter
70
0
62
5
6
CONTINUOUS
370
0
390
F
0
LAYER
5
45
330
2
100
AcDbSymbolTableRecord
100
AcDbLayerTableRecord
2
material
70
0
62
4
6
CONTINUOUS
370
0
390
F
0
LAYER
5
46
330
2
100
AcDbSymbolTableRecord
100
AcDbLayerTableRecord
2
vector
70
0
62
3
6
CONTINUOUS
370
0
390
F
0
ENDTAB
0
TABLE
2
STYLE
5
3
330
0
100
AcDbSymbolTable
70
3
0
STYLE
5
47
330
2
100
AcDbSymbolTableRecord
100
AcDbTextStyleTableRecord
2
Standard
70
0
40
0
41
1
50
0
71
0
42
1
3
txt
4

0
ENDTAB
0
TABLE
2
VIEW
5
6
330
0
100
AcDbSymbolTable
70
0
0
ENDTAB
0
TABLE
2
UCS
5
7
330
0
100
AcDbSymbolTable
70
0
0
ENDTAB
0
TABLE
2
APPID
5
9
330
0
100
AcDbSymbolTable
70
1
0
APPID
5
12
330
9
100
AcDbSymbolTableRecord
100
AcDbRegAppTableRecord
2
ACAD
70
0
0
ENDTAB
0
TABLE
2
DIMSTYLE
5
A
330
0
100
AcDbSymbolTable
70
1
100
AcDbDimStyleTable
71
1
0
DIMSTYLE
105
48
330
A
100
AcDbSymbolTableRecord
100
AcDbDimStyleTableRecord
2
Standard
70
0
40
1
41
0.1
42
0.025
43
0.38
44
0.05
45
0
46
0
47
0
48
0
140
0.1
141
0.09
142
0
143
25.4
144
1
145
0
146
1
147
0.025
148
0
71
0
72
0
73
0
74
1
75
0
76
0
77
0
78
0
79
0
170
0
171
2
172
0
173
0
174
0
175
0
176
0
177
0
178
0
179
0
271
4
272
4
273
2
274
2
275
0
276
0
277
2
278
46
279
0
280
0
281
0
282
0
283
1
284
0
285
0
286
0
288
0
289
3
340
Standard
341

371
-2
372
-2
0
ENDTAB
0
TABLE
2
BLOCK_RECORD
5
1
330
0
100
AcDbSymbolTable
70
2
0
BLOCK_RECORD
5
1F
330
1
100
AcDbSymbolTableRecord
100
AcDbBlockTableRecord
2
*Model_Space
70
0
280
1
281
0
0
BLOCK_RECORD
5
1E
330
1
100
AcDbSymbolTableRecord
100
AcDbBlockTableRecord
2
*Paper_Space
70
0
280
1
281
0
0
ENDTAB
0
ENDSEC
0
SECTION
2
BLOCKS
0
BLOCK
5
20
330
1F
100
AcDbEntity
8
0
100
AcDbBlockBegin
2
*Model_Space
70
0
10
0
20
0
30
0
3
*Model_Space
1

0
ENDBLK
5
21
330
1F
100
AcDbEntity
8
0
100
AcDbBlockEnd
0
BLOCK
5
1C
330
1B
100
AcDbEntity
8
0
100
AcDbBlockBegin
2
*Paper_Space
70
0
10
0
20
0
30
0
3
*Paper_Space
1

0
ENDBLK
5
1D
330
1F
100
AcDbEntity
8
0
100
AcDbBlockEnd
0
ENDSEC
0
SECTION
2
ENTITIES
0
LINE
5
49
100
AcDbEntity
8
material
6
ByLayer
62
256
370
-1
100
AcDbLine
10
0
20
0
11
24
21
0
0
LINE
5
4A
100
AcDbEntity
8
material
6
ByLayer
62
256
370
-1
100
AcDbLine
10
24
20
0
11
24
21
24
0
LINE
5
4B
100
AcDbEntity
8
material
6
ByLayer
62
256
370
-1
100
AcDbLine
10
24
20
24
11
0
21
24
0
LINE
5
4C
100
AcDbEntity
8
material
6
ByLayer
62
256
370
-1
100
AcDbLine
10
0
20
24
11
0
21
0
0
LINE
5
4D
100
AcDbEntity
8
lasercutter
6
ByLayer
62
256
370
-1
100
AcDbLine
10
0
20
0
11
35
21
0
0
LINE
5
4E
100
AcDbEntity
8
lasercutter
6
ByLayer
62
256
370
-1
100
AcDbLine
10
35
20
0
11
35
21
23
0
LINE
5
4F
100
AcDbEntity
8
lasercutter
6
ByLayer
62
256
370
-1
100
AcDbLine
10
35
20
23
11
0
21
23
0
LINE
5
50
100
AcDbEntity
8
lasercutter
6
ByLayer
62
256
370
-1
100
AcDbLine
10
0
20
23
11
0
21
0
0
LINE
5
51
100
AcDbEntity
8
vector
6
ByLayer
62
3
370
-1
100
AcDbLine
10
17.555
20
8.6
11
17.555
21
8.71811
0
LINE
5
52
100
AcDbEntity
8
vector
6
ByLayer
62
3
370
-1
100
AcDbLine
10
17.555
20
8.71811
11
18.305
21
8.71811
0
LINE
5
53
100
AcDbEntity
8
vector
6
ByLayer
62
3
370
-1
100
AcDbLine
10
18.305
20
8.71811
11
18.305
21
8.6
0
LINE
5
54
100
AcDbEntity
8
vector
6
ByLayer
62
3
370
-1
100
AcDbLine
10
18.305
20
8.6
11
17.555
21
8.6
0
LINE
5
55
100
AcDbEntity
8
vector
6
ByLayer
62
3
370
-1
100
AcDbLine
10
16.025
20
8.6
11
16.025
21
8.71811
0
LINE
5
56
100
AcDbEntity
8
vector
6
ByLayer
62
3
370
-1
100
AcDbLine
10
16.025
20
8.71811
11
16.775
21
8.71811
0
LINE
5
57
100
AcDbEntity
8
vector
6
ByLayer
62
3
370
-1
100
AcDbLine
10
16.775
20
8.71811
11
16.775
21
8.6
0
LINE
5
58
100
AcDbEntity
8
vector
6
ByLayer
62
3
370
-1
100
AcDbLine
10
16.775
20
8.6
11
16.025
21
8.6
0
LINE
5
59
100
AcDbEntity
8
vector
6
ByLayer
62
3
370
-1
100
AcDbLine
10
14.495
20
8.6
11
14.495
21
8.71811
0
LINE
5
5A
100
AcDbEntity
8
vector
6
ByLayer
62
3
370
-1
100
AcDbLine
10
14.495
20
8.71811
11
15.245
21
8.71811
0
LINE
5
5B
100
AcDbEntity
8
vector
6
ByLayer
62
3
370
-1
100
AcDbLine
10
15.245
20
8.71811
11
15.245
21
8.6
0
LINE
5
5C
100
AcDbEntity
8
vector
6
ByLayer
62
3
370
-1
100
AcDbLine
10
15.245
20
8.6
11
14.495
21
8.6
0
LINE
5
5D
100
AcDbEntity
8
vector
6
ByLayer
62
3
370
-1
100
AcDbLine
10
18.95
20
7.384045
11
18.95
21
8.13405
0
LINE
5
5E
100
AcDbEntity
8
vector
6
ByLayer
62
3
370
-1
100
AcDbLine
10
18.95
20
8.13405
11
19.06811
21
8.13405
0
LINE
5
5F
100
AcDbEntity
8
vector
6
ByLayer
62
3
370
-1
100
AcDbLine
10
19.06811
20
8.13405
11
19.06811
21
7.384045
0
LINE
5
60
100
AcDbEntity
8
vector
6
ByLayer
62
3
370
-1
100
AcDbLine
10
19.06811
20
7.384045
11
18.95
21
7.384045
0
LINE
5
61
100
AcDbEntity
8
vector
6
ByLayer
62
3
370
-1
100
AcDbLine
10
18.95
20
5.46595
11
18.95
21
6.215955
0
LINE
5
62
100
AcDbEntity
8
vector
6
ByLayer
62
3
370
-1
100
AcDbLine
10
18.95
20
6.215955
11
19.06811
21
6.215955
0
LINE
5
63
100
AcDbEntity
8
vector
6
ByLayer
62
3
370
-1
100
AcDbLine
10
19.06811
20
6.215955
11
19.06811
21
5.46595
0
LINE
5
64
100
AcDbEntity
8
vector
6
ByLayer
62
3
370
-1
100
AcDbLine
10
19.06811
20
5.46595
11
18.95
21
5.46595
0
LINE
5
65
100
AcDbEntity
8
vector
6
ByLayer
62
3
370
-1
100
AcDbLine
10
17.555
20
4.88189
11
17.555
21
5
0
LINE
5
66
100
AcDbEntity
8
vector
6
ByLayer
62
3
370
-1
100
AcDbLine
10
17.555
20
5
11
18.305
21
5
0
LINE
5
67
100
AcDbEntity
8
vector
6
ByLayer
62
3
370
-1
100
AcDbLine
10
18.305
20
5
11
18.305
21
4.88189
0
LINE
5
68
100
AcDbEntity
8
vector
6
ByLayer
62
3
370
-1
100
AcDbLine
10
18.305
20
4.88189
11
17.555
21
4.88189
0
LINE
5
69
100
AcDbEntity
8
vector
6
ByLayer
62
3
370
-1
100
AcDbLine
10
14.495
20
4.88189
11
14.495
21
5
0
LINE
5
6A
100
AcDbEntity
8
vector
6
ByLayer
62
3
370
-1
100
AcDbLine
10
14.495
20
5
11
15.245
21
5
0
LINE
5
6B
100
AcDbEntity
8
vector
6
ByLayer
62
3
370
-1
100
AcDbLine
10
15.245
20
5
11
15.245
21
4.88189
0
LINE
5
6C
100
AcDbEntity
8
vector
6
ByLayer
62
3
370
-1
100
AcDbLine
10
15.245
20
4.88189
11
14.495
21
4.88189
0
LINE
5
6D
100
AcDbEntity
8
vector
6
ByLayer
62
3
370
-1
100
AcDbLine
10
16.025
20
4.88189
11
16.025
21
5
0
LINE
5
6E
100
AcDbEntity
8
vector
6
ByLayer
62
3
370
-1
100
AcDbLine
10
16.025
20
5
11
16.775
21
5
0
LINE
5
6F
100
AcDbEntity
8
vector
6
ByLayer
62
3
370
-1
100
AcDbLine
10
16.775
20
5
11
16.775
21
4.88189
0
LINE
5
70
100
AcDbEntity
8
vector
6
ByLayer
62
3
370
-1
100
AcDbLine
10
16.775
20
4.88189
11
16.025
21
4.88189
0
CIRCLE
5
71
100
AcDbEntity
8
vector
6
ByLayer
62
256
370
-1
100
AcDbCircle
10
14.05
20
8.4001
40
0.058
0
CIRCLE
5
72
100
AcDbEntity
8
vector
6
ByLayer
62
256
370
-1
100
AcDbCircle
10
18.75
20
8.4001
40
0.058
0
CIRCLE
5
73
100
AcDbEntity
8
vector
6
ByLayer
62
256
370
-1
100
AcDbCircle
10
14.05
20
5.2001
40
0.058
0
CIRCLE
5
74
100
AcDbEntity
8
vector
6
ByLayer
62
256
370
-1
100
AcDbCircle
10
18.75
20
5.2001
40
0.058
0
CIRCLE
5
75
100
AcDbEntity
8
vector
6
ByLayer
62
256
370
-1
100
AcDbCircle
10
14.05
20
8.4001
40
0.058
0
CIRCLE
5
76
100
AcDbEntity
8
vector
6
ByLayer
62
256
370
-1
100
AcDbCircle
10
18.75
20
8.4001
40
0.058
0
CIRCLE
5
77
100
AcDbEntity
8
vector
6
ByLayer
62
256
370
-1
100
AcDbCircle
10
14.05
20
5.2001
40
0.058
0
CIRCLE
5
78
100
AcDbEntity
8
vector
6
ByLayer
62
256
370
-1
100
AcDbCircle
10
18.75
20
5.2001
40
0.058
0
CIRCLE
5
79
100
AcDbEntity
8
vector
6
ByLayer
62
256
370
-1
100
AcDbCircle
10
13.65
20
8.4001
40
0.058
0
CIRCLE
5
7A
100
AcDbEntity
8
vector
6
ByLayer
62
256
370
-1
100
AcDbCircle
10
13.65
20
5.2001
40
0.058
0
CIRCLE
5
7B
100
AcDbEntity
8
vector
6
ByLayer
62
256
370
-1
100
AcDbCircle
10
11.45
20
8.4001
40
0.058
0
CIRCLE
5
7C
100
AcDbEntity
8
vector
6
ByLayer
62
256
370
-1
100
AcDbCircle
10
11.45
20
5.2001
40
0.058
0
LINE
5
7D
100
AcDbEntity
8
vector
6
ByLayer
62
3
370
-1
100
AcDbLine
10
11.13189
20
7.384045
11
11.13189
21
8.13405
0
LINE
5
7E
100
AcDbEntity
8
vector
6
ByLayer
62
3
370
-1
100
AcDbLine
10
11.13189
20
8.13405
11
11.25
21
8.13405
0
LINE
5
7F
100
AcDbEntity
8
vector
6
ByLayer
62
3
370
-1
100
AcDbLine
10
11.25
20
8.13405
11
11.25
21
7.384045
0
LINE
5
80
100
AcDbEntity
8
vector
6
ByLayer
62
3
370
-1
100
AcDbLine
10
11.25
20
7.384045
11
11.13189
21
7.384045
0
LINE
5
81
100
AcDbEntity
8
vector
6
ByLayer
62
3
370
-1
100
AcDbLine
10
11.13189
20
5.46595
11
11.13189
21
6.215955
0
LINE
5
82
100
AcDbEntity
8
vector
6
ByLayer
62
3
370
-1
100
AcDbLine
10
11.13189
20
6.215955
11
11.25
21
6.215955
0
LINE
5
83
100
AcDbEntity
8
vector
6
ByLayer
62
3
370
-1
100
AcDbLine
10
11.25
20
6.215955
11
11.25
21
5.46595
0
LINE
5
84
100
AcDbEntity
8
vector
6
ByLayer
62
3
370
-1
100
AcDbLine
10
11.25
20
5.46595
11
11.13189
21
5.46595
0
LINE
5
85
100
AcDbEntity
8
vector
6
ByLayer
62
256
370
-1
100
AcDbLine
10
19.0181
20
8.8181
11
13.7819
21
8.8181
0
ARC
5
86
100
AcDbEntity
8
vector
6
ByLayer
62
256
370
-1
100
AcDbCircle
10
19.0181
20
8.6681
40
0.15
100
AcDbArc
50
0
51
90
0
LINE
5
87
100
AcDbEntity
8
vector
6
ByLayer
62
256
370
-1
100
AcDbLine
10
19.1681
20
4.9321
11
19.1681
21
8.6681
0
ARC
5
88
100
AcDbEntity
8
vector
6
ByLayer
62
256
370
-1
100
AcDbCircle
10
19.0181
20
4.9321
40
0.15
100
AcDbArc
50
270
51
0
0
LINE
5
89
100
AcDbEntity
8
vector
6
ByLayer
62
256
370
-1
100
AcDbLine
10
13.7819
20
4.7821
11
19.0181
21
4.7821
0
ARC
5
8A
100
AcDbEntity
8
vector
6
ByLayer
62
256
370
-1
100
AcDbCircle
10
11.1819
20
8.66810005162
40
0.15
100
AcDbArc
50
90
51
180
0
LINE
5
8B
100
AcDbEntity
8
vector
6
ByLayer
62
256
370
-1
100
AcDbLine
10
11.0319
20
8.66810005162
11
11.0319
21
4.93210005162
0
ARC
5
8C
100
AcDbEntity
8
vector
6
ByLayer
62
256
370
-1
100
AcDbCircle
10
11.1819
20
4.93210005162
40
0.15
100
AcDbArc
50
180
51
270
0
LINE
5
8D
100
AcDbEntity
8
vector
6
ByLayer
62
256
370
-1
100
AcDbLine
10
11.1819
20
8.81810005162
11
13.7819
21
8.8181
0
LINE
5
8E
100
AcDbEntity
8
vector
6
ByLayer
62
256
370
-1
100
AcDbLine
10
11.1819
20
4.78210005162
11
13.7819
21
4.7821
0
LINE
5
8F
100
AcDbEntity
8
vector
6
ByLayer
62
3
370
-1
100
AcDbLine
10
13.10001
20
8.6
11
13.10001
21
8.71811
0
LINE
5
90
100
AcDbEntity
8
vector
6
ByLayer
62
3
370
-1
100
AcDbLine
10
13.10001
20
8.71811
11
13.85001
21
8.71811
0
LINE
5
91
100
AcDbEntity
8
vector
6
ByLayer
62
3
370
-1
100
AcDbLine
10
13.85001
20
8.71811
11
13.85001
21
8.6
0
LINE
5
92
100
AcDbEntity
8
vector
6
ByLayer
62
3
370
-1
100
AcDbLine
10
13.85001
20
8.6
11
13.10001
21
8.6
0
LINE
5
93
100
AcDbEntity
8
vector
6
ByLayer
62
3
370
-1
100
AcDbLine
10
11.57001
20
8.6
11
11.57001
21
8.71811
0
LINE
5
94
100
AcDbEntity
8
vector
6
ByLayer
62
3
370
-1
100
AcDbLine
10
11.57001
20
8.71811
11
12.32001
21
8.71811
0
LINE
5
95
100
AcDbEntity
8
vector
6
ByLayer
62
3
370
-1
100
AcDbLine
10
12.32001
20
8.71811
11
12.32001
21
8.6
0
LINE
5
96
100
AcDbEntity
8
vector
6
ByLayer
62
3
370
-1
100
AcDbLine
10
12.32001
20
8.6
11
11.57001
21
8.6
0
LINE
5
97
100
AcDbEntity
8
vector
6
ByLayer
62
3
370
-1
100
AcDbLine
10
11.57001
20
4.88189
11
11.57001
21
5
0
LINE
5
98
100
AcDbEntity
8
vector
6
ByLayer
62
3
370
-1
100
AcDbLine
10
11.57001
20
5
11
12.32001
21
5
0
LINE
5
99
100
AcDbEntity
8
vector
6
ByLayer
62
3
370
-1
100
AcDbLine
10
12.32001
20
5
11
12.32001
21
4.88189
0
LINE
5
9A
100
AcDbEntity
8
vector
6
ByLayer
62
3
370
-1
100
AcDbLine
10
12.32001
20
4.88189
11
11.57001
21
4.88189
0
LINE
5
9B
100
AcDbEntity
8
vector
6
ByLayer
62
3
370
-1
100
AcDbLine
10
13.10001
20
4.88189
11
13.10001
21
5
0
LINE
5
9C
100
AcDbEntity
8
vector
6
ByLayer
62
3
370
-1
100
AcDbLine
10
13.10001
20
5
11
13.85001
21
5
0
LINE
5
9D
100
AcDbEntity
8
vector
6
ByLayer
62
3
370
-1
100
AcDbLine
10
13.85001
20
5
11
13.85001
21
4.88189
0
LINE
5
9E
100
AcDbEntity
8
vector
6
ByLayer
62
3
370
-1
100
AcDbLine
10
13.85001
20
4.88189
11
13.10001
21
4.88189
0
LINE
5
9F
100
AcDbEntity
8
vector
6
ByLayer
62
3
370
-1
100
AcDbLine
10
16.025
20
4.46377
11
16.025
21
4.58189
0
LINE
5
A0
100
AcDbEntity
8
vector
6
ByLayer
62
3
370
-1
100
AcDbLine
10
16.025
20
4.58189
11
16.775
21
4.58189
0
LINE
5
A1
100
AcDbEntity
8
vector
6
ByLayer
62
3
370
-1
100
AcDbLine
10
16.775
20
4.58189
11
16.775
21
4.46377
0
LINE
5
A2
100
AcDbEntity
8
vector
6
ByLayer
62
3
370
-1
100
AcDbLine
10
16.775
20
4.46377
11
16.025
21
4.46377
0
LINE
5
A3
100
AcDbEntity
8
vector
6
ByLayer
62
3
370
-1
100
AcDbLine
10
14.495
20
4.46377
11
14.495
21
4.58189
0
LINE
5
A4
100
AcDbEntity
8
vector
6
ByLayer
62
3
370
-1
100
AcDbLine
10
14.495
20
4.58189
11
15.245
21
4.58189
0
LINE
5
A5
100
AcDbEntity
8
vector
6
ByLayer
62
3
370
-1
100
AcDbLine
10
15.245
20
4.58189
11
15.245
21
4.46377
0
LINE
5
A6
100
AcDbEntity
8
vector
6
ByLayer
62
3
370
-1
100
AcDbLine
10
15.245
20
4.46377
11
14.495
21
4.46377
0
LINE
5
A7
100
AcDbEntity
8
vector
6
ByLayer
62
3
370
-1
100
AcDbLine
10
17.555
20
4.46377
11
17.555
21
4.58189
0
LINE
5
A8
100
AcDbEntity
8
vector
6
ByLayer
62
3
370
-1
100
AcDbLine
10
17.555
20
4.58189
11
18.305
21
4.58189
0
LINE
5
A9
100
AcDbEntity
8
vector
6
ByLayer
62
3
370
-1
100
AcDbLine
10
18.305
20
4.58189
11
18.305
21
4.46377
0
LINE
5
AA
100
AcDbEntity
8
vector
6
ByLayer
62
3
370
-1
100
AcDbLine
10
18.305
20
4.46377
11
17.555
21
4.46377
0
LINE
5
AB
100
AcDbEntity
8
vector
6
ByLayer
62
3
370
-1
100
AcDbLine
10
18.95
20
3.24783
11
18.95
21
3.99783
0
LINE
5
AC
100
AcDbEntity
8
vector
6
ByLayer
62
3
370
-1
100
AcDbLine
10
18.95
20
3.99783
11
19.06811
21
3.99783
0
LINE
5
AD
100
AcDbEntity
8
vector
6
ByLayer
62
3
370
-1
100
AcDbLine
10
19.06811
20
3.99783
11
19.06811
21
3.24783
0
LINE
5
AE
100
AcDbEntity
8
vector
6
ByLayer
62
3
370
-1
100
AcDbLine
10
19.06811
20
3.24783
11
18.95
21
3.24783
0
LINE
5
AF
100
AcDbEntity
8
vector
6
ByLayer
62
3
370
-1
100
AcDbLine
10
18.95
20
1.32971
11
18.95
21
2.07971
0
LINE
5
B0
100
AcDbEntity
8
vector
6
ByLayer
62
3
370
-1
100
AcDbLine
10
18.95
20
2.07971
11
19.06811
21
2.07971
0
LINE
5
B1
100
AcDbEntity
8
vector
6
ByLayer
62
3
370
-1
100
AcDbLine
10
19.06811
20
2.07971
11
19.06811
21
1.32971
0
LINE
5
B2
100
AcDbEntity
8
vector
6
ByLayer
62
3
370
-1
100
AcDbLine
10
19.06811
20
1.32971
11
18.95
21
1.32971
0
LINE
5
B3
100
AcDbEntity
8
vector
6
ByLayer
62
3
370
-1
100
AcDbLine
10
14.495
20
0.74565
11
14.495
21
0.86376
0
LINE
5
B4
100
AcDbEntity
8
vector
6
ByLayer
62
3
370
-1
100
AcDbLine
10
14.495
20
0.86376
11
15.245
21
0.86376
0
LINE
5
B5
100
AcDbEntity
8
vector
6
ByLayer
62
3
370
-1
100
AcDbLine
10
15.245
20
0.86376
11
15.245
21
0.74565
0
LINE
5
B6
100
AcDbEntity
8
vector
6
ByLayer
62
3
370
-1
100
AcDbLine
10
15.245
20
0.74565
11
14.495
21
0.74565
0
LINE
5
B7
100
AcDbEntity
8
vector
6
ByLayer
62
3
370
-1
100
AcDbLine
10
17.555
20
0.74565
11
17.555
21
0.86376
0
LINE
5
B8
100
AcDbEntity
8
vector
6
ByLayer
62
3
370
-1
100
AcDbLine
10
17.555
20
0.86376
11
18.305
21
0.86376
0
LINE
5
B9
100
AcDbEntity
8
vector
6
ByLayer
62
3
370
-1
100
AcDbLine
10
18.305
20
0.86376
11
18.305
21
0.74565
0
LINE
5
BA
100
AcDbEntity
8
vector
6
ByLayer
62
3
370
-1
100
AcDbLine
10
18.305
20
0.74565
11
17.555
21
0.74565
0
LINE
5
BB
100
AcDbEntity
8
vector
6
ByLayer
62
3
370
-1
100
AcDbLine
10
16.025
20
0.74565
11
16.025
21
0.86376
0
LINE
5
BC
100
AcDbEntity
8
vector
6
ByLayer
62
3
370
-1
100
AcDbLine
10
16.025
20
0.86376
11
16.775
21
0.86376
0
LINE
5
BD
100
AcDbEntity
8
vector
6
ByLayer
62
3
370
-1
100
AcDbLine
10
16.775
20
0.86376
11
16.775
21
0.74565
0
LINE
5
BE
100
AcDbEntity
8
vector
6
ByLayer
62
3
370
-1
100
AcDbLine
10
16.775
20
0.74565
11
16.025
21
0.74565
0
LINE
5
BF
100
AcDbEntity
8
vector
6
ByLayer
62
3
370
-1
100
AcDbLine
10
19.0181
20
4.68188
11
13.7819
21
4.68188
0
ARC
5
C0
100
AcDbEntity
8
vector
6
ByLayer
62
3
370
-1
100
AcDbCircle
10
19.0181
20
4.53188
40
0.15
100
AcDbArc
50
3.30777686872e-13
51
90
0
LINE
5
C1
100
AcDbEntity
8
vector
6
ByLayer
62
3
370
-1
100
AcDbLine
10
13.7819
20
0.64585
11
19.0181
21
0.64585
0
LINE
5
C2
100
AcDbEntity
8
vector
6
ByLayer
62
3
370
-1
100
AcDbLine
10
19.1681
20
0.79585
11
19.1681
21
4.53188
0
ARC
5
C3
100
AcDbEntity
8
vector
6
ByLayer
62
3
370
-1
100
AcDbCircle
10
19.0181
20
0.79585
40
0.15
100
AcDbArc
50
270
51
0
0
CIRCLE
5
C4
100
AcDbEntity
8
vector
6
ByLayer
62
256
370
-1
100
AcDbCircle
10
14.05
20
4.263965
40
0.058
0
CIRCLE
5
C5
100
AcDbEntity
8
vector
6
ByLayer
62
256
370
-1
100
AcDbCircle
10
18.75
20
4.263965
40
0.058
0
CIRCLE
5
C6
100
AcDbEntity
8
vector
6
ByLayer
62
256
370
-1
100
AcDbCircle
10
14.05
20
1.063965
40
0.058
0
CIRCLE
5
C7
100
AcDbEntity
8
vector
6
ByLayer
62
256
370
-1
100
AcDbCircle
10
18.75
20
1.063965
40
0.058
0
LINE
5
C8
100
AcDbEntity
8
vector
6
ByLayer
62
3
370
-1
100
AcDbLine
10
11.13189
20
3.24783
11
11.13189
21
3.99783
0
LINE
5
C9
100
AcDbEntity
8
vector
6
ByLayer
62
3
370
-1
100
AcDbLine
10
11.13189
20
3.99783
11
11.25
21
3.99783
0
LINE
5
CA
100
AcDbEntity
8
vector
6
ByLayer
62
3
370
-1
100
AcDbLine
10
11.25
20
3.99783
11
11.25
21
3.24783
0
LINE
5
CB
100
AcDbEntity
8
vector
6
ByLayer
62
3
370
-1
100
AcDbLine
10
11.25
20
3.24783
11
11.13189
21
3.24783
0
LINE
5
CC
100
AcDbEntity
8
vector
6
ByLayer
62
3
370
-1
100
AcDbLine
10
11.13189
20
1.32971
11
11.13189
21
2.07971
0
LINE
5
CD
100
AcDbEntity
8
vector
6
ByLayer
62
3
370
-1
100
AcDbLine
10
11.13189
20
2.07971
11
11.25
21
2.07971
0
LINE
5
CE
100
AcDbEntity
8
vector
6
ByLayer
62
3
370
-1
100
AcDbLine
10
11.25
20
2.07971
11
11.25
21
1.32971
0
LINE
5
CF
100
AcDbEntity
8
vector
6
ByLayer
62
3
370
-1
100
AcDbLine
10
11.25
20
1.32971
11
11.13189
21
1.32971
0
ARC
5
D0
100
AcDbEntity
8
vector
6
ByLayer
62
3
370
-1
100
AcDbCircle
10
11.1819
20
4.53188
40
0.15
100
AcDbArc
50
90
51
180
0
LINE
5
D1
100
AcDbEntity
8
vector
6
ByLayer
62
3
370
-1
100
AcDbLine
10
11.0319
20
4.53188
11
11.0319
21
0.79585
0
ARC
5
D2
100
AcDbEntity
8
vector
6
ByLayer
62
3
370
-1
100
AcDbCircle
10
11.1819
20
0.79585
40
0.15
100
AcDbArc
50
180
51
270
0
LINE
5
D3
100
AcDbEntity
8
vector
6
ByLayer
62
3
370
-1
100
AcDbLine
10
13.10001
20
4.46377
11
13.10001
21
4.58189
0
LINE
5
D4
100
AcDbEntity
8
vector
6
ByLayer
62
3
370
-1
100
AcDbLine
10
13.10001
20
4.58189
11
13.85001
21
4.58189
0
LINE
5
D5
100
AcDbEntity
8
vector
6
ByLayer
62
3
370
-1
100
AcDbLine
10
13.85001
20
4.58189
11
13.85001
21
4.46377
0
LINE
5
D6
100
AcDbEntity
8
vector
6
ByLayer
62
3
370
-1
100
AcDbLine
10
13.85001
20
4.46377
11
13.10001
21
4.46377
0
LINE
5
D7
100
AcDbEntity
8
vector
6
ByLayer
62
3
370
-1
100
AcDbLine
10
11.57001
20
4.46377
11
11.57001
21
4.58189
0
LINE
5
D8
100
AcDbEntity
8
vector
6
ByLayer
62
3
370
-1
100
AcDbLine
10
11.57001
20
4.58189
11
12.32001
21
4.58189
0
LINE
5
D9
100
AcDbEntity
8
vector
6
ByLayer
62
3
370
-1
100
AcDbLine
10
12.32001
20
4.58189
11
12.32001
21
4.46377
0
LINE
5
DA
100
AcDbEntity
8
vector
6
ByLayer
62
3
370
-1
100
AcDbLine
10
12.32001
20
4.46377
11
11.57001
21
4.46377
0
LINE
5
DB
100
AcDbEntity
8
vector
6
ByLayer
62
3
370
-1
100
AcDbLine
10
11.57001
20
0.74565
11
11.57001
21
0.86376
0
LINE
5
DC
100
AcDbEntity
8
vector
6
ByLayer
62
3
370
-1
100
AcDbLine
10
11.57001
20
0.86376
11
12.32001
21
0.86376
0
LINE
5
DD
100
AcDbEntity
8
vector
6
ByLayer
62
3
370
-1
100
AcDbLine
10
12.32001
20
0.86376
11
12.32001
21
0.74565
0
LINE
5
DE
100
AcDbEntity
8
vector
6
ByLayer
62
3
370
-1
100
AcDbLine
10
12.32001
20
0.74565
11
11.57001
21
0.74565
0
LINE
5
DF
100
AcDbEntity
8
vector
6
ByLayer
62
3
370
-1
100
AcDbLine
10
13.10001
20
0.74565
11
13.10001
21
0.86376
0
LINE
5
E0
100
AcDbEntity
8
vector
6
ByLayer
62
3
370
-1
100
AcDbLine
10
13.10001
20
0.86376
11
13.85001
21
0.86376
0
LINE
5
E1
100
AcDbEntity
8
vector
6
ByLayer
62
3
370
-1
100
AcDbLine
10
13.85001
20
0.86376
11
13.85001
21
0.74565
0
LINE
5
E2
100
AcDbEntity
8
vector
6
ByLayer
62
3
370
-1
100
AcDbLine
10
13.85001
20
0.74565
11
13.10001
21
0.74565
0
LINE
5
E3
100
AcDbEntity
8
vector
6
ByLayer
62
256
370
-1
100
AcDbLine
10
11.1819
20
4.68188
11
13.7819
21
4.68188
0
LINE
5
E4
100
AcDbEntity
8
vector
6
ByLayer
62
256
370
-1
100
AcDbLine
10
11.1819
20
0.64585
11
13.7819
21
0.64585
0
CIRCLE
5
E5
100
AcDbEntity
8
vector
6
ByLayer
62
256
370
-1
100
AcDbCircle
10
13.65
20
4.263965
40
0.058
0
CIRCLE
5
E6
100
AcDbEntity
8
vector
6
ByLayer
62
256
370
-1
100
AcDbCircle
10
13.65
20
1.063965
40
0.058
0
CIRCLE
5
E7
100
AcDbEntity
8
vector
6
ByLayer
62
256
370
-1
100
AcDbCircle
10
11.45
20
4.263965
40
0.058
0
CIRCLE
5
E8
100
AcDbEntity
8
vector
6
ByLayer
62
256
370
-1
100
AcDbCircle
10
11.45
20
1.063965
40
0.058
0
LINE
5
E9
100
AcDbEntity
8
vector
6
ByLayer
62
3
370
-1
100
AcDbLine
10
15.245
20
9.03623
11
16.025
21
9.03623
0
LINE
5
EA
100
AcDbEntity
8
vector
6
ByLayer
62
3
370
-1
100
AcDbLine
10
16.025
20
9.03623
11
16.025
21
8.91811
0
LINE
5
EB
100
AcDbEntity
8
vector
6
ByLayer
62
3
370
-1
100
AcDbLine
10
16.025
20
8.91811
11
16.775
21
8.91811
0
LINE
5
EC
100
AcDbEntity
8
vector
6
ByLayer
62
3
370
-1
100
AcDbLine
10
16.775
20
8.91811
11
16.775
21
9.03623
0
LINE
5
ED
100
AcDbEntity
8
vector
6
ByLayer
62
3
370
-1
100
AcDbLine
10
16.775
20
9.03623
11
17.555
21
9.03623
0
LINE
5
EE
100
AcDbEntity
8
vector
6
ByLayer
62
3
370
-1
100
AcDbLine
10
17.555
20
9.03623
11
17.555
21
8.91811
0
LINE
5
EF
100
AcDbEntity
8
vector
6
ByLayer
62
3
370
-1
100
AcDbLine
10
17.555
20
8.91811
11
18.305
21
8.91811
0
LINE
5
F0
100
AcDbEntity
8
vector
6
ByLayer
62
3
370
-1
100
AcDbLine
10
18.305
20
8.91811
11
18.305
21
9.03623
0
LINE
5
F1
100
AcDbEntity
8
vector
6
ByLayer
62
3
370
-1
100
AcDbLine
10
18.305
20
9.03623
11
18.94999
21
9.03623
0
LINE
5
F2
100
AcDbEntity
8
vector
6
ByLayer
62
3
370
-1
100
AcDbLine
10
18.94999
20
9.03623
11
18.94999
21
9.50472
0
LINE
5
F3
100
AcDbEntity
8
vector
6
ByLayer
62
3
370
-1
100
AcDbLine
10
18.94999
20
9.50472
11
19.06811
21
9.50472
0
LINE
5
F4
100
AcDbEntity
8
vector
6
ByLayer
62
3
370
-1
100
AcDbLine
10
19.06811
20
9.50472
11
19.06811
21
10.00472
0
LINE
5
F5
100
AcDbEntity
8
vector
6
ByLayer
62
3
370
-1
100
AcDbLine
10
19.06811
20
10.00472
11
18.94999
21
10.00472
0
LINE
5
F6
100
AcDbEntity
8
vector
6
ByLayer
62
3
370
-1
100
AcDbLine
10
18.94999
20
10.00472
11
18.94999
21
10.47322
0
LINE
5
F7
100
AcDbEntity
8
vector
6
ByLayer
62
3
370
-1
100
AcDbLine
10
18.94999
20
10.47322
11
18.305
21
10.47322
0
LINE
5
F8
100
AcDbEntity
8
vector
6
ByLayer
62
3
370
-1
100
AcDbLine
10
18.305
20
10.47322
11
18.305
21
10.59133
0
LINE
5
F9
100
AcDbEntity
8
vector
6
ByLayer
62
3
370
-1
100
AcDbLine
10
18.305
20
10.59133
11
17.555
21
10.59133
0
LINE
5
FA
100
AcDbEntity
8
vector
6
ByLayer
62
3
370
-1
100
AcDbLine
10
17.555
20
10.59133
11
17.555
21
10.47322
0
LINE
5
FB
100
AcDbEntity
8
vector
6
ByLayer
62
3
370
-1
100
AcDbLine
10
17.555
20
10.47322
11
16.775
21
10.47322
0
LINE
5
FC
100
AcDbEntity
8
vector
6
ByLayer
62
3
370
-1
100
AcDbLine
10
16.775
20
10.47322
11
16.775
21
10.59133
0
LINE
5
FD
100
AcDbEntity
8
vector
6
ByLayer
62
3
370
-1
100
AcDbLine
10
16.775
20
10.59133
11
16.025
21
10.59133
0
LINE
5
FE
100
AcDbEntity
8
vector
6
ByLayer
62
3
370
-1
100
AcDbLine
10
16.025
20
10.59133
11
16.025
21
10.47322
0
LINE
5
FF
100
AcDbEntity
8
vector
6
ByLayer
62
3
370
-1
100
AcDbLine
10
16.025
20
10.47322
11
15.245
21
10.47322
0
LINE
5
100
100
AcDbEntity
8
vector
6
ByLayer
62
3
370
-1
100
AcDbLine
10
15.245
20
10.47322
11
15.245
21
10.59133
0
LINE
5
101
100
AcDbEntity
8
vector
6
ByLayer
62
3
370
-1
100
AcDbLine
10
15.245
20
10.59133
11
14.495
21
10.59133
0
LINE
5
102
100
AcDbEntity
8
vector
6
ByLayer
62
3
370
-1
100
AcDbLine
10
14.495
20
10.59133
11
14.495
21
10.47322
0
LINE
5
103
100
AcDbEntity
8
vector
6
ByLayer
62
3
370
-1
100
AcDbLine
10
14.495
20
10.47322
11
13.85001
21
10.47322
0
LINE
5
104
100
AcDbEntity
8
vector
6
ByLayer
62
3
370
-1
100
AcDbLine
10
13.85001
20
9.03623
11
14.495
21
9.03623
0
LINE
5
105
100
AcDbEntity
8
vector
6
ByLayer
62
3
370
-1
100
AcDbLine
10
14.495
20
9.03623
11
14.495
21
8.91811
0
LINE
5
106
100
AcDbEntity
8
vector
6
ByLayer
62
3
370
-1
100
AcDbLine
10
14.495
20
8.91811
11
15.245
21
8.91811
0
LINE
5
107
100
AcDbEntity
8
vector
6
ByLayer
62
3
370
-1
100
AcDbLine
10
15.245
20
8.91811
11
15.245
21
9.03623
0
ARC
5
108
100
AcDbEntity
8
vector
6
ByLayer
62
256
370
-1
100
AcDbCircle
10
16.725
20
10.12323
40
0.05
100
AcDbArc
50
90
51
180
0
LINE
5
109
100
AcDbEntity
8
vector
6
ByLayer
62
256
370
-1
100
AcDbLine
10
16.725
20
10.17323
11
17.375
21
10.17323
0
ARC
5
10A
100
AcDbEntity
8
vector
6
ByLayer
62
256
370
-1
100
AcDbCircle
10
17.375
20
10.12323
40
0.05
100
AcDbArc
50
0
51
90
0
LINE
5
10B
100
AcDbEntity
8
vector
6
ByLayer
62
256
370
-1
100
AcDbLine
10
17.425
20
10.12323
11
17.425
21
9.82323
0
ARC
5
10C
100
AcDbEntity
8
vector
6
ByLayer
62
256
370
-1
100
AcDbCircle
10
17.375
20
9.82323
40
0.05
100
AcDbArc
50
270
51
0
0
LINE
5
10D
100
AcDbEntity
8
vector
6
ByLayer
62
256
370
-1
100
AcDbLine
10
17.375
20
9.77323
11
16.725
21
9.77323
0
LINE
5
10E
100
AcDbEntity
8
vector
6
ByLayer
62
256
370
-1
100
AcDbLine
10
16.675
20
9.82323
11
16.675
21
10.12323
0
ARC
5
10F
100
AcDbEntity
8
vector
6
ByLayer
62
256
370
-1
100
AcDbCircle
10
16.725
20
9.82323
40
0.05
100
AcDbArc
50
180
51
270
0
ARC
5
110
100
AcDbEntity
8
vector
6
ByLayer
62
256
370
-1
100
AcDbCircle
10
17.745
20
10.12323
40
0.05
100
AcDbArc
50
90
51
180
0
LINE
5
111
100
AcDbEntity
8
vector
6
ByLayer
62
256
370
-1
100
AcDbLine
10
17.745
20
10.17323
11
18.395
21
10.17323
0
ARC
5
112
100
AcDbEntity
8
vector
6
ByLayer
62
256
370
-1
100
AcDbCircle
10
18.395
20
10.12323
40
0.05
100
AcDbArc
50
0
51
90
0
LINE
5
113
100
AcDbEntity
8
vector
6
ByLayer
62
256
370
-1
100
AcDbLine
10
18.445
20
10.12323
11
18.445
21
9.82323
0
ARC
5
114
100
AcDbEntity
8
vector
6
ByLayer
62
256
370
-1
100
AcDbCircle
10
18.395
20
9.82323
40
0.05
100
AcDbArc
50
270
51
0
0
LINE
5
115
100
AcDbEntity
8
vector
6
ByLayer
62
256
370
-1
100
AcDbLine
10
18.395
20
9.77323
11
17.745
21
9.77323
0
LINE
5
116
100
AcDbEntity
8
vector
6
ByLayer
62
256
370
-1
100
AcDbLine
10
17.695
20
9.82323
11
17.695
21
10.12323
0
ARC
5
117
100
AcDbEntity
8
vector
6
ByLayer
62
256
370
-1
100
AcDbCircle
10
17.745
20
9.82323
40
0.05
100
AcDbArc
50
180
51
270
0
LINE
5
118
100
AcDbEntity
8
vector
6
ByLayer
62
3
370
-1
100
AcDbLine
10
11.25001
20
10.47322
11
11.25001
21
10.00472
0
LINE
5
119
100
AcDbEntity
8
vector
6
ByLayer
62
3
370
-1
100
AcDbLine
10
11.25001
20
10.00472
11
11.13189
21
10.00472
0
LINE
5
11A
100
AcDbEntity
8
vector
6
ByLayer
62
3
370
-1
100
AcDbLine
10
11.13189
20
10.00472
11
11.13189
21
9.50472
0
LINE
5
11B
100
AcDbEntity
8
vector
6
ByLayer
62
3
370
-1
100
AcDbLine
10
11.13189
20
9.50472
11
11.25001
21
9.50472
0
LINE
5
11C
100
AcDbEntity
8
vector
6
ByLayer
62
3
370
-1
100
AcDbLine
10
11.25001
20
9.50472
11
11.25001
21
9.03623
0
LINE
5
11D
100
AcDbEntity
8
vector
6
ByLayer
62
3
370
-1
100
AcDbLine
10
12.32001
20
9.03623
11
13.10001
21
9.03623
0
LINE
5
11E
100
AcDbEntity
8
vector
6
ByLayer
62
3
370
-1
100
AcDbLine
10
13.10001
20
9.03623
11
13.10001
21
8.91811
0
LINE
5
11F
100
AcDbEntity
8
vector
6
ByLayer
62
3
370
-1
100
AcDbLine
10
13.10001
20
8.91811
11
13.85001
21
8.91811
0
LINE
5
120
100
AcDbEntity
8
vector
6
ByLayer
62
3
370
-1
100
AcDbLine
10
13.85001
20
8.91811
11
13.85001
21
9.03623
0
LINE
5
121
100
AcDbEntity
8
vector
6
ByLayer
62
3
370
-1
100
AcDbLine
10
13.85001
20
10.47322
11
13.85001
21
10.59133
0
LINE
5
122
100
AcDbEntity
8
vector
6
ByLayer
62
3
370
-1
100
AcDbLine
10
13.85001
20
10.59133
11
13.10001
21
10.59133
0
LINE
5
123
100
AcDbEntity
8
vector
6
ByLayer
62
3
370
-1
100
AcDbLine
10
13.10001
20
10.59133
11
13.10001
21
10.47322
0
LINE
5
124
100
AcDbEntity
8
vector
6
ByLayer
62
3
370
-1
100
AcDbLine
10
13.10001
20
10.47322
11
12.32001
21
10.47322
0
LINE
5
125
100
AcDbEntity
8
vector
6
ByLayer
62
3
370
-1
100
AcDbLine
10
12.32001
20
10.47322
11
12.32001
21
10.59133
0
LINE
5
126
100
AcDbEntity
8
vector
6
ByLayer
62
3
370
-1
100
AcDbLine
10
12.32001
20
10.59133
11
11.57001
21
10.59133
0
LINE
5
127
100
AcDbEntity
8
vector
6
ByLayer
62
3
370
-1
100
AcDbLine
10
11.57001
20
10.59133
11
11.57001
21
10.47322
0
LINE
5
128
100
AcDbEntity
8
vector
6
ByLayer
62
3
370
-1
100
AcDbLine
10
11.57001
20
9.03623
11
11.57001
21
8.91811
0
LINE
5
129
100
AcDbEntity
8
vector
6
ByLayer
62
3
370
-1
100
AcDbLine
10
11.57001
20
8.91811
11
12.32001
21
8.91811
0
LINE
5
12A
100
AcDbEntity
8
vector
6
ByLayer
62
3
370
-1
100
AcDbLine
10
12.32001
20
8.91811
11
12.32001
21
9.03623
0
LINE
5
12B
100
AcDbEntity
8
vector
6
ByLayer
62
256
370
-1
100
AcDbLine
10
11.25001
20
10.47322
11
11.57001
21
10.47322
0
LINE
5
12C
100
AcDbEntity
8
vector
6
ByLayer
62
256
370
-1
100
AcDbLine
10
11.25001
20
9.03623
11
11.57001
21
9.03623
0
LINE
5
12D
100
AcDbEntity
8
vector
6
ByLayer
62
3
370
-1
100
AcDbLine
10
15.245
20
10.77322
11
16.025
21
10.77322
0
LINE
5
12E
100
AcDbEntity
8
vector
6
ByLayer
62
3
370
-1
100
AcDbLine
10
16.025
20
10.77322
11
16.025
21
10.65511
0
LINE
5
12F
100
AcDbEntity
8
vector
6
ByLayer
62
3
370
-1
100
AcDbLine
10
16.025
20
10.65511
11
16.775
21
10.65511
0
LINE
5
130
100
AcDbEntity
8
vector
6
ByLayer
62
3
370
-1
100
AcDbLine
10
16.775
20
10.65511
11
16.775
21
10.77322
0
LINE
5
131
100
AcDbEntity
8
vector
6
ByLayer
62
3
370
-1
100
AcDbLine
10
16.775
20
10.77322
11
17.555
21
10.77322
0
LINE
5
132
100
AcDbEntity
8
vector
6
ByLayer
62
3
370
-1
100
AcDbLine
10
17.555
20
10.77322
11
17.555
21
10.65511
0
LINE
5
133
100
AcDbEntity
8
vector
6
ByLayer
62
3
370
-1
100
AcDbLine
10
17.555
20
10.65511
11
18.305
21
10.65511
0
LINE
5
134
100
AcDbEntity
8
vector
6
ByLayer
62
3
370
-1
100
AcDbLine
10
18.305
20
10.65511
11
18.305
21
10.77322
0
LINE
5
135
100
AcDbEntity
8
vector
6
ByLayer
62
3
370
-1
100
AcDbLine
10
18.305
20
10.77322
11
18.94999
21
10.77322
0
LINE
5
136
100
AcDbEntity
8
vector
6
ByLayer
62
3
370
-1
100
AcDbLine
10
18.94999
20
10.77322
11
18.94999
21
11.24172
0
LINE
5
137
100
AcDbEntity
8
vector
6
ByLayer
62
3
370
-1
100
AcDbLine
10
18.94999
20
11.24172
11
19.06811
21
11.24172
0
LINE
5
138
100
AcDbEntity
8
vector
6
ByLayer
62
3
370
-1
100
AcDbLine
10
19.06811
20
11.24172
11
19.06811
21
11.74172
0
LINE
5
139
100
AcDbEntity
8
vector
6
ByLayer
62
3
370
-1
100
AcDbLine
10
19.06811
20
11.74172
11
18.94999
21
11.74172
0
LINE
5
13A
100
AcDbEntity
8
vector
6
ByLayer
62
3
370
-1
100
AcDbLine
10
18.94999
20
11.74172
11
18.94999
21
12.21021
0
LINE
5
13B
100
AcDbEntity
8
vector
6
ByLayer
62
3
370
-1
100
AcDbLine
10
18.94999
20
12.21021
11
18.305
21
12.21021
0
LINE
5
13C
100
AcDbEntity
8
vector
6
ByLayer
62
3
370
-1
100
AcDbLine
10
18.305
20
12.21021
11
18.305
21
12.32833
0
LINE
5
13D
100
AcDbEntity
8
vector
6
ByLayer
62
3
370
-1
100
AcDbLine
10
18.305
20
12.32833
11
17.555
21
12.32833
0
LINE
5
13E
100
AcDbEntity
8
vector
6
ByLayer
62
3
370
-1
100
AcDbLine
10
17.555
20
12.32833
11
17.555
21
12.21021
0
LINE
5
13F
100
AcDbEntity
8
vector
6
ByLayer
62
3
370
-1
100
AcDbLine
10
17.555
20
12.21021
11
16.775
21
12.21021
0
LINE
5
140
100
AcDbEntity
8
vector
6
ByLayer
62
3
370
-1
100
AcDbLine
10
16.775
20
12.21021
11
16.775
21
12.32833
0
LINE
5
141
100
AcDbEntity
8
vector
6
ByLayer
62
3
370
-1
100
AcDbLine
10
16.775
20
12.32833
11
16.025
21
12.32833
0
LINE
5
142
100
AcDbEntity
8
vector
6
ByLayer
62
3
370
-1
100
AcDbLine
10
16.025
20
12.32833
11
16.025
21
12.21021
0
LINE
5
143
100
AcDbEntity
8
vector
6
ByLayer
62
3
370
-1
100
AcDbLine
10
16.025
20
12.21021
11
15.245
21
12.21021
0
LINE
5
144
100
AcDbEntity
8
vector
6
ByLayer
62
3
370
-1
100
AcDbLine
10
15.245
20
12.21021
11
15.245
21
12.32833
0
LINE
5
145
100
AcDbEntity
8
vector
6
ByLayer
62
3
370
-1
100
AcDbLine
10
15.245
20
12.32833
11
14.495
21
12.32833
0
LINE
5
146
100
AcDbEntity
8
vector
6
ByLayer
62
3
370
-1
100
AcDbLine
10
14.495
20
12.32833
11
14.495
21
12.21021
0
LINE
5
147
100
AcDbEntity
8
vector
6
ByLayer
62
3
370
-1
100
AcDbLine
10
14.495
20
12.21021
11
13.85001
21
12.21021
0
LINE
5
148
100
AcDbEntity
8
vector
6
ByLayer
62
3
370
-1
100
AcDbLine
10
13.85001
20
10.77322
11
14.495
21
10.77322
0
LINE
5
149
100
AcDbEntity
8
vector
6
ByLayer
62
3
370
-1
100
AcDbLine
10
14.495
20
10.77322
11
14.495
21
10.65511
0
LINE
5
14A
100
AcDbEntity
8
vector
6
ByLayer
62
3
370
-1
100
AcDbLine
10
14.495
20
10.65511
11
15.245
21
10.65511
0
LINE
5
14B
100
AcDbEntity
8
vector
6
ByLayer
62
3
370
-1
100
AcDbLine
10
15.245
20
10.65511
11
15.245
21
10.77322
0
LINE
5
14C
100
AcDbEntity
8
vector
6
ByLayer
62
3
370
-1
100
AcDbLine
10
11.25001
20
12.21021
11
11.25001
21
11.74172
0
LINE
5
14D
100
AcDbEntity
8
vector
6
ByLayer
62
3
370
-1
100
AcDbLine
10
11.25001
20
11.74172
11
11.13189
21
11.74172
0
LINE
5
14E
100
AcDbEntity
8
vector
6
ByLayer
62
3
370
-1
100
AcDbLine
10
11.13189
20
11.74172
11
11.13189
21
11.24172
0
LINE
5
14F
100
AcDbEntity
8
vector
6
ByLayer
62
3
370
-1
100
AcDbLine
10
11.13189
20
11.24172
11
11.25001
21
11.24172
0
LINE
5
150
100
AcDbEntity
8
vector
6
ByLayer
62
3
370
-1
100
AcDbLine
10
11.25001
20
11.24172
11
11.25001
21
10.77322
0
LINE
5
151
100
AcDbEntity
8
vector
6
ByLayer
62
3
370
-1
100
AcDbLine
10
12.32001
20
10.77322
11
13.10001
21
10.77322
0
LINE
5
152
100
AcDbEntity
8
vector
6
ByLayer
62
3
370
-1
100
AcDbLine
10
13.10001
20
10.77322
11
13.10001
21
10.65511
0
LINE
5
153
100
AcDbEntity
8
vector
6
ByLayer
62
3
370
-1
100
AcDbLine
10
13.10001
20
10.65511
11
13.85001
21
10.65511
0
LINE
5
154
100
AcDbEntity
8
vector
6
ByLayer
62
3
370
-1
100
AcDbLine
10
13.85001
20
10.65511
11
13.85001
21
10.77322
0
LINE
5
155
100
AcDbEntity
8
vector
6
ByLayer
62
3
370
-1
100
AcDbLine
10
13.85001
20
12.21021
11
13.85001
21
12.32833
0
LINE
5
156
100
AcDbEntity
8
vector
6
ByLayer
62
3
370
-1
100
AcDbLine
10
13.85001
20
12.32833
11
13.10001
21
12.32833
0
LINE
5
157
100
AcDbEntity
8
vector
6
ByLayer
62
3
370
-1
100
AcDbLine
10
13.10001
20
12.32833
11
13.10001
21
12.21021
0
LINE
5
158
100
AcDbEntity
8
vector
6
ByLayer
62
3
370
-1
100
AcDbLine
10
13.10001
20
12.21021
11
12.32001
21
12.21021
0
LINE
5
159
100
AcDbEntity
8
vector
6
ByLayer
62
3
370
-1
100
AcDbLine
10
12.32001
20
12.21021
11
12.32001
21
12.32833
0
LINE
5
15A
100
AcDbEntity
8
vector
6
ByLayer
62
3
370
-1
100
AcDbLine
10
12.32001
20
12.32833
11
11.57001
21
12.32833
0
LINE
5
15B
100
AcDbEntity
8
vector
6
ByLayer
62
3
370
-1
100
AcDbLine
10
11.57001
20
12.32833
11
11.57001
21
12.21021
0
LINE
5
15C
100
AcDbEntity
8
vector
6
ByLayer
62
3
370
-1
100
AcDbLine
10
11.57001
20
10.77322
11
11.57001
21
10.65511
0
LINE
5
15D
100
AcDbEntity
8
vector
6
ByLayer
62
3
370
-1
100
AcDbLine
10
11.57001
20
10.65511
11
12.32001
21
10.65511
0
LINE
5
15E
100
AcDbEntity
8
vector
6
ByLayer
62
3
370
-1
100
AcDbLine
10
12.32001
20
10.65511
11
12.32001
21
10.77322
0
LINE
5
15F
100
AcDbEntity
8
vector
6
ByLayer
62
256
370
-1
100
AcDbLine
10
11.25001
20
12.21021
11
11.57001
21
12.21021
0
LINE
5
160
100
AcDbEntity
8
vector
6
ByLayer
62
256
370
-1
100
AcDbLine
10
11.25001
20
10.77322
11
11.57001
21
10.77322
0
LINE
5
161
100
AcDbEntity
8
vector
6
ByLayer
62
3
370
-1
100
AcDbLine
10
19.85472
20
0.86377
11
20.35472
21
0.86377
0
LINE
5
162
100
AcDbEntity
8
vector
6
ByLayer
62
3
370
-1
100
AcDbLine
10
20.35472
20
0.86377
11
20.35472
21
0.74565
0
LINE
5
163
100
AcDbEntity
8
vector
6
ByLayer
62
3
370
-1
100
AcDbLine
10
20.35472
20
0.74565
11
20.82322
21
0.74565
0
LINE
5
164
100
AcDbEntity
8
vector
6
ByLayer
62
3
370
-1
100
AcDbLine
10
20.82322
20
0.74565
11
20.82322
21
1.32971
0
LINE
5
165
100
AcDbEntity
8
vector
6
ByLayer
62
3
370
-1
100
AcDbLine
10
20.82322
20
1.32971
11
20.94133
21
1.32971
0
LINE
5
166
100
AcDbEntity
8
vector
6
ByLayer
62
3
370
-1
100
AcDbLine
10
20.94133
20
1.32971
11
20.94133
21
2.079715
0
LINE
5
167
100
AcDbEntity
8
vector
6
ByLayer
62
3
370
-1
100
AcDbLine
10
20.94133
20
2.079715
11
20.82322
21
2.079715
0
LINE
5
168
100
AcDbEntity
8
vector
6
ByLayer
62
3
370
-1
100
AcDbLine
10
20.82322
20
2.079715
11
20.82322
21
3.247805
0
LINE
5
169
100
AcDbEntity
8
vector
6
ByLayer
62
3
370
-1
100
AcDbLine
10
20.82322
20
3.247805
11
20.94133
21
3.247805
0
LINE
5
16A
100
AcDbEntity
8
vector
6
ByLayer
62
3
370
-1
100
AcDbLine
10
20.94133
20
3.247805
11
20.94133
21
3.99781
0
LINE
5
16B
100
AcDbEntity
8
vector
6
ByLayer
62
3
370
-1
100
AcDbLine
10
20.94133
20
3.99781
11
20.82322
21
3.99781
0
LINE
5
16C
100
AcDbEntity
8
vector
6
ByLayer
62
3
370
-1
100
AcDbLine
10
20.82322
20
3.99781
11
20.82322
21
4.58187
0
LINE
5
16D
100
AcDbEntity
8
vector
6
ByLayer
62
3
370
-1
100
AcDbLine
10
20.82322
20
4.58187
11
20.35472
21
4.58187
0
LINE
5
16E
100
AcDbEntity
8
vector
6
ByLayer
62
3
370
-1
100
AcDbLine
10
20.35472
20
4.58187
11
20.35472
21
4.46375
0
LINE
5
16F
100
AcDbEntity
8
vector
6
ByLayer
62
3
370
-1
100
AcDbLine
10
20.35472
20
4.46375
11
19.85472
21
4.46375
0
LINE
5
170
100
AcDbEntity
8
vector
6
ByLayer
62
3
370
-1
100
AcDbLine
10
19.85472
20
4.46375
11
19.85472
21
4.58187
0
LINE
5
171
100
AcDbEntity
8
vector
6
ByLayer
62
3
370
-1
100
AcDbLine
10
19.85472
20
4.58187
11
19.38623
21
4.58187
0
LINE
5
172
100
AcDbEntity
8
vector
6
ByLayer
62
3
370
-1
100
AcDbLine
10
19.38623
20
4.58187
11
19.38623
21
3.99781
0
LINE
5
173
100
AcDbEntity
8
vector
6
ByLayer
62
3
370
-1
100
AcDbLine
10
19.38623
20
3.99781
11
19.26811
21
3.99781
0
LINE
5
174
100
AcDbEntity
8
vector
6
ByLayer
62
3
370
-1
100
AcDbLine
10
19.26811
20
3.99781
11
19.26811
21
3.247805
0
LINE
5
175
100
AcDbEntity
8
vector
6
ByLayer
62
3
370
-1
100
AcDbLine
10
19.26811
20
3.247805
11
19.38623
21
3.247805
0
LINE
5
176
100
AcDbEntity
8
vector
6
ByLayer
62
3
370
-1
100
AcDbLine
10
19.38623
20
3.247805
11
19.38623
21
2.079715
0
LINE
5
177
100
AcDbEntity
8
vector
6
ByLayer
62
3
370
-1
100
AcDbLine
10
19.38623
20
2.079715
11
19.26811
21
2.079715
0
LINE
5
178
100
AcDbEntity
8
vector
6
ByLayer
62
3
370
-1
100
AcDbLine
10
19.26811
20
2.079715
11
19.26811
21
1.32971
0
LINE
5
179
100
AcDbEntity
8
vector
6
ByLayer
62
3
370
-1
100
AcDbLine
10
19.26811
20
1.32971
11
19.38623
21
1.32971
0
LINE
5
17A
100
AcDbEntity
8
vector
6
ByLayer
62
3
370
-1
100
AcDbLine
10
19.38623
20
1.32971
11
19.38623
21
0.74565
0
LINE
5
17B
100
AcDbEntity
8
vector
6
ByLayer
62
3
370
-1
100
AcDbLine
10
19.38623
20
0.74565
11
19.85472
21
0.74565
0
LINE
5
17C
100
AcDbEntity
8
vector
6
ByLayer
62
3
370
-1
100
AcDbLine
10
19.85472
20
0.74565
11
19.85472
21
0.86377
0
ARC
5
17D
100
AcDbEntity
8
vector
6
ByLayer
62
256
370
-1
100
AcDbCircle
10
20.24823
20
2.53386
40
0.05
100
AcDbArc
50
90
51
180
0
LINE
5
17E
100
AcDbEntity
8
vector
6
ByLayer
62
256
370
-1
100
AcDbLine
10
20.24823
20
2.58386
11
20.59823
21
2.58386
0
ARC
5
17F
100
AcDbEntity
8
vector
6
ByLayer
62
256
370
-1
100
AcDbCircle
10
20.59823
20
2.53386
40
0.05
100
AcDbArc
50
0
51
90
0
LINE
5
180
100
AcDbEntity
8
vector
6
ByLayer
62
256
370
-1
100
AcDbLine
10
20.64823
20
2.53386
11
20.64823
21
2.13386
0
ARC
5
181
100
AcDbEntity
8
vector
6
ByLayer
62
256
370
-1
100
AcDbCircle
10
20.59823
20
2.13386
40
0.05
100
AcDbArc
50
270
51
0
0
LINE
5
182
100
AcDbEntity
8
vector
6
ByLayer
62
256
370
-1
100
AcDbLine
10
20.59823
20
2.08386
11
20.24823
21
2.08386
0
LINE
5
183
100
AcDbEntity
8
vector
6
ByLayer
62
256
370
-1
100
AcDbLine
10
20.19823
20
2.13386
11
20.19823
21
2.53386
0
ARC
5
184
100
AcDbEntity
8
vector
6
ByLayer
62
256
370
-1
100
AcDbCircle
10
20.24823
20
2.13386
40
0.05
100
AcDbArc
50
180
51
270
0
LINE
5
185
100
AcDbEntity
8
vector
6
ByLayer
62
3
370
-1
100
AcDbLine
10
19.85472
20
5.00001
11
20.35472
21
5.00001
0
LINE
5
186
100
AcDbEntity
8
vector
6
ByLayer
62
3
370
-1
100
AcDbLine
10
20.35472
20
5.00001
11
20.35472
21
4.88189
0
LINE
5
187
100
AcDbEntity
8
vector
6
ByLayer
62
3
370
-1
100
AcDbLine
10
20.35472
20
4.88189
11
20.82321
21
4.88189
0
LINE
5
188
100
AcDbEntity
8
vector
6
ByLayer
62
3
370
-1
100
AcDbLine
10
20.82321
20
4.88189
11
20.82321
21
5.46595
0
LINE
5
189
100
AcDbEntity
8
vector
6
ByLayer
62
3
370
-1
100
AcDbLine
10
20.82321
20
5.46595
11
20.94133
21
5.46595
0
LINE
5
18A
100
AcDbEntity
8
vector
6
ByLayer
62
3
370
-1
100
AcDbLine
10
20.94133
20
5.46595
11
20.94133
21
6.215955
0
LINE
5
18B
100
AcDbEntity
8
vector
6
ByLayer
62
3
370
-1
100
AcDbLine
10
20.94133
20
6.215955
11
20.82321
21
6.215955
0
LINE
5
18C
100
AcDbEntity
8
vector
6
ByLayer
62
3
370
-1
100
AcDbLine
10
20.82321
20
6.215955
11
20.82321
21
7.384045
0
LINE
5
18D
100
AcDbEntity
8
vector
6
ByLayer
62
3
370
-1
100
AcDbLine
10
20.82321
20
7.384045
11
20.94133
21
7.384045
0
LINE
5
18E
100
AcDbEntity
8
vector
6
ByLayer
62
3
370
-1
100
AcDbLine
10
20.94133
20
7.384045
11
20.94133
21
8.13405
0
LINE
5
18F
100
AcDbEntity
8
vector
6
ByLayer
62
3
370
-1
100
AcDbLine
10
20.94133
20
8.13405
11
20.82321
21
8.13405
0
LINE
5
190
100
AcDbEntity
8
vector
6
ByLayer
62
3
370
-1
100
AcDbLine
10
20.82321
20
8.13405
11
20.82321
21
8.71811
0
LINE
5
191
100
AcDbEntity
8
vector
6
ByLayer
62
3
370
-1
100
AcDbLine
10
20.82321
20
8.71811
11
20.35472
21
8.71811
0
LINE
5
192
100
AcDbEntity
8
vector
6
ByLayer
62
3
370
-1
100
AcDbLine
10
20.35472
20
8.71811
11
20.35472
21
8.59999
0
LINE
5
193
100
AcDbEntity
8
vector
6
ByLayer
62
3
370
-1
100
AcDbLine
10
20.35472
20
8.59999
11
19.85472
21
8.59999
0
LINE
5
194
100
AcDbEntity
8
vector
6
ByLayer
62
3
370
-1
100
AcDbLine
10
19.85472
20
8.59999
11
19.85472
21
8.71811
0
LINE
5
195
100
AcDbEntity
8
vector
6
ByLayer
62
3
370
-1
100
AcDbLine
10
19.85472
20
8.71811
11
19.38622
21
8.71811
0
LINE
5
196
100
AcDbEntity
8
vector
6
ByLayer
62
3
370
-1
100
AcDbLine
10
19.38622
20
8.71811
11
19.38622
21
8.13405
0
LINE
5
197
100
AcDbEntity
8
vector
6
ByLayer
62
3
370
-1
100
AcDbLine
10
19.38622
20
8.13405
11
19.26811
21
8.13405
0
LINE
5
198
100
AcDbEntity
8
vector
6
ByLayer
62
3
370
-1
100
AcDbLine
10
19.26811
20
8.13405
11
19.26811
21
7.384045
0
LINE
5
199
100
AcDbEntity
8
vector
6
ByLayer
62
3
370
-1
100
AcDbLine
10
19.26811
20
7.384045
11
19.38622
21
7.384045
0
LINE
5
19A
100
AcDbEntity
8
vector
6
ByLayer
62
3
370
-1
100
AcDbLine
10
19.38622
20
7.384045
11
19.38622
21
6.215955
0
LINE
5
19B
100
AcDbEntity
8
vector
6
ByLayer
62
3
370
-1
100
AcDbLine
10
19.38622
20
6.215955
11
19.26811
21
6.215955
0
LINE
5
19C
100
AcDbEntity
8
vector
6
ByLayer
62
3
370
-1
100
AcDbLine
10
19.26811
20
6.215955
11
19.26811
21
5.46595
0
LINE
5
19D
100
AcDbEntity
8
vector
6
ByLayer
62
3
370
-1
100
AcDbLine
10
19.26811
20
5.46595
11
19.38622
21
5.46595
0
LINE
5
19E
100
AcDbEntity
8
vector
6
ByLayer
62
3
370
-1
100
AcDbLine
10
19.38622
20
5.46595
11
19.38622
21
4.88189
0
LINE
5
19F
100
AcDbEntity
8
vector
6
ByLayer
62
3
370
-1
100
AcDbLine
10
19.38622
20
4.88189
11
19.85472
21
4.88189
0
LINE
5
1A0
100
AcDbEntity
8
vector
6
ByLayer
62
3
370
-1
100
AcDbLine
10
19.85472
20
4.88189
11
19.85472
21
5.00001
0
LINE
5
1A1
100
AcDbEntity
8
vector
6
ByLayer
62
256
370
-1
100
AcDbLine
10
19.58321
20
6.80010005162
11
19.58321
21
7.47510005162
0
ARC
5
1A2
100
AcDbEntity
8
vector
6
ByLayer
62
256
370
-1
100
AcDbCircle
10
19.63321
20
7.47510005162
40
0.05
100
AcDbArc
50
90
51
180
0
LINE
5
1A3
100
AcDbEntity
8
vector
6
ByLayer
62
256
370
-1
100
AcDbLine
10
19.63321
20
7.52510005162
11
20.52321
21
7.52510005162
0
ARC
5
1A4
100
AcDbEntity
8
vector
6
ByLayer
62
256
370
-1
100
AcDbCircle
10
20.52321
20
7.47510005162
40
0.05
100
AcDbArc
50
3.81666561776e-13
51
90
0
LINE
5
1A5
100
AcDbEntity
8
vector
6
ByLayer
62
256
370
-1
100
AcDbLine
10
19.58321
20
6.80010005162
11
19.58321
21
6.12510005162
0
ARC
5
1A6
100
AcDbEntity
8
vector
6
ByLayer
62
256
370
-1
100
AcDbCircle
10
19.63321
20
6.12510005162
40
0.05
100
AcDbArc
50
180
51
270
0
LINE
5
1A7
100
AcDbEntity
8
vector
6
ByLayer
62
256
370
-1
100
AcDbLine
10
19.63321
20
6.07510005162
11
20.52321
21
6.07510005162
0
LINE
5
1A8
100
AcDbEntity
8
vector
6
ByLayer
62
256
370
-1
100
AcDbLine
10
20.57321
20
6.80010005162
11
20.57321
21
6.12510005162
0
ARC
5
1A9
100
AcDbEntity
8
vector
6
ByLayer
62
256
370
-1
100
AcDbCircle
10
20.52321
20
6.12510005162
40
0.05
100
AcDbArc
50
270
51
0
0
LINE
5
1AA
100
AcDbEntity
8
vector
6
ByLayer
62
256
370
-1
100
AcDbLine
10
20.57321
20
7.47510005162
11
20.57321
21
6.80010005162
0
ENDSEC
0
SECTION
2
OBJECTS
0
DICTIONARY
5
C
330
0
100
AcDbDictionary
281
1
3
ACAD_GROUP
350
D
0
DICTIONARY
5
D
330
C
100
AcDbDictionary
281
1
0
ENDSEC
0
EOF
