G04 (created by PCBNEW (2013-jul-07)-stable) date Thu 17 Jan 2019 04:45:59 PM PST*
%MOIN*%
G04 Gerber Fmt 3.4, Leading zero omitted, Abs format*
%FSLAX34Y34*%
G01*
G70*
G90*
G04 APERTURE LIST*
%ADD10C,0.00590551*%
%ADD11R,0.055X0.035*%
%ADD12R,0.06X0.06*%
%ADD13C,0.06*%
%ADD14R,0.07X0.07*%
%ADD15C,0.07*%
%ADD16R,0.0610236X0.023622*%
%ADD17C,0.15*%
%ADD18C,0.035*%
%ADD19C,0.015*%
G04 APERTURE END LIST*
G54D10*
G54D11*
X53379Y-52275D03*
X53379Y-53025D03*
X47600Y-53075D03*
X47600Y-52325D03*
X53509Y-40784D03*
X53509Y-41534D03*
X47600Y-41475D03*
X47600Y-40725D03*
X45200Y-52325D03*
X45200Y-53075D03*
X38800Y-53075D03*
X38800Y-52325D03*
X45300Y-40725D03*
X45300Y-41475D03*
X38800Y-41475D03*
X38800Y-40725D03*
G54D12*
X34010Y-55350D03*
G54D13*
X33980Y-56350D03*
X33980Y-57350D03*
G54D12*
X39000Y-31000D03*
G54D13*
X39000Y-32000D03*
G54D12*
X42500Y-31000D03*
G54D13*
X42500Y-32000D03*
G54D14*
X39400Y-62000D03*
G54D15*
X39400Y-63000D03*
X38400Y-62000D03*
X38400Y-63000D03*
X37400Y-62000D03*
X37400Y-63000D03*
X36400Y-62000D03*
X36400Y-63000D03*
X35400Y-62000D03*
X35400Y-63000D03*
G54D14*
X49600Y-62000D03*
G54D15*
X49600Y-63000D03*
X48600Y-62000D03*
X48600Y-63000D03*
X47600Y-62000D03*
X47600Y-63000D03*
X46600Y-62000D03*
X46600Y-63000D03*
X45600Y-62000D03*
X45600Y-63000D03*
G54D16*
X49637Y-50850D03*
X49637Y-51350D03*
X49637Y-51850D03*
X49637Y-52350D03*
X51762Y-52350D03*
X51762Y-51850D03*
X51762Y-51350D03*
X51762Y-50850D03*
X49637Y-52850D03*
X49637Y-53350D03*
X49637Y-53850D03*
X49637Y-54350D03*
X51762Y-53350D03*
X51762Y-53850D03*
X51762Y-54350D03*
X51762Y-52850D03*
X49637Y-39250D03*
X49637Y-39750D03*
X49637Y-40250D03*
X49637Y-40750D03*
X51762Y-40750D03*
X51762Y-40250D03*
X51762Y-39750D03*
X51762Y-39250D03*
X49637Y-41250D03*
X49637Y-41750D03*
X49637Y-42250D03*
X49637Y-42750D03*
X51762Y-41750D03*
X51762Y-42250D03*
X51762Y-42750D03*
X51762Y-41250D03*
X40937Y-50850D03*
X40937Y-51350D03*
X40937Y-51850D03*
X40937Y-52350D03*
X43062Y-52350D03*
X43062Y-51850D03*
X43062Y-51350D03*
X43062Y-50850D03*
X40937Y-52850D03*
X40937Y-53350D03*
X40937Y-53850D03*
X40937Y-54350D03*
X43062Y-53350D03*
X43062Y-53850D03*
X43062Y-54350D03*
X43062Y-52850D03*
X40937Y-39250D03*
X40937Y-39750D03*
X40937Y-40250D03*
X40937Y-40750D03*
X43062Y-40750D03*
X43062Y-40250D03*
X43062Y-39750D03*
X43062Y-39250D03*
X40937Y-41250D03*
X40937Y-41750D03*
X40937Y-42250D03*
X40937Y-42750D03*
X43062Y-41750D03*
X43062Y-42250D03*
X43062Y-42750D03*
X43062Y-41250D03*
G54D17*
X31500Y-31500D03*
X53500Y-31500D03*
X53500Y-63500D03*
X31500Y-63500D03*
G54D14*
X59500Y-45500D03*
G54D15*
X60500Y-45500D03*
X59500Y-46500D03*
X60500Y-46500D03*
X59500Y-47500D03*
X60500Y-47500D03*
X59500Y-48500D03*
X60500Y-48500D03*
X59500Y-49500D03*
X60500Y-49500D03*
G54D18*
X51187Y-40446D03*
X53509Y-40208D03*
X47600Y-51878D03*
X40352Y-52225D03*
X49054Y-40408D03*
X51197Y-51497D03*
X49076Y-51497D03*
X42519Y-45959D03*
X42481Y-39390D03*
X38518Y-55563D03*
X42505Y-51080D03*
X51492Y-50406D03*
X46241Y-45374D03*
X42000Y-48447D03*
X50840Y-45500D03*
X48234Y-51928D03*
X50097Y-47123D03*
X52326Y-40725D03*
X43629Y-40068D03*
X43607Y-41494D03*
X49076Y-41576D03*
X42785Y-46324D03*
X43427Y-47500D03*
X44008Y-44449D03*
X41258Y-48933D03*
X53706Y-49477D03*
X49637Y-50021D03*
G54D19*
X53379Y-52275D02*
X52949Y-52275D01*
X51762Y-52350D02*
X52223Y-52350D01*
X51762Y-40750D02*
X51360Y-40750D01*
X45300Y-40725D02*
X44869Y-40725D01*
X43973Y-40725D02*
X44869Y-40725D01*
X45200Y-52325D02*
X45200Y-51994D01*
X52298Y-52275D02*
X52470Y-52275D01*
X52223Y-52350D02*
X52298Y-52275D01*
X52470Y-52275D02*
X52949Y-52275D01*
X51187Y-40577D02*
X51360Y-40750D01*
X51187Y-40446D02*
X51187Y-40577D01*
X53509Y-40208D02*
X53509Y-40784D01*
X44869Y-51664D02*
X44869Y-40725D01*
X45200Y-51994D02*
X44869Y-51664D01*
X43973Y-33473D02*
X42500Y-32000D01*
X43973Y-40725D02*
X43973Y-33473D01*
X42500Y-31000D02*
X42500Y-32000D01*
X52470Y-45076D02*
X52470Y-52275D01*
X51072Y-43678D02*
X52470Y-45076D01*
X51072Y-41037D02*
X51072Y-43678D01*
X51360Y-40750D02*
X51072Y-41037D01*
X43948Y-40750D02*
X43062Y-40750D01*
X43973Y-40725D02*
X43948Y-40750D01*
X43778Y-52094D02*
X43523Y-52350D01*
X43778Y-45919D02*
X43778Y-52094D01*
X42372Y-44513D02*
X43778Y-45919D01*
X42372Y-40980D02*
X42372Y-44513D01*
X42602Y-40750D02*
X42372Y-40980D01*
X43062Y-40750D02*
X42602Y-40750D01*
X43062Y-52350D02*
X43523Y-52350D01*
X38800Y-40725D02*
X39000Y-40725D01*
X39000Y-40725D02*
X39230Y-40725D01*
X48055Y-52350D02*
X49637Y-52350D01*
X48030Y-52325D02*
X48055Y-52350D01*
X47600Y-52325D02*
X48030Y-52325D01*
X40937Y-52350D02*
X40476Y-52350D01*
X47600Y-52325D02*
X47600Y-51994D01*
X40476Y-52350D02*
X40352Y-52225D01*
X39329Y-52225D02*
X39230Y-52325D01*
X40352Y-52225D02*
X39329Y-52225D01*
X38800Y-52325D02*
X39230Y-52325D01*
X39255Y-40750D02*
X40937Y-40750D01*
X39230Y-40725D02*
X39255Y-40750D01*
X49468Y-40750D02*
X49176Y-40750D01*
X49468Y-40750D02*
X49637Y-40750D01*
X50435Y-52011D02*
X50097Y-52350D01*
X50435Y-46900D02*
X50435Y-52011D01*
X50331Y-46796D02*
X50435Y-46900D01*
X50331Y-40984D02*
X50331Y-46796D01*
X50097Y-40750D02*
X50331Y-40984D01*
X49637Y-40750D02*
X50097Y-40750D01*
X49637Y-52350D02*
X50097Y-52350D01*
X48055Y-40750D02*
X49176Y-40750D01*
X48030Y-40725D02*
X48055Y-40750D01*
X47600Y-40725D02*
X48030Y-40725D01*
X47600Y-51994D02*
X47600Y-51878D01*
X39000Y-40725D02*
X39000Y-32000D01*
X39000Y-32000D02*
X39000Y-31000D01*
X47600Y-35262D02*
X47600Y-40725D01*
X42882Y-30544D02*
X47600Y-35262D01*
X39910Y-30544D02*
X42882Y-30544D01*
X39455Y-31000D02*
X39910Y-30544D01*
X39000Y-31000D02*
X39455Y-31000D01*
X49176Y-40286D02*
X49054Y-40408D01*
X49176Y-40250D02*
X49176Y-40286D01*
X49637Y-40250D02*
X49176Y-40250D01*
X49637Y-39750D02*
X49176Y-39750D01*
X49176Y-39062D02*
X49176Y-39750D01*
X49496Y-38742D02*
X49176Y-39062D01*
X52596Y-38742D02*
X49496Y-38742D01*
X58450Y-44596D02*
X52596Y-38742D01*
X59596Y-44596D02*
X58450Y-44596D01*
X60500Y-45500D02*
X59596Y-44596D01*
X49637Y-54350D02*
X49176Y-54350D01*
X45076Y-58449D02*
X49176Y-54350D01*
X45076Y-62476D02*
X45076Y-58449D01*
X45600Y-63000D02*
X45076Y-62476D01*
X51302Y-51392D02*
X51197Y-51497D01*
X51302Y-50850D02*
X51302Y-51392D01*
X51762Y-50850D02*
X51302Y-50850D01*
X49176Y-51397D02*
X49076Y-51497D01*
X49176Y-50850D02*
X49176Y-51397D01*
X49637Y-50850D02*
X49176Y-50850D01*
X51302Y-56297D02*
X45600Y-62000D01*
X51302Y-54350D02*
X51302Y-56297D01*
X51762Y-54350D02*
X51302Y-54350D01*
X49637Y-42750D02*
X49176Y-42750D01*
X47071Y-63528D02*
X47600Y-63000D01*
X45383Y-63528D02*
X47071Y-63528D01*
X44846Y-62991D02*
X45383Y-63528D01*
X44846Y-57879D02*
X44846Y-62991D01*
X46939Y-55785D02*
X44846Y-57879D01*
X46939Y-44987D02*
X46939Y-55785D01*
X49176Y-42750D02*
X46939Y-44987D01*
X51762Y-42750D02*
X52223Y-42750D01*
X52223Y-43075D02*
X52223Y-42750D01*
X54040Y-44892D02*
X52223Y-43075D01*
X54040Y-55559D02*
X54040Y-44892D01*
X47600Y-62000D02*
X54040Y-55559D01*
X40937Y-39250D02*
X41397Y-39250D01*
X41857Y-45297D02*
X42519Y-45959D01*
X41857Y-39710D02*
X41857Y-45297D01*
X41397Y-39250D02*
X41857Y-39710D01*
X43062Y-39250D02*
X42602Y-39250D01*
X42602Y-39269D02*
X42481Y-39390D01*
X42602Y-39250D02*
X42602Y-39269D01*
X43062Y-42750D02*
X43523Y-42750D01*
X44350Y-43577D02*
X43523Y-42750D01*
X44350Y-55049D02*
X44350Y-43577D01*
X37400Y-62000D02*
X44350Y-55049D01*
X36890Y-63509D02*
X37400Y-63000D01*
X35167Y-63509D02*
X36890Y-63509D01*
X34650Y-62992D02*
X35167Y-63509D01*
X34650Y-59160D02*
X34650Y-62992D01*
X37573Y-56237D02*
X34650Y-59160D01*
X37573Y-51168D02*
X37573Y-56237D01*
X40937Y-47805D02*
X37573Y-51168D01*
X40937Y-42750D02*
X40937Y-47805D01*
X38352Y-55397D02*
X38518Y-55563D01*
X38352Y-52086D02*
X38352Y-55397D01*
X39588Y-50850D02*
X38352Y-52086D01*
X40937Y-50850D02*
X39588Y-50850D01*
X42602Y-50983D02*
X42505Y-51080D01*
X42602Y-50850D02*
X42602Y-50983D01*
X43062Y-50850D02*
X42602Y-50850D01*
X51492Y-45336D02*
X51492Y-50406D01*
X50561Y-44405D02*
X51492Y-45336D01*
X50561Y-39714D02*
X50561Y-44405D01*
X50097Y-39250D02*
X50561Y-39714D01*
X49637Y-39250D02*
X50097Y-39250D01*
X43062Y-54350D02*
X42602Y-54350D01*
X42602Y-54797D02*
X42602Y-54350D01*
X35400Y-62000D02*
X42602Y-54797D01*
X34892Y-60394D02*
X40937Y-54350D01*
X34892Y-62492D02*
X34892Y-60394D01*
X35400Y-63000D02*
X34892Y-62492D01*
X51762Y-39250D02*
X52223Y-39250D01*
X52755Y-39781D02*
X52223Y-39250D01*
X52755Y-43119D02*
X52755Y-39781D01*
X54270Y-44634D02*
X52755Y-43119D01*
X54270Y-59044D02*
X54270Y-44634D01*
X49785Y-63528D02*
X54270Y-59044D01*
X49128Y-63528D02*
X49785Y-63528D01*
X48600Y-63000D02*
X49128Y-63528D01*
X57144Y-45500D02*
X53509Y-41864D01*
X59500Y-45500D02*
X57144Y-45500D01*
X53509Y-41534D02*
X53509Y-41864D01*
X40937Y-41250D02*
X40476Y-41250D01*
X40251Y-41475D02*
X39230Y-41475D01*
X40476Y-41250D02*
X40251Y-41475D01*
X46241Y-41475D02*
X46241Y-45374D01*
X46241Y-41475D02*
X45300Y-41475D01*
X45200Y-53075D02*
X45200Y-52744D01*
X39455Y-52850D02*
X39230Y-53075D01*
X40476Y-52850D02*
X39455Y-52850D01*
X40937Y-52850D02*
X40476Y-52850D01*
X38800Y-53075D02*
X39230Y-53075D01*
X43062Y-53350D02*
X42602Y-53350D01*
X43062Y-51850D02*
X42602Y-51850D01*
X40937Y-52850D02*
X41397Y-52850D01*
X40937Y-51850D02*
X41397Y-51850D01*
X48255Y-52850D02*
X48030Y-53075D01*
X49637Y-52850D02*
X48255Y-52850D01*
X47600Y-53075D02*
X48030Y-53075D01*
X46241Y-41475D02*
X47600Y-41475D01*
X47600Y-41475D02*
X48030Y-41475D01*
X50097Y-53350D02*
X50097Y-52850D01*
X49637Y-52850D02*
X50097Y-52850D01*
X49637Y-53350D02*
X50097Y-53350D01*
X53379Y-53025D02*
X52949Y-53025D01*
X42602Y-53350D02*
X42602Y-51850D01*
X41397Y-52850D02*
X41397Y-51850D01*
X41397Y-53350D02*
X41397Y-52850D01*
X40937Y-53350D02*
X41397Y-53350D01*
X38800Y-41475D02*
X38907Y-41475D01*
X38907Y-41475D02*
X39230Y-41475D01*
X45200Y-53075D02*
X45200Y-53405D01*
X46241Y-51955D02*
X46241Y-45374D01*
X45452Y-52744D02*
X46241Y-51955D01*
X45200Y-52744D02*
X45452Y-52744D01*
X52624Y-53350D02*
X51762Y-53350D01*
X52949Y-53025D02*
X52624Y-53350D01*
X51762Y-53350D02*
X51302Y-53350D01*
X45200Y-57200D02*
X45200Y-53405D01*
X39400Y-63000D02*
X45200Y-57200D01*
X51302Y-53148D02*
X50939Y-52785D01*
X51302Y-53350D02*
X51302Y-53148D01*
X50161Y-52785D02*
X50097Y-52850D01*
X50939Y-52785D02*
X50161Y-52785D01*
X51762Y-51850D02*
X51302Y-51850D01*
X50939Y-52212D02*
X51192Y-51960D01*
X50939Y-52785D02*
X50939Y-52212D01*
X51192Y-51960D02*
X51302Y-51850D01*
X50840Y-51608D02*
X50840Y-45500D01*
X51192Y-51960D02*
X50840Y-51608D01*
X38660Y-63739D02*
X39400Y-63000D01*
X35072Y-63739D02*
X38660Y-63739D01*
X33511Y-62179D02*
X35072Y-63739D01*
X33511Y-53934D02*
X33511Y-62179D01*
X38907Y-48539D02*
X33511Y-53934D01*
X38907Y-41475D02*
X38907Y-48539D01*
X42000Y-51247D02*
X41397Y-51850D01*
X42000Y-51247D02*
X42602Y-51850D01*
X42000Y-51247D02*
X42000Y-48447D01*
X48281Y-41223D02*
X48030Y-41475D01*
X49610Y-41223D02*
X48281Y-41223D01*
X49637Y-41250D02*
X49610Y-41223D01*
X49098Y-51928D02*
X48234Y-51928D01*
X49176Y-51850D02*
X49098Y-51928D01*
X49637Y-51850D02*
X49176Y-51850D01*
X49637Y-51350D02*
X50097Y-51350D01*
X50097Y-51350D02*
X50097Y-47123D01*
X40937Y-41750D02*
X40476Y-41750D01*
X51762Y-41750D02*
X52223Y-41750D01*
X52326Y-41646D02*
X52326Y-40725D01*
X52223Y-41750D02*
X52326Y-41646D01*
X52326Y-40353D02*
X52223Y-40250D01*
X52326Y-40725D02*
X52326Y-40353D01*
X51762Y-40250D02*
X52223Y-40250D01*
X41397Y-40250D02*
X41397Y-41750D01*
X40937Y-41750D02*
X41397Y-41750D01*
X34492Y-56837D02*
X33980Y-57350D01*
X34492Y-53308D02*
X34492Y-56837D01*
X40476Y-47324D02*
X34492Y-53308D01*
X40476Y-41750D02*
X40476Y-47324D01*
X43062Y-40250D02*
X43523Y-40250D01*
X43629Y-40143D02*
X43629Y-40068D01*
X43523Y-40250D02*
X43629Y-40143D01*
X41167Y-40250D02*
X41397Y-40250D01*
X41167Y-40250D02*
X40937Y-40250D01*
X43629Y-39170D02*
X43629Y-40068D01*
X43435Y-38976D02*
X43629Y-39170D01*
X40566Y-38976D02*
X43435Y-38976D01*
X40476Y-39066D02*
X40566Y-38976D01*
X40476Y-40250D02*
X40476Y-39066D01*
X40937Y-40250D02*
X40476Y-40250D01*
X43523Y-41578D02*
X43607Y-41494D01*
X43523Y-41750D02*
X43523Y-41578D01*
X43062Y-41750D02*
X43523Y-41750D01*
X49637Y-41750D02*
X49176Y-41750D01*
X49176Y-41677D02*
X49076Y-41576D01*
X49176Y-41750D02*
X49176Y-41677D01*
X40937Y-39750D02*
X41397Y-39750D01*
X40937Y-51350D02*
X41397Y-51350D01*
X41627Y-39980D02*
X41627Y-46324D01*
X41397Y-39750D02*
X41627Y-39980D01*
X41627Y-51119D02*
X41397Y-51350D01*
X41627Y-46324D02*
X41627Y-51119D01*
X41627Y-46324D02*
X42785Y-46324D01*
X43062Y-51350D02*
X43523Y-51350D01*
X43523Y-47595D02*
X43427Y-47500D01*
X43523Y-51350D02*
X43523Y-47595D01*
X43062Y-39750D02*
X42602Y-39750D01*
X43427Y-45894D02*
X43427Y-47500D01*
X42142Y-44609D02*
X43427Y-45894D01*
X42142Y-40210D02*
X42142Y-44609D01*
X42602Y-39750D02*
X42142Y-40210D01*
X43062Y-42250D02*
X42602Y-42250D01*
X43062Y-53850D02*
X43523Y-53850D01*
X42602Y-43043D02*
X42602Y-42250D01*
X44008Y-44449D02*
X42602Y-43043D01*
X44008Y-53364D02*
X44008Y-44449D01*
X43523Y-53850D02*
X44008Y-53364D01*
X40937Y-42250D02*
X41397Y-42250D01*
X40937Y-53850D02*
X40476Y-53850D01*
X41397Y-48794D02*
X41258Y-48933D01*
X41397Y-42250D02*
X41397Y-48794D01*
X40476Y-54071D02*
X40476Y-53850D01*
X38637Y-55910D02*
X40476Y-54071D01*
X38394Y-55910D02*
X38637Y-55910D01*
X38116Y-55632D02*
X38394Y-55910D01*
X38116Y-51973D02*
X38116Y-55632D01*
X41156Y-48933D02*
X38116Y-51973D01*
X41258Y-48933D02*
X41156Y-48933D01*
X51762Y-39750D02*
X51302Y-39750D01*
X51762Y-51350D02*
X52223Y-51350D01*
X61015Y-49015D02*
X60500Y-48500D01*
X61015Y-49705D02*
X61015Y-49015D01*
X60693Y-50026D02*
X61015Y-49705D01*
X59283Y-50026D02*
X60693Y-50026D01*
X58980Y-49723D02*
X59283Y-50026D01*
X58980Y-47695D02*
X58980Y-49723D01*
X53013Y-41727D02*
X58980Y-47695D01*
X53013Y-39714D02*
X53013Y-41727D01*
X52271Y-38972D02*
X53013Y-39714D01*
X51389Y-38972D02*
X52271Y-38972D01*
X51302Y-39058D02*
X51389Y-38972D01*
X51302Y-39750D02*
X51302Y-39058D01*
X52223Y-45570D02*
X52223Y-51350D01*
X50828Y-44175D02*
X52223Y-45570D01*
X50828Y-40224D02*
X50828Y-44175D01*
X51302Y-39750D02*
X50828Y-40224D01*
X51762Y-42250D02*
X51302Y-42250D01*
X53810Y-49581D02*
X53706Y-49477D01*
X53810Y-53293D02*
X53810Y-49581D01*
X53253Y-53850D02*
X53810Y-53293D01*
X51762Y-53850D02*
X53253Y-53850D01*
X53706Y-45335D02*
X53706Y-49477D01*
X51302Y-42932D02*
X53706Y-45335D01*
X51302Y-42250D02*
X51302Y-42932D01*
X49637Y-42250D02*
X50097Y-42250D01*
X49637Y-45586D02*
X49637Y-50021D01*
X50097Y-45126D02*
X49637Y-45586D01*
X50097Y-42250D02*
X50097Y-45126D01*
X47682Y-53850D02*
X49637Y-53850D01*
X47169Y-53337D02*
X47682Y-53850D01*
X47169Y-51825D02*
X47169Y-53337D01*
X48973Y-50021D02*
X47169Y-51825D01*
X49637Y-50021D02*
X48973Y-50021D01*
M02*
