M48
;DRILL file {Pcbnew (2013-jul-07)-stable} date Thu 17 Jan 2019 04:46:03 PM PST
;FORMAT={-:-/ absolute / inch / decimal}
FMAT,2
INCH,TZ
T1C0.025
T2C0.040
T3C0.116
%
G90
G05
M72
T1
X3.8518Y-5.5563
X4.0352Y-5.2225
X4.1258Y-4.8934
X4.2Y-4.8448
X4.2481Y-3.9391
X4.2505Y-5.1081
X4.252Y-4.5959
X4.2786Y-4.6325
X4.3428Y-4.75
X4.3607Y-4.1495
X4.3629Y-4.0068
X4.4009Y-4.4449
X4.6242Y-4.5375
X4.76Y-5.1878
X4.8234Y-5.1929
X4.9054Y-4.0409
X4.9076Y-4.1576
X4.9077Y-5.1497
X4.9637Y-5.0022
X5.0097Y-4.7123
X5.0841Y-4.55
X5.1188Y-4.0446
X5.1198Y-5.1497
X5.1493Y-5.0406
X5.2326Y-4.0726
X5.351Y-4.0208
X5.3706Y-4.9478
T2
X3.398Y-5.635
X3.398Y-5.735
X3.401Y-5.535
X3.54Y-6.2
X3.54Y-6.3
X3.64Y-6.2
X3.64Y-6.3
X3.74Y-6.2
X3.74Y-6.3
X3.84Y-6.2
X3.84Y-6.3
X3.9Y-3.1
X3.9Y-3.2
X3.94Y-6.2
X3.94Y-6.3
X4.25Y-3.1
X4.25Y-3.2
X4.56Y-6.2
X4.56Y-6.3
X4.66Y-6.2
X4.66Y-6.3
X4.76Y-6.2
X4.76Y-6.3
X4.86Y-6.2
X4.86Y-6.3
X4.96Y-6.2
X4.96Y-6.3
X5.95Y-4.55
X5.95Y-4.65
X5.95Y-4.75
X5.95Y-4.85
X5.95Y-4.95
X6.05Y-4.55
X6.05Y-4.65
X6.05Y-4.75
X6.05Y-4.85
X6.05Y-4.95
T3
X3.15Y-3.15
X3.15Y-6.35
X5.35Y-3.15
X5.35Y-6.35
T0
M30
