G04 (created by PCBNEW (2013-jul-07)-stable) date Thu 19 Jul 2018 04:00:03 PM PDT*
%MOIN*%
G04 Gerber Fmt 3.4, Leading zero omitted, Abs format*
%FSLAX34Y34*%
G01*
G70*
G90*
G04 APERTURE LIST*
%ADD10C,0.00590551*%
%ADD11C,0.008*%
%ADD12C,0.00787402*%
%ADD13C,0.0039*%
%ADD14C,0.006*%
%ADD15C,0.015*%
%ADD16C,0.005*%
%ADD17C,0.01*%
G04 APERTURE END LIST*
G54D10*
G54D11*
X44704Y-34261D02*
X44571Y-34071D01*
X44476Y-34261D02*
X44476Y-33861D01*
X44628Y-33861D01*
X44666Y-33880D01*
X44685Y-33900D01*
X44704Y-33938D01*
X44704Y-33995D01*
X44685Y-34033D01*
X44666Y-34052D01*
X44628Y-34071D01*
X44476Y-34071D01*
X44933Y-34261D02*
X44895Y-34242D01*
X44876Y-34223D01*
X44857Y-34185D01*
X44857Y-34071D01*
X44876Y-34033D01*
X44895Y-34014D01*
X44933Y-33995D01*
X44990Y-33995D01*
X45028Y-34014D01*
X45047Y-34033D01*
X45066Y-34071D01*
X45066Y-34185D01*
X45047Y-34223D01*
X45028Y-34242D01*
X44990Y-34261D01*
X44933Y-34261D01*
X45409Y-34261D02*
X45409Y-33861D01*
X45409Y-34242D02*
X45371Y-34261D01*
X45295Y-34261D01*
X45257Y-34242D01*
X45238Y-34223D01*
X45219Y-34185D01*
X45219Y-34071D01*
X45238Y-34033D01*
X45257Y-34014D01*
X45295Y-33995D01*
X45371Y-33995D01*
X45409Y-34014D01*
X45752Y-34242D02*
X45714Y-34261D01*
X45638Y-34261D01*
X45600Y-34242D01*
X45580Y-34204D01*
X45580Y-34052D01*
X45600Y-34014D01*
X45638Y-33995D01*
X45714Y-33995D01*
X45752Y-34014D01*
X45771Y-34052D01*
X45771Y-34090D01*
X45580Y-34128D01*
X46000Y-34261D02*
X45961Y-34242D01*
X45942Y-34223D01*
X45923Y-34185D01*
X45923Y-34071D01*
X45942Y-34033D01*
X45961Y-34014D01*
X46000Y-33995D01*
X46057Y-33995D01*
X46095Y-34014D01*
X46114Y-34033D01*
X46133Y-34071D01*
X46133Y-34185D01*
X46114Y-34223D01*
X46095Y-34242D01*
X46057Y-34261D01*
X46000Y-34261D01*
X46285Y-34242D02*
X46323Y-34261D01*
X46400Y-34261D01*
X46438Y-34242D01*
X46457Y-34204D01*
X46457Y-34185D01*
X46438Y-34147D01*
X46400Y-34128D01*
X46342Y-34128D01*
X46304Y-34109D01*
X46285Y-34071D01*
X46285Y-34052D01*
X46304Y-34014D01*
X46342Y-33995D01*
X46400Y-33995D01*
X46438Y-34014D01*
X46571Y-33995D02*
X46723Y-33995D01*
X46628Y-33861D02*
X46628Y-34204D01*
X46647Y-34242D01*
X46685Y-34261D01*
X46723Y-34261D01*
X47028Y-34261D02*
X47028Y-34052D01*
X47009Y-34014D01*
X46971Y-33995D01*
X46895Y-33995D01*
X46857Y-34014D01*
X47028Y-34242D02*
X46990Y-34261D01*
X46895Y-34261D01*
X46857Y-34242D01*
X46838Y-34204D01*
X46838Y-34166D01*
X46857Y-34128D01*
X46895Y-34109D01*
X46990Y-34109D01*
X47028Y-34090D01*
X47161Y-33995D02*
X47314Y-33995D01*
X47219Y-33861D02*
X47219Y-34204D01*
X47238Y-34242D01*
X47276Y-34261D01*
X47314Y-34261D01*
X47752Y-34261D02*
X47752Y-33861D01*
X47885Y-34147D01*
X48019Y-33861D01*
X48019Y-34261D01*
X48380Y-33995D02*
X48380Y-34261D01*
X48209Y-33995D02*
X48209Y-34204D01*
X48228Y-34242D01*
X48266Y-34261D01*
X48323Y-34261D01*
X48361Y-34242D01*
X48380Y-34223D01*
X48628Y-34261D02*
X48590Y-34242D01*
X48571Y-34204D01*
X48571Y-33861D01*
X48723Y-33995D02*
X48876Y-33995D01*
X48780Y-33861D02*
X48780Y-34204D01*
X48800Y-34242D01*
X48838Y-34261D01*
X48876Y-34261D01*
X49009Y-34261D02*
X49009Y-33995D01*
X49009Y-33861D02*
X48990Y-33880D01*
X49009Y-33900D01*
X49028Y-33880D01*
X49009Y-33861D01*
X49009Y-33900D01*
X49200Y-33995D02*
X49200Y-34395D01*
X49200Y-34014D02*
X49238Y-33995D01*
X49314Y-33995D01*
X49352Y-34014D01*
X49371Y-34033D01*
X49390Y-34071D01*
X49390Y-34185D01*
X49371Y-34223D01*
X49352Y-34242D01*
X49314Y-34261D01*
X49238Y-34261D01*
X49200Y-34242D01*
X49619Y-34261D02*
X49580Y-34242D01*
X49561Y-34204D01*
X49561Y-33861D01*
X49923Y-34242D02*
X49885Y-34261D01*
X49809Y-34261D01*
X49771Y-34242D01*
X49752Y-34204D01*
X49752Y-34052D01*
X49771Y-34014D01*
X49809Y-33995D01*
X49885Y-33995D01*
X49923Y-34014D01*
X49942Y-34052D01*
X49942Y-34090D01*
X49752Y-34128D01*
X50076Y-34261D02*
X50285Y-33995D01*
X50076Y-33995D02*
X50285Y-34261D01*
X50590Y-34242D02*
X50552Y-34261D01*
X50476Y-34261D01*
X50438Y-34242D01*
X50419Y-34204D01*
X50419Y-34052D01*
X50438Y-34014D01*
X50476Y-33995D01*
X50552Y-33995D01*
X50590Y-34014D01*
X50609Y-34052D01*
X50609Y-34090D01*
X50419Y-34128D01*
X50780Y-34261D02*
X50780Y-33995D01*
X50780Y-34071D02*
X50799Y-34033D01*
X50819Y-34014D01*
X50857Y-33995D01*
X50895Y-33995D01*
X51276Y-33861D02*
X51409Y-34261D01*
X51542Y-33861D01*
X51752Y-33861D02*
X51790Y-33861D01*
X51828Y-33880D01*
X51847Y-33900D01*
X51866Y-33938D01*
X51885Y-34014D01*
X51885Y-34109D01*
X51866Y-34185D01*
X51847Y-34223D01*
X51828Y-34242D01*
X51790Y-34261D01*
X51752Y-34261D01*
X51714Y-34242D01*
X51695Y-34223D01*
X51676Y-34185D01*
X51657Y-34109D01*
X51657Y-34014D01*
X51676Y-33938D01*
X51695Y-33900D01*
X51714Y-33880D01*
X51752Y-33861D01*
X52057Y-34223D02*
X52076Y-34242D01*
X52057Y-34261D01*
X52038Y-34242D01*
X52057Y-34223D01*
X52057Y-34261D01*
X52457Y-34261D02*
X52228Y-34261D01*
X52342Y-34261D02*
X52342Y-33861D01*
X52304Y-33919D01*
X52266Y-33957D01*
X52228Y-33976D01*
X53161Y-34261D02*
X53028Y-34071D01*
X52933Y-34261D02*
X52933Y-33861D01*
X53085Y-33861D01*
X53123Y-33880D01*
X53142Y-33900D01*
X53161Y-33938D01*
X53161Y-33995D01*
X53142Y-34033D01*
X53123Y-34052D01*
X53085Y-34071D01*
X52933Y-34071D01*
X53542Y-34261D02*
X53314Y-34261D01*
X53428Y-34261D02*
X53428Y-33861D01*
X53390Y-33919D01*
X53352Y-33957D01*
X53314Y-33976D01*
X44323Y-34901D02*
X44323Y-34501D01*
X44590Y-34501D02*
X44666Y-34501D01*
X44704Y-34520D01*
X44742Y-34559D01*
X44761Y-34635D01*
X44761Y-34768D01*
X44742Y-34844D01*
X44704Y-34882D01*
X44666Y-34901D01*
X44590Y-34901D01*
X44552Y-34882D01*
X44514Y-34844D01*
X44495Y-34768D01*
X44495Y-34635D01*
X44514Y-34559D01*
X44552Y-34520D01*
X44590Y-34501D01*
X45466Y-34901D02*
X45333Y-34711D01*
X45238Y-34901D02*
X45238Y-34501D01*
X45390Y-34501D01*
X45428Y-34520D01*
X45447Y-34540D01*
X45466Y-34578D01*
X45466Y-34635D01*
X45447Y-34673D01*
X45428Y-34692D01*
X45390Y-34711D01*
X45238Y-34711D01*
X45695Y-34901D02*
X45657Y-34882D01*
X45638Y-34863D01*
X45619Y-34825D01*
X45619Y-34711D01*
X45638Y-34673D01*
X45657Y-34654D01*
X45695Y-34635D01*
X45752Y-34635D01*
X45790Y-34654D01*
X45809Y-34673D01*
X45828Y-34711D01*
X45828Y-34825D01*
X45809Y-34863D01*
X45790Y-34882D01*
X45752Y-34901D01*
X45695Y-34901D01*
X46171Y-34901D02*
X46171Y-34501D01*
X46171Y-34882D02*
X46133Y-34901D01*
X46057Y-34901D01*
X46019Y-34882D01*
X46000Y-34863D01*
X45980Y-34825D01*
X45980Y-34711D01*
X46000Y-34673D01*
X46019Y-34654D01*
X46057Y-34635D01*
X46133Y-34635D01*
X46171Y-34654D01*
X46514Y-34882D02*
X46476Y-34901D01*
X46400Y-34901D01*
X46361Y-34882D01*
X46342Y-34844D01*
X46342Y-34692D01*
X46361Y-34654D01*
X46400Y-34635D01*
X46476Y-34635D01*
X46514Y-34654D01*
X46533Y-34692D01*
X46533Y-34730D01*
X46342Y-34768D01*
X46761Y-34901D02*
X46723Y-34882D01*
X46704Y-34863D01*
X46685Y-34825D01*
X46685Y-34711D01*
X46704Y-34673D01*
X46723Y-34654D01*
X46761Y-34635D01*
X46819Y-34635D01*
X46857Y-34654D01*
X46876Y-34673D01*
X46895Y-34711D01*
X46895Y-34825D01*
X46876Y-34863D01*
X46857Y-34882D01*
X46819Y-34901D01*
X46761Y-34901D01*
X47371Y-34901D02*
X47371Y-34501D01*
X47561Y-34635D02*
X47561Y-34901D01*
X47561Y-34673D02*
X47580Y-34654D01*
X47619Y-34635D01*
X47676Y-34635D01*
X47714Y-34654D01*
X47733Y-34692D01*
X47733Y-34901D01*
X48095Y-34882D02*
X48057Y-34901D01*
X47980Y-34901D01*
X47942Y-34882D01*
X47923Y-34863D01*
X47904Y-34825D01*
X47904Y-34711D01*
X47923Y-34673D01*
X47942Y-34654D01*
X47980Y-34635D01*
X48057Y-34635D01*
X48095Y-34654D01*
X48266Y-34863D02*
X48285Y-34882D01*
X48266Y-34901D01*
X48247Y-34882D01*
X48266Y-34863D01*
X48266Y-34901D01*
X48723Y-34635D02*
X48800Y-34901D01*
X48876Y-34711D01*
X48952Y-34901D01*
X49028Y-34635D01*
X49142Y-34635D02*
X49219Y-34901D01*
X49295Y-34711D01*
X49371Y-34901D01*
X49447Y-34635D01*
X49561Y-34635D02*
X49638Y-34901D01*
X49714Y-34711D01*
X49790Y-34901D01*
X49866Y-34635D01*
X50019Y-34863D02*
X50038Y-34882D01*
X50019Y-34901D01*
X50000Y-34882D01*
X50019Y-34863D01*
X50019Y-34901D01*
X50209Y-34901D02*
X50209Y-34635D01*
X50209Y-34501D02*
X50190Y-34520D01*
X50209Y-34540D01*
X50228Y-34520D01*
X50209Y-34501D01*
X50209Y-34540D01*
X50457Y-34901D02*
X50419Y-34882D01*
X50400Y-34863D01*
X50380Y-34825D01*
X50380Y-34711D01*
X50400Y-34673D01*
X50419Y-34654D01*
X50457Y-34635D01*
X50514Y-34635D01*
X50552Y-34654D01*
X50571Y-34673D01*
X50590Y-34711D01*
X50590Y-34825D01*
X50571Y-34863D01*
X50552Y-34882D01*
X50514Y-34901D01*
X50457Y-34901D01*
X50761Y-34901D02*
X50761Y-34635D01*
X50761Y-34711D02*
X50780Y-34673D01*
X50800Y-34654D01*
X50838Y-34635D01*
X50876Y-34635D01*
X51066Y-34901D02*
X51028Y-34882D01*
X51009Y-34863D01*
X50990Y-34825D01*
X50990Y-34711D01*
X51009Y-34673D01*
X51028Y-34654D01*
X51066Y-34635D01*
X51123Y-34635D01*
X51161Y-34654D01*
X51180Y-34673D01*
X51200Y-34711D01*
X51200Y-34825D01*
X51180Y-34863D01*
X51161Y-34882D01*
X51123Y-34901D01*
X51066Y-34901D01*
X51542Y-34901D02*
X51542Y-34501D01*
X51542Y-34882D02*
X51504Y-34901D01*
X51428Y-34901D01*
X51390Y-34882D01*
X51371Y-34863D01*
X51352Y-34825D01*
X51352Y-34711D01*
X51371Y-34673D01*
X51390Y-34654D01*
X51428Y-34635D01*
X51504Y-34635D01*
X51542Y-34654D01*
X51885Y-34882D02*
X51847Y-34901D01*
X51771Y-34901D01*
X51733Y-34882D01*
X51714Y-34844D01*
X51714Y-34692D01*
X51733Y-34654D01*
X51771Y-34635D01*
X51847Y-34635D01*
X51885Y-34654D01*
X51904Y-34692D01*
X51904Y-34730D01*
X51714Y-34768D01*
X52133Y-34901D02*
X52095Y-34882D01*
X52076Y-34863D01*
X52057Y-34825D01*
X52057Y-34711D01*
X52076Y-34673D01*
X52095Y-34654D01*
X52133Y-34635D01*
X52190Y-34635D01*
X52228Y-34654D01*
X52247Y-34673D01*
X52266Y-34711D01*
X52266Y-34825D01*
X52247Y-34863D01*
X52228Y-34882D01*
X52190Y-34901D01*
X52133Y-34901D01*
X52438Y-34863D02*
X52457Y-34882D01*
X52438Y-34901D01*
X52419Y-34882D01*
X52438Y-34863D01*
X52438Y-34901D01*
X52800Y-34882D02*
X52761Y-34901D01*
X52685Y-34901D01*
X52647Y-34882D01*
X52628Y-34863D01*
X52609Y-34825D01*
X52609Y-34711D01*
X52628Y-34673D01*
X52647Y-34654D01*
X52685Y-34635D01*
X52761Y-34635D01*
X52800Y-34654D01*
X53028Y-34901D02*
X52990Y-34882D01*
X52971Y-34863D01*
X52952Y-34825D01*
X52952Y-34711D01*
X52971Y-34673D01*
X52990Y-34654D01*
X53028Y-34635D01*
X53085Y-34635D01*
X53123Y-34654D01*
X53142Y-34673D01*
X53161Y-34711D01*
X53161Y-34825D01*
X53142Y-34863D01*
X53123Y-34882D01*
X53085Y-34901D01*
X53028Y-34901D01*
X53333Y-34901D02*
X53333Y-34635D01*
X53333Y-34673D02*
X53352Y-34654D01*
X53390Y-34635D01*
X53447Y-34635D01*
X53485Y-34654D01*
X53504Y-34692D01*
X53504Y-34901D01*
X53504Y-34692D02*
X53523Y-34654D01*
X53561Y-34635D01*
X53619Y-34635D01*
X53657Y-34654D01*
X53676Y-34692D01*
X53676Y-34901D01*
X56945Y-40280D02*
X56907Y-40261D01*
X56850Y-40261D01*
X56792Y-40280D01*
X56754Y-40319D01*
X56735Y-40357D01*
X56716Y-40433D01*
X56716Y-40490D01*
X56735Y-40566D01*
X56754Y-40604D01*
X56792Y-40642D01*
X56850Y-40661D01*
X56888Y-40661D01*
X56945Y-40642D01*
X56964Y-40623D01*
X56964Y-40490D01*
X56888Y-40490D01*
X57135Y-40661D02*
X57135Y-40261D01*
X57364Y-40661D01*
X57364Y-40261D01*
X57554Y-40661D02*
X57554Y-40261D01*
X57650Y-40261D01*
X57707Y-40280D01*
X57745Y-40319D01*
X57764Y-40357D01*
X57783Y-40433D01*
X57783Y-40490D01*
X57764Y-40566D01*
X57745Y-40604D01*
X57707Y-40642D01*
X57650Y-40661D01*
X57554Y-40661D01*
X57071Y-41973D02*
X57052Y-41992D01*
X56995Y-42011D01*
X56957Y-42011D01*
X56900Y-41992D01*
X56861Y-41954D01*
X56842Y-41916D01*
X56823Y-41840D01*
X56823Y-41783D01*
X56842Y-41707D01*
X56861Y-41669D01*
X56900Y-41630D01*
X56957Y-41611D01*
X56995Y-41611D01*
X57052Y-41630D01*
X57071Y-41650D01*
X57185Y-41611D02*
X57414Y-41611D01*
X57300Y-42011D02*
X57300Y-41611D01*
X57776Y-42011D02*
X57642Y-41821D01*
X57547Y-42011D02*
X57547Y-41611D01*
X57700Y-41611D01*
X57738Y-41630D01*
X57757Y-41650D01*
X57776Y-41688D01*
X57776Y-41745D01*
X57757Y-41783D01*
X57738Y-41802D01*
X57700Y-41821D01*
X57547Y-41821D01*
X57021Y-43411D02*
X56888Y-43221D01*
X56792Y-43411D02*
X56792Y-43011D01*
X56945Y-43011D01*
X56983Y-43030D01*
X57002Y-43050D01*
X57021Y-43088D01*
X57021Y-43145D01*
X57002Y-43183D01*
X56983Y-43202D01*
X56945Y-43221D01*
X56792Y-43221D01*
X57192Y-43202D02*
X57326Y-43202D01*
X57383Y-43411D02*
X57192Y-43411D01*
X57192Y-43011D01*
X57383Y-43011D01*
X57688Y-43202D02*
X57554Y-43202D01*
X57554Y-43411D02*
X57554Y-43011D01*
X57745Y-43011D01*
X56288Y-54411D02*
X56383Y-54811D01*
X56459Y-54526D01*
X56535Y-54811D01*
X56630Y-54411D01*
X57011Y-54811D02*
X56878Y-54621D01*
X56783Y-54811D02*
X56783Y-54411D01*
X56935Y-54411D01*
X56973Y-54430D01*
X56992Y-54450D01*
X57011Y-54488D01*
X57011Y-54545D01*
X56992Y-54583D01*
X56973Y-54602D01*
X56935Y-54621D01*
X56783Y-54621D01*
X57183Y-54811D02*
X57183Y-54411D01*
X57411Y-54811D02*
X57240Y-54583D01*
X57411Y-54411D02*
X57183Y-54640D01*
X57545Y-54411D02*
X57811Y-54411D01*
X57640Y-54811D01*
X56288Y-53011D02*
X56383Y-53411D01*
X56459Y-53126D01*
X56535Y-53411D01*
X56630Y-53011D01*
X57011Y-53411D02*
X56878Y-53221D01*
X56783Y-53411D02*
X56783Y-53011D01*
X56935Y-53011D01*
X56973Y-53030D01*
X56992Y-53050D01*
X57011Y-53088D01*
X57011Y-53145D01*
X56992Y-53183D01*
X56973Y-53202D01*
X56935Y-53221D01*
X56783Y-53221D01*
X57183Y-53411D02*
X57183Y-53011D01*
X57411Y-53411D02*
X57240Y-53183D01*
X57411Y-53011D02*
X57183Y-53240D01*
X57754Y-53011D02*
X57678Y-53011D01*
X57640Y-53030D01*
X57621Y-53050D01*
X57583Y-53107D01*
X57564Y-53183D01*
X57564Y-53335D01*
X57583Y-53373D01*
X57602Y-53392D01*
X57640Y-53411D01*
X57716Y-53411D01*
X57754Y-53392D01*
X57773Y-53373D01*
X57792Y-53335D01*
X57792Y-53240D01*
X57773Y-53202D01*
X57754Y-53183D01*
X57716Y-53164D01*
X57640Y-53164D01*
X57602Y-53183D01*
X57583Y-53202D01*
X57564Y-53240D01*
X56288Y-51611D02*
X56383Y-52011D01*
X56459Y-51726D01*
X56535Y-52011D01*
X56630Y-51611D01*
X57011Y-52011D02*
X56878Y-51821D01*
X56783Y-52011D02*
X56783Y-51611D01*
X56935Y-51611D01*
X56973Y-51630D01*
X56992Y-51650D01*
X57011Y-51688D01*
X57011Y-51745D01*
X56992Y-51783D01*
X56973Y-51802D01*
X56935Y-51821D01*
X56783Y-51821D01*
X57183Y-52011D02*
X57183Y-51611D01*
X57411Y-52011D02*
X57240Y-51783D01*
X57411Y-51611D02*
X57183Y-51840D01*
X57773Y-51611D02*
X57583Y-51611D01*
X57564Y-51802D01*
X57583Y-51783D01*
X57621Y-51764D01*
X57716Y-51764D01*
X57754Y-51783D01*
X57773Y-51802D01*
X57792Y-51840D01*
X57792Y-51935D01*
X57773Y-51973D01*
X57754Y-51992D01*
X57716Y-52011D01*
X57621Y-52011D01*
X57583Y-51992D01*
X57564Y-51973D01*
X56288Y-50261D02*
X56383Y-50661D01*
X56459Y-50376D01*
X56535Y-50661D01*
X56630Y-50261D01*
X57011Y-50661D02*
X56878Y-50471D01*
X56783Y-50661D02*
X56783Y-50261D01*
X56935Y-50261D01*
X56973Y-50280D01*
X56992Y-50300D01*
X57011Y-50338D01*
X57011Y-50395D01*
X56992Y-50433D01*
X56973Y-50452D01*
X56935Y-50471D01*
X56783Y-50471D01*
X57183Y-50661D02*
X57183Y-50261D01*
X57411Y-50661D02*
X57240Y-50433D01*
X57411Y-50261D02*
X57183Y-50490D01*
X57754Y-50395D02*
X57754Y-50661D01*
X57659Y-50242D02*
X57564Y-50528D01*
X57811Y-50528D01*
X56288Y-48811D02*
X56383Y-49211D01*
X56459Y-48926D01*
X56535Y-49211D01*
X56630Y-48811D01*
X57011Y-49211D02*
X56878Y-49021D01*
X56783Y-49211D02*
X56783Y-48811D01*
X56935Y-48811D01*
X56973Y-48830D01*
X56992Y-48850D01*
X57011Y-48888D01*
X57011Y-48945D01*
X56992Y-48983D01*
X56973Y-49002D01*
X56935Y-49021D01*
X56783Y-49021D01*
X57183Y-49211D02*
X57183Y-48811D01*
X57411Y-49211D02*
X57240Y-48983D01*
X57411Y-48811D02*
X57183Y-49040D01*
X57545Y-48811D02*
X57792Y-48811D01*
X57659Y-48964D01*
X57716Y-48964D01*
X57754Y-48983D01*
X57773Y-49002D01*
X57792Y-49040D01*
X57792Y-49135D01*
X57773Y-49173D01*
X57754Y-49192D01*
X57716Y-49211D01*
X57602Y-49211D01*
X57564Y-49192D01*
X57545Y-49173D01*
X56238Y-47461D02*
X56333Y-47861D01*
X56409Y-47576D01*
X56485Y-47861D01*
X56580Y-47461D01*
X56961Y-47861D02*
X56828Y-47671D01*
X56733Y-47861D02*
X56733Y-47461D01*
X56885Y-47461D01*
X56923Y-47480D01*
X56942Y-47500D01*
X56961Y-47538D01*
X56961Y-47595D01*
X56942Y-47633D01*
X56923Y-47652D01*
X56885Y-47671D01*
X56733Y-47671D01*
X57133Y-47861D02*
X57133Y-47461D01*
X57361Y-47861D02*
X57190Y-47633D01*
X57361Y-47461D02*
X57133Y-47690D01*
X57514Y-47500D02*
X57533Y-47480D01*
X57571Y-47461D01*
X57666Y-47461D01*
X57704Y-47480D01*
X57723Y-47500D01*
X57742Y-47538D01*
X57742Y-47576D01*
X57723Y-47633D01*
X57495Y-47861D01*
X57742Y-47861D01*
X56338Y-46061D02*
X56433Y-46461D01*
X56509Y-46176D01*
X56585Y-46461D01*
X56680Y-46061D01*
X57061Y-46461D02*
X56928Y-46271D01*
X56833Y-46461D02*
X56833Y-46061D01*
X56985Y-46061D01*
X57023Y-46080D01*
X57042Y-46100D01*
X57061Y-46138D01*
X57061Y-46195D01*
X57042Y-46233D01*
X57023Y-46252D01*
X56985Y-46271D01*
X56833Y-46271D01*
X57233Y-46461D02*
X57233Y-46061D01*
X57461Y-46461D02*
X57290Y-46233D01*
X57461Y-46061D02*
X57233Y-46290D01*
X57842Y-46461D02*
X57614Y-46461D01*
X57728Y-46461D02*
X57728Y-46061D01*
X57690Y-46119D01*
X57652Y-46157D01*
X57614Y-46176D01*
X46861Y-59761D02*
X46861Y-60085D01*
X46880Y-60123D01*
X46900Y-60142D01*
X46938Y-60161D01*
X47014Y-60161D01*
X47052Y-60142D01*
X47071Y-60123D01*
X47090Y-60085D01*
X47090Y-59761D01*
X47280Y-59952D02*
X47414Y-59952D01*
X47471Y-60161D02*
X47280Y-60161D01*
X47280Y-59761D01*
X47471Y-59761D01*
X47604Y-59761D02*
X47871Y-60161D01*
X47871Y-59761D02*
X47604Y-60161D01*
X47966Y-59761D02*
X48195Y-59761D01*
X48080Y-60161D02*
X48080Y-59761D01*
X36890Y-60161D02*
X36890Y-59761D01*
X36985Y-59761D01*
X37042Y-59780D01*
X37080Y-59819D01*
X37100Y-59857D01*
X37119Y-59933D01*
X37119Y-59990D01*
X37100Y-60066D01*
X37080Y-60104D01*
X37042Y-60142D01*
X36985Y-60161D01*
X36890Y-60161D01*
X37290Y-60161D02*
X37290Y-59761D01*
X37557Y-59761D02*
X37633Y-59761D01*
X37671Y-59780D01*
X37709Y-59819D01*
X37728Y-59895D01*
X37728Y-60028D01*
X37709Y-60104D01*
X37671Y-60142D01*
X37633Y-60161D01*
X37557Y-60161D01*
X37519Y-60142D01*
X37480Y-60104D01*
X37461Y-60028D01*
X37461Y-59895D01*
X37480Y-59819D01*
X37519Y-59780D01*
X37557Y-59761D01*
X34728Y-57161D02*
X34823Y-57561D01*
X34900Y-57276D01*
X34976Y-57561D01*
X35071Y-57161D01*
X35452Y-57561D02*
X35319Y-57371D01*
X35223Y-57561D02*
X35223Y-57161D01*
X35376Y-57161D01*
X35414Y-57180D01*
X35433Y-57200D01*
X35452Y-57238D01*
X35452Y-57295D01*
X35433Y-57333D01*
X35414Y-57352D01*
X35376Y-57371D01*
X35223Y-57371D01*
X35623Y-57561D02*
X35623Y-57161D01*
X35852Y-57561D02*
X35680Y-57333D01*
X35852Y-57161D02*
X35623Y-57390D01*
X34971Y-56561D02*
X34838Y-56371D01*
X34742Y-56561D02*
X34742Y-56161D01*
X34895Y-56161D01*
X34933Y-56180D01*
X34952Y-56200D01*
X34971Y-56238D01*
X34971Y-56295D01*
X34952Y-56333D01*
X34933Y-56352D01*
X34895Y-56371D01*
X34742Y-56371D01*
X35142Y-56352D02*
X35276Y-56352D01*
X35333Y-56561D02*
X35142Y-56561D01*
X35142Y-56161D01*
X35333Y-56161D01*
X35638Y-56352D02*
X35504Y-56352D01*
X35504Y-56561D02*
X35504Y-56161D01*
X35695Y-56161D01*
X34971Y-55523D02*
X34952Y-55542D01*
X34895Y-55561D01*
X34857Y-55561D01*
X34800Y-55542D01*
X34761Y-55504D01*
X34742Y-55466D01*
X34723Y-55390D01*
X34723Y-55333D01*
X34742Y-55257D01*
X34761Y-55219D01*
X34800Y-55180D01*
X34857Y-55161D01*
X34895Y-55161D01*
X34952Y-55180D01*
X34971Y-55200D01*
X35085Y-55161D02*
X35314Y-55161D01*
X35200Y-55561D02*
X35200Y-55161D01*
X35676Y-55561D02*
X35542Y-55371D01*
X35447Y-55561D02*
X35447Y-55161D01*
X35600Y-55161D01*
X35638Y-55180D01*
X35657Y-55200D01*
X35676Y-55238D01*
X35676Y-55295D01*
X35657Y-55333D01*
X35638Y-55352D01*
X35600Y-55371D01*
X35447Y-55371D01*
X41695Y-33009D02*
X42000Y-33009D01*
X41847Y-33161D02*
X41847Y-32857D01*
X42400Y-33161D02*
X42171Y-33161D01*
X42285Y-33161D02*
X42285Y-32761D01*
X42247Y-32819D01*
X42209Y-32857D01*
X42171Y-32876D01*
X42761Y-32761D02*
X42571Y-32761D01*
X42552Y-32952D01*
X42571Y-32933D01*
X42609Y-32914D01*
X42704Y-32914D01*
X42742Y-32933D01*
X42761Y-32952D01*
X42780Y-32990D01*
X42780Y-33085D01*
X42761Y-33123D01*
X42742Y-33142D01*
X42704Y-33161D01*
X42609Y-33161D01*
X42571Y-33142D01*
X42552Y-33123D01*
X42895Y-32761D02*
X43028Y-33161D01*
X43161Y-32761D01*
X38095Y-33009D02*
X38400Y-33009D01*
X38800Y-33161D02*
X38571Y-33161D01*
X38685Y-33161D02*
X38685Y-32761D01*
X38647Y-32819D01*
X38609Y-32857D01*
X38571Y-32876D01*
X39161Y-32761D02*
X38971Y-32761D01*
X38952Y-32952D01*
X38971Y-32933D01*
X39009Y-32914D01*
X39104Y-32914D01*
X39142Y-32933D01*
X39161Y-32952D01*
X39180Y-32990D01*
X39180Y-33085D01*
X39161Y-33123D01*
X39142Y-33142D01*
X39104Y-33161D01*
X39009Y-33161D01*
X38971Y-33142D01*
X38952Y-33123D01*
X39295Y-32761D02*
X39428Y-33161D01*
X39561Y-32761D01*
G54D12*
X30150Y-54850D02*
X33350Y-54850D01*
X30150Y-57850D02*
X30150Y-54850D01*
X33350Y-57850D02*
X30150Y-57850D01*
X33350Y-56350D02*
X33350Y-57850D01*
X33350Y-56350D02*
X33350Y-54850D01*
G54D13*
X53750Y-52050D02*
G75*
G03X53750Y-52050I-50J0D01*
G74*
G01*
X53700Y-52500D02*
X53700Y-52100D01*
X53700Y-52100D02*
X54300Y-52100D01*
X54300Y-52100D02*
X54300Y-52500D01*
X54300Y-52900D02*
X54300Y-53300D01*
X54300Y-53300D02*
X53700Y-53300D01*
X53700Y-53300D02*
X53700Y-52900D01*
X47950Y-53350D02*
G75*
G03X47950Y-53350I-50J0D01*
G74*
G01*
X47900Y-52900D02*
X47900Y-53300D01*
X47900Y-53300D02*
X47300Y-53300D01*
X47300Y-53300D02*
X47300Y-52900D01*
X47300Y-52500D02*
X47300Y-52100D01*
X47300Y-52100D02*
X47900Y-52100D01*
X47900Y-52100D02*
X47900Y-52500D01*
X53750Y-40450D02*
G75*
G03X53750Y-40450I-50J0D01*
G74*
G01*
X53700Y-40900D02*
X53700Y-40500D01*
X53700Y-40500D02*
X54300Y-40500D01*
X54300Y-40500D02*
X54300Y-40900D01*
X54300Y-41300D02*
X54300Y-41700D01*
X54300Y-41700D02*
X53700Y-41700D01*
X53700Y-41700D02*
X53700Y-41300D01*
X47950Y-41750D02*
G75*
G03X47950Y-41750I-50J0D01*
G74*
G01*
X47900Y-41300D02*
X47900Y-41700D01*
X47900Y-41700D02*
X47300Y-41700D01*
X47300Y-41700D02*
X47300Y-41300D01*
X47300Y-40900D02*
X47300Y-40500D01*
X47300Y-40500D02*
X47900Y-40500D01*
X47900Y-40500D02*
X47900Y-40900D01*
X44950Y-52050D02*
G75*
G03X44950Y-52050I-50J0D01*
G74*
G01*
X44900Y-52500D02*
X44900Y-52100D01*
X44900Y-52100D02*
X45500Y-52100D01*
X45500Y-52100D02*
X45500Y-52500D01*
X45500Y-52900D02*
X45500Y-53300D01*
X45500Y-53300D02*
X44900Y-53300D01*
X44900Y-53300D02*
X44900Y-52900D01*
X39150Y-53350D02*
G75*
G03X39150Y-53350I-50J0D01*
G74*
G01*
X39100Y-52900D02*
X39100Y-53300D01*
X39100Y-53300D02*
X38500Y-53300D01*
X38500Y-53300D02*
X38500Y-52900D01*
X38500Y-52500D02*
X38500Y-52100D01*
X38500Y-52100D02*
X39100Y-52100D01*
X39100Y-52100D02*
X39100Y-52500D01*
X45050Y-40450D02*
G75*
G03X45050Y-40450I-50J0D01*
G74*
G01*
X45000Y-40900D02*
X45000Y-40500D01*
X45000Y-40500D02*
X45600Y-40500D01*
X45600Y-40500D02*
X45600Y-40900D01*
X45600Y-41300D02*
X45600Y-41700D01*
X45600Y-41700D02*
X45000Y-41700D01*
X45000Y-41700D02*
X45000Y-41300D01*
X39150Y-41750D02*
G75*
G03X39150Y-41750I-50J0D01*
G74*
G01*
X39100Y-41300D02*
X39100Y-41700D01*
X39100Y-41700D02*
X38500Y-41700D01*
X38500Y-41700D02*
X38500Y-41300D01*
X38500Y-40900D02*
X38500Y-40500D01*
X38500Y-40500D02*
X39100Y-40500D01*
X39100Y-40500D02*
X39100Y-40900D01*
G54D14*
X33480Y-54850D02*
X34480Y-54850D01*
X34480Y-54850D02*
X34480Y-57850D01*
X34480Y-57850D02*
X33480Y-57850D01*
X33480Y-57850D02*
X33480Y-54850D01*
X34480Y-55850D02*
X33480Y-55850D01*
X38500Y-30500D02*
X39500Y-30500D01*
X39500Y-30500D02*
X39500Y-32500D01*
X39500Y-32500D02*
X38500Y-32500D01*
X38500Y-32500D02*
X38500Y-30500D01*
X42000Y-30500D02*
X43000Y-30500D01*
X43000Y-30500D02*
X43000Y-32500D01*
X43000Y-32500D02*
X42000Y-32500D01*
X42000Y-32500D02*
X42000Y-30500D01*
G54D15*
X60838Y-50450D02*
X60838Y-45410D01*
X60838Y-45410D02*
X58161Y-45410D01*
X58161Y-45410D02*
X58161Y-55489D01*
X58161Y-55489D02*
X60838Y-55489D01*
X60838Y-55489D02*
X60838Y-50450D01*
X60839Y-39517D02*
X58161Y-39517D01*
X58161Y-39517D02*
X58161Y-44083D01*
X58161Y-44083D02*
X60839Y-44083D01*
X60839Y-44083D02*
X60839Y-39517D01*
X41400Y-64400D02*
X33400Y-64400D01*
X33400Y-64400D02*
X33400Y-60600D01*
X33400Y-60600D02*
X41400Y-60600D01*
X41400Y-60600D02*
X41400Y-64400D01*
X40117Y-59626D02*
X38935Y-59626D01*
X39512Y-60339D02*
X40112Y-59639D01*
X38912Y-59640D02*
X39512Y-60340D01*
X51600Y-64400D02*
X43600Y-64400D01*
X43600Y-64400D02*
X43600Y-60600D01*
X43600Y-60600D02*
X51600Y-60600D01*
X51600Y-60600D02*
X51600Y-64400D01*
X50317Y-59626D02*
X49135Y-59626D01*
X49712Y-60339D02*
X50312Y-59639D01*
X49112Y-59640D02*
X49712Y-60340D01*
G54D10*
X50000Y-50435D02*
X50000Y-54770D01*
X51400Y-50435D02*
X51400Y-54770D01*
G54D12*
X50542Y-50801D02*
G75*
G03X50542Y-50801I-196J0D01*
G74*
G01*
X51388Y-50434D02*
X50011Y-50434D01*
X50011Y-54765D02*
X51388Y-54765D01*
G54D10*
X50000Y-38835D02*
X50000Y-43170D01*
X51400Y-38835D02*
X51400Y-43170D01*
G54D12*
X50542Y-39201D02*
G75*
G03X50542Y-39201I-196J0D01*
G74*
G01*
X51388Y-38834D02*
X50011Y-38834D01*
X50011Y-43165D02*
X51388Y-43165D01*
G54D10*
X41300Y-50435D02*
X41300Y-54770D01*
X42700Y-50435D02*
X42700Y-54770D01*
G54D12*
X41842Y-50801D02*
G75*
G03X41842Y-50801I-196J0D01*
G74*
G01*
X42688Y-50434D02*
X41311Y-50434D01*
X41311Y-54765D02*
X42688Y-54765D01*
G54D10*
X41300Y-38835D02*
X41300Y-43170D01*
X42700Y-38835D02*
X42700Y-43170D01*
G54D12*
X41842Y-39201D02*
G75*
G03X41842Y-39201I-196J0D01*
G74*
G01*
X42688Y-38834D02*
X41311Y-38834D01*
X41311Y-43165D02*
X42688Y-43165D01*
G54D16*
X54727Y-52741D02*
X54739Y-52753D01*
X54751Y-52789D01*
X54751Y-52813D01*
X54739Y-52848D01*
X54715Y-52872D01*
X54691Y-52884D01*
X54644Y-52896D01*
X54608Y-52896D01*
X54560Y-52884D01*
X54536Y-52872D01*
X54513Y-52848D01*
X54501Y-52813D01*
X54501Y-52789D01*
X54513Y-52753D01*
X54525Y-52741D01*
X54608Y-52598D02*
X54596Y-52622D01*
X54584Y-52634D01*
X54560Y-52646D01*
X54548Y-52646D01*
X54525Y-52634D01*
X54513Y-52622D01*
X54501Y-52598D01*
X54501Y-52551D01*
X54513Y-52527D01*
X54525Y-52515D01*
X54548Y-52503D01*
X54560Y-52503D01*
X54584Y-52515D01*
X54596Y-52527D01*
X54608Y-52551D01*
X54608Y-52598D01*
X54620Y-52622D01*
X54632Y-52634D01*
X54655Y-52646D01*
X54703Y-52646D01*
X54727Y-52634D01*
X54739Y-52622D01*
X54751Y-52598D01*
X54751Y-52551D01*
X54739Y-52527D01*
X54727Y-52515D01*
X54703Y-52503D01*
X54655Y-52503D01*
X54632Y-52515D01*
X54620Y-52527D01*
X54608Y-52551D01*
X53251Y-53110D02*
X53251Y-53086D01*
X53263Y-53063D01*
X53275Y-53051D01*
X53298Y-53039D01*
X53346Y-53027D01*
X53405Y-53027D01*
X53453Y-53039D01*
X53477Y-53051D01*
X53489Y-53063D01*
X53501Y-53086D01*
X53501Y-53110D01*
X53489Y-53134D01*
X53477Y-53146D01*
X53453Y-53158D01*
X53405Y-53170D01*
X53346Y-53170D01*
X53298Y-53158D01*
X53275Y-53146D01*
X53263Y-53134D01*
X53251Y-53110D01*
X53477Y-52920D02*
X53489Y-52908D01*
X53501Y-52920D01*
X53489Y-52932D01*
X53477Y-52920D01*
X53501Y-52920D01*
X53501Y-52670D02*
X53501Y-52813D01*
X53501Y-52741D02*
X53251Y-52741D01*
X53286Y-52765D01*
X53310Y-52789D01*
X53322Y-52813D01*
X53334Y-52455D02*
X53501Y-52455D01*
X53334Y-52563D02*
X53465Y-52563D01*
X53489Y-52551D01*
X53501Y-52527D01*
X53501Y-52491D01*
X53489Y-52467D01*
X53477Y-52455D01*
X53370Y-52253D02*
X53370Y-52336D01*
X53501Y-52336D02*
X53251Y-52336D01*
X53251Y-52217D01*
X47077Y-52741D02*
X47089Y-52753D01*
X47101Y-52789D01*
X47101Y-52813D01*
X47089Y-52848D01*
X47065Y-52872D01*
X47041Y-52884D01*
X46994Y-52896D01*
X46958Y-52896D01*
X46910Y-52884D01*
X46886Y-52872D01*
X46863Y-52848D01*
X46851Y-52813D01*
X46851Y-52789D01*
X46863Y-52753D01*
X46875Y-52741D01*
X46851Y-52527D02*
X46851Y-52575D01*
X46863Y-52598D01*
X46875Y-52610D01*
X46910Y-52634D01*
X46958Y-52646D01*
X47053Y-52646D01*
X47077Y-52634D01*
X47089Y-52622D01*
X47101Y-52598D01*
X47101Y-52551D01*
X47089Y-52527D01*
X47077Y-52515D01*
X47053Y-52503D01*
X46994Y-52503D01*
X46970Y-52515D01*
X46958Y-52527D01*
X46946Y-52551D01*
X46946Y-52598D01*
X46958Y-52622D01*
X46970Y-52634D01*
X46994Y-52646D01*
X48101Y-53110D02*
X48101Y-53086D01*
X48113Y-53063D01*
X48125Y-53051D01*
X48148Y-53039D01*
X48196Y-53027D01*
X48255Y-53027D01*
X48303Y-53039D01*
X48327Y-53051D01*
X48339Y-53063D01*
X48351Y-53086D01*
X48351Y-53110D01*
X48339Y-53134D01*
X48327Y-53146D01*
X48303Y-53158D01*
X48255Y-53170D01*
X48196Y-53170D01*
X48148Y-53158D01*
X48125Y-53146D01*
X48113Y-53134D01*
X48101Y-53110D01*
X48327Y-52920D02*
X48339Y-52908D01*
X48351Y-52920D01*
X48339Y-52932D01*
X48327Y-52920D01*
X48351Y-52920D01*
X48351Y-52670D02*
X48351Y-52813D01*
X48351Y-52741D02*
X48101Y-52741D01*
X48136Y-52765D01*
X48160Y-52789D01*
X48172Y-52813D01*
X48184Y-52455D02*
X48351Y-52455D01*
X48184Y-52563D02*
X48315Y-52563D01*
X48339Y-52551D01*
X48351Y-52527D01*
X48351Y-52491D01*
X48339Y-52467D01*
X48327Y-52455D01*
X48220Y-52253D02*
X48220Y-52336D01*
X48351Y-52336D02*
X48101Y-52336D01*
X48101Y-52217D01*
X54727Y-41141D02*
X54739Y-41153D01*
X54751Y-41189D01*
X54751Y-41213D01*
X54739Y-41248D01*
X54715Y-41272D01*
X54691Y-41284D01*
X54644Y-41296D01*
X54608Y-41296D01*
X54560Y-41284D01*
X54536Y-41272D01*
X54513Y-41248D01*
X54501Y-41213D01*
X54501Y-41189D01*
X54513Y-41153D01*
X54525Y-41141D01*
X54501Y-41058D02*
X54501Y-40891D01*
X54751Y-40998D01*
X53251Y-41510D02*
X53251Y-41486D01*
X53263Y-41463D01*
X53275Y-41451D01*
X53298Y-41439D01*
X53346Y-41427D01*
X53405Y-41427D01*
X53453Y-41439D01*
X53477Y-41451D01*
X53489Y-41463D01*
X53501Y-41486D01*
X53501Y-41510D01*
X53489Y-41534D01*
X53477Y-41546D01*
X53453Y-41558D01*
X53405Y-41570D01*
X53346Y-41570D01*
X53298Y-41558D01*
X53275Y-41546D01*
X53263Y-41534D01*
X53251Y-41510D01*
X53477Y-41320D02*
X53489Y-41308D01*
X53501Y-41320D01*
X53489Y-41332D01*
X53477Y-41320D01*
X53501Y-41320D01*
X53501Y-41070D02*
X53501Y-41213D01*
X53501Y-41141D02*
X53251Y-41141D01*
X53286Y-41165D01*
X53310Y-41189D01*
X53322Y-41213D01*
X53334Y-40855D02*
X53501Y-40855D01*
X53334Y-40963D02*
X53465Y-40963D01*
X53489Y-40951D01*
X53501Y-40927D01*
X53501Y-40891D01*
X53489Y-40867D01*
X53477Y-40855D01*
X53370Y-40653D02*
X53370Y-40736D01*
X53501Y-40736D02*
X53251Y-40736D01*
X53251Y-40617D01*
X47127Y-41141D02*
X47139Y-41153D01*
X47151Y-41189D01*
X47151Y-41213D01*
X47139Y-41248D01*
X47115Y-41272D01*
X47091Y-41284D01*
X47044Y-41296D01*
X47008Y-41296D01*
X46960Y-41284D01*
X46936Y-41272D01*
X46913Y-41248D01*
X46901Y-41213D01*
X46901Y-41189D01*
X46913Y-41153D01*
X46925Y-41141D01*
X46901Y-40915D02*
X46901Y-41034D01*
X47020Y-41046D01*
X47008Y-41034D01*
X46996Y-41010D01*
X46996Y-40951D01*
X47008Y-40927D01*
X47020Y-40915D01*
X47044Y-40903D01*
X47103Y-40903D01*
X47127Y-40915D01*
X47139Y-40927D01*
X47151Y-40951D01*
X47151Y-41010D01*
X47139Y-41034D01*
X47127Y-41046D01*
X48051Y-41510D02*
X48051Y-41486D01*
X48063Y-41463D01*
X48075Y-41451D01*
X48098Y-41439D01*
X48146Y-41427D01*
X48205Y-41427D01*
X48253Y-41439D01*
X48277Y-41451D01*
X48289Y-41463D01*
X48301Y-41486D01*
X48301Y-41510D01*
X48289Y-41534D01*
X48277Y-41546D01*
X48253Y-41558D01*
X48205Y-41570D01*
X48146Y-41570D01*
X48098Y-41558D01*
X48075Y-41546D01*
X48063Y-41534D01*
X48051Y-41510D01*
X48277Y-41320D02*
X48289Y-41308D01*
X48301Y-41320D01*
X48289Y-41332D01*
X48277Y-41320D01*
X48301Y-41320D01*
X48301Y-41070D02*
X48301Y-41213D01*
X48301Y-41141D02*
X48051Y-41141D01*
X48086Y-41165D01*
X48110Y-41189D01*
X48122Y-41213D01*
X48134Y-40855D02*
X48301Y-40855D01*
X48134Y-40963D02*
X48265Y-40963D01*
X48289Y-40951D01*
X48301Y-40927D01*
X48301Y-40891D01*
X48289Y-40867D01*
X48277Y-40855D01*
X48170Y-40653D02*
X48170Y-40736D01*
X48301Y-40736D02*
X48051Y-40736D01*
X48051Y-40617D01*
X45927Y-52741D02*
X45939Y-52753D01*
X45951Y-52789D01*
X45951Y-52813D01*
X45939Y-52848D01*
X45915Y-52872D01*
X45891Y-52884D01*
X45844Y-52896D01*
X45808Y-52896D01*
X45760Y-52884D01*
X45736Y-52872D01*
X45713Y-52848D01*
X45701Y-52813D01*
X45701Y-52789D01*
X45713Y-52753D01*
X45725Y-52741D01*
X45784Y-52527D02*
X45951Y-52527D01*
X45689Y-52586D02*
X45867Y-52646D01*
X45867Y-52491D01*
X44451Y-53110D02*
X44451Y-53086D01*
X44463Y-53063D01*
X44475Y-53051D01*
X44498Y-53039D01*
X44546Y-53027D01*
X44605Y-53027D01*
X44653Y-53039D01*
X44677Y-53051D01*
X44689Y-53063D01*
X44701Y-53086D01*
X44701Y-53110D01*
X44689Y-53134D01*
X44677Y-53146D01*
X44653Y-53158D01*
X44605Y-53170D01*
X44546Y-53170D01*
X44498Y-53158D01*
X44475Y-53146D01*
X44463Y-53134D01*
X44451Y-53110D01*
X44677Y-52920D02*
X44689Y-52908D01*
X44701Y-52920D01*
X44689Y-52932D01*
X44677Y-52920D01*
X44701Y-52920D01*
X44701Y-52670D02*
X44701Y-52813D01*
X44701Y-52741D02*
X44451Y-52741D01*
X44486Y-52765D01*
X44510Y-52789D01*
X44522Y-52813D01*
X44534Y-52455D02*
X44701Y-52455D01*
X44534Y-52563D02*
X44665Y-52563D01*
X44689Y-52551D01*
X44701Y-52527D01*
X44701Y-52491D01*
X44689Y-52467D01*
X44677Y-52455D01*
X44570Y-52253D02*
X44570Y-52336D01*
X44701Y-52336D02*
X44451Y-52336D01*
X44451Y-52217D01*
X38277Y-52741D02*
X38289Y-52753D01*
X38301Y-52789D01*
X38301Y-52813D01*
X38289Y-52848D01*
X38265Y-52872D01*
X38241Y-52884D01*
X38194Y-52896D01*
X38158Y-52896D01*
X38110Y-52884D01*
X38086Y-52872D01*
X38063Y-52848D01*
X38051Y-52813D01*
X38051Y-52789D01*
X38063Y-52753D01*
X38075Y-52741D01*
X38075Y-52646D02*
X38063Y-52634D01*
X38051Y-52610D01*
X38051Y-52551D01*
X38063Y-52527D01*
X38075Y-52515D01*
X38098Y-52503D01*
X38122Y-52503D01*
X38158Y-52515D01*
X38301Y-52658D01*
X38301Y-52503D01*
X39301Y-53110D02*
X39301Y-53086D01*
X39313Y-53063D01*
X39325Y-53051D01*
X39348Y-53039D01*
X39396Y-53027D01*
X39455Y-53027D01*
X39503Y-53039D01*
X39527Y-53051D01*
X39539Y-53063D01*
X39551Y-53086D01*
X39551Y-53110D01*
X39539Y-53134D01*
X39527Y-53146D01*
X39503Y-53158D01*
X39455Y-53170D01*
X39396Y-53170D01*
X39348Y-53158D01*
X39325Y-53146D01*
X39313Y-53134D01*
X39301Y-53110D01*
X39527Y-52920D02*
X39539Y-52908D01*
X39551Y-52920D01*
X39539Y-52932D01*
X39527Y-52920D01*
X39551Y-52920D01*
X39551Y-52670D02*
X39551Y-52813D01*
X39551Y-52741D02*
X39301Y-52741D01*
X39336Y-52765D01*
X39360Y-52789D01*
X39372Y-52813D01*
X39384Y-52455D02*
X39551Y-52455D01*
X39384Y-52563D02*
X39515Y-52563D01*
X39539Y-52551D01*
X39551Y-52527D01*
X39551Y-52491D01*
X39539Y-52467D01*
X39527Y-52455D01*
X39420Y-52253D02*
X39420Y-52336D01*
X39551Y-52336D02*
X39301Y-52336D01*
X39301Y-52217D01*
X45977Y-41141D02*
X45989Y-41153D01*
X46001Y-41189D01*
X46001Y-41213D01*
X45989Y-41248D01*
X45965Y-41272D01*
X45941Y-41284D01*
X45894Y-41296D01*
X45858Y-41296D01*
X45810Y-41284D01*
X45786Y-41272D01*
X45763Y-41248D01*
X45751Y-41213D01*
X45751Y-41189D01*
X45763Y-41153D01*
X45775Y-41141D01*
X45751Y-41058D02*
X45751Y-40903D01*
X45846Y-40986D01*
X45846Y-40951D01*
X45858Y-40927D01*
X45870Y-40915D01*
X45894Y-40903D01*
X45953Y-40903D01*
X45977Y-40915D01*
X45989Y-40927D01*
X46001Y-40951D01*
X46001Y-41022D01*
X45989Y-41046D01*
X45977Y-41058D01*
X44551Y-41510D02*
X44551Y-41486D01*
X44563Y-41463D01*
X44575Y-41451D01*
X44598Y-41439D01*
X44646Y-41427D01*
X44705Y-41427D01*
X44753Y-41439D01*
X44777Y-41451D01*
X44789Y-41463D01*
X44801Y-41486D01*
X44801Y-41510D01*
X44789Y-41534D01*
X44777Y-41546D01*
X44753Y-41558D01*
X44705Y-41570D01*
X44646Y-41570D01*
X44598Y-41558D01*
X44575Y-41546D01*
X44563Y-41534D01*
X44551Y-41510D01*
X44777Y-41320D02*
X44789Y-41308D01*
X44801Y-41320D01*
X44789Y-41332D01*
X44777Y-41320D01*
X44801Y-41320D01*
X44801Y-41070D02*
X44801Y-41213D01*
X44801Y-41141D02*
X44551Y-41141D01*
X44586Y-41165D01*
X44610Y-41189D01*
X44622Y-41213D01*
X44634Y-40855D02*
X44801Y-40855D01*
X44634Y-40963D02*
X44765Y-40963D01*
X44789Y-40951D01*
X44801Y-40927D01*
X44801Y-40891D01*
X44789Y-40867D01*
X44777Y-40855D01*
X44670Y-40653D02*
X44670Y-40736D01*
X44801Y-40736D02*
X44551Y-40736D01*
X44551Y-40617D01*
X38277Y-41141D02*
X38289Y-41153D01*
X38301Y-41189D01*
X38301Y-41213D01*
X38289Y-41248D01*
X38265Y-41272D01*
X38241Y-41284D01*
X38194Y-41296D01*
X38158Y-41296D01*
X38110Y-41284D01*
X38086Y-41272D01*
X38063Y-41248D01*
X38051Y-41213D01*
X38051Y-41189D01*
X38063Y-41153D01*
X38075Y-41141D01*
X38301Y-40903D02*
X38301Y-41046D01*
X38301Y-40975D02*
X38051Y-40975D01*
X38086Y-40998D01*
X38110Y-41022D01*
X38122Y-41046D01*
X39251Y-41510D02*
X39251Y-41486D01*
X39263Y-41463D01*
X39275Y-41451D01*
X39298Y-41439D01*
X39346Y-41427D01*
X39405Y-41427D01*
X39453Y-41439D01*
X39477Y-41451D01*
X39489Y-41463D01*
X39501Y-41486D01*
X39501Y-41510D01*
X39489Y-41534D01*
X39477Y-41546D01*
X39453Y-41558D01*
X39405Y-41570D01*
X39346Y-41570D01*
X39298Y-41558D01*
X39275Y-41546D01*
X39263Y-41534D01*
X39251Y-41510D01*
X39477Y-41320D02*
X39489Y-41308D01*
X39501Y-41320D01*
X39489Y-41332D01*
X39477Y-41320D01*
X39501Y-41320D01*
X39501Y-41070D02*
X39501Y-41213D01*
X39501Y-41141D02*
X39251Y-41141D01*
X39286Y-41165D01*
X39310Y-41189D01*
X39322Y-41213D01*
X39334Y-40855D02*
X39501Y-40855D01*
X39334Y-40963D02*
X39465Y-40963D01*
X39489Y-40951D01*
X39501Y-40927D01*
X39501Y-40891D01*
X39489Y-40867D01*
X39477Y-40855D01*
X39370Y-40653D02*
X39370Y-40736D01*
X39501Y-40736D02*
X39251Y-40736D01*
X39251Y-40617D01*
G54D11*
X34061Y-54595D02*
X33661Y-54595D01*
X34061Y-54366D02*
X33833Y-54538D01*
X33661Y-54366D02*
X33890Y-54595D01*
X34061Y-53985D02*
X34061Y-54214D01*
X34061Y-54099D02*
X33661Y-54099D01*
X33719Y-54138D01*
X33757Y-54176D01*
X33776Y-54214D01*
X40061Y-31795D02*
X39661Y-31795D01*
X39661Y-31642D01*
X39680Y-31604D01*
X39700Y-31585D01*
X39738Y-31566D01*
X39795Y-31566D01*
X39833Y-31585D01*
X39852Y-31604D01*
X39871Y-31642D01*
X39871Y-31795D01*
X39795Y-31223D02*
X40061Y-31223D01*
X39642Y-31319D02*
X39928Y-31414D01*
X39928Y-31166D01*
X43511Y-31795D02*
X43111Y-31795D01*
X43111Y-31642D01*
X43130Y-31604D01*
X43150Y-31585D01*
X43188Y-31566D01*
X43245Y-31566D01*
X43283Y-31585D01*
X43302Y-31604D01*
X43321Y-31642D01*
X43321Y-31795D01*
X43111Y-31433D02*
X43111Y-31185D01*
X43264Y-31319D01*
X43264Y-31261D01*
X43283Y-31223D01*
X43302Y-31204D01*
X43340Y-31185D01*
X43435Y-31185D01*
X43473Y-31204D01*
X43492Y-31223D01*
X43511Y-31261D01*
X43511Y-31376D01*
X43492Y-31414D01*
X43473Y-31433D01*
X59661Y-56345D02*
X59261Y-56345D01*
X59261Y-56192D01*
X59280Y-56154D01*
X59300Y-56135D01*
X59338Y-56116D01*
X59395Y-56116D01*
X59433Y-56135D01*
X59452Y-56154D01*
X59471Y-56192D01*
X59471Y-56345D01*
X59261Y-55754D02*
X59261Y-55945D01*
X59452Y-55964D01*
X59433Y-55945D01*
X59414Y-55907D01*
X59414Y-55811D01*
X59433Y-55773D01*
X59452Y-55754D01*
X59490Y-55735D01*
X59585Y-55735D01*
X59623Y-55754D01*
X59642Y-55773D01*
X59661Y-55811D01*
X59661Y-55907D01*
X59642Y-55945D01*
X59623Y-55964D01*
X59661Y-39295D02*
X59261Y-39295D01*
X59661Y-39066D02*
X59433Y-39238D01*
X59261Y-39066D02*
X59490Y-39295D01*
X59300Y-38914D02*
X59280Y-38895D01*
X59261Y-38857D01*
X59261Y-38761D01*
X59280Y-38723D01*
X59300Y-38704D01*
X59338Y-38685D01*
X59376Y-38685D01*
X59433Y-38704D01*
X59661Y-38933D01*
X59661Y-38685D01*
X32604Y-61061D02*
X32604Y-60661D01*
X32757Y-60661D01*
X32795Y-60680D01*
X32814Y-60700D01*
X32833Y-60738D01*
X32833Y-60795D01*
X32814Y-60833D01*
X32795Y-60852D01*
X32757Y-60871D01*
X32604Y-60871D01*
X33214Y-61061D02*
X32985Y-61061D01*
X33100Y-61061D02*
X33100Y-60661D01*
X33061Y-60719D01*
X33023Y-60757D01*
X32985Y-60776D01*
G54D17*
X35375Y-63962D02*
X35090Y-63962D01*
X35232Y-63962D02*
X35232Y-63462D01*
X35185Y-63533D01*
X35137Y-63581D01*
X35090Y-63605D01*
X35685Y-63462D02*
X35732Y-63462D01*
X35780Y-63486D01*
X35804Y-63510D01*
X35828Y-63557D01*
X35851Y-63652D01*
X35851Y-63771D01*
X35828Y-63867D01*
X35804Y-63914D01*
X35780Y-63938D01*
X35732Y-63962D01*
X35685Y-63962D01*
X35637Y-63938D01*
X35613Y-63914D01*
X35590Y-63867D01*
X35566Y-63771D01*
X35566Y-63652D01*
X35590Y-63557D01*
X35613Y-63510D01*
X35637Y-63486D01*
X35685Y-63462D01*
X35257Y-61324D02*
X35353Y-61324D01*
X35400Y-61300D01*
X35424Y-61276D01*
X35472Y-61205D01*
X35495Y-61110D01*
X35495Y-60919D01*
X35472Y-60872D01*
X35448Y-60848D01*
X35400Y-60824D01*
X35305Y-60824D01*
X35257Y-60848D01*
X35233Y-60872D01*
X35210Y-60919D01*
X35210Y-61038D01*
X35233Y-61086D01*
X35257Y-61110D01*
X35305Y-61133D01*
X35400Y-61133D01*
X35448Y-61110D01*
X35472Y-61086D01*
X35495Y-61038D01*
X39265Y-63510D02*
X39288Y-63486D01*
X39336Y-63462D01*
X39455Y-63462D01*
X39503Y-63486D01*
X39527Y-63510D01*
X39550Y-63557D01*
X39550Y-63605D01*
X39527Y-63676D01*
X39241Y-63962D01*
X39550Y-63962D01*
G54D11*
X42754Y-61111D02*
X42754Y-60711D01*
X42907Y-60711D01*
X42945Y-60730D01*
X42964Y-60750D01*
X42983Y-60788D01*
X42983Y-60845D01*
X42964Y-60883D01*
X42945Y-60902D01*
X42907Y-60921D01*
X42754Y-60921D01*
X43135Y-60750D02*
X43154Y-60730D01*
X43192Y-60711D01*
X43288Y-60711D01*
X43326Y-60730D01*
X43345Y-60750D01*
X43364Y-60788D01*
X43364Y-60826D01*
X43345Y-60883D01*
X43116Y-61111D01*
X43364Y-61111D01*
G54D17*
X45575Y-63962D02*
X45290Y-63962D01*
X45432Y-63962D02*
X45432Y-63462D01*
X45385Y-63533D01*
X45337Y-63581D01*
X45290Y-63605D01*
X45885Y-63462D02*
X45932Y-63462D01*
X45980Y-63486D01*
X46004Y-63510D01*
X46028Y-63557D01*
X46051Y-63652D01*
X46051Y-63771D01*
X46028Y-63867D01*
X46004Y-63914D01*
X45980Y-63938D01*
X45932Y-63962D01*
X45885Y-63962D01*
X45837Y-63938D01*
X45813Y-63914D01*
X45790Y-63867D01*
X45766Y-63771D01*
X45766Y-63652D01*
X45790Y-63557D01*
X45813Y-63510D01*
X45837Y-63486D01*
X45885Y-63462D01*
X45457Y-61324D02*
X45553Y-61324D01*
X45600Y-61300D01*
X45624Y-61276D01*
X45672Y-61205D01*
X45695Y-61110D01*
X45695Y-60919D01*
X45672Y-60872D01*
X45648Y-60848D01*
X45600Y-60824D01*
X45505Y-60824D01*
X45457Y-60848D01*
X45433Y-60872D01*
X45410Y-60919D01*
X45410Y-61038D01*
X45433Y-61086D01*
X45457Y-61110D01*
X45505Y-61133D01*
X45600Y-61133D01*
X45648Y-61110D01*
X45672Y-61086D01*
X45695Y-61038D01*
X49465Y-63510D02*
X49488Y-63486D01*
X49536Y-63462D01*
X49655Y-63462D01*
X49703Y-63486D01*
X49727Y-63510D01*
X49750Y-63557D01*
X49750Y-63605D01*
X49727Y-63676D01*
X49441Y-63962D01*
X49750Y-63962D01*
G54D11*
X50380Y-49856D02*
X50380Y-50180D01*
X50399Y-50218D01*
X50418Y-50237D01*
X50456Y-50256D01*
X50532Y-50256D01*
X50570Y-50237D01*
X50589Y-50218D01*
X50608Y-50180D01*
X50608Y-49856D01*
X50970Y-49990D02*
X50970Y-50256D01*
X50875Y-49837D02*
X50780Y-50123D01*
X51027Y-50123D01*
X49688Y-55192D02*
X49878Y-55192D01*
X49650Y-55306D02*
X49783Y-54906D01*
X49916Y-55306D01*
X50050Y-55306D02*
X50050Y-54906D01*
X50145Y-54906D01*
X50202Y-54925D01*
X50240Y-54964D01*
X50259Y-55002D01*
X50278Y-55078D01*
X50278Y-55135D01*
X50259Y-55211D01*
X50240Y-55249D01*
X50202Y-55287D01*
X50145Y-55306D01*
X50050Y-55306D01*
X50659Y-54925D02*
X50621Y-54906D01*
X50564Y-54906D01*
X50507Y-54925D01*
X50469Y-54964D01*
X50450Y-55002D01*
X50431Y-55078D01*
X50431Y-55135D01*
X50450Y-55211D01*
X50469Y-55249D01*
X50507Y-55287D01*
X50564Y-55306D01*
X50602Y-55306D01*
X50659Y-55287D01*
X50678Y-55268D01*
X50678Y-55135D01*
X50602Y-55135D01*
X51021Y-55040D02*
X51021Y-55306D01*
X50926Y-54887D02*
X50831Y-55173D01*
X51078Y-55173D01*
X51402Y-55040D02*
X51402Y-55306D01*
X51307Y-54887D02*
X51212Y-55173D01*
X51459Y-55173D01*
X51574Y-54906D02*
X51840Y-55306D01*
X51840Y-54906D02*
X51574Y-55306D01*
X50380Y-38256D02*
X50380Y-38580D01*
X50399Y-38618D01*
X50418Y-38637D01*
X50456Y-38656D01*
X50532Y-38656D01*
X50570Y-38637D01*
X50589Y-38618D01*
X50608Y-38580D01*
X50608Y-38256D01*
X50761Y-38256D02*
X51008Y-38256D01*
X50875Y-38409D01*
X50932Y-38409D01*
X50970Y-38428D01*
X50989Y-38447D01*
X51008Y-38485D01*
X51008Y-38580D01*
X50989Y-38618D01*
X50970Y-38637D01*
X50932Y-38656D01*
X50818Y-38656D01*
X50780Y-38637D01*
X50761Y-38618D01*
X49688Y-43592D02*
X49878Y-43592D01*
X49650Y-43706D02*
X49783Y-43306D01*
X49916Y-43706D01*
X50050Y-43706D02*
X50050Y-43306D01*
X50145Y-43306D01*
X50202Y-43325D01*
X50240Y-43364D01*
X50259Y-43402D01*
X50278Y-43478D01*
X50278Y-43535D01*
X50259Y-43611D01*
X50240Y-43649D01*
X50202Y-43687D01*
X50145Y-43706D01*
X50050Y-43706D01*
X50659Y-43325D02*
X50621Y-43306D01*
X50564Y-43306D01*
X50507Y-43325D01*
X50469Y-43364D01*
X50450Y-43402D01*
X50431Y-43478D01*
X50431Y-43535D01*
X50450Y-43611D01*
X50469Y-43649D01*
X50507Y-43687D01*
X50564Y-43706D01*
X50602Y-43706D01*
X50659Y-43687D01*
X50678Y-43668D01*
X50678Y-43535D01*
X50602Y-43535D01*
X51021Y-43440D02*
X51021Y-43706D01*
X50926Y-43287D02*
X50831Y-43573D01*
X51078Y-43573D01*
X51402Y-43440D02*
X51402Y-43706D01*
X51307Y-43287D02*
X51212Y-43573D01*
X51459Y-43573D01*
X51574Y-43306D02*
X51840Y-43706D01*
X51840Y-43306D02*
X51574Y-43706D01*
X41680Y-49856D02*
X41680Y-50180D01*
X41699Y-50218D01*
X41718Y-50237D01*
X41756Y-50256D01*
X41832Y-50256D01*
X41870Y-50237D01*
X41889Y-50218D01*
X41908Y-50180D01*
X41908Y-49856D01*
X42080Y-49895D02*
X42099Y-49875D01*
X42137Y-49856D01*
X42232Y-49856D01*
X42270Y-49875D01*
X42289Y-49895D01*
X42308Y-49933D01*
X42308Y-49971D01*
X42289Y-50028D01*
X42061Y-50256D01*
X42308Y-50256D01*
X40988Y-55192D02*
X41178Y-55192D01*
X40950Y-55306D02*
X41083Y-54906D01*
X41216Y-55306D01*
X41350Y-55306D02*
X41350Y-54906D01*
X41445Y-54906D01*
X41502Y-54925D01*
X41540Y-54964D01*
X41559Y-55002D01*
X41578Y-55078D01*
X41578Y-55135D01*
X41559Y-55211D01*
X41540Y-55249D01*
X41502Y-55287D01*
X41445Y-55306D01*
X41350Y-55306D01*
X41959Y-54925D02*
X41921Y-54906D01*
X41864Y-54906D01*
X41807Y-54925D01*
X41769Y-54964D01*
X41750Y-55002D01*
X41731Y-55078D01*
X41731Y-55135D01*
X41750Y-55211D01*
X41769Y-55249D01*
X41807Y-55287D01*
X41864Y-55306D01*
X41902Y-55306D01*
X41959Y-55287D01*
X41978Y-55268D01*
X41978Y-55135D01*
X41902Y-55135D01*
X42321Y-55040D02*
X42321Y-55306D01*
X42226Y-54887D02*
X42131Y-55173D01*
X42378Y-55173D01*
X42702Y-55040D02*
X42702Y-55306D01*
X42607Y-54887D02*
X42512Y-55173D01*
X42759Y-55173D01*
X42874Y-54906D02*
X43140Y-55306D01*
X43140Y-54906D02*
X42874Y-55306D01*
X41680Y-38256D02*
X41680Y-38580D01*
X41699Y-38618D01*
X41718Y-38637D01*
X41756Y-38656D01*
X41832Y-38656D01*
X41870Y-38637D01*
X41889Y-38618D01*
X41908Y-38580D01*
X41908Y-38256D01*
X42308Y-38656D02*
X42080Y-38656D01*
X42194Y-38656D02*
X42194Y-38256D01*
X42156Y-38314D01*
X42118Y-38352D01*
X42080Y-38371D01*
X40988Y-43592D02*
X41178Y-43592D01*
X40950Y-43706D02*
X41083Y-43306D01*
X41216Y-43706D01*
X41350Y-43706D02*
X41350Y-43306D01*
X41445Y-43306D01*
X41502Y-43325D01*
X41540Y-43364D01*
X41559Y-43402D01*
X41578Y-43478D01*
X41578Y-43535D01*
X41559Y-43611D01*
X41540Y-43649D01*
X41502Y-43687D01*
X41445Y-43706D01*
X41350Y-43706D01*
X41959Y-43325D02*
X41921Y-43306D01*
X41864Y-43306D01*
X41807Y-43325D01*
X41769Y-43364D01*
X41750Y-43402D01*
X41731Y-43478D01*
X41731Y-43535D01*
X41750Y-43611D01*
X41769Y-43649D01*
X41807Y-43687D01*
X41864Y-43706D01*
X41902Y-43706D01*
X41959Y-43687D01*
X41978Y-43668D01*
X41978Y-43535D01*
X41902Y-43535D01*
X42321Y-43440D02*
X42321Y-43706D01*
X42226Y-43287D02*
X42131Y-43573D01*
X42378Y-43573D01*
X42702Y-43440D02*
X42702Y-43706D01*
X42607Y-43287D02*
X42512Y-43573D01*
X42759Y-43573D01*
X42874Y-43306D02*
X43140Y-43706D01*
X43140Y-43306D02*
X42874Y-43706D01*
M02*
