M48
;DRILL file {Pcbnew (2013-jul-07)-stable} date Mon 21 Nov 2016 11:23:54 AM PST
;FORMAT={-:-/ absolute / inch / decimal}
FMAT,2
INCH,TZ
T1C0.025
T2C0.039
T3C0.040
T4C0.116
%
G90
G05
M72
T1
X2.7837Y-3.7843
X2.8415Y-5.0735
X3.1Y-2.739
X3.2184Y-4.7055
X3.7784Y-2.794
X4.0658Y-4.0432
X4.0661Y-2.9803
X4.0846Y-3.7214
X4.0885Y-2.6121
X4.104Y-3.7668
X4.1241Y-2.4932
X4.2016Y-3.0127
X4.2758Y-2.9818
X4.32Y-3.7848
X4.3946Y-3.9106
X4.4004Y-3.4182
X4.4829Y-3.9749
X4.5255Y-2.9812
X4.5478Y-2.5856
X4.5875Y-2.854
X4.6852Y-4.3976
X4.7218Y-2.8972
X4.8431Y-3.7494
X5.0953Y-4.6537
X5.1491Y-4.0523
X5.1641Y-3.4584
X5.2932Y-4.2736
X5.334Y-4.0731
X5.3854Y-4.0212
X5.3932Y-3.3036
X5.4059Y-4.5534
X5.4967Y-2.8104
X5.5057Y-4.5969
X5.507Y-4.385
X5.5411Y-4.3054
X5.5593Y-4.7108
X5.6051Y-4.4625
X5.6131Y-3.4772
X5.7545Y-3.4814
X6.1762Y-3.7612
T2
X7.45Y-2.7311
X7.45Y-2.8689
X7.45Y-3.1811
X7.45Y-3.3189
X7.45Y-3.6311
X7.45Y-3.7689
T3
X2.07Y-3.12
X2.07Y-3.72
X2.1Y-2.825
X2.1Y-4.03
X2.17Y-3.12
X2.17Y-3.22
X2.17Y-3.72
X2.2Y-2.825
X2.2Y-4.03
X2.27Y-3.12
X2.27Y-3.72
X2.37Y-3.12
X2.37Y-3.22
X2.37Y-3.72
X2.47Y-3.12
X2.47Y-3.22
X2.47Y-3.72
X2.52Y-2.13
X2.57Y-3.12
X2.57Y-3.22
X2.57Y-3.72
X2.62Y-2.13
X2.63Y-5.2
X2.63Y-5.3
X2.67Y-3.12
X2.67Y-3.32
X2.67Y-3.42
X2.67Y-3.72
X2.72Y-2.13
X2.73Y-5.2
X2.73Y-5.3
X2.77Y-3.12
X2.77Y-3.32
X2.77Y-3.42
X2.77Y-3.72
X2.82Y-2.13
X2.83Y-5.2
X2.83Y-5.3
X2.87Y-3.12
X2.87Y-3.32
X2.87Y-3.42
X2.87Y-3.72
X2.92Y-2.13
X2.93Y-5.2
X2.93Y-5.3
X2.97Y-3.12
X2.97Y-3.32
X2.97Y-3.42
X2.97Y-3.72
X3.02Y-2.13
X3.03Y-5.2
X3.03Y-5.3
X3.07Y-3.12
X3.07Y-3.32
X3.07Y-3.42
X3.07Y-3.72
X3.17Y-3.12
X3.17Y-3.32
X3.17Y-3.42
X3.17Y-3.72
X3.27Y-3.12
X3.27Y-3.32
X3.27Y-3.42
X3.27Y-3.72
X3.37Y-3.12
X3.37Y-3.22
X3.37Y-3.32
X3.37Y-3.42
X3.37Y-3.52
X3.37Y-3.62
X3.37Y-3.72
X3.4Y-2.1
X3.4Y-2.2
X3.65Y-5.2
X3.65Y-5.3
X3.75Y-2.1
X3.75Y-2.2
X3.75Y-5.2
X3.75Y-5.3
X3.85Y-5.2
X3.85Y-5.3
X3.95Y-5.2
X3.95Y-5.3
X4.05Y-5.2
X4.05Y-5.3
X4.11Y-2.1
X4.11Y-2.2
X4.56Y-5.3
X4.56Y-5.4
X4.6Y-2.1
X4.6Y-2.2
X4.66Y-5.3
X4.66Y-5.4
X4.98Y-2.1
X4.98Y-2.2
X5.01Y-5.3
X5.01Y-5.4
X5.11Y-5.3
X5.11Y-5.4
X5.33Y-2.1
X5.33Y-2.2
X5.54Y-5.29
X5.54Y-5.39
X5.76Y-2.1
X5.76Y-2.2
X5.98Y-5.29
X5.98Y-5.39
X6.19Y-2.11
X6.19Y-2.21
X6.42Y-5.29
X6.42Y-5.39
X6.51Y-2.1
X6.51Y-2.2
X6.91Y-4.53
X6.91Y-4.63
X6.91Y-4.73
T4
X2.15Y-2.15
X2.15Y-5.35
X6.85Y-2.15
X6.85Y-5.35
T0
M30
