G04 (created by PCBNEW (2013-jul-07)-stable) date Mon 21 Nov 2016 11:31:40 AM PST*
%MOIN*%
G04 Gerber Fmt 3.4, Leading zero omitted, Abs format*
%FSLAX34Y34*%
G01*
G70*
G90*
G04 APERTURE LIST*
%ADD10C,0.00590551*%
%ADD11C,0.008*%
%ADD12C,0.006*%
%ADD13C,0.012*%
G04 APERTURE END LIST*
G54D10*
G54D11*
X31428Y-40761D02*
X31523Y-41161D01*
X31600Y-40876D01*
X31676Y-41161D01*
X31771Y-40761D01*
X32152Y-41161D02*
X32019Y-40971D01*
X31923Y-41161D02*
X31923Y-40761D01*
X32076Y-40761D01*
X32114Y-40780D01*
X32133Y-40800D01*
X32152Y-40838D01*
X32152Y-40895D01*
X32133Y-40933D01*
X32114Y-40952D01*
X32076Y-40971D01*
X31923Y-40971D01*
X32323Y-41161D02*
X32323Y-40761D01*
X32552Y-41161D02*
X32380Y-40933D01*
X32552Y-40761D02*
X32323Y-40990D01*
X31671Y-40161D02*
X31538Y-39971D01*
X31442Y-40161D02*
X31442Y-39761D01*
X31595Y-39761D01*
X31633Y-39780D01*
X31652Y-39800D01*
X31671Y-39838D01*
X31671Y-39895D01*
X31652Y-39933D01*
X31633Y-39952D01*
X31595Y-39971D01*
X31442Y-39971D01*
X31842Y-39952D02*
X31976Y-39952D01*
X32033Y-40161D02*
X31842Y-40161D01*
X31842Y-39761D01*
X32033Y-39761D01*
X32338Y-39952D02*
X32204Y-39952D01*
X32204Y-40161D02*
X32204Y-39761D01*
X32395Y-39761D01*
X31671Y-39123D02*
X31652Y-39142D01*
X31595Y-39161D01*
X31557Y-39161D01*
X31500Y-39142D01*
X31461Y-39104D01*
X31442Y-39066D01*
X31423Y-38990D01*
X31423Y-38933D01*
X31442Y-38857D01*
X31461Y-38819D01*
X31500Y-38780D01*
X31557Y-38761D01*
X31595Y-38761D01*
X31652Y-38780D01*
X31671Y-38800D01*
X31785Y-38761D02*
X32014Y-38761D01*
X31900Y-39161D02*
X31900Y-38761D01*
X32376Y-39161D02*
X32242Y-38971D01*
X32147Y-39161D02*
X32147Y-38761D01*
X32300Y-38761D01*
X32338Y-38780D01*
X32357Y-38800D01*
X32376Y-38838D01*
X32376Y-38895D01*
X32357Y-38933D01*
X32338Y-38952D01*
X32300Y-38971D01*
X32147Y-38971D01*
X40588Y-35269D02*
X40988Y-35269D01*
X40988Y-35535D02*
X40988Y-35611D01*
X40969Y-35650D01*
X40930Y-35688D01*
X40854Y-35707D01*
X40721Y-35707D01*
X40645Y-35688D01*
X40607Y-35650D01*
X40588Y-35611D01*
X40588Y-35535D01*
X40607Y-35497D01*
X40645Y-35459D01*
X40721Y-35440D01*
X40854Y-35440D01*
X40930Y-35459D01*
X40969Y-35497D01*
X40988Y-35535D01*
X40588Y-36411D02*
X40778Y-36278D01*
X40588Y-36183D02*
X40988Y-36183D01*
X40988Y-36335D01*
X40969Y-36373D01*
X40950Y-36392D01*
X40911Y-36411D01*
X40854Y-36411D01*
X40816Y-36392D01*
X40797Y-36373D01*
X40778Y-36335D01*
X40778Y-36183D01*
X40588Y-36640D02*
X40607Y-36602D01*
X40626Y-36583D01*
X40664Y-36564D01*
X40778Y-36564D01*
X40816Y-36583D01*
X40835Y-36602D01*
X40854Y-36640D01*
X40854Y-36697D01*
X40835Y-36735D01*
X40816Y-36754D01*
X40778Y-36773D01*
X40664Y-36773D01*
X40626Y-36754D01*
X40607Y-36735D01*
X40588Y-36697D01*
X40588Y-36640D01*
X40588Y-37116D02*
X40988Y-37116D01*
X40607Y-37116D02*
X40588Y-37078D01*
X40588Y-37002D01*
X40607Y-36964D01*
X40626Y-36945D01*
X40664Y-36926D01*
X40778Y-36926D01*
X40816Y-36945D01*
X40835Y-36964D01*
X40854Y-37002D01*
X40854Y-37078D01*
X40835Y-37116D01*
X40607Y-37459D02*
X40588Y-37421D01*
X40588Y-37345D01*
X40607Y-37307D01*
X40645Y-37288D01*
X40797Y-37288D01*
X40835Y-37307D01*
X40854Y-37345D01*
X40854Y-37421D01*
X40835Y-37459D01*
X40797Y-37478D01*
X40759Y-37478D01*
X40721Y-37288D01*
X40588Y-37707D02*
X40607Y-37669D01*
X40626Y-37650D01*
X40664Y-37630D01*
X40778Y-37630D01*
X40816Y-37650D01*
X40835Y-37669D01*
X40854Y-37707D01*
X40854Y-37764D01*
X40835Y-37802D01*
X40816Y-37821D01*
X40778Y-37840D01*
X40664Y-37840D01*
X40626Y-37821D01*
X40607Y-37802D01*
X40588Y-37764D01*
X40588Y-37707D01*
X40854Y-38278D02*
X40588Y-38354D01*
X40778Y-38430D01*
X40588Y-38507D01*
X40854Y-38583D01*
X40854Y-38697D02*
X40588Y-38773D01*
X40778Y-38849D01*
X40588Y-38926D01*
X40854Y-39002D01*
X40854Y-39116D02*
X40588Y-39192D01*
X40778Y-39269D01*
X40588Y-39345D01*
X40854Y-39421D01*
X40626Y-39573D02*
X40607Y-39592D01*
X40588Y-39573D01*
X40607Y-39554D01*
X40626Y-39573D01*
X40588Y-39573D01*
X40588Y-39764D02*
X40854Y-39764D01*
X40988Y-39764D02*
X40969Y-39745D01*
X40950Y-39764D01*
X40969Y-39783D01*
X40988Y-39764D01*
X40950Y-39764D01*
X40588Y-40011D02*
X40607Y-39973D01*
X40626Y-39954D01*
X40664Y-39935D01*
X40778Y-39935D01*
X40816Y-39954D01*
X40835Y-39973D01*
X40854Y-40011D01*
X40854Y-40069D01*
X40835Y-40107D01*
X40816Y-40126D01*
X40778Y-40145D01*
X40664Y-40145D01*
X40626Y-40126D01*
X40607Y-40107D01*
X40588Y-40069D01*
X40588Y-40011D01*
X40588Y-40316D02*
X40854Y-40316D01*
X40778Y-40316D02*
X40816Y-40335D01*
X40835Y-40354D01*
X40854Y-40392D01*
X40854Y-40430D01*
X40588Y-40621D02*
X40607Y-40583D01*
X40626Y-40564D01*
X40664Y-40545D01*
X40778Y-40545D01*
X40816Y-40564D01*
X40835Y-40583D01*
X40854Y-40621D01*
X40854Y-40678D01*
X40835Y-40716D01*
X40816Y-40735D01*
X40778Y-40754D01*
X40664Y-40754D01*
X40626Y-40735D01*
X40607Y-40716D01*
X40588Y-40678D01*
X40588Y-40621D01*
X40588Y-41097D02*
X40988Y-41097D01*
X40607Y-41097D02*
X40588Y-41059D01*
X40588Y-40983D01*
X40607Y-40945D01*
X40626Y-40926D01*
X40664Y-40907D01*
X40778Y-40907D01*
X40816Y-40926D01*
X40835Y-40945D01*
X40854Y-40983D01*
X40854Y-41059D01*
X40835Y-41097D01*
X40607Y-41440D02*
X40588Y-41402D01*
X40588Y-41326D01*
X40607Y-41288D01*
X40645Y-41269D01*
X40797Y-41269D01*
X40835Y-41288D01*
X40854Y-41326D01*
X40854Y-41402D01*
X40835Y-41440D01*
X40797Y-41459D01*
X40759Y-41459D01*
X40721Y-41269D01*
X40588Y-41688D02*
X40607Y-41650D01*
X40626Y-41630D01*
X40664Y-41611D01*
X40778Y-41611D01*
X40816Y-41630D01*
X40835Y-41650D01*
X40854Y-41688D01*
X40854Y-41745D01*
X40835Y-41783D01*
X40816Y-41802D01*
X40778Y-41821D01*
X40664Y-41821D01*
X40626Y-41802D01*
X40607Y-41783D01*
X40588Y-41745D01*
X40588Y-41688D01*
X40626Y-41992D02*
X40607Y-42011D01*
X40588Y-41992D01*
X40607Y-41973D01*
X40626Y-41992D01*
X40588Y-41992D01*
X40607Y-42354D02*
X40588Y-42316D01*
X40588Y-42240D01*
X40607Y-42202D01*
X40626Y-42183D01*
X40664Y-42164D01*
X40778Y-42164D01*
X40816Y-42183D01*
X40835Y-42202D01*
X40854Y-42240D01*
X40854Y-42316D01*
X40835Y-42354D01*
X40588Y-42583D02*
X40607Y-42545D01*
X40626Y-42526D01*
X40664Y-42507D01*
X40778Y-42507D01*
X40816Y-42526D01*
X40835Y-42545D01*
X40854Y-42583D01*
X40854Y-42640D01*
X40835Y-42678D01*
X40816Y-42697D01*
X40778Y-42716D01*
X40664Y-42716D01*
X40626Y-42697D01*
X40607Y-42678D01*
X40588Y-42640D01*
X40588Y-42583D01*
X40588Y-42888D02*
X40854Y-42888D01*
X40816Y-42888D02*
X40835Y-42907D01*
X40854Y-42945D01*
X40854Y-43002D01*
X40835Y-43040D01*
X40797Y-43059D01*
X40588Y-43059D01*
X40797Y-43059D02*
X40835Y-43078D01*
X40854Y-43116D01*
X40854Y-43173D01*
X40835Y-43211D01*
X40797Y-43230D01*
X40588Y-43230D01*
X41588Y-34240D02*
X41988Y-34240D01*
X41988Y-34392D01*
X41969Y-34430D01*
X41950Y-34450D01*
X41911Y-34469D01*
X41854Y-34469D01*
X41816Y-34450D01*
X41797Y-34430D01*
X41778Y-34392D01*
X41778Y-34240D01*
X41588Y-34697D02*
X41607Y-34659D01*
X41626Y-34640D01*
X41664Y-34621D01*
X41778Y-34621D01*
X41816Y-34640D01*
X41835Y-34659D01*
X41854Y-34697D01*
X41854Y-34754D01*
X41835Y-34792D01*
X41816Y-34811D01*
X41778Y-34830D01*
X41664Y-34830D01*
X41626Y-34811D01*
X41607Y-34792D01*
X41588Y-34754D01*
X41588Y-34697D01*
X41854Y-34945D02*
X41854Y-35097D01*
X41988Y-35002D02*
X41645Y-35002D01*
X41607Y-35021D01*
X41588Y-35059D01*
X41588Y-35097D01*
X41607Y-35383D02*
X41588Y-35345D01*
X41588Y-35269D01*
X41607Y-35230D01*
X41645Y-35211D01*
X41797Y-35211D01*
X41835Y-35230D01*
X41854Y-35269D01*
X41854Y-35345D01*
X41835Y-35383D01*
X41797Y-35402D01*
X41759Y-35402D01*
X41721Y-35211D01*
X41854Y-35573D02*
X41588Y-35573D01*
X41816Y-35573D02*
X41835Y-35592D01*
X41854Y-35630D01*
X41854Y-35688D01*
X41835Y-35726D01*
X41797Y-35745D01*
X41588Y-35745D01*
X41854Y-35878D02*
X41854Y-36030D01*
X41988Y-35935D02*
X41645Y-35935D01*
X41607Y-35954D01*
X41588Y-35992D01*
X41588Y-36030D01*
X41588Y-36164D02*
X41854Y-36164D01*
X41988Y-36164D02*
X41969Y-36145D01*
X41950Y-36164D01*
X41969Y-36183D01*
X41988Y-36164D01*
X41950Y-36164D01*
X41588Y-36411D02*
X41607Y-36373D01*
X41626Y-36354D01*
X41664Y-36335D01*
X41778Y-36335D01*
X41816Y-36354D01*
X41835Y-36373D01*
X41854Y-36411D01*
X41854Y-36469D01*
X41835Y-36507D01*
X41816Y-36526D01*
X41778Y-36545D01*
X41664Y-36545D01*
X41626Y-36526D01*
X41607Y-36507D01*
X41588Y-36469D01*
X41588Y-36411D01*
X41607Y-36697D02*
X41588Y-36735D01*
X41588Y-36811D01*
X41607Y-36850D01*
X41645Y-36869D01*
X41664Y-36869D01*
X41702Y-36850D01*
X41721Y-36811D01*
X41721Y-36754D01*
X41740Y-36716D01*
X41778Y-36697D01*
X41797Y-36697D01*
X41835Y-36716D01*
X41854Y-36754D01*
X41854Y-36811D01*
X41835Y-36850D01*
X41854Y-36983D02*
X41854Y-37135D01*
X41988Y-37040D02*
X41645Y-37040D01*
X41607Y-37059D01*
X41588Y-37097D01*
X41588Y-37135D01*
X41588Y-37440D02*
X41797Y-37440D01*
X41835Y-37421D01*
X41854Y-37383D01*
X41854Y-37307D01*
X41835Y-37269D01*
X41607Y-37440D02*
X41588Y-37402D01*
X41588Y-37307D01*
X41607Y-37269D01*
X41645Y-37250D01*
X41683Y-37250D01*
X41721Y-37269D01*
X41740Y-37307D01*
X41740Y-37402D01*
X41759Y-37440D01*
X41854Y-37573D02*
X41854Y-37726D01*
X41988Y-37630D02*
X41645Y-37630D01*
X41607Y-37650D01*
X41588Y-37688D01*
X41588Y-37726D01*
X41588Y-38164D02*
X41988Y-38164D01*
X41988Y-38259D01*
X41969Y-38316D01*
X41930Y-38354D01*
X41892Y-38373D01*
X41816Y-38392D01*
X41759Y-38392D01*
X41683Y-38373D01*
X41645Y-38354D01*
X41607Y-38316D01*
X41588Y-38259D01*
X41588Y-38164D01*
X41854Y-38735D02*
X41588Y-38735D01*
X41854Y-38564D02*
X41645Y-38564D01*
X41607Y-38583D01*
X41588Y-38621D01*
X41588Y-38678D01*
X41607Y-38716D01*
X41626Y-38735D01*
X41588Y-38926D02*
X41854Y-38926D01*
X41816Y-38926D02*
X41835Y-38945D01*
X41854Y-38983D01*
X41854Y-39040D01*
X41835Y-39078D01*
X41797Y-39097D01*
X41588Y-39097D01*
X41797Y-39097D02*
X41835Y-39116D01*
X41854Y-39154D01*
X41854Y-39211D01*
X41835Y-39250D01*
X41797Y-39269D01*
X41588Y-39269D01*
X41588Y-39459D02*
X41854Y-39459D01*
X41816Y-39459D02*
X41835Y-39478D01*
X41854Y-39516D01*
X41854Y-39573D01*
X41835Y-39611D01*
X41797Y-39630D01*
X41588Y-39630D01*
X41797Y-39630D02*
X41835Y-39650D01*
X41854Y-39688D01*
X41854Y-39745D01*
X41835Y-39783D01*
X41797Y-39802D01*
X41588Y-39802D01*
X41854Y-39954D02*
X41588Y-40050D01*
X41854Y-40145D02*
X41588Y-40050D01*
X41492Y-40011D01*
X41473Y-39992D01*
X41454Y-39954D01*
X41626Y-40830D02*
X41607Y-40811D01*
X41588Y-40754D01*
X41588Y-40716D01*
X41607Y-40659D01*
X41645Y-40621D01*
X41683Y-40602D01*
X41759Y-40583D01*
X41816Y-40583D01*
X41892Y-40602D01*
X41930Y-40621D01*
X41969Y-40659D01*
X41988Y-40716D01*
X41988Y-40754D01*
X41969Y-40811D01*
X41950Y-40830D01*
X41607Y-41154D02*
X41588Y-41116D01*
X41588Y-41040D01*
X41607Y-41002D01*
X41645Y-40983D01*
X41797Y-40983D01*
X41835Y-41002D01*
X41854Y-41040D01*
X41854Y-41116D01*
X41835Y-41154D01*
X41797Y-41173D01*
X41759Y-41173D01*
X41721Y-40983D01*
X41588Y-41402D02*
X41607Y-41364D01*
X41645Y-41345D01*
X41988Y-41345D01*
X41588Y-41611D02*
X41607Y-41573D01*
X41645Y-41554D01*
X41988Y-41554D01*
X41988Y-42011D02*
X41588Y-42145D01*
X41988Y-42278D01*
X41988Y-42488D02*
X41988Y-42526D01*
X41969Y-42564D01*
X41950Y-42583D01*
X41911Y-42602D01*
X41835Y-42621D01*
X41740Y-42621D01*
X41664Y-42602D01*
X41626Y-42583D01*
X41607Y-42564D01*
X41588Y-42526D01*
X41588Y-42488D01*
X41607Y-42449D01*
X41626Y-42430D01*
X41664Y-42411D01*
X41740Y-42392D01*
X41835Y-42392D01*
X41911Y-42411D01*
X41950Y-42430D01*
X41969Y-42449D01*
X41988Y-42488D01*
X41626Y-42792D02*
X41607Y-42811D01*
X41588Y-42792D01*
X41607Y-42773D01*
X41626Y-42792D01*
X41588Y-42792D01*
X41588Y-43192D02*
X41588Y-42964D01*
X41588Y-43078D02*
X41988Y-43078D01*
X41930Y-43040D01*
X41892Y-43002D01*
X41873Y-42964D01*
X41588Y-43897D02*
X41778Y-43764D01*
X41588Y-43669D02*
X41988Y-43669D01*
X41988Y-43821D01*
X41969Y-43859D01*
X41950Y-43878D01*
X41911Y-43897D01*
X41854Y-43897D01*
X41816Y-43878D01*
X41797Y-43859D01*
X41778Y-43821D01*
X41778Y-43669D01*
X41588Y-44278D02*
X41588Y-44049D01*
X41588Y-44164D02*
X41988Y-44164D01*
X41930Y-44126D01*
X41892Y-44088D01*
X41873Y-44049D01*
X36500Y-32000D02*
X36500Y-32200D01*
X36500Y-35000D02*
X36500Y-34800D01*
X36500Y-34800D02*
X36900Y-34800D01*
X36900Y-34800D02*
X36900Y-32200D01*
X36900Y-32200D02*
X36100Y-32200D01*
X36100Y-32200D02*
X36100Y-34800D01*
X36100Y-34800D02*
X36500Y-34800D01*
X36700Y-32200D02*
X36900Y-32400D01*
X36500Y-38000D02*
X36500Y-38200D01*
X36500Y-41000D02*
X36500Y-40800D01*
X36500Y-40800D02*
X36900Y-40800D01*
X36900Y-40800D02*
X36900Y-38200D01*
X36900Y-38200D02*
X36100Y-38200D01*
X36100Y-38200D02*
X36100Y-40800D01*
X36100Y-40800D02*
X36500Y-40800D01*
X36700Y-38200D02*
X36900Y-38400D01*
X39000Y-44000D02*
X39000Y-44200D01*
X39000Y-47000D02*
X39000Y-46800D01*
X39000Y-46800D02*
X39400Y-46800D01*
X39400Y-46800D02*
X39400Y-44200D01*
X39400Y-44200D02*
X38600Y-44200D01*
X38600Y-44200D02*
X38600Y-46800D01*
X38600Y-46800D02*
X39000Y-46800D01*
X39200Y-44200D02*
X39400Y-44400D01*
G54D12*
X30200Y-38500D02*
X31200Y-38500D01*
X31200Y-38500D02*
X31200Y-41500D01*
X31200Y-41500D02*
X30200Y-41500D01*
X30200Y-41500D02*
X30200Y-38500D01*
X31200Y-39500D02*
X30200Y-39500D01*
G54D13*
X34500Y-44520D02*
X34500Y-46500D01*
X34500Y-46500D02*
X33500Y-46500D01*
X33500Y-46500D02*
X33500Y-44500D01*
X33500Y-44500D02*
X34500Y-44500D01*
X34250Y-44500D02*
X34500Y-44750D01*
G54D11*
X35961Y-33566D02*
X35771Y-33699D01*
X35961Y-33795D02*
X35561Y-33795D01*
X35561Y-33642D01*
X35580Y-33604D01*
X35600Y-33585D01*
X35638Y-33566D01*
X35695Y-33566D01*
X35733Y-33585D01*
X35752Y-33604D01*
X35771Y-33642D01*
X35771Y-33795D01*
X35561Y-33433D02*
X35561Y-33185D01*
X35714Y-33319D01*
X35714Y-33261D01*
X35733Y-33223D01*
X35752Y-33204D01*
X35790Y-33185D01*
X35885Y-33185D01*
X35923Y-33204D01*
X35942Y-33223D01*
X35961Y-33261D01*
X35961Y-33376D01*
X35942Y-33414D01*
X35923Y-33433D01*
X35961Y-39566D02*
X35771Y-39699D01*
X35961Y-39795D02*
X35561Y-39795D01*
X35561Y-39642D01*
X35580Y-39604D01*
X35600Y-39585D01*
X35638Y-39566D01*
X35695Y-39566D01*
X35733Y-39585D01*
X35752Y-39604D01*
X35771Y-39642D01*
X35771Y-39795D01*
X35600Y-39414D02*
X35580Y-39395D01*
X35561Y-39357D01*
X35561Y-39261D01*
X35580Y-39223D01*
X35600Y-39204D01*
X35638Y-39185D01*
X35676Y-39185D01*
X35733Y-39204D01*
X35961Y-39433D01*
X35961Y-39185D01*
X38461Y-45566D02*
X38271Y-45699D01*
X38461Y-45795D02*
X38061Y-45795D01*
X38061Y-45642D01*
X38080Y-45604D01*
X38100Y-45585D01*
X38138Y-45566D01*
X38195Y-45566D01*
X38233Y-45585D01*
X38252Y-45604D01*
X38271Y-45642D01*
X38271Y-45795D01*
X38461Y-45185D02*
X38461Y-45414D01*
X38461Y-45299D02*
X38061Y-45299D01*
X38119Y-45338D01*
X38157Y-45376D01*
X38176Y-45414D01*
X30861Y-38295D02*
X30461Y-38295D01*
X30861Y-38066D02*
X30633Y-38238D01*
X30461Y-38066D02*
X30690Y-38295D01*
X30861Y-37685D02*
X30861Y-37914D01*
X30861Y-37799D02*
X30461Y-37799D01*
X30519Y-37838D01*
X30557Y-37876D01*
X30576Y-37914D01*
X33323Y-45566D02*
X33342Y-45585D01*
X33361Y-45642D01*
X33361Y-45680D01*
X33342Y-45738D01*
X33304Y-45776D01*
X33266Y-45795D01*
X33190Y-45814D01*
X33133Y-45814D01*
X33057Y-45795D01*
X33019Y-45776D01*
X32980Y-45738D01*
X32961Y-45680D01*
X32961Y-45642D01*
X32980Y-45585D01*
X33000Y-45566D01*
X33361Y-45185D02*
X33361Y-45414D01*
X33361Y-45299D02*
X32961Y-45299D01*
X33019Y-45338D01*
X33057Y-45376D01*
X33076Y-45414D01*
M02*
