G04 (created by PCBNEW (2013-jul-07)-stable) date Mon 21 Nov 2016 11:23:47 AM PST*
%MOIN*%
G04 Gerber Fmt 3.4, Leading zero omitted, Abs format*
%FSLAX34Y34*%
G01*
G70*
G90*
G04 APERTURE LIST*
%ADD10C,0.00590551*%
%ADD11C,0.06*%
%ADD12R,0.06X0.06*%
%ADD13C,0.065*%
%ADD14R,0.063X0.063*%
%ADD15C,0.063*%
%ADD16R,0.07X0.07*%
%ADD17C,0.07*%
%ADD18C,0.15*%
%ADD19C,0.035*%
%ADD20C,0.01*%
%ADD21C,0.02*%
G04 APERTURE END LIST*
G54D10*
G54D11*
X20700Y-37200D03*
X21700Y-37200D03*
X22700Y-37200D03*
X23700Y-37200D03*
X24700Y-37200D03*
X25700Y-37200D03*
X26700Y-37200D03*
X27700Y-37200D03*
X28700Y-37200D03*
X29700Y-37200D03*
X30700Y-37200D03*
X31700Y-37200D03*
X32700Y-37200D03*
X33700Y-37200D03*
X33700Y-36200D03*
X33700Y-35200D03*
X33700Y-34200D03*
X33700Y-33200D03*
X33700Y-32200D03*
X33700Y-31200D03*
X32700Y-31200D03*
X31700Y-31200D03*
X30700Y-31200D03*
X29700Y-31200D03*
X28700Y-31200D03*
X27700Y-31200D03*
X26700Y-31200D03*
X25700Y-31200D03*
X24700Y-31200D03*
X23700Y-31200D03*
X22700Y-31200D03*
X21700Y-31200D03*
X20700Y-31200D03*
X26700Y-34200D03*
X27700Y-34200D03*
X28700Y-34200D03*
X29700Y-34200D03*
X30700Y-34200D03*
X31700Y-34200D03*
X32700Y-34200D03*
X32700Y-33200D03*
X31700Y-33200D03*
X30700Y-33200D03*
X29700Y-33200D03*
X28700Y-33200D03*
X27700Y-33200D03*
X26700Y-33200D03*
X25700Y-32200D03*
X24700Y-32200D03*
X23700Y-32200D03*
X21700Y-32200D03*
G54D12*
X69100Y-45300D03*
G54D11*
X69100Y-46300D03*
X69100Y-47300D03*
G54D12*
X50100Y-54000D03*
G54D11*
X50100Y-53000D03*
X51100Y-54000D03*
X51100Y-53000D03*
G54D12*
X45600Y-54000D03*
G54D11*
X45600Y-53000D03*
X46600Y-54000D03*
X46600Y-53000D03*
G54D12*
X46000Y-21000D03*
G54D11*
X46000Y-22000D03*
G54D12*
X41100Y-22000D03*
G54D11*
X41100Y-21000D03*
G54D12*
X22000Y-40300D03*
G54D11*
X21000Y-40300D03*
G54D12*
X49800Y-21000D03*
G54D11*
X49800Y-22000D03*
G54D12*
X21000Y-28250D03*
G54D11*
X22000Y-28250D03*
G54D12*
X53300Y-21000D03*
G54D11*
X53300Y-22000D03*
G54D12*
X57600Y-21000D03*
G54D11*
X57600Y-22000D03*
G54D12*
X55400Y-52900D03*
G54D11*
X55400Y-53900D03*
G54D12*
X61900Y-21100D03*
G54D11*
X61900Y-22100D03*
G54D12*
X64200Y-52900D03*
G54D11*
X64200Y-53900D03*
G54D12*
X59800Y-52900D03*
G54D11*
X59800Y-53900D03*
G54D12*
X65100Y-21000D03*
G54D11*
X65100Y-22000D03*
G54D12*
X37500Y-21000D03*
G54D11*
X37500Y-22000D03*
G54D12*
X34000Y-21000D03*
G54D11*
X34000Y-22000D03*
G54D13*
X25200Y-21300D03*
X26200Y-21300D03*
X27200Y-21300D03*
X28200Y-21300D03*
X29200Y-21300D03*
X30200Y-21300D03*
G54D14*
X74500Y-27311D03*
G54D15*
X74500Y-28689D03*
G54D14*
X74500Y-31811D03*
G54D15*
X74500Y-33189D03*
G54D14*
X74500Y-36311D03*
G54D15*
X74500Y-37689D03*
G54D16*
X30300Y-52000D03*
G54D17*
X30300Y-53000D03*
X29300Y-52000D03*
X29300Y-53000D03*
X28300Y-52000D03*
X28300Y-53000D03*
X27300Y-52000D03*
X27300Y-53000D03*
X26300Y-52000D03*
X26300Y-53000D03*
G54D16*
X40500Y-52000D03*
G54D17*
X40500Y-53000D03*
X39500Y-52000D03*
X39500Y-53000D03*
X38500Y-52000D03*
X38500Y-53000D03*
X37500Y-52000D03*
X37500Y-53000D03*
X36500Y-52000D03*
X36500Y-53000D03*
G54D18*
X68500Y-53500D03*
X21500Y-53500D03*
X21500Y-21500D03*
X68500Y-21500D03*
G54D19*
X48430Y-37494D03*
X44829Y-39749D03*
X37784Y-27940D03*
X52931Y-42735D03*
X54059Y-45534D03*
X44003Y-34182D03*
X43946Y-39106D03*
X61761Y-37611D03*
X31000Y-27390D03*
X45875Y-28539D03*
X47217Y-28971D03*
X40657Y-40431D03*
X40845Y-37214D03*
X45478Y-25855D03*
X28414Y-50735D03*
X27837Y-37842D03*
X42758Y-29817D03*
X40885Y-26121D03*
X41241Y-24931D03*
X56050Y-44625D03*
X51640Y-34584D03*
X54967Y-28104D03*
X53932Y-33035D03*
X45254Y-29812D03*
X32183Y-47054D03*
X42015Y-30126D03*
X50952Y-46537D03*
X43200Y-37847D03*
X46852Y-43976D03*
X41040Y-37667D03*
X55070Y-43850D03*
X40661Y-29802D03*
X55592Y-47107D03*
X51490Y-40522D03*
X55056Y-45968D03*
X57544Y-34813D03*
X55410Y-43053D03*
X53854Y-40211D03*
X56130Y-34771D03*
X53339Y-40731D03*
G54D20*
X37500Y-21000D02*
X37500Y-22000D01*
X44829Y-34512D02*
X44829Y-37494D01*
X40356Y-30039D02*
X44829Y-34512D01*
X40356Y-29676D02*
X40356Y-30039D01*
X41190Y-28842D02*
X40356Y-29676D01*
X41190Y-25690D02*
X41190Y-28842D01*
X37500Y-22000D02*
X41190Y-25690D01*
X48430Y-37494D02*
X44829Y-37494D01*
X44829Y-37494D02*
X44829Y-39749D01*
X34000Y-21000D02*
X34000Y-22000D01*
X34000Y-24155D02*
X37784Y-27940D01*
X34000Y-22000D02*
X34000Y-24155D01*
X37784Y-27962D02*
X44003Y-34182D01*
X37784Y-27940D02*
X37784Y-27962D01*
X52931Y-44407D02*
X54059Y-45534D01*
X52931Y-42735D02*
X52931Y-44407D01*
X44003Y-39106D02*
X43946Y-39106D01*
X44003Y-39362D02*
X44003Y-39106D01*
X47377Y-42735D02*
X44003Y-39362D01*
X52931Y-42735D02*
X47377Y-42735D01*
X44003Y-39106D02*
X44003Y-34182D01*
G54D21*
X61761Y-48238D02*
X61761Y-37611D01*
X55617Y-54383D02*
X61761Y-48238D01*
X51483Y-54383D02*
X55617Y-54383D01*
X51100Y-54000D02*
X51483Y-54383D01*
X34483Y-34915D02*
X34198Y-35200D01*
X34483Y-30873D02*
X34483Y-34915D01*
X31000Y-27390D02*
X34483Y-30873D01*
X33700Y-35200D02*
X34198Y-35200D01*
X46100Y-53500D02*
X46600Y-54000D01*
X46100Y-47101D02*
X46100Y-53500D01*
X34198Y-35200D02*
X46100Y-47101D01*
X45600Y-54000D02*
X46080Y-54000D01*
X50100Y-54000D02*
X49619Y-54000D01*
X47207Y-54082D02*
X47207Y-54000D01*
X46810Y-54480D02*
X47207Y-54082D01*
X46380Y-54480D02*
X46810Y-54480D01*
X46080Y-54180D02*
X46380Y-54480D01*
X46080Y-54000D02*
X46080Y-54180D01*
X47207Y-54000D02*
X49619Y-54000D01*
X47207Y-43356D02*
X47207Y-54000D01*
X43411Y-39559D02*
X47207Y-43356D01*
X43411Y-39277D02*
X43411Y-39559D01*
X25434Y-21300D02*
X43411Y-39277D01*
X25200Y-21300D02*
X25434Y-21300D01*
G54D20*
X21000Y-28250D02*
X21430Y-28250D01*
X21700Y-28400D02*
X21700Y-31200D01*
X21850Y-28400D02*
X21700Y-28400D01*
X22000Y-28250D02*
X21850Y-28400D01*
X21580Y-28400D02*
X21430Y-28250D01*
X21700Y-28400D02*
X21580Y-28400D01*
X40657Y-37402D02*
X40657Y-40431D01*
X40845Y-37214D02*
X40657Y-37402D01*
X74945Y-33634D02*
X74500Y-33189D01*
X74945Y-37243D02*
X74945Y-33634D01*
X74500Y-37689D02*
X74945Y-37243D01*
X74945Y-32743D02*
X74500Y-33189D01*
X74945Y-29134D02*
X74945Y-32743D01*
X74500Y-28689D02*
X74945Y-29134D01*
X46786Y-28539D02*
X47217Y-28971D01*
X45875Y-28539D02*
X46786Y-28539D01*
X45875Y-26252D02*
X45478Y-25855D01*
X45875Y-28539D02*
X45875Y-26252D01*
X31700Y-48200D02*
X31700Y-37200D01*
X36500Y-53000D02*
X31700Y-48200D01*
X57600Y-22000D02*
X57600Y-21000D01*
X69100Y-33156D02*
X74500Y-27756D01*
X69100Y-45300D02*
X69100Y-33156D01*
X74500Y-27310D02*
X74500Y-27756D01*
X28700Y-36269D02*
X28700Y-34200D01*
X28266Y-36703D02*
X28700Y-36269D01*
X28266Y-50587D02*
X28266Y-36703D01*
X28414Y-50735D02*
X28266Y-50587D01*
X29130Y-34769D02*
X29700Y-34200D01*
X29130Y-50457D02*
X29130Y-34769D01*
X27810Y-51777D02*
X29130Y-50457D01*
X27810Y-53203D02*
X27810Y-51777D01*
X28089Y-53483D02*
X27810Y-53203D01*
X28816Y-53483D02*
X28089Y-53483D01*
X29300Y-53000D02*
X28816Y-53483D01*
X30130Y-34769D02*
X30700Y-34200D01*
X30130Y-49915D02*
X30130Y-34769D01*
X28300Y-51745D02*
X30130Y-49915D01*
X28300Y-52000D02*
X28300Y-51745D01*
X28780Y-52519D02*
X28300Y-53000D01*
X28780Y-51519D02*
X28780Y-52519D01*
X31230Y-49070D02*
X28780Y-51519D01*
X31230Y-34670D02*
X31230Y-49070D01*
X31700Y-34200D02*
X31230Y-34670D01*
X27837Y-51462D02*
X27837Y-37842D01*
X27300Y-52000D02*
X27837Y-51462D01*
X26816Y-53483D02*
X27300Y-53000D01*
X26097Y-53483D02*
X26816Y-53483D01*
X25248Y-52635D02*
X26097Y-53483D01*
X25248Y-34034D02*
X25248Y-52635D01*
X26713Y-32569D02*
X25248Y-34034D01*
X26939Y-32569D02*
X26713Y-32569D01*
X28200Y-31309D02*
X26939Y-32569D01*
X28200Y-31082D02*
X28200Y-31309D01*
X28521Y-30761D02*
X28200Y-31082D01*
X28870Y-30761D02*
X28521Y-30761D01*
X29200Y-31091D02*
X28870Y-30761D01*
X29200Y-31312D02*
X29200Y-31091D01*
X29905Y-32017D02*
X29200Y-31312D01*
X31517Y-32017D02*
X29905Y-32017D01*
X32700Y-33200D02*
X31517Y-32017D01*
X31250Y-32750D02*
X31700Y-33200D01*
X27527Y-32750D02*
X31250Y-32750D01*
X27136Y-33141D02*
X27527Y-32750D01*
X27136Y-35059D02*
X27136Y-33141D01*
X26263Y-35932D02*
X27136Y-35059D01*
X26263Y-51963D02*
X26263Y-35932D01*
X26300Y-52000D02*
X26263Y-51963D01*
X30250Y-33649D02*
X30700Y-33200D01*
X28635Y-33649D02*
X30250Y-33649D01*
X28269Y-34014D02*
X28635Y-33649D01*
X28269Y-35994D02*
X28269Y-34014D01*
X27258Y-37005D02*
X28269Y-35994D01*
X27258Y-37661D02*
X27258Y-37005D01*
X26800Y-38120D02*
X27258Y-37661D01*
X26800Y-52500D02*
X26800Y-38120D01*
X26300Y-53000D02*
X26800Y-52500D01*
X49800Y-22000D02*
X49800Y-21000D01*
X53300Y-22000D02*
X53300Y-21000D01*
X46000Y-21000D02*
X46000Y-22000D01*
X42758Y-25241D02*
X42758Y-29817D01*
X46000Y-22000D02*
X42758Y-25241D01*
G54D21*
X20700Y-40000D02*
X20700Y-37200D01*
X21000Y-40300D02*
X20700Y-40000D01*
X24066Y-30139D02*
X24677Y-30139D01*
X23200Y-31006D02*
X24066Y-30139D01*
X23200Y-34700D02*
X23200Y-31006D01*
X20700Y-37200D02*
X23200Y-34700D01*
X25692Y-20792D02*
X26200Y-21300D01*
X24984Y-20792D02*
X25692Y-20792D01*
X24677Y-21099D02*
X24984Y-20792D01*
X24677Y-30139D02*
X24677Y-21099D01*
X34198Y-33701D02*
X33700Y-34200D01*
X34198Y-31014D02*
X34198Y-33701D01*
X33323Y-30139D02*
X34198Y-31014D01*
X24677Y-30139D02*
X33323Y-30139D01*
X35283Y-20519D02*
X40885Y-26121D01*
X29980Y-20519D02*
X35283Y-20519D01*
X29200Y-21300D02*
X29980Y-20519D01*
G54D20*
X37500Y-41000D02*
X37500Y-52000D01*
X33700Y-37200D02*
X37500Y-41000D01*
X32700Y-48882D02*
X32700Y-37200D01*
X36317Y-52500D02*
X32700Y-48882D01*
X37000Y-52500D02*
X36317Y-52500D01*
X37500Y-53000D02*
X37000Y-52500D01*
X41100Y-21000D02*
X41100Y-22000D01*
X41100Y-22000D02*
X41100Y-22430D01*
X41241Y-22571D02*
X41100Y-22430D01*
X41241Y-24931D02*
X41241Y-22571D01*
X56050Y-44396D02*
X56050Y-44625D01*
X42086Y-30432D02*
X56050Y-44396D01*
X41884Y-30432D02*
X42086Y-30432D01*
X41538Y-30086D02*
X41884Y-30432D01*
X41538Y-25228D02*
X41538Y-30086D01*
X41241Y-24931D02*
X41538Y-25228D01*
X55400Y-53900D02*
X55400Y-52900D01*
X55400Y-52900D02*
X55400Y-52469D01*
X51640Y-39718D02*
X51640Y-34584D01*
X56368Y-44445D02*
X51640Y-39718D01*
X56368Y-51501D02*
X56368Y-44445D01*
X55400Y-52469D02*
X56368Y-51501D01*
X69669Y-45730D02*
X69100Y-46300D01*
X69669Y-37086D02*
X69669Y-45730D01*
X74500Y-32256D02*
X69669Y-37086D01*
X74500Y-31810D02*
X74500Y-32256D01*
X55961Y-31006D02*
X53932Y-33035D01*
X55961Y-29098D02*
X55961Y-31006D01*
X58001Y-29098D02*
X55961Y-29098D01*
X65100Y-22000D02*
X58001Y-29098D01*
X55961Y-29098D02*
X54967Y-28104D01*
X61900Y-21100D02*
X61900Y-22100D01*
X47237Y-29812D02*
X45254Y-29812D01*
X52373Y-24676D02*
X47237Y-29812D01*
X59323Y-24676D02*
X52373Y-24676D01*
X61900Y-22100D02*
X59323Y-24676D01*
X33265Y-31634D02*
X33700Y-31200D01*
X33265Y-48765D02*
X33265Y-31634D01*
X36500Y-52000D02*
X33265Y-48765D01*
X32183Y-33068D02*
X32183Y-47054D01*
X31685Y-32570D02*
X32183Y-33068D01*
X30070Y-32570D02*
X31685Y-32570D01*
X28700Y-31200D02*
X30070Y-32570D01*
X59800Y-53900D02*
X59800Y-52900D01*
X64200Y-53900D02*
X64200Y-52900D01*
X48801Y-30126D02*
X42015Y-30126D01*
X52583Y-33908D02*
X48801Y-30126D01*
X58503Y-33908D02*
X52583Y-33908D01*
X64200Y-39605D02*
X58503Y-33908D01*
X64200Y-52900D02*
X64200Y-39605D01*
X50922Y-46537D02*
X50952Y-46537D01*
X43641Y-39255D02*
X50922Y-46537D01*
X43641Y-38289D02*
X43641Y-39255D01*
X43200Y-37847D02*
X43641Y-38289D01*
X41040Y-38163D02*
X41040Y-37667D01*
X46852Y-43976D02*
X41040Y-38163D01*
X46188Y-35329D02*
X40661Y-29802D01*
X46729Y-35329D02*
X46188Y-35329D01*
X55070Y-43670D02*
X46729Y-35329D01*
X55070Y-43850D02*
X55070Y-43670D01*
X50536Y-52164D02*
X55592Y-47107D01*
X50536Y-54348D02*
X50536Y-52164D01*
X50155Y-54728D02*
X50536Y-54348D01*
X27086Y-54728D02*
X50155Y-54728D01*
X24130Y-51771D02*
X27086Y-54728D01*
X24130Y-31630D02*
X24130Y-51771D01*
X23700Y-31200D02*
X24130Y-31630D01*
X44600Y-52000D02*
X45600Y-53000D01*
X40500Y-52000D02*
X44600Y-52000D01*
X74500Y-36310D02*
X74054Y-36310D01*
X69849Y-40515D02*
X74054Y-36310D01*
X69849Y-46550D02*
X69849Y-40515D01*
X69100Y-47300D02*
X69849Y-46550D01*
X55056Y-44268D02*
X55056Y-45968D01*
X51490Y-40702D02*
X55056Y-44268D01*
X51490Y-40522D02*
X51490Y-40702D01*
X55410Y-36947D02*
X55410Y-40211D01*
X57544Y-34813D02*
X55410Y-36947D01*
X55410Y-40211D02*
X55410Y-43053D01*
X55410Y-40211D02*
X53854Y-40211D01*
X53339Y-37562D02*
X56130Y-34771D01*
X53339Y-40731D02*
X53339Y-37562D01*
M02*
