G04 (created by PCBNEW (2013-jul-07)-stable) date Thu 19 Jul 2018 04:00:03 PM PDT*
%MOIN*%
G04 Gerber Fmt 3.4, Leading zero omitted, Abs format*
%FSLAX34Y34*%
G01*
G70*
G90*
G04 APERTURE LIST*
%ADD10C,0.00590551*%
%ADD11R,0.06X0.06*%
%ADD12C,0.06*%
%ADD13R,0.0787402X0.0787402*%
%ADD14C,0.0787402*%
%ADD15R,0.07X0.07*%
%ADD16C,0.07*%
%ADD17C,0.15*%
G04 APERTURE END LIST*
G54D10*
G54D11*
X34010Y-55350D03*
G54D12*
X33980Y-56350D03*
X33980Y-57350D03*
G54D11*
X39000Y-31000D03*
G54D12*
X39000Y-32000D03*
G54D11*
X42500Y-31000D03*
G54D12*
X42500Y-32000D03*
G54D13*
X59500Y-46316D03*
G54D14*
X59500Y-47694D03*
X59500Y-49072D03*
X59500Y-50450D03*
X59500Y-51827D03*
X59500Y-53205D03*
X59500Y-54583D03*
X59500Y-41800D03*
G54D13*
X59500Y-40422D03*
G54D14*
X59500Y-43178D03*
G54D15*
X39400Y-62000D03*
G54D16*
X39400Y-63000D03*
X38400Y-62000D03*
X38400Y-63000D03*
X37400Y-62000D03*
X37400Y-63000D03*
X36400Y-62000D03*
X36400Y-63000D03*
X35400Y-62000D03*
X35400Y-63000D03*
G54D15*
X49600Y-62000D03*
G54D16*
X49600Y-63000D03*
X48600Y-62000D03*
X48600Y-63000D03*
X47600Y-62000D03*
X47600Y-63000D03*
X46600Y-62000D03*
X46600Y-63000D03*
X45600Y-62000D03*
X45600Y-63000D03*
G54D17*
X31500Y-31500D03*
X53500Y-31500D03*
X53500Y-63500D03*
X31500Y-63500D03*
M02*
