M48
;DRILL file {Pcbnew (2013-jul-07)-stable} date Thu 19 Jul 2018 04:00:06 PM PDT
;FORMAT={-:-/ absolute / inch / decimal}
FMAT,2
INCH,TZ
T1C0.025
T2C0.040
T3C0.047
T4C0.116
%
G90
G05
M72
T1
X3.8452Y-5.9948
X3.8475Y-4.9707
X4.0339Y-5.235
X4.0361Y-4.1228
X4.1328Y-4.805
X4.1397Y-5.4742
X4.1852Y-5.1123
X4.1996Y-4.7022
X4.2256Y-5.3447
X4.2603Y-4.917
X4.2603Y-5.4742
X4.3633Y-4.1914
X4.3646Y-5.0772
X4.4013Y-4.7447
X4.4391Y-5.054
X4.5861Y-4.1227
X4.6344Y-5.9988
X4.6678Y-5.2956
X4.7063Y-5.2617
X4.7152Y-4.1914
X4.76Y-4.0268
X4.8932Y-5.3289
X4.9064Y-4.0399
X5.0003Y-4.6859
X5.0211Y-3.976
X5.0703Y-5.3498
X5.2324Y-5.0953
X5.3175Y-5.064
T2
X3.398Y-5.635
X3.398Y-5.735
X3.401Y-5.535
X3.54Y-6.2
X3.54Y-6.3
X3.64Y-6.2
X3.64Y-6.3
X3.74Y-6.2
X3.74Y-6.3
X3.84Y-6.2
X3.84Y-6.3
X3.9Y-3.1
X3.9Y-3.2
X3.94Y-6.2
X3.94Y-6.3
X4.25Y-3.1
X4.25Y-3.2
X4.56Y-6.2
X4.56Y-6.3
X4.66Y-6.2
X4.66Y-6.3
X4.76Y-6.2
X4.76Y-6.3
X4.86Y-6.2
X4.86Y-6.3
X4.96Y-6.2
X4.96Y-6.3
T3
X5.95Y-4.0422
X5.95Y-4.18
X5.95Y-4.3178
X5.95Y-4.6316
X5.95Y-4.7694
X5.95Y-4.9072
X5.95Y-5.045
X5.95Y-5.1828
X5.95Y-5.3206
X5.95Y-5.4584
T4
X3.15Y-3.15
X3.15Y-6.35
X5.35Y-3.15
X5.35Y-6.35
T0
M30
