G04 (created by PCBNEW (2013-jul-07)-stable) date Thu 19 Jul 2018 04:00:03 PM PDT*
%MOIN*%
G04 Gerber Fmt 3.4, Leading zero omitted, Abs format*
%FSLAX34Y34*%
G01*
G70*
G90*
G04 APERTURE LIST*
%ADD10C,0.00590551*%
%ADD11R,0.06X0.06*%
%ADD12C,0.06*%
%ADD13R,0.0787402X0.0787402*%
%ADD14C,0.0787402*%
%ADD15R,0.07X0.07*%
%ADD16C,0.07*%
%ADD17C,0.15*%
%ADD18C,0.035*%
%ADD19C,0.015*%
G04 APERTURE END LIST*
G54D10*
G54D11*
X34010Y-55350D03*
G54D12*
X33980Y-56350D03*
X33980Y-57350D03*
G54D11*
X39000Y-31000D03*
G54D12*
X39000Y-32000D03*
G54D11*
X42500Y-31000D03*
G54D12*
X42500Y-32000D03*
G54D13*
X59500Y-46316D03*
G54D14*
X59500Y-47694D03*
X59500Y-49072D03*
X59500Y-50450D03*
X59500Y-51827D03*
X59500Y-53205D03*
X59500Y-54583D03*
X59500Y-41800D03*
G54D13*
X59500Y-40422D03*
G54D14*
X59500Y-43178D03*
G54D15*
X39400Y-62000D03*
G54D16*
X39400Y-63000D03*
X38400Y-62000D03*
X38400Y-63000D03*
X37400Y-62000D03*
X37400Y-63000D03*
X36400Y-62000D03*
X36400Y-63000D03*
X35400Y-62000D03*
X35400Y-63000D03*
G54D15*
X49600Y-62000D03*
G54D16*
X49600Y-63000D03*
X48600Y-62000D03*
X48600Y-63000D03*
X47600Y-62000D03*
X47600Y-63000D03*
X46600Y-62000D03*
X46600Y-63000D03*
X45600Y-62000D03*
X45600Y-63000D03*
G54D17*
X31500Y-31500D03*
X53500Y-31500D03*
X53500Y-63500D03*
X31500Y-63500D03*
G54D18*
X40339Y-52350D03*
X47062Y-52616D03*
X38475Y-49706D03*
X47600Y-40268D03*
X49063Y-40398D03*
X50210Y-39760D03*
X52324Y-50952D03*
X46343Y-59988D03*
X50702Y-53498D03*
X44391Y-50539D03*
X43646Y-50772D03*
X38452Y-59947D03*
X42255Y-53447D03*
X42602Y-54742D03*
X41397Y-54742D03*
X53175Y-50640D03*
X45861Y-41226D03*
X48931Y-53289D03*
X40360Y-41228D03*
X46678Y-52956D03*
X50003Y-46858D03*
X43633Y-41914D03*
X47152Y-41914D03*
X41995Y-47022D03*
X44012Y-47446D03*
X42602Y-49170D03*
X41327Y-48050D03*
X41852Y-51122D03*
G54D19*
X40605Y-52616D02*
X47062Y-52616D01*
X40339Y-52350D02*
X40605Y-52616D01*
X40339Y-51570D02*
X38475Y-49706D01*
X40339Y-52350D02*
X40339Y-51570D01*
X47600Y-40268D02*
X47600Y-40268D01*
X47268Y-40268D02*
X47600Y-40268D01*
X39000Y-32000D02*
X47268Y-40268D01*
X34010Y-55350D02*
X34010Y-54894D01*
X49063Y-40476D02*
X49063Y-40398D01*
X42940Y-46600D02*
X49063Y-40476D01*
X41112Y-46600D02*
X42940Y-46600D01*
X37824Y-49888D02*
X41112Y-46600D01*
X37824Y-51080D02*
X37824Y-49888D01*
X34010Y-54894D02*
X37824Y-51080D01*
X57460Y-39760D02*
X50210Y-39760D01*
X59500Y-41800D02*
X57460Y-39760D01*
X45094Y-58182D02*
X52324Y-50952D01*
X45094Y-63209D02*
X45094Y-58182D01*
X45403Y-63517D02*
X45094Y-63209D01*
X46082Y-63517D02*
X45403Y-63517D01*
X46600Y-63000D02*
X46082Y-63517D01*
X46600Y-60244D02*
X46343Y-59988D01*
X46600Y-62000D02*
X46600Y-60244D01*
X50702Y-58897D02*
X50702Y-53498D01*
X47600Y-62000D02*
X50702Y-58897D01*
X38928Y-63528D02*
X38400Y-63000D01*
X39585Y-63528D02*
X38928Y-63528D01*
X44625Y-58489D02*
X39585Y-63528D01*
X44625Y-58100D02*
X44625Y-58489D01*
X49278Y-53446D02*
X44625Y-58100D01*
X49278Y-53160D02*
X49278Y-53446D01*
X46658Y-50539D02*
X49278Y-53160D01*
X44391Y-50539D02*
X46658Y-50539D01*
X45883Y-53516D02*
X37400Y-62000D01*
X46644Y-53516D02*
X45883Y-53516D01*
X47397Y-52763D02*
X46644Y-53516D01*
X47397Y-52446D02*
X47397Y-52763D01*
X46050Y-51100D02*
X47397Y-52446D01*
X43974Y-51100D02*
X46050Y-51100D01*
X43646Y-50772D02*
X43974Y-51100D01*
X36400Y-62000D02*
X38452Y-59947D01*
X42211Y-53447D02*
X42255Y-53447D01*
X34630Y-61028D02*
X42211Y-53447D01*
X34630Y-62944D02*
X34630Y-61028D01*
X35214Y-63528D02*
X34630Y-62944D01*
X35871Y-63528D02*
X35214Y-63528D01*
X36400Y-63000D02*
X35871Y-63528D01*
X35400Y-61945D02*
X42602Y-54742D01*
X35400Y-62000D02*
X35400Y-61945D01*
X34869Y-61269D02*
X41397Y-54742D01*
X34869Y-62469D02*
X34869Y-61269D01*
X35400Y-63000D02*
X34869Y-62469D01*
X53175Y-60139D02*
X53175Y-50640D01*
X49805Y-63508D02*
X53175Y-60139D01*
X49108Y-63508D02*
X49805Y-63508D01*
X48600Y-63000D02*
X49108Y-63508D01*
X48931Y-53468D02*
X48931Y-53289D01*
X39400Y-63000D02*
X48931Y-53468D01*
X59500Y-40422D02*
X58951Y-40422D01*
X45859Y-41228D02*
X45861Y-41226D01*
X40360Y-41228D02*
X45859Y-41228D01*
X57946Y-39417D02*
X58951Y-40422D01*
X49165Y-39417D02*
X57946Y-39417D01*
X47356Y-41226D02*
X49165Y-39417D01*
X45861Y-41226D02*
X47356Y-41226D01*
X37373Y-52956D02*
X46678Y-52956D01*
X33980Y-56350D02*
X37373Y-52956D01*
X55819Y-46858D02*
X59500Y-43177D01*
X50003Y-46858D02*
X55819Y-46858D01*
X47152Y-41914D02*
X43633Y-41914D01*
X59500Y-46316D02*
X58951Y-46316D01*
X49046Y-47022D02*
X41995Y-47022D01*
X49215Y-47191D02*
X49046Y-47022D01*
X58076Y-47191D02*
X49215Y-47191D01*
X58951Y-46316D02*
X58076Y-47191D01*
X59252Y-47446D02*
X44012Y-47446D01*
X59500Y-47694D02*
X59252Y-47446D01*
X59401Y-49170D02*
X42602Y-49170D01*
X59500Y-49072D02*
X59401Y-49170D01*
X42765Y-50209D02*
X41852Y-51122D01*
X59259Y-50209D02*
X42765Y-50209D01*
X59500Y-50450D02*
X59259Y-50209D01*
X41327Y-48772D02*
X41327Y-48050D01*
X42765Y-50209D02*
X41327Y-48772D01*
M02*
