%TF.GenerationSoftware,KiCad,Pcbnew,5.1.7-a382d34a8~87~ubuntu18.04.1*%
%TF.CreationDate,2021-05-06T09:45:46-07:00*%
%TF.ProjectId,multiplexer,6d756c74-6970-46c6-9578-65722e6b6963,rev?*%
%TF.SameCoordinates,Original*%
%TF.FileFunction,Soldermask,Bot*%
%TF.FilePolarity,Negative*%
%FSLAX46Y46*%
G04 Gerber Fmt 4.6, Leading zero omitted, Abs format (unit mm)*
G04 Created by KiCad (PCBNEW 5.1.7-a382d34a8~87~ubuntu18.04.1) date 2021-05-06 09:45:46*
%MOMM*%
%LPD*%
G01*
G04 APERTURE LIST*
%ADD10C,3.810000*%
%ADD11R,1.700000X1.700000*%
%ADD12O,1.700000X1.700000*%
%ADD13C,1.700000*%
G04 APERTURE END LIST*
D10*
%TO.C,M1*%
X80010000Y-80010000D03*
%TD*%
%TO.C,M2*%
X135890000Y-80010000D03*
%TD*%
%TO.C,M3*%
X135890000Y-161290000D03*
%TD*%
%TO.C,4-40*%
X80010000Y-161290000D03*
%TD*%
D11*
%TO.C,K1*%
X86309200Y-140589000D03*
D12*
X86309200Y-143129000D03*
X86309200Y-145669000D03*
%TD*%
D13*
%TO.C,P1*%
X89916000Y-160020000D03*
X89916000Y-157480000D03*
X92456000Y-160020000D03*
X92456000Y-157480000D03*
X94996000Y-160020000D03*
X94996000Y-157480000D03*
X97536000Y-160020000D03*
X97536000Y-157480000D03*
X100076000Y-160020000D03*
D11*
X100076000Y-157480000D03*
%TD*%
%TO.C,P2*%
X125984000Y-157480000D03*
D13*
X125984000Y-160020000D03*
X123444000Y-157480000D03*
X123444000Y-160020000D03*
X120904000Y-157480000D03*
X120904000Y-160020000D03*
X118364000Y-157480000D03*
X118364000Y-160020000D03*
X115824000Y-157480000D03*
X115824000Y-160020000D03*
%TD*%
D11*
%TO.C,P3*%
X107950000Y-78740000D03*
D12*
X107950000Y-81280000D03*
%TD*%
%TO.C,P4*%
X99060000Y-81280000D03*
D11*
X99060000Y-78740000D03*
%TD*%
%TO.C,P5*%
X151130000Y-115570000D03*
D13*
X153670000Y-115570000D03*
X151130000Y-118110000D03*
X153670000Y-118110000D03*
X151130000Y-120650000D03*
X153670000Y-120650000D03*
X151130000Y-123190000D03*
X153670000Y-123190000D03*
X151130000Y-125730000D03*
X153670000Y-125730000D03*
%TD*%
M02*
