%TF.GenerationSoftware,KiCad,Pcbnew,5.1.7-a382d34a8~87~ubuntu18.04.1*%
%TF.CreationDate,2021-05-06T09:45:45-07:00*%
%TF.ProjectId,multiplexer,6d756c74-6970-46c6-9578-65722e6b6963,rev?*%
%TF.SameCoordinates,Original*%
%TF.FileFunction,Paste,Top*%
%TF.FilePolarity,Positive*%
%FSLAX46Y46*%
G04 Gerber Fmt 4.6, Leading zero omitted, Abs format (unit mm)*
G04 Created by KiCad (PCBNEW 5.1.7-a382d34a8~87~ubuntu18.04.1) date 2021-05-06 09:45:45*
%MOMM*%
%LPD*%
G01*
G04 APERTURE LIST*
G04 APERTURE END LIST*
%TO.C,C1*%
G36*
G01*
X100909000Y-103755000D02*
X100909000Y-103255000D01*
G75*
G02*
X101134000Y-103030000I225000J0D01*
G01*
X101584000Y-103030000D01*
G75*
G02*
X101809000Y-103255000I0J-225000D01*
G01*
X101809000Y-103755000D01*
G75*
G02*
X101584000Y-103980000I-225000J0D01*
G01*
X101134000Y-103980000D01*
G75*
G02*
X100909000Y-103755000I0J225000D01*
G01*
G37*
G36*
G01*
X99359000Y-103755000D02*
X99359000Y-103255000D01*
G75*
G02*
X99584000Y-103030000I225000J0D01*
G01*
X100034000Y-103030000D01*
G75*
G02*
X100259000Y-103255000I0J-225000D01*
G01*
X100259000Y-103755000D01*
G75*
G02*
X100034000Y-103980000I-225000J0D01*
G01*
X99584000Y-103980000D01*
G75*
G02*
X99359000Y-103755000I0J225000D01*
G01*
G37*
%TD*%
%TO.C,C2*%
G36*
G01*
X100909000Y-133219000D02*
X100909000Y-132719000D01*
G75*
G02*
X101134000Y-132494000I225000J0D01*
G01*
X101584000Y-132494000D01*
G75*
G02*
X101809000Y-132719000I0J-225000D01*
G01*
X101809000Y-133219000D01*
G75*
G02*
X101584000Y-133444000I-225000J0D01*
G01*
X101134000Y-133444000D01*
G75*
G02*
X100909000Y-133219000I0J225000D01*
G01*
G37*
G36*
G01*
X99359000Y-133219000D02*
X99359000Y-132719000D01*
G75*
G02*
X99584000Y-132494000I225000J0D01*
G01*
X100034000Y-132494000D01*
G75*
G02*
X100259000Y-132719000I0J-225000D01*
G01*
X100259000Y-133219000D01*
G75*
G02*
X100034000Y-133444000I-225000J0D01*
G01*
X99584000Y-133444000D01*
G75*
G02*
X99359000Y-133219000I0J225000D01*
G01*
G37*
%TD*%
%TO.C,C3*%
G36*
G01*
X111551000Y-103628000D02*
X111551000Y-103128000D01*
G75*
G02*
X111776000Y-102903000I225000J0D01*
G01*
X112226000Y-102903000D01*
G75*
G02*
X112451000Y-103128000I0J-225000D01*
G01*
X112451000Y-103628000D01*
G75*
G02*
X112226000Y-103853000I-225000J0D01*
G01*
X111776000Y-103853000D01*
G75*
G02*
X111551000Y-103628000I0J225000D01*
G01*
G37*
G36*
G01*
X113101000Y-103628000D02*
X113101000Y-103128000D01*
G75*
G02*
X113326000Y-102903000I225000J0D01*
G01*
X113776000Y-102903000D01*
G75*
G02*
X114001000Y-103128000I0J-225000D01*
G01*
X114001000Y-103628000D01*
G75*
G02*
X113776000Y-103853000I-225000J0D01*
G01*
X113326000Y-103853000D01*
G75*
G02*
X113101000Y-103628000I0J225000D01*
G01*
G37*
%TD*%
%TO.C,C4*%
G36*
G01*
X111551000Y-133092000D02*
X111551000Y-132592000D01*
G75*
G02*
X111776000Y-132367000I225000J0D01*
G01*
X112226000Y-132367000D01*
G75*
G02*
X112451000Y-132592000I0J-225000D01*
G01*
X112451000Y-133092000D01*
G75*
G02*
X112226000Y-133317000I-225000J0D01*
G01*
X111776000Y-133317000D01*
G75*
G02*
X111551000Y-133092000I0J225000D01*
G01*
G37*
G36*
G01*
X113101000Y-133092000D02*
X113101000Y-132592000D01*
G75*
G02*
X113326000Y-132367000I225000J0D01*
G01*
X113776000Y-132367000D01*
G75*
G02*
X114001000Y-132592000I0J-225000D01*
G01*
X114001000Y-133092000D01*
G75*
G02*
X113776000Y-133317000I-225000J0D01*
G01*
X113326000Y-133317000D01*
G75*
G02*
X113101000Y-133092000I0J225000D01*
G01*
G37*
%TD*%
%TO.C,C5*%
G36*
G01*
X123007000Y-103755000D02*
X123007000Y-103255000D01*
G75*
G02*
X123232000Y-103030000I225000J0D01*
G01*
X123682000Y-103030000D01*
G75*
G02*
X123907000Y-103255000I0J-225000D01*
G01*
X123907000Y-103755000D01*
G75*
G02*
X123682000Y-103980000I-225000J0D01*
G01*
X123232000Y-103980000D01*
G75*
G02*
X123007000Y-103755000I0J225000D01*
G01*
G37*
G36*
G01*
X121457000Y-103755000D02*
X121457000Y-103255000D01*
G75*
G02*
X121682000Y-103030000I225000J0D01*
G01*
X122132000Y-103030000D01*
G75*
G02*
X122357000Y-103255000I0J-225000D01*
G01*
X122357000Y-103755000D01*
G75*
G02*
X122132000Y-103980000I-225000J0D01*
G01*
X121682000Y-103980000D01*
G75*
G02*
X121457000Y-103755000I0J225000D01*
G01*
G37*
%TD*%
%TO.C,C6*%
G36*
G01*
X121457000Y-133219000D02*
X121457000Y-132719000D01*
G75*
G02*
X121682000Y-132494000I225000J0D01*
G01*
X122132000Y-132494000D01*
G75*
G02*
X122357000Y-132719000I0J-225000D01*
G01*
X122357000Y-133219000D01*
G75*
G02*
X122132000Y-133444000I-225000J0D01*
G01*
X121682000Y-133444000D01*
G75*
G02*
X121457000Y-133219000I0J225000D01*
G01*
G37*
G36*
G01*
X123007000Y-133219000D02*
X123007000Y-132719000D01*
G75*
G02*
X123232000Y-132494000I225000J0D01*
G01*
X123682000Y-132494000D01*
G75*
G02*
X123907000Y-132719000I0J-225000D01*
G01*
X123907000Y-133219000D01*
G75*
G02*
X123682000Y-133444000I-225000J0D01*
G01*
X123232000Y-133444000D01*
G75*
G02*
X123007000Y-133219000I0J225000D01*
G01*
G37*
%TD*%
%TO.C,C7*%
G36*
G01*
X133649000Y-103628000D02*
X133649000Y-103128000D01*
G75*
G02*
X133874000Y-102903000I225000J0D01*
G01*
X134324000Y-102903000D01*
G75*
G02*
X134549000Y-103128000I0J-225000D01*
G01*
X134549000Y-103628000D01*
G75*
G02*
X134324000Y-103853000I-225000J0D01*
G01*
X133874000Y-103853000D01*
G75*
G02*
X133649000Y-103628000I0J225000D01*
G01*
G37*
G36*
G01*
X135199000Y-103628000D02*
X135199000Y-103128000D01*
G75*
G02*
X135424000Y-102903000I225000J0D01*
G01*
X135874000Y-102903000D01*
G75*
G02*
X136099000Y-103128000I0J-225000D01*
G01*
X136099000Y-103628000D01*
G75*
G02*
X135874000Y-103853000I-225000J0D01*
G01*
X135424000Y-103853000D01*
G75*
G02*
X135199000Y-103628000I0J225000D01*
G01*
G37*
%TD*%
%TO.C,C8*%
G36*
G01*
X135199000Y-133092000D02*
X135199000Y-132592000D01*
G75*
G02*
X135424000Y-132367000I225000J0D01*
G01*
X135874000Y-132367000D01*
G75*
G02*
X136099000Y-132592000I0J-225000D01*
G01*
X136099000Y-133092000D01*
G75*
G02*
X135874000Y-133317000I-225000J0D01*
G01*
X135424000Y-133317000D01*
G75*
G02*
X135199000Y-133092000I0J225000D01*
G01*
G37*
G36*
G01*
X133649000Y-133092000D02*
X133649000Y-132592000D01*
G75*
G02*
X133874000Y-132367000I225000J0D01*
G01*
X134324000Y-132367000D01*
G75*
G02*
X134549000Y-132592000I0J-225000D01*
G01*
X134549000Y-133092000D01*
G75*
G02*
X134324000Y-133317000I-225000J0D01*
G01*
X133874000Y-133317000D01*
G75*
G02*
X133649000Y-133092000I0J225000D01*
G01*
G37*
%TD*%
%TO.C,C9*%
G36*
G01*
X111551000Y-105152000D02*
X111551000Y-104652000D01*
G75*
G02*
X111776000Y-104427000I225000J0D01*
G01*
X112226000Y-104427000D01*
G75*
G02*
X112451000Y-104652000I0J-225000D01*
G01*
X112451000Y-105152000D01*
G75*
G02*
X112226000Y-105377000I-225000J0D01*
G01*
X111776000Y-105377000D01*
G75*
G02*
X111551000Y-105152000I0J225000D01*
G01*
G37*
G36*
G01*
X113101000Y-105152000D02*
X113101000Y-104652000D01*
G75*
G02*
X113326000Y-104427000I225000J0D01*
G01*
X113776000Y-104427000D01*
G75*
G02*
X114001000Y-104652000I0J-225000D01*
G01*
X114001000Y-105152000D01*
G75*
G02*
X113776000Y-105377000I-225000J0D01*
G01*
X113326000Y-105377000D01*
G75*
G02*
X113101000Y-105152000I0J225000D01*
G01*
G37*
%TD*%
%TO.C,C10*%
G36*
G01*
X113101000Y-134616000D02*
X113101000Y-134116000D01*
G75*
G02*
X113326000Y-133891000I225000J0D01*
G01*
X113776000Y-133891000D01*
G75*
G02*
X114001000Y-134116000I0J-225000D01*
G01*
X114001000Y-134616000D01*
G75*
G02*
X113776000Y-134841000I-225000J0D01*
G01*
X113326000Y-134841000D01*
G75*
G02*
X113101000Y-134616000I0J225000D01*
G01*
G37*
G36*
G01*
X111551000Y-134616000D02*
X111551000Y-134116000D01*
G75*
G02*
X111776000Y-133891000I225000J0D01*
G01*
X112226000Y-133891000D01*
G75*
G02*
X112451000Y-134116000I0J-225000D01*
G01*
X112451000Y-134616000D01*
G75*
G02*
X112226000Y-134841000I-225000J0D01*
G01*
X111776000Y-134841000D01*
G75*
G02*
X111551000Y-134616000I0J225000D01*
G01*
G37*
%TD*%
%TO.C,C11*%
G36*
G01*
X133649000Y-105152000D02*
X133649000Y-104652000D01*
G75*
G02*
X133874000Y-104427000I225000J0D01*
G01*
X134324000Y-104427000D01*
G75*
G02*
X134549000Y-104652000I0J-225000D01*
G01*
X134549000Y-105152000D01*
G75*
G02*
X134324000Y-105377000I-225000J0D01*
G01*
X133874000Y-105377000D01*
G75*
G02*
X133649000Y-105152000I0J225000D01*
G01*
G37*
G36*
G01*
X135199000Y-105152000D02*
X135199000Y-104652000D01*
G75*
G02*
X135424000Y-104427000I225000J0D01*
G01*
X135874000Y-104427000D01*
G75*
G02*
X136099000Y-104652000I0J-225000D01*
G01*
X136099000Y-105152000D01*
G75*
G02*
X135874000Y-105377000I-225000J0D01*
G01*
X135424000Y-105377000D01*
G75*
G02*
X135199000Y-105152000I0J225000D01*
G01*
G37*
%TD*%
%TO.C,C12*%
G36*
G01*
X135199000Y-134616000D02*
X135199000Y-134116000D01*
G75*
G02*
X135424000Y-133891000I225000J0D01*
G01*
X135874000Y-133891000D01*
G75*
G02*
X136099000Y-134116000I0J-225000D01*
G01*
X136099000Y-134616000D01*
G75*
G02*
X135874000Y-134841000I-225000J0D01*
G01*
X135424000Y-134841000D01*
G75*
G02*
X135199000Y-134616000I0J225000D01*
G01*
G37*
G36*
G01*
X133649000Y-134616000D02*
X133649000Y-134116000D01*
G75*
G02*
X133874000Y-133891000I225000J0D01*
G01*
X134324000Y-133891000D01*
G75*
G02*
X134549000Y-134116000I0J-225000D01*
G01*
X134549000Y-134616000D01*
G75*
G02*
X134324000Y-134841000I-225000J0D01*
G01*
X133874000Y-134841000D01*
G75*
G02*
X133649000Y-134616000I0J225000D01*
G01*
G37*
%TD*%
%TO.C,U1*%
G36*
G01*
X108180000Y-99845000D02*
X108180000Y-99545000D01*
G75*
G02*
X108330000Y-99395000I150000J0D01*
G01*
X109980000Y-99395000D01*
G75*
G02*
X110130000Y-99545000I0J-150000D01*
G01*
X110130000Y-99845000D01*
G75*
G02*
X109980000Y-99995000I-150000J0D01*
G01*
X108330000Y-99995000D01*
G75*
G02*
X108180000Y-99845000I0J150000D01*
G01*
G37*
G36*
G01*
X108180000Y-101115000D02*
X108180000Y-100815000D01*
G75*
G02*
X108330000Y-100665000I150000J0D01*
G01*
X109980000Y-100665000D01*
G75*
G02*
X110130000Y-100815000I0J-150000D01*
G01*
X110130000Y-101115000D01*
G75*
G02*
X109980000Y-101265000I-150000J0D01*
G01*
X108330000Y-101265000D01*
G75*
G02*
X108180000Y-101115000I0J150000D01*
G01*
G37*
G36*
G01*
X108180000Y-102385000D02*
X108180000Y-102085000D01*
G75*
G02*
X108330000Y-101935000I150000J0D01*
G01*
X109980000Y-101935000D01*
G75*
G02*
X110130000Y-102085000I0J-150000D01*
G01*
X110130000Y-102385000D01*
G75*
G02*
X109980000Y-102535000I-150000J0D01*
G01*
X108330000Y-102535000D01*
G75*
G02*
X108180000Y-102385000I0J150000D01*
G01*
G37*
G36*
G01*
X108180000Y-103655000D02*
X108180000Y-103355000D01*
G75*
G02*
X108330000Y-103205000I150000J0D01*
G01*
X109980000Y-103205000D01*
G75*
G02*
X110130000Y-103355000I0J-150000D01*
G01*
X110130000Y-103655000D01*
G75*
G02*
X109980000Y-103805000I-150000J0D01*
G01*
X108330000Y-103805000D01*
G75*
G02*
X108180000Y-103655000I0J150000D01*
G01*
G37*
G36*
G01*
X108180000Y-104925000D02*
X108180000Y-104625000D01*
G75*
G02*
X108330000Y-104475000I150000J0D01*
G01*
X109980000Y-104475000D01*
G75*
G02*
X110130000Y-104625000I0J-150000D01*
G01*
X110130000Y-104925000D01*
G75*
G02*
X109980000Y-105075000I-150000J0D01*
G01*
X108330000Y-105075000D01*
G75*
G02*
X108180000Y-104925000I0J150000D01*
G01*
G37*
G36*
G01*
X108180000Y-106195000D02*
X108180000Y-105895000D01*
G75*
G02*
X108330000Y-105745000I150000J0D01*
G01*
X109980000Y-105745000D01*
G75*
G02*
X110130000Y-105895000I0J-150000D01*
G01*
X110130000Y-106195000D01*
G75*
G02*
X109980000Y-106345000I-150000J0D01*
G01*
X108330000Y-106345000D01*
G75*
G02*
X108180000Y-106195000I0J150000D01*
G01*
G37*
G36*
G01*
X108180000Y-107465000D02*
X108180000Y-107165000D01*
G75*
G02*
X108330000Y-107015000I150000J0D01*
G01*
X109980000Y-107015000D01*
G75*
G02*
X110130000Y-107165000I0J-150000D01*
G01*
X110130000Y-107465000D01*
G75*
G02*
X109980000Y-107615000I-150000J0D01*
G01*
X108330000Y-107615000D01*
G75*
G02*
X108180000Y-107465000I0J150000D01*
G01*
G37*
G36*
G01*
X108180000Y-108735000D02*
X108180000Y-108435000D01*
G75*
G02*
X108330000Y-108285000I150000J0D01*
G01*
X109980000Y-108285000D01*
G75*
G02*
X110130000Y-108435000I0J-150000D01*
G01*
X110130000Y-108735000D01*
G75*
G02*
X109980000Y-108885000I-150000J0D01*
G01*
X108330000Y-108885000D01*
G75*
G02*
X108180000Y-108735000I0J150000D01*
G01*
G37*
G36*
G01*
X103230000Y-108735000D02*
X103230000Y-108435000D01*
G75*
G02*
X103380000Y-108285000I150000J0D01*
G01*
X105030000Y-108285000D01*
G75*
G02*
X105180000Y-108435000I0J-150000D01*
G01*
X105180000Y-108735000D01*
G75*
G02*
X105030000Y-108885000I-150000J0D01*
G01*
X103380000Y-108885000D01*
G75*
G02*
X103230000Y-108735000I0J150000D01*
G01*
G37*
G36*
G01*
X103230000Y-107465000D02*
X103230000Y-107165000D01*
G75*
G02*
X103380000Y-107015000I150000J0D01*
G01*
X105030000Y-107015000D01*
G75*
G02*
X105180000Y-107165000I0J-150000D01*
G01*
X105180000Y-107465000D01*
G75*
G02*
X105030000Y-107615000I-150000J0D01*
G01*
X103380000Y-107615000D01*
G75*
G02*
X103230000Y-107465000I0J150000D01*
G01*
G37*
G36*
G01*
X103230000Y-106195000D02*
X103230000Y-105895000D01*
G75*
G02*
X103380000Y-105745000I150000J0D01*
G01*
X105030000Y-105745000D01*
G75*
G02*
X105180000Y-105895000I0J-150000D01*
G01*
X105180000Y-106195000D01*
G75*
G02*
X105030000Y-106345000I-150000J0D01*
G01*
X103380000Y-106345000D01*
G75*
G02*
X103230000Y-106195000I0J150000D01*
G01*
G37*
G36*
G01*
X103230000Y-104925000D02*
X103230000Y-104625000D01*
G75*
G02*
X103380000Y-104475000I150000J0D01*
G01*
X105030000Y-104475000D01*
G75*
G02*
X105180000Y-104625000I0J-150000D01*
G01*
X105180000Y-104925000D01*
G75*
G02*
X105030000Y-105075000I-150000J0D01*
G01*
X103380000Y-105075000D01*
G75*
G02*
X103230000Y-104925000I0J150000D01*
G01*
G37*
G36*
G01*
X103230000Y-103655000D02*
X103230000Y-103355000D01*
G75*
G02*
X103380000Y-103205000I150000J0D01*
G01*
X105030000Y-103205000D01*
G75*
G02*
X105180000Y-103355000I0J-150000D01*
G01*
X105180000Y-103655000D01*
G75*
G02*
X105030000Y-103805000I-150000J0D01*
G01*
X103380000Y-103805000D01*
G75*
G02*
X103230000Y-103655000I0J150000D01*
G01*
G37*
G36*
G01*
X103230000Y-102385000D02*
X103230000Y-102085000D01*
G75*
G02*
X103380000Y-101935000I150000J0D01*
G01*
X105030000Y-101935000D01*
G75*
G02*
X105180000Y-102085000I0J-150000D01*
G01*
X105180000Y-102385000D01*
G75*
G02*
X105030000Y-102535000I-150000J0D01*
G01*
X103380000Y-102535000D01*
G75*
G02*
X103230000Y-102385000I0J150000D01*
G01*
G37*
G36*
G01*
X103230000Y-101115000D02*
X103230000Y-100815000D01*
G75*
G02*
X103380000Y-100665000I150000J0D01*
G01*
X105030000Y-100665000D01*
G75*
G02*
X105180000Y-100815000I0J-150000D01*
G01*
X105180000Y-101115000D01*
G75*
G02*
X105030000Y-101265000I-150000J0D01*
G01*
X103380000Y-101265000D01*
G75*
G02*
X103230000Y-101115000I0J150000D01*
G01*
G37*
G36*
G01*
X103230000Y-99845000D02*
X103230000Y-99545000D01*
G75*
G02*
X103380000Y-99395000I150000J0D01*
G01*
X105030000Y-99395000D01*
G75*
G02*
X105180000Y-99545000I0J-150000D01*
G01*
X105180000Y-99845000D01*
G75*
G02*
X105030000Y-99995000I-150000J0D01*
G01*
X103380000Y-99995000D01*
G75*
G02*
X103230000Y-99845000I0J150000D01*
G01*
G37*
%TD*%
%TO.C,U2*%
G36*
G01*
X108180000Y-129309000D02*
X108180000Y-129009000D01*
G75*
G02*
X108330000Y-128859000I150000J0D01*
G01*
X109980000Y-128859000D01*
G75*
G02*
X110130000Y-129009000I0J-150000D01*
G01*
X110130000Y-129309000D01*
G75*
G02*
X109980000Y-129459000I-150000J0D01*
G01*
X108330000Y-129459000D01*
G75*
G02*
X108180000Y-129309000I0J150000D01*
G01*
G37*
G36*
G01*
X108180000Y-130579000D02*
X108180000Y-130279000D01*
G75*
G02*
X108330000Y-130129000I150000J0D01*
G01*
X109980000Y-130129000D01*
G75*
G02*
X110130000Y-130279000I0J-150000D01*
G01*
X110130000Y-130579000D01*
G75*
G02*
X109980000Y-130729000I-150000J0D01*
G01*
X108330000Y-130729000D01*
G75*
G02*
X108180000Y-130579000I0J150000D01*
G01*
G37*
G36*
G01*
X108180000Y-131849000D02*
X108180000Y-131549000D01*
G75*
G02*
X108330000Y-131399000I150000J0D01*
G01*
X109980000Y-131399000D01*
G75*
G02*
X110130000Y-131549000I0J-150000D01*
G01*
X110130000Y-131849000D01*
G75*
G02*
X109980000Y-131999000I-150000J0D01*
G01*
X108330000Y-131999000D01*
G75*
G02*
X108180000Y-131849000I0J150000D01*
G01*
G37*
G36*
G01*
X108180000Y-133119000D02*
X108180000Y-132819000D01*
G75*
G02*
X108330000Y-132669000I150000J0D01*
G01*
X109980000Y-132669000D01*
G75*
G02*
X110130000Y-132819000I0J-150000D01*
G01*
X110130000Y-133119000D01*
G75*
G02*
X109980000Y-133269000I-150000J0D01*
G01*
X108330000Y-133269000D01*
G75*
G02*
X108180000Y-133119000I0J150000D01*
G01*
G37*
G36*
G01*
X108180000Y-134389000D02*
X108180000Y-134089000D01*
G75*
G02*
X108330000Y-133939000I150000J0D01*
G01*
X109980000Y-133939000D01*
G75*
G02*
X110130000Y-134089000I0J-150000D01*
G01*
X110130000Y-134389000D01*
G75*
G02*
X109980000Y-134539000I-150000J0D01*
G01*
X108330000Y-134539000D01*
G75*
G02*
X108180000Y-134389000I0J150000D01*
G01*
G37*
G36*
G01*
X108180000Y-135659000D02*
X108180000Y-135359000D01*
G75*
G02*
X108330000Y-135209000I150000J0D01*
G01*
X109980000Y-135209000D01*
G75*
G02*
X110130000Y-135359000I0J-150000D01*
G01*
X110130000Y-135659000D01*
G75*
G02*
X109980000Y-135809000I-150000J0D01*
G01*
X108330000Y-135809000D01*
G75*
G02*
X108180000Y-135659000I0J150000D01*
G01*
G37*
G36*
G01*
X108180000Y-136929000D02*
X108180000Y-136629000D01*
G75*
G02*
X108330000Y-136479000I150000J0D01*
G01*
X109980000Y-136479000D01*
G75*
G02*
X110130000Y-136629000I0J-150000D01*
G01*
X110130000Y-136929000D01*
G75*
G02*
X109980000Y-137079000I-150000J0D01*
G01*
X108330000Y-137079000D01*
G75*
G02*
X108180000Y-136929000I0J150000D01*
G01*
G37*
G36*
G01*
X108180000Y-138199000D02*
X108180000Y-137899000D01*
G75*
G02*
X108330000Y-137749000I150000J0D01*
G01*
X109980000Y-137749000D01*
G75*
G02*
X110130000Y-137899000I0J-150000D01*
G01*
X110130000Y-138199000D01*
G75*
G02*
X109980000Y-138349000I-150000J0D01*
G01*
X108330000Y-138349000D01*
G75*
G02*
X108180000Y-138199000I0J150000D01*
G01*
G37*
G36*
G01*
X103230000Y-138199000D02*
X103230000Y-137899000D01*
G75*
G02*
X103380000Y-137749000I150000J0D01*
G01*
X105030000Y-137749000D01*
G75*
G02*
X105180000Y-137899000I0J-150000D01*
G01*
X105180000Y-138199000D01*
G75*
G02*
X105030000Y-138349000I-150000J0D01*
G01*
X103380000Y-138349000D01*
G75*
G02*
X103230000Y-138199000I0J150000D01*
G01*
G37*
G36*
G01*
X103230000Y-136929000D02*
X103230000Y-136629000D01*
G75*
G02*
X103380000Y-136479000I150000J0D01*
G01*
X105030000Y-136479000D01*
G75*
G02*
X105180000Y-136629000I0J-150000D01*
G01*
X105180000Y-136929000D01*
G75*
G02*
X105030000Y-137079000I-150000J0D01*
G01*
X103380000Y-137079000D01*
G75*
G02*
X103230000Y-136929000I0J150000D01*
G01*
G37*
G36*
G01*
X103230000Y-135659000D02*
X103230000Y-135359000D01*
G75*
G02*
X103380000Y-135209000I150000J0D01*
G01*
X105030000Y-135209000D01*
G75*
G02*
X105180000Y-135359000I0J-150000D01*
G01*
X105180000Y-135659000D01*
G75*
G02*
X105030000Y-135809000I-150000J0D01*
G01*
X103380000Y-135809000D01*
G75*
G02*
X103230000Y-135659000I0J150000D01*
G01*
G37*
G36*
G01*
X103230000Y-134389000D02*
X103230000Y-134089000D01*
G75*
G02*
X103380000Y-133939000I150000J0D01*
G01*
X105030000Y-133939000D01*
G75*
G02*
X105180000Y-134089000I0J-150000D01*
G01*
X105180000Y-134389000D01*
G75*
G02*
X105030000Y-134539000I-150000J0D01*
G01*
X103380000Y-134539000D01*
G75*
G02*
X103230000Y-134389000I0J150000D01*
G01*
G37*
G36*
G01*
X103230000Y-133119000D02*
X103230000Y-132819000D01*
G75*
G02*
X103380000Y-132669000I150000J0D01*
G01*
X105030000Y-132669000D01*
G75*
G02*
X105180000Y-132819000I0J-150000D01*
G01*
X105180000Y-133119000D01*
G75*
G02*
X105030000Y-133269000I-150000J0D01*
G01*
X103380000Y-133269000D01*
G75*
G02*
X103230000Y-133119000I0J150000D01*
G01*
G37*
G36*
G01*
X103230000Y-131849000D02*
X103230000Y-131549000D01*
G75*
G02*
X103380000Y-131399000I150000J0D01*
G01*
X105030000Y-131399000D01*
G75*
G02*
X105180000Y-131549000I0J-150000D01*
G01*
X105180000Y-131849000D01*
G75*
G02*
X105030000Y-131999000I-150000J0D01*
G01*
X103380000Y-131999000D01*
G75*
G02*
X103230000Y-131849000I0J150000D01*
G01*
G37*
G36*
G01*
X103230000Y-130579000D02*
X103230000Y-130279000D01*
G75*
G02*
X103380000Y-130129000I150000J0D01*
G01*
X105030000Y-130129000D01*
G75*
G02*
X105180000Y-130279000I0J-150000D01*
G01*
X105180000Y-130579000D01*
G75*
G02*
X105030000Y-130729000I-150000J0D01*
G01*
X103380000Y-130729000D01*
G75*
G02*
X103230000Y-130579000I0J150000D01*
G01*
G37*
G36*
G01*
X103230000Y-129309000D02*
X103230000Y-129009000D01*
G75*
G02*
X103380000Y-128859000I150000J0D01*
G01*
X105030000Y-128859000D01*
G75*
G02*
X105180000Y-129009000I0J-150000D01*
G01*
X105180000Y-129309000D01*
G75*
G02*
X105030000Y-129459000I-150000J0D01*
G01*
X103380000Y-129459000D01*
G75*
G02*
X103230000Y-129309000I0J150000D01*
G01*
G37*
%TD*%
%TO.C,U3*%
G36*
G01*
X125328000Y-99845000D02*
X125328000Y-99545000D01*
G75*
G02*
X125478000Y-99395000I150000J0D01*
G01*
X127128000Y-99395000D01*
G75*
G02*
X127278000Y-99545000I0J-150000D01*
G01*
X127278000Y-99845000D01*
G75*
G02*
X127128000Y-99995000I-150000J0D01*
G01*
X125478000Y-99995000D01*
G75*
G02*
X125328000Y-99845000I0J150000D01*
G01*
G37*
G36*
G01*
X125328000Y-101115000D02*
X125328000Y-100815000D01*
G75*
G02*
X125478000Y-100665000I150000J0D01*
G01*
X127128000Y-100665000D01*
G75*
G02*
X127278000Y-100815000I0J-150000D01*
G01*
X127278000Y-101115000D01*
G75*
G02*
X127128000Y-101265000I-150000J0D01*
G01*
X125478000Y-101265000D01*
G75*
G02*
X125328000Y-101115000I0J150000D01*
G01*
G37*
G36*
G01*
X125328000Y-102385000D02*
X125328000Y-102085000D01*
G75*
G02*
X125478000Y-101935000I150000J0D01*
G01*
X127128000Y-101935000D01*
G75*
G02*
X127278000Y-102085000I0J-150000D01*
G01*
X127278000Y-102385000D01*
G75*
G02*
X127128000Y-102535000I-150000J0D01*
G01*
X125478000Y-102535000D01*
G75*
G02*
X125328000Y-102385000I0J150000D01*
G01*
G37*
G36*
G01*
X125328000Y-103655000D02*
X125328000Y-103355000D01*
G75*
G02*
X125478000Y-103205000I150000J0D01*
G01*
X127128000Y-103205000D01*
G75*
G02*
X127278000Y-103355000I0J-150000D01*
G01*
X127278000Y-103655000D01*
G75*
G02*
X127128000Y-103805000I-150000J0D01*
G01*
X125478000Y-103805000D01*
G75*
G02*
X125328000Y-103655000I0J150000D01*
G01*
G37*
G36*
G01*
X125328000Y-104925000D02*
X125328000Y-104625000D01*
G75*
G02*
X125478000Y-104475000I150000J0D01*
G01*
X127128000Y-104475000D01*
G75*
G02*
X127278000Y-104625000I0J-150000D01*
G01*
X127278000Y-104925000D01*
G75*
G02*
X127128000Y-105075000I-150000J0D01*
G01*
X125478000Y-105075000D01*
G75*
G02*
X125328000Y-104925000I0J150000D01*
G01*
G37*
G36*
G01*
X125328000Y-106195000D02*
X125328000Y-105895000D01*
G75*
G02*
X125478000Y-105745000I150000J0D01*
G01*
X127128000Y-105745000D01*
G75*
G02*
X127278000Y-105895000I0J-150000D01*
G01*
X127278000Y-106195000D01*
G75*
G02*
X127128000Y-106345000I-150000J0D01*
G01*
X125478000Y-106345000D01*
G75*
G02*
X125328000Y-106195000I0J150000D01*
G01*
G37*
G36*
G01*
X125328000Y-107465000D02*
X125328000Y-107165000D01*
G75*
G02*
X125478000Y-107015000I150000J0D01*
G01*
X127128000Y-107015000D01*
G75*
G02*
X127278000Y-107165000I0J-150000D01*
G01*
X127278000Y-107465000D01*
G75*
G02*
X127128000Y-107615000I-150000J0D01*
G01*
X125478000Y-107615000D01*
G75*
G02*
X125328000Y-107465000I0J150000D01*
G01*
G37*
G36*
G01*
X125328000Y-108735000D02*
X125328000Y-108435000D01*
G75*
G02*
X125478000Y-108285000I150000J0D01*
G01*
X127128000Y-108285000D01*
G75*
G02*
X127278000Y-108435000I0J-150000D01*
G01*
X127278000Y-108735000D01*
G75*
G02*
X127128000Y-108885000I-150000J0D01*
G01*
X125478000Y-108885000D01*
G75*
G02*
X125328000Y-108735000I0J150000D01*
G01*
G37*
G36*
G01*
X130278000Y-108735000D02*
X130278000Y-108435000D01*
G75*
G02*
X130428000Y-108285000I150000J0D01*
G01*
X132078000Y-108285000D01*
G75*
G02*
X132228000Y-108435000I0J-150000D01*
G01*
X132228000Y-108735000D01*
G75*
G02*
X132078000Y-108885000I-150000J0D01*
G01*
X130428000Y-108885000D01*
G75*
G02*
X130278000Y-108735000I0J150000D01*
G01*
G37*
G36*
G01*
X130278000Y-107465000D02*
X130278000Y-107165000D01*
G75*
G02*
X130428000Y-107015000I150000J0D01*
G01*
X132078000Y-107015000D01*
G75*
G02*
X132228000Y-107165000I0J-150000D01*
G01*
X132228000Y-107465000D01*
G75*
G02*
X132078000Y-107615000I-150000J0D01*
G01*
X130428000Y-107615000D01*
G75*
G02*
X130278000Y-107465000I0J150000D01*
G01*
G37*
G36*
G01*
X130278000Y-106195000D02*
X130278000Y-105895000D01*
G75*
G02*
X130428000Y-105745000I150000J0D01*
G01*
X132078000Y-105745000D01*
G75*
G02*
X132228000Y-105895000I0J-150000D01*
G01*
X132228000Y-106195000D01*
G75*
G02*
X132078000Y-106345000I-150000J0D01*
G01*
X130428000Y-106345000D01*
G75*
G02*
X130278000Y-106195000I0J150000D01*
G01*
G37*
G36*
G01*
X130278000Y-104925000D02*
X130278000Y-104625000D01*
G75*
G02*
X130428000Y-104475000I150000J0D01*
G01*
X132078000Y-104475000D01*
G75*
G02*
X132228000Y-104625000I0J-150000D01*
G01*
X132228000Y-104925000D01*
G75*
G02*
X132078000Y-105075000I-150000J0D01*
G01*
X130428000Y-105075000D01*
G75*
G02*
X130278000Y-104925000I0J150000D01*
G01*
G37*
G36*
G01*
X130278000Y-103655000D02*
X130278000Y-103355000D01*
G75*
G02*
X130428000Y-103205000I150000J0D01*
G01*
X132078000Y-103205000D01*
G75*
G02*
X132228000Y-103355000I0J-150000D01*
G01*
X132228000Y-103655000D01*
G75*
G02*
X132078000Y-103805000I-150000J0D01*
G01*
X130428000Y-103805000D01*
G75*
G02*
X130278000Y-103655000I0J150000D01*
G01*
G37*
G36*
G01*
X130278000Y-102385000D02*
X130278000Y-102085000D01*
G75*
G02*
X130428000Y-101935000I150000J0D01*
G01*
X132078000Y-101935000D01*
G75*
G02*
X132228000Y-102085000I0J-150000D01*
G01*
X132228000Y-102385000D01*
G75*
G02*
X132078000Y-102535000I-150000J0D01*
G01*
X130428000Y-102535000D01*
G75*
G02*
X130278000Y-102385000I0J150000D01*
G01*
G37*
G36*
G01*
X130278000Y-101115000D02*
X130278000Y-100815000D01*
G75*
G02*
X130428000Y-100665000I150000J0D01*
G01*
X132078000Y-100665000D01*
G75*
G02*
X132228000Y-100815000I0J-150000D01*
G01*
X132228000Y-101115000D01*
G75*
G02*
X132078000Y-101265000I-150000J0D01*
G01*
X130428000Y-101265000D01*
G75*
G02*
X130278000Y-101115000I0J150000D01*
G01*
G37*
G36*
G01*
X130278000Y-99845000D02*
X130278000Y-99545000D01*
G75*
G02*
X130428000Y-99395000I150000J0D01*
G01*
X132078000Y-99395000D01*
G75*
G02*
X132228000Y-99545000I0J-150000D01*
G01*
X132228000Y-99845000D01*
G75*
G02*
X132078000Y-99995000I-150000J0D01*
G01*
X130428000Y-99995000D01*
G75*
G02*
X130278000Y-99845000I0J150000D01*
G01*
G37*
%TD*%
%TO.C,U4*%
G36*
G01*
X125328000Y-129309000D02*
X125328000Y-129009000D01*
G75*
G02*
X125478000Y-128859000I150000J0D01*
G01*
X127128000Y-128859000D01*
G75*
G02*
X127278000Y-129009000I0J-150000D01*
G01*
X127278000Y-129309000D01*
G75*
G02*
X127128000Y-129459000I-150000J0D01*
G01*
X125478000Y-129459000D01*
G75*
G02*
X125328000Y-129309000I0J150000D01*
G01*
G37*
G36*
G01*
X125328000Y-130579000D02*
X125328000Y-130279000D01*
G75*
G02*
X125478000Y-130129000I150000J0D01*
G01*
X127128000Y-130129000D01*
G75*
G02*
X127278000Y-130279000I0J-150000D01*
G01*
X127278000Y-130579000D01*
G75*
G02*
X127128000Y-130729000I-150000J0D01*
G01*
X125478000Y-130729000D01*
G75*
G02*
X125328000Y-130579000I0J150000D01*
G01*
G37*
G36*
G01*
X125328000Y-131849000D02*
X125328000Y-131549000D01*
G75*
G02*
X125478000Y-131399000I150000J0D01*
G01*
X127128000Y-131399000D01*
G75*
G02*
X127278000Y-131549000I0J-150000D01*
G01*
X127278000Y-131849000D01*
G75*
G02*
X127128000Y-131999000I-150000J0D01*
G01*
X125478000Y-131999000D01*
G75*
G02*
X125328000Y-131849000I0J150000D01*
G01*
G37*
G36*
G01*
X125328000Y-133119000D02*
X125328000Y-132819000D01*
G75*
G02*
X125478000Y-132669000I150000J0D01*
G01*
X127128000Y-132669000D01*
G75*
G02*
X127278000Y-132819000I0J-150000D01*
G01*
X127278000Y-133119000D01*
G75*
G02*
X127128000Y-133269000I-150000J0D01*
G01*
X125478000Y-133269000D01*
G75*
G02*
X125328000Y-133119000I0J150000D01*
G01*
G37*
G36*
G01*
X125328000Y-134389000D02*
X125328000Y-134089000D01*
G75*
G02*
X125478000Y-133939000I150000J0D01*
G01*
X127128000Y-133939000D01*
G75*
G02*
X127278000Y-134089000I0J-150000D01*
G01*
X127278000Y-134389000D01*
G75*
G02*
X127128000Y-134539000I-150000J0D01*
G01*
X125478000Y-134539000D01*
G75*
G02*
X125328000Y-134389000I0J150000D01*
G01*
G37*
G36*
G01*
X125328000Y-135659000D02*
X125328000Y-135359000D01*
G75*
G02*
X125478000Y-135209000I150000J0D01*
G01*
X127128000Y-135209000D01*
G75*
G02*
X127278000Y-135359000I0J-150000D01*
G01*
X127278000Y-135659000D01*
G75*
G02*
X127128000Y-135809000I-150000J0D01*
G01*
X125478000Y-135809000D01*
G75*
G02*
X125328000Y-135659000I0J150000D01*
G01*
G37*
G36*
G01*
X125328000Y-136929000D02*
X125328000Y-136629000D01*
G75*
G02*
X125478000Y-136479000I150000J0D01*
G01*
X127128000Y-136479000D01*
G75*
G02*
X127278000Y-136629000I0J-150000D01*
G01*
X127278000Y-136929000D01*
G75*
G02*
X127128000Y-137079000I-150000J0D01*
G01*
X125478000Y-137079000D01*
G75*
G02*
X125328000Y-136929000I0J150000D01*
G01*
G37*
G36*
G01*
X125328000Y-138199000D02*
X125328000Y-137899000D01*
G75*
G02*
X125478000Y-137749000I150000J0D01*
G01*
X127128000Y-137749000D01*
G75*
G02*
X127278000Y-137899000I0J-150000D01*
G01*
X127278000Y-138199000D01*
G75*
G02*
X127128000Y-138349000I-150000J0D01*
G01*
X125478000Y-138349000D01*
G75*
G02*
X125328000Y-138199000I0J150000D01*
G01*
G37*
G36*
G01*
X130278000Y-138199000D02*
X130278000Y-137899000D01*
G75*
G02*
X130428000Y-137749000I150000J0D01*
G01*
X132078000Y-137749000D01*
G75*
G02*
X132228000Y-137899000I0J-150000D01*
G01*
X132228000Y-138199000D01*
G75*
G02*
X132078000Y-138349000I-150000J0D01*
G01*
X130428000Y-138349000D01*
G75*
G02*
X130278000Y-138199000I0J150000D01*
G01*
G37*
G36*
G01*
X130278000Y-136929000D02*
X130278000Y-136629000D01*
G75*
G02*
X130428000Y-136479000I150000J0D01*
G01*
X132078000Y-136479000D01*
G75*
G02*
X132228000Y-136629000I0J-150000D01*
G01*
X132228000Y-136929000D01*
G75*
G02*
X132078000Y-137079000I-150000J0D01*
G01*
X130428000Y-137079000D01*
G75*
G02*
X130278000Y-136929000I0J150000D01*
G01*
G37*
G36*
G01*
X130278000Y-135659000D02*
X130278000Y-135359000D01*
G75*
G02*
X130428000Y-135209000I150000J0D01*
G01*
X132078000Y-135209000D01*
G75*
G02*
X132228000Y-135359000I0J-150000D01*
G01*
X132228000Y-135659000D01*
G75*
G02*
X132078000Y-135809000I-150000J0D01*
G01*
X130428000Y-135809000D01*
G75*
G02*
X130278000Y-135659000I0J150000D01*
G01*
G37*
G36*
G01*
X130278000Y-134389000D02*
X130278000Y-134089000D01*
G75*
G02*
X130428000Y-133939000I150000J0D01*
G01*
X132078000Y-133939000D01*
G75*
G02*
X132228000Y-134089000I0J-150000D01*
G01*
X132228000Y-134389000D01*
G75*
G02*
X132078000Y-134539000I-150000J0D01*
G01*
X130428000Y-134539000D01*
G75*
G02*
X130278000Y-134389000I0J150000D01*
G01*
G37*
G36*
G01*
X130278000Y-133119000D02*
X130278000Y-132819000D01*
G75*
G02*
X130428000Y-132669000I150000J0D01*
G01*
X132078000Y-132669000D01*
G75*
G02*
X132228000Y-132819000I0J-150000D01*
G01*
X132228000Y-133119000D01*
G75*
G02*
X132078000Y-133269000I-150000J0D01*
G01*
X130428000Y-133269000D01*
G75*
G02*
X130278000Y-133119000I0J150000D01*
G01*
G37*
G36*
G01*
X130278000Y-131849000D02*
X130278000Y-131549000D01*
G75*
G02*
X130428000Y-131399000I150000J0D01*
G01*
X132078000Y-131399000D01*
G75*
G02*
X132228000Y-131549000I0J-150000D01*
G01*
X132228000Y-131849000D01*
G75*
G02*
X132078000Y-131999000I-150000J0D01*
G01*
X130428000Y-131999000D01*
G75*
G02*
X130278000Y-131849000I0J150000D01*
G01*
G37*
G36*
G01*
X130278000Y-130579000D02*
X130278000Y-130279000D01*
G75*
G02*
X130428000Y-130129000I150000J0D01*
G01*
X132078000Y-130129000D01*
G75*
G02*
X132228000Y-130279000I0J-150000D01*
G01*
X132228000Y-130579000D01*
G75*
G02*
X132078000Y-130729000I-150000J0D01*
G01*
X130428000Y-130729000D01*
G75*
G02*
X130278000Y-130579000I0J150000D01*
G01*
G37*
G36*
G01*
X130278000Y-129309000D02*
X130278000Y-129009000D01*
G75*
G02*
X130428000Y-128859000I150000J0D01*
G01*
X132078000Y-128859000D01*
G75*
G02*
X132228000Y-129009000I0J-150000D01*
G01*
X132228000Y-129309000D01*
G75*
G02*
X132078000Y-129459000I-150000J0D01*
G01*
X130428000Y-129459000D01*
G75*
G02*
X130278000Y-129309000I0J150000D01*
G01*
G37*
%TD*%
M02*
