M48
; DRILL file {KiCad 5.1.7-a382d34a8~87~ubuntu18.04.1} date Thu May  6 09:45:49 2021
; FORMAT={-:-/ absolute / inch / decimal}
; #@! TF.CreationDate,2021-05-06T09:45:49-07:00
; #@! TF.GenerationSoftware,Kicad,Pcbnew,5.1.7-a382d34a8~87~ubuntu18.04.1
; #@! TF.FileFunction,Plated,1,2,PTH
FMAT,2
INCH
T1C0.0250
T2C0.0394
T3C0.0400
T4C0.1160
%
G90
G05
T1
X3.8969Y-5.1591
X3.9839Y-4.0273
X4.0581Y-4.656
X4.0817Y-4.75
X4.1594Y-4.9396
X4.1743Y-5.188
X4.1954Y-4.6021
X4.231Y-4.8678
X4.2675Y-5.0473
X4.3106Y-5.047
X4.36Y-3.828
X4.3783Y-5.385
X4.4551Y-5.0238
X4.4882Y-5.0713
X4.738Y-3.788
X4.7662Y-4.5866
X4.8031Y-4.5566
X4.8319Y-4.0329
X4.886Y-5.0212
X4.9081Y-4.0307
X4.9772Y-5.0416
X5.0001Y-4.7161
X5.0304Y-4.7992
X5.0369Y-3.9776
X5.0376Y-3.932
X5.0418Y-5.5046
X5.0849Y-5.4929
X5.0979Y-4.5229
X5.1006Y-4.0721
X5.1295Y-5.047
X5.1639Y-4.954
X5.2565Y-5.0841
X5.3136Y-4.55
T2
X4.25Y-3.1
X4.25Y-3.2
X3.398Y-5.535
X3.398Y-5.635
X3.398Y-5.735
X3.9Y-3.1
X3.9Y-3.2
T3
X4.56Y-6.2
X4.56Y-6.3
X4.66Y-6.2
X4.66Y-6.3
X4.76Y-6.2
X4.76Y-6.3
X4.86Y-6.2
X4.86Y-6.3
X4.96Y-6.2
X4.96Y-6.3
X5.95Y-4.55
X5.95Y-4.65
X5.95Y-4.75
X5.95Y-4.85
X5.95Y-4.95
X6.05Y-4.55
X6.05Y-4.65
X6.05Y-4.75
X6.05Y-4.85
X6.05Y-4.95
X3.54Y-6.2
X3.54Y-6.3
X3.64Y-6.2
X3.64Y-6.3
X3.74Y-6.2
X3.74Y-6.3
X3.84Y-6.2
X3.84Y-6.3
X3.94Y-6.2
X3.94Y-6.3
T4
X5.35Y-3.15
X3.15Y-3.15
X3.15Y-6.35
X5.35Y-6.35
T0
M30
