%TF.GenerationSoftware,KiCad,Pcbnew,5.1.7-a382d34a8~87~ubuntu18.04.1*%
%TF.CreationDate,2021-05-06T09:45:45-07:00*%
%TF.ProjectId,multiplexer,6d756c74-6970-46c6-9578-65722e6b6963,rev?*%
%TF.SameCoordinates,Original*%
%TF.FileFunction,Copper,L2,Bot*%
%TF.FilePolarity,Positive*%
%FSLAX46Y46*%
G04 Gerber Fmt 4.6, Leading zero omitted, Abs format (unit mm)*
G04 Created by KiCad (PCBNEW 5.1.7-a382d34a8~87~ubuntu18.04.1) date 2021-05-06 09:45:45*
%MOMM*%
%LPD*%
G01*
G04 APERTURE LIST*
%TA.AperFunction,ComponentPad*%
%ADD10C,3.810000*%
%TD*%
%TA.AperFunction,ComponentPad*%
%ADD11R,1.700000X1.700000*%
%TD*%
%TA.AperFunction,ComponentPad*%
%ADD12O,1.700000X1.700000*%
%TD*%
%TA.AperFunction,ComponentPad*%
%ADD13C,1.700000*%
%TD*%
%TA.AperFunction,ViaPad*%
%ADD14C,0.889000*%
%TD*%
%TA.AperFunction,Conductor*%
%ADD15C,0.381000*%
%TD*%
G04 APERTURE END LIST*
D10*
%TO.P,M1,*%
%TO.N,*%
X80010000Y-80010000D03*
%TD*%
%TO.P,M2,*%
%TO.N,*%
X135890000Y-80010000D03*
%TD*%
%TO.P,M3,*%
%TO.N,*%
X135890000Y-161290000D03*
%TD*%
%TO.P,4-40,*%
%TO.N,*%
X80010000Y-161290000D03*
%TD*%
D11*
%TO.P,K1,1*%
%TO.N,/CTR*%
X86309200Y-140589000D03*
D12*
%TO.P,K1,2*%
%TO.N,/REF*%
X86309200Y-143129000D03*
%TO.P,K1,3*%
%TO.N,/WRK*%
X86309200Y-145669000D03*
%TD*%
D13*
%TO.P,P1,10*%
%TO.N,/D31*%
X89916000Y-160020000D03*
%TO.P,P1,9*%
%TO.N,/D30*%
X89916000Y-157480000D03*
%TO.P,P1,8*%
%TO.N,/D29*%
X92456000Y-160020000D03*
%TO.P,P1,7*%
%TO.N,/D28*%
X92456000Y-157480000D03*
%TO.P,P1,6*%
%TO.N,/D27*%
X94996000Y-160020000D03*
%TO.P,P1,5*%
%TO.N,/D26*%
X94996000Y-157480000D03*
%TO.P,P1,4*%
%TO.N,/D25*%
X97536000Y-160020000D03*
%TO.P,P1,3*%
%TO.N,/D24*%
X97536000Y-157480000D03*
%TO.P,P1,2*%
%TO.N,/GND*%
X100076000Y-160020000D03*
D11*
%TO.P,P1,1*%
%TO.N,/3V3*%
X100076000Y-157480000D03*
%TD*%
%TO.P,P2,1*%
%TO.N,Net-(P2-Pad1)*%
X125984000Y-157480000D03*
D13*
%TO.P,P2,2*%
%TO.N,Net-(P2-Pad2)*%
X125984000Y-160020000D03*
%TO.P,P2,3*%
%TO.N,/D3*%
X123444000Y-157480000D03*
%TO.P,P2,4*%
%TO.N,/D4*%
X123444000Y-160020000D03*
%TO.P,P2,5*%
%TO.N,/D19*%
X120904000Y-157480000D03*
%TO.P,P2,6*%
%TO.N,/D18*%
X120904000Y-160020000D03*
%TO.P,P2,7*%
%TO.N,/D12*%
X118364000Y-157480000D03*
%TO.P,P2,8*%
%TO.N,/D11*%
X118364000Y-160020000D03*
%TO.P,P2,9*%
%TO.N,/D13*%
X115824000Y-157480000D03*
%TO.P,P2,10*%
%TO.N,/D10*%
X115824000Y-160020000D03*
%TD*%
D11*
%TO.P,P3,1*%
%TO.N,/+15V*%
X107950000Y-78740000D03*
D12*
%TO.P,P3,2*%
X107950000Y-81280000D03*
%TD*%
%TO.P,P4,2*%
%TO.N,/-15V*%
X99060000Y-81280000D03*
D11*
%TO.P,P4,1*%
X99060000Y-78740000D03*
%TD*%
%TO.P,P5,1*%
%TO.N,/GND*%
X151130000Y-115570000D03*
D13*
%TO.P,P5,2*%
%TO.N,/CTR_SW*%
X153670000Y-115570000D03*
%TO.P,P5,3*%
%TO.N,/REF_SW*%
X151130000Y-118110000D03*
%TO.P,P5,4*%
%TO.N,/WRK_1*%
X153670000Y-118110000D03*
%TO.P,P5,5*%
%TO.N,/WRK_2*%
X151130000Y-120650000D03*
%TO.P,P5,6*%
%TO.N,/WRK_3*%
X153670000Y-120650000D03*
%TO.P,P5,7*%
%TO.N,/WRK_4*%
X151130000Y-123190000D03*
%TO.P,P5,8*%
%TO.N,/WRK_5*%
X153670000Y-123190000D03*
%TO.P,P5,9*%
%TO.N,/WRK_6*%
X151130000Y-125730000D03*
%TO.P,P5,10*%
%TO.N,/WRK_7*%
X153670000Y-125730000D03*
%TD*%
D14*
%TO.N,/CTR*%
X124665100Y-102380400D03*
%TO.N,/CTR_SW*%
X127938200Y-101031900D03*
%TO.N,/D10*%
X130288100Y-128194100D03*
%TO.N,/D12*%
X126419800Y-128057400D03*
%TO.N,/D13*%
X129155500Y-139519500D03*
%TO.N,/D19*%
X131162400Y-125832200D03*
%TO.N,/D25*%
X105648900Y-125465200D03*
%TO.N,/D26*%
X109488700Y-128193400D03*
%TO.N,/D28*%
X106026000Y-131775000D03*
%TO.N,/D3*%
X127955800Y-99873000D03*
%TO.N,/D31*%
X108394000Y-128201700D03*
%TO.N,/GND*%
X121998900Y-115736900D03*
X134965400Y-115570000D03*
%TO.N,/REF*%
X124103500Y-127538700D03*
%TO.N,/REF_SW*%
X127003100Y-119790200D03*
%TO.N,/WRK*%
X103077000Y-118261600D03*
X110744000Y-97231200D03*
X120345200Y-96215200D03*
%TO.N,/WRK_1*%
X106562700Y-116892300D03*
%TO.N,/WRK_2*%
X98980500Y-131041500D03*
X103676300Y-120649500D03*
%TO.N,/WRK_3*%
X111208300Y-136779000D03*
X113160700Y-127603300D03*
%TO.N,/WRK_4*%
X107467300Y-123641700D03*
%TO.N,/WRK_5*%
X127771800Y-121900500D03*
%TO.N,/WRK_7*%
X133515100Y-129135300D03*
%TO.N,/-15V*%
X101191800Y-102292800D03*
X122729600Y-102436800D03*
%TO.N,/+15V*%
X129554200Y-103430800D03*
X121060800Y-116498600D03*
X129485800Y-114882700D03*
%TO.N,/3V3*%
X128062900Y-139818000D03*
X114001300Y-128812200D03*
%TD*%
D15*
%TO.N,/CTR*%
X124665100Y-102380400D02*
X112202600Y-114842900D01*
X112202600Y-114842900D02*
X105272900Y-114842900D01*
X105272900Y-114842900D02*
X98941200Y-121174600D01*
X98941200Y-121174600D02*
X98941200Y-126713000D01*
X98941200Y-126713000D02*
X86309200Y-139345000D01*
X86309200Y-140589000D02*
X86309200Y-139345000D01*
%TO.N,/CTR_SW*%
X153670000Y-115570000D02*
X151724300Y-113624300D01*
X151724300Y-113624300D02*
X140933600Y-113624300D01*
X140933600Y-113624300D02*
X128341200Y-101031900D01*
X128341200Y-101031900D02*
X127938200Y-101031900D01*
%TO.N,/D10*%
X130288100Y-128194100D02*
X130288100Y-141390400D01*
X130288100Y-141390400D02*
X117119900Y-154558600D01*
X117119900Y-154558600D02*
X117119900Y-158724100D01*
X117119900Y-158724100D02*
X115824000Y-160020000D01*
%TO.N,/D12*%
X126419800Y-128057400D02*
X127161300Y-127315900D01*
X127161300Y-127315900D02*
X130671400Y-127315900D01*
X130671400Y-127315900D02*
X131163100Y-127807600D01*
X131163100Y-127807600D02*
X131163100Y-144680900D01*
X131163100Y-144680900D02*
X118364000Y-157480000D01*
%TO.N,/D13*%
X129155500Y-139519500D02*
X129155500Y-140027700D01*
X129155500Y-140027700D02*
X115824000Y-153359200D01*
X115824000Y-153359200D02*
X115824000Y-157480000D01*
%TO.N,/D19*%
X131162400Y-125832200D02*
X131747700Y-126417500D01*
X131747700Y-126417500D02*
X131747700Y-146636300D01*
X131747700Y-146636300D02*
X120904000Y-157480000D01*
%TO.N,/D25*%
X105648900Y-125465200D02*
X107947500Y-125465200D01*
X107947500Y-125465200D02*
X110331000Y-127848700D01*
X110331000Y-127848700D02*
X110331000Y-144038000D01*
X110331000Y-144038000D02*
X98831900Y-155537100D01*
X98831900Y-155537100D02*
X98831900Y-158724100D01*
X98831900Y-158724100D02*
X97536000Y-160020000D01*
%TO.N,/D26*%
X109488700Y-128193400D02*
X109488700Y-142987300D01*
X109488700Y-142987300D02*
X94996000Y-157480000D01*
%TO.N,/D28*%
X106026000Y-131775000D02*
X106026000Y-143910000D01*
X106026000Y-143910000D02*
X92456000Y-157480000D01*
%TO.N,/D3*%
X123444000Y-157480000D02*
X136039200Y-144884800D01*
X136039200Y-144884800D02*
X136039200Y-140458200D01*
X136039200Y-140458200D02*
X141169100Y-135328300D01*
X141169100Y-135328300D02*
X145878400Y-135328300D01*
X145878400Y-135328300D02*
X155580100Y-125626600D01*
X155580100Y-125626600D02*
X155580100Y-115715600D01*
X155580100Y-115715600D02*
X145678600Y-105814100D01*
X145678600Y-105814100D02*
X134163900Y-105814100D01*
X134163900Y-105814100D02*
X128222800Y-99873000D01*
X128222800Y-99873000D02*
X127955800Y-99873000D01*
%TO.N,/D31*%
X89916000Y-160020000D02*
X91211900Y-158724100D01*
X91211900Y-158724100D02*
X91211900Y-145383800D01*
X91211900Y-145383800D02*
X108394000Y-128201700D01*
%TO.N,/GND*%
X134965400Y-115570000D02*
X134798500Y-115736900D01*
X134798500Y-115736900D02*
X121998900Y-115736900D01*
X151130000Y-115570000D02*
X134965400Y-115570000D01*
%TO.N,/REF*%
X86309200Y-144373000D02*
X85793700Y-144373000D01*
X85793700Y-144373000D02*
X85057000Y-145109700D01*
X85057000Y-145109700D02*
X85057000Y-146229900D01*
X85057000Y-146229900D02*
X85740200Y-146913100D01*
X85740200Y-146913100D02*
X87004200Y-146913100D01*
X87004200Y-146913100D02*
X104810400Y-129106900D01*
X104810400Y-129106900D02*
X104810400Y-125117900D01*
X104810400Y-125117900D02*
X105301600Y-124626700D01*
X105301600Y-124626700D02*
X121191500Y-124626700D01*
X121191500Y-124626700D02*
X124103500Y-127538700D01*
X86309200Y-143129000D02*
X86309200Y-144373000D01*
%TO.N,/REF_SW*%
X151130000Y-118110000D02*
X128683300Y-118110000D01*
X128683300Y-118110000D02*
X127003100Y-119790200D01*
%TO.N,/WRK*%
X103077000Y-118261600D02*
X102182600Y-119156000D01*
X102182600Y-119156000D02*
X102182600Y-124781300D01*
X102182600Y-124781300D02*
X93964200Y-132999700D01*
X93964200Y-132999700D02*
X93964200Y-138014000D01*
X93964200Y-138014000D02*
X86309200Y-145669000D01*
X111760000Y-96215200D02*
X120345200Y-96215200D01*
X110744000Y-97231200D02*
X111760000Y-96215200D01*
%TO.N,/WRK_1*%
X106562700Y-116892300D02*
X107007500Y-117337100D01*
X107007500Y-117337100D02*
X135347300Y-117337100D01*
X135347300Y-117337100D02*
X135870300Y-116814100D01*
X135870300Y-116814100D02*
X152374100Y-116814100D01*
X152374100Y-116814100D02*
X153670000Y-118110000D01*
%TO.N,/WRK_2*%
X98980500Y-131041500D02*
X103676300Y-126345700D01*
X103676300Y-126345700D02*
X103676300Y-120649500D01*
X103676300Y-120649500D02*
X151129500Y-120649500D01*
X151129500Y-120649500D02*
X151130000Y-120650000D01*
%TO.N,/WRK_3*%
X113160700Y-127603300D02*
X113160700Y-134826600D01*
X113160700Y-134826600D02*
X111208300Y-136779000D01*
X113160700Y-127603300D02*
X122500400Y-127603300D01*
X122500400Y-127603300D02*
X123281000Y-128383900D01*
X123281000Y-128383900D02*
X124578400Y-128383900D01*
X124578400Y-128383900D02*
X128502300Y-124460000D01*
X128502300Y-124460000D02*
X154173700Y-124460000D01*
X154173700Y-124460000D02*
X154965900Y-123667800D01*
X154965900Y-123667800D02*
X154965900Y-121945900D01*
X154965900Y-121945900D02*
X153670000Y-120650000D01*
%TO.N,/WRK_4*%
X151130000Y-123190000D02*
X107919000Y-123190000D01*
X107919000Y-123190000D02*
X107467300Y-123641700D01*
%TO.N,/WRK_5*%
X153670000Y-123190000D02*
X152380500Y-121900500D01*
X152380500Y-121900500D02*
X127771800Y-121900500D01*
%TO.N,/WRK_7*%
X133515100Y-129135300D02*
X150264700Y-129135300D01*
X150264700Y-129135300D02*
X153670000Y-125730000D01*
%TO.N,/-15V*%
X102037700Y-101446900D02*
X99060000Y-98469200D01*
X99060000Y-98469200D02*
X99060000Y-82524000D01*
X122729600Y-102436800D02*
X121739700Y-101446900D01*
X121739700Y-101446900D02*
X102037700Y-101446900D01*
X102037700Y-101446900D02*
X101191800Y-102292800D01*
X99060000Y-81280000D02*
X99060000Y-82524000D01*
%TO.N,/+15V*%
X126203600Y-103430800D02*
X126203600Y-111600500D01*
X107950000Y-82524000D02*
X126203600Y-100777600D01*
X126203600Y-100777600D02*
X126203600Y-103430800D01*
X126203600Y-103430800D02*
X129554200Y-103430800D01*
X126203600Y-111600500D02*
X129485800Y-114882700D01*
X126203600Y-111600500D02*
X124909400Y-111600500D01*
X124909400Y-111600500D02*
X121060800Y-115449100D01*
X121060800Y-115449100D02*
X121060800Y-116498600D01*
X107950000Y-81280000D02*
X107950000Y-82524000D01*
%TO.N,/3V3*%
X117060400Y-139818000D02*
X128062900Y-139818000D01*
X117060400Y-139818000D02*
X117060400Y-131871300D01*
X117060400Y-131871300D02*
X114001300Y-128812200D01*
X101320000Y-157480000D02*
X117060400Y-141739600D01*
X117060400Y-141739600D02*
X117060400Y-139818000D01*
X100076000Y-157480000D02*
X101320000Y-157480000D01*
%TD*%
M02*
