%TF.GenerationSoftware,KiCad,Pcbnew,5.1.7-a382d34a8~87~ubuntu18.04.1*%
%TF.CreationDate,2021-05-06T09:45:45-07:00*%
%TF.ProjectId,multiplexer,6d756c74-6970-46c6-9578-65722e6b6963,rev?*%
%TF.SameCoordinates,Original*%
%TF.FileFunction,Copper,L1,Top*%
%TF.FilePolarity,Positive*%
%FSLAX46Y46*%
G04 Gerber Fmt 4.6, Leading zero omitted, Abs format (unit mm)*
G04 Created by KiCad (PCBNEW 5.1.7-a382d34a8~87~ubuntu18.04.1) date 2021-05-06 09:45:45*
%MOMM*%
%LPD*%
G01*
G04 APERTURE LIST*
%TA.AperFunction,ComponentPad*%
%ADD10C,3.810000*%
%TD*%
%TA.AperFunction,ComponentPad*%
%ADD11R,1.700000X1.700000*%
%TD*%
%TA.AperFunction,ComponentPad*%
%ADD12O,1.700000X1.700000*%
%TD*%
%TA.AperFunction,ComponentPad*%
%ADD13C,1.700000*%
%TD*%
%TA.AperFunction,ViaPad*%
%ADD14C,0.889000*%
%TD*%
%TA.AperFunction,Conductor*%
%ADD15C,0.381000*%
%TD*%
G04 APERTURE END LIST*
D10*
%TO.P,M1,*%
%TO.N,*%
X80010000Y-80010000D03*
%TD*%
%TO.P,M2,*%
%TO.N,*%
X135890000Y-80010000D03*
%TD*%
%TO.P,M3,*%
%TO.N,*%
X135890000Y-161290000D03*
%TD*%
%TO.P,4-40,*%
%TO.N,*%
X80010000Y-161290000D03*
%TD*%
%TO.P,C1,2*%
%TO.N,/-15V*%
%TA.AperFunction,SMDPad,CuDef*%
G36*
G01*
X100909000Y-103755000D02*
X100909000Y-103255000D01*
G75*
G02*
X101134000Y-103030000I225000J0D01*
G01*
X101584000Y-103030000D01*
G75*
G02*
X101809000Y-103255000I0J-225000D01*
G01*
X101809000Y-103755000D01*
G75*
G02*
X101584000Y-103980000I-225000J0D01*
G01*
X101134000Y-103980000D01*
G75*
G02*
X100909000Y-103755000I0J225000D01*
G01*
G37*
%TD.AperFunction*%
%TO.P,C1,1*%
%TO.N,/GND*%
%TA.AperFunction,SMDPad,CuDef*%
G36*
G01*
X99359000Y-103755000D02*
X99359000Y-103255000D01*
G75*
G02*
X99584000Y-103030000I225000J0D01*
G01*
X100034000Y-103030000D01*
G75*
G02*
X100259000Y-103255000I0J-225000D01*
G01*
X100259000Y-103755000D01*
G75*
G02*
X100034000Y-103980000I-225000J0D01*
G01*
X99584000Y-103980000D01*
G75*
G02*
X99359000Y-103755000I0J225000D01*
G01*
G37*
%TD.AperFunction*%
%TD*%
%TO.P,C2,2*%
%TO.N,/-15V*%
%TA.AperFunction,SMDPad,CuDef*%
G36*
G01*
X100909000Y-133219000D02*
X100909000Y-132719000D01*
G75*
G02*
X101134000Y-132494000I225000J0D01*
G01*
X101584000Y-132494000D01*
G75*
G02*
X101809000Y-132719000I0J-225000D01*
G01*
X101809000Y-133219000D01*
G75*
G02*
X101584000Y-133444000I-225000J0D01*
G01*
X101134000Y-133444000D01*
G75*
G02*
X100909000Y-133219000I0J225000D01*
G01*
G37*
%TD.AperFunction*%
%TO.P,C2,1*%
%TO.N,/GND*%
%TA.AperFunction,SMDPad,CuDef*%
G36*
G01*
X99359000Y-133219000D02*
X99359000Y-132719000D01*
G75*
G02*
X99584000Y-132494000I225000J0D01*
G01*
X100034000Y-132494000D01*
G75*
G02*
X100259000Y-132719000I0J-225000D01*
G01*
X100259000Y-133219000D01*
G75*
G02*
X100034000Y-133444000I-225000J0D01*
G01*
X99584000Y-133444000D01*
G75*
G02*
X99359000Y-133219000I0J225000D01*
G01*
G37*
%TD.AperFunction*%
%TD*%
%TO.P,C3,1*%
%TO.N,/+15V*%
%TA.AperFunction,SMDPad,CuDef*%
G36*
G01*
X111551000Y-103628000D02*
X111551000Y-103128000D01*
G75*
G02*
X111776000Y-102903000I225000J0D01*
G01*
X112226000Y-102903000D01*
G75*
G02*
X112451000Y-103128000I0J-225000D01*
G01*
X112451000Y-103628000D01*
G75*
G02*
X112226000Y-103853000I-225000J0D01*
G01*
X111776000Y-103853000D01*
G75*
G02*
X111551000Y-103628000I0J225000D01*
G01*
G37*
%TD.AperFunction*%
%TO.P,C3,2*%
%TO.N,/GND*%
%TA.AperFunction,SMDPad,CuDef*%
G36*
G01*
X113101000Y-103628000D02*
X113101000Y-103128000D01*
G75*
G02*
X113326000Y-102903000I225000J0D01*
G01*
X113776000Y-102903000D01*
G75*
G02*
X114001000Y-103128000I0J-225000D01*
G01*
X114001000Y-103628000D01*
G75*
G02*
X113776000Y-103853000I-225000J0D01*
G01*
X113326000Y-103853000D01*
G75*
G02*
X113101000Y-103628000I0J225000D01*
G01*
G37*
%TD.AperFunction*%
%TD*%
%TO.P,C4,1*%
%TO.N,/+15V*%
%TA.AperFunction,SMDPad,CuDef*%
G36*
G01*
X111551000Y-133092000D02*
X111551000Y-132592000D01*
G75*
G02*
X111776000Y-132367000I225000J0D01*
G01*
X112226000Y-132367000D01*
G75*
G02*
X112451000Y-132592000I0J-225000D01*
G01*
X112451000Y-133092000D01*
G75*
G02*
X112226000Y-133317000I-225000J0D01*
G01*
X111776000Y-133317000D01*
G75*
G02*
X111551000Y-133092000I0J225000D01*
G01*
G37*
%TD.AperFunction*%
%TO.P,C4,2*%
%TO.N,/GND*%
%TA.AperFunction,SMDPad,CuDef*%
G36*
G01*
X113101000Y-133092000D02*
X113101000Y-132592000D01*
G75*
G02*
X113326000Y-132367000I225000J0D01*
G01*
X113776000Y-132367000D01*
G75*
G02*
X114001000Y-132592000I0J-225000D01*
G01*
X114001000Y-133092000D01*
G75*
G02*
X113776000Y-133317000I-225000J0D01*
G01*
X113326000Y-133317000D01*
G75*
G02*
X113101000Y-133092000I0J225000D01*
G01*
G37*
%TD.AperFunction*%
%TD*%
%TO.P,C5,2*%
%TO.N,/-15V*%
%TA.AperFunction,SMDPad,CuDef*%
G36*
G01*
X123007000Y-103755000D02*
X123007000Y-103255000D01*
G75*
G02*
X123232000Y-103030000I225000J0D01*
G01*
X123682000Y-103030000D01*
G75*
G02*
X123907000Y-103255000I0J-225000D01*
G01*
X123907000Y-103755000D01*
G75*
G02*
X123682000Y-103980000I-225000J0D01*
G01*
X123232000Y-103980000D01*
G75*
G02*
X123007000Y-103755000I0J225000D01*
G01*
G37*
%TD.AperFunction*%
%TO.P,C5,1*%
%TO.N,/GND*%
%TA.AperFunction,SMDPad,CuDef*%
G36*
G01*
X121457000Y-103755000D02*
X121457000Y-103255000D01*
G75*
G02*
X121682000Y-103030000I225000J0D01*
G01*
X122132000Y-103030000D01*
G75*
G02*
X122357000Y-103255000I0J-225000D01*
G01*
X122357000Y-103755000D01*
G75*
G02*
X122132000Y-103980000I-225000J0D01*
G01*
X121682000Y-103980000D01*
G75*
G02*
X121457000Y-103755000I0J225000D01*
G01*
G37*
%TD.AperFunction*%
%TD*%
%TO.P,C6,1*%
%TO.N,/GND*%
%TA.AperFunction,SMDPad,CuDef*%
G36*
G01*
X121457000Y-133219000D02*
X121457000Y-132719000D01*
G75*
G02*
X121682000Y-132494000I225000J0D01*
G01*
X122132000Y-132494000D01*
G75*
G02*
X122357000Y-132719000I0J-225000D01*
G01*
X122357000Y-133219000D01*
G75*
G02*
X122132000Y-133444000I-225000J0D01*
G01*
X121682000Y-133444000D01*
G75*
G02*
X121457000Y-133219000I0J225000D01*
G01*
G37*
%TD.AperFunction*%
%TO.P,C6,2*%
%TO.N,/-15V*%
%TA.AperFunction,SMDPad,CuDef*%
G36*
G01*
X123007000Y-133219000D02*
X123007000Y-132719000D01*
G75*
G02*
X123232000Y-132494000I225000J0D01*
G01*
X123682000Y-132494000D01*
G75*
G02*
X123907000Y-132719000I0J-225000D01*
G01*
X123907000Y-133219000D01*
G75*
G02*
X123682000Y-133444000I-225000J0D01*
G01*
X123232000Y-133444000D01*
G75*
G02*
X123007000Y-133219000I0J225000D01*
G01*
G37*
%TD.AperFunction*%
%TD*%
%TO.P,C7,1*%
%TO.N,/+15V*%
%TA.AperFunction,SMDPad,CuDef*%
G36*
G01*
X133649000Y-103628000D02*
X133649000Y-103128000D01*
G75*
G02*
X133874000Y-102903000I225000J0D01*
G01*
X134324000Y-102903000D01*
G75*
G02*
X134549000Y-103128000I0J-225000D01*
G01*
X134549000Y-103628000D01*
G75*
G02*
X134324000Y-103853000I-225000J0D01*
G01*
X133874000Y-103853000D01*
G75*
G02*
X133649000Y-103628000I0J225000D01*
G01*
G37*
%TD.AperFunction*%
%TO.P,C7,2*%
%TO.N,/GND*%
%TA.AperFunction,SMDPad,CuDef*%
G36*
G01*
X135199000Y-103628000D02*
X135199000Y-103128000D01*
G75*
G02*
X135424000Y-102903000I225000J0D01*
G01*
X135874000Y-102903000D01*
G75*
G02*
X136099000Y-103128000I0J-225000D01*
G01*
X136099000Y-103628000D01*
G75*
G02*
X135874000Y-103853000I-225000J0D01*
G01*
X135424000Y-103853000D01*
G75*
G02*
X135199000Y-103628000I0J225000D01*
G01*
G37*
%TD.AperFunction*%
%TD*%
%TO.P,C8,2*%
%TO.N,/GND*%
%TA.AperFunction,SMDPad,CuDef*%
G36*
G01*
X135199000Y-133092000D02*
X135199000Y-132592000D01*
G75*
G02*
X135424000Y-132367000I225000J0D01*
G01*
X135874000Y-132367000D01*
G75*
G02*
X136099000Y-132592000I0J-225000D01*
G01*
X136099000Y-133092000D01*
G75*
G02*
X135874000Y-133317000I-225000J0D01*
G01*
X135424000Y-133317000D01*
G75*
G02*
X135199000Y-133092000I0J225000D01*
G01*
G37*
%TD.AperFunction*%
%TO.P,C8,1*%
%TO.N,/+15V*%
%TA.AperFunction,SMDPad,CuDef*%
G36*
G01*
X133649000Y-133092000D02*
X133649000Y-132592000D01*
G75*
G02*
X133874000Y-132367000I225000J0D01*
G01*
X134324000Y-132367000D01*
G75*
G02*
X134549000Y-132592000I0J-225000D01*
G01*
X134549000Y-133092000D01*
G75*
G02*
X134324000Y-133317000I-225000J0D01*
G01*
X133874000Y-133317000D01*
G75*
G02*
X133649000Y-133092000I0J225000D01*
G01*
G37*
%TD.AperFunction*%
%TD*%
%TO.P,C9,1*%
%TO.N,/3V3*%
%TA.AperFunction,SMDPad,CuDef*%
G36*
G01*
X111551000Y-105152000D02*
X111551000Y-104652000D01*
G75*
G02*
X111776000Y-104427000I225000J0D01*
G01*
X112226000Y-104427000D01*
G75*
G02*
X112451000Y-104652000I0J-225000D01*
G01*
X112451000Y-105152000D01*
G75*
G02*
X112226000Y-105377000I-225000J0D01*
G01*
X111776000Y-105377000D01*
G75*
G02*
X111551000Y-105152000I0J225000D01*
G01*
G37*
%TD.AperFunction*%
%TO.P,C9,2*%
%TO.N,/GND*%
%TA.AperFunction,SMDPad,CuDef*%
G36*
G01*
X113101000Y-105152000D02*
X113101000Y-104652000D01*
G75*
G02*
X113326000Y-104427000I225000J0D01*
G01*
X113776000Y-104427000D01*
G75*
G02*
X114001000Y-104652000I0J-225000D01*
G01*
X114001000Y-105152000D01*
G75*
G02*
X113776000Y-105377000I-225000J0D01*
G01*
X113326000Y-105377000D01*
G75*
G02*
X113101000Y-105152000I0J225000D01*
G01*
G37*
%TD.AperFunction*%
%TD*%
%TO.P,C10,2*%
%TO.N,/GND*%
%TA.AperFunction,SMDPad,CuDef*%
G36*
G01*
X113101000Y-134616000D02*
X113101000Y-134116000D01*
G75*
G02*
X113326000Y-133891000I225000J0D01*
G01*
X113776000Y-133891000D01*
G75*
G02*
X114001000Y-134116000I0J-225000D01*
G01*
X114001000Y-134616000D01*
G75*
G02*
X113776000Y-134841000I-225000J0D01*
G01*
X113326000Y-134841000D01*
G75*
G02*
X113101000Y-134616000I0J225000D01*
G01*
G37*
%TD.AperFunction*%
%TO.P,C10,1*%
%TO.N,/3V3*%
%TA.AperFunction,SMDPad,CuDef*%
G36*
G01*
X111551000Y-134616000D02*
X111551000Y-134116000D01*
G75*
G02*
X111776000Y-133891000I225000J0D01*
G01*
X112226000Y-133891000D01*
G75*
G02*
X112451000Y-134116000I0J-225000D01*
G01*
X112451000Y-134616000D01*
G75*
G02*
X112226000Y-134841000I-225000J0D01*
G01*
X111776000Y-134841000D01*
G75*
G02*
X111551000Y-134616000I0J225000D01*
G01*
G37*
%TD.AperFunction*%
%TD*%
%TO.P,C11,1*%
%TO.N,/3V3*%
%TA.AperFunction,SMDPad,CuDef*%
G36*
G01*
X133649000Y-105152000D02*
X133649000Y-104652000D01*
G75*
G02*
X133874000Y-104427000I225000J0D01*
G01*
X134324000Y-104427000D01*
G75*
G02*
X134549000Y-104652000I0J-225000D01*
G01*
X134549000Y-105152000D01*
G75*
G02*
X134324000Y-105377000I-225000J0D01*
G01*
X133874000Y-105377000D01*
G75*
G02*
X133649000Y-105152000I0J225000D01*
G01*
G37*
%TD.AperFunction*%
%TO.P,C11,2*%
%TO.N,/GND*%
%TA.AperFunction,SMDPad,CuDef*%
G36*
G01*
X135199000Y-105152000D02*
X135199000Y-104652000D01*
G75*
G02*
X135424000Y-104427000I225000J0D01*
G01*
X135874000Y-104427000D01*
G75*
G02*
X136099000Y-104652000I0J-225000D01*
G01*
X136099000Y-105152000D01*
G75*
G02*
X135874000Y-105377000I-225000J0D01*
G01*
X135424000Y-105377000D01*
G75*
G02*
X135199000Y-105152000I0J225000D01*
G01*
G37*
%TD.AperFunction*%
%TD*%
%TO.P,C12,2*%
%TO.N,/GND*%
%TA.AperFunction,SMDPad,CuDef*%
G36*
G01*
X135199000Y-134616000D02*
X135199000Y-134116000D01*
G75*
G02*
X135424000Y-133891000I225000J0D01*
G01*
X135874000Y-133891000D01*
G75*
G02*
X136099000Y-134116000I0J-225000D01*
G01*
X136099000Y-134616000D01*
G75*
G02*
X135874000Y-134841000I-225000J0D01*
G01*
X135424000Y-134841000D01*
G75*
G02*
X135199000Y-134616000I0J225000D01*
G01*
G37*
%TD.AperFunction*%
%TO.P,C12,1*%
%TO.N,/3V3*%
%TA.AperFunction,SMDPad,CuDef*%
G36*
G01*
X133649000Y-134616000D02*
X133649000Y-134116000D01*
G75*
G02*
X133874000Y-133891000I225000J0D01*
G01*
X134324000Y-133891000D01*
G75*
G02*
X134549000Y-134116000I0J-225000D01*
G01*
X134549000Y-134616000D01*
G75*
G02*
X134324000Y-134841000I-225000J0D01*
G01*
X133874000Y-134841000D01*
G75*
G02*
X133649000Y-134616000I0J225000D01*
G01*
G37*
%TD.AperFunction*%
%TD*%
D11*
%TO.P,K1,1*%
%TO.N,/CTR*%
X86309200Y-140589000D03*
D12*
%TO.P,K1,2*%
%TO.N,/REF*%
X86309200Y-143129000D03*
%TO.P,K1,3*%
%TO.N,/WRK*%
X86309200Y-145669000D03*
%TD*%
D13*
%TO.P,P1,10*%
%TO.N,/D31*%
X89916000Y-160020000D03*
%TO.P,P1,9*%
%TO.N,/D30*%
X89916000Y-157480000D03*
%TO.P,P1,8*%
%TO.N,/D29*%
X92456000Y-160020000D03*
%TO.P,P1,7*%
%TO.N,/D28*%
X92456000Y-157480000D03*
%TO.P,P1,6*%
%TO.N,/D27*%
X94996000Y-160020000D03*
%TO.P,P1,5*%
%TO.N,/D26*%
X94996000Y-157480000D03*
%TO.P,P1,4*%
%TO.N,/D25*%
X97536000Y-160020000D03*
%TO.P,P1,3*%
%TO.N,/D24*%
X97536000Y-157480000D03*
%TO.P,P1,2*%
%TO.N,/GND*%
X100076000Y-160020000D03*
D11*
%TO.P,P1,1*%
%TO.N,/3V3*%
X100076000Y-157480000D03*
%TD*%
%TO.P,P2,1*%
%TO.N,Net-(P2-Pad1)*%
X125984000Y-157480000D03*
D13*
%TO.P,P2,2*%
%TO.N,Net-(P2-Pad2)*%
X125984000Y-160020000D03*
%TO.P,P2,3*%
%TO.N,/D3*%
X123444000Y-157480000D03*
%TO.P,P2,4*%
%TO.N,/D4*%
X123444000Y-160020000D03*
%TO.P,P2,5*%
%TO.N,/D19*%
X120904000Y-157480000D03*
%TO.P,P2,6*%
%TO.N,/D18*%
X120904000Y-160020000D03*
%TO.P,P2,7*%
%TO.N,/D12*%
X118364000Y-157480000D03*
%TO.P,P2,8*%
%TO.N,/D11*%
X118364000Y-160020000D03*
%TO.P,P2,9*%
%TO.N,/D13*%
X115824000Y-157480000D03*
%TO.P,P2,10*%
%TO.N,/D10*%
X115824000Y-160020000D03*
%TD*%
D11*
%TO.P,P3,1*%
%TO.N,/+15V*%
X107950000Y-78740000D03*
D12*
%TO.P,P3,2*%
X107950000Y-81280000D03*
%TD*%
%TO.P,P4,2*%
%TO.N,/-15V*%
X99060000Y-81280000D03*
D11*
%TO.P,P4,1*%
X99060000Y-78740000D03*
%TD*%
%TO.P,P5,1*%
%TO.N,/GND*%
X151130000Y-115570000D03*
D13*
%TO.P,P5,2*%
%TO.N,/CTR_SW*%
X153670000Y-115570000D03*
%TO.P,P5,3*%
%TO.N,/REF_SW*%
X151130000Y-118110000D03*
%TO.P,P5,4*%
%TO.N,/WRK_1*%
X153670000Y-118110000D03*
%TO.P,P5,5*%
%TO.N,/WRK_2*%
X151130000Y-120650000D03*
%TO.P,P5,6*%
%TO.N,/WRK_3*%
X153670000Y-120650000D03*
%TO.P,P5,7*%
%TO.N,/WRK_4*%
X151130000Y-123190000D03*
%TO.P,P5,8*%
%TO.N,/WRK_5*%
X153670000Y-123190000D03*
%TO.P,P5,9*%
%TO.N,/WRK_6*%
X151130000Y-125730000D03*
%TO.P,P5,10*%
%TO.N,/WRK_7*%
X153670000Y-125730000D03*
%TD*%
%TO.P,U1,16*%
%TO.N,/D27*%
%TA.AperFunction,SMDPad,CuDef*%
G36*
G01*
X108180000Y-99845000D02*
X108180000Y-99545000D01*
G75*
G02*
X108330000Y-99395000I150000J0D01*
G01*
X109980000Y-99395000D01*
G75*
G02*
X110130000Y-99545000I0J-150000D01*
G01*
X110130000Y-99845000D01*
G75*
G02*
X109980000Y-99995000I-150000J0D01*
G01*
X108330000Y-99995000D01*
G75*
G02*
X108180000Y-99845000I0J150000D01*
G01*
G37*
%TD.AperFunction*%
%TO.P,U1,15*%
%TO.N,/WRK_4*%
%TA.AperFunction,SMDPad,CuDef*%
G36*
G01*
X108180000Y-101115000D02*
X108180000Y-100815000D01*
G75*
G02*
X108330000Y-100665000I150000J0D01*
G01*
X109980000Y-100665000D01*
G75*
G02*
X110130000Y-100815000I0J-150000D01*
G01*
X110130000Y-101115000D01*
G75*
G02*
X109980000Y-101265000I-150000J0D01*
G01*
X108330000Y-101265000D01*
G75*
G02*
X108180000Y-101115000I0J150000D01*
G01*
G37*
%TD.AperFunction*%
%TO.P,U1,14*%
%TO.N,/WRK*%
%TA.AperFunction,SMDPad,CuDef*%
G36*
G01*
X108180000Y-102385000D02*
X108180000Y-102085000D01*
G75*
G02*
X108330000Y-101935000I150000J0D01*
G01*
X109980000Y-101935000D01*
G75*
G02*
X110130000Y-102085000I0J-150000D01*
G01*
X110130000Y-102385000D01*
G75*
G02*
X109980000Y-102535000I-150000J0D01*
G01*
X108330000Y-102535000D01*
G75*
G02*
X108180000Y-102385000I0J150000D01*
G01*
G37*
%TD.AperFunction*%
%TO.P,U1,13*%
%TO.N,/+15V*%
%TA.AperFunction,SMDPad,CuDef*%
G36*
G01*
X108180000Y-103655000D02*
X108180000Y-103355000D01*
G75*
G02*
X108330000Y-103205000I150000J0D01*
G01*
X109980000Y-103205000D01*
G75*
G02*
X110130000Y-103355000I0J-150000D01*
G01*
X110130000Y-103655000D01*
G75*
G02*
X109980000Y-103805000I-150000J0D01*
G01*
X108330000Y-103805000D01*
G75*
G02*
X108180000Y-103655000I0J150000D01*
G01*
G37*
%TD.AperFunction*%
%TO.P,U1,12*%
%TO.N,/3V3*%
%TA.AperFunction,SMDPad,CuDef*%
G36*
G01*
X108180000Y-104925000D02*
X108180000Y-104625000D01*
G75*
G02*
X108330000Y-104475000I150000J0D01*
G01*
X109980000Y-104475000D01*
G75*
G02*
X110130000Y-104625000I0J-150000D01*
G01*
X110130000Y-104925000D01*
G75*
G02*
X109980000Y-105075000I-150000J0D01*
G01*
X108330000Y-105075000D01*
G75*
G02*
X108180000Y-104925000I0J150000D01*
G01*
G37*
%TD.AperFunction*%
%TO.P,U1,11*%
%TO.N,/WRK*%
%TA.AperFunction,SMDPad,CuDef*%
G36*
G01*
X108180000Y-106195000D02*
X108180000Y-105895000D01*
G75*
G02*
X108330000Y-105745000I150000J0D01*
G01*
X109980000Y-105745000D01*
G75*
G02*
X110130000Y-105895000I0J-150000D01*
G01*
X110130000Y-106195000D01*
G75*
G02*
X109980000Y-106345000I-150000J0D01*
G01*
X108330000Y-106345000D01*
G75*
G02*
X108180000Y-106195000I0J150000D01*
G01*
G37*
%TD.AperFunction*%
%TO.P,U1,10*%
%TO.N,/WRK_3*%
%TA.AperFunction,SMDPad,CuDef*%
G36*
G01*
X108180000Y-107465000D02*
X108180000Y-107165000D01*
G75*
G02*
X108330000Y-107015000I150000J0D01*
G01*
X109980000Y-107015000D01*
G75*
G02*
X110130000Y-107165000I0J-150000D01*
G01*
X110130000Y-107465000D01*
G75*
G02*
X109980000Y-107615000I-150000J0D01*
G01*
X108330000Y-107615000D01*
G75*
G02*
X108180000Y-107465000I0J150000D01*
G01*
G37*
%TD.AperFunction*%
%TO.P,U1,9*%
%TO.N,/D26*%
%TA.AperFunction,SMDPad,CuDef*%
G36*
G01*
X108180000Y-108735000D02*
X108180000Y-108435000D01*
G75*
G02*
X108330000Y-108285000I150000J0D01*
G01*
X109980000Y-108285000D01*
G75*
G02*
X110130000Y-108435000I0J-150000D01*
G01*
X110130000Y-108735000D01*
G75*
G02*
X109980000Y-108885000I-150000J0D01*
G01*
X108330000Y-108885000D01*
G75*
G02*
X108180000Y-108735000I0J150000D01*
G01*
G37*
%TD.AperFunction*%
%TO.P,U1,8*%
%TO.N,/D25*%
%TA.AperFunction,SMDPad,CuDef*%
G36*
G01*
X103230000Y-108735000D02*
X103230000Y-108435000D01*
G75*
G02*
X103380000Y-108285000I150000J0D01*
G01*
X105030000Y-108285000D01*
G75*
G02*
X105180000Y-108435000I0J-150000D01*
G01*
X105180000Y-108735000D01*
G75*
G02*
X105030000Y-108885000I-150000J0D01*
G01*
X103380000Y-108885000D01*
G75*
G02*
X103230000Y-108735000I0J150000D01*
G01*
G37*
%TD.AperFunction*%
%TO.P,U1,7*%
%TO.N,/WRK*%
%TA.AperFunction,SMDPad,CuDef*%
G36*
G01*
X103230000Y-107465000D02*
X103230000Y-107165000D01*
G75*
G02*
X103380000Y-107015000I150000J0D01*
G01*
X105030000Y-107015000D01*
G75*
G02*
X105180000Y-107165000I0J-150000D01*
G01*
X105180000Y-107465000D01*
G75*
G02*
X105030000Y-107615000I-150000J0D01*
G01*
X103380000Y-107615000D01*
G75*
G02*
X103230000Y-107465000I0J150000D01*
G01*
G37*
%TD.AperFunction*%
%TO.P,U1,6*%
%TO.N,/WRK_2*%
%TA.AperFunction,SMDPad,CuDef*%
G36*
G01*
X103230000Y-106195000D02*
X103230000Y-105895000D01*
G75*
G02*
X103380000Y-105745000I150000J0D01*
G01*
X105030000Y-105745000D01*
G75*
G02*
X105180000Y-105895000I0J-150000D01*
G01*
X105180000Y-106195000D01*
G75*
G02*
X105030000Y-106345000I-150000J0D01*
G01*
X103380000Y-106345000D01*
G75*
G02*
X103230000Y-106195000I0J150000D01*
G01*
G37*
%TD.AperFunction*%
%TO.P,U1,5*%
%TO.N,/GND*%
%TA.AperFunction,SMDPad,CuDef*%
G36*
G01*
X103230000Y-104925000D02*
X103230000Y-104625000D01*
G75*
G02*
X103380000Y-104475000I150000J0D01*
G01*
X105030000Y-104475000D01*
G75*
G02*
X105180000Y-104625000I0J-150000D01*
G01*
X105180000Y-104925000D01*
G75*
G02*
X105030000Y-105075000I-150000J0D01*
G01*
X103380000Y-105075000D01*
G75*
G02*
X103230000Y-104925000I0J150000D01*
G01*
G37*
%TD.AperFunction*%
%TO.P,U1,4*%
%TO.N,/-15V*%
%TA.AperFunction,SMDPad,CuDef*%
G36*
G01*
X103230000Y-103655000D02*
X103230000Y-103355000D01*
G75*
G02*
X103380000Y-103205000I150000J0D01*
G01*
X105030000Y-103205000D01*
G75*
G02*
X105180000Y-103355000I0J-150000D01*
G01*
X105180000Y-103655000D01*
G75*
G02*
X105030000Y-103805000I-150000J0D01*
G01*
X103380000Y-103805000D01*
G75*
G02*
X103230000Y-103655000I0J150000D01*
G01*
G37*
%TD.AperFunction*%
%TO.P,U1,3*%
%TO.N,/WRK*%
%TA.AperFunction,SMDPad,CuDef*%
G36*
G01*
X103230000Y-102385000D02*
X103230000Y-102085000D01*
G75*
G02*
X103380000Y-101935000I150000J0D01*
G01*
X105030000Y-101935000D01*
G75*
G02*
X105180000Y-102085000I0J-150000D01*
G01*
X105180000Y-102385000D01*
G75*
G02*
X105030000Y-102535000I-150000J0D01*
G01*
X103380000Y-102535000D01*
G75*
G02*
X103230000Y-102385000I0J150000D01*
G01*
G37*
%TD.AperFunction*%
%TO.P,U1,2*%
%TO.N,/WRK_1*%
%TA.AperFunction,SMDPad,CuDef*%
G36*
G01*
X103230000Y-101115000D02*
X103230000Y-100815000D01*
G75*
G02*
X103380000Y-100665000I150000J0D01*
G01*
X105030000Y-100665000D01*
G75*
G02*
X105180000Y-100815000I0J-150000D01*
G01*
X105180000Y-101115000D01*
G75*
G02*
X105030000Y-101265000I-150000J0D01*
G01*
X103380000Y-101265000D01*
G75*
G02*
X103230000Y-101115000I0J150000D01*
G01*
G37*
%TD.AperFunction*%
%TO.P,U1,1*%
%TO.N,/D24*%
%TA.AperFunction,SMDPad,CuDef*%
G36*
G01*
X103230000Y-99845000D02*
X103230000Y-99545000D01*
G75*
G02*
X103380000Y-99395000I150000J0D01*
G01*
X105030000Y-99395000D01*
G75*
G02*
X105180000Y-99545000I0J-150000D01*
G01*
X105180000Y-99845000D01*
G75*
G02*
X105030000Y-99995000I-150000J0D01*
G01*
X103380000Y-99995000D01*
G75*
G02*
X103230000Y-99845000I0J150000D01*
G01*
G37*
%TD.AperFunction*%
%TD*%
%TO.P,U2,16*%
%TO.N,/D31*%
%TA.AperFunction,SMDPad,CuDef*%
G36*
G01*
X108180000Y-129309000D02*
X108180000Y-129009000D01*
G75*
G02*
X108330000Y-128859000I150000J0D01*
G01*
X109980000Y-128859000D01*
G75*
G02*
X110130000Y-129009000I0J-150000D01*
G01*
X110130000Y-129309000D01*
G75*
G02*
X109980000Y-129459000I-150000J0D01*
G01*
X108330000Y-129459000D01*
G75*
G02*
X108180000Y-129309000I0J150000D01*
G01*
G37*
%TD.AperFunction*%
%TO.P,U2,15*%
%TO.N,/WRK_4*%
%TA.AperFunction,SMDPad,CuDef*%
G36*
G01*
X108180000Y-130579000D02*
X108180000Y-130279000D01*
G75*
G02*
X108330000Y-130129000I150000J0D01*
G01*
X109980000Y-130129000D01*
G75*
G02*
X110130000Y-130279000I0J-150000D01*
G01*
X110130000Y-130579000D01*
G75*
G02*
X109980000Y-130729000I-150000J0D01*
G01*
X108330000Y-130729000D01*
G75*
G02*
X108180000Y-130579000I0J150000D01*
G01*
G37*
%TD.AperFunction*%
%TO.P,U2,14*%
%TO.N,/GND*%
%TA.AperFunction,SMDPad,CuDef*%
G36*
G01*
X108180000Y-131849000D02*
X108180000Y-131549000D01*
G75*
G02*
X108330000Y-131399000I150000J0D01*
G01*
X109980000Y-131399000D01*
G75*
G02*
X110130000Y-131549000I0J-150000D01*
G01*
X110130000Y-131849000D01*
G75*
G02*
X109980000Y-131999000I-150000J0D01*
G01*
X108330000Y-131999000D01*
G75*
G02*
X108180000Y-131849000I0J150000D01*
G01*
G37*
%TD.AperFunction*%
%TO.P,U2,13*%
%TO.N,/+15V*%
%TA.AperFunction,SMDPad,CuDef*%
G36*
G01*
X108180000Y-133119000D02*
X108180000Y-132819000D01*
G75*
G02*
X108330000Y-132669000I150000J0D01*
G01*
X109980000Y-132669000D01*
G75*
G02*
X110130000Y-132819000I0J-150000D01*
G01*
X110130000Y-133119000D01*
G75*
G02*
X109980000Y-133269000I-150000J0D01*
G01*
X108330000Y-133269000D01*
G75*
G02*
X108180000Y-133119000I0J150000D01*
G01*
G37*
%TD.AperFunction*%
%TO.P,U2,12*%
%TO.N,/3V3*%
%TA.AperFunction,SMDPad,CuDef*%
G36*
G01*
X108180000Y-134389000D02*
X108180000Y-134089000D01*
G75*
G02*
X108330000Y-133939000I150000J0D01*
G01*
X109980000Y-133939000D01*
G75*
G02*
X110130000Y-134089000I0J-150000D01*
G01*
X110130000Y-134389000D01*
G75*
G02*
X109980000Y-134539000I-150000J0D01*
G01*
X108330000Y-134539000D01*
G75*
G02*
X108180000Y-134389000I0J150000D01*
G01*
G37*
%TD.AperFunction*%
%TO.P,U2,11*%
%TO.N,/GND*%
%TA.AperFunction,SMDPad,CuDef*%
G36*
G01*
X108180000Y-135659000D02*
X108180000Y-135359000D01*
G75*
G02*
X108330000Y-135209000I150000J0D01*
G01*
X109980000Y-135209000D01*
G75*
G02*
X110130000Y-135359000I0J-150000D01*
G01*
X110130000Y-135659000D01*
G75*
G02*
X109980000Y-135809000I-150000J0D01*
G01*
X108330000Y-135809000D01*
G75*
G02*
X108180000Y-135659000I0J150000D01*
G01*
G37*
%TD.AperFunction*%
%TO.P,U2,10*%
%TO.N,/WRK_3*%
%TA.AperFunction,SMDPad,CuDef*%
G36*
G01*
X108180000Y-136929000D02*
X108180000Y-136629000D01*
G75*
G02*
X108330000Y-136479000I150000J0D01*
G01*
X109980000Y-136479000D01*
G75*
G02*
X110130000Y-136629000I0J-150000D01*
G01*
X110130000Y-136929000D01*
G75*
G02*
X109980000Y-137079000I-150000J0D01*
G01*
X108330000Y-137079000D01*
G75*
G02*
X108180000Y-136929000I0J150000D01*
G01*
G37*
%TD.AperFunction*%
%TO.P,U2,9*%
%TO.N,/D30*%
%TA.AperFunction,SMDPad,CuDef*%
G36*
G01*
X108180000Y-138199000D02*
X108180000Y-137899000D01*
G75*
G02*
X108330000Y-137749000I150000J0D01*
G01*
X109980000Y-137749000D01*
G75*
G02*
X110130000Y-137899000I0J-150000D01*
G01*
X110130000Y-138199000D01*
G75*
G02*
X109980000Y-138349000I-150000J0D01*
G01*
X108330000Y-138349000D01*
G75*
G02*
X108180000Y-138199000I0J150000D01*
G01*
G37*
%TD.AperFunction*%
%TO.P,U2,8*%
%TO.N,/D29*%
%TA.AperFunction,SMDPad,CuDef*%
G36*
G01*
X103230000Y-138199000D02*
X103230000Y-137899000D01*
G75*
G02*
X103380000Y-137749000I150000J0D01*
G01*
X105030000Y-137749000D01*
G75*
G02*
X105180000Y-137899000I0J-150000D01*
G01*
X105180000Y-138199000D01*
G75*
G02*
X105030000Y-138349000I-150000J0D01*
G01*
X103380000Y-138349000D01*
G75*
G02*
X103230000Y-138199000I0J150000D01*
G01*
G37*
%TD.AperFunction*%
%TO.P,U2,7*%
%TO.N,/GND*%
%TA.AperFunction,SMDPad,CuDef*%
G36*
G01*
X103230000Y-136929000D02*
X103230000Y-136629000D01*
G75*
G02*
X103380000Y-136479000I150000J0D01*
G01*
X105030000Y-136479000D01*
G75*
G02*
X105180000Y-136629000I0J-150000D01*
G01*
X105180000Y-136929000D01*
G75*
G02*
X105030000Y-137079000I-150000J0D01*
G01*
X103380000Y-137079000D01*
G75*
G02*
X103230000Y-136929000I0J150000D01*
G01*
G37*
%TD.AperFunction*%
%TO.P,U2,6*%
%TO.N,/WRK_2*%
%TA.AperFunction,SMDPad,CuDef*%
G36*
G01*
X103230000Y-135659000D02*
X103230000Y-135359000D01*
G75*
G02*
X103380000Y-135209000I150000J0D01*
G01*
X105030000Y-135209000D01*
G75*
G02*
X105180000Y-135359000I0J-150000D01*
G01*
X105180000Y-135659000D01*
G75*
G02*
X105030000Y-135809000I-150000J0D01*
G01*
X103380000Y-135809000D01*
G75*
G02*
X103230000Y-135659000I0J150000D01*
G01*
G37*
%TD.AperFunction*%
%TO.P,U2,5*%
%TO.N,/GND*%
%TA.AperFunction,SMDPad,CuDef*%
G36*
G01*
X103230000Y-134389000D02*
X103230000Y-134089000D01*
G75*
G02*
X103380000Y-133939000I150000J0D01*
G01*
X105030000Y-133939000D01*
G75*
G02*
X105180000Y-134089000I0J-150000D01*
G01*
X105180000Y-134389000D01*
G75*
G02*
X105030000Y-134539000I-150000J0D01*
G01*
X103380000Y-134539000D01*
G75*
G02*
X103230000Y-134389000I0J150000D01*
G01*
G37*
%TD.AperFunction*%
%TO.P,U2,4*%
%TO.N,/-15V*%
%TA.AperFunction,SMDPad,CuDef*%
G36*
G01*
X103230000Y-133119000D02*
X103230000Y-132819000D01*
G75*
G02*
X103380000Y-132669000I150000J0D01*
G01*
X105030000Y-132669000D01*
G75*
G02*
X105180000Y-132819000I0J-150000D01*
G01*
X105180000Y-133119000D01*
G75*
G02*
X105030000Y-133269000I-150000J0D01*
G01*
X103380000Y-133269000D01*
G75*
G02*
X103230000Y-133119000I0J150000D01*
G01*
G37*
%TD.AperFunction*%
%TO.P,U2,3*%
%TO.N,/GND*%
%TA.AperFunction,SMDPad,CuDef*%
G36*
G01*
X103230000Y-131849000D02*
X103230000Y-131549000D01*
G75*
G02*
X103380000Y-131399000I150000J0D01*
G01*
X105030000Y-131399000D01*
G75*
G02*
X105180000Y-131549000I0J-150000D01*
G01*
X105180000Y-131849000D01*
G75*
G02*
X105030000Y-131999000I-150000J0D01*
G01*
X103380000Y-131999000D01*
G75*
G02*
X103230000Y-131849000I0J150000D01*
G01*
G37*
%TD.AperFunction*%
%TO.P,U2,2*%
%TO.N,/WRK_1*%
%TA.AperFunction,SMDPad,CuDef*%
G36*
G01*
X103230000Y-130579000D02*
X103230000Y-130279000D01*
G75*
G02*
X103380000Y-130129000I150000J0D01*
G01*
X105030000Y-130129000D01*
G75*
G02*
X105180000Y-130279000I0J-150000D01*
G01*
X105180000Y-130579000D01*
G75*
G02*
X105030000Y-130729000I-150000J0D01*
G01*
X103380000Y-130729000D01*
G75*
G02*
X103230000Y-130579000I0J150000D01*
G01*
G37*
%TD.AperFunction*%
%TO.P,U2,1*%
%TO.N,/D28*%
%TA.AperFunction,SMDPad,CuDef*%
G36*
G01*
X103230000Y-129309000D02*
X103230000Y-129009000D01*
G75*
G02*
X103380000Y-128859000I150000J0D01*
G01*
X105030000Y-128859000D01*
G75*
G02*
X105180000Y-129009000I0J-150000D01*
G01*
X105180000Y-129309000D01*
G75*
G02*
X105030000Y-129459000I-150000J0D01*
G01*
X103380000Y-129459000D01*
G75*
G02*
X103230000Y-129309000I0J150000D01*
G01*
G37*
%TD.AperFunction*%
%TD*%
%TO.P,U3,1*%
%TO.N,/D3*%
%TA.AperFunction,SMDPad,CuDef*%
G36*
G01*
X125328000Y-99845000D02*
X125328000Y-99545000D01*
G75*
G02*
X125478000Y-99395000I150000J0D01*
G01*
X127128000Y-99395000D01*
G75*
G02*
X127278000Y-99545000I0J-150000D01*
G01*
X127278000Y-99845000D01*
G75*
G02*
X127128000Y-99995000I-150000J0D01*
G01*
X125478000Y-99995000D01*
G75*
G02*
X125328000Y-99845000I0J150000D01*
G01*
G37*
%TD.AperFunction*%
%TO.P,U3,2*%
%TO.N,/CTR_SW*%
%TA.AperFunction,SMDPad,CuDef*%
G36*
G01*
X125328000Y-101115000D02*
X125328000Y-100815000D01*
G75*
G02*
X125478000Y-100665000I150000J0D01*
G01*
X127128000Y-100665000D01*
G75*
G02*
X127278000Y-100815000I0J-150000D01*
G01*
X127278000Y-101115000D01*
G75*
G02*
X127128000Y-101265000I-150000J0D01*
G01*
X125478000Y-101265000D01*
G75*
G02*
X125328000Y-101115000I0J150000D01*
G01*
G37*
%TD.AperFunction*%
%TO.P,U3,3*%
%TO.N,/CTR*%
%TA.AperFunction,SMDPad,CuDef*%
G36*
G01*
X125328000Y-102385000D02*
X125328000Y-102085000D01*
G75*
G02*
X125478000Y-101935000I150000J0D01*
G01*
X127128000Y-101935000D01*
G75*
G02*
X127278000Y-102085000I0J-150000D01*
G01*
X127278000Y-102385000D01*
G75*
G02*
X127128000Y-102535000I-150000J0D01*
G01*
X125478000Y-102535000D01*
G75*
G02*
X125328000Y-102385000I0J150000D01*
G01*
G37*
%TD.AperFunction*%
%TO.P,U3,4*%
%TO.N,/-15V*%
%TA.AperFunction,SMDPad,CuDef*%
G36*
G01*
X125328000Y-103655000D02*
X125328000Y-103355000D01*
G75*
G02*
X125478000Y-103205000I150000J0D01*
G01*
X127128000Y-103205000D01*
G75*
G02*
X127278000Y-103355000I0J-150000D01*
G01*
X127278000Y-103655000D01*
G75*
G02*
X127128000Y-103805000I-150000J0D01*
G01*
X125478000Y-103805000D01*
G75*
G02*
X125328000Y-103655000I0J150000D01*
G01*
G37*
%TD.AperFunction*%
%TO.P,U3,5*%
%TO.N,/GND*%
%TA.AperFunction,SMDPad,CuDef*%
G36*
G01*
X125328000Y-104925000D02*
X125328000Y-104625000D01*
G75*
G02*
X125478000Y-104475000I150000J0D01*
G01*
X127128000Y-104475000D01*
G75*
G02*
X127278000Y-104625000I0J-150000D01*
G01*
X127278000Y-104925000D01*
G75*
G02*
X127128000Y-105075000I-150000J0D01*
G01*
X125478000Y-105075000D01*
G75*
G02*
X125328000Y-104925000I0J150000D01*
G01*
G37*
%TD.AperFunction*%
%TO.P,U3,6*%
%TO.N,/WRK_5*%
%TA.AperFunction,SMDPad,CuDef*%
G36*
G01*
X125328000Y-106195000D02*
X125328000Y-105895000D01*
G75*
G02*
X125478000Y-105745000I150000J0D01*
G01*
X127128000Y-105745000D01*
G75*
G02*
X127278000Y-105895000I0J-150000D01*
G01*
X127278000Y-106195000D01*
G75*
G02*
X127128000Y-106345000I-150000J0D01*
G01*
X125478000Y-106345000D01*
G75*
G02*
X125328000Y-106195000I0J150000D01*
G01*
G37*
%TD.AperFunction*%
%TO.P,U3,7*%
%TO.N,/WRK*%
%TA.AperFunction,SMDPad,CuDef*%
G36*
G01*
X125328000Y-107465000D02*
X125328000Y-107165000D01*
G75*
G02*
X125478000Y-107015000I150000J0D01*
G01*
X127128000Y-107015000D01*
G75*
G02*
X127278000Y-107165000I0J-150000D01*
G01*
X127278000Y-107465000D01*
G75*
G02*
X127128000Y-107615000I-150000J0D01*
G01*
X125478000Y-107615000D01*
G75*
G02*
X125328000Y-107465000I0J150000D01*
G01*
G37*
%TD.AperFunction*%
%TO.P,U3,8*%
%TO.N,/D4*%
%TA.AperFunction,SMDPad,CuDef*%
G36*
G01*
X125328000Y-108735000D02*
X125328000Y-108435000D01*
G75*
G02*
X125478000Y-108285000I150000J0D01*
G01*
X127128000Y-108285000D01*
G75*
G02*
X127278000Y-108435000I0J-150000D01*
G01*
X127278000Y-108735000D01*
G75*
G02*
X127128000Y-108885000I-150000J0D01*
G01*
X125478000Y-108885000D01*
G75*
G02*
X125328000Y-108735000I0J150000D01*
G01*
G37*
%TD.AperFunction*%
%TO.P,U3,9*%
%TO.N,/D19*%
%TA.AperFunction,SMDPad,CuDef*%
G36*
G01*
X130278000Y-108735000D02*
X130278000Y-108435000D01*
G75*
G02*
X130428000Y-108285000I150000J0D01*
G01*
X132078000Y-108285000D01*
G75*
G02*
X132228000Y-108435000I0J-150000D01*
G01*
X132228000Y-108735000D01*
G75*
G02*
X132078000Y-108885000I-150000J0D01*
G01*
X130428000Y-108885000D01*
G75*
G02*
X130278000Y-108735000I0J150000D01*
G01*
G37*
%TD.AperFunction*%
%TO.P,U3,10*%
%TO.N,/WRK_6*%
%TA.AperFunction,SMDPad,CuDef*%
G36*
G01*
X130278000Y-107465000D02*
X130278000Y-107165000D01*
G75*
G02*
X130428000Y-107015000I150000J0D01*
G01*
X132078000Y-107015000D01*
G75*
G02*
X132228000Y-107165000I0J-150000D01*
G01*
X132228000Y-107465000D01*
G75*
G02*
X132078000Y-107615000I-150000J0D01*
G01*
X130428000Y-107615000D01*
G75*
G02*
X130278000Y-107465000I0J150000D01*
G01*
G37*
%TD.AperFunction*%
%TO.P,U3,11*%
%TO.N,/WRK*%
%TA.AperFunction,SMDPad,CuDef*%
G36*
G01*
X130278000Y-106195000D02*
X130278000Y-105895000D01*
G75*
G02*
X130428000Y-105745000I150000J0D01*
G01*
X132078000Y-105745000D01*
G75*
G02*
X132228000Y-105895000I0J-150000D01*
G01*
X132228000Y-106195000D01*
G75*
G02*
X132078000Y-106345000I-150000J0D01*
G01*
X130428000Y-106345000D01*
G75*
G02*
X130278000Y-106195000I0J150000D01*
G01*
G37*
%TD.AperFunction*%
%TO.P,U3,12*%
%TO.N,/3V3*%
%TA.AperFunction,SMDPad,CuDef*%
G36*
G01*
X130278000Y-104925000D02*
X130278000Y-104625000D01*
G75*
G02*
X130428000Y-104475000I150000J0D01*
G01*
X132078000Y-104475000D01*
G75*
G02*
X132228000Y-104625000I0J-150000D01*
G01*
X132228000Y-104925000D01*
G75*
G02*
X132078000Y-105075000I-150000J0D01*
G01*
X130428000Y-105075000D01*
G75*
G02*
X130278000Y-104925000I0J150000D01*
G01*
G37*
%TD.AperFunction*%
%TO.P,U3,13*%
%TO.N,/+15V*%
%TA.AperFunction,SMDPad,CuDef*%
G36*
G01*
X130278000Y-103655000D02*
X130278000Y-103355000D01*
G75*
G02*
X130428000Y-103205000I150000J0D01*
G01*
X132078000Y-103205000D01*
G75*
G02*
X132228000Y-103355000I0J-150000D01*
G01*
X132228000Y-103655000D01*
G75*
G02*
X132078000Y-103805000I-150000J0D01*
G01*
X130428000Y-103805000D01*
G75*
G02*
X130278000Y-103655000I0J150000D01*
G01*
G37*
%TD.AperFunction*%
%TO.P,U3,14*%
%TO.N,/WRK*%
%TA.AperFunction,SMDPad,CuDef*%
G36*
G01*
X130278000Y-102385000D02*
X130278000Y-102085000D01*
G75*
G02*
X130428000Y-101935000I150000J0D01*
G01*
X132078000Y-101935000D01*
G75*
G02*
X132228000Y-102085000I0J-150000D01*
G01*
X132228000Y-102385000D01*
G75*
G02*
X132078000Y-102535000I-150000J0D01*
G01*
X130428000Y-102535000D01*
G75*
G02*
X130278000Y-102385000I0J150000D01*
G01*
G37*
%TD.AperFunction*%
%TO.P,U3,15*%
%TO.N,/WRK_7*%
%TA.AperFunction,SMDPad,CuDef*%
G36*
G01*
X130278000Y-101115000D02*
X130278000Y-100815000D01*
G75*
G02*
X130428000Y-100665000I150000J0D01*
G01*
X132078000Y-100665000D01*
G75*
G02*
X132228000Y-100815000I0J-150000D01*
G01*
X132228000Y-101115000D01*
G75*
G02*
X132078000Y-101265000I-150000J0D01*
G01*
X130428000Y-101265000D01*
G75*
G02*
X130278000Y-101115000I0J150000D01*
G01*
G37*
%TD.AperFunction*%
%TO.P,U3,16*%
%TO.N,/D18*%
%TA.AperFunction,SMDPad,CuDef*%
G36*
G01*
X130278000Y-99845000D02*
X130278000Y-99545000D01*
G75*
G02*
X130428000Y-99395000I150000J0D01*
G01*
X132078000Y-99395000D01*
G75*
G02*
X132228000Y-99545000I0J-150000D01*
G01*
X132228000Y-99845000D01*
G75*
G02*
X132078000Y-99995000I-150000J0D01*
G01*
X130428000Y-99995000D01*
G75*
G02*
X130278000Y-99845000I0J150000D01*
G01*
G37*
%TD.AperFunction*%
%TD*%
%TO.P,U4,1*%
%TO.N,/D12*%
%TA.AperFunction,SMDPad,CuDef*%
G36*
G01*
X125328000Y-129309000D02*
X125328000Y-129009000D01*
G75*
G02*
X125478000Y-128859000I150000J0D01*
G01*
X127128000Y-128859000D01*
G75*
G02*
X127278000Y-129009000I0J-150000D01*
G01*
X127278000Y-129309000D01*
G75*
G02*
X127128000Y-129459000I-150000J0D01*
G01*
X125478000Y-129459000D01*
G75*
G02*
X125328000Y-129309000I0J150000D01*
G01*
G37*
%TD.AperFunction*%
%TO.P,U4,2*%
%TO.N,/REF_SW*%
%TA.AperFunction,SMDPad,CuDef*%
G36*
G01*
X125328000Y-130579000D02*
X125328000Y-130279000D01*
G75*
G02*
X125478000Y-130129000I150000J0D01*
G01*
X127128000Y-130129000D01*
G75*
G02*
X127278000Y-130279000I0J-150000D01*
G01*
X127278000Y-130579000D01*
G75*
G02*
X127128000Y-130729000I-150000J0D01*
G01*
X125478000Y-130729000D01*
G75*
G02*
X125328000Y-130579000I0J150000D01*
G01*
G37*
%TD.AperFunction*%
%TO.P,U4,3*%
%TO.N,/REF*%
%TA.AperFunction,SMDPad,CuDef*%
G36*
G01*
X125328000Y-131849000D02*
X125328000Y-131549000D01*
G75*
G02*
X125478000Y-131399000I150000J0D01*
G01*
X127128000Y-131399000D01*
G75*
G02*
X127278000Y-131549000I0J-150000D01*
G01*
X127278000Y-131849000D01*
G75*
G02*
X127128000Y-131999000I-150000J0D01*
G01*
X125478000Y-131999000D01*
G75*
G02*
X125328000Y-131849000I0J150000D01*
G01*
G37*
%TD.AperFunction*%
%TO.P,U4,4*%
%TO.N,/-15V*%
%TA.AperFunction,SMDPad,CuDef*%
G36*
G01*
X125328000Y-133119000D02*
X125328000Y-132819000D01*
G75*
G02*
X125478000Y-132669000I150000J0D01*
G01*
X127128000Y-132669000D01*
G75*
G02*
X127278000Y-132819000I0J-150000D01*
G01*
X127278000Y-133119000D01*
G75*
G02*
X127128000Y-133269000I-150000J0D01*
G01*
X125478000Y-133269000D01*
G75*
G02*
X125328000Y-133119000I0J150000D01*
G01*
G37*
%TD.AperFunction*%
%TO.P,U4,5*%
%TO.N,/GND*%
%TA.AperFunction,SMDPad,CuDef*%
G36*
G01*
X125328000Y-134389000D02*
X125328000Y-134089000D01*
G75*
G02*
X125478000Y-133939000I150000J0D01*
G01*
X127128000Y-133939000D01*
G75*
G02*
X127278000Y-134089000I0J-150000D01*
G01*
X127278000Y-134389000D01*
G75*
G02*
X127128000Y-134539000I-150000J0D01*
G01*
X125478000Y-134539000D01*
G75*
G02*
X125328000Y-134389000I0J150000D01*
G01*
G37*
%TD.AperFunction*%
%TO.P,U4,6*%
%TO.N,/WRK_5*%
%TA.AperFunction,SMDPad,CuDef*%
G36*
G01*
X125328000Y-135659000D02*
X125328000Y-135359000D01*
G75*
G02*
X125478000Y-135209000I150000J0D01*
G01*
X127128000Y-135209000D01*
G75*
G02*
X127278000Y-135359000I0J-150000D01*
G01*
X127278000Y-135659000D01*
G75*
G02*
X127128000Y-135809000I-150000J0D01*
G01*
X125478000Y-135809000D01*
G75*
G02*
X125328000Y-135659000I0J150000D01*
G01*
G37*
%TD.AperFunction*%
%TO.P,U4,7*%
%TO.N,/GND*%
%TA.AperFunction,SMDPad,CuDef*%
G36*
G01*
X125328000Y-136929000D02*
X125328000Y-136629000D01*
G75*
G02*
X125478000Y-136479000I150000J0D01*
G01*
X127128000Y-136479000D01*
G75*
G02*
X127278000Y-136629000I0J-150000D01*
G01*
X127278000Y-136929000D01*
G75*
G02*
X127128000Y-137079000I-150000J0D01*
G01*
X125478000Y-137079000D01*
G75*
G02*
X125328000Y-136929000I0J150000D01*
G01*
G37*
%TD.AperFunction*%
%TO.P,U4,8*%
%TO.N,/D11*%
%TA.AperFunction,SMDPad,CuDef*%
G36*
G01*
X125328000Y-138199000D02*
X125328000Y-137899000D01*
G75*
G02*
X125478000Y-137749000I150000J0D01*
G01*
X127128000Y-137749000D01*
G75*
G02*
X127278000Y-137899000I0J-150000D01*
G01*
X127278000Y-138199000D01*
G75*
G02*
X127128000Y-138349000I-150000J0D01*
G01*
X125478000Y-138349000D01*
G75*
G02*
X125328000Y-138199000I0J150000D01*
G01*
G37*
%TD.AperFunction*%
%TO.P,U4,9*%
%TO.N,/D13*%
%TA.AperFunction,SMDPad,CuDef*%
G36*
G01*
X130278000Y-138199000D02*
X130278000Y-137899000D01*
G75*
G02*
X130428000Y-137749000I150000J0D01*
G01*
X132078000Y-137749000D01*
G75*
G02*
X132228000Y-137899000I0J-150000D01*
G01*
X132228000Y-138199000D01*
G75*
G02*
X132078000Y-138349000I-150000J0D01*
G01*
X130428000Y-138349000D01*
G75*
G02*
X130278000Y-138199000I0J150000D01*
G01*
G37*
%TD.AperFunction*%
%TO.P,U4,10*%
%TO.N,/WRK_6*%
%TA.AperFunction,SMDPad,CuDef*%
G36*
G01*
X130278000Y-136929000D02*
X130278000Y-136629000D01*
G75*
G02*
X130428000Y-136479000I150000J0D01*
G01*
X132078000Y-136479000D01*
G75*
G02*
X132228000Y-136629000I0J-150000D01*
G01*
X132228000Y-136929000D01*
G75*
G02*
X132078000Y-137079000I-150000J0D01*
G01*
X130428000Y-137079000D01*
G75*
G02*
X130278000Y-136929000I0J150000D01*
G01*
G37*
%TD.AperFunction*%
%TO.P,U4,11*%
%TO.N,/GND*%
%TA.AperFunction,SMDPad,CuDef*%
G36*
G01*
X130278000Y-135659000D02*
X130278000Y-135359000D01*
G75*
G02*
X130428000Y-135209000I150000J0D01*
G01*
X132078000Y-135209000D01*
G75*
G02*
X132228000Y-135359000I0J-150000D01*
G01*
X132228000Y-135659000D01*
G75*
G02*
X132078000Y-135809000I-150000J0D01*
G01*
X130428000Y-135809000D01*
G75*
G02*
X130278000Y-135659000I0J150000D01*
G01*
G37*
%TD.AperFunction*%
%TO.P,U4,12*%
%TO.N,/3V3*%
%TA.AperFunction,SMDPad,CuDef*%
G36*
G01*
X130278000Y-134389000D02*
X130278000Y-134089000D01*
G75*
G02*
X130428000Y-133939000I150000J0D01*
G01*
X132078000Y-133939000D01*
G75*
G02*
X132228000Y-134089000I0J-150000D01*
G01*
X132228000Y-134389000D01*
G75*
G02*
X132078000Y-134539000I-150000J0D01*
G01*
X130428000Y-134539000D01*
G75*
G02*
X130278000Y-134389000I0J150000D01*
G01*
G37*
%TD.AperFunction*%
%TO.P,U4,13*%
%TO.N,/+15V*%
%TA.AperFunction,SMDPad,CuDef*%
G36*
G01*
X130278000Y-133119000D02*
X130278000Y-132819000D01*
G75*
G02*
X130428000Y-132669000I150000J0D01*
G01*
X132078000Y-132669000D01*
G75*
G02*
X132228000Y-132819000I0J-150000D01*
G01*
X132228000Y-133119000D01*
G75*
G02*
X132078000Y-133269000I-150000J0D01*
G01*
X130428000Y-133269000D01*
G75*
G02*
X130278000Y-133119000I0J150000D01*
G01*
G37*
%TD.AperFunction*%
%TO.P,U4,14*%
%TO.N,/GND*%
%TA.AperFunction,SMDPad,CuDef*%
G36*
G01*
X130278000Y-131849000D02*
X130278000Y-131549000D01*
G75*
G02*
X130428000Y-131399000I150000J0D01*
G01*
X132078000Y-131399000D01*
G75*
G02*
X132228000Y-131549000I0J-150000D01*
G01*
X132228000Y-131849000D01*
G75*
G02*
X132078000Y-131999000I-150000J0D01*
G01*
X130428000Y-131999000D01*
G75*
G02*
X130278000Y-131849000I0J150000D01*
G01*
G37*
%TD.AperFunction*%
%TO.P,U4,15*%
%TO.N,/WRK_7*%
%TA.AperFunction,SMDPad,CuDef*%
G36*
G01*
X130278000Y-130579000D02*
X130278000Y-130279000D01*
G75*
G02*
X130428000Y-130129000I150000J0D01*
G01*
X132078000Y-130129000D01*
G75*
G02*
X132228000Y-130279000I0J-150000D01*
G01*
X132228000Y-130579000D01*
G75*
G02*
X132078000Y-130729000I-150000J0D01*
G01*
X130428000Y-130729000D01*
G75*
G02*
X130278000Y-130579000I0J150000D01*
G01*
G37*
%TD.AperFunction*%
%TO.P,U4,16*%
%TO.N,/D10*%
%TA.AperFunction,SMDPad,CuDef*%
G36*
G01*
X130278000Y-129309000D02*
X130278000Y-129009000D01*
G75*
G02*
X130428000Y-128859000I150000J0D01*
G01*
X132078000Y-128859000D01*
G75*
G02*
X132228000Y-129009000I0J-150000D01*
G01*
X132228000Y-129309000D01*
G75*
G02*
X132078000Y-129459000I-150000J0D01*
G01*
X130428000Y-129459000D01*
G75*
G02*
X130278000Y-129309000I0J150000D01*
G01*
G37*
%TD.AperFunction*%
%TD*%
D14*
%TO.N,/CTR*%
X124665100Y-102380400D03*
%TO.N,/CTR_SW*%
X127938200Y-101031900D03*
%TO.N,/D10*%
X130288100Y-128194100D03*
%TO.N,/D12*%
X126419800Y-128057400D03*
%TO.N,/D13*%
X129155500Y-139519500D03*
%TO.N,/D19*%
X131162400Y-125832200D03*
%TO.N,/D25*%
X105648900Y-125465200D03*
%TO.N,/D26*%
X109488700Y-128193400D03*
%TO.N,/D28*%
X106026000Y-131775000D03*
%TO.N,/D3*%
X127955800Y-99873000D03*
%TO.N,/D31*%
X108394000Y-128201700D03*
%TO.N,/GND*%
X121998900Y-115736900D03*
X134965400Y-115570000D03*
%TO.N,/REF*%
X124103500Y-127538700D03*
%TO.N,/REF_SW*%
X127003100Y-119790200D03*
%TO.N,/WRK*%
X103077000Y-118261600D03*
X110744000Y-97231200D03*
X120345200Y-96215200D03*
%TO.N,/WRK_1*%
X106562700Y-116892300D03*
%TO.N,/WRK_2*%
X98980500Y-131041500D03*
X103676300Y-120649500D03*
%TO.N,/WRK_3*%
X111208300Y-136779000D03*
X113160700Y-127603300D03*
%TO.N,/WRK_4*%
X107467300Y-123641700D03*
%TO.N,/WRK_5*%
X127771800Y-121900500D03*
%TO.N,/WRK_7*%
X133515100Y-129135300D03*
%TO.N,/-15V*%
X101191800Y-102292800D03*
X122729600Y-102436800D03*
%TO.N,/+15V*%
X129554200Y-103430800D03*
X121060800Y-116498600D03*
X129485800Y-114882700D03*
%TO.N,/3V3*%
X128062900Y-139818000D03*
X114001300Y-128812200D03*
%TD*%
D15*
%TO.N,/CTR*%
X126303000Y-102235000D02*
X126157600Y-102380400D01*
X126157600Y-102380400D02*
X124665100Y-102380400D01*
%TO.N,/CTR_SW*%
X126303000Y-100965000D02*
X127871300Y-100965000D01*
X127871300Y-100965000D02*
X127938200Y-101031900D01*
%TO.N,/D10*%
X131253000Y-129159000D02*
X130288100Y-128194100D01*
%TO.N,/D11*%
X126303000Y-138049000D02*
X119634000Y-144718000D01*
X119634000Y-144718000D02*
X119634000Y-158750000D01*
X119634000Y-158750000D02*
X118364000Y-160020000D01*
%TO.N,/D12*%
X126303000Y-129159000D02*
X126419800Y-129042200D01*
X126419800Y-129042200D02*
X126419800Y-128057400D01*
%TO.N,/D13*%
X131253000Y-138049000D02*
X129782500Y-139519500D01*
X129782500Y-139519500D02*
X129155500Y-139519500D01*
%TO.N,/D18*%
X131253000Y-99695000D02*
X134534600Y-99695000D01*
X134534600Y-99695000D02*
X140653700Y-105814100D01*
X140653700Y-105814100D02*
X145724700Y-105814100D01*
X145724700Y-105814100D02*
X155520500Y-115609900D01*
X155520500Y-115609900D02*
X155520500Y-125706600D01*
X155520500Y-125706600D02*
X146394300Y-134832800D01*
X146394300Y-134832800D02*
X141680700Y-134832800D01*
X141680700Y-134832800D02*
X128977400Y-147536100D01*
X128977400Y-147536100D02*
X128977400Y-158818100D01*
X128977400Y-158818100D02*
X126476800Y-161318700D01*
X126476800Y-161318700D02*
X122202700Y-161318700D01*
X122202700Y-161318700D02*
X120904000Y-160020000D01*
%TO.N,/D19*%
X131253000Y-108585000D02*
X131253000Y-125741600D01*
X131253000Y-125741600D02*
X131162400Y-125832200D01*
%TO.N,/D24*%
X104205000Y-99695000D02*
X101431400Y-99695000D01*
X101431400Y-99695000D02*
X97536000Y-103590400D01*
X97536000Y-103590400D02*
X97536000Y-157480000D01*
%TO.N,/D25*%
X104205000Y-108585000D02*
X105648900Y-110028900D01*
X105648900Y-110028900D02*
X105648900Y-125465200D01*
%TO.N,/D26*%
X109155000Y-108585000D02*
X109488700Y-108918700D01*
X109488700Y-108918700D02*
X109488700Y-128193400D01*
%TO.N,/D27*%
X109155000Y-99695000D02*
X108448100Y-98988100D01*
X108448100Y-98988100D02*
X101311700Y-98988100D01*
X101311700Y-98988100D02*
X96291900Y-104007900D01*
X96291900Y-104007900D02*
X96291900Y-158724100D01*
X96291900Y-158724100D02*
X94996000Y-160020000D01*
%TO.N,/D28*%
X104205000Y-129159000D02*
X104718700Y-129159000D01*
X104718700Y-129159000D02*
X106026000Y-130466300D01*
X106026000Y-130466300D02*
X106026000Y-131775000D01*
%TO.N,/D29*%
X104205000Y-138049000D02*
X98806000Y-143448000D01*
X98806000Y-143448000D02*
X98806000Y-160535600D01*
X98806000Y-160535600D02*
X98051300Y-161290300D01*
X98051300Y-161290300D02*
X93726300Y-161290300D01*
X93726300Y-161290300D02*
X92456000Y-160020000D01*
%TO.N,/D3*%
X126303000Y-99695000D02*
X127777800Y-99695000D01*
X127777800Y-99695000D02*
X127955800Y-99873000D01*
%TO.N,/D30*%
X109155000Y-138049000D02*
X109155000Y-152701200D01*
X109155000Y-152701200D02*
X99981300Y-161874900D01*
X99981300Y-161874900D02*
X92520000Y-161874900D01*
X92520000Y-161874900D02*
X91186000Y-160540900D01*
X91186000Y-160540900D02*
X91186000Y-158750000D01*
X91186000Y-158750000D02*
X89916000Y-157480000D01*
%TO.N,/D31*%
X109155000Y-129159000D02*
X108394000Y-128398000D01*
X108394000Y-128398000D02*
X108394000Y-128201700D01*
%TO.N,/D4*%
X126303000Y-108585000D02*
X128610300Y-110892300D01*
X128610300Y-110892300D02*
X128610300Y-137909700D01*
X128610300Y-137909700D02*
X124739900Y-141780100D01*
X124739900Y-141780100D02*
X124739900Y-158724100D01*
X124739900Y-158724100D02*
X123444000Y-160020000D01*
%TO.N,/GND*%
X126303000Y-104775000D02*
X126777400Y-104775000D01*
X126777400Y-104775000D02*
X128089800Y-103462600D01*
X128089800Y-103462600D02*
X128089800Y-102601800D01*
X128089800Y-102601800D02*
X128800800Y-101890800D01*
X128800800Y-101890800D02*
X128800800Y-99530900D01*
X128800800Y-99530900D02*
X128264300Y-98994400D01*
X128264300Y-98994400D02*
X124948500Y-98994400D01*
X124948500Y-98994400D02*
X121852700Y-102090200D01*
X121852700Y-102090200D02*
X121852700Y-103378000D01*
X121907000Y-115490000D02*
X120830600Y-115490000D01*
X120830600Y-115490000D02*
X119653200Y-116667400D01*
X119653200Y-116667400D02*
X119653200Y-124363100D01*
X119653200Y-124363100D02*
X112317300Y-131699000D01*
X112317300Y-131699000D02*
X109155000Y-131699000D01*
X121761400Y-132823400D02*
X121998900Y-132585900D01*
X121998900Y-132585900D02*
X121998900Y-115736900D01*
X113551000Y-104902000D02*
X113551000Y-103378000D01*
X121907000Y-103505000D02*
X121852700Y-103450700D01*
X121852700Y-103450700D02*
X121852700Y-103378000D01*
X121852700Y-103378000D02*
X113551000Y-103378000D01*
X104205000Y-134239000D02*
X101079000Y-134239000D01*
X101079000Y-134239000D02*
X99809000Y-132969000D01*
X104689900Y-134239000D02*
X104205000Y-134239000D01*
X101637400Y-104775000D02*
X101079000Y-104775000D01*
X101079000Y-104775000D02*
X99809000Y-103505000D01*
X104205000Y-104775000D02*
X101637400Y-104775000D01*
X104205000Y-131699000D02*
X103709600Y-131699000D01*
X103709600Y-131699000D02*
X101637400Y-129626800D01*
X101637400Y-129626800D02*
X101637400Y-104775000D01*
X105584900Y-132613500D02*
X105584900Y-132540100D01*
X105584900Y-132540100D02*
X104743800Y-131699000D01*
X104743800Y-131699000D02*
X104205000Y-131699000D01*
X121907000Y-115490000D02*
X121907000Y-103505000D01*
X121761400Y-132823400D02*
X121907000Y-132969000D01*
X113551000Y-132842000D02*
X113569600Y-132823400D01*
X113569600Y-132823400D02*
X121761400Y-132823400D01*
X121907000Y-115490000D02*
X121998900Y-115581900D01*
X121998900Y-115581900D02*
X121998900Y-115736900D01*
X135649000Y-104902000D02*
X135649000Y-103378000D01*
X151130000Y-115570000D02*
X146317000Y-115570000D01*
X146317000Y-115570000D02*
X135649000Y-104902000D01*
X113551000Y-134366000D02*
X112408000Y-135509000D01*
X112408000Y-135509000D02*
X109155000Y-135509000D01*
X113551000Y-132842000D02*
X113551000Y-134366000D01*
X135649000Y-134366000D02*
X134506000Y-135509000D01*
X134506000Y-135509000D02*
X131253000Y-135509000D01*
X105584900Y-132613500D02*
X107422200Y-132613500D01*
X107422200Y-132613500D02*
X108336700Y-131699000D01*
X108336700Y-131699000D02*
X109155000Y-131699000D01*
X104689900Y-134239000D02*
X105584900Y-133344000D01*
X105584900Y-133344000D02*
X105584900Y-132613500D01*
X104689900Y-134239000D02*
X105574700Y-135123800D01*
X105574700Y-135123800D02*
X105574700Y-135923000D01*
X105574700Y-135923000D02*
X104718700Y-136779000D01*
X104718700Y-136779000D02*
X104205000Y-136779000D01*
X134506000Y-131699000D02*
X134506000Y-116029400D01*
X134506000Y-116029400D02*
X134965400Y-115570000D01*
X134506000Y-131699000D02*
X135649000Y-132842000D01*
X131253000Y-131699000D02*
X134506000Y-131699000D01*
X135649000Y-132842000D02*
X135649000Y-134366000D01*
X100076000Y-160020000D02*
X107715400Y-152380600D01*
X107715400Y-152380600D02*
X107715400Y-136474200D01*
X107715400Y-136474200D02*
X108680600Y-135509000D01*
X108680600Y-135509000D02*
X109155000Y-135509000D01*
X124923900Y-134239000D02*
X123177000Y-134239000D01*
X123177000Y-134239000D02*
X121907000Y-132969000D01*
X126303000Y-134239000D02*
X124923900Y-134239000D01*
X124923900Y-134239000D02*
X124923900Y-135912600D01*
X124923900Y-135912600D02*
X125790300Y-136779000D01*
X125790300Y-136779000D02*
X126303000Y-136779000D01*
%TO.N,/REF*%
X124103500Y-127538700D02*
X124103500Y-130027400D01*
X124103500Y-130027400D02*
X125775100Y-131699000D01*
X125775100Y-131699000D02*
X126303000Y-131699000D01*
%TO.N,/REF_SW*%
X127003100Y-119790200D02*
X125421600Y-121371700D01*
X125421600Y-121371700D02*
X125421600Y-127411800D01*
X125421600Y-127411800D02*
X124878600Y-127954800D01*
X124878600Y-127954800D02*
X124878600Y-129512200D01*
X124878600Y-129512200D02*
X125795400Y-130429000D01*
X125795400Y-130429000D02*
X126303000Y-130429000D01*
%TO.N,/WRK*%
X128695000Y-105468200D02*
X126848200Y-107315000D01*
X126848200Y-107315000D02*
X126303000Y-107315000D01*
X129564300Y-102235000D02*
X128695000Y-103104300D01*
X128695000Y-103104300D02*
X128695000Y-105468200D01*
X128695000Y-105468200D02*
X129271800Y-106045000D01*
X129271800Y-106045000D02*
X131253000Y-106045000D01*
X129564300Y-102235000D02*
X129564300Y-98055200D01*
X131253000Y-102235000D02*
X129564300Y-102235000D01*
X104205000Y-107315000D02*
X104718700Y-107315000D01*
X104718700Y-107315000D02*
X105588600Y-106445100D01*
X105588600Y-106445100D02*
X105588600Y-103121100D01*
X105588600Y-103121100D02*
X104702500Y-102235000D01*
X104702500Y-102235000D02*
X104205000Y-102235000D01*
X103077000Y-118261600D02*
X102808300Y-117992900D01*
X102808300Y-117992900D02*
X102808300Y-108182500D01*
X102808300Y-108182500D02*
X103675800Y-107315000D01*
X103675800Y-107315000D02*
X104205000Y-107315000D01*
X106695400Y-98403500D02*
X101069700Y-98403500D01*
X101069700Y-98403500D02*
X95535700Y-103937500D01*
X95535700Y-103937500D02*
X95535700Y-135714000D01*
X95535700Y-135714000D02*
X86824700Y-144425000D01*
X86824700Y-144425000D02*
X86309200Y-144425000D01*
X109155000Y-102235000D02*
X109652800Y-102235000D01*
X109652800Y-102235000D02*
X110537900Y-101349900D01*
X110537900Y-101349900D02*
X110537900Y-99324200D01*
X110537900Y-99324200D02*
X109617200Y-98403500D01*
X109617200Y-98403500D02*
X106695400Y-98403500D01*
X86309200Y-145669000D02*
X86309200Y-144425000D01*
X109155000Y-102235000D02*
X108665200Y-102235000D01*
X108665200Y-102235000D02*
X107747100Y-103153100D01*
X107747100Y-103153100D02*
X107747100Y-105157500D01*
X107747100Y-105157500D02*
X108634600Y-106045000D01*
X108634600Y-106045000D02*
X109155000Y-106045000D01*
X109617200Y-98358000D02*
X110744000Y-97231200D01*
X109617200Y-98403500D02*
X109617200Y-98358000D01*
X127724300Y-96215200D02*
X129564300Y-98055200D01*
X120345200Y-96215200D02*
X127724300Y-96215200D01*
%TO.N,/WRK_1*%
X106562700Y-116892300D02*
X106562700Y-102771200D01*
X106562700Y-102771200D02*
X104756500Y-100965000D01*
X104756500Y-100965000D02*
X104205000Y-100965000D01*
X104205000Y-130429000D02*
X103667500Y-130429000D01*
X103667500Y-130429000D02*
X102808300Y-129569800D01*
X102808300Y-129569800D02*
X102808300Y-128800700D01*
X102808300Y-128800700D02*
X105211400Y-126397600D01*
X105211400Y-126397600D02*
X105922900Y-126397600D01*
X105922900Y-126397600D02*
X106562700Y-125757800D01*
X106562700Y-125757800D02*
X106562700Y-116892300D01*
%TO.N,/WRK_2*%
X104205000Y-135509000D02*
X100998400Y-135509000D01*
X100998400Y-135509000D02*
X98961300Y-133471900D01*
X98961300Y-133471900D02*
X98961300Y-131060700D01*
X98961300Y-131060700D02*
X98980500Y-131041500D01*
X104205000Y-106045000D02*
X103706500Y-106045000D01*
X103706500Y-106045000D02*
X102223800Y-107527700D01*
X102223800Y-107527700D02*
X102223800Y-119197000D01*
X102223800Y-119197000D02*
X103676300Y-120649500D01*
%TO.N,/WRK_3*%
X109155000Y-136779000D02*
X111208300Y-136779000D01*
X109155000Y-107315000D02*
X109695600Y-107315000D01*
X109695600Y-107315000D02*
X113160700Y-110780100D01*
X113160700Y-110780100D02*
X113160700Y-127603300D01*
%TO.N,/WRK_4*%
X107467300Y-123641700D02*
X107467300Y-115909500D01*
X107467300Y-115909500D02*
X107147300Y-115589500D01*
X107147300Y-115589500D02*
X107147300Y-102440600D01*
X107147300Y-102440600D02*
X108622900Y-100965000D01*
X108622900Y-100965000D02*
X109155000Y-100965000D01*
X109155000Y-130429000D02*
X108671000Y-130429000D01*
X108671000Y-130429000D02*
X107467300Y-129225300D01*
X107467300Y-129225300D02*
X107467300Y-123641700D01*
%TO.N,/WRK_5*%
X126303000Y-106045000D02*
X125820100Y-106045000D01*
X125820100Y-106045000D02*
X124912900Y-106952200D01*
X124912900Y-106952200D02*
X124912900Y-116514000D01*
X124912900Y-116514000D02*
X127857500Y-119458600D01*
X127857500Y-119458600D02*
X127857500Y-121814800D01*
X127857500Y-121814800D02*
X127771800Y-121900500D01*
X126303000Y-135509000D02*
X126814700Y-135509000D01*
X126814700Y-135509000D02*
X127771700Y-134552000D01*
X127771700Y-134552000D02*
X127771700Y-121900500D01*
X127771700Y-121900500D02*
X127771800Y-121900500D01*
%TO.N,/WRK_6*%
X145635500Y-125730000D02*
X151130000Y-125730000D01*
X131253000Y-136779000D02*
X134586500Y-136779000D01*
X134586500Y-136779000D02*
X145635500Y-125730000D01*
X131253000Y-107315000D02*
X131766700Y-107315000D01*
X131766700Y-107315000D02*
X145635500Y-121183800D01*
X145635500Y-121183800D02*
X145635500Y-125730000D01*
%TO.N,/WRK_7*%
X153670000Y-125730000D02*
X154931100Y-124468900D01*
X154931100Y-124468900D02*
X154931100Y-122682300D01*
X154931100Y-122682300D02*
X154168800Y-121920000D01*
X154168800Y-121920000D02*
X153161700Y-121920000D01*
X153161700Y-121920000D02*
X152374100Y-121132400D01*
X152374100Y-121132400D02*
X152374100Y-114536600D01*
X152374100Y-114536600D02*
X146108900Y-108271400D01*
X146108900Y-108271400D02*
X142284300Y-108271400D01*
X142284300Y-108271400D02*
X134977900Y-100965000D01*
X134977900Y-100965000D02*
X131253000Y-100965000D01*
X131253000Y-130429000D02*
X132221400Y-130429000D01*
X132221400Y-130429000D02*
X133515100Y-129135300D01*
%TO.N,/-15V*%
X123457000Y-132969000D02*
X123251100Y-132763100D01*
X123251100Y-132763100D02*
X123251100Y-103710900D01*
X123251100Y-103710900D02*
X123457000Y-103505000D01*
X123457000Y-132969000D02*
X126303000Y-132969000D01*
X101359000Y-132969000D02*
X101359000Y-130572500D01*
X101359000Y-130572500D02*
X98954800Y-128168300D01*
X98954800Y-128168300D02*
X98954800Y-102998400D01*
X98954800Y-102998400D02*
X99660400Y-102292800D01*
X99660400Y-102292800D02*
X101191800Y-102292800D01*
X104205000Y-132969000D02*
X101359000Y-132969000D01*
X101191800Y-102292800D02*
X101359000Y-102460000D01*
X101359000Y-102460000D02*
X101359000Y-103505000D01*
X101359000Y-103505000D02*
X104205000Y-103505000D01*
X123457000Y-103505000D02*
X123457000Y-103164200D01*
X123457000Y-103164200D02*
X122729600Y-102436800D01*
X123457000Y-103505000D02*
X126303000Y-103505000D01*
X99060000Y-78740000D02*
X99060000Y-81280000D01*
%TO.N,/+15V*%
X129554200Y-103430800D02*
X131178800Y-103430800D01*
X131178800Y-103430800D02*
X131253000Y-103505000D01*
X131253000Y-132969000D02*
X133972000Y-132969000D01*
X133972000Y-132969000D02*
X134099000Y-132842000D01*
X129485800Y-114882700D02*
X129419600Y-114948900D01*
X129419600Y-114948900D02*
X129419600Y-131699300D01*
X129419600Y-131699300D02*
X130689300Y-132969000D01*
X130689300Y-132969000D02*
X131253000Y-132969000D01*
X121060800Y-116498600D02*
X121060800Y-123782200D01*
X121060800Y-123782200D02*
X112001000Y-132842000D01*
X134099000Y-103378000D02*
X131380000Y-103378000D01*
X131380000Y-103378000D02*
X131253000Y-103505000D01*
X111937500Y-103378000D02*
X111937500Y-86511500D01*
X111937500Y-86511500D02*
X107950000Y-82524000D01*
X109155000Y-103505000D02*
X111810500Y-103505000D01*
X111810500Y-103505000D02*
X111937500Y-103378000D01*
X111937500Y-103378000D02*
X112001000Y-103378000D01*
X107950000Y-81280000D02*
X107950000Y-82524000D01*
X112001000Y-132842000D02*
X109282000Y-132842000D01*
X109282000Y-132842000D02*
X109155000Y-132969000D01*
X107950000Y-78740000D02*
X107950000Y-81280000D01*
%TO.N,/3V3*%
X128317000Y-139818000D02*
X128317000Y-139931600D01*
X128317000Y-139931600D02*
X128779900Y-140394500D01*
X128779900Y-140394500D02*
X134889200Y-140394500D01*
X134889200Y-140394500D02*
X147889900Y-127393800D01*
X147889900Y-127393800D02*
X151270500Y-127393800D01*
X151270500Y-127393800D02*
X152374100Y-126290200D01*
X152374100Y-126290200D02*
X152374100Y-122601800D01*
X152374100Y-122601800D02*
X151692300Y-121920000D01*
X151692300Y-121920000D02*
X150564800Y-121920000D01*
X150564800Y-121920000D02*
X134099000Y-105454200D01*
X134099000Y-105454200D02*
X134099000Y-104902000D01*
X131253000Y-134239000D02*
X130739300Y-134239000D01*
X130739300Y-134239000D02*
X129467800Y-135510500D01*
X129467800Y-135510500D02*
X129467800Y-138021400D01*
X129467800Y-138021400D02*
X128317000Y-139172200D01*
X128317000Y-139172200D02*
X128317000Y-139818000D01*
X128317000Y-139818000D02*
X128062900Y-139818000D01*
X109155000Y-134239000D02*
X111874000Y-134239000D01*
X111874000Y-134239000D02*
X112001000Y-134366000D01*
X100076000Y-156236000D02*
X106647100Y-149664900D01*
X106647100Y-149664900D02*
X106647100Y-136272600D01*
X106647100Y-136272600D02*
X108680700Y-134239000D01*
X108680700Y-134239000D02*
X109155000Y-134239000D01*
X134099000Y-134366000D02*
X133972000Y-134239000D01*
X133972000Y-134239000D02*
X131253000Y-134239000D01*
X114001300Y-128812200D02*
X114001300Y-106902300D01*
X114001300Y-106902300D02*
X112001000Y-104902000D01*
X112001000Y-104902000D02*
X111874000Y-104775000D01*
X111874000Y-104775000D02*
X109155000Y-104775000D01*
X131253000Y-104775000D02*
X133972000Y-104775000D01*
X133972000Y-104775000D02*
X134099000Y-104902000D01*
X100076000Y-157480000D02*
X100076000Y-156236000D01*
%TD*%
M02*
