M48
; DRILL file {KiCad 5.1.7-a382d34a8~87~ubuntu18.04.1} date Tue Feb 16 09:57:21 2021
; FORMAT={-:-/ absolute / inch / decimal}
; #@! TF.CreationDate,2021-02-16T09:57:21-08:00
; #@! TF.GenerationSoftware,Kicad,Pcbnew,5.1.7-a382d34a8~87~ubuntu18.04.1
; #@! TF.FileFunction,Plated,1,2,PTH
FMAT,2
INCH
T1C0.0250
T2C0.0400
T3C0.0470
T4C0.1160
%
G90
G05
T1
X2.318Y-4.566
X2.4671Y-2.3384
X2.4934Y-3.2848
X2.5928Y-4.2351
X2.6059Y-4.4373
X2.62Y-3.27
X2.7355Y-4.2611
X2.7379Y-4.3078
X2.8946Y-2.8653
X2.9471Y-5.0042
X3.0184Y-5.0047
X3.036Y-4.574
X3.0533Y-4.9079
X3.0607Y-2.679
X3.0927Y-2.7085
X3.0928Y-4.8424
X3.0944Y-2.9215
X3.107Y-4.7287
X3.1961Y-4.6401
X3.22Y-2.54
X3.2832Y-4.6373
X3.3526Y-4.6782
X3.3536Y-5.0036
X3.4327Y-2.9485
X3.5295Y-4.9004
X3.5387Y-4.4812
X3.5447Y-5.0039
X3.5451Y-4.9594
X3.629Y-4.7555
X3.6424Y-2.8741
X3.705Y-2.705
X3.705Y-3.27
X3.7566Y-3.945
X3.79Y-4.48
X3.826Y-3.1341
X3.8266Y-4.5278
X3.9225Y-4.254
X4.052Y-3.66
X4.0979Y-3.1254
X4.1122Y-4.5181
X4.1203Y-2.7804
X4.1369Y-3.4151
X4.1588Y-3.945
X4.1875Y-2.8557
X4.2212Y-4.9544
X4.2293Y-2.5208
X4.2683Y-4.2919
X4.3147Y-2.644
X4.3333Y-3.1162
X4.3663Y-4.38
X4.44Y-2.605
X4.44Y-3.17
X4.57Y-4.38
X4.57Y-4.664
X4.585Y-2.72
X4.585Y-3.245
X4.6351Y-4.8517
X4.6615Y-2.5206
X4.6616Y-2.9993
X4.686Y-2.6104
X4.8994Y-4.54
X4.9628Y-4.5071
X4.9634Y-4.665
X4.9719Y-2.62
X5.0129Y-4.4044
X5.0432Y-3.1137
X5.142Y-3.704
X5.1863Y-4.7794
X5.1863Y-5.0038
X5.292Y-4.66
X5.294Y-4.73
X5.3Y-4.08
X5.314Y-5.136
X5.3912Y-3.705
X5.3938Y-3.0152
X5.3938Y-2.8025
X5.41Y-3.06
X5.43Y-2.62
X5.4793Y-2.5907
X5.4893Y-3.7753
X5.532Y-4.664
X5.588Y-4.184
X5.5993Y-2.6976
X5.6205Y-3.268
X5.694Y-3.276
X5.7244Y-4.8555
X5.732Y-3.3837
X5.755Y-2.425
X5.7584Y-2.6942
X5.7684Y-4.565
X5.77Y-3.275
X5.7727Y-4.7708
X5.7814Y-4.0567
X5.8182Y-3.0223
X5.9024Y-4.665
X5.9254Y-4.1878
X5.94Y-3.606
X5.9674Y-4.6204
X6.1234Y-3.7283
X6.1269Y-3.585
X6.16Y-2.7
X6.16Y-3.265
X6.16Y-3.685
X6.16Y-3.87
X6.1677Y-4.4499
X6.208Y-4.173
X6.228Y-4.106
X6.2338Y-2.5191
X6.2707Y-3.4721
X6.2736Y-3.1311
X6.342Y-4.65
X6.344Y-4.714
X6.387Y-4.6809
X6.3908Y-4.324
X6.4375Y-3.955
X6.7619Y-4.14
X6.7775Y-2.765
X6.8626Y-4.3041
X6.876Y-4.034
X6.876Y-4.244
X6.966Y-2.766
X7.01Y-2.69
X7.01Y-3.165
X7.01Y-3.585
T2
X6.06Y-2.1
X6.06Y-2.2
X6.42Y-5.29
X6.42Y-5.39
X4.78Y-2.1
X4.78Y-2.2
X3.82Y-2.1
X3.82Y-2.2
X3.65Y-5.2
X3.65Y-5.3
X3.75Y-5.2
X3.75Y-5.3
X3.85Y-5.2
X3.85Y-5.3
X3.95Y-5.2
X3.95Y-5.3
X4.05Y-5.2
X4.05Y-5.3
X2.1Y-2.7
X2.2Y-2.7
X5.1Y-2.1
X5.1Y-2.2
X5.98Y-5.29
X5.98Y-5.39
X6.91Y-4.53
X6.91Y-4.63
X6.91Y-4.73
X4.46Y-2.1
X4.46Y-2.2
X4.56Y-5.3
X4.56Y-5.4
X4.66Y-5.3
X4.66Y-5.4
X3.5Y-2.1
X3.5Y-2.2
X2.1Y-4.03
X2.2Y-4.03
X5.54Y-5.29
X5.54Y-5.39
X5.74Y-2.11
X5.74Y-2.21
X5.01Y-5.3
X5.01Y-5.4
X5.11Y-5.3
X5.11Y-5.4
X5.42Y-2.1
X5.42Y-2.2
X4.14Y-2.1
X4.14Y-2.2
X2.63Y-5.2
X2.63Y-5.3
X2.73Y-5.2
X2.73Y-5.3
X2.83Y-5.2
X2.83Y-5.3
X2.93Y-5.2
X2.93Y-5.3
X3.03Y-5.2
X3.03Y-5.3
X2.07Y-3.12
X2.07Y-3.72
X2.17Y-3.12
X2.17Y-3.22
X2.17Y-3.72
X2.27Y-3.12
X2.27Y-3.22
X2.27Y-3.72
X2.37Y-3.12
X2.37Y-3.22
X2.37Y-3.72
X2.47Y-3.12
X2.47Y-3.22
X2.47Y-3.72
X2.57Y-3.12
X2.57Y-3.22
X2.57Y-3.72
X2.67Y-3.12
X2.67Y-3.32
X2.67Y-3.42
X2.67Y-3.72
X2.77Y-3.12
X2.77Y-3.32
X2.77Y-3.42
X2.77Y-3.72
X2.87Y-3.12
X2.87Y-3.32
X2.87Y-3.42
X2.87Y-3.72
X2.97Y-3.12
X2.97Y-3.32
X2.97Y-3.42
X2.97Y-3.72
X3.07Y-3.12
X3.07Y-3.32
X3.07Y-3.42
X3.07Y-3.72
X3.17Y-3.12
X3.17Y-3.32
X3.17Y-3.42
X3.17Y-3.72
X3.27Y-3.12
X3.27Y-3.32
X3.27Y-3.42
X3.27Y-3.72
X3.37Y-3.12
X3.37Y-3.22
X3.37Y-3.32
X3.37Y-3.42
X3.37Y-3.52
X3.37Y-3.62
X3.37Y-3.72
X6.38Y-2.1
X6.38Y-2.2
X2.52Y-2.13
X2.62Y-2.13
X2.82Y-2.13
X2.92Y-2.13
X3.02Y-2.13
T3
X7.45Y-3.1811
X7.45Y-3.3189
X7.45Y-2.7311
X7.45Y-2.8689
X7.45Y-3.6311
X7.45Y-3.7689
T4
X6.85Y-5.35
X2.15Y-5.35
X2.15Y-2.15
X6.85Y-2.15
T0
M30
