M48
; DRILL file {KiCad 5.1.7-a382d34a8~87~ubuntu18.04.1} date Wed Feb 22 19:37:03 2023
; FORMAT={-:-/ absolute / inch / decimal}
; #@! TF.CreationDate,2023-02-22T19:37:03-08:00
; #@! TF.GenerationSoftware,Kicad,Pcbnew,5.1.7-a382d34a8~87~ubuntu18.04.1
; #@! TF.FileFunction,Plated,1,2,PTH
FMAT,2
INCH
T1C0.0250
T2C0.0400
T3C0.0470
T4C0.1378
%
G90
G05
T1
X2.6034Y-4.415
X2.885Y-4.2522
X2.912Y-4.1773
X2.9888Y-3.1758
X3.0692Y-4.6174
X3.084Y-4.402
X3.1131Y-2.8331
X3.1704Y-2.6969
X3.9507Y-3.9793
X4.0279Y-3.0545
X4.1557Y-2.7606
X4.1796Y-3.8684
X4.211Y-3.8979
X4.2142Y-4.2657
X4.254Y-3.8979
X4.3151Y-3.7644
X4.3509Y-2.144
X4.3573Y-2.0689
X4.5222Y-3.7014
X4.695Y-4.0464
X4.7345Y-4.9034
X4.7742Y-4.7904
X4.9037Y-4.615
X4.9461Y-3.7372
X4.9628Y-4.5183
X4.9675Y-4.2241
X4.9763Y-2.9228
X4.9773Y-3.16
X5.012Y-3.4442
X5.0284Y-2.62
X5.056Y-2.8497
X5.125Y-4.8006
X5.1788Y-2.6459
X5.2002Y-3.099
X5.3575Y-3.8843
X5.3937Y-3.9088
X5.4878Y-3.7428
X5.5223Y-4.6255
X5.5365Y-3.0216
X5.605Y-3.0438
X5.6053Y-4.606
X5.631Y-2.8699
X5.6537Y-3.1904
X5.7404Y-4.7827
X5.7516Y-4.5578
X5.7584Y-2.6942
X5.77Y-3.34
X5.7719Y-4.6219
X5.7721Y-4.7004
X5.7778Y-4.035
X5.8464Y-4.2657
X5.872Y-2.827
X5.8939Y-3.022
X5.9447Y-4.74
X6.1017Y-4.6673
X6.1178Y-4.1078
X6.1857Y-4.0685
X6.2436Y-3.9045
X6.2446Y-4.6093
X6.256Y-2.6867
X6.2698Y-4.1088
X6.287Y-4.5496
X6.3141Y-3.215
X6.3591Y-3.7315
X6.3614Y-3.3099
X6.4385Y-4.005
X6.5538Y-2.75
X6.6326Y-3.215
X6.7638Y-2.7216
X6.7667Y-3.165
T2
X2.52Y-2.13
X2.62Y-2.13
X2.82Y-2.13
X2.92Y-2.13
X3.02Y-2.13
X5.42Y-2.1
X5.42Y-2.2
X6.06Y-2.1
X6.06Y-2.2
X6.38Y-2.1
X6.38Y-2.2
X2.1Y-2.7
X2.2Y-2.7
X4.78Y-2.1
X4.78Y-2.2
X2.1Y-4.03
X2.2Y-4.03
X5.74Y-2.11
X5.74Y-2.21
X5.54Y-5.29
X5.54Y-5.39
X6.91Y-4.53
X6.91Y-4.63
X6.91Y-4.73
X4.14Y-2.1
X4.14Y-2.2
X3.65Y-5.2
X3.65Y-5.3
X3.75Y-5.2
X3.75Y-5.3
X3.85Y-5.2
X3.85Y-5.3
X3.95Y-5.2
X3.95Y-5.3
X4.05Y-5.2
X4.05Y-5.3
X2.0685Y-3.1173
X2.0685Y-3.7173
X2.1685Y-3.1173
X2.1685Y-3.7173
X2.2685Y-3.1173
X2.2685Y-3.7173
X2.3685Y-3.1173
X2.3685Y-3.7173
X2.4685Y-3.1173
X2.4685Y-3.7173
X2.5685Y-3.1173
X2.5685Y-3.7173
X2.6685Y-3.1173
X2.6685Y-3.7173
X2.7685Y-3.1173
X2.7685Y-3.7173
X2.8685Y-3.1173
X2.8685Y-3.7173
X2.9685Y-3.1173
X2.9685Y-3.7173
X3.0685Y-3.1173
X3.0685Y-3.7173
X3.1685Y-3.1173
X3.1685Y-3.7173
X3.2685Y-3.1173
X3.2685Y-3.7173
X3.3685Y-3.1173
X3.3685Y-3.2173
X3.3685Y-3.3173
X3.3685Y-3.4173
X3.3685Y-3.5173
X3.3685Y-3.6173
X3.3685Y-3.7173
X3.82Y-2.1
X3.82Y-2.2
X4.46Y-2.1
X4.46Y-2.2
X6.42Y-5.29
X6.42Y-5.39
X5.1Y-2.1
X5.1Y-2.2
X5.98Y-5.29
X5.98Y-5.39
X4.56Y-5.3
X4.56Y-5.4
X4.66Y-5.3
X4.66Y-5.4
X2.63Y-5.2
X2.63Y-5.3
X2.73Y-5.2
X2.73Y-5.3
X2.83Y-5.2
X2.83Y-5.3
X2.93Y-5.2
X2.93Y-5.3
X3.03Y-5.2
X3.03Y-5.3
X5.01Y-5.3
X5.01Y-5.4
X5.11Y-5.3
X5.11Y-5.4
X3.5Y-2.1
X3.5Y-2.2
T3
X7.45Y-2.7311
X7.45Y-2.8689
X7.45Y-3.6311
X7.45Y-3.7689
X7.45Y-3.1811
X7.45Y-3.3189
T4
X2.15Y-5.35
X2.15Y-2.15
X6.85Y-5.35
X6.85Y-2.15
T0
M30
