%TF.GenerationSoftware,KiCad,Pcbnew,5.1.7-a382d34a8~87~ubuntu18.04.1*%
%TF.CreationDate,2023-02-22T19:00:53-08:00*%
%TF.ProjectId,potentiostat,706f7465-6e74-4696-9f73-7461742e6b69,rev?*%
%TF.SameCoordinates,Original*%
%TF.FileFunction,Copper,L2,Bot*%
%TF.FilePolarity,Positive*%
%FSLAX46Y46*%
G04 Gerber Fmt 4.6, Leading zero omitted, Abs format (unit mm)*
G04 Created by KiCad (PCBNEW 5.1.7-a382d34a8~87~ubuntu18.04.1) date 2023-02-22 19:00:53*
%MOMM*%
%LPD*%
G01*
G04 APERTURE LIST*
%TA.AperFunction,ComponentPad*%
%ADD10C,1.651000*%
%TD*%
%TA.AperFunction,ComponentPad*%
%ADD11R,1.524000X1.524000*%
%TD*%
%TA.AperFunction,ComponentPad*%
%ADD12C,1.524000*%
%TD*%
%TA.AperFunction,ComponentPad*%
%ADD13C,1.700000*%
%TD*%
%TA.AperFunction,ComponentPad*%
%ADD14R,1.700000X1.700000*%
%TD*%
%TA.AperFunction,ComponentPad*%
%ADD15C,3.810000*%
%TD*%
%TA.AperFunction,ComponentPad*%
%ADD16R,1.854200X1.854200*%
%TD*%
%TA.AperFunction,ComponentPad*%
%ADD17C,1.854200*%
%TD*%
%TA.AperFunction,ViaPad*%
%ADD18C,0.889000*%
%TD*%
%TA.AperFunction,Conductor*%
%ADD19C,0.381000*%
%TD*%
%TA.AperFunction,Conductor*%
%ADD20C,0.254000*%
%TD*%
G04 APERTURE END LIST*
D10*
%TO.P,U2,33*%
%TO.N,Net-(U2-Pad33)*%
X52540000Y-79180000D03*
%TO.P,U2,32*%
%TO.N,/GND*%
X55080000Y-79180000D03*
%TO.P,U2,31*%
%TO.N,/5V*%
X57620000Y-79180000D03*
%TO.P,U2,30*%
%TO.N,/SW_WRK_ELECT*%
X60160000Y-79180000D03*
%TO.P,U2,29*%
%TO.N,/SW_REF_ELECT*%
X62700000Y-79180000D03*
%TO.P,U2,28*%
%TO.N,/SW_CTR_ELECT*%
X65240000Y-79180000D03*
%TO.P,U2,27*%
%TO.N,/TIA_GAIN_A1*%
X67780000Y-79180000D03*
%TO.P,U2,26*%
%TO.N,/TIA_GAIN_A0*%
X70320000Y-79180000D03*
%TO.P,U2,25*%
%TO.N,/D7*%
X72860000Y-79180000D03*
%TO.P,U2,24*%
%TO.N,Net-(U2-Pad24)*%
X75400000Y-79180000D03*
%TO.P,U2,23*%
%TO.N,/SCL*%
X77940000Y-79180000D03*
%TO.P,U2,22*%
%TO.N,/SDA*%
X80480000Y-79180000D03*
%TO.P,U2,21*%
%TO.N,/TX_D1*%
X83020000Y-79180000D03*
%TO.P,U2,20*%
%TO.N,/RX_D0*%
X85560000Y-79180000D03*
%TO.P,U2,19*%
%TO.N,/DAC_GAIN_A1*%
X85560000Y-81720000D03*
%TO.P,U2,18*%
%TO.N,/DAC_GAIN_A0*%
X85560000Y-84260000D03*
%TO.P,U2,17*%
%TO.N,Net-(U2-Pad17)*%
X85560000Y-86800000D03*
%TO.P,U2,16*%
%TO.N,Net-(U2-Pad16)*%
X85560000Y-89340000D03*
%TO.P,U2,15*%
%TO.N,Net-(U2-Pad15)*%
X85560000Y-91880000D03*
%TO.P,U2,14*%
%TO.N,/CS*%
X85560000Y-94420000D03*
%TO.P,U2,13*%
%TO.N,/POCI*%
X83020000Y-94420000D03*
%TO.P,U2,12*%
%TO.N,/PICO*%
X80480000Y-94420000D03*
%TO.P,U2,11*%
%TO.N,/SCK*%
X77940000Y-94420000D03*
%TO.P,U2,10*%
%TO.N,/REF_GAIN_A1*%
X75400000Y-94420000D03*
%TO.P,U2,9*%
%TO.N,/REF_GAIN_A0*%
X72860000Y-94420000D03*
%TO.P,U2,8*%
%TO.N,/A3_D17*%
X70320000Y-94420000D03*
%TO.P,U2,7*%
%TO.N,/REF_ELECT_UNI*%
X67780000Y-94420000D03*
%TO.P,U2,6*%
%TO.N,/TIA_OUT_UNI*%
X65240000Y-94420000D03*
%TO.P,U2,5*%
%TO.N,/DAC_UNI*%
X62700000Y-94420000D03*
%TO.P,U2,4*%
%TO.N,Net-(U2-Pad4)*%
X60160000Y-94420000D03*
%TO.P,U2,3*%
%TO.N,Net-(U2-Pad3)*%
X57620000Y-94420000D03*
%TO.P,U2,2*%
%TO.N,/3V3*%
X55080000Y-94420000D03*
%TO.P,U2,1*%
%TO.N,Net-(U2-Pad1)*%
X52540000Y-94420000D03*
%TD*%
D11*
%TO.P,P5,1*%
%TO.N,/GND*%
X53340000Y-68580000D03*
D12*
%TO.P,P5,2*%
X55880000Y-68580000D03*
%TD*%
D11*
%TO.P,K1,1*%
%TO.N,/CTR_ELECT_OUT*%
X175514000Y-115062000D03*
D12*
%TO.P,K1,2*%
%TO.N,/REF_ELECT_OUT*%
X175514000Y-117602000D03*
%TO.P,K1,3*%
%TO.N,/WRK_ELECT_OUT*%
X175514000Y-120142000D03*
%TD*%
D13*
%TO.P,P14,10*%
%TO.N,/CS*%
X66802000Y-134620000D03*
%TO.P,P14,9*%
%TO.N,/SCK*%
X66802000Y-132080000D03*
%TO.P,P14,8*%
%TO.N,/PICO*%
X69342000Y-134620000D03*
%TO.P,P14,7*%
%TO.N,/POCI*%
X69342000Y-132080000D03*
%TO.P,P14,6*%
%TO.N,/SDA*%
X71882000Y-134620000D03*
%TO.P,P14,5*%
%TO.N,/SCL*%
X71882000Y-132080000D03*
%TO.P,P14,4*%
%TO.N,/A3_D17*%
X74422000Y-134620000D03*
%TO.P,P14,3*%
%TO.N,/D7*%
X74422000Y-132080000D03*
%TO.P,P14,2*%
%TO.N,/GND*%
X76962000Y-134620000D03*
D14*
%TO.P,P14,1*%
%TO.N,/VEXP*%
X76962000Y-132080000D03*
%TD*%
D13*
%TO.P,P13,10*%
%TO.N,/CS*%
X92710000Y-134620000D03*
%TO.P,P13,9*%
%TO.N,/SCK*%
X92710000Y-132080000D03*
%TO.P,P13,8*%
%TO.N,/PICO*%
X95250000Y-134620000D03*
%TO.P,P13,7*%
%TO.N,/POCI*%
X95250000Y-132080000D03*
%TO.P,P13,6*%
%TO.N,/SDA*%
X97790000Y-134620000D03*
%TO.P,P13,5*%
%TO.N,/SCL*%
X97790000Y-132080000D03*
%TO.P,P13,4*%
%TO.N,/RX_D0*%
X100330000Y-134620000D03*
%TO.P,P13,3*%
%TO.N,/TX_D1*%
X100330000Y-132080000D03*
%TO.P,P13,2*%
%TO.N,/GND*%
X102870000Y-134620000D03*
D14*
%TO.P,P13,1*%
%TO.N,/VUEXT*%
X102870000Y-132080000D03*
%TD*%
D11*
%TO.P,P7,1*%
%TO.N,/DAC_BIP*%
X129540000Y-53340000D03*
D12*
%TO.P,P7,2*%
X129540000Y-55880000D03*
%TD*%
D11*
%TO.P,P9,1*%
%TO.N,/DAC_BIP_NX*%
X137668000Y-53340000D03*
D12*
%TO.P,P9,2*%
X137668000Y-55880000D03*
%TD*%
D11*
%TO.P,P20,1*%
%TO.N,/CTR_ELECT*%
X163068000Y-134366000D03*
D12*
%TO.P,P20,2*%
X163068000Y-136906000D03*
%TD*%
%TO.P,P21,2*%
%TO.N,/REF_ELECT_UNI*%
X145796000Y-56134000D03*
D11*
%TO.P,P21,1*%
X145796000Y-53594000D03*
%TD*%
%TO.P,P19,1*%
%TO.N,/REF_ELECT_BUF*%
X153924000Y-53340000D03*
D12*
%TO.P,P19,2*%
X153924000Y-55880000D03*
%TD*%
D11*
%TO.P,P6,1*%
%TO.N,/DAC_UNI*%
X121412000Y-53340000D03*
D12*
%TO.P,P6,2*%
X121412000Y-55880000D03*
%TD*%
D11*
%TO.P,P10,1*%
%TO.N,/REF_1V65*%
X105156000Y-53340000D03*
D12*
%TO.P,P10,2*%
X105156000Y-55880000D03*
%TD*%
D11*
%TO.P,P12,1*%
%TO.N,/+15V*%
X97028000Y-53340000D03*
D12*
%TO.P,P12,2*%
X97028000Y-55880000D03*
%TD*%
D11*
%TO.P,P11,1*%
%TO.N,/-15V*%
X88900000Y-53340000D03*
D12*
%TO.P,P11,2*%
X88900000Y-55880000D03*
%TD*%
D11*
%TO.P,P4,1*%
%TO.N,/GND*%
X55880000Y-102362000D03*
D12*
%TO.P,P4,2*%
X53340000Y-102362000D03*
%TD*%
D11*
%TO.P,P18,1*%
%TO.N,/TIA_OUT_UNI*%
X140716000Y-134366000D03*
D12*
%TO.P,P18,2*%
X140716000Y-136906000D03*
%TD*%
D11*
%TO.P,P17,1*%
%TO.N,/TIA_OUT_BIP*%
X151892000Y-134366000D03*
D12*
%TO.P,P17,2*%
X151892000Y-136906000D03*
%TD*%
D11*
%TO.P,P8,1*%
%TO.N,/REF_NEG_1V65*%
X113284000Y-53340000D03*
D12*
%TO.P,P8,2*%
X113284000Y-55880000D03*
%TD*%
D11*
%TO.P,P16,1*%
%TO.N,/5V*%
X127254000Y-137160000D03*
D12*
%TO.P,P16,2*%
%TO.N,/VEXP*%
X127254000Y-134620000D03*
%TO.P,P16,3*%
%TO.N,/3V3*%
X129794000Y-137160000D03*
%TO.P,P16,4*%
%TO.N,/VEXP*%
X129794000Y-134620000D03*
%TD*%
D11*
%TO.P,P15,1*%
%TO.N,/5V*%
X115824000Y-137160000D03*
D12*
%TO.P,P15,2*%
%TO.N,/VUEXT*%
X115824000Y-134620000D03*
%TO.P,P15,3*%
%TO.N,/3V3*%
X118364000Y-137160000D03*
%TO.P,P15,4*%
%TO.N,/VUEXT*%
X118364000Y-134620000D03*
%TD*%
D15*
%TO.P,H3,*%
%TO.N,*%
X173990000Y-135890000D03*
%TD*%
%TO.P,H4,*%
%TO.N,*%
X54610000Y-135890000D03*
%TD*%
%TO.P,H1,*%
%TO.N,*%
X54610000Y-54610000D03*
%TD*%
%TO.P,H2,*%
%TO.N,*%
X173990000Y-54610000D03*
%TD*%
D11*
%TO.P,P22,1*%
%TO.N,/REF_ELECT_BIP*%
X162052000Y-53340000D03*
D12*
%TO.P,P22,2*%
X162052000Y-55880000D03*
%TD*%
D10*
%TO.P,U6,1*%
%TO.N,/5V*%
X64008000Y-54102000D03*
%TO.P,U6,2*%
%TO.N,/GND*%
X66548000Y-54102000D03*
%TO.P,U6,4*%
%TO.N,/-15V*%
X71628000Y-54102000D03*
%TO.P,U6,5*%
%TO.N,/GND*%
X74168000Y-54102000D03*
%TO.P,U6,6*%
%TO.N,/+15V*%
X76708000Y-54102000D03*
%TD*%
D16*
%TO.P,P1,1*%
%TO.N,/CTR_ELECT_OUT*%
X189230000Y-69369940D03*
D17*
%TO.P,P1,2*%
%TO.N,/GND*%
X189230000Y-72870060D03*
%TD*%
%TO.P,P2,2*%
%TO.N,/GND*%
X189230000Y-84300060D03*
D16*
%TO.P,P2,1*%
%TO.N,/REF_ELECT_OUT*%
X189230000Y-80799940D03*
%TD*%
%TO.P,P3,1*%
%TO.N,/WRK_ELECT_OUT*%
X189230000Y-92229940D03*
D17*
%TO.P,P3,2*%
%TO.N,/GND*%
X189230000Y-95730060D03*
%TD*%
D18*
%TO.N,/3V3*%
X130176000Y-121935500D03*
X142366200Y-77313000D03*
X114864700Y-94014300D03*
%TO.N,/CTR_ELECT*%
X163539000Y-101727000D03*
%TO.N,/DAC_BIP*%
X128422800Y-72383600D03*
%TO.N,/DAC_BIP_NX*%
X131541400Y-67204600D03*
%TO.N,/GND*%
X146558000Y-84836000D03*
X136080100Y-98660100D03*
X139391200Y-95065900D03*
X146612500Y-119389300D03*
X143605100Y-81037000D03*
X158612100Y-117075300D03*
X78333900Y-111809700D03*
X77958200Y-117280900D03*
X159253900Y-104362300D03*
X166466900Y-69850000D03*
%TO.N,/REF_ELECT_BUF*%
X160378800Y-81660900D03*
X155392800Y-104338200D03*
%TO.N,/REF_ELECT_UNI*%
X109603200Y-95616100D03*
%TO.N,/TIA_OUT_BIP*%
X107040800Y-108349400D03*
X126174000Y-107291700D03*
%TO.N,/TIA_OUT_UNI*%
X100347400Y-101074600D03*
%TO.N,/WRK_ELECT*%
X142375000Y-116993100D03*
X145807200Y-121479400D03*
X150996400Y-120396000D03*
%TO.N,/-15V*%
X161521800Y-94779600D03*
X148498100Y-108349600D03*
X161579600Y-84071500D03*
X126422800Y-80264000D03*
X146263800Y-68432000D03*
X126398600Y-74238600D03*
X146607000Y-117396600D03*
X158901300Y-68242500D03*
%TO.N,/+15V*%
X140265500Y-117488100D03*
X171800400Y-69128900D03*
X154982000Y-118548300D03*
X127721900Y-66548000D03*
X157116900Y-103339900D03*
X171873100Y-80391000D03*
%TO.N,/REF_ELECT_BIP*%
X168469300Y-81661000D03*
X132086300Y-78713400D03*
%TO.N,Net-(R27-Pad2)*%
X121265400Y-121675500D03*
X124555200Y-117220800D03*
X119252400Y-102777400D03*
%TO.N,/SW_GAIN_1X*%
X125629900Y-94924000D03*
X149149900Y-71805100D03*
%TO.N,/SW_GAIN_2X*%
X143026700Y-72895300D03*
X106958800Y-99005800D03*
%TO.N,/SW_GAIN_5X*%
X108051400Y-99005800D03*
X140627600Y-76747400D03*
%TO.N,/SW_GAIN_10X*%
X149706000Y-76759800D03*
X66127000Y-112141000D03*
%TO.N,/REF_GAIN_A1*%
X75914800Y-80665800D03*
%TO.N,/SW_WRK_ELECT*%
X137000800Y-99284700D03*
%TO.N,/SW_REF_ELECT*%
X159690100Y-115559900D03*
%TO.N,/SW_CTR_ELECT*%
X158588400Y-99174300D03*
%TO.N,/TIA_GAIN_A1*%
X73280000Y-108005100D03*
%TO.N,/TIA_GAIN_A0*%
X73965400Y-106102200D03*
%TO.N,/SW_GAIN_INV_1X*%
X80529200Y-68501500D03*
X110676600Y-52551100D03*
%TO.N,/SW_GAIN_INV_5X*%
X79073900Y-71960500D03*
X110513400Y-54457300D03*
%TO.N,/SW_TIA_GAIN_4*%
X120255400Y-124546800D03*
X126054600Y-114765800D03*
%TO.N,Net-(U7-Pad10)*%
X146755200Y-102489000D03*
X146090900Y-115767200D03*
%TO.N,/REF_NEG_1V65*%
X127305600Y-87482800D03*
X106161000Y-98258300D03*
X105554400Y-70119800D03*
X102309100Y-77585400D03*
%TD*%
D19*
%TO.N,/3V3*%
X129794000Y-137160000D02*
X128603400Y-135969400D01*
X128603400Y-135969400D02*
X128603400Y-123508100D01*
X128603400Y-123508100D02*
X130176000Y-121935500D01*
X114864700Y-94014300D02*
X125664900Y-94014300D01*
X125664900Y-94014300D02*
X142366200Y-77313000D01*
%TO.N,/5V*%
X64008000Y-54102000D02*
X64008000Y-72792000D01*
X64008000Y-72792000D02*
X57620000Y-79180000D01*
X57620000Y-79180000D02*
X61430000Y-82990000D01*
X61430000Y-82990000D02*
X61430000Y-110800900D01*
X61430000Y-110800900D02*
X70612000Y-119982900D01*
X70612000Y-119982900D02*
X70612000Y-135143300D01*
X70612000Y-135143300D02*
X72805800Y-137337100D01*
X72805800Y-137337100D02*
X114490900Y-137337100D01*
X114490900Y-137337100D02*
X114668000Y-137160000D01*
X115824000Y-137160000D02*
X114668000Y-137160000D01*
X116402000Y-137160000D02*
X115824000Y-137160000D01*
X116402000Y-137160000D02*
X116980000Y-137160000D01*
X127254000Y-137160000D02*
X126098000Y-137160000D01*
X116980000Y-137160000D02*
X116980000Y-136871000D01*
X116980000Y-136871000D02*
X117847000Y-136004000D01*
X117847000Y-136004000D02*
X124942000Y-136004000D01*
X124942000Y-136004000D02*
X126098000Y-137160000D01*
D20*
%TO.N,/CS*%
X92710000Y-134620000D02*
X93980000Y-133350000D01*
X93980000Y-133350000D02*
X95683100Y-133350000D01*
X95683100Y-133350000D02*
X96448500Y-132584600D01*
X96448500Y-132584600D02*
X96448500Y-105308500D01*
X96448500Y-105308500D02*
X85560000Y-94420000D01*
%TO.N,/CTR_ELECT*%
X163068000Y-133273500D02*
X163539000Y-132802500D01*
X163539000Y-132802500D02*
X163539000Y-101727000D01*
X163068000Y-133819700D02*
X163068000Y-134366000D01*
X163068000Y-133819700D02*
X163068000Y-133273500D01*
%TO.N,/DAC_BIP*%
X129540000Y-55880000D02*
X129540000Y-71266400D01*
X129540000Y-71266400D02*
X128422800Y-72383600D01*
X129540000Y-53340000D02*
X129540000Y-55880000D01*
%TO.N,/DAC_BIP_NX*%
X137668000Y-55880000D02*
X131541400Y-62006600D01*
X131541400Y-62006600D02*
X131541400Y-67204600D01*
X137668000Y-53340000D02*
X137668000Y-55880000D01*
%TO.N,/DAC_UNI*%
X120319500Y-53340000D02*
X119226900Y-52247400D01*
X119226900Y-52247400D02*
X112356500Y-52247400D01*
X112356500Y-52247400D02*
X110921600Y-53682300D01*
X110921600Y-53682300D02*
X110192500Y-53682300D01*
X110192500Y-53682300D02*
X94103600Y-69771200D01*
X94103600Y-69771200D02*
X67869400Y-69771200D01*
X67869400Y-69771200D02*
X59002100Y-78638500D01*
X59002100Y-78638500D02*
X59002100Y-79737500D01*
X59002100Y-79737500D02*
X62700000Y-83435400D01*
X62700000Y-83435400D02*
X62700000Y-94420000D01*
X121412000Y-53340000D02*
X120319500Y-53340000D01*
X121412000Y-55880000D02*
X121412000Y-53340000D01*
D19*
%TO.N,/GND*%
X146558000Y-84836000D02*
X139391200Y-92002800D01*
X139391200Y-92002800D02*
X139391200Y-95065900D01*
X143605100Y-81037000D02*
X143605100Y-81883100D01*
X143605100Y-81883100D02*
X146558000Y-84836000D01*
X189230000Y-84300100D02*
X190551200Y-85621300D01*
X190551200Y-85621300D02*
X190551200Y-94408900D01*
X190551200Y-94408900D02*
X189230000Y-95730100D01*
X189230000Y-84300100D02*
X190551200Y-82978900D01*
X190551200Y-82978900D02*
X190551200Y-74191300D01*
X190551200Y-74191300D02*
X189230000Y-72870100D01*
X139391200Y-95065900D02*
X139391200Y-95349000D01*
X139391200Y-95349000D02*
X136080100Y-98660100D01*
X55880000Y-102362000D02*
X55880000Y-101206000D01*
X55080000Y-79180000D02*
X56350000Y-80450000D01*
X56350000Y-80450000D02*
X56350000Y-100736000D01*
X56350000Y-100736000D02*
X55880000Y-101206000D01*
X158441800Y-116905000D02*
X158441800Y-105174400D01*
X158441800Y-105174400D02*
X159253900Y-104362300D01*
X158612100Y-117075300D02*
X158441800Y-116905000D01*
X158441800Y-116905000D02*
X155957500Y-119389300D01*
X155957500Y-119389300D02*
X146612500Y-119389300D01*
X74168000Y-54102000D02*
X72908800Y-52842800D01*
X72908800Y-52842800D02*
X67807200Y-52842800D01*
X67807200Y-52842800D02*
X66548000Y-54102000D01*
X77958200Y-117280900D02*
X78333900Y-116905200D01*
X78333900Y-116905200D02*
X78333900Y-111809700D01*
X76962000Y-134620000D02*
X78240000Y-133342000D01*
X78240000Y-133342000D02*
X78240000Y-117562700D01*
X78240000Y-117562700D02*
X77958200Y-117280900D01*
X189230000Y-72870100D02*
X190551200Y-71548900D01*
X190551200Y-71548900D02*
X190551200Y-68211400D01*
X190551200Y-68211400D02*
X190366600Y-68026800D01*
X190366600Y-68026800D02*
X168290100Y-68026800D01*
X168290100Y-68026800D02*
X166466900Y-69850000D01*
D20*
%TO.N,/REF_ELECT_BUF*%
X155392800Y-104338200D02*
X155392800Y-103946300D01*
X155392800Y-103946300D02*
X158513000Y-100826100D01*
X158513000Y-100826100D02*
X158906100Y-100826100D01*
X158906100Y-100826100D02*
X162397200Y-97335000D01*
X162397200Y-97335000D02*
X162397200Y-83679300D01*
X162397200Y-83679300D02*
X160378800Y-81660900D01*
X153924000Y-55880000D02*
X160378800Y-62334800D01*
X160378800Y-62334800D02*
X160378800Y-81660900D01*
X153924000Y-55880000D02*
X153924000Y-53340000D01*
%TO.N,/REF_ELECT_UNI*%
X145796000Y-56134000D02*
X145796000Y-53594000D01*
X109603200Y-95616100D02*
X109603200Y-89873900D01*
X109603200Y-89873900D02*
X126091800Y-73385300D01*
X126091800Y-73385300D02*
X128544700Y-73385300D01*
X128544700Y-73385300D02*
X145796000Y-56134000D01*
%TO.N,/SCK*%
X92710000Y-132080000D02*
X92710000Y-109190000D01*
X92710000Y-109190000D02*
X77940000Y-94420000D01*
%TO.N,/SCL*%
X79812800Y-135369600D02*
X79812800Y-99484400D01*
X79812800Y-99484400D02*
X76783900Y-96455500D01*
X76783900Y-96455500D02*
X76783900Y-80336100D01*
X76783900Y-80336100D02*
X77940000Y-79180000D01*
X71882000Y-132080000D02*
X71882000Y-132838800D01*
X71882000Y-132838800D02*
X73152000Y-134108800D01*
X73152000Y-134108800D02*
X73152000Y-135023200D01*
X73152000Y-135023200D02*
X73955900Y-135827100D01*
X73955900Y-135827100D02*
X79355300Y-135827100D01*
X79355300Y-135827100D02*
X79812800Y-135369600D01*
X97790000Y-132080000D02*
X96520000Y-133350000D01*
X96520000Y-133350000D02*
X96520000Y-135068200D01*
X96520000Y-135068200D02*
X95278800Y-136309400D01*
X95278800Y-136309400D02*
X80752600Y-136309400D01*
X80752600Y-136309400D02*
X79812800Y-135369600D01*
%TO.N,/SDA*%
X80480000Y-79180000D02*
X80480000Y-80818400D01*
X80480000Y-80818400D02*
X85191600Y-85530000D01*
X85191600Y-85530000D02*
X85951700Y-85530000D01*
X85951700Y-85530000D02*
X97868800Y-97447100D01*
X97868800Y-97447100D02*
X97868800Y-105636800D01*
X97868800Y-105636800D02*
X98980600Y-106748600D01*
X98980600Y-106748600D02*
X98980600Y-133429400D01*
X98980600Y-133429400D02*
X97790000Y-134620000D01*
X71882000Y-134620000D02*
X74029400Y-136767400D01*
X74029400Y-136767400D02*
X95642600Y-136767400D01*
X95642600Y-136767400D02*
X97790000Y-134620000D01*
%TO.N,/TIA_OUT_BIP*%
X107040800Y-108349400D02*
X113419600Y-101970600D01*
X113419600Y-101970600D02*
X120852900Y-101970600D01*
X120852900Y-101970600D02*
X126174000Y-107291700D01*
X126174000Y-107291700D02*
X151892000Y-133009700D01*
X151892000Y-133009700D02*
X151892000Y-133273500D01*
X151892000Y-134366000D02*
X151892000Y-133273500D01*
X151892000Y-136906000D02*
X151892000Y-134366000D01*
%TO.N,/TIA_OUT_UNI*%
X140716000Y-134366000D02*
X140716000Y-131371800D01*
X140716000Y-131371800D02*
X130504700Y-121160500D01*
X130504700Y-121160500D02*
X129855100Y-121160500D01*
X129855100Y-121160500D02*
X125693700Y-125321900D01*
X125693700Y-125321900D02*
X119860900Y-125321900D01*
X119860900Y-125321900D02*
X100347400Y-105808400D01*
X100347400Y-105808400D02*
X100347400Y-101074600D01*
X140716000Y-136906000D02*
X140716000Y-134366000D01*
%TO.N,/VUEXT*%
X102870000Y-132080000D02*
X113284000Y-132080000D01*
X113284000Y-132080000D02*
X115824000Y-134620000D01*
%TO.N,/WRK_ELECT*%
X145807200Y-120396000D02*
X145807200Y-121479400D01*
X145807200Y-120396000D02*
X145777900Y-120396000D01*
X145777900Y-120396000D02*
X142375000Y-116993100D01*
X150996400Y-120396000D02*
X145807200Y-120396000D01*
D19*
%TO.N,/-15V*%
X148498100Y-108349600D02*
X153348100Y-103499600D01*
X153348100Y-103499600D02*
X155051300Y-103499600D01*
X155051300Y-103499600D02*
X158245800Y-100305100D01*
X158245800Y-100305100D02*
X158666900Y-100305100D01*
X158666900Y-100305100D02*
X161521800Y-97450200D01*
X161521800Y-97450200D02*
X161521800Y-94779600D01*
X146607000Y-117396600D02*
X148498100Y-115505500D01*
X148498100Y-115505500D02*
X148498100Y-108349600D01*
X158721500Y-68432000D02*
X158721500Y-81213400D01*
X158721500Y-81213400D02*
X161579600Y-84071500D01*
X161579600Y-84071500D02*
X161579600Y-94721800D01*
X161579600Y-94721800D02*
X161521800Y-94779600D01*
X158721500Y-68432000D02*
X158721500Y-68422300D01*
X158721500Y-68422300D02*
X158901300Y-68242500D01*
X126497000Y-79572900D02*
X126497000Y-80189800D01*
X126497000Y-80189800D02*
X126422800Y-80264000D01*
X126398600Y-74238600D02*
X126398600Y-79474500D01*
X126398600Y-79474500D02*
X126497000Y-79572900D01*
X126497000Y-79572900D02*
X135122900Y-79572900D01*
X135122900Y-79572900D02*
X146263800Y-68432000D01*
X146263800Y-68432000D02*
X158721500Y-68432000D01*
X88900000Y-55880000D02*
X88900000Y-53340000D01*
%TO.N,/+15V*%
X157116900Y-103339900D02*
X157129100Y-103339900D01*
X157129100Y-103339900D02*
X171873100Y-88595900D01*
X171873100Y-88595900D02*
X171873100Y-80391000D01*
X154730300Y-118296600D02*
X144997200Y-118296600D01*
X144997200Y-118296600D02*
X142826700Y-116126100D01*
X142826700Y-116126100D02*
X141627500Y-116126100D01*
X141627500Y-116126100D02*
X140265500Y-117488100D01*
X154982000Y-118548300D02*
X154730300Y-118296600D01*
X154730300Y-118296600D02*
X157116900Y-115910000D01*
X157116900Y-115910000D02*
X157116900Y-103339900D01*
X171873100Y-80391000D02*
X171800400Y-80318300D01*
X171800400Y-80318300D02*
X171800400Y-69128900D01*
X98184000Y-53340000D02*
X99822400Y-51701600D01*
X99822400Y-51701600D02*
X121910700Y-51701600D01*
X121910700Y-51701600D02*
X127721900Y-57512800D01*
X127721900Y-57512800D02*
X127721900Y-66548000D01*
X97028000Y-53340000D02*
X98184000Y-53340000D01*
D20*
%TO.N,/WRK_ELECT_OUT*%
X189230000Y-92229900D02*
X187972400Y-92229900D01*
X187972400Y-92229900D02*
X177459400Y-102742900D01*
X177459400Y-102742900D02*
X177459400Y-118196600D01*
X177459400Y-118196600D02*
X175514000Y-120142000D01*
%TO.N,/REF_ELECT_OUT*%
X175514000Y-117602000D02*
X176961400Y-116154600D01*
X176961400Y-116154600D02*
X176961400Y-94326100D01*
X176961400Y-94326100D02*
X189230000Y-82057500D01*
X189230000Y-80799900D02*
X189230000Y-82057500D01*
%TO.N,/CTR_ELECT_OUT*%
X189230000Y-69369900D02*
X189230000Y-70627500D01*
X189230000Y-70627500D02*
X175514000Y-84343500D01*
X175514000Y-84343500D02*
X175514000Y-115062000D01*
%TO.N,/REF_ELECT_BIP*%
X162052000Y-55880000D02*
X162052000Y-75243700D01*
X162052000Y-75243700D02*
X168469300Y-81661000D01*
X160959500Y-53340000D02*
X159866900Y-52247400D01*
X159866900Y-52247400D02*
X153006600Y-52247400D01*
X153006600Y-52247400D02*
X132086300Y-73167700D01*
X132086300Y-73167700D02*
X132086300Y-78713400D01*
X162052000Y-55880000D02*
X162052000Y-53340000D01*
X162052000Y-53340000D02*
X160959500Y-53340000D01*
%TO.N,Net-(R27-Pad2)*%
X124555200Y-117220800D02*
X121265400Y-120510600D01*
X121265400Y-120510600D02*
X121265400Y-121675500D01*
X119252400Y-102777400D02*
X124555200Y-108080200D01*
X124555200Y-108080200D02*
X124555200Y-117220800D01*
%TO.N,/SW_GAIN_1X*%
X149149900Y-71805100D02*
X126031100Y-94923900D01*
X126031100Y-94923900D02*
X125629900Y-94923900D01*
X125629900Y-94923900D02*
X125629900Y-94924000D01*
%TO.N,/SW_GAIN_2X*%
X106958800Y-99005800D02*
X106958800Y-99002400D01*
X106958800Y-99002400D02*
X107730400Y-98230800D01*
X107730400Y-98230800D02*
X108768500Y-98230800D01*
X108768500Y-98230800D02*
X115307400Y-91691900D01*
X115307400Y-91691900D02*
X124230100Y-91691900D01*
X124230100Y-91691900D02*
X143026700Y-72895300D01*
%TO.N,/SW_GAIN_5X*%
X140627600Y-76747400D02*
X124135700Y-93239300D01*
X124135700Y-93239300D02*
X114443900Y-93239300D01*
X114443900Y-93239300D02*
X108677400Y-99005800D01*
X108677400Y-99005800D02*
X108051400Y-99005800D01*
%TO.N,/SW_GAIN_10X*%
X149706000Y-76759800D02*
X149706000Y-87710500D01*
X149706000Y-87710500D02*
X137178100Y-100238400D01*
X137178100Y-100238400D02*
X106289900Y-100238400D01*
X106289900Y-100238400D02*
X104402000Y-98350500D01*
X104402000Y-98350500D02*
X104402000Y-95088600D01*
X104402000Y-95088600D02*
X86381500Y-77068100D01*
X86381500Y-77068100D02*
X63152600Y-77068100D01*
X63152600Y-77068100D02*
X61538300Y-78682400D01*
X61538300Y-78682400D02*
X61538300Y-81364000D01*
X61538300Y-81364000D02*
X66431300Y-86257000D01*
X66431300Y-86257000D02*
X66431300Y-111836700D01*
X66431300Y-111836700D02*
X66127000Y-112141000D01*
%TO.N,/REF_GAIN_A1*%
X75400000Y-94420000D02*
X75400000Y-81180600D01*
X75400000Y-81180600D02*
X75914800Y-80665800D01*
%TO.N,/SW_WRK_ELECT*%
X137000800Y-99284700D02*
X136504600Y-99780900D01*
X136504600Y-99780900D02*
X106580300Y-99780900D01*
X106580300Y-99780900D02*
X104859500Y-98060100D01*
X104859500Y-98060100D02*
X104859500Y-94899100D01*
X104859500Y-94899100D02*
X86571000Y-76610600D01*
X86571000Y-76610600D02*
X62729400Y-76610600D01*
X62729400Y-76610600D02*
X60160000Y-79180000D01*
%TO.N,/SW_REF_ELECT*%
X62700000Y-79180000D02*
X63868300Y-80348300D01*
X63868300Y-80348300D02*
X65754500Y-80348300D01*
X65754500Y-80348300D02*
X66510000Y-79592800D01*
X66510000Y-79592800D02*
X66510000Y-78763600D01*
X66510000Y-78763600D02*
X67290500Y-77983100D01*
X67290500Y-77983100D02*
X86002500Y-77983100D01*
X86002500Y-77983100D02*
X99241400Y-91222000D01*
X99241400Y-91222000D02*
X99241400Y-94487100D01*
X99241400Y-94487100D02*
X106136400Y-101382100D01*
X106136400Y-101382100D02*
X121987600Y-101382100D01*
X121987600Y-101382100D02*
X142863900Y-122258400D01*
X142863900Y-122258400D02*
X154573400Y-122258400D01*
X154573400Y-122258400D02*
X159690100Y-117141700D01*
X159690100Y-117141700D02*
X159690100Y-115559900D01*
%TO.N,/SW_CTR_ELECT*%
X158588400Y-99174300D02*
X157066700Y-100696000D01*
X157066700Y-100696000D02*
X106097300Y-100696000D01*
X106097300Y-100696000D02*
X102438200Y-97036900D01*
X102438200Y-97036900D02*
X102438200Y-93771800D01*
X102438200Y-93771800D02*
X86192000Y-77525600D01*
X86192000Y-77525600D02*
X66894400Y-77525600D01*
X66894400Y-77525600D02*
X65240000Y-79180000D01*
%TO.N,/TIA_GAIN_A1*%
X73280000Y-108005100D02*
X69164000Y-103889100D01*
X69164000Y-103889100D02*
X69164000Y-80564000D01*
X69164000Y-80564000D02*
X67780000Y-79180000D01*
%TO.N,/TIA_GAIN_A0*%
X70320000Y-79180000D02*
X71648700Y-80508700D01*
X71648700Y-80508700D02*
X71648700Y-103785500D01*
X71648700Y-103785500D02*
X73965400Y-106102200D01*
%TO.N,/SW_GAIN_INV_1X*%
X110676600Y-52551100D02*
X94726200Y-68501500D01*
X94726200Y-68501500D02*
X80529200Y-68501500D01*
%TO.N,/SW_GAIN_INV_5X*%
X110513400Y-54457300D02*
X93010200Y-71960500D01*
X93010200Y-71960500D02*
X79073900Y-71960500D01*
%TO.N,/SW_TIA_GAIN_4*%
X126054600Y-114765800D02*
X126054600Y-118747600D01*
X126054600Y-118747600D02*
X120255400Y-124546800D01*
%TO.N,Net-(U7-Pad10)*%
X146090900Y-115767200D02*
X146090900Y-103153300D01*
X146090900Y-103153300D02*
X146755200Y-102489000D01*
%TO.N,/PICO*%
X80480000Y-94420000D02*
X93926100Y-107866100D01*
X93926100Y-107866100D02*
X93926100Y-132541900D01*
X93926100Y-132541900D02*
X93118000Y-133350000D01*
X93118000Y-133350000D02*
X92309400Y-133350000D01*
X92309400Y-133350000D02*
X91493200Y-134166200D01*
X91493200Y-134166200D02*
X91493200Y-135098200D01*
X91493200Y-135098200D02*
X92196100Y-135801100D01*
X92196100Y-135801100D02*
X94068900Y-135801100D01*
X94068900Y-135801100D02*
X95250000Y-134620000D01*
%TO.N,/POCI*%
X95250000Y-132080000D02*
X95250000Y-106650000D01*
X95250000Y-106650000D02*
X83020000Y-94420000D01*
%TO.N,/RX_D0*%
X85560000Y-79180000D02*
X98783800Y-92403800D01*
X98783800Y-92403800D02*
X98783800Y-105257700D01*
X98783800Y-105257700D02*
X101548000Y-108021900D01*
X101548000Y-108021900D02*
X101548000Y-133402000D01*
X101548000Y-133402000D02*
X100330000Y-134620000D01*
%TO.N,/TX_D1*%
X83020000Y-79180000D02*
X83020000Y-80871100D01*
X83020000Y-80871100D02*
X85138900Y-82990000D01*
X85138900Y-82990000D02*
X85927500Y-82990000D01*
X85927500Y-82990000D02*
X98326300Y-95388800D01*
X98326300Y-95388800D02*
X98326300Y-105447200D01*
X98326300Y-105447200D02*
X100330000Y-107450900D01*
X100330000Y-107450900D02*
X100330000Y-132080000D01*
%TO.N,/A3_D17*%
X74422000Y-134620000D02*
X73225100Y-133423100D01*
X73225100Y-133423100D02*
X73225100Y-113493300D01*
X73225100Y-113493300D02*
X74068800Y-112649600D01*
X74068800Y-112649600D02*
X74068800Y-107301800D01*
X74068800Y-107301800D02*
X70320000Y-103553000D01*
X70320000Y-103553000D02*
X70320000Y-94420000D01*
%TO.N,/D7*%
X74422000Y-132080000D02*
X74740400Y-131761600D01*
X74740400Y-131761600D02*
X74740400Y-105781200D01*
X74740400Y-105781200D02*
X74130000Y-105170800D01*
X74130000Y-105170800D02*
X74130000Y-80450000D01*
X74130000Y-80450000D02*
X72860000Y-79180000D01*
%TO.N,/REF_NEG_1V65*%
X106226700Y-96393700D02*
X106226700Y-98192600D01*
X106226700Y-98192600D02*
X106161000Y-98258300D01*
X102309100Y-77585400D02*
X106226700Y-81503000D01*
X106226700Y-81503000D02*
X106226700Y-96393700D01*
X106226700Y-96393700D02*
X109958400Y-96393700D01*
X109958400Y-96393700D02*
X118869300Y-87482800D01*
X118869300Y-87482800D02*
X127305600Y-87482800D01*
X113284000Y-55880000D02*
X113284000Y-62390200D01*
X113284000Y-62390200D02*
X105554400Y-70119800D01*
X102309100Y-77585400D02*
X105554400Y-74340100D01*
X105554400Y-74340100D02*
X105554400Y-70119800D01*
X113284000Y-55880000D02*
X113284000Y-53340000D01*
%TO.N,/REF_1V65*%
X105156000Y-53340000D02*
X105156000Y-55880000D01*
%TD*%
M02*
