M48
; DRILL file {KiCad 5.1.7-a382d34a8~87~ubuntu18.04.1} date Thu Jan 26 10:12:33 2023
; FORMAT={-:-/ absolute / inch / decimal}
; #@! TF.CreationDate,2023-01-26T10:12:33-08:00
; #@! TF.GenerationSoftware,Kicad,Pcbnew,5.1.7-a382d34a8~87~ubuntu18.04.1
; #@! TF.FileFunction,Plated,1,2,PTH
FMAT,2
INCH
T1C0.0250
T2C0.0400
T3C0.0470
T4C0.1160
%
G90
G05
T1
X2.4947Y-2.6885
X2.8051Y-4.548
X2.8757Y-2.8493
X2.9Y-3.229
X2.923Y-3.1556
X2.9625Y-2.8533
X2.99Y-2.6949
X3.1966Y-4.1861
X3.804Y-3.2152
X3.8381Y-4.1836
X3.8489Y-3.945
X3.9393Y-4.2416
X3.9425Y-4.1693
X3.9892Y-4.1635
X4.0523Y-4.0923
X4.0873Y-3.2206
X4.2071Y-4.2017
X4.4634Y-3.4849
X4.5276Y-3.7799
X4.639Y-4.1247
X4.6544Y-3.2963
X4.7134Y-4.54
X4.7247Y-4.4821
X4.7755Y-4.3987
X4.8473Y-4.9035
X4.8479Y-3.0674
X4.8728Y-2.4928
X4.8974Y-4.6218
X4.9037Y-4.7037
X4.9494Y-4.2099
X4.9946Y-3.2553
X5.0173Y-4.2338
X5.034Y-2.632
X5.0626Y-3.6475
X5.0914Y-4.865
X5.1085Y-4.6186
X5.1717Y-3.0898
X5.1796Y-3.7841
X5.1837Y-4.7771
X5.2145Y-2.6695
X5.2152Y-4.8933
X5.2295Y-3.1052
X5.2481Y-4.665
X5.3689Y-4.3051
X5.4046Y-3.8951
X5.5112Y-2.6872
X5.6046Y-4.494
X5.6051Y-4.5936
X5.607Y-2.8266
X5.6438Y-3.2488
X5.648Y-3.0214
X5.6537Y-3.1827
X5.7036Y-2.5764
X5.7294Y-3.0516
X5.7344Y-4.84
X5.7547Y-4.665
X5.7945Y-3.9219
X5.8028Y-3.1907
X5.9346Y-4.615
X6.0982Y-4.7057
X6.1091Y-4.6504
X6.2108Y-4.0613
X6.2174Y-4.135
X6.2383Y-3.97
X6.2462Y-3.0691
X6.2796Y-3.8947
X6.38Y-2.65
X6.414Y-3.265
X6.4382Y-4.0521
X6.4505Y-2.9374
X6.5518Y-2.9
X6.567Y-4.255
X6.5848Y-3.585
X6.6201Y-2.7274
X6.6319Y-4.1084
X6.7638Y-2.7698
T2
X6.91Y-4.53
X6.91Y-4.63
X6.91Y-4.73
X5.42Y-2.1
X5.42Y-2.2
X5.54Y-5.29
X5.54Y-5.39
X2.1Y-2.7
X2.2Y-2.7
X5.98Y-5.29
X5.98Y-5.39
X3.82Y-2.1
X3.82Y-2.2
X3.5Y-2.1
X3.5Y-2.2
X6.06Y-2.1
X6.06Y-2.2
X3.65Y-5.2
X3.65Y-5.3
X3.75Y-5.2
X3.75Y-5.3
X3.85Y-5.2
X3.85Y-5.3
X3.95Y-5.2
X3.95Y-5.3
X4.05Y-5.2
X4.05Y-5.3
X4.78Y-2.1
X4.78Y-2.2
X2.52Y-2.13
X2.62Y-2.13
X2.82Y-2.13
X2.92Y-2.13
X3.02Y-2.13
X2.0685Y-3.1173
X2.0685Y-3.7173
X2.1685Y-3.1173
X2.1685Y-3.7173
X2.2685Y-3.1173
X2.2685Y-3.7173
X2.3685Y-3.1173
X2.3685Y-3.7173
X2.4685Y-3.1173
X2.4685Y-3.7173
X2.5685Y-3.1173
X2.5685Y-3.7173
X2.6685Y-3.1173
X2.6685Y-3.7173
X2.7685Y-3.1173
X2.7685Y-3.7173
X2.8685Y-3.1173
X2.8685Y-3.7173
X2.9685Y-3.1173
X2.9685Y-3.7173
X3.0685Y-3.1173
X3.0685Y-3.7173
X3.1685Y-3.1173
X3.1685Y-3.7173
X3.2685Y-3.1173
X3.2685Y-3.7173
X3.3685Y-3.1173
X3.3685Y-3.2173
X3.3685Y-3.3173
X3.3685Y-3.4173
X3.3685Y-3.5173
X3.3685Y-3.6173
X3.3685Y-3.7173
X4.46Y-2.1
X4.46Y-2.2
X6.42Y-5.29
X6.42Y-5.39
X2.63Y-5.2
X2.63Y-5.3
X2.73Y-5.2
X2.73Y-5.3
X2.83Y-5.2
X2.83Y-5.3
X2.93Y-5.2
X2.93Y-5.3
X3.03Y-5.2
X3.03Y-5.3
X4.14Y-2.1
X4.14Y-2.2
X6.38Y-2.1
X6.38Y-2.2
X5.74Y-2.11
X5.74Y-2.21
X4.56Y-5.3
X4.56Y-5.4
X4.66Y-5.3
X4.66Y-5.4
X5.01Y-5.3
X5.01Y-5.4
X5.11Y-5.3
X5.11Y-5.4
X5.1Y-2.1
X5.1Y-2.2
X2.1Y-4.03
X2.2Y-4.03
T3
X7.45Y-3.1811
X7.45Y-3.3189
X7.45Y-2.7311
X7.45Y-2.8689
X7.45Y-3.6311
X7.45Y-3.7689
T4
X2.15Y-2.15
X2.15Y-5.35
X6.85Y-2.15
X6.85Y-5.35
T0
M30
