G04 (created by PCBNEW (2013-jul-07)-stable) date Mon 21 Nov 2016 11:23:47 AM PST*
%MOIN*%
G04 Gerber Fmt 3.4, Leading zero omitted, Abs format*
%FSLAX34Y34*%
G01*
G70*
G90*
G04 APERTURE LIST*
%ADD10C,0.00590551*%
%ADD11C,0.06*%
%ADD12R,0.02X0.03*%
%ADD13R,0.0315X0.0394*%
%ADD14R,0.055X0.035*%
%ADD15R,0.035X0.055*%
%ADD16R,0.06X0.06*%
%ADD17R,0.0394X0.0106*%
%ADD18C,0.065*%
%ADD19R,0.0779528X0.0208661*%
%ADD20R,0.063X0.063*%
%ADD21C,0.063*%
%ADD22R,0.023622X0.0610236*%
%ADD23R,0.0610236X0.023622*%
%ADD24R,0.07X0.07*%
%ADD25C,0.07*%
%ADD26R,0.0106X0.0394*%
%ADD27C,0.15*%
%ADD28C,0.035*%
%ADD29C,0.01*%
%ADD30C,0.02*%
%ADD31C,0.0105906*%
G04 APERTURE END LIST*
G54D10*
G54D11*
X20700Y-37200D03*
X21700Y-37200D03*
X22700Y-37200D03*
X23700Y-37200D03*
X24700Y-37200D03*
X25700Y-37200D03*
X26700Y-37200D03*
X27700Y-37200D03*
X28700Y-37200D03*
X29700Y-37200D03*
X30700Y-37200D03*
X31700Y-37200D03*
X32700Y-37200D03*
X33700Y-37200D03*
X33700Y-36200D03*
X33700Y-35200D03*
X33700Y-34200D03*
X33700Y-33200D03*
X33700Y-32200D03*
X33700Y-31200D03*
X32700Y-31200D03*
X31700Y-31200D03*
X30700Y-31200D03*
X29700Y-31200D03*
X28700Y-31200D03*
X27700Y-31200D03*
X26700Y-31200D03*
X25700Y-31200D03*
X24700Y-31200D03*
X23700Y-31200D03*
X22700Y-31200D03*
X21700Y-31200D03*
X20700Y-31200D03*
X26700Y-34200D03*
X27700Y-34200D03*
X28700Y-34200D03*
X29700Y-34200D03*
X30700Y-34200D03*
X31700Y-34200D03*
X32700Y-34200D03*
X32700Y-33200D03*
X31700Y-33200D03*
X30700Y-33200D03*
X29700Y-33200D03*
X28700Y-33200D03*
X27700Y-33200D03*
X26700Y-33200D03*
X25700Y-32200D03*
X24700Y-32200D03*
X23700Y-32200D03*
X21700Y-32200D03*
G54D12*
X28491Y-26698D03*
X29241Y-26698D03*
X28491Y-25698D03*
X28866Y-26698D03*
X29241Y-25698D03*
G54D13*
X39777Y-34474D03*
X40152Y-35340D03*
X39402Y-35340D03*
X64250Y-36683D03*
X63875Y-35817D03*
X64625Y-35817D03*
G54D14*
X38954Y-40873D03*
X38954Y-41623D03*
G54D15*
X43266Y-40704D03*
X44016Y-40704D03*
X60875Y-41500D03*
X61625Y-41500D03*
X61652Y-46074D03*
X60902Y-46074D03*
X60875Y-40250D03*
X61625Y-40250D03*
X61652Y-47492D03*
X60902Y-47492D03*
G54D14*
X36553Y-41623D03*
X36553Y-40873D03*
G54D15*
X43266Y-41925D03*
X44016Y-41925D03*
G54D14*
X35135Y-41623D03*
X35135Y-40873D03*
X40450Y-40873D03*
X40450Y-41623D03*
G54D15*
X57335Y-39271D03*
X56585Y-39271D03*
G54D14*
X56750Y-33875D03*
X56750Y-33125D03*
G54D15*
X54032Y-48309D03*
X53282Y-48309D03*
G54D14*
X53500Y-42699D03*
X53500Y-41949D03*
G54D15*
X62375Y-43250D03*
X63125Y-43250D03*
G54D14*
X64250Y-38625D03*
X64250Y-39375D03*
G54D15*
X51640Y-32472D03*
X50890Y-32472D03*
X51680Y-35464D03*
X50930Y-35464D03*
X48252Y-32433D03*
X49002Y-32433D03*
X51640Y-34047D03*
X50890Y-34047D03*
G54D14*
X45124Y-35128D03*
X45124Y-35878D03*
G54D15*
X41412Y-32742D03*
X40662Y-32742D03*
X38380Y-32702D03*
X37630Y-32702D03*
X49473Y-37551D03*
X50223Y-37551D03*
G54D14*
X46226Y-33083D03*
X46226Y-32333D03*
G54D15*
X53884Y-32472D03*
X53134Y-32472D03*
G54D14*
X24000Y-43225D03*
X24000Y-43975D03*
G54D15*
X24125Y-24000D03*
X24875Y-24000D03*
G54D14*
X30875Y-45999D03*
X30875Y-46749D03*
X29625Y-45999D03*
X29625Y-46749D03*
X59000Y-24875D03*
X59000Y-24125D03*
G54D15*
X61125Y-29000D03*
X61875Y-29000D03*
X61875Y-34000D03*
X61125Y-34000D03*
X61125Y-30250D03*
X61875Y-30250D03*
X61875Y-32750D03*
X61125Y-32750D03*
G54D14*
X37750Y-29125D03*
X37750Y-28375D03*
G54D15*
X39875Y-29250D03*
X40625Y-29250D03*
G54D14*
X48000Y-24875D03*
X48000Y-24125D03*
G54D15*
X45875Y-28000D03*
X46625Y-28000D03*
G54D14*
X49500Y-24875D03*
X49500Y-24125D03*
G54D15*
X45875Y-29250D03*
X46625Y-29250D03*
G54D14*
X36500Y-29125D03*
X36500Y-28375D03*
G54D15*
X50875Y-26500D03*
X51625Y-26500D03*
G54D14*
X53750Y-26625D03*
X53750Y-27375D03*
X52000Y-29125D03*
X52000Y-29875D03*
X57750Y-24875D03*
X57750Y-24125D03*
X53250Y-29125D03*
X53250Y-29875D03*
G54D15*
X46477Y-46320D03*
X47227Y-46320D03*
X46477Y-44785D03*
X47227Y-44785D03*
X43227Y-46198D03*
X43977Y-46198D03*
X39875Y-28000D03*
X40625Y-28000D03*
X26125Y-25750D03*
X26875Y-25750D03*
G54D14*
X31000Y-26375D03*
X31000Y-25625D03*
G54D15*
X28625Y-28250D03*
X29375Y-28250D03*
X46477Y-40789D03*
X47227Y-40789D03*
X43227Y-44702D03*
X43977Y-44702D03*
X46477Y-42049D03*
X47227Y-42049D03*
G54D16*
X69100Y-45300D03*
G54D11*
X69100Y-46300D03*
X69100Y-47300D03*
G54D16*
X50100Y-54000D03*
G54D11*
X50100Y-53000D03*
X51100Y-54000D03*
X51100Y-53000D03*
G54D16*
X45600Y-54000D03*
G54D11*
X45600Y-53000D03*
X46600Y-54000D03*
X46600Y-53000D03*
G54D16*
X46000Y-21000D03*
G54D11*
X46000Y-22000D03*
G54D16*
X41100Y-22000D03*
G54D11*
X41100Y-21000D03*
G54D16*
X22000Y-40300D03*
G54D11*
X21000Y-40300D03*
G54D16*
X49800Y-21000D03*
G54D11*
X49800Y-22000D03*
G54D16*
X21000Y-28250D03*
G54D11*
X22000Y-28250D03*
G54D16*
X53300Y-21000D03*
G54D11*
X53300Y-22000D03*
G54D16*
X57600Y-21000D03*
G54D11*
X57600Y-22000D03*
G54D16*
X55400Y-52900D03*
G54D11*
X55400Y-53900D03*
G54D16*
X61900Y-21100D03*
G54D11*
X61900Y-22100D03*
G54D16*
X64200Y-52900D03*
G54D11*
X64200Y-53900D03*
G54D16*
X59800Y-52900D03*
G54D11*
X59800Y-53900D03*
G54D16*
X65100Y-21000D03*
G54D11*
X65100Y-22000D03*
G54D16*
X37500Y-21000D03*
G54D11*
X37500Y-22000D03*
G54D16*
X34000Y-21000D03*
G54D11*
X34000Y-22000D03*
G54D17*
X44625Y-25600D03*
X44625Y-25800D03*
X44625Y-26000D03*
X44625Y-26200D03*
X44625Y-26400D03*
X46375Y-26400D03*
X46375Y-26200D03*
X46375Y-26000D03*
X46375Y-25800D03*
X46375Y-25600D03*
X37625Y-25600D03*
X37625Y-25800D03*
X37625Y-26000D03*
X37625Y-26200D03*
X37625Y-26400D03*
X39375Y-26400D03*
X39375Y-26200D03*
X39375Y-26000D03*
X39375Y-25800D03*
X39375Y-25600D03*
G54D18*
X25200Y-21300D03*
X26200Y-21300D03*
X27200Y-21300D03*
X28200Y-21300D03*
X29200Y-21300D03*
X30200Y-21300D03*
G54D19*
X26279Y-42500D03*
X26279Y-43000D03*
X26279Y-43500D03*
X26279Y-44000D03*
X28220Y-44000D03*
X28220Y-43500D03*
X28220Y-43000D03*
X28220Y-42500D03*
G54D20*
X74500Y-27311D03*
G54D21*
X74500Y-28689D03*
G54D20*
X74500Y-31811D03*
G54D21*
X74500Y-33189D03*
G54D20*
X74500Y-36311D03*
G54D21*
X74500Y-37689D03*
G54D22*
X37062Y-45933D03*
X37562Y-45933D03*
X38062Y-45933D03*
X38562Y-45933D03*
X38562Y-43807D03*
X38062Y-43807D03*
X37562Y-43807D03*
X37062Y-43807D03*
G54D23*
X55948Y-27000D03*
X55948Y-27500D03*
X55948Y-28000D03*
X55948Y-28500D03*
X58074Y-28500D03*
X58074Y-28000D03*
X58074Y-27500D03*
X58074Y-27000D03*
X66312Y-33000D03*
X66312Y-32500D03*
X66312Y-32000D03*
X66312Y-31500D03*
X64187Y-31500D03*
X64187Y-32000D03*
X64187Y-32500D03*
X64187Y-33000D03*
G54D22*
X48551Y-34519D03*
X48051Y-34519D03*
X47551Y-34519D03*
X47051Y-34519D03*
X47051Y-36645D03*
X47551Y-36645D03*
X48051Y-36645D03*
X48551Y-36645D03*
G54D24*
X30300Y-52000D03*
G54D25*
X30300Y-53000D03*
X29300Y-52000D03*
X29300Y-53000D03*
X28300Y-52000D03*
X28300Y-53000D03*
X27300Y-52000D03*
X27300Y-53000D03*
X26300Y-52000D03*
X26300Y-53000D03*
G54D24*
X40500Y-52000D03*
G54D25*
X40500Y-53000D03*
X39500Y-52000D03*
X39500Y-53000D03*
X38500Y-52000D03*
X38500Y-53000D03*
X37500Y-52000D03*
X37500Y-53000D03*
X36500Y-52000D03*
X36500Y-53000D03*
G54D22*
X51907Y-46537D03*
X52407Y-46537D03*
X52907Y-46537D03*
X53407Y-46537D03*
X53407Y-44411D03*
X52907Y-44411D03*
X52407Y-44411D03*
X51907Y-44411D03*
X53907Y-46537D03*
X54407Y-46537D03*
X54907Y-46537D03*
X55407Y-46537D03*
X54407Y-44411D03*
X54907Y-44411D03*
X55407Y-44411D03*
X53907Y-44411D03*
X55171Y-37500D03*
X55671Y-37500D03*
X56171Y-37500D03*
X56671Y-37500D03*
X56671Y-35374D03*
X56171Y-35374D03*
X55671Y-35374D03*
X55171Y-35374D03*
X57171Y-37500D03*
X57671Y-37500D03*
X58171Y-37500D03*
X58671Y-37500D03*
X57671Y-35374D03*
X58171Y-35374D03*
X58671Y-35374D03*
X57171Y-35374D03*
G54D26*
X59350Y-44875D03*
X59550Y-44875D03*
X59750Y-44875D03*
X59950Y-44875D03*
X60150Y-44875D03*
X60150Y-43125D03*
X59950Y-43125D03*
X59750Y-43125D03*
X59550Y-43125D03*
X59350Y-43125D03*
G54D27*
X68500Y-53500D03*
X21500Y-53500D03*
X21500Y-21500D03*
X68500Y-21500D03*
G54D28*
X48430Y-37494D03*
X44829Y-39749D03*
X37784Y-27940D03*
X52931Y-42735D03*
X54059Y-45534D03*
X44003Y-34182D03*
X43946Y-39106D03*
X61761Y-37611D03*
X31000Y-27390D03*
X45875Y-28539D03*
X47217Y-28971D03*
X40657Y-40431D03*
X40845Y-37214D03*
X45478Y-25855D03*
X28414Y-50735D03*
X27837Y-37842D03*
X42758Y-29817D03*
X40885Y-26121D03*
X41241Y-24931D03*
X56050Y-44625D03*
X51640Y-34584D03*
X54967Y-28104D03*
X53932Y-33035D03*
X45254Y-29812D03*
X32183Y-47054D03*
X42015Y-30126D03*
X50952Y-46537D03*
X43200Y-37847D03*
X46852Y-43976D03*
X41040Y-37667D03*
X55070Y-43850D03*
X40661Y-29802D03*
X55592Y-47107D03*
X51490Y-40522D03*
X55056Y-45968D03*
X57544Y-34813D03*
X55410Y-43053D03*
X53854Y-40211D03*
X56130Y-34771D03*
X53339Y-40731D03*
G54D29*
X58074Y-27500D02*
X57639Y-27500D01*
X53407Y-44411D02*
X53407Y-43976D01*
X30336Y-21436D02*
X30200Y-21300D01*
X36633Y-21436D02*
X30336Y-21436D01*
X37069Y-21000D02*
X36633Y-21436D01*
X37284Y-21000D02*
X37069Y-21000D01*
X56671Y-35374D02*
X56671Y-34938D01*
X64187Y-32500D02*
X63796Y-32500D01*
X60875Y-40250D02*
X60875Y-41500D01*
X37284Y-21000D02*
X37500Y-21000D01*
X37500Y-21000D02*
X37930Y-21000D01*
X49500Y-24875D02*
X49500Y-24569D01*
X48000Y-24875D02*
X48000Y-25027D01*
X49500Y-24875D02*
X49094Y-24875D01*
X56750Y-33875D02*
X56750Y-34180D01*
X56750Y-33875D02*
X56344Y-33875D01*
X57089Y-34520D02*
X56750Y-34180D01*
X57089Y-34520D02*
X56671Y-34938D01*
X59950Y-43125D02*
X59950Y-42797D01*
X60875Y-41500D02*
X60569Y-41500D01*
X48942Y-25027D02*
X48000Y-25027D01*
X49094Y-24875D02*
X48942Y-25027D01*
X47027Y-26000D02*
X46375Y-26000D01*
X48000Y-25027D02*
X47027Y-26000D01*
X48051Y-36645D02*
X48051Y-37080D01*
X49943Y-37080D02*
X49473Y-37551D01*
X51210Y-37080D02*
X49943Y-37080D01*
X54416Y-33875D02*
X51210Y-37080D01*
X56344Y-33875D02*
X54416Y-33875D01*
X49473Y-37551D02*
X49168Y-37551D01*
X53500Y-42699D02*
X53500Y-43004D01*
X59757Y-42312D02*
X60569Y-41500D01*
X59757Y-42604D02*
X59757Y-42312D01*
X54000Y-42604D02*
X53905Y-42699D01*
X59757Y-42604D02*
X54000Y-42604D01*
X59950Y-42797D02*
X59757Y-42604D01*
X53500Y-42699D02*
X53905Y-42699D01*
X62430Y-32500D02*
X62180Y-32750D01*
X63751Y-32500D02*
X62430Y-32500D01*
X63751Y-32500D02*
X63796Y-32500D01*
X53407Y-43976D02*
X53407Y-43097D01*
X53407Y-43097D02*
X53500Y-43004D01*
X39875Y-28000D02*
X39722Y-28000D01*
X39722Y-28692D02*
X39875Y-28844D01*
X39722Y-28000D02*
X39722Y-28692D01*
X39875Y-29250D02*
X39875Y-28844D01*
X38478Y-21547D02*
X46434Y-21547D01*
X37930Y-21000D02*
X38478Y-21547D01*
X39040Y-27317D02*
X39722Y-28000D01*
X39040Y-26200D02*
X39040Y-27317D01*
X38969Y-26200D02*
X39040Y-26200D01*
X38846Y-26076D02*
X38969Y-26200D01*
X38846Y-25513D02*
X38846Y-26076D01*
X39957Y-24402D02*
X38846Y-25513D01*
X44211Y-24402D02*
X39957Y-24402D01*
X46434Y-22179D02*
X44211Y-24402D01*
X46434Y-21547D02*
X46434Y-22179D01*
X39040Y-26200D02*
X39375Y-26200D01*
X48430Y-37460D02*
X48051Y-37080D01*
X48430Y-37494D02*
X48430Y-37460D01*
X49111Y-37494D02*
X48430Y-37494D01*
X49168Y-37551D02*
X49111Y-37494D01*
X61875Y-32750D02*
X62180Y-32750D01*
X61875Y-34000D02*
X61842Y-34000D01*
X61842Y-33187D02*
X61875Y-33155D01*
X61842Y-34000D02*
X61842Y-33187D01*
X61875Y-32750D02*
X61875Y-33155D01*
X57111Y-34498D02*
X57089Y-34520D01*
X58509Y-34498D02*
X57111Y-34498D01*
X59099Y-35088D02*
X58509Y-34498D01*
X59099Y-37936D02*
X59099Y-35088D01*
X58905Y-38131D02*
X59099Y-37936D01*
X57678Y-38131D02*
X58905Y-38131D01*
X57421Y-37873D02*
X57678Y-38131D01*
X57421Y-37115D02*
X57421Y-37873D01*
X57370Y-37064D02*
X57421Y-37115D01*
X56499Y-37064D02*
X57370Y-37064D01*
X56422Y-37141D02*
X56499Y-37064D01*
X56422Y-38365D02*
X56422Y-37141D01*
X53392Y-41396D02*
X56422Y-38365D01*
X53150Y-41396D02*
X53392Y-41396D01*
X52610Y-41936D02*
X53150Y-41396D01*
X52610Y-42850D02*
X52610Y-41936D01*
X52858Y-43097D02*
X52610Y-42850D01*
X53407Y-43097D02*
X52858Y-43097D01*
X50485Y-21552D02*
X50230Y-21807D01*
X54280Y-21552D02*
X50485Y-21552D01*
X55892Y-23163D02*
X54280Y-21552D01*
X58700Y-23163D02*
X55892Y-23163D01*
X59405Y-23868D02*
X58700Y-23163D01*
X59405Y-24355D02*
X59405Y-23868D01*
X59190Y-24569D02*
X59405Y-24355D01*
X59000Y-24569D02*
X59190Y-24569D01*
X50230Y-24030D02*
X50230Y-21807D01*
X49690Y-24569D02*
X50230Y-24030D01*
X49500Y-24569D02*
X49690Y-24569D01*
X49970Y-21547D02*
X46434Y-21547D01*
X50230Y-21807D02*
X49970Y-21547D01*
X59000Y-24875D02*
X59000Y-24722D01*
X59000Y-24722D02*
X59000Y-24569D01*
X58307Y-24722D02*
X58155Y-24875D01*
X59000Y-24722D02*
X58307Y-24722D01*
X57750Y-24875D02*
X58155Y-24875D01*
X57639Y-28213D02*
X57639Y-27500D01*
X57674Y-28248D02*
X57639Y-28213D01*
X61791Y-28248D02*
X57674Y-28248D01*
X64622Y-31078D02*
X61791Y-28248D01*
X64622Y-31706D02*
X64622Y-31078D01*
X64580Y-31748D02*
X64622Y-31706D01*
X63831Y-31748D02*
X64580Y-31748D01*
X63751Y-31827D02*
X63831Y-31748D01*
X63751Y-32500D02*
X63751Y-31827D01*
X57639Y-25290D02*
X57750Y-25180D01*
X57639Y-27500D02*
X57639Y-25290D01*
X57750Y-24875D02*
X57750Y-25180D01*
X37562Y-42937D02*
X37562Y-43807D01*
X36553Y-41928D02*
X37562Y-42937D01*
X37743Y-44423D02*
X37562Y-44242D01*
X38890Y-44423D02*
X37743Y-44423D01*
X43014Y-40299D02*
X38890Y-44423D01*
X44278Y-40299D02*
X43014Y-40299D01*
X44829Y-39749D02*
X44278Y-40299D01*
X37562Y-43807D02*
X37562Y-44242D01*
X36553Y-41623D02*
X36553Y-41775D01*
X36553Y-41775D02*
X36553Y-41928D01*
X35693Y-41775D02*
X35540Y-41623D01*
X36553Y-41775D02*
X35693Y-41775D01*
X35135Y-41623D02*
X35540Y-41623D01*
X53282Y-48309D02*
X53282Y-47903D01*
X34000Y-21000D02*
X33569Y-21000D01*
X33393Y-20823D02*
X33569Y-21000D01*
X28676Y-20823D02*
X33393Y-20823D01*
X28200Y-21300D02*
X28676Y-20823D01*
X60902Y-47492D02*
X60902Y-46074D01*
X47555Y-29875D02*
X46930Y-29250D01*
X52000Y-29875D02*
X47555Y-29875D01*
X46625Y-29250D02*
X46930Y-29250D01*
X53282Y-47097D02*
X53407Y-46972D01*
X53282Y-47903D02*
X53282Y-47097D01*
X53407Y-46755D02*
X53407Y-46972D01*
X53407Y-46755D02*
X53407Y-46537D01*
X53407Y-46537D02*
X53407Y-46102D01*
X37952Y-27772D02*
X37952Y-26200D01*
X37784Y-27940D02*
X37952Y-27772D01*
X37625Y-26200D02*
X37952Y-26200D01*
X37750Y-27974D02*
X37784Y-27940D01*
X37750Y-28375D02*
X37750Y-27974D01*
X36500Y-28375D02*
X36905Y-28375D01*
X37750Y-28375D02*
X36905Y-28375D01*
X56585Y-39271D02*
X56585Y-39676D01*
X64187Y-31500D02*
X63751Y-31500D01*
X62501Y-30250D02*
X63751Y-31500D01*
X61875Y-30250D02*
X62501Y-30250D01*
X46226Y-33083D02*
X46226Y-33388D01*
X47051Y-34519D02*
X47051Y-34084D01*
X46625Y-29250D02*
X46625Y-28844D01*
X46226Y-34084D02*
X46226Y-33388D01*
X46226Y-34084D02*
X47051Y-34084D01*
X44101Y-34084D02*
X44003Y-34182D01*
X46226Y-34084D02*
X44101Y-34084D01*
X46375Y-26400D02*
X46047Y-26400D01*
X46625Y-28844D02*
X46625Y-28000D01*
X46625Y-28000D02*
X46319Y-28000D01*
X44625Y-26000D02*
X44952Y-26000D01*
X45700Y-26747D02*
X44952Y-26000D01*
X45700Y-26747D02*
X46047Y-26400D01*
X46226Y-33083D02*
X46226Y-32778D01*
X45700Y-26747D02*
X45700Y-27594D01*
X46135Y-27594D02*
X45700Y-27594D01*
X46319Y-27778D02*
X46135Y-27594D01*
X46319Y-28000D02*
X46319Y-27778D01*
X46035Y-32778D02*
X46226Y-32778D01*
X45562Y-32305D02*
X46035Y-32778D01*
X45562Y-27662D02*
X45562Y-32305D01*
X45631Y-27594D02*
X45562Y-27662D01*
X45700Y-27594D02*
X45631Y-27594D01*
X53975Y-45534D02*
X54059Y-45534D01*
X53407Y-46102D02*
X53975Y-45534D01*
X59950Y-44875D02*
X59950Y-45202D01*
X60902Y-46074D02*
X60597Y-46074D01*
X59950Y-45534D02*
X59950Y-45202D01*
X54059Y-45534D02*
X59950Y-45534D01*
X60057Y-45534D02*
X60597Y-46074D01*
X59950Y-45534D02*
X60057Y-45534D01*
X56671Y-38780D02*
X56585Y-38866D01*
X56671Y-37500D02*
X56671Y-38780D01*
X56585Y-39271D02*
X56585Y-38866D01*
X56632Y-28748D02*
X56384Y-28500D01*
X59508Y-28748D02*
X56632Y-28748D01*
X59661Y-28594D02*
X59508Y-28748D01*
X61355Y-28594D02*
X59661Y-28594D01*
X61569Y-28809D02*
X61355Y-28594D01*
X61569Y-29000D02*
X61569Y-28809D01*
X55948Y-28500D02*
X56384Y-28500D01*
X61875Y-30250D02*
X61875Y-29844D01*
X61875Y-29000D02*
X61875Y-29844D01*
X61875Y-29000D02*
X61569Y-29000D01*
X54685Y-41576D02*
X56585Y-39676D01*
X53233Y-41576D02*
X54685Y-41576D01*
X52931Y-41878D02*
X53233Y-41576D01*
X52931Y-42735D02*
X52931Y-41878D01*
X38954Y-41623D02*
X38954Y-41775D01*
X40450Y-41623D02*
X40045Y-41623D01*
X52000Y-29875D02*
X53250Y-29875D01*
X54138Y-29875D02*
X55513Y-28500D01*
X53250Y-29875D02*
X54138Y-29875D01*
X55948Y-28500D02*
X55513Y-28500D01*
X39893Y-41775D02*
X40045Y-41623D01*
X38954Y-41775D02*
X39893Y-41775D01*
X38562Y-43807D02*
X38562Y-43371D01*
X38954Y-42980D02*
X38562Y-43371D01*
X38954Y-41775D02*
X38954Y-42980D01*
X40755Y-41317D02*
X40450Y-41317D01*
X42967Y-39106D02*
X40755Y-41317D01*
X43946Y-39106D02*
X42967Y-39106D01*
X40450Y-41623D02*
X40450Y-41317D01*
X24630Y-43000D02*
X24405Y-43225D01*
X26279Y-43000D02*
X24630Y-43000D01*
X24000Y-43225D02*
X24405Y-43225D01*
G54D30*
X63537Y-35835D02*
X63537Y-35817D01*
X61761Y-37611D02*
X63537Y-35835D01*
X63875Y-35817D02*
X63537Y-35817D01*
X39814Y-35129D02*
X39814Y-35340D01*
X39648Y-34963D02*
X39814Y-35129D01*
X33936Y-34963D02*
X39648Y-34963D01*
X33700Y-35200D02*
X33936Y-34963D01*
X40152Y-35340D02*
X39814Y-35340D01*
X29241Y-26698D02*
X29241Y-27028D01*
X31000Y-27028D02*
X29241Y-27028D01*
X31000Y-26375D02*
X31000Y-27028D01*
X31000Y-27028D02*
X31000Y-27390D01*
X29241Y-27661D02*
X29241Y-27028D01*
X29375Y-27794D02*
X29241Y-27661D01*
X29375Y-28250D02*
X29375Y-27794D01*
X50619Y-54480D02*
X51100Y-54000D01*
X47080Y-54480D02*
X50619Y-54480D01*
X46600Y-54000D02*
X47080Y-54480D01*
X24125Y-27775D02*
X20700Y-31200D01*
X24125Y-24000D02*
X24125Y-27775D01*
X24480Y-22019D02*
X24480Y-24000D01*
X25200Y-21300D02*
X24480Y-22019D01*
X24125Y-24000D02*
X24480Y-24000D01*
G54D29*
X54032Y-48309D02*
X54032Y-47903D01*
X47809Y-24430D02*
X48000Y-24430D01*
X46702Y-25537D02*
X47809Y-24430D01*
X46702Y-25800D02*
X46702Y-25537D01*
X46375Y-25800D02*
X46702Y-25800D01*
X53250Y-29125D02*
X53250Y-28972D01*
X61432Y-46867D02*
X61432Y-46074D01*
X61652Y-47087D02*
X61432Y-46867D01*
X61652Y-46074D02*
X61432Y-46074D01*
X61652Y-47492D02*
X61652Y-47087D01*
X60150Y-44875D02*
X60150Y-44993D01*
X61625Y-41500D02*
X61930Y-41500D01*
X53907Y-47778D02*
X53907Y-46537D01*
X54032Y-47903D02*
X53907Y-47778D01*
X61347Y-47682D02*
X61347Y-47492D01*
X61116Y-47913D02*
X61347Y-47682D01*
X55660Y-47913D02*
X61116Y-47913D01*
X54659Y-46912D02*
X55660Y-47913D01*
X54659Y-46173D02*
X54659Y-46912D01*
X54588Y-46102D02*
X54659Y-46173D01*
X53907Y-46102D02*
X54588Y-46102D01*
X53907Y-46537D02*
X53907Y-46102D01*
X61652Y-47492D02*
X61347Y-47492D01*
X66784Y-37689D02*
X64912Y-35817D01*
X74500Y-37689D02*
X66784Y-37689D01*
X61125Y-29000D02*
X61125Y-30250D01*
X64625Y-35817D02*
X64912Y-35817D01*
X52157Y-29125D02*
X52405Y-29125D01*
X52157Y-29125D02*
X52000Y-29125D01*
X38562Y-45497D02*
X38062Y-45497D01*
X38562Y-45933D02*
X38562Y-45497D01*
X38062Y-45933D02*
X38062Y-45497D01*
X48000Y-24125D02*
X48000Y-24277D01*
X48000Y-24277D02*
X48000Y-24430D01*
X48942Y-24277D02*
X49094Y-24125D01*
X48000Y-24277D02*
X48942Y-24277D01*
X49500Y-24125D02*
X49094Y-24125D01*
X50223Y-37551D02*
X49918Y-37551D01*
X52557Y-28972D02*
X52405Y-29125D01*
X53250Y-28972D02*
X52557Y-28972D01*
X57750Y-24125D02*
X57750Y-24277D01*
X58442Y-24277D02*
X58594Y-24125D01*
X57750Y-24277D02*
X58442Y-24277D01*
X59000Y-24125D02*
X58594Y-24125D01*
X61274Y-45916D02*
X61432Y-46074D01*
X61274Y-44993D02*
X61274Y-45916D01*
X60150Y-44993D02*
X61274Y-44993D01*
X62680Y-42250D02*
X61930Y-41500D01*
X62680Y-43587D02*
X62680Y-42250D01*
X61274Y-44993D02*
X62680Y-43587D01*
X45875Y-28000D02*
X45875Y-28539D01*
X51441Y-28971D02*
X51594Y-29125D01*
X47217Y-28971D02*
X51441Y-28971D01*
X52000Y-29125D02*
X51594Y-29125D01*
X57698Y-24277D02*
X57750Y-24277D01*
X56384Y-25592D02*
X57698Y-24277D01*
X56384Y-28000D02*
X56384Y-25592D01*
X55948Y-28000D02*
X56384Y-28000D01*
X57030Y-39500D02*
X57030Y-39271D01*
X54581Y-41949D02*
X57030Y-39500D01*
X53500Y-41949D02*
X54581Y-41949D01*
X61625Y-41500D02*
X61625Y-40250D01*
X61125Y-32750D02*
X61125Y-30250D01*
X28866Y-26698D02*
X28866Y-26978D01*
X28491Y-26698D02*
X28491Y-26418D01*
X26125Y-26418D02*
X28491Y-26418D01*
X26125Y-26775D02*
X26125Y-26418D01*
X21700Y-31200D02*
X26125Y-26775D01*
X26125Y-26418D02*
X26125Y-25750D01*
X28625Y-27844D02*
X28625Y-26978D01*
X28491Y-26978D02*
X28625Y-26978D01*
X28625Y-26978D02*
X28866Y-26978D01*
X28491Y-26698D02*
X28491Y-26978D01*
X36500Y-29125D02*
X36500Y-28819D01*
X28625Y-28092D02*
X28625Y-27844D01*
X28625Y-28092D02*
X28625Y-28250D01*
X28625Y-28250D02*
X28930Y-28250D01*
X46226Y-32333D02*
X46631Y-32333D01*
X45875Y-28539D02*
X45875Y-29250D01*
X45875Y-31677D02*
X46226Y-32028D01*
X45875Y-29250D02*
X45875Y-31677D01*
X46226Y-32333D02*
X46226Y-32028D01*
X36094Y-27603D02*
X37297Y-26400D01*
X36094Y-28605D02*
X36094Y-27603D01*
X36309Y-28819D02*
X36500Y-28819D01*
X36094Y-28605D02*
X36309Y-28819D01*
X37625Y-26400D02*
X37342Y-26400D01*
X37342Y-26400D02*
X37297Y-26400D01*
X37297Y-26400D02*
X37297Y-25800D01*
X37625Y-25800D02*
X37297Y-25800D01*
X40845Y-37214D02*
X41060Y-36998D01*
X41060Y-36998D02*
X39402Y-35340D01*
X40521Y-40567D02*
X40657Y-40431D01*
X40450Y-40567D02*
X40521Y-40567D01*
X57079Y-38027D02*
X57079Y-39271D01*
X57171Y-37935D02*
X57079Y-38027D01*
X57079Y-39271D02*
X57030Y-39271D01*
X57171Y-37500D02*
X57171Y-37935D01*
X45534Y-25800D02*
X46375Y-25800D01*
X45478Y-25855D02*
X45534Y-25800D01*
X45222Y-25600D02*
X44625Y-25600D01*
X45478Y-25855D02*
X45222Y-25600D01*
X44625Y-25600D02*
X44297Y-25600D01*
X40579Y-27549D02*
X40625Y-27594D01*
X40579Y-25995D02*
X40579Y-27549D01*
X41005Y-25569D02*
X40579Y-25995D01*
X44267Y-25569D02*
X41005Y-25569D01*
X44297Y-25600D02*
X44267Y-25569D01*
X40625Y-28000D02*
X40625Y-27594D01*
X36035Y-28664D02*
X36094Y-28605D01*
X29154Y-28664D02*
X36035Y-28664D01*
X28930Y-28440D02*
X29154Y-28664D01*
X28930Y-28250D02*
X28930Y-28440D01*
X37750Y-29125D02*
X37750Y-29086D01*
X36943Y-29086D02*
X36905Y-29125D01*
X37750Y-29086D02*
X36943Y-29086D01*
X36500Y-29125D02*
X36905Y-29125D01*
X48252Y-32433D02*
X47947Y-32433D01*
X47848Y-32333D02*
X47947Y-32433D01*
X46631Y-32333D02*
X47848Y-32333D01*
X47585Y-37080D02*
X47667Y-37162D01*
X41143Y-37080D02*
X47585Y-37080D01*
X41060Y-36998D02*
X41143Y-37080D01*
X49918Y-37741D02*
X49918Y-37551D01*
X49688Y-37972D02*
X49918Y-37741D01*
X48476Y-37972D02*
X49688Y-37972D01*
X47667Y-37162D02*
X48476Y-37972D01*
X51210Y-32019D02*
X51239Y-32047D01*
X48666Y-32019D02*
X51210Y-32019D01*
X48252Y-32433D02*
X48666Y-32019D01*
X47802Y-37026D02*
X47667Y-37162D01*
X47802Y-36255D02*
X47802Y-37026D01*
X48188Y-35869D02*
X47802Y-36255D01*
X51158Y-35869D02*
X48188Y-35869D01*
X51239Y-35789D02*
X51158Y-35869D01*
X51239Y-32047D02*
X51239Y-35789D01*
X54541Y-28972D02*
X55513Y-28000D01*
X53250Y-28972D02*
X54541Y-28972D01*
X55948Y-28000D02*
X55513Y-28000D01*
X64625Y-35817D02*
X64337Y-35817D01*
X61125Y-33155D02*
X61125Y-34000D01*
X61125Y-34000D02*
X61430Y-34000D01*
X37062Y-45933D02*
X37062Y-45497D01*
X37562Y-44997D02*
X37062Y-45497D01*
X37562Y-44997D02*
X38062Y-45497D01*
X37062Y-44497D02*
X37562Y-44997D01*
X37062Y-43807D02*
X37062Y-44497D01*
X36553Y-40873D02*
X35135Y-40873D01*
X36226Y-43371D02*
X37062Y-43371D01*
X34713Y-41858D02*
X36226Y-43371D01*
X34713Y-41409D02*
X34713Y-41858D01*
X34945Y-41178D02*
X34713Y-41409D01*
X35135Y-41178D02*
X34945Y-41178D01*
X35135Y-40873D02*
X35135Y-41178D01*
X37062Y-43807D02*
X37062Y-43371D01*
X37750Y-29125D02*
X37750Y-29430D01*
X40625Y-28000D02*
X40625Y-29250D01*
X38003Y-29683D02*
X37750Y-29430D01*
X40076Y-29683D02*
X38003Y-29683D01*
X40319Y-29440D02*
X40076Y-29683D01*
X40319Y-29250D02*
X40319Y-29440D01*
X40625Y-29250D02*
X40319Y-29250D01*
X38954Y-40873D02*
X36553Y-40873D01*
X53345Y-32047D02*
X51239Y-32047D01*
X53579Y-32281D02*
X53345Y-32047D01*
X53579Y-32472D02*
X53579Y-32281D01*
X40450Y-40873D02*
X40450Y-40720D01*
X40450Y-40720D02*
X40450Y-40567D01*
X39512Y-40720D02*
X39359Y-40873D01*
X40450Y-40720D02*
X39512Y-40720D01*
X38954Y-40873D02*
X39359Y-40873D01*
X53778Y-32472D02*
X53579Y-32472D01*
X53778Y-32472D02*
X53884Y-32472D01*
X54842Y-33125D02*
X54189Y-32472D01*
X56750Y-33125D02*
X54842Y-33125D01*
X53884Y-32472D02*
X54189Y-32472D01*
X61125Y-32750D02*
X61125Y-32987D01*
X61125Y-32987D02*
X61125Y-33155D01*
X57292Y-32987D02*
X57155Y-33125D01*
X61125Y-32987D02*
X57292Y-32987D01*
X56750Y-33125D02*
X57155Y-33125D01*
X57207Y-39271D02*
X57079Y-39271D01*
X57207Y-39271D02*
X57335Y-39271D01*
X61625Y-40250D02*
X61319Y-40250D01*
X64337Y-35712D02*
X64337Y-35817D01*
X64097Y-35472D02*
X64337Y-35712D01*
X62602Y-35472D02*
X64097Y-35472D01*
X61430Y-34299D02*
X61430Y-34000D01*
X62602Y-35472D02*
X61430Y-34299D01*
X60532Y-37542D02*
X62602Y-35472D01*
X60532Y-39271D02*
X60532Y-37542D01*
X57335Y-39271D02*
X60532Y-39271D01*
X61319Y-40059D02*
X61319Y-40250D01*
X60532Y-39271D02*
X61319Y-40059D01*
X58074Y-28000D02*
X58510Y-28000D01*
X72197Y-27310D02*
X74500Y-27310D01*
X65455Y-20569D02*
X72197Y-27310D01*
X64389Y-20569D02*
X65455Y-20569D01*
X61150Y-23808D02*
X64389Y-20569D01*
X59599Y-23808D02*
X61150Y-23808D01*
X59599Y-26910D02*
X59599Y-23808D01*
X58510Y-28000D02*
X59599Y-26910D01*
X57791Y-22000D02*
X57600Y-22000D01*
X59599Y-23808D02*
X57791Y-22000D01*
X29300Y-51620D02*
X28414Y-50735D01*
X29300Y-52000D02*
X29300Y-51620D01*
X31769Y-35130D02*
X32700Y-34200D01*
X29147Y-35130D02*
X31769Y-35130D01*
X27261Y-37015D02*
X29147Y-35130D01*
X27261Y-37387D02*
X27261Y-37015D01*
X27717Y-37842D02*
X27261Y-37387D01*
X27837Y-37842D02*
X27717Y-37842D01*
X46375Y-25600D02*
X46211Y-25600D01*
X39375Y-26400D02*
X39702Y-26400D01*
X39375Y-25800D02*
X39665Y-25800D01*
X39702Y-25836D02*
X39702Y-26400D01*
X39665Y-25800D02*
X39702Y-25836D01*
X39665Y-25800D02*
X39665Y-25800D01*
X46001Y-25389D02*
X46045Y-25434D01*
X40167Y-25389D02*
X46001Y-25389D01*
X39720Y-25836D02*
X40167Y-25389D01*
X39702Y-25836D02*
X39720Y-25836D01*
X46211Y-25600D02*
X46045Y-25434D01*
X49479Y-22000D02*
X49800Y-22000D01*
X46045Y-25434D02*
X49479Y-22000D01*
X50875Y-26500D02*
X50569Y-26500D01*
X50269Y-25030D02*
X50269Y-26200D01*
X53300Y-22000D02*
X50269Y-25030D01*
X46375Y-26200D02*
X50269Y-26200D01*
X50269Y-26200D02*
X50569Y-26500D01*
X44625Y-26200D02*
X44297Y-26200D01*
X21700Y-35826D02*
X21700Y-37200D01*
X25200Y-32326D02*
X21700Y-35826D01*
X25200Y-32068D02*
X25200Y-32326D01*
X25498Y-31769D02*
X25200Y-32068D01*
X25740Y-31769D02*
X25498Y-31769D01*
X26263Y-31246D02*
X25740Y-31769D01*
X26263Y-31027D02*
X26263Y-31246D01*
X27093Y-30197D02*
X26263Y-31027D01*
X40698Y-30197D02*
X27093Y-30197D01*
X44297Y-26598D02*
X40698Y-30197D01*
X44297Y-26200D02*
X44297Y-26598D01*
X22700Y-35808D02*
X22700Y-37200D01*
X27263Y-31244D02*
X22700Y-35808D01*
X27263Y-31027D02*
X27263Y-31244D01*
X27823Y-30468D02*
X27263Y-31027D01*
X40687Y-30468D02*
X27823Y-30468D01*
X44625Y-26530D02*
X40687Y-30468D01*
X44625Y-26400D02*
X44625Y-26530D01*
X37625Y-25600D02*
X37907Y-25600D01*
X37625Y-26000D02*
X37952Y-26000D01*
X37952Y-25600D02*
X37907Y-25600D01*
X37952Y-25600D02*
X37952Y-25600D01*
X37952Y-26000D02*
X37952Y-25600D01*
X44319Y-23680D02*
X46000Y-22000D01*
X39872Y-23680D02*
X44319Y-23680D01*
X37952Y-25600D02*
X39872Y-23680D01*
X35010Y-30889D02*
X33700Y-32200D01*
X41686Y-30889D02*
X35010Y-30889D01*
X42758Y-29817D02*
X41686Y-30889D01*
G54D30*
X21000Y-40300D02*
X22000Y-40300D01*
X22000Y-41930D02*
X22000Y-40300D01*
X23689Y-43619D02*
X22000Y-41930D01*
X24000Y-43619D02*
X23689Y-43619D01*
X24000Y-43975D02*
X24000Y-43619D01*
X24000Y-43975D02*
X24455Y-43975D01*
X24875Y-24000D02*
X25230Y-24000D01*
X28694Y-21805D02*
X26200Y-21805D01*
X29200Y-21300D02*
X28694Y-21805D01*
X26200Y-21300D02*
X26200Y-21805D01*
X26200Y-23030D02*
X25230Y-24000D01*
X26200Y-21805D02*
X26200Y-23030D01*
X24480Y-44000D02*
X24455Y-43975D01*
X26279Y-44000D02*
X24480Y-44000D01*
X26279Y-44000D02*
X26849Y-44000D01*
X31914Y-53542D02*
X30836Y-52463D01*
X39957Y-53542D02*
X31914Y-53542D01*
X40500Y-53000D02*
X39957Y-53542D01*
X30836Y-49456D02*
X30836Y-52463D01*
X26849Y-45469D02*
X30836Y-49456D01*
X26849Y-44000D02*
X26849Y-45469D01*
X30836Y-52463D02*
X30300Y-53000D01*
G54D31*
X44067Y-25800D02*
X44625Y-25800D01*
G54D30*
X43746Y-26121D02*
X40885Y-26121D01*
X44067Y-25800D02*
X43746Y-26121D01*
G54D29*
X39047Y-25600D02*
X39047Y-26000D01*
X39375Y-26000D02*
X39047Y-26000D01*
X39375Y-25600D02*
X39047Y-25600D01*
X39375Y-25600D02*
X39702Y-25600D01*
X28491Y-25698D02*
X28491Y-25628D01*
X41100Y-22000D02*
X40669Y-22000D01*
X37044Y-25625D02*
X31000Y-25625D01*
X40669Y-22000D02*
X37044Y-25625D01*
X31000Y-25625D02*
X29241Y-25625D01*
X29241Y-25698D02*
X29241Y-25625D01*
X29241Y-25625D02*
X29241Y-25619D01*
X28500Y-25619D02*
X29241Y-25619D01*
X28491Y-25628D02*
X28500Y-25619D01*
X26875Y-25750D02*
X27180Y-25750D01*
X27301Y-25628D02*
X27180Y-25750D01*
X28491Y-25628D02*
X27301Y-25628D01*
X40370Y-24931D02*
X41241Y-24931D01*
X39702Y-25600D02*
X40370Y-24931D01*
X59350Y-44875D02*
X59350Y-44547D01*
X56127Y-44547D02*
X56050Y-44625D01*
X59350Y-44547D02*
X56127Y-44547D01*
X51640Y-34584D02*
X51640Y-34047D01*
X54539Y-52469D02*
X54969Y-52900D01*
X42963Y-52469D02*
X54539Y-52469D01*
X33993Y-43500D02*
X42963Y-52469D01*
X28220Y-43500D02*
X33993Y-43500D01*
X55400Y-52900D02*
X54969Y-52900D01*
X73865Y-32000D02*
X74054Y-31810D01*
X66312Y-32000D02*
X73865Y-32000D01*
X74500Y-31810D02*
X74054Y-31810D01*
X66312Y-31500D02*
X65877Y-31500D01*
X66312Y-32500D02*
X66095Y-32500D01*
X66095Y-32500D02*
X65877Y-32500D01*
X65877Y-32717D02*
X65877Y-33000D01*
X66095Y-32500D02*
X65877Y-32717D01*
X66312Y-33000D02*
X65877Y-33000D01*
X64187Y-33000D02*
X64622Y-33000D01*
X64187Y-32000D02*
X64622Y-32000D01*
X65757Y-32379D02*
X65877Y-32500D01*
X64622Y-32379D02*
X65757Y-32379D01*
X64622Y-33000D02*
X64622Y-32379D01*
X64622Y-32379D02*
X64622Y-32000D01*
X65100Y-22000D02*
X65100Y-21430D01*
X65100Y-21000D02*
X65100Y-21430D01*
X65877Y-32258D02*
X65877Y-31500D01*
X65757Y-32379D02*
X65877Y-32258D01*
X65877Y-22777D02*
X65100Y-22000D01*
X65877Y-31500D02*
X65877Y-22777D01*
X54174Y-28104D02*
X53750Y-27680D01*
X54967Y-28104D02*
X54174Y-28104D01*
X53750Y-27375D02*
X53750Y-27680D01*
X51908Y-35059D02*
X51680Y-35059D01*
X53932Y-33035D02*
X51908Y-35059D01*
X51680Y-35464D02*
X51680Y-35059D01*
X32202Y-32702D02*
X37630Y-32702D01*
X30700Y-31200D02*
X32202Y-32702D01*
X37630Y-32702D02*
X37936Y-32702D01*
X43505Y-31561D02*
X45254Y-29812D01*
X38886Y-31561D02*
X43505Y-31561D01*
X37936Y-32512D02*
X38886Y-31561D01*
X37936Y-32702D02*
X37936Y-32512D01*
X40019Y-52480D02*
X39500Y-53000D01*
X40923Y-52480D02*
X40019Y-52480D01*
X40980Y-52423D02*
X40923Y-52480D01*
X40980Y-51572D02*
X40980Y-52423D01*
X33142Y-43734D02*
X40980Y-51572D01*
X27776Y-43734D02*
X33142Y-43734D01*
X27685Y-43642D02*
X27776Y-43734D01*
X27685Y-39185D02*
X27685Y-43642D01*
X25700Y-37200D02*
X27685Y-39185D01*
X33249Y-46749D02*
X38500Y-52000D01*
X30875Y-46749D02*
X33249Y-46749D01*
X30875Y-46749D02*
X30875Y-46444D01*
X23268Y-35631D02*
X27700Y-31200D01*
X23268Y-37448D02*
X23268Y-35631D01*
X27324Y-41504D02*
X23268Y-37448D01*
X27324Y-44352D02*
X27324Y-41504D01*
X29417Y-46444D02*
X27324Y-44352D01*
X30875Y-46444D02*
X29417Y-46444D01*
X29625Y-46749D02*
X29625Y-47054D01*
X33267Y-47054D02*
X32183Y-47054D01*
X38000Y-51787D02*
X33267Y-47054D01*
X38000Y-52500D02*
X38000Y-51787D01*
X38500Y-53000D02*
X38000Y-52500D01*
X32183Y-47054D02*
X29625Y-47054D01*
X54407Y-46537D02*
X54407Y-46972D01*
X52907Y-44411D02*
X52907Y-44846D01*
X52907Y-46537D02*
X52907Y-46102D01*
X59800Y-52900D02*
X59369Y-52900D01*
X55018Y-48548D02*
X59369Y-52900D01*
X55018Y-47583D02*
X55018Y-48548D01*
X54407Y-46972D02*
X55018Y-47583D01*
X52907Y-48573D02*
X52907Y-46537D01*
X53061Y-48727D02*
X52907Y-48573D01*
X54839Y-48727D02*
X53061Y-48727D01*
X55018Y-48548D02*
X54839Y-48727D01*
X52907Y-44846D02*
X52907Y-46102D01*
X54407Y-44411D02*
X54407Y-44846D01*
X52907Y-44846D02*
X54407Y-44846D01*
X56784Y-43452D02*
X59350Y-43452D01*
X55655Y-44580D02*
X56784Y-43452D01*
X55655Y-44793D02*
X55655Y-44580D01*
X55602Y-44846D02*
X55655Y-44793D01*
X54407Y-44846D02*
X55602Y-44846D01*
X59350Y-43125D02*
X59350Y-43452D01*
X64250Y-42076D02*
X64250Y-39375D01*
X68973Y-46800D02*
X64250Y-42076D01*
X69209Y-46800D02*
X68973Y-46800D01*
X69530Y-47120D02*
X69209Y-46800D01*
X69530Y-47516D02*
X69530Y-47120D01*
X64576Y-52469D02*
X69530Y-47516D01*
X64200Y-52469D02*
X64576Y-52469D01*
X64200Y-52514D02*
X64200Y-52469D01*
X64200Y-52900D02*
X64200Y-52514D01*
X64200Y-52469D02*
X64200Y-52469D01*
X41494Y-30648D02*
X42015Y-30126D01*
X32251Y-30648D02*
X41494Y-30648D01*
X31700Y-31200D02*
X32251Y-30648D01*
X24133Y-36766D02*
X23700Y-37200D01*
X25889Y-36766D02*
X24133Y-36766D01*
X26200Y-37076D02*
X25889Y-36766D01*
X26200Y-37315D02*
X26200Y-37076D01*
X27578Y-38693D02*
X26200Y-37315D01*
X53977Y-38693D02*
X27578Y-38693D01*
X55171Y-37500D02*
X53977Y-38693D01*
X55171Y-35374D02*
X55171Y-35809D01*
X28013Y-38513D02*
X26700Y-37200D01*
X52467Y-38513D02*
X28013Y-38513D01*
X55171Y-35809D02*
X52467Y-38513D01*
X58671Y-35374D02*
X58671Y-34938D01*
X28143Y-36756D02*
X27700Y-37200D01*
X28866Y-36756D02*
X28143Y-36756D01*
X29200Y-37090D02*
X28866Y-36756D01*
X29200Y-37315D02*
X29200Y-37090D01*
X30037Y-38153D02*
X29200Y-37315D01*
X50717Y-38153D02*
X30037Y-38153D01*
X54411Y-34459D02*
X50717Y-38153D01*
X56272Y-34459D02*
X54411Y-34459D01*
X56435Y-34622D02*
X56272Y-34459D01*
X56435Y-34925D02*
X56435Y-34622D01*
X56422Y-34938D02*
X56435Y-34925D01*
X56422Y-35760D02*
X56422Y-34938D01*
X56471Y-35809D02*
X56422Y-35760D01*
X57871Y-35809D02*
X56471Y-35809D01*
X57922Y-35758D02*
X57871Y-35809D01*
X57922Y-34991D02*
X57922Y-35758D01*
X57975Y-34938D02*
X57922Y-34991D01*
X58671Y-34938D02*
X57975Y-34938D01*
X58671Y-37500D02*
X58671Y-37064D01*
X29833Y-38333D02*
X28700Y-37200D01*
X51528Y-38333D02*
X29833Y-38333D01*
X54922Y-34938D02*
X51528Y-38333D01*
X55865Y-34938D02*
X54922Y-34938D01*
X55922Y-34995D02*
X55865Y-34938D01*
X55922Y-35745D02*
X55922Y-34995D01*
X56316Y-36138D02*
X55922Y-35745D01*
X57745Y-36138D02*
X56316Y-36138D01*
X58671Y-37064D02*
X57745Y-36138D01*
X30472Y-37972D02*
X29700Y-37200D01*
X43075Y-37972D02*
X30472Y-37972D01*
X43200Y-37847D02*
X43075Y-37972D01*
X51907Y-46537D02*
X50952Y-46537D01*
X51907Y-44411D02*
X51907Y-43976D01*
X51907Y-43976D02*
X46852Y-43976D01*
X31167Y-37667D02*
X30700Y-37200D01*
X41040Y-37667D02*
X31167Y-37667D01*
X55407Y-44411D02*
X55407Y-43976D01*
X55196Y-43976D02*
X55070Y-43850D01*
X55407Y-43976D02*
X55196Y-43976D01*
X40571Y-29892D02*
X40661Y-29802D01*
X26007Y-29892D02*
X40571Y-29892D01*
X24700Y-31200D02*
X26007Y-29892D01*
X55407Y-46537D02*
X55407Y-46972D01*
X55457Y-46972D02*
X55592Y-47107D01*
X55407Y-46972D02*
X55457Y-46972D01*
X27504Y-40004D02*
X24700Y-37200D01*
X27504Y-43972D02*
X27504Y-40004D01*
X27942Y-44410D02*
X27504Y-43972D01*
X31910Y-44410D02*
X27942Y-44410D01*
X39500Y-52000D02*
X31910Y-44410D01*
X30300Y-52000D02*
X30300Y-52480D01*
X49600Y-53500D02*
X50100Y-53000D01*
X40679Y-53500D02*
X49600Y-53500D01*
X40406Y-53772D02*
X40679Y-53500D01*
X30383Y-53772D02*
X40406Y-53772D01*
X29800Y-53188D02*
X30383Y-53772D01*
X29800Y-52800D02*
X29800Y-53188D01*
X30119Y-52480D02*
X29800Y-52800D01*
X30300Y-52480D02*
X30119Y-52480D01*
X50100Y-53000D02*
X51100Y-53000D01*
X29625Y-45999D02*
X30875Y-45999D01*
X33183Y-45999D02*
X30875Y-45999D01*
X39000Y-51816D02*
X33183Y-45999D01*
X39000Y-52182D02*
X39000Y-51816D01*
X39297Y-52480D02*
X39000Y-52182D01*
X39708Y-52480D02*
X39297Y-52480D01*
X40019Y-52169D02*
X39708Y-52480D01*
X40019Y-52000D02*
X40019Y-52169D01*
X40500Y-52000D02*
X40019Y-52000D01*
X45600Y-53000D02*
X46600Y-53000D01*
X43266Y-40704D02*
X43266Y-41925D01*
X42752Y-46368D02*
X42922Y-46198D01*
X37562Y-46368D02*
X42752Y-46368D01*
X37562Y-45933D02*
X37562Y-46368D01*
X43227Y-46198D02*
X42922Y-46198D01*
X43227Y-42369D02*
X43266Y-42330D01*
X43227Y-44702D02*
X43227Y-42369D01*
X43266Y-41925D02*
X43266Y-42330D01*
X46477Y-42049D02*
X46477Y-40789D01*
X45891Y-42330D02*
X43266Y-42330D01*
X46172Y-42049D02*
X45891Y-42330D01*
X46477Y-42049D02*
X46172Y-42049D01*
X43227Y-44702D02*
X43227Y-46198D01*
X43227Y-46198D02*
X43532Y-46198D01*
X46324Y-46320D02*
X46172Y-46320D01*
X46324Y-45343D02*
X46477Y-45190D01*
X46324Y-46320D02*
X46324Y-45343D01*
X46477Y-44785D02*
X46477Y-45190D01*
X45889Y-46603D02*
X46172Y-46320D01*
X43746Y-46603D02*
X45889Y-46603D01*
X43532Y-46389D02*
X43746Y-46603D01*
X43532Y-46198D02*
X43532Y-46389D01*
X46477Y-46320D02*
X46467Y-46320D01*
X46467Y-46320D02*
X46324Y-46320D01*
X66947Y-47300D02*
X69100Y-47300D01*
X60911Y-53336D02*
X66947Y-47300D01*
X59376Y-53336D02*
X60911Y-53336D01*
X56296Y-50257D02*
X59376Y-53336D01*
X50404Y-50257D02*
X56296Y-50257D01*
X46467Y-46320D02*
X50404Y-50257D01*
X64250Y-36682D02*
X64250Y-38625D01*
X63125Y-39864D02*
X63125Y-43250D01*
X64059Y-38930D02*
X63125Y-39864D01*
X64250Y-38930D02*
X64059Y-38930D01*
X64250Y-38625D02*
X64250Y-38930D01*
X61867Y-43452D02*
X62069Y-43250D01*
X60150Y-43452D02*
X61867Y-43452D01*
X60150Y-43125D02*
X60150Y-43452D01*
X62375Y-43250D02*
X62069Y-43250D01*
X58171Y-37500D02*
X58171Y-37064D01*
X55671Y-37282D02*
X55671Y-37064D01*
X55671Y-36344D02*
X56031Y-36704D01*
X55671Y-35374D02*
X55671Y-36344D01*
X57811Y-36704D02*
X56031Y-36704D01*
X58171Y-37064D02*
X57811Y-36704D01*
X56031Y-36704D02*
X55671Y-37064D01*
X58843Y-37935D02*
X58171Y-37935D01*
X58919Y-37858D02*
X58843Y-37935D01*
X58919Y-36557D02*
X58919Y-37858D01*
X58171Y-35809D02*
X58919Y-36557D01*
X58171Y-35374D02*
X58171Y-35809D01*
X58171Y-37500D02*
X58171Y-37935D01*
X55671Y-37282D02*
X55671Y-37500D01*
X38062Y-43807D02*
X38062Y-44242D01*
X38753Y-44242D02*
X38062Y-44242D01*
X43551Y-39444D02*
X38753Y-44242D01*
X53868Y-39444D02*
X43551Y-39444D01*
X55671Y-37641D02*
X53868Y-39444D01*
X55671Y-37500D02*
X55671Y-37641D01*
X49002Y-32433D02*
X48697Y-32433D01*
X47049Y-35128D02*
X45124Y-35128D01*
X47299Y-34878D02*
X47049Y-35128D01*
X47299Y-34160D02*
X47299Y-34878D01*
X47394Y-34065D02*
X47299Y-34160D01*
X48051Y-34065D02*
X47394Y-34065D01*
X48051Y-34519D02*
X48051Y-34065D01*
X48697Y-33418D02*
X48697Y-32433D01*
X48051Y-34065D02*
X48697Y-33418D01*
X53134Y-32472D02*
X51640Y-32472D01*
X40662Y-32742D02*
X40509Y-32742D01*
X39005Y-32702D02*
X39777Y-33474D01*
X38380Y-32702D02*
X39005Y-32702D01*
X40509Y-32742D02*
X39777Y-33474D01*
X39777Y-33474D02*
X39777Y-34474D01*
X44718Y-35743D02*
X44718Y-35878D01*
X41717Y-32742D02*
X44718Y-35743D01*
X41412Y-32742D02*
X41717Y-32742D01*
X45124Y-35878D02*
X44718Y-35878D01*
X45150Y-36210D02*
X45124Y-36184D01*
X47551Y-36210D02*
X45150Y-36210D01*
X47551Y-36645D02*
X47551Y-36210D01*
X45124Y-35878D02*
X45124Y-36184D01*
X50890Y-34047D02*
X50738Y-34047D01*
X47551Y-34519D02*
X47551Y-34954D01*
X50930Y-35464D02*
X50625Y-35464D01*
X50890Y-33894D02*
X50738Y-34047D01*
X50890Y-32472D02*
X50890Y-33894D01*
X50738Y-34332D02*
X50115Y-34954D01*
X50738Y-34047D02*
X50738Y-34332D01*
X47551Y-34954D02*
X50115Y-34954D01*
X50115Y-34954D02*
X50625Y-35464D01*
X44016Y-41925D02*
X44016Y-40704D01*
X57671Y-37500D02*
X57671Y-37064D01*
X44016Y-40704D02*
X44321Y-40704D01*
X54907Y-46537D02*
X54907Y-46102D01*
X54923Y-46102D02*
X54907Y-46102D01*
X55056Y-45968D02*
X54923Y-46102D01*
X44647Y-40379D02*
X44321Y-40704D01*
X51490Y-40379D02*
X44647Y-40379D01*
X51962Y-39906D02*
X51490Y-40379D01*
X53895Y-39906D02*
X51962Y-39906D01*
X55922Y-37879D02*
X53895Y-39906D01*
X55922Y-37116D02*
X55922Y-37879D01*
X56154Y-36884D02*
X55922Y-37116D01*
X57491Y-36884D02*
X56154Y-36884D01*
X57671Y-37064D02*
X57491Y-36884D01*
X51490Y-40379D02*
X51490Y-40522D01*
X47227Y-42049D02*
X47227Y-40789D01*
X57671Y-35374D02*
X57671Y-34938D01*
X57670Y-34938D02*
X57544Y-34813D01*
X57671Y-34938D02*
X57670Y-34938D01*
X54752Y-44256D02*
X54907Y-44411D01*
X54752Y-43711D02*
X54752Y-44256D01*
X55410Y-43053D02*
X54752Y-43711D01*
X47227Y-40789D02*
X47532Y-40789D01*
X52460Y-40211D02*
X53854Y-40211D01*
X51844Y-40827D02*
X52460Y-40211D01*
X47571Y-40827D02*
X51844Y-40827D01*
X47532Y-40789D02*
X47571Y-40827D01*
X43977Y-44702D02*
X43977Y-46198D01*
X52407Y-44411D02*
X52407Y-43976D01*
X56171Y-34812D02*
X56130Y-34771D01*
X56171Y-35374D02*
X56171Y-34812D01*
X43977Y-44702D02*
X44282Y-44702D01*
X45332Y-43652D02*
X44282Y-44702D01*
X52250Y-43652D02*
X45332Y-43652D01*
X52250Y-43818D02*
X52407Y-43976D01*
X52250Y-43652D02*
X52250Y-43818D01*
X53287Y-40731D02*
X53339Y-40731D01*
X52250Y-41768D02*
X53287Y-40731D01*
X52250Y-43652D02*
X52250Y-41768D01*
X47227Y-46320D02*
X47532Y-46320D01*
X47227Y-44785D02*
X47227Y-45190D01*
X52407Y-46537D02*
X52407Y-46102D01*
X47227Y-45190D02*
X47945Y-45908D01*
X47945Y-45908D02*
X47532Y-46320D01*
X52407Y-45908D02*
X47945Y-45908D01*
X52655Y-45660D02*
X52407Y-45908D01*
X52655Y-43499D02*
X52655Y-45660D01*
X52430Y-43273D02*
X52655Y-43499D01*
X52430Y-41862D02*
X52430Y-43273D01*
X53166Y-41126D02*
X52430Y-41862D01*
X53383Y-41126D02*
X53166Y-41126D01*
X56171Y-38338D02*
X53383Y-41126D01*
X56171Y-37500D02*
X56171Y-38338D01*
X52407Y-45908D02*
X52407Y-46102D01*
X52055Y-26625D02*
X51930Y-26500D01*
X53750Y-26625D02*
X52055Y-26625D01*
X51625Y-26500D02*
X51930Y-26500D01*
X54638Y-26625D02*
X53750Y-26625D01*
X55513Y-27500D02*
X54638Y-26625D01*
X55948Y-27500D02*
X55513Y-27500D01*
M02*
