M48
; DRILL file {KiCad 5.1.7-a382d34a8~87~ubuntu18.04.1} date Tue Oct 25 18:28:52 2022
; FORMAT={-:-/ absolute / inch / decimal}
; #@! TF.CreationDate,2022-10-25T18:28:52-07:00
; #@! TF.GenerationSoftware,Kicad,Pcbnew,5.1.7-a382d34a8~87~ubuntu18.04.1
; #@! TF.FileFunction,Plated,1,2,PTH
FMAT,2
INCH
T1C0.0250
T2C0.0400
T3C0.1160
%
G90
G05
T1
X2.6029Y-4.4125
X2.8629Y-4.1358
X2.8888Y-2.663
X2.9484Y-4.1343
X3.0103Y-3.0717
X3.0224Y-2.5309
X3.3323Y-3.0712
X3.424Y-3.164
X3.6316Y-5.0723
X3.8289Y-2.7508
X3.8796Y-4.4433
X3.9238Y-3.9898
X3.9345Y-3.7538
X4.1078Y-2.605
X4.1298Y-4.2661
X4.2632Y-4.0225
X4.2697Y-3.2324
X4.2899Y-3.9867
X4.2931Y-4.0535
X4.4404Y-3.8003
X4.4999Y-4.2022
X4.502Y-3.8787
X4.8975Y-4.565
X4.907Y-4.1591
X4.9399Y-4.64
X4.9624Y-4.3734
X4.9707Y-4.0797
X5.0877Y-4.7911
X5.0886Y-4.5403
X5.1552Y-4.565
X5.167Y-2.67
X5.3229Y-4.9532
X5.3293Y-2.8766
X5.3326Y-3.2526
X5.3928Y-3.724
X5.4974Y-2.6529
X5.5175Y-2.8001
X5.6495Y-3.4784
X5.6803Y-4.4763
X5.7283Y-4.8582
X5.7362Y-3.0597
X5.7553Y-4.5138
X5.7618Y-4.1437
X5.8125Y-3.1872
X5.8691Y-2.8265
X5.8779Y-3.0375
X5.9009Y-2.5795
X5.9517Y-2.9154
X5.9609Y-4.6038
X5.9683Y-4.5308
X6.0624Y-3.9966
X6.1018Y-4.0431
X6.1103Y-4.6352
X6.1108Y-4.7125
X6.2338Y-2.9714
X6.286Y-3.5301
X6.4101Y-3.4542
X6.4226Y-2.6647
X6.4262Y-3.265
X6.4286Y-3.9699
X6.4287Y-3.6825
X6.4382Y-4.3425
X6.4386Y-4.2945
X6.6055Y-4.2537
X6.6331Y-4.1461
X6.6335Y-4.055
X6.7638Y-2.7715
T2
X5.54Y-5.29
X5.54Y-5.39
X5.98Y-5.29
X5.98Y-5.39
X5.1Y-2.1
X5.1Y-2.2
X4.78Y-2.1
X4.78Y-2.2
X5.74Y-2.11
X5.74Y-2.21
X4.46Y-2.1
X4.46Y-2.2
X2.1Y-4.03
X2.2Y-4.03
X6.91Y-4.53
X6.91Y-4.63
X6.91Y-4.73
X2.1Y-2.7
X2.2Y-2.7
X2.63Y-5.2
X2.63Y-5.3
X2.73Y-5.2
X2.73Y-5.3
X2.83Y-5.2
X2.83Y-5.3
X2.93Y-5.2
X2.93Y-5.3
X3.03Y-5.2
X3.03Y-5.3
X6.06Y-2.1
X6.06Y-2.2
X3.5Y-2.1
X3.5Y-2.2
X6.38Y-2.1
X6.38Y-2.2
X2.52Y-2.13
X2.62Y-2.13
X2.82Y-2.13
X2.92Y-2.13
X3.02Y-2.13
X5.01Y-5.3
X5.01Y-5.4
X5.11Y-5.3
X5.11Y-5.4
X7.45Y-3.65
X7.45Y-3.75
X4.56Y-5.3
X4.56Y-5.4
X4.66Y-5.3
X4.66Y-5.4
X7.45Y-3.2
X7.45Y-3.3
X7.45Y-2.75
X7.45Y-2.85
X4.14Y-2.1
X4.14Y-2.2
X3.82Y-2.1
X3.82Y-2.2
X5.42Y-2.1
X5.42Y-2.2
X2.0685Y-3.1173
X2.0685Y-3.7173
X2.1685Y-3.1173
X2.1685Y-3.7173
X2.2685Y-3.1173
X2.2685Y-3.7173
X2.3685Y-3.1173
X2.3685Y-3.7173
X2.4685Y-3.1173
X2.4685Y-3.7173
X2.5685Y-3.1173
X2.5685Y-3.7173
X2.6685Y-3.1173
X2.6685Y-3.7173
X2.7685Y-3.1173
X2.7685Y-3.7173
X2.8685Y-3.1173
X2.8685Y-3.7173
X2.9685Y-3.1173
X2.9685Y-3.7173
X3.0685Y-3.1173
X3.0685Y-3.7173
X3.1685Y-3.1173
X3.1685Y-3.7173
X3.2685Y-3.1173
X3.2685Y-3.7173
X3.3685Y-3.1173
X3.3685Y-3.2173
X3.3685Y-3.3173
X3.3685Y-3.4173
X3.3685Y-3.5173
X3.3685Y-3.6173
X3.3685Y-3.7173
X3.65Y-5.2
X3.65Y-5.3
X3.75Y-5.2
X3.75Y-5.3
X3.85Y-5.2
X3.85Y-5.3
X3.95Y-5.2
X3.95Y-5.3
X4.05Y-5.2
X4.05Y-5.3
X6.42Y-5.29
X6.42Y-5.39
T3
X6.85Y-5.35
X6.85Y-2.15
X2.15Y-5.35
X2.15Y-2.15
T0
M30
