999
dxfrw 0.5.10
0
SECTION
2
HEADER
9
$ACADVER
1
AC1021
9
$HANDSEED
5
20000
9
$DWGCODEPAGE
3
ANSI_1252
9
$INSBASE
10
0
20
0
30
0
9
$EXTMIN
10
0.38188
20
0.48188
30
0
9
$EXTMAX
10
18.5551
20
7.85511
30
0
9
$LIMMIN
10
0
20
0
9
$LIMMAX
10
420
20
297
9
$ORTHOMODE
70
0
9
$LTSCALE
40
1
9
$TEXTSTYLE
7
STANDARD
9
$CLAYER
8
0
9
$DIMASZ
40
0.1
9
$DIMLFAC
40
1
9
$DIMSCALE
40
1
9
$DIMEXO
40
0.025
9
$DIMEXE
40
0.05
9
$DIMTXT
40
0.1
9
$DIMTSZ
40
0
9
$DIMAUNIT
70
0
9
$DIMADEC
70
2
9
$DIMLUNIT
70
2
9
$DIMSTYLE
2
Standard
9
$DIMGAP
40
0.025
9
$DIMTIH
70
0
9
$LUNITS
70
2
9
$LUPREC
70
4
9
$AUNITS
70
0
9
$AUPREC
70
2
9
$SPLINESEGS
70
8
9
$GRIDMODE
70
1
9
$SNAPSTYLE
70
0
9
$GRIDUNIT
10
0
20
0
9
$PINSBASE
10
0
20
0
30
0
9
$PLIMMIN
10
0
20
0
9
$PLIMMAX
10
4.7721774e-11
20
6.7492118e-11
9
$INSUNITS
70
1
9
$PSVPSCALE
40
1
0
ENDSEC
0
SECTION
2
CLASSES
0
ENDSEC
0
SECTION
2
TABLES
0
TABLE
2
VPORT
5
8
330
0
100
AcDbSymbolTable
70
1
0
VPORT
5
31
330
2
100
AcDbSymbolTableRecord
100
AcDbViewportTableRecord
2
*ACTIVE
70
0
10
0
20
0
11
1
21
1
12
12.390980649
22
5.00363689985
13
0
23
0
14
10
24
10
15
10
25
10
16
0
26
0
36
1
17
0
27
0
37
0
40
16.8362718004
41
1.7806122449
42
50
43
0
44
0
50
0
51
0
71
0
72
100
73
1
74
3
75
0
76
1
77
0
78
0
281
0
65
1
110
0
120
0
130
0
111
1
121
0
131
0
112
0
122
1
132
0
79
0
146
0
348
10020
60
7
61
5
292
1
282
1
141
0
142
0
63
250
421
3358443
0
ENDTAB
0
TABLE
2
LTYPE
5
5
330
0
100
AcDbSymbolTable
70
4
0
LTYPE
5
14
330
5
100
AcDbSymbolTableRecord
100
AcDbLinetypeTableRecord
2
ByBlock
70
0
3

72
65
73
0
40
0
0
LTYPE
5
15
330
5
100
AcDbSymbolTableRecord
100
AcDbLinetypeTableRecord
2
ByLayer
70
0
3

72
65
73
0
40
0
0
LTYPE
5
16
330
5
100
AcDbSymbolTableRecord
100
AcDbLinetypeTableRecord
2
Continuous
70
0
3
Solid line
72
65
73
0
40
0
0
LTYPE
5
32
330
5
100
AcDbSymbolTableRecord
100
AcDbLinetypeTableRecord
2
DOT
70
0
3
Dot . . . . . . . . . . . . . . . . . . . . . .
72
65
73
2
40
6.35
49
0
74
0
49
-6.35
74
0
0
LTYPE
5
33
330
5
100
AcDbSymbolTableRecord
100
AcDbLinetypeTableRecord
2
DOT2
70
0
3
Dot (.5x) .....................................
72
65
73
2
40
3.175
49
0
74
0
49
-3.175
74
0
0
LTYPE
5
34
330
5
100
AcDbSymbolTableRecord
100
AcDbLinetypeTableRecord
2
DOTX2
70
0
3
Dot (2x) .  .  .  .  .  .  .  .  .  .  .  .  .
72
65
73
2
40
12.7
49
0
74
0
49
-12.7
74
0
0
LTYPE
5
35
330
5
100
AcDbSymbolTableRecord
100
AcDbLinetypeTableRecord
2
DASHED
70
0
3
Dot . . . . . . . . . . . . . . . . . . . . . .
72
65
73
2
40
19.05
49
12.7
74
0
49
-6.35
74
0
0
LTYPE
5
36
330
5
100
AcDbSymbolTableRecord
100
AcDbLinetypeTableRecord
2
DASHED2
70
0
3
Dashed (.5x) _ _ _ _ _ _ _ _ _ _ _ _ _ _ _ _ _
72
65
73
2
40
9.525
49
6.35
74
0
49
-3.175
74
0
0
LTYPE
5
37
330
5
100
AcDbSymbolTableRecord
100
AcDbLinetypeTableRecord
2
DASHEDX2
70
0
3
Dashed (2x) ____  ____  ____  ____  ____  ___
72
65
73
2
40
38.1
49
25.4
74
0
49
-12.7
74
0
0
LTYPE
5
38
330
5
100
AcDbSymbolTableRecord
100
AcDbLinetypeTableRecord
2
DASHDOT
70
0
3
Dash dot __ . __ . __ . __ . __ . __ . __ . __
72
65
73
4
40
25.4
49
12.7
74
0
49
-6.35
74
0
49
0
74
0
49
-6.35
74
0
0
LTYPE
5
39
330
5
100
AcDbSymbolTableRecord
100
AcDbLinetypeTableRecord
2
DASHDOT2
70
0
3
Dash dot (.5x) _._._._._._._._._._._._._._._.
72
65
73
4
40
12.7
49
6.35
74
0
49
-3.175
74
0
49
0
74
0
49
-3.175
74
0
0
LTYPE
5
3A
330
5
100
AcDbSymbolTableRecord
100
AcDbLinetypeTableRecord
2
DASHDOTX2
70
0
3
Dash dot (2x) ____  .  ____  .  ____  .  ___
72
65
73
4
40
50.8
49
25.4
74
0
49
-12.7
74
0
49
0
74
0
49
-12.7
74
0
0
LTYPE
5
3B
330
5
100
AcDbSymbolTableRecord
100
AcDbLinetypeTableRecord
2
DIVIDE
70
0
3
Divide ____ . . ____ . . ____ . . ____ . . ____
72
65
73
6
40
31.75
49
12.7
74
0
49
-6.35
74
0
49
0
74
0
49
-6.35
74
0
49
0
74
0
49
-6.35
74
0
0
LTYPE
5
3C
330
5
100
AcDbSymbolTableRecord
100
AcDbLinetypeTableRecord
2
DIVIDE2
70
0
3
Divide (.5x) __..__..__..__..__..__..__..__.._
72
65
73
6
40
15.875
49
6.35
74
0
49
-3.175
74
0
49
0
74
0
49
-3.175
74
0
49
0
74
0
49
-3.175
74
0
0
LTYPE
5
3D
330
5
100
AcDbSymbolTableRecord
100
AcDbLinetypeTableRecord
2
DIVIDEX2
70
0
3
Divide (2x) ________  .  .  ________  .  .  _
72
65
73
6
40
63.5
49
25.4
74
0
49
-12.7
74
0
49
0
74
0
49
-12.7
74
0
49
0
74
0
49
-12.7
74
0
0
LTYPE
5
3E
330
5
100
AcDbSymbolTableRecord
100
AcDbLinetypeTableRecord
2
BORDER
70
0
3
Border __ __ . __ __ . __ __ . __ __ . __ __ .
72
65
73
6
40
44.45
49
12.7
74
0
49
-6.35
74
0
49
12.7
74
0
49
-6.35
74
0
49
0
74
0
49
-6.35
74
0
0
LTYPE
5
3F
330
5
100
AcDbSymbolTableRecord
100
AcDbLinetypeTableRecord
2
BORDER2
70
0
3
Border (.5x) __.__.__.__.__.__.__.__.__.__.__.
72
65
73
6
40
22.225
49
6.35
74
0
49
-3.175
74
0
49
6.35
74
0
49
-3.175
74
0
49
0
74
0
49
-3.175
74
0
0
LTYPE
5
40
330
5
100
AcDbSymbolTableRecord
100
AcDbLinetypeTableRecord
2
BORDERX2
70
0
3
Border (2x) ____  ____  .  ____  ____  .  ___
72
65
73
6
40
88.9
49
25.4
74
0
49
-12.7
74
0
49
25.4
74
0
49
-12.7
74
0
49
0
74
0
49
-12.7
74
0
0
LTYPE
5
41
330
5
100
AcDbSymbolTableRecord
100
AcDbLinetypeTableRecord
2
CENTER
70
0
3
Center ____ _ ____ _ ____ _ ____ _ ____ _ ____
72
65
73
4
40
50.8
49
31.75
74
0
49
-6.35
74
0
49
6.35
74
0
49
-6.35
74
0
0
LTYPE
5
42
330
5
100
AcDbSymbolTableRecord
100
AcDbLinetypeTableRecord
2
CENTER2
70
0
3
Center (.5x) ___ _ ___ _ ___ _ ___ _ ___ _ ___
72
65
73
4
40
28.575
49
19.05
74
0
49
-3.175
74
0
49
3.175
74
0
49
-3.175
74
0
0
LTYPE
5
43
330
5
100
AcDbSymbolTableRecord
100
AcDbLinetypeTableRecord
2
CENTERX2
70
0
3
Center (2x) ________  __  ________  __  _____
72
65
73
4
40
101.6
49
63.5
74
0
49
-12.7
74
0
49
12.7
74
0
49
-12.7
74
0
0
ENDTAB
0
TABLE
2
LAYER
5
2
330
0
100
AcDbSymbolTable
70
1
0
LAYER
5
10
330
2
100
AcDbSymbolTableRecord
100
AcDbLayerTableRecord
2
0
70
0
62
7
6
CONTINUOUS
370
0
390
F
0
LAYER
5
44
330
2
100
AcDbSymbolTableRecord
100
AcDbLayerTableRecord
2
vector
70
0
62
3
6
CONTINUOUS
370
0
390
F
0
ENDTAB
0
TABLE
2
STYLE
5
3
330
0
100
AcDbSymbolTable
70
3
0
STYLE
5
45
330
2
100
AcDbSymbolTableRecord
100
AcDbTextStyleTableRecord
2
Standard
70
0
40
0
41
1
50
0
71
0
42
1
3
txt
4

0
ENDTAB
0
TABLE
2
VIEW
5
6
330
0
100
AcDbSymbolTable
70
0
0
ENDTAB
0
TABLE
2
UCS
5
7
330
0
100
AcDbSymbolTable
70
0
0
ENDTAB
0
TABLE
2
APPID
5
9
330
0
100
AcDbSymbolTable
70
1
0
APPID
5
12
330
9
100
AcDbSymbolTableRecord
100
AcDbRegAppTableRecord
2
ACAD
70
0
0
ENDTAB
0
TABLE
2
DIMSTYLE
5
A
330
0
100
AcDbSymbolTable
70
1
100
AcDbDimStyleTable
71
1
0
DIMSTYLE
105
46
330
A
100
AcDbSymbolTableRecord
100
AcDbDimStyleTableRecord
2
Standard
70
0
40
1
41
0.1
42
0.025
43
0.38
44
0.05
45
0
46
0
47
0
48
0
140
0.1
141
0.09
142
0
143
25.4
144
1
145
0
146
1
147
0.025
148
0
71
0
72
0
73
0
74
1
75
0
76
0
77
0
78
0
79
0
170
0
171
2
172
0
173
0
174
0
175
0
176
0
177
0
178
0
179
0
271
4
272
4
273
2
274
2
275
0
276
0
277
2
278
46
279
0
280
0
281
0
282
0
283
1
284
0
285
0
286
0
288
0
289
3
340
Standard
341

371
-2
372
-2
0
ENDTAB
0
TABLE
2
BLOCK_RECORD
5
1
330
0
100
AcDbSymbolTable
70
2
0
BLOCK_RECORD
5
1F
330
1
100
AcDbSymbolTableRecord
100
AcDbBlockTableRecord
2
*Model_Space
70
0
280
1
281
0
0
BLOCK_RECORD
5
1E
330
1
100
AcDbSymbolTableRecord
100
AcDbBlockTableRecord
2
*Paper_Space
70
0
280
1
281
0
0
ENDTAB
0
ENDSEC
0
SECTION
2
BLOCKS
0
BLOCK
5
20
330
1F
100
AcDbEntity
8
0
100
AcDbBlockBegin
2
*Model_Space
70
0
10
0
20
0
30
0
3
*Model_Space
1

0
ENDBLK
5
21
330
1F
100
AcDbEntity
8
0
100
AcDbBlockEnd
0
BLOCK
5
1C
330
1B
100
AcDbEntity
8
0
100
AcDbBlockBegin
2
*Paper_Space
70
0
10
0
20
0
30
0
3
*Paper_Space
1

0
ENDBLK
5
1D
330
1F
100
AcDbEntity
8
0
100
AcDbBlockEnd
0
ENDSEC
0
SECTION
2
ENTITIES
0
LINE
5
47
100
AcDbEntity
8
vector
6
ByLayer
62
3
370
-1
100
AcDbLine
10
4.96811
20
2.8931
11
4.84999
21
2.8931
0
LINE
5
48
100
AcDbEntity
8
vector
6
ByLayer
62
3
370
-1
100
AcDbLine
10
4.84999
20
2.8931
11
4.84999
21
3.6431
0
LINE
5
49
100
AcDbEntity
8
vector
6
ByLayer
62
3
370
-1
100
AcDbLine
10
4.84999
20
3.6431
11
4.96811
21
3.6431
0
LINE
5
4A
100
AcDbEntity
8
vector
6
ByLayer
62
3
370
-1
100
AcDbLine
10
4.96811
20
3.6431
11
4.96811
21
2.8931
0
LINE
5
4B
100
AcDbEntity
8
vector
6
ByLayer
62
3
370
-1
100
AcDbLine
10
4.96811
20
1.3631
11
4.84999
21
1.3631
0
LINE
5
4C
100
AcDbEntity
8
vector
6
ByLayer
62
3
370
-1
100
AcDbLine
10
4.84999
20
1.3631
11
4.84999
21
2.1131
0
LINE
5
4D
100
AcDbEntity
8
vector
6
ByLayer
62
3
370
-1
100
AcDbLine
10
4.84999
20
2.1131
11
4.96811
21
2.1131
0
LINE
5
4E
100
AcDbEntity
8
vector
6
ByLayer
62
3
370
-1
100
AcDbLine
10
4.96811
20
2.1131
11
4.96811
21
1.3631
0
LINE
5
4F
100
AcDbEntity
8
vector
6
ByLayer
62
3
370
-1
100
AcDbLine
10
4.96811
20
4.4231
11
4.84999
21
4.4231
0
LINE
5
50
100
AcDbEntity
8
vector
6
ByLayer
62
3
370
-1
100
AcDbLine
10
4.84999
20
4.4231
11
4.84999
21
5.1731
0
LINE
5
51
100
AcDbEntity
8
vector
6
ByLayer
62
3
370
-1
100
AcDbLine
10
4.84999
20
5.1731
11
4.96811
21
5.1731
0
LINE
5
52
100
AcDbEntity
8
vector
6
ByLayer
62
3
370
-1
100
AcDbLine
10
4.96811
20
5.1731
11
4.96811
21
4.4231
0
LINE
5
53
100
AcDbEntity
8
vector
6
ByLayer
62
3
370
-1
100
AcDbLine
10
6.18405
20
0.59999
11
5.43405
21
0.59999
0
LINE
5
54
100
AcDbEntity
8
vector
6
ByLayer
62
3
370
-1
100
AcDbLine
10
5.43405
20
0.59999
11
5.43405
21
0.7181
0
LINE
5
55
100
AcDbEntity
8
vector
6
ByLayer
62
3
370
-1
100
AcDbLine
10
5.43405
20
0.7181
11
6.18405
21
0.7181
0
LINE
5
56
100
AcDbEntity
8
vector
6
ByLayer
62
3
370
-1
100
AcDbLine
10
6.18405
20
0.7181
11
6.18405
21
0.59999
0
LINE
5
57
100
AcDbEntity
8
vector
6
ByLayer
62
3
370
-1
100
AcDbLine
10
6.18405
20
5.8181
11
5.43405
21
5.8181
0
LINE
5
58
100
AcDbEntity
8
vector
6
ByLayer
62
3
370
-1
100
AcDbLine
10
5.43405
20
5.8181
11
5.43405
21
5.93621
0
LINE
5
59
100
AcDbEntity
8
vector
6
ByLayer
62
3
370
-1
100
AcDbLine
10
5.43405
20
5.93621
11
6.18405
21
5.93621
0
LINE
5
5A
100
AcDbEntity
8
vector
6
ByLayer
62
3
370
-1
100
AcDbLine
10
6.18405
20
5.93621
11
6.18405
21
5.8181
0
LINE
5
5B
100
AcDbEntity
8
vector
6
ByLayer
62
3
370
-1
100
AcDbLine
10
8.10217
20
5.8181
11
7.35217
21
5.8181
0
LINE
5
5C
100
AcDbEntity
8
vector
6
ByLayer
62
3
370
-1
100
AcDbLine
10
7.35217
20
5.8181
11
7.35217
21
5.93621
0
LINE
5
5D
100
AcDbEntity
8
vector
6
ByLayer
62
3
370
-1
100
AcDbLine
10
7.35217
20
5.93621
11
8.10217
21
5.93621
0
LINE
5
5E
100
AcDbEntity
8
vector
6
ByLayer
62
3
370
-1
100
AcDbLine
10
8.10217
20
5.93621
11
8.10217
21
5.8181
0
LINE
5
5F
100
AcDbEntity
8
vector
6
ByLayer
62
3
370
-1
100
AcDbLine
10
8.10217
20
0.59999
11
7.35217
21
0.59999
0
LINE
5
60
100
AcDbEntity
8
vector
6
ByLayer
62
3
370
-1
100
AcDbLine
10
7.35217
20
0.59999
11
7.35217
21
0.7181
0
LINE
5
61
100
AcDbEntity
8
vector
6
ByLayer
62
3
370
-1
100
AcDbLine
10
7.35217
20
0.7181
11
8.10217
21
0.7181
0
LINE
5
62
100
AcDbEntity
8
vector
6
ByLayer
62
3
370
-1
100
AcDbLine
10
8.10217
20
0.7181
11
8.10217
21
0.59999
0
LINE
5
63
100
AcDbEntity
8
vector
6
ByLayer
62
3
370
-1
100
AcDbLine
10
8.68623
20
1.3631
11
8.56812
21
1.3631
0
LINE
5
64
100
AcDbEntity
8
vector
6
ByLayer
62
3
370
-1
100
AcDbLine
10
8.56812
20
1.3631
11
8.56812
21
2.1131
0
LINE
5
65
100
AcDbEntity
8
vector
6
ByLayer
62
3
370
-1
100
AcDbLine
10
8.56812
20
2.1131
11
8.68623
21
2.1131
0
LINE
5
66
100
AcDbEntity
8
vector
6
ByLayer
62
3
370
-1
100
AcDbLine
10
8.68623
20
2.1131
11
8.68623
21
1.3631
0
LINE
5
67
100
AcDbEntity
8
vector
6
ByLayer
62
3
370
-1
100
AcDbLine
10
8.68623
20
4.4231
11
8.56812
21
4.4231
0
LINE
5
68
100
AcDbEntity
8
vector
6
ByLayer
62
3
370
-1
100
AcDbLine
10
8.56812
20
4.4231
11
8.56812
21
5.1731
0
LINE
5
69
100
AcDbEntity
8
vector
6
ByLayer
62
3
370
-1
100
AcDbLine
10
8.56812
20
5.1731
11
8.68623
21
5.1731
0
LINE
5
6A
100
AcDbEntity
8
vector
6
ByLayer
62
3
370
-1
100
AcDbLine
10
8.68623
20
5.1731
11
8.68623
21
4.4231
0
LINE
5
6B
100
AcDbEntity
8
vector
6
ByLayer
62
3
370
-1
100
AcDbLine
10
8.68623
20
2.8931
11
8.56812
21
2.8931
0
LINE
5
6C
100
AcDbEntity
8
vector
6
ByLayer
62
3
370
-1
100
AcDbLine
10
8.56812
20
2.8931
11
8.56812
21
3.6431
0
LINE
5
6D
100
AcDbEntity
8
vector
6
ByLayer
62
3
370
-1
100
AcDbLine
10
8.56812
20
3.6431
11
8.68623
21
3.6431
0
LINE
5
6E
100
AcDbEntity
8
vector
6
ByLayer
62
3
370
-1
100
AcDbLine
10
8.68623
20
3.6431
11
8.68623
21
2.8931
0
ARC
5
6F
100
AcDbEntity
8
vector
6
ByLayer
62
3
370
-1
100
AcDbCircle
10
4.9
20
0.65
40
0.15
100
AcDbArc
50
180
51
270
0
LINE
5
70
100
AcDbEntity
8
vector
6
ByLayer
62
3
370
-1
100
AcDbLine
10
4.75
20
5.8862
11
4.75
21
0.65
0
ARC
5
71
100
AcDbEntity
8
vector
6
ByLayer
62
3
370
-1
100
AcDbCircle
10
4.9
20
5.8862
40
0.15
100
AcDbArc
50
90
51
180
0
LINE
5
72
100
AcDbEntity
8
vector
6
ByLayer
62
3
370
-1
100
AcDbLine
10
4.9
20
0.5
11
8.63603
21
0.5
0
ARC
5
73
100
AcDbEntity
8
vector
6
ByLayer
62
3
370
-1
100
AcDbCircle
10
8.63603
20
0.65
40
0.15
100
AcDbArc
50
270
51
360
0
LINE
5
74
100
AcDbEntity
8
vector
6
ByLayer
62
3
370
-1
100
AcDbLine
10
8.78603
20
0.65
11
8.78603
21
5.8862
0
LINE
5
75
100
AcDbEntity
8
vector
6
ByLayer
62
3
370
-1
100
AcDbLine
10
8.63603
20
6.0362
11
4.9
21
6.0362
0
ARC
5
76
100
AcDbEntity
8
vector
6
ByLayer
62
3
370
-1
100
AcDbCircle
10
8.63603
20
5.8862
40
0.15
100
AcDbArc
50
360
51
90
0
CIRCLE
5
77
100
AcDbEntity
8
vector
6
ByLayer
62
256
370
-1
100
AcDbCircle
10
5.167915
20
0.9181
40
0.058
0
CIRCLE
5
78
100
AcDbEntity
8
vector
6
ByLayer
62
256
370
-1
100
AcDbCircle
10
5.167915
20
5.6181
40
0.058
0
CIRCLE
5
79
100
AcDbEntity
8
vector
6
ByLayer
62
256
370
-1
100
AcDbCircle
10
8.367915
20
0.9181
40
0.058
0
CIRCLE
5
7A
100
AcDbEntity
8
vector
6
ByLayer
62
256
370
-1
100
AcDbCircle
10
8.367915
20
5.6181
40
0.058
0
LINE
5
7B
100
AcDbEntity
8
vector
6
ByLayer
62
3
370
-1
100
AcDbLine
10
0.7321
20
4.4231
11
0.61399
21
4.4231
0
LINE
5
7C
100
AcDbEntity
8
vector
6
ByLayer
62
3
370
-1
100
AcDbLine
10
0.61399
20
4.4231
11
0.61399
21
5.1731
0
LINE
5
7D
100
AcDbEntity
8
vector
6
ByLayer
62
3
370
-1
100
AcDbLine
10
0.61399
20
5.1731
11
0.7321
21
5.1731
0
LINE
5
7E
100
AcDbEntity
8
vector
6
ByLayer
62
3
370
-1
100
AcDbLine
10
0.7321
20
5.1731
11
0.7321
21
4.4231
0
LINE
5
7F
100
AcDbEntity
8
vector
6
ByLayer
62
3
370
-1
100
AcDbLine
10
0.7321
20
2.8931
11
0.61399
21
2.8931
0
LINE
5
80
100
AcDbEntity
8
vector
6
ByLayer
62
3
370
-1
100
AcDbLine
10
0.61399
20
2.8931
11
0.61399
21
3.6431
0
LINE
5
81
100
AcDbEntity
8
vector
6
ByLayer
62
3
370
-1
100
AcDbLine
10
0.61399
20
3.6431
11
0.7321
21
3.6431
0
LINE
5
82
100
AcDbEntity
8
vector
6
ByLayer
62
3
370
-1
100
AcDbLine
10
0.7321
20
3.6431
11
0.7321
21
2.8931
0
LINE
5
83
100
AcDbEntity
8
vector
6
ByLayer
62
3
370
-1
100
AcDbLine
10
0.7321
20
1.3631
11
0.61399
21
1.3631
0
LINE
5
84
100
AcDbEntity
8
vector
6
ByLayer
62
3
370
-1
100
AcDbLine
10
0.61399
20
1.3631
11
0.61399
21
2.1131
0
LINE
5
85
100
AcDbEntity
8
vector
6
ByLayer
62
3
370
-1
100
AcDbLine
10
0.61399
20
2.1131
11
0.7321
21
2.1131
0
LINE
5
86
100
AcDbEntity
8
vector
6
ByLayer
62
3
370
-1
100
AcDbLine
10
0.7321
20
2.1131
11
0.7321
21
1.3631
0
LINE
5
87
100
AcDbEntity
8
vector
6
ByLayer
62
3
370
-1
100
AcDbLine
10
1.948055
20
5.8181
11
1.19805
21
5.8181
0
LINE
5
88
100
AcDbEntity
8
vector
6
ByLayer
62
3
370
-1
100
AcDbLine
10
1.19805
20
5.8181
11
1.19805
21
5.93621
0
LINE
5
89
100
AcDbEntity
8
vector
6
ByLayer
62
3
370
-1
100
AcDbLine
10
1.19805
20
5.93621
11
1.948055
21
5.93621
0
LINE
5
8A
100
AcDbEntity
8
vector
6
ByLayer
62
3
370
-1
100
AcDbLine
10
1.948055
20
5.93621
11
1.948055
21
5.8181
0
LINE
5
8B
100
AcDbEntity
8
vector
6
ByLayer
62
3
370
-1
100
AcDbLine
10
1.948055
20
0.59999
11
1.19805
21
0.59999
0
LINE
5
8C
100
AcDbEntity
8
vector
6
ByLayer
62
3
370
-1
100
AcDbLine
10
1.19805
20
0.59999
11
1.19805
21
0.7181
0
LINE
5
8D
100
AcDbEntity
8
vector
6
ByLayer
62
3
370
-1
100
AcDbLine
10
1.19805
20
0.7181
11
1.948055
21
0.7181
0
LINE
5
8E
100
AcDbEntity
8
vector
6
ByLayer
62
3
370
-1
100
AcDbLine
10
1.948055
20
0.7181
11
1.948055
21
0.59999
0
LINE
5
8F
100
AcDbEntity
8
vector
6
ByLayer
62
3
370
-1
100
AcDbLine
10
3.86615
20
5.8181
11
3.116145
21
5.8181
0
LINE
5
90
100
AcDbEntity
8
vector
6
ByLayer
62
3
370
-1
100
AcDbLine
10
3.116145
20
5.8181
11
3.116145
21
5.93621
0
LINE
5
91
100
AcDbEntity
8
vector
6
ByLayer
62
3
370
-1
100
AcDbLine
10
3.116145
20
5.93621
11
3.86615
21
5.93621
0
LINE
5
92
100
AcDbEntity
8
vector
6
ByLayer
62
3
370
-1
100
AcDbLine
10
3.86615
20
5.93621
11
3.86615
21
5.8181
0
LINE
5
93
100
AcDbEntity
8
vector
6
ByLayer
62
3
370
-1
100
AcDbLine
10
3.86615
20
0.59999
11
3.116145
21
0.59999
0
LINE
5
94
100
AcDbEntity
8
vector
6
ByLayer
62
3
370
-1
100
AcDbLine
10
3.116145
20
0.59999
11
3.116145
21
0.7181
0
LINE
5
95
100
AcDbEntity
8
vector
6
ByLayer
62
3
370
-1
100
AcDbLine
10
3.116145
20
0.7181
11
3.86615
21
0.7181
0
LINE
5
96
100
AcDbEntity
8
vector
6
ByLayer
62
3
370
-1
100
AcDbLine
10
3.86615
20
0.7181
11
3.86615
21
0.59999
0
LINE
5
97
100
AcDbEntity
8
vector
6
ByLayer
62
3
370
-1
100
AcDbLine
10
4.45021
20
4.4231
11
4.3321
21
4.4231
0
LINE
5
98
100
AcDbEntity
8
vector
6
ByLayer
62
3
370
-1
100
AcDbLine
10
4.3321
20
4.4231
11
4.3321
21
5.1731
0
LINE
5
99
100
AcDbEntity
8
vector
6
ByLayer
62
3
370
-1
100
AcDbLine
10
4.3321
20
5.1731
11
4.45021
21
5.1731
0
LINE
5
9A
100
AcDbEntity
8
vector
6
ByLayer
62
3
370
-1
100
AcDbLine
10
4.45021
20
5.1731
11
4.45021
21
4.4231
0
LINE
5
9B
100
AcDbEntity
8
vector
6
ByLayer
62
3
370
-1
100
AcDbLine
10
4.45021
20
1.3631
11
4.3321
21
1.3631
0
LINE
5
9C
100
AcDbEntity
8
vector
6
ByLayer
62
3
370
-1
100
AcDbLine
10
4.3321
20
1.3631
11
4.3321
21
2.1131
0
LINE
5
9D
100
AcDbEntity
8
vector
6
ByLayer
62
3
370
-1
100
AcDbLine
10
4.3321
20
2.1131
11
4.45021
21
2.1131
0
LINE
5
9E
100
AcDbEntity
8
vector
6
ByLayer
62
3
370
-1
100
AcDbLine
10
4.45021
20
2.1131
11
4.45021
21
1.3631
0
LINE
5
9F
100
AcDbEntity
8
vector
6
ByLayer
62
3
370
-1
100
AcDbLine
10
4.45021
20
2.8931
11
4.3321
21
2.8931
0
LINE
5
A0
100
AcDbEntity
8
vector
6
ByLayer
62
3
370
-1
100
AcDbLine
10
4.3321
20
2.8931
11
4.3321
21
3.6431
0
LINE
5
A1
100
AcDbEntity
8
vector
6
ByLayer
62
3
370
-1
100
AcDbLine
10
4.3321
20
3.6431
11
4.45021
21
3.6431
0
LINE
5
A2
100
AcDbEntity
8
vector
6
ByLayer
62
3
370
-1
100
AcDbLine
10
4.45021
20
3.6431
11
4.45021
21
2.8931
0
ARC
5
A3
100
AcDbEntity
8
vector
6
ByLayer
62
3
370
-1
100
AcDbCircle
10
0.664
20
0.65
40
0.15
100
AcDbArc
50
180
51
270
0
LINE
5
A4
100
AcDbEntity
8
vector
6
ByLayer
62
3
370
-1
100
AcDbLine
10
0.514
20
5.8862
11
0.514
21
0.65
0
ARC
5
A5
100
AcDbEntity
8
vector
6
ByLayer
62
3
370
-1
100
AcDbCircle
10
0.664
20
5.8862
40
0.15
100
AcDbArc
50
90
51
180
0
LINE
5
A6
100
AcDbEntity
8
vector
6
ByLayer
62
3
370
-1
100
AcDbLine
10
4.4
20
6.0362
11
0.664
21
6.0362
0
ARC
5
A7
100
AcDbEntity
8
vector
6
ByLayer
62
3
370
-1
100
AcDbCircle
10
4.4
20
5.8862
40
0.15
100
AcDbArc
50
360
51
90
0
LINE
5
A8
100
AcDbEntity
8
vector
6
ByLayer
62
3
370
-1
100
AcDbLine
10
0.664
20
0.5
11
4.4
21
0.5
0
LINE
5
A9
100
AcDbEntity
8
vector
6
ByLayer
62
3
370
-1
100
AcDbLine
10
4.55
20
0.65
11
4.55
21
5.8862
0
ARC
5
AA
100
AcDbEntity
8
vector
6
ByLayer
62
3
370
-1
100
AcDbCircle
10
4.4
20
0.65
40
0.15
100
AcDbArc
50
270
51
360
0
CIRCLE
5
AB
100
AcDbEntity
8
vector
6
ByLayer
62
256
370
-1
100
AcDbCircle
10
0.932
20
0.9181
40
0.058
0
CIRCLE
5
AC
100
AcDbEntity
8
vector
6
ByLayer
62
256
370
-1
100
AcDbCircle
10
0.932
20
5.6181
40
0.058
0
CIRCLE
5
AD
100
AcDbEntity
8
vector
6
ByLayer
62
256
370
-1
100
AcDbCircle
10
4.132
20
0.9181
40
0.058
0
CIRCLE
5
AE
100
AcDbEntity
8
vector
6
ByLayer
62
256
370
-1
100
AcDbCircle
10
4.132
20
5.6181
40
0.058
0
LINE
5
AF
100
AcDbEntity
8
vector
6
ByLayer
62
3
370
-1
100
AcDbLine
10
1.89499
20
6.3
11
2.67499
21
6.3
0
LINE
5
B0
100
AcDbEntity
8
vector
6
ByLayer
62
3
370
-1
100
AcDbLine
10
2.67499
20
6.3
11
2.67499
21
6.18188
0
LINE
5
B1
100
AcDbEntity
8
vector
6
ByLayer
62
3
370
-1
100
AcDbLine
10
2.67499
20
6.18188
11
3.42499
21
6.18188
0
LINE
5
B2
100
AcDbEntity
8
vector
6
ByLayer
62
3
370
-1
100
AcDbLine
10
3.42499
20
6.18188
11
3.42499
21
6.3
0
LINE
5
B3
100
AcDbEntity
8
vector
6
ByLayer
62
3
370
-1
100
AcDbLine
10
3.42499
20
6.3
11
4.20499
21
6.3
0
LINE
5
B4
100
AcDbEntity
8
vector
6
ByLayer
62
3
370
-1
100
AcDbLine
10
4.20499
20
6.3
11
4.20499
21
6.18188
0
LINE
5
B5
100
AcDbEntity
8
vector
6
ByLayer
62
3
370
-1
100
AcDbLine
10
4.20499
20
6.18188
11
4.95499
21
6.18188
0
LINE
5
B6
100
AcDbEntity
8
vector
6
ByLayer
62
3
370
-1
100
AcDbLine
10
4.95499
20
6.18188
11
4.95499
21
6.3
0
LINE
5
B7
100
AcDbEntity
8
vector
6
ByLayer
62
3
370
-1
100
AcDbLine
10
4.95499
20
6.3
11
5.59998
21
6.3
0
LINE
5
B8
100
AcDbEntity
8
vector
6
ByLayer
62
3
370
-1
100
AcDbLine
10
5.59998
20
6.3
11
5.59998
21
6.76849
0
LINE
5
B9
100
AcDbEntity
8
vector
6
ByLayer
62
3
370
-1
100
AcDbLine
10
5.59998
20
6.76849
11
5.7181
21
6.76849
0
LINE
5
BA
100
AcDbEntity
8
vector
6
ByLayer
62
3
370
-1
100
AcDbLine
10
5.7181
20
6.76849
11
5.7181
21
7.26849
0
LINE
5
BB
100
AcDbEntity
8
vector
6
ByLayer
62
3
370
-1
100
AcDbLine
10
5.7181
20
7.26849
11
5.59998
21
7.26849
0
LINE
5
BC
100
AcDbEntity
8
vector
6
ByLayer
62
3
370
-1
100
AcDbLine
10
5.59998
20
7.26849
11
5.59998
21
7.73699
0
LINE
5
BD
100
AcDbEntity
8
vector
6
ByLayer
62
3
370
-1
100
AcDbLine
10
5.59998
20
7.73699
11
4.95499
21
7.73699
0
LINE
5
BE
100
AcDbEntity
8
vector
6
ByLayer
62
3
370
-1
100
AcDbLine
10
4.95499
20
7.73699
11
4.95499
21
7.8551
0
LINE
5
BF
100
AcDbEntity
8
vector
6
ByLayer
62
3
370
-1
100
AcDbLine
10
4.95499
20
7.8551
11
4.20499
21
7.8551
0
LINE
5
C0
100
AcDbEntity
8
vector
6
ByLayer
62
3
370
-1
100
AcDbLine
10
4.20499
20
7.8551
11
4.20499
21
7.73699
0
LINE
5
C1
100
AcDbEntity
8
vector
6
ByLayer
62
3
370
-1
100
AcDbLine
10
4.20499
20
7.73699
11
3.42499
21
7.73699
0
LINE
5
C2
100
AcDbEntity
8
vector
6
ByLayer
62
3
370
-1
100
AcDbLine
10
3.42499
20
7.73699
11
3.42499
21
7.8551
0
LINE
5
C3
100
AcDbEntity
8
vector
6
ByLayer
62
3
370
-1
100
AcDbLine
10
3.42499
20
7.8551
11
2.67499
21
7.8551
0
LINE
5
C4
100
AcDbEntity
8
vector
6
ByLayer
62
3
370
-1
100
AcDbLine
10
2.67499
20
7.8551
11
2.67499
21
7.73699
0
LINE
5
C5
100
AcDbEntity
8
vector
6
ByLayer
62
3
370
-1
100
AcDbLine
10
2.67499
20
7.73699
11
1.89499
21
7.73699
0
LINE
5
C6
100
AcDbEntity
8
vector
6
ByLayer
62
3
370
-1
100
AcDbLine
10
1.89499
20
7.73699
11
1.89499
21
7.8551
0
LINE
5
C7
100
AcDbEntity
8
vector
6
ByLayer
62
3
370
-1
100
AcDbLine
10
1.89499
20
7.8551
11
1.14499
21
7.8551
0
LINE
5
C8
100
AcDbEntity
8
vector
6
ByLayer
62
3
370
-1
100
AcDbLine
10
1.14499
20
7.8551
11
1.14499
21
7.73699
0
LINE
5
C9
100
AcDbEntity
8
vector
6
ByLayer
62
3
370
-1
100
AcDbLine
10
1.14499
20
7.73699
11
0.5
21
7.73699
0
LINE
5
CA
100
AcDbEntity
8
vector
6
ByLayer
62
3
370
-1
100
AcDbLine
10
0.5
20
7.73699
11
0.5
21
7.26849
0
LINE
5
CB
100
AcDbEntity
8
vector
6
ByLayer
62
3
370
-1
100
AcDbLine
10
0.5
20
7.26849
11
0.38188
21
7.26849
0
LINE
5
CC
100
AcDbEntity
8
vector
6
ByLayer
62
3
370
-1
100
AcDbLine
10
0.38188
20
7.26849
11
0.38188
21
6.76849
0
LINE
5
CD
100
AcDbEntity
8
vector
6
ByLayer
62
3
370
-1
100
AcDbLine
10
0.38188
20
6.76849
11
0.5
21
6.76849
0
LINE
5
CE
100
AcDbEntity
8
vector
6
ByLayer
62
3
370
-1
100
AcDbLine
10
0.5
20
6.76849
11
0.5
21
6.3
0
LINE
5
CF
100
AcDbEntity
8
vector
6
ByLayer
62
3
370
-1
100
AcDbLine
10
0.5
20
6.3
11
1.14499
21
6.3
0
LINE
5
D0
100
AcDbEntity
8
vector
6
ByLayer
62
3
370
-1
100
AcDbLine
10
1.14499
20
6.3
11
1.14499
21
6.18188
0
LINE
5
D1
100
AcDbEntity
8
vector
6
ByLayer
62
3
370
-1
100
AcDbLine
10
1.14499
20
6.18188
11
1.89499
21
6.18188
0
LINE
5
D2
100
AcDbEntity
8
vector
6
ByLayer
62
3
370
-1
100
AcDbLine
10
1.89499
20
6.18188
11
1.89499
21
6.3
0
ARC
5
D3
100
AcDbEntity
8
vector
6
ByLayer
62
256
370
-1
100
AcDbCircle
10
3.37499
20
7.387
40
0.05
100
AcDbArc
50
90
51
180
0
LINE
5
D4
100
AcDbEntity
8
vector
6
ByLayer
62
256
370
-1
100
AcDbLine
10
3.37499
20
7.437
11
4.02499
21
7.437
0
ARC
5
D5
100
AcDbEntity
8
vector
6
ByLayer
62
256
370
-1
100
AcDbCircle
10
4.02499
20
7.387
40
0.05
100
AcDbArc
50
0
51
90
0
LINE
5
D6
100
AcDbEntity
8
vector
6
ByLayer
62
256
370
-1
100
AcDbLine
10
4.07499
20
7.387
11
4.07499
21
7.087
0
ARC
5
D7
100
AcDbEntity
8
vector
6
ByLayer
62
256
370
-1
100
AcDbCircle
10
4.02499
20
7.087
40
0.05
100
AcDbArc
50
270
51
0
0
LINE
5
D8
100
AcDbEntity
8
vector
6
ByLayer
62
256
370
-1
100
AcDbLine
10
4.02499
20
7.037
11
3.37499
21
7.037
0
LINE
5
D9
100
AcDbEntity
8
vector
6
ByLayer
62
256
370
-1
100
AcDbLine
10
3.32499
20
7.087
11
3.32499
21
7.387
0
ARC
5
DA
100
AcDbEntity
8
vector
6
ByLayer
62
256
370
-1
100
AcDbCircle
10
3.37499
20
7.087
40
0.05
100
AcDbArc
50
180
51
270
0
ARC
5
DB
100
AcDbEntity
8
vector
6
ByLayer
62
256
370
-1
100
AcDbCircle
10
4.39499
20
7.387
40
0.05
100
AcDbArc
50
90
51
180
0
LINE
5
DC
100
AcDbEntity
8
vector
6
ByLayer
62
256
370
-1
100
AcDbLine
10
4.39499
20
7.437
11
5.04499
21
7.437
0
ARC
5
DD
100
AcDbEntity
8
vector
6
ByLayer
62
256
370
-1
100
AcDbCircle
10
5.04499
20
7.387
40
0.05
100
AcDbArc
50
0
51
90
0
LINE
5
DE
100
AcDbEntity
8
vector
6
ByLayer
62
256
370
-1
100
AcDbLine
10
5.09499
20
7.387
11
5.09499
21
7.087
0
ARC
5
DF
100
AcDbEntity
8
vector
6
ByLayer
62
256
370
-1
100
AcDbCircle
10
5.04499
20
7.087
40
0.05
100
AcDbArc
50
270
51
0
0
LINE
5
E0
100
AcDbEntity
8
vector
6
ByLayer
62
256
370
-1
100
AcDbLine
10
5.04499
20
7.037
11
4.39499
21
7.037
0
LINE
5
E1
100
AcDbEntity
8
vector
6
ByLayer
62
256
370
-1
100
AcDbLine
10
4.34499
20
7.087
11
4.34499
21
7.387
0
ARC
5
E2
100
AcDbEntity
8
vector
6
ByLayer
62
256
370
-1
100
AcDbCircle
10
4.39499
20
7.087
40
0.05
100
AcDbArc
50
180
51
270
0
LINE
5
E3
100
AcDbEntity
8
vector
6
ByLayer
62
3
370
-1
100
AcDbLine
10
10.63699
20
1.99499
11
10.63699
21
2.77499
0
LINE
5
E4
100
AcDbEntity
8
vector
6
ByLayer
62
3
370
-1
100
AcDbLine
10
10.63699
20
2.77499
11
10.7551
21
2.77499
0
LINE
5
E5
100
AcDbEntity
8
vector
6
ByLayer
62
3
370
-1
100
AcDbLine
10
10.7551
20
2.77499
11
10.7551
21
3.52499
0
LINE
5
E6
100
AcDbEntity
8
vector
6
ByLayer
62
3
370
-1
100
AcDbLine
10
10.7551
20
3.52499
11
10.63699
21
3.52499
0
LINE
5
E7
100
AcDbEntity
8
vector
6
ByLayer
62
3
370
-1
100
AcDbLine
10
10.63699
20
3.52499
11
10.63699
21
4.30499
0
LINE
5
E8
100
AcDbEntity
8
vector
6
ByLayer
62
3
370
-1
100
AcDbLine
10
10.63699
20
4.30499
11
10.7551
21
4.30499
0
LINE
5
E9
100
AcDbEntity
8
vector
6
ByLayer
62
3
370
-1
100
AcDbLine
10
10.7551
20
4.30499
11
10.7551
21
5.05499
0
LINE
5
EA
100
AcDbEntity
8
vector
6
ByLayer
62
3
370
-1
100
AcDbLine
10
10.7551
20
5.05499
11
10.63699
21
5.05499
0
LINE
5
EB
100
AcDbEntity
8
vector
6
ByLayer
62
3
370
-1
100
AcDbLine
10
10.63699
20
5.05499
11
10.63699
21
5.69998
0
LINE
5
EC
100
AcDbEntity
8
vector
6
ByLayer
62
3
370
-1
100
AcDbLine
10
10.63699
20
5.69998
11
10.16849
21
5.69998
0
LINE
5
ED
100
AcDbEntity
8
vector
6
ByLayer
62
3
370
-1
100
AcDbLine
10
10.16849
20
5.69998
11
10.16849
21
5.8181
0
LINE
5
EE
100
AcDbEntity
8
vector
6
ByLayer
62
3
370
-1
100
AcDbLine
10
10.16849
20
5.8181
11
9.66849
21
5.8181
0
LINE
5
EF
100
AcDbEntity
8
vector
6
ByLayer
62
3
370
-1
100
AcDbLine
10
9.66849
20
5.8181
11
9.66849
21
5.69998
0
LINE
5
F0
100
AcDbEntity
8
vector
6
ByLayer
62
3
370
-1
100
AcDbLine
10
9.66849
20
5.69998
11
9.2
21
5.69998
0
LINE
5
F1
100
AcDbEntity
8
vector
6
ByLayer
62
3
370
-1
100
AcDbLine
10
9.2
20
5.69998
11
9.2
21
5.05499
0
LINE
5
F2
100
AcDbEntity
8
vector
6
ByLayer
62
3
370
-1
100
AcDbLine
10
9.2
20
5.05499
11
9.08188
21
5.05499
0
LINE
5
F3
100
AcDbEntity
8
vector
6
ByLayer
62
3
370
-1
100
AcDbLine
10
9.08188
20
5.05499
11
9.08188
21
4.30499
0
LINE
5
F4
100
AcDbEntity
8
vector
6
ByLayer
62
3
370
-1
100
AcDbLine
10
9.08188
20
4.30499
11
9.2
21
4.30499
0
LINE
5
F5
100
AcDbEntity
8
vector
6
ByLayer
62
3
370
-1
100
AcDbLine
10
9.2
20
4.30499
11
9.2
21
3.52499
0
LINE
5
F6
100
AcDbEntity
8
vector
6
ByLayer
62
3
370
-1
100
AcDbLine
10
9.2
20
3.52499
11
9.08188
21
3.52499
0
LINE
5
F7
100
AcDbEntity
8
vector
6
ByLayer
62
3
370
-1
100
AcDbLine
10
9.08188
20
3.52499
11
9.08188
21
2.77499
0
LINE
5
F8
100
AcDbEntity
8
vector
6
ByLayer
62
3
370
-1
100
AcDbLine
10
9.08188
20
2.77499
11
9.2
21
2.77499
0
LINE
5
F9
100
AcDbEntity
8
vector
6
ByLayer
62
3
370
-1
100
AcDbLine
10
9.2
20
2.77499
11
9.2
21
1.99499
0
LINE
5
FA
100
AcDbEntity
8
vector
6
ByLayer
62
3
370
-1
100
AcDbLine
10
9.2
20
1.99499
11
9.08188
21
1.99499
0
LINE
5
FB
100
AcDbEntity
8
vector
6
ByLayer
62
3
370
-1
100
AcDbLine
10
9.08188
20
1.99499
11
9.08188
21
1.24499
0
LINE
5
FC
100
AcDbEntity
8
vector
6
ByLayer
62
3
370
-1
100
AcDbLine
10
9.08188
20
1.24499
11
9.2
21
1.24499
0
LINE
5
FD
100
AcDbEntity
8
vector
6
ByLayer
62
3
370
-1
100
AcDbLine
10
9.2
20
1.24499
11
9.2
21
0.6
0
LINE
5
FE
100
AcDbEntity
8
vector
6
ByLayer
62
3
370
-1
100
AcDbLine
10
9.2
20
0.6
11
9.66849
21
0.6
0
LINE
5
FF
100
AcDbEntity
8
vector
6
ByLayer
62
3
370
-1
100
AcDbLine
10
9.66849
20
0.6
11
9.66849
21
0.48188
0
LINE
5
100
100
AcDbEntity
8
vector
6
ByLayer
62
3
370
-1
100
AcDbLine
10
9.66849
20
0.48188
11
10.16849
21
0.48188
0
LINE
5
101
100
AcDbEntity
8
vector
6
ByLayer
62
3
370
-1
100
AcDbLine
10
10.16849
20
0.48188
11
10.16849
21
0.6
0
LINE
5
102
100
AcDbEntity
8
vector
6
ByLayer
62
3
370
-1
100
AcDbLine
10
10.16849
20
0.6
11
10.63699
21
0.6
0
LINE
5
103
100
AcDbEntity
8
vector
6
ByLayer
62
3
370
-1
100
AcDbLine
10
10.63699
20
0.6
11
10.63699
21
1.24499
0
LINE
5
104
100
AcDbEntity
8
vector
6
ByLayer
62
3
370
-1
100
AcDbLine
10
10.63699
20
1.24499
11
10.7551
21
1.24499
0
LINE
5
105
100
AcDbEntity
8
vector
6
ByLayer
62
3
370
-1
100
AcDbLine
10
10.7551
20
1.24499
11
10.7551
21
1.99499
0
LINE
5
106
100
AcDbEntity
8
vector
6
ByLayer
62
3
370
-1
100
AcDbLine
10
10.7551
20
1.99499
11
10.63699
21
1.99499
0
LINE
5
107
100
AcDbEntity
8
vector
6
ByLayer
62
3
370
-1
100
AcDbLine
10
9.58188
20
6.7685
11
9.58188
21
7.2685
0
LINE
5
108
100
AcDbEntity
8
vector
6
ByLayer
62
3
370
-1
100
AcDbLine
10
9.58188
20
7.2685
11
9.7
21
7.2685
0
LINE
5
109
100
AcDbEntity
8
vector
6
ByLayer
62
3
370
-1
100
AcDbLine
10
9.7
20
7.2685
11
9.7
21
7.73699
0
LINE
5
10A
100
AcDbEntity
8
vector
6
ByLayer
62
3
370
-1
100
AcDbLine
10
9.7
20
7.73699
11
9.11594
21
7.73699
0
LINE
5
10B
100
AcDbEntity
8
vector
6
ByLayer
62
3
370
-1
100
AcDbLine
10
9.11594
20
7.73699
11
9.11594
21
7.85511
0
LINE
5
10C
100
AcDbEntity
8
vector
6
ByLayer
62
3
370
-1
100
AcDbLine
10
9.11594
20
7.85511
11
8.365935
21
7.85511
0
LINE
5
10D
100
AcDbEntity
8
vector
6
ByLayer
62
3
370
-1
100
AcDbLine
10
8.365935
20
7.85511
11
8.365935
21
7.73699
0
LINE
5
10E
100
AcDbEntity
8
vector
6
ByLayer
62
3
370
-1
100
AcDbLine
10
8.365935
20
7.73699
11
7.197845
21
7.73699
0
LINE
5
10F
100
AcDbEntity
8
vector
6
ByLayer
62
3
370
-1
100
AcDbLine
10
7.197845
20
7.73699
11
7.197845
21
7.85511
0
LINE
5
110
100
AcDbEntity
8
vector
6
ByLayer
62
3
370
-1
100
AcDbLine
10
7.197845
20
7.85511
11
6.44784
21
7.85511
0
LINE
5
111
100
AcDbEntity
8
vector
6
ByLayer
62
3
370
-1
100
AcDbLine
10
6.44784
20
7.85511
11
6.44784
21
7.73699
0
LINE
5
112
100
AcDbEntity
8
vector
6
ByLayer
62
3
370
-1
100
AcDbLine
10
6.44784
20
7.73699
11
5.86378
21
7.73699
0
LINE
5
113
100
AcDbEntity
8
vector
6
ByLayer
62
3
370
-1
100
AcDbLine
10
5.86378
20
7.73699
11
5.86378
21
7.2685
0
LINE
5
114
100
AcDbEntity
8
vector
6
ByLayer
62
3
370
-1
100
AcDbLine
10
5.86378
20
7.2685
11
5.9819
21
7.2685
0
LINE
5
115
100
AcDbEntity
8
vector
6
ByLayer
62
3
370
-1
100
AcDbLine
10
5.9819
20
7.2685
11
5.9819
21
6.7685
0
LINE
5
116
100
AcDbEntity
8
vector
6
ByLayer
62
3
370
-1
100
AcDbLine
10
5.9819
20
6.7685
11
5.86378
21
6.7685
0
LINE
5
117
100
AcDbEntity
8
vector
6
ByLayer
62
3
370
-1
100
AcDbLine
10
5.86378
20
6.7685
11
5.86378
21
6.3
0
LINE
5
118
100
AcDbEntity
8
vector
6
ByLayer
62
3
370
-1
100
AcDbLine
10
5.86378
20
6.3
11
6.44784
21
6.3
0
LINE
5
119
100
AcDbEntity
8
vector
6
ByLayer
62
3
370
-1
100
AcDbLine
10
6.44784
20
6.3
11
6.44784
21
6.18189
0
LINE
5
11A
100
AcDbEntity
8
vector
6
ByLayer
62
3
370
-1
100
AcDbLine
10
6.44784
20
6.18189
11
7.197845
21
6.18189
0
LINE
5
11B
100
AcDbEntity
8
vector
6
ByLayer
62
3
370
-1
100
AcDbLine
10
7.197845
20
6.18189
11
7.197845
21
6.3
0
LINE
5
11C
100
AcDbEntity
8
vector
6
ByLayer
62
3
370
-1
100
AcDbLine
10
7.197845
20
6.3
11
8.365935
21
6.3
0
LINE
5
11D
100
AcDbEntity
8
vector
6
ByLayer
62
3
370
-1
100
AcDbLine
10
8.365935
20
6.3
11
8.365935
21
6.18189
0
LINE
5
11E
100
AcDbEntity
8
vector
6
ByLayer
62
3
370
-1
100
AcDbLine
10
8.365935
20
6.18189
11
9.11594
21
6.18189
0
LINE
5
11F
100
AcDbEntity
8
vector
6
ByLayer
62
3
370
-1
100
AcDbLine
10
9.11594
20
6.18189
11
9.11594
21
6.3
0
LINE
5
120
100
AcDbEntity
8
vector
6
ByLayer
62
3
370
-1
100
AcDbLine
10
9.11594
20
6.3
11
9.7
21
6.3
0
LINE
5
121
100
AcDbEntity
8
vector
6
ByLayer
62
3
370
-1
100
AcDbLine
10
9.7
20
6.3
11
9.7
21
6.7685
0
LINE
5
122
100
AcDbEntity
8
vector
6
ByLayer
62
3
370
-1
100
AcDbLine
10
9.7
20
6.7685
11
9.58188
21
6.7685
0
ARC
5
123
100
AcDbEntity
8
vector
6
ByLayer
62
256
370
-1
100
AcDbCircle
10
7.48179
20
6.93199
40
0.05
100
AcDbArc
50
180
51
270
0
LINE
5
124
100
AcDbEntity
8
vector
6
ByLayer
62
256
370
-1
100
AcDbLine
10
7.43179
20
6.93199
11
7.43179
21
7.43699
0
ARC
5
125
100
AcDbEntity
8
vector
6
ByLayer
62
256
370
-1
100
AcDbCircle
10
7.48179
20
7.43699
40
0.05
100
AcDbArc
50
90
51
180
0
LINE
5
126
100
AcDbEntity
8
vector
6
ByLayer
62
256
370
-1
100
AcDbLine
10
9.08179
20
6.88199
11
7.48179
21
6.88199
0
ARC
5
127
100
AcDbEntity
8
vector
6
ByLayer
62
256
370
-1
100
AcDbCircle
10
9.08179
20
6.93199
40
0.05
100
AcDbArc
50
270
51
360
0
LINE
5
128
100
AcDbEntity
8
vector
6
ByLayer
62
256
370
-1
100
AcDbLine
10
9.13179
20
7.43699
11
9.13179
21
6.93199
0
LINE
5
129
100
AcDbEntity
8
vector
6
ByLayer
62
256
370
-1
100
AcDbLine
10
7.48179
20
7.48699
11
9.08179
21
7.48699
0
ARC
5
12A
100
AcDbEntity
8
vector
6
ByLayer
62
256
370
-1
100
AcDbCircle
10
9.08179
20
7.43699
40
0.05
100
AcDbArc
50
360
51
90
0
ARC
5
12B
100
AcDbEntity
8
vector
6
ByLayer
62
256
370
-1
100
AcDbCircle
10
6.75179
20
7.14999
40
0.05
100
AcDbArc
50
180
51
270
0
LINE
5
12C
100
AcDbEntity
8
vector
6
ByLayer
62
256
370
-1
100
AcDbLine
10
6.70179
20
7.14999
11
6.70179
21
7.34999
0
ARC
5
12D
100
AcDbEntity
8
vector
6
ByLayer
62
256
370
-1
100
AcDbCircle
10
6.75179
20
7.34999
40
0.05
100
AcDbArc
50
90
51
180
0
LINE
5
12E
100
AcDbEntity
8
vector
6
ByLayer
62
256
370
-1
100
AcDbLine
10
6.75179
20
7.39999
11
7.05179
21
7.39999
0
ARC
5
12F
100
AcDbEntity
8
vector
6
ByLayer
62
256
370
-1
100
AcDbCircle
10
7.05179
20
7.34999
40
0.05
100
AcDbArc
50
360
51
90
0
LINE
5
130
100
AcDbEntity
8
vector
6
ByLayer
62
256
370
-1
100
AcDbLine
10
7.10179
20
7.34999
11
7.10179
21
7.14999
0
LINE
5
131
100
AcDbEntity
8
vector
6
ByLayer
62
256
370
-1
100
AcDbLine
10
7.05179
20
7.09999
11
6.75179
21
7.09999
0
ARC
5
132
100
AcDbEntity
8
vector
6
ByLayer
62
256
370
-1
100
AcDbCircle
10
7.05179
20
7.14999
40
0.05
100
AcDbArc
50
270
51
360
0
LINE
5
133
100
AcDbEntity
8
vector
6
ByLayer
62
3
370
-1
100
AcDbLine
10
11.46849
20
0.61812
11
11.96849
21
0.61812
0
LINE
5
134
100
AcDbEntity
8
vector
6
ByLayer
62
3
370
-1
100
AcDbLine
10
11.96849
20
0.61812
11
11.96849
21
0.5
0
LINE
5
135
100
AcDbEntity
8
vector
6
ByLayer
62
3
370
-1
100
AcDbLine
10
11.96849
20
0.5
11
12.43699
21
0.5
0
LINE
5
136
100
AcDbEntity
8
vector
6
ByLayer
62
3
370
-1
100
AcDbLine
10
12.43699
20
0.5
11
12.43699
21
1.08406
0
LINE
5
137
100
AcDbEntity
8
vector
6
ByLayer
62
3
370
-1
100
AcDbLine
10
12.43699
20
1.08406
11
12.5551
21
1.08406
0
LINE
5
138
100
AcDbEntity
8
vector
6
ByLayer
62
3
370
-1
100
AcDbLine
10
12.5551
20
1.08406
11
12.5551
21
1.834065
0
LINE
5
139
100
AcDbEntity
8
vector
6
ByLayer
62
3
370
-1
100
AcDbLine
10
12.5551
20
1.834065
11
12.43699
21
1.834065
0
LINE
5
13A
100
AcDbEntity
8
vector
6
ByLayer
62
3
370
-1
100
AcDbLine
10
12.43699
20
1.834065
11
12.43699
21
3.002155
0
LINE
5
13B
100
AcDbEntity
8
vector
6
ByLayer
62
3
370
-1
100
AcDbLine
10
12.43699
20
3.002155
11
12.5551
21
3.002155
0
LINE
5
13C
100
AcDbEntity
8
vector
6
ByLayer
62
3
370
-1
100
AcDbLine
10
12.5551
20
3.002155
11
12.5551
21
3.75216
0
LINE
5
13D
100
AcDbEntity
8
vector
6
ByLayer
62
3
370
-1
100
AcDbLine
10
12.5551
20
3.75216
11
12.43699
21
3.75216
0
LINE
5
13E
100
AcDbEntity
8
vector
6
ByLayer
62
3
370
-1
100
AcDbLine
10
12.43699
20
3.75216
11
12.43699
21
4.33622
0
LINE
5
13F
100
AcDbEntity
8
vector
6
ByLayer
62
3
370
-1
100
AcDbLine
10
12.43699
20
4.33622
11
11.96849
21
4.33622
0
LINE
5
140
100
AcDbEntity
8
vector
6
ByLayer
62
3
370
-1
100
AcDbLine
10
11.96849
20
4.33622
11
11.96849
21
4.2181
0
LINE
5
141
100
AcDbEntity
8
vector
6
ByLayer
62
3
370
-1
100
AcDbLine
10
11.96849
20
4.2181
11
11.46849
21
4.2181
0
LINE
5
142
100
AcDbEntity
8
vector
6
ByLayer
62
3
370
-1
100
AcDbLine
10
11.46849
20
4.2181
11
11.46849
21
4.33622
0
LINE
5
143
100
AcDbEntity
8
vector
6
ByLayer
62
3
370
-1
100
AcDbLine
10
11.46849
20
4.33622
11
11
21
4.33622
0
LINE
5
144
100
AcDbEntity
8
vector
6
ByLayer
62
3
370
-1
100
AcDbLine
10
11
20
4.33622
11
11
21
3.75216
0
LINE
5
145
100
AcDbEntity
8
vector
6
ByLayer
62
3
370
-1
100
AcDbLine
10
11
20
3.75216
11
10.88188
21
3.75216
0
LINE
5
146
100
AcDbEntity
8
vector
6
ByLayer
62
3
370
-1
100
AcDbLine
10
10.88188
20
3.75216
11
10.88188
21
3.002155
0
LINE
5
147
100
AcDbEntity
8
vector
6
ByLayer
62
3
370
-1
100
AcDbLine
10
10.88188
20
3.002155
11
11
21
3.002155
0
LINE
5
148
100
AcDbEntity
8
vector
6
ByLayer
62
3
370
-1
100
AcDbLine
10
11
20
3.002155
11
11
21
1.834065
0
LINE
5
149
100
AcDbEntity
8
vector
6
ByLayer
62
3
370
-1
100
AcDbLine
10
11
20
1.834065
11
10.88188
21
1.834065
0
LINE
5
14A
100
AcDbEntity
8
vector
6
ByLayer
62
3
370
-1
100
AcDbLine
10
10.88188
20
1.834065
11
10.88188
21
1.08406
0
LINE
5
14B
100
AcDbEntity
8
vector
6
ByLayer
62
3
370
-1
100
AcDbLine
10
10.88188
20
1.08406
11
11
21
1.08406
0
LINE
5
14C
100
AcDbEntity
8
vector
6
ByLayer
62
3
370
-1
100
AcDbLine
10
11
20
1.08406
11
11
21
0.5
0
LINE
5
14D
100
AcDbEntity
8
vector
6
ByLayer
62
3
370
-1
100
AcDbLine
10
11
20
0.5
11
11.46849
21
0.5
0
LINE
5
14E
100
AcDbEntity
8
vector
6
ByLayer
62
3
370
-1
100
AcDbLine
10
11.46849
20
0.5
11
11.46849
21
0.61812
0
ARC
5
14F
100
AcDbEntity
8
vector
6
ByLayer
62
256
370
-1
100
AcDbCircle
10
11.862
20
2.28821
40
0.05
100
AcDbArc
50
90
51
180
0
LINE
5
150
100
AcDbEntity
8
vector
6
ByLayer
62
256
370
-1
100
AcDbLine
10
11.862
20
2.33821
11
12.212
21
2.33821
0
ARC
5
151
100
AcDbEntity
8
vector
6
ByLayer
62
256
370
-1
100
AcDbCircle
10
12.212
20
2.28821
40
0.05
100
AcDbArc
50
0
51
90
0
LINE
5
152
100
AcDbEntity
8
vector
6
ByLayer
62
256
370
-1
100
AcDbLine
10
12.262
20
2.28821
11
12.262
21
1.88821
0
ARC
5
153
100
AcDbEntity
8
vector
6
ByLayer
62
256
370
-1
100
AcDbCircle
10
12.212
20
1.88821
40
0.05
100
AcDbArc
50
270
51
0
0
LINE
5
154
100
AcDbEntity
8
vector
6
ByLayer
62
256
370
-1
100
AcDbLine
10
12.212
20
1.83821
11
11.862
21
1.83821
0
LINE
5
155
100
AcDbEntity
8
vector
6
ByLayer
62
256
370
-1
100
AcDbLine
10
11.812
20
1.88821
11
11.812
21
2.28821
0
ARC
5
156
100
AcDbEntity
8
vector
6
ByLayer
62
256
370
-1
100
AcDbCircle
10
11.862
20
1.88821
40
0.05
100
AcDbArc
50
180
51
270
0
ENDSEC
0
SECTION
2
OBJECTS
0
DICTIONARY
5
C
330
0
100
AcDbDictionary
281
1
3
ACAD_GROUP
350
D
0
DICTIONARY
5
D
330
C
100
AcDbDictionary
281
1
0
ENDSEC
0
EOF
