999
dxfrw 0.5.10
0
SECTION
2
HEADER
9
$ACADVER
1
AC1021
9
$HANDSEED
5
20000
9
$DWGCODEPAGE
3
ANSI_1252
9
$INSBASE
10
0
20
0
30
0
9
$EXTMIN
10
0
20
0
30
0
9
$EXTMAX
10
35
20
24
30
0
9
$LIMMIN
10
0
20
0
9
$LIMMAX
10
420
20
297
9
$ORTHOMODE
70
0
9
$LTSCALE
40
1
9
$TEXTSTYLE
7
STANDARD
9
$CLAYER
8
vector2
9
$DIMASZ
40
0.1
9
$DIMLFAC
40
1
9
$DIMSCALE
40
1
9
$DIMEXO
40
0.025
9
$DIMEXE
40
0.05
9
$DIMTXT
40
0.1
9
$DIMTSZ
40
0
9
$DIMAUNIT
70
0
9
$DIMADEC
70
2
9
$DIMLUNIT
70
2
9
$DIMSTYLE
2
Standard
9
$DIMGAP
40
0.025
9
$DIMTIH
70
0
9
$LUNITS
70
2
9
$LUPREC
70
4
9
$AUNITS
70
0
9
$AUPREC
70
2
9
$SPLINESEGS
70
8
9
$GRIDMODE
70
1
9
$SNAPSTYLE
70
0
9
$GRIDUNIT
10
0
20
0
9
$PINSBASE
10
0
20
0
30
0
9
$PLIMMIN
10
0
20
0
9
$PLIMMAX
10
4.7721774e-11
20
6.7492118e-11
9
$INSUNITS
70
1
9
$PSVPSCALE
40
1
0
ENDSEC
0
SECTION
2
CLASSES
0
ENDSEC
0
SECTION
2
TABLES
0
TABLE
2
VPORT
5
8
330
0
100
AcDbSymbolTable
70
1
0
VPORT
5
31
330
2
100
AcDbSymbolTableRecord
100
AcDbViewportTableRecord
2
*ACTIVE
70
0
10
0
20
0
11
1
21
1
12
31.4572800002
22
21.9873280001
13
0
23
0
14
10
24
10
15
10
25
10
16
0
26
0
36
1
17
0
27
0
37
0
40
51.3802240003
41
1.7806122449
42
50
43
0
44
0
50
0
51
0
71
0
72
100
73
1
74
3
75
0
76
1
77
0
78
0
281
0
65
1
110
0
120
0
130
0
111
1
121
0
131
0
112
0
122
1
132
0
79
0
146
0
348
10020
60
7
61
5
292
1
282
1
141
0
142
0
63
250
421
3358443
0
ENDTAB
0
TABLE
2
LTYPE
5
5
330
0
100
AcDbSymbolTable
70
4
0
LTYPE
5
14
330
5
100
AcDbSymbolTableRecord
100
AcDbLinetypeTableRecord
2
ByBlock
70
0
3

72
65
73
0
40
0
0
LTYPE
5
15
330
5
100
AcDbSymbolTableRecord
100
AcDbLinetypeTableRecord
2
ByLayer
70
0
3

72
65
73
0
40
0
0
LTYPE
5
16
330
5
100
AcDbSymbolTableRecord
100
AcDbLinetypeTableRecord
2
Continuous
70
0
3
Solid line
72
65
73
0
40
0
0
LTYPE
5
32
330
5
100
AcDbSymbolTableRecord
100
AcDbLinetypeTableRecord
2
DOT
70
0
3
Dot . . . . . . . . . . . . . . . . . . . . . .
72
65
73
2
40
6.35
49
0
74
0
49
-6.35
74
0
0
LTYPE
5
33
330
5
100
AcDbSymbolTableRecord
100
AcDbLinetypeTableRecord
2
DOT2
70
0
3
Dot (.5x) .....................................
72
65
73
2
40
3.175
49
0
74
0
49
-3.175
74
0
0
LTYPE
5
34
330
5
100
AcDbSymbolTableRecord
100
AcDbLinetypeTableRecord
2
DOTX2
70
0
3
Dot (2x) .  .  .  .  .  .  .  .  .  .  .  .  .
72
65
73
2
40
12.7
49
0
74
0
49
-12.7
74
0
0
LTYPE
5
35
330
5
100
AcDbSymbolTableRecord
100
AcDbLinetypeTableRecord
2
DASHED
70
0
3
Dot . . . . . . . . . . . . . . . . . . . . . .
72
65
73
2
40
19.05
49
12.7
74
0
49
-6.35
74
0
0
LTYPE
5
36
330
5
100
AcDbSymbolTableRecord
100
AcDbLinetypeTableRecord
2
DASHED2
70
0
3
Dashed (.5x) _ _ _ _ _ _ _ _ _ _ _ _ _ _ _ _ _
72
65
73
2
40
9.525
49
6.35
74
0
49
-3.175
74
0
0
LTYPE
5
37
330
5
100
AcDbSymbolTableRecord
100
AcDbLinetypeTableRecord
2
DASHEDX2
70
0
3
Dashed (2x) ____  ____  ____  ____  ____  ___
72
65
73
2
40
38.1
49
25.4
74
0
49
-12.7
74
0
0
LTYPE
5
38
330
5
100
AcDbSymbolTableRecord
100
AcDbLinetypeTableRecord
2
DASHDOT
70
0
3
Dash dot __ . __ . __ . __ . __ . __ . __ . __
72
65
73
4
40
25.4
49
12.7
74
0
49
-6.35
74
0
49
0
74
0
49
-6.35
74
0
0
LTYPE
5
39
330
5
100
AcDbSymbolTableRecord
100
AcDbLinetypeTableRecord
2
DASHDOT2
70
0
3
Dash dot (.5x) _._._._._._._._._._._._._._._.
72
65
73
4
40
12.7
49
6.35
74
0
49
-3.175
74
0
49
0
74
0
49
-3.175
74
0
0
LTYPE
5
3A
330
5
100
AcDbSymbolTableRecord
100
AcDbLinetypeTableRecord
2
DASHDOTX2
70
0
3
Dash dot (2x) ____  .  ____  .  ____  .  ___
72
65
73
4
40
50.8
49
25.4
74
0
49
-12.7
74
0
49
0
74
0
49
-12.7
74
0
0
LTYPE
5
3B
330
5
100
AcDbSymbolTableRecord
100
AcDbLinetypeTableRecord
2
DIVIDE
70
0
3
Divide ____ . . ____ . . ____ . . ____ . . ____
72
65
73
6
40
31.75
49
12.7
74
0
49
-6.35
74
0
49
0
74
0
49
-6.35
74
0
49
0
74
0
49
-6.35
74
0
0
LTYPE
5
3C
330
5
100
AcDbSymbolTableRecord
100
AcDbLinetypeTableRecord
2
DIVIDE2
70
0
3
Divide (.5x) __..__..__..__..__..__..__..__.._
72
65
73
6
40
15.875
49
6.35
74
0
49
-3.175
74
0
49
0
74
0
49
-3.175
74
0
49
0
74
0
49
-3.175
74
0
0
LTYPE
5
3D
330
5
100
AcDbSymbolTableRecord
100
AcDbLinetypeTableRecord
2
DIVIDEX2
70
0
3
Divide (2x) ________  .  .  ________  .  .  _
72
65
73
6
40
63.5
49
25.4
74
0
49
-12.7
74
0
49
0
74
0
49
-12.7
74
0
49
0
74
0
49
-12.7
74
0
0
LTYPE
5
3E
330
5
100
AcDbSymbolTableRecord
100
AcDbLinetypeTableRecord
2
BORDER
70
0
3
Border __ __ . __ __ . __ __ . __ __ . __ __ .
72
65
73
6
40
44.45
49
12.7
74
0
49
-6.35
74
0
49
12.7
74
0
49
-6.35
74
0
49
0
74
0
49
-6.35
74
0
0
LTYPE
5
3F
330
5
100
AcDbSymbolTableRecord
100
AcDbLinetypeTableRecord
2
BORDER2
70
0
3
Border (.5x) __.__.__.__.__.__.__.__.__.__.__.
72
65
73
6
40
22.225
49
6.35
74
0
49
-3.175
74
0
49
6.35
74
0
49
-3.175
74
0
49
0
74
0
49
-3.175
74
0
0
LTYPE
5
40
330
5
100
AcDbSymbolTableRecord
100
AcDbLinetypeTableRecord
2
BORDERX2
70
0
3
Border (2x) ____  ____  .  ____  ____  .  ___
72
65
73
6
40
88.9
49
25.4
74
0
49
-12.7
74
0
49
25.4
74
0
49
-12.7
74
0
49
0
74
0
49
-12.7
74
0
0
LTYPE
5
41
330
5
100
AcDbSymbolTableRecord
100
AcDbLinetypeTableRecord
2
CENTER
70
0
3
Center ____ _ ____ _ ____ _ ____ _ ____ _ ____
72
65
73
4
40
50.8
49
31.75
74
0
49
-6.35
74
0
49
6.35
74
0
49
-6.35
74
0
0
LTYPE
5
42
330
5
100
AcDbSymbolTableRecord
100
AcDbLinetypeTableRecord
2
CENTER2
70
0
3
Center (.5x) ___ _ ___ _ ___ _ ___ _ ___ _ ___
72
65
73
4
40
28.575
49
19.05
74
0
49
-3.175
74
0
49
3.175
74
0
49
-3.175
74
0
0
LTYPE
5
43
330
5
100
AcDbSymbolTableRecord
100
AcDbLinetypeTableRecord
2
CENTERX2
70
0
3
Center (2x) ________  __  ________  __  _____
72
65
73
4
40
101.6
49
63.5
74
0
49
-12.7
74
0
49
12.7
74
0
49
-12.7
74
0
0
ENDTAB
0
TABLE
2
LAYER
5
2
330
0
100
AcDbSymbolTable
70
1
0
LAYER
5
10
330
2
100
AcDbSymbolTableRecord
100
AcDbLayerTableRecord
2
0
70
0
62
7
6
CONTINUOUS
370
0
390
F
0
LAYER
5
44
330
2
100
AcDbSymbolTableRecord
100
AcDbLayerTableRecord
2
vector0
70
0
62
3
6
CONTINUOUS
370
0
390
F
0
LAYER
5
45
330
2
100
AcDbSymbolTableRecord
100
AcDbLayerTableRecord
2
lasercutter
70
0
62
5
6
CONTINUOUS
370
0
390
F
0
LAYER
5
46
330
2
100
AcDbSymbolTableRecord
100
AcDbLayerTableRecord
2
material
70
0
62
4
6
CONTINUOUS
370
0
390
F
0
LAYER
5
47
330
2
100
AcDbSymbolTableRecord
100
AcDbLayerTableRecord
2
vector1
70
0
62
1
6
CONTINUOUS
370
0
390
F
0
LAYER
5
48
330
2
100
AcDbSymbolTableRecord
100
AcDbLayerTableRecord
2
vector2
70
0
62
2
6
CONTINUOUS
370
0
390
F
0
LAYER
5
49
330
2
100
AcDbSymbolTableRecord
100
AcDbLayerTableRecord
2
vector3
70
0
62
6
6
CONTINUOUS
370
0
390
F
0
LAYER
5
4A
330
2
100
AcDbSymbolTableRecord
100
AcDbLayerTableRecord
2
vector4
70
0
62
30
420
16744448
6
CONTINUOUS
370
0
390
F
0
ENDTAB
0
TABLE
2
STYLE
5
3
330
0
100
AcDbSymbolTable
70
3
0
STYLE
5
4B
330
2
100
AcDbSymbolTableRecord
100
AcDbTextStyleTableRecord
2
Standard
70
0
40
0
41
1
50
0
71
0
42
1
3
txt
4

0
ENDTAB
0
TABLE
2
VIEW
5
6
330
0
100
AcDbSymbolTable
70
0
0
ENDTAB
0
TABLE
2
UCS
5
7
330
0
100
AcDbSymbolTable
70
0
0
ENDTAB
0
TABLE
2
APPID
5
9
330
0
100
AcDbSymbolTable
70
1
0
APPID
5
12
330
9
100
AcDbSymbolTableRecord
100
AcDbRegAppTableRecord
2
ACAD
70
0
0
ENDTAB
0
TABLE
2
DIMSTYLE
5
A
330
0
100
AcDbSymbolTable
70
1
100
AcDbDimStyleTable
71
1
0
DIMSTYLE
105
4C
330
A
100
AcDbSymbolTableRecord
100
AcDbDimStyleTableRecord
2
Standard
70
0
40
1
41
0.1
42
0.025
43
0.38
44
0.05
45
0
46
0
47
0
48
0
140
0.1
141
0.09
142
0
143
25.4
144
1
145
0
146
1
147
0.025
148
0
71
0
72
0
73
0
74
1
75
0
76
0
77
0
78
0
79
0
170
0
171
2
172
0
173
0
174
0
175
0
176
0
177
0
178
0
179
0
271
4
272
4
273
2
274
2
275
0
276
0
277
2
278
46
279
0
280
0
281
0
282
0
283
1
284
0
285
0
286
0
288
0
289
3
340
Standard
341

371
-2
372
-2
0
ENDTAB
0
TABLE
2
BLOCK_RECORD
5
1
330
0
100
AcDbSymbolTable
70
2
0
BLOCK_RECORD
5
1F
330
1
100
AcDbSymbolTableRecord
100
AcDbBlockTableRecord
2
*Model_Space
70
0
280
1
281
0
0
BLOCK_RECORD
5
1E
330
1
100
AcDbSymbolTableRecord
100
AcDbBlockTableRecord
2
*Paper_Space
70
0
280
1
281
0
0
ENDTAB
0
ENDSEC
0
SECTION
2
BLOCKS
0
BLOCK
5
20
330
1F
100
AcDbEntity
8
0
100
AcDbBlockBegin
2
*Model_Space
70
0
10
0
20
0
30
0
3
*Model_Space
1

0
ENDBLK
5
21
330
1F
100
AcDbEntity
8
0
100
AcDbBlockEnd
0
BLOCK
5
1C
330
1B
100
AcDbEntity
8
0
100
AcDbBlockBegin
2
*Paper_Space
70
0
10
0
20
0
30
0
3
*Paper_Space
1

0
ENDBLK
5
1D
330
1F
100
AcDbEntity
8
0
100
AcDbBlockEnd
0
ENDSEC
0
SECTION
2
ENTITIES
0
LINE
5
4D
100
AcDbEntity
8
vector0
6
ByLayer
62
3
370
-1
100
AcDbLine
10
4.96811
20
2.8931
11
4.84999
21
2.8931
0
LINE
5
4E
100
AcDbEntity
8
vector0
6
ByLayer
62
3
370
-1
100
AcDbLine
10
4.84999
20
2.8931
11
4.84999
21
3.6431
0
LINE
5
4F
100
AcDbEntity
8
vector0
6
ByLayer
62
3
370
-1
100
AcDbLine
10
4.84999
20
3.6431
11
4.96811
21
3.6431
0
LINE
5
50
100
AcDbEntity
8
vector0
6
ByLayer
62
3
370
-1
100
AcDbLine
10
4.96811
20
3.6431
11
4.96811
21
2.8931
0
LINE
5
51
100
AcDbEntity
8
vector0
6
ByLayer
62
3
370
-1
100
AcDbLine
10
4.96811
20
1.3631
11
4.84999
21
1.3631
0
LINE
5
52
100
AcDbEntity
8
vector0
6
ByLayer
62
3
370
-1
100
AcDbLine
10
4.84999
20
1.3631
11
4.84999
21
2.1131
0
LINE
5
53
100
AcDbEntity
8
vector0
6
ByLayer
62
3
370
-1
100
AcDbLine
10
4.84999
20
2.1131
11
4.96811
21
2.1131
0
LINE
5
54
100
AcDbEntity
8
vector0
6
ByLayer
62
3
370
-1
100
AcDbLine
10
4.96811
20
2.1131
11
4.96811
21
1.3631
0
LINE
5
55
100
AcDbEntity
8
vector0
6
ByLayer
62
3
370
-1
100
AcDbLine
10
4.96811
20
4.4231
11
4.84999
21
4.4231
0
LINE
5
56
100
AcDbEntity
8
vector0
6
ByLayer
62
3
370
-1
100
AcDbLine
10
4.84999
20
4.4231
11
4.84999
21
5.1731
0
LINE
5
57
100
AcDbEntity
8
vector0
6
ByLayer
62
3
370
-1
100
AcDbLine
10
4.84999
20
5.1731
11
4.96811
21
5.1731
0
LINE
5
58
100
AcDbEntity
8
vector0
6
ByLayer
62
3
370
-1
100
AcDbLine
10
4.96811
20
5.1731
11
4.96811
21
4.4231
0
LINE
5
59
100
AcDbEntity
8
vector0
6
ByLayer
62
3
370
-1
100
AcDbLine
10
6.18405
20
0.59999
11
5.43405
21
0.59999
0
LINE
5
5A
100
AcDbEntity
8
vector0
6
ByLayer
62
3
370
-1
100
AcDbLine
10
5.43405
20
0.59999
11
5.43405
21
0.7181
0
LINE
5
5B
100
AcDbEntity
8
vector0
6
ByLayer
62
3
370
-1
100
AcDbLine
10
5.43405
20
0.7181
11
6.18405
21
0.7181
0
LINE
5
5C
100
AcDbEntity
8
vector0
6
ByLayer
62
3
370
-1
100
AcDbLine
10
6.18405
20
0.7181
11
6.18405
21
0.59999
0
LINE
5
5D
100
AcDbEntity
8
vector0
6
ByLayer
62
3
370
-1
100
AcDbLine
10
6.18405
20
5.8181
11
5.43405
21
5.8181
0
LINE
5
5E
100
AcDbEntity
8
vector0
6
ByLayer
62
3
370
-1
100
AcDbLine
10
5.43405
20
5.8181
11
5.43405
21
5.93621
0
LINE
5
5F
100
AcDbEntity
8
vector0
6
ByLayer
62
3
370
-1
100
AcDbLine
10
5.43405
20
5.93621
11
6.18405
21
5.93621
0
LINE
5
60
100
AcDbEntity
8
vector0
6
ByLayer
62
3
370
-1
100
AcDbLine
10
6.18405
20
5.93621
11
6.18405
21
5.8181
0
LINE
5
61
100
AcDbEntity
8
vector0
6
ByLayer
62
3
370
-1
100
AcDbLine
10
8.10217
20
5.8181
11
7.35217
21
5.8181
0
LINE
5
62
100
AcDbEntity
8
vector0
6
ByLayer
62
3
370
-1
100
AcDbLine
10
7.35217
20
5.8181
11
7.35217
21
5.93621
0
LINE
5
63
100
AcDbEntity
8
vector0
6
ByLayer
62
3
370
-1
100
AcDbLine
10
7.35217
20
5.93621
11
8.10217
21
5.93621
0
LINE
5
64
100
AcDbEntity
8
vector0
6
ByLayer
62
3
370
-1
100
AcDbLine
10
8.10217
20
5.93621
11
8.10217
21
5.8181
0
LINE
5
65
100
AcDbEntity
8
vector0
6
ByLayer
62
3
370
-1
100
AcDbLine
10
8.10217
20
0.59999
11
7.35217
21
0.59999
0
LINE
5
66
100
AcDbEntity
8
vector0
6
ByLayer
62
3
370
-1
100
AcDbLine
10
7.35217
20
0.59999
11
7.35217
21
0.7181
0
LINE
5
67
100
AcDbEntity
8
vector0
6
ByLayer
62
3
370
-1
100
AcDbLine
10
7.35217
20
0.7181
11
8.10217
21
0.7181
0
LINE
5
68
100
AcDbEntity
8
vector0
6
ByLayer
62
3
370
-1
100
AcDbLine
10
8.10217
20
0.7181
11
8.10217
21
0.59999
0
LINE
5
69
100
AcDbEntity
8
vector0
6
ByLayer
62
3
370
-1
100
AcDbLine
10
8.68623
20
1.3631
11
8.56812
21
1.3631
0
LINE
5
6A
100
AcDbEntity
8
vector0
6
ByLayer
62
3
370
-1
100
AcDbLine
10
8.56812
20
1.3631
11
8.56812
21
2.1131
0
LINE
5
6B
100
AcDbEntity
8
vector0
6
ByLayer
62
3
370
-1
100
AcDbLine
10
8.56812
20
2.1131
11
8.68623
21
2.1131
0
LINE
5
6C
100
AcDbEntity
8
vector0
6
ByLayer
62
3
370
-1
100
AcDbLine
10
8.68623
20
2.1131
11
8.68623
21
1.3631
0
LINE
5
6D
100
AcDbEntity
8
vector0
6
ByLayer
62
3
370
-1
100
AcDbLine
10
8.68623
20
4.4231
11
8.56812
21
4.4231
0
LINE
5
6E
100
AcDbEntity
8
vector0
6
ByLayer
62
3
370
-1
100
AcDbLine
10
8.56812
20
4.4231
11
8.56812
21
5.1731
0
LINE
5
6F
100
AcDbEntity
8
vector0
6
ByLayer
62
3
370
-1
100
AcDbLine
10
8.56812
20
5.1731
11
8.68623
21
5.1731
0
LINE
5
70
100
AcDbEntity
8
vector0
6
ByLayer
62
3
370
-1
100
AcDbLine
10
8.68623
20
5.1731
11
8.68623
21
4.4231
0
LINE
5
71
100
AcDbEntity
8
vector0
6
ByLayer
62
3
370
-1
100
AcDbLine
10
8.68623
20
2.8931
11
8.56812
21
2.8931
0
LINE
5
72
100
AcDbEntity
8
vector0
6
ByLayer
62
3
370
-1
100
AcDbLine
10
8.56812
20
2.8931
11
8.56812
21
3.6431
0
LINE
5
73
100
AcDbEntity
8
vector0
6
ByLayer
62
3
370
-1
100
AcDbLine
10
8.56812
20
3.6431
11
8.68623
21
3.6431
0
LINE
5
74
100
AcDbEntity
8
vector0
6
ByLayer
62
3
370
-1
100
AcDbLine
10
8.68623
20
3.6431
11
8.68623
21
2.8931
0
ARC
5
75
100
AcDbEntity
8
vector0
6
ByLayer
62
3
370
-1
100
AcDbCircle
10
4.9
20
0.65
40
0.15
100
AcDbArc
50
180
51
270
0
LINE
5
76
100
AcDbEntity
8
vector0
6
ByLayer
62
3
370
-1
100
AcDbLine
10
4.75
20
5.8862
11
4.75
21
0.65
0
ARC
5
77
100
AcDbEntity
8
vector0
6
ByLayer
62
3
370
-1
100
AcDbCircle
10
4.9
20
5.8862
40
0.15
100
AcDbArc
50
90
51
180
0
LINE
5
78
100
AcDbEntity
8
vector0
6
ByLayer
62
3
370
-1
100
AcDbLine
10
4.9
20
0.5
11
8.63603
21
0.5
0
ARC
5
79
100
AcDbEntity
8
vector0
6
ByLayer
62
3
370
-1
100
AcDbCircle
10
8.63603
20
0.65
40
0.15
100
AcDbArc
50
270
51
360
0
LINE
5
7A
100
AcDbEntity
8
vector0
6
ByLayer
62
3
370
-1
100
AcDbLine
10
8.78603
20
0.65
11
8.78603
21
5.8862
0
LINE
5
7B
100
AcDbEntity
8
vector0
6
ByLayer
62
3
370
-1
100
AcDbLine
10
8.63603
20
6.0362
11
4.9
21
6.0362
0
ARC
5
7C
100
AcDbEntity
8
vector0
6
ByLayer
62
3
370
-1
100
AcDbCircle
10
8.63603
20
5.8862
40
0.15
100
AcDbArc
50
360
51
90
0
CIRCLE
5
7D
100
AcDbEntity
8
vector0
6
ByLayer
62
256
370
-1
100
AcDbCircle
10
5.167915
20
0.9181
40
0.058
0
CIRCLE
5
7E
100
AcDbEntity
8
vector0
6
ByLayer
62
256
370
-1
100
AcDbCircle
10
5.167915
20
5.6181
40
0.058
0
CIRCLE
5
7F
100
AcDbEntity
8
vector0
6
ByLayer
62
256
370
-1
100
AcDbCircle
10
8.367915
20
0.9181
40
0.058
0
CIRCLE
5
80
100
AcDbEntity
8
vector0
6
ByLayer
62
256
370
-1
100
AcDbCircle
10
8.367915
20
5.6181
40
0.058
0
LINE
5
81
100
AcDbEntity
8
vector0
6
ByLayer
62
3
370
-1
100
AcDbLine
10
0.7321
20
4.4231
11
0.61399
21
4.4231
0
LINE
5
82
100
AcDbEntity
8
vector0
6
ByLayer
62
3
370
-1
100
AcDbLine
10
0.61399
20
4.4231
11
0.61399
21
5.1731
0
LINE
5
83
100
AcDbEntity
8
vector0
6
ByLayer
62
3
370
-1
100
AcDbLine
10
0.61399
20
5.1731
11
0.7321
21
5.1731
0
LINE
5
84
100
AcDbEntity
8
vector0
6
ByLayer
62
3
370
-1
100
AcDbLine
10
0.7321
20
5.1731
11
0.7321
21
4.4231
0
LINE
5
85
100
AcDbEntity
8
vector0
6
ByLayer
62
3
370
-1
100
AcDbLine
10
0.7321
20
2.8931
11
0.61399
21
2.8931
0
LINE
5
86
100
AcDbEntity
8
vector0
6
ByLayer
62
3
370
-1
100
AcDbLine
10
0.61399
20
2.8931
11
0.61399
21
3.6431
0
LINE
5
87
100
AcDbEntity
8
vector0
6
ByLayer
62
3
370
-1
100
AcDbLine
10
0.61399
20
3.6431
11
0.7321
21
3.6431
0
LINE
5
88
100
AcDbEntity
8
vector0
6
ByLayer
62
3
370
-1
100
AcDbLine
10
0.7321
20
3.6431
11
0.7321
21
2.8931
0
LINE
5
89
100
AcDbEntity
8
vector0
6
ByLayer
62
3
370
-1
100
AcDbLine
10
0.7321
20
1.3631
11
0.61399
21
1.3631
0
LINE
5
8A
100
AcDbEntity
8
vector0
6
ByLayer
62
3
370
-1
100
AcDbLine
10
0.61399
20
1.3631
11
0.61399
21
2.1131
0
LINE
5
8B
100
AcDbEntity
8
vector0
6
ByLayer
62
3
370
-1
100
AcDbLine
10
0.61399
20
2.1131
11
0.7321
21
2.1131
0
LINE
5
8C
100
AcDbEntity
8
vector0
6
ByLayer
62
3
370
-1
100
AcDbLine
10
0.7321
20
2.1131
11
0.7321
21
1.3631
0
LINE
5
8D
100
AcDbEntity
8
vector0
6
ByLayer
62
3
370
-1
100
AcDbLine
10
1.948055
20
5.8181
11
1.19805
21
5.8181
0
LINE
5
8E
100
AcDbEntity
8
vector0
6
ByLayer
62
3
370
-1
100
AcDbLine
10
1.19805
20
5.8181
11
1.19805
21
5.93621
0
LINE
5
8F
100
AcDbEntity
8
vector0
6
ByLayer
62
3
370
-1
100
AcDbLine
10
1.19805
20
5.93621
11
1.948055
21
5.93621
0
LINE
5
90
100
AcDbEntity
8
vector0
6
ByLayer
62
3
370
-1
100
AcDbLine
10
1.948055
20
5.93621
11
1.948055
21
5.8181
0
LINE
5
91
100
AcDbEntity
8
vector0
6
ByLayer
62
3
370
-1
100
AcDbLine
10
1.948055
20
0.59999
11
1.19805
21
0.59999
0
LINE
5
92
100
AcDbEntity
8
vector0
6
ByLayer
62
3
370
-1
100
AcDbLine
10
1.19805
20
0.59999
11
1.19805
21
0.7181
0
LINE
5
93
100
AcDbEntity
8
vector0
6
ByLayer
62
3
370
-1
100
AcDbLine
10
1.19805
20
0.7181
11
1.948055
21
0.7181
0
LINE
5
94
100
AcDbEntity
8
vector0
6
ByLayer
62
3
370
-1
100
AcDbLine
10
1.948055
20
0.7181
11
1.948055
21
0.59999
0
LINE
5
95
100
AcDbEntity
8
vector0
6
ByLayer
62
3
370
-1
100
AcDbLine
10
3.86615
20
5.8181
11
3.116145
21
5.8181
0
LINE
5
96
100
AcDbEntity
8
vector0
6
ByLayer
62
3
370
-1
100
AcDbLine
10
3.116145
20
5.8181
11
3.116145
21
5.93621
0
LINE
5
97
100
AcDbEntity
8
vector0
6
ByLayer
62
3
370
-1
100
AcDbLine
10
3.116145
20
5.93621
11
3.86615
21
5.93621
0
LINE
5
98
100
AcDbEntity
8
vector0
6
ByLayer
62
3
370
-1
100
AcDbLine
10
3.86615
20
5.93621
11
3.86615
21
5.8181
0
LINE
5
99
100
AcDbEntity
8
vector0
6
ByLayer
62
3
370
-1
100
AcDbLine
10
3.86615
20
0.59999
11
3.116145
21
0.59999
0
LINE
5
9A
100
AcDbEntity
8
vector0
6
ByLayer
62
3
370
-1
100
AcDbLine
10
3.116145
20
0.59999
11
3.116145
21
0.7181
0
LINE
5
9B
100
AcDbEntity
8
vector0
6
ByLayer
62
3
370
-1
100
AcDbLine
10
3.116145
20
0.7181
11
3.86615
21
0.7181
0
LINE
5
9C
100
AcDbEntity
8
vector0
6
ByLayer
62
3
370
-1
100
AcDbLine
10
3.86615
20
0.7181
11
3.86615
21
0.59999
0
LINE
5
9D
100
AcDbEntity
8
vector0
6
ByLayer
62
3
370
-1
100
AcDbLine
10
4.45021
20
4.4231
11
4.3321
21
4.4231
0
LINE
5
9E
100
AcDbEntity
8
vector0
6
ByLayer
62
3
370
-1
100
AcDbLine
10
4.3321
20
4.4231
11
4.3321
21
5.1731
0
LINE
5
9F
100
AcDbEntity
8
vector0
6
ByLayer
62
3
370
-1
100
AcDbLine
10
4.3321
20
5.1731
11
4.45021
21
5.1731
0
LINE
5
A0
100
AcDbEntity
8
vector0
6
ByLayer
62
3
370
-1
100
AcDbLine
10
4.45021
20
5.1731
11
4.45021
21
4.4231
0
LINE
5
A1
100
AcDbEntity
8
vector0
6
ByLayer
62
3
370
-1
100
AcDbLine
10
4.45021
20
1.3631
11
4.3321
21
1.3631
0
LINE
5
A2
100
AcDbEntity
8
vector0
6
ByLayer
62
3
370
-1
100
AcDbLine
10
4.3321
20
1.3631
11
4.3321
21
2.1131
0
LINE
5
A3
100
AcDbEntity
8
vector0
6
ByLayer
62
3
370
-1
100
AcDbLine
10
4.3321
20
2.1131
11
4.45021
21
2.1131
0
LINE
5
A4
100
AcDbEntity
8
vector0
6
ByLayer
62
3
370
-1
100
AcDbLine
10
4.45021
20
2.1131
11
4.45021
21
1.3631
0
LINE
5
A5
100
AcDbEntity
8
vector0
6
ByLayer
62
3
370
-1
100
AcDbLine
10
4.45021
20
2.8931
11
4.3321
21
2.8931
0
LINE
5
A6
100
AcDbEntity
8
vector0
6
ByLayer
62
3
370
-1
100
AcDbLine
10
4.3321
20
2.8931
11
4.3321
21
3.6431
0
LINE
5
A7
100
AcDbEntity
8
vector0
6
ByLayer
62
3
370
-1
100
AcDbLine
10
4.3321
20
3.6431
11
4.45021
21
3.6431
0
LINE
5
A8
100
AcDbEntity
8
vector0
6
ByLayer
62
3
370
-1
100
AcDbLine
10
4.45021
20
3.6431
11
4.45021
21
2.8931
0
ARC
5
A9
100
AcDbEntity
8
vector0
6
ByLayer
62
3
370
-1
100
AcDbCircle
10
0.664
20
0.65
40
0.15
100
AcDbArc
50
180
51
270
0
LINE
5
AA
100
AcDbEntity
8
vector0
6
ByLayer
62
3
370
-1
100
AcDbLine
10
0.514
20
5.8862
11
0.514
21
0.65
0
ARC
5
AB
100
AcDbEntity
8
vector0
6
ByLayer
62
3
370
-1
100
AcDbCircle
10
0.664
20
5.8862
40
0.15
100
AcDbArc
50
90
51
180
0
LINE
5
AC
100
AcDbEntity
8
vector0
6
ByLayer
62
3
370
-1
100
AcDbLine
10
4.4
20
6.0362
11
0.664
21
6.0362
0
ARC
5
AD
100
AcDbEntity
8
vector0
6
ByLayer
62
3
370
-1
100
AcDbCircle
10
4.4
20
5.8862
40
0.15
100
AcDbArc
50
360
51
90
0
LINE
5
AE
100
AcDbEntity
8
vector0
6
ByLayer
62
3
370
-1
100
AcDbLine
10
0.664
20
0.5
11
4.4
21
0.5
0
LINE
5
AF
100
AcDbEntity
8
vector0
6
ByLayer
62
3
370
-1
100
AcDbLine
10
4.55
20
0.65
11
4.55
21
5.8862
0
ARC
5
B0
100
AcDbEntity
8
vector0
6
ByLayer
62
3
370
-1
100
AcDbCircle
10
4.4
20
0.65
40
0.15
100
AcDbArc
50
270
51
360
0
CIRCLE
5
B1
100
AcDbEntity
8
vector0
6
ByLayer
62
256
370
-1
100
AcDbCircle
10
0.932
20
0.9181
40
0.058
0
CIRCLE
5
B2
100
AcDbEntity
8
vector0
6
ByLayer
62
256
370
-1
100
AcDbCircle
10
0.932
20
5.6181
40
0.058
0
CIRCLE
5
B3
100
AcDbEntity
8
vector0
6
ByLayer
62
256
370
-1
100
AcDbCircle
10
4.132
20
0.9181
40
0.058
0
CIRCLE
5
B4
100
AcDbEntity
8
vector0
6
ByLayer
62
256
370
-1
100
AcDbCircle
10
4.132
20
5.6181
40
0.058
0
LINE
5
B5
100
AcDbEntity
8
vector0
6
ByLayer
62
3
370
-1
100
AcDbLine
10
1.89499
20
6.3
11
2.67499
21
6.3
0
LINE
5
B6
100
AcDbEntity
8
vector0
6
ByLayer
62
3
370
-1
100
AcDbLine
10
2.67499
20
6.3
11
2.67499
21
6.18188
0
LINE
5
B7
100
AcDbEntity
8
vector0
6
ByLayer
62
3
370
-1
100
AcDbLine
10
2.67499
20
6.18188
11
3.42499
21
6.18188
0
LINE
5
B8
100
AcDbEntity
8
vector0
6
ByLayer
62
3
370
-1
100
AcDbLine
10
3.42499
20
6.18188
11
3.42499
21
6.3
0
LINE
5
B9
100
AcDbEntity
8
vector0
6
ByLayer
62
3
370
-1
100
AcDbLine
10
3.42499
20
6.3
11
4.20499
21
6.3
0
LINE
5
BA
100
AcDbEntity
8
vector0
6
ByLayer
62
3
370
-1
100
AcDbLine
10
4.20499
20
6.3
11
4.20499
21
6.18188
0
LINE
5
BB
100
AcDbEntity
8
vector0
6
ByLayer
62
3
370
-1
100
AcDbLine
10
4.20499
20
6.18188
11
4.95499
21
6.18188
0
LINE
5
BC
100
AcDbEntity
8
vector0
6
ByLayer
62
3
370
-1
100
AcDbLine
10
4.95499
20
6.18188
11
4.95499
21
6.3
0
LINE
5
BD
100
AcDbEntity
8
vector0
6
ByLayer
62
3
370
-1
100
AcDbLine
10
4.95499
20
6.3
11
5.59998
21
6.3
0
LINE
5
BE
100
AcDbEntity
8
vector0
6
ByLayer
62
3
370
-1
100
AcDbLine
10
5.59998
20
6.3
11
5.59998
21
6.76849
0
LINE
5
BF
100
AcDbEntity
8
vector0
6
ByLayer
62
3
370
-1
100
AcDbLine
10
5.59998
20
6.76849
11
5.7181
21
6.76849
0
LINE
5
C0
100
AcDbEntity
8
vector0
6
ByLayer
62
3
370
-1
100
AcDbLine
10
5.7181
20
6.76849
11
5.7181
21
7.26849
0
LINE
5
C1
100
AcDbEntity
8
vector0
6
ByLayer
62
3
370
-1
100
AcDbLine
10
5.7181
20
7.26849
11
5.59998
21
7.26849
0
LINE
5
C2
100
AcDbEntity
8
vector0
6
ByLayer
62
3
370
-1
100
AcDbLine
10
5.59998
20
7.26849
11
5.59998
21
7.73699
0
LINE
5
C3
100
AcDbEntity
8
vector0
6
ByLayer
62
3
370
-1
100
AcDbLine
10
5.59998
20
7.73699
11
4.95499
21
7.73699
0
LINE
5
C4
100
AcDbEntity
8
vector0
6
ByLayer
62
3
370
-1
100
AcDbLine
10
4.95499
20
7.73699
11
4.95499
21
7.8551
0
LINE
5
C5
100
AcDbEntity
8
vector0
6
ByLayer
62
3
370
-1
100
AcDbLine
10
4.95499
20
7.8551
11
4.20499
21
7.8551
0
LINE
5
C6
100
AcDbEntity
8
vector0
6
ByLayer
62
3
370
-1
100
AcDbLine
10
4.20499
20
7.8551
11
4.20499
21
7.73699
0
LINE
5
C7
100
AcDbEntity
8
vector0
6
ByLayer
62
3
370
-1
100
AcDbLine
10
4.20499
20
7.73699
11
3.42499
21
7.73699
0
LINE
5
C8
100
AcDbEntity
8
vector0
6
ByLayer
62
3
370
-1
100
AcDbLine
10
3.42499
20
7.73699
11
3.42499
21
7.8551
0
LINE
5
C9
100
AcDbEntity
8
vector0
6
ByLayer
62
3
370
-1
100
AcDbLine
10
3.42499
20
7.8551
11
2.67499
21
7.8551
0
LINE
5
CA
100
AcDbEntity
8
vector0
6
ByLayer
62
3
370
-1
100
AcDbLine
10
2.67499
20
7.8551
11
2.67499
21
7.73699
0
LINE
5
CB
100
AcDbEntity
8
vector0
6
ByLayer
62
3
370
-1
100
AcDbLine
10
2.67499
20
7.73699
11
1.89499
21
7.73699
0
LINE
5
CC
100
AcDbEntity
8
vector0
6
ByLayer
62
3
370
-1
100
AcDbLine
10
1.89499
20
7.73699
11
1.89499
21
7.8551
0
LINE
5
CD
100
AcDbEntity
8
vector0
6
ByLayer
62
3
370
-1
100
AcDbLine
10
1.89499
20
7.8551
11
1.14499
21
7.8551
0
LINE
5
CE
100
AcDbEntity
8
vector0
6
ByLayer
62
3
370
-1
100
AcDbLine
10
1.14499
20
7.8551
11
1.14499
21
7.73699
0
LINE
5
CF
100
AcDbEntity
8
vector0
6
ByLayer
62
3
370
-1
100
AcDbLine
10
1.14499
20
7.73699
11
0.5
21
7.73699
0
LINE
5
D0
100
AcDbEntity
8
vector0
6
ByLayer
62
3
370
-1
100
AcDbLine
10
0.5
20
7.73699
11
0.5
21
7.26849
0
LINE
5
D1
100
AcDbEntity
8
vector0
6
ByLayer
62
3
370
-1
100
AcDbLine
10
0.5
20
7.26849
11
0.38188
21
7.26849
0
LINE
5
D2
100
AcDbEntity
8
vector0
6
ByLayer
62
3
370
-1
100
AcDbLine
10
0.38188
20
7.26849
11
0.38188
21
6.76849
0
LINE
5
D3
100
AcDbEntity
8
vector0
6
ByLayer
62
3
370
-1
100
AcDbLine
10
0.38188
20
6.76849
11
0.5
21
6.76849
0
LINE
5
D4
100
AcDbEntity
8
vector0
6
ByLayer
62
3
370
-1
100
AcDbLine
10
0.5
20
6.76849
11
0.5
21
6.3
0
LINE
5
D5
100
AcDbEntity
8
vector0
6
ByLayer
62
3
370
-1
100
AcDbLine
10
0.5
20
6.3
11
1.14499
21
6.3
0
LINE
5
D6
100
AcDbEntity
8
vector0
6
ByLayer
62
3
370
-1
100
AcDbLine
10
1.14499
20
6.3
11
1.14499
21
6.18188
0
LINE
5
D7
100
AcDbEntity
8
vector0
6
ByLayer
62
3
370
-1
100
AcDbLine
10
1.14499
20
6.18188
11
1.89499
21
6.18188
0
LINE
5
D8
100
AcDbEntity
8
vector0
6
ByLayer
62
3
370
-1
100
AcDbLine
10
1.89499
20
6.18188
11
1.89499
21
6.3
0
ARC
5
D9
100
AcDbEntity
8
vector0
6
ByLayer
62
256
370
-1
100
AcDbCircle
10
3.37499
20
7.387
40
0.05
100
AcDbArc
50
90
51
180
0
LINE
5
DA
100
AcDbEntity
8
vector0
6
ByLayer
62
256
370
-1
100
AcDbLine
10
3.37499
20
7.437
11
4.02499
21
7.437
0
ARC
5
DB
100
AcDbEntity
8
vector0
6
ByLayer
62
256
370
-1
100
AcDbCircle
10
4.02499
20
7.387
40
0.05
100
AcDbArc
50
0
51
90
0
LINE
5
DC
100
AcDbEntity
8
vector0
6
ByLayer
62
256
370
-1
100
AcDbLine
10
4.07499
20
7.387
11
4.07499
21
7.087
0
ARC
5
DD
100
AcDbEntity
8
vector0
6
ByLayer
62
256
370
-1
100
AcDbCircle
10
4.02499
20
7.087
40
0.05
100
AcDbArc
50
270
51
0
0
LINE
5
DE
100
AcDbEntity
8
vector0
6
ByLayer
62
256
370
-1
100
AcDbLine
10
4.02499
20
7.037
11
3.37499
21
7.037
0
LINE
5
DF
100
AcDbEntity
8
vector0
6
ByLayer
62
256
370
-1
100
AcDbLine
10
3.32499
20
7.087
11
3.32499
21
7.387
0
ARC
5
E0
100
AcDbEntity
8
vector0
6
ByLayer
62
256
370
-1
100
AcDbCircle
10
3.37499
20
7.087
40
0.05
100
AcDbArc
50
180
51
270
0
ARC
5
E1
100
AcDbEntity
8
vector0
6
ByLayer
62
256
370
-1
100
AcDbCircle
10
4.39499
20
7.387
40
0.05
100
AcDbArc
50
90
51
180
0
LINE
5
E2
100
AcDbEntity
8
vector0
6
ByLayer
62
256
370
-1
100
AcDbLine
10
4.39499
20
7.437
11
5.04499
21
7.437
0
ARC
5
E3
100
AcDbEntity
8
vector0
6
ByLayer
62
256
370
-1
100
AcDbCircle
10
5.04499
20
7.387
40
0.05
100
AcDbArc
50
0
51
90
0
LINE
5
E4
100
AcDbEntity
8
vector0
6
ByLayer
62
256
370
-1
100
AcDbLine
10
5.09499
20
7.387
11
5.09499
21
7.087
0
ARC
5
E5
100
AcDbEntity
8
vector0
6
ByLayer
62
256
370
-1
100
AcDbCircle
10
5.04499
20
7.087
40
0.05
100
AcDbArc
50
270
51
0
0
LINE
5
E6
100
AcDbEntity
8
vector0
6
ByLayer
62
256
370
-1
100
AcDbLine
10
5.04499
20
7.037
11
4.39499
21
7.037
0
LINE
5
E7
100
AcDbEntity
8
vector0
6
ByLayer
62
256
370
-1
100
AcDbLine
10
4.34499
20
7.087
11
4.34499
21
7.387
0
ARC
5
E8
100
AcDbEntity
8
vector0
6
ByLayer
62
256
370
-1
100
AcDbCircle
10
4.39499
20
7.087
40
0.05
100
AcDbArc
50
180
51
270
0
LINE
5
E9
100
AcDbEntity
8
vector0
6
ByLayer
62
3
370
-1
100
AcDbLine
10
10.63699
20
1.99499
11
10.63699
21
2.77499
0
LINE
5
EA
100
AcDbEntity
8
vector0
6
ByLayer
62
3
370
-1
100
AcDbLine
10
10.63699
20
2.77499
11
10.7551
21
2.77499
0
LINE
5
EB
100
AcDbEntity
8
vector0
6
ByLayer
62
3
370
-1
100
AcDbLine
10
10.7551
20
2.77499
11
10.7551
21
3.52499
0
LINE
5
EC
100
AcDbEntity
8
vector0
6
ByLayer
62
3
370
-1
100
AcDbLine
10
10.7551
20
3.52499
11
10.63699
21
3.52499
0
LINE
5
ED
100
AcDbEntity
8
vector0
6
ByLayer
62
3
370
-1
100
AcDbLine
10
10.63699
20
3.52499
11
10.63699
21
4.30499
0
LINE
5
EE
100
AcDbEntity
8
vector0
6
ByLayer
62
3
370
-1
100
AcDbLine
10
10.63699
20
4.30499
11
10.7551
21
4.30499
0
LINE
5
EF
100
AcDbEntity
8
vector0
6
ByLayer
62
3
370
-1
100
AcDbLine
10
10.7551
20
4.30499
11
10.7551
21
5.05499
0
LINE
5
F0
100
AcDbEntity
8
vector0
6
ByLayer
62
3
370
-1
100
AcDbLine
10
10.7551
20
5.05499
11
10.63699
21
5.05499
0
LINE
5
F1
100
AcDbEntity
8
vector0
6
ByLayer
62
3
370
-1
100
AcDbLine
10
10.63699
20
5.05499
11
10.63699
21
5.69998
0
LINE
5
F2
100
AcDbEntity
8
vector0
6
ByLayer
62
3
370
-1
100
AcDbLine
10
10.63699
20
5.69998
11
10.16849
21
5.69998
0
LINE
5
F3
100
AcDbEntity
8
vector0
6
ByLayer
62
3
370
-1
100
AcDbLine
10
10.16849
20
5.69998
11
10.16849
21
5.8181
0
LINE
5
F4
100
AcDbEntity
8
vector0
6
ByLayer
62
3
370
-1
100
AcDbLine
10
10.16849
20
5.8181
11
9.66849
21
5.8181
0
LINE
5
F5
100
AcDbEntity
8
vector0
6
ByLayer
62
3
370
-1
100
AcDbLine
10
9.66849
20
5.8181
11
9.66849
21
5.69998
0
LINE
5
F6
100
AcDbEntity
8
vector0
6
ByLayer
62
3
370
-1
100
AcDbLine
10
9.66849
20
5.69998
11
9.2
21
5.69998
0
LINE
5
F7
100
AcDbEntity
8
vector0
6
ByLayer
62
3
370
-1
100
AcDbLine
10
9.2
20
5.69998
11
9.2
21
5.05499
0
LINE
5
F8
100
AcDbEntity
8
vector0
6
ByLayer
62
3
370
-1
100
AcDbLine
10
9.2
20
5.05499
11
9.08188
21
5.05499
0
LINE
5
F9
100
AcDbEntity
8
vector0
6
ByLayer
62
3
370
-1
100
AcDbLine
10
9.08188
20
5.05499
11
9.08188
21
4.30499
0
LINE
5
FA
100
AcDbEntity
8
vector0
6
ByLayer
62
3
370
-1
100
AcDbLine
10
9.08188
20
4.30499
11
9.2
21
4.30499
0
LINE
5
FB
100
AcDbEntity
8
vector0
6
ByLayer
62
3
370
-1
100
AcDbLine
10
9.2
20
4.30499
11
9.2
21
3.52499
0
LINE
5
FC
100
AcDbEntity
8
vector0
6
ByLayer
62
3
370
-1
100
AcDbLine
10
9.2
20
3.52499
11
9.08188
21
3.52499
0
LINE
5
FD
100
AcDbEntity
8
vector0
6
ByLayer
62
3
370
-1
100
AcDbLine
10
9.08188
20
3.52499
11
9.08188
21
2.77499
0
LINE
5
FE
100
AcDbEntity
8
vector0
6
ByLayer
62
3
370
-1
100
AcDbLine
10
9.08188
20
2.77499
11
9.2
21
2.77499
0
LINE
5
FF
100
AcDbEntity
8
vector0
6
ByLayer
62
3
370
-1
100
AcDbLine
10
9.2
20
2.77499
11
9.2
21
1.99499
0
LINE
5
100
100
AcDbEntity
8
vector0
6
ByLayer
62
3
370
-1
100
AcDbLine
10
9.2
20
1.99499
11
9.08188
21
1.99499
0
LINE
5
101
100
AcDbEntity
8
vector0
6
ByLayer
62
3
370
-1
100
AcDbLine
10
9.08188
20
1.99499
11
9.08188
21
1.24499
0
LINE
5
102
100
AcDbEntity
8
vector0
6
ByLayer
62
3
370
-1
100
AcDbLine
10
9.08188
20
1.24499
11
9.2
21
1.24499
0
LINE
5
103
100
AcDbEntity
8
vector0
6
ByLayer
62
3
370
-1
100
AcDbLine
10
9.2
20
1.24499
11
9.2
21
0.6
0
LINE
5
104
100
AcDbEntity
8
vector0
6
ByLayer
62
3
370
-1
100
AcDbLine
10
9.2
20
0.6
11
9.66849
21
0.6
0
LINE
5
105
100
AcDbEntity
8
vector0
6
ByLayer
62
3
370
-1
100
AcDbLine
10
9.66849
20
0.6
11
9.66849
21
0.48188
0
LINE
5
106
100
AcDbEntity
8
vector0
6
ByLayer
62
3
370
-1
100
AcDbLine
10
9.66849
20
0.48188
11
10.16849
21
0.48188
0
LINE
5
107
100
AcDbEntity
8
vector0
6
ByLayer
62
3
370
-1
100
AcDbLine
10
10.16849
20
0.48188
11
10.16849
21
0.6
0
LINE
5
108
100
AcDbEntity
8
vector0
6
ByLayer
62
3
370
-1
100
AcDbLine
10
10.16849
20
0.6
11
10.63699
21
0.6
0
LINE
5
109
100
AcDbEntity
8
vector0
6
ByLayer
62
3
370
-1
100
AcDbLine
10
10.63699
20
0.6
11
10.63699
21
1.24499
0
LINE
5
10A
100
AcDbEntity
8
vector0
6
ByLayer
62
3
370
-1
100
AcDbLine
10
10.63699
20
1.24499
11
10.7551
21
1.24499
0
LINE
5
10B
100
AcDbEntity
8
vector0
6
ByLayer
62
3
370
-1
100
AcDbLine
10
10.7551
20
1.24499
11
10.7551
21
1.99499
0
LINE
5
10C
100
AcDbEntity
8
vector0
6
ByLayer
62
3
370
-1
100
AcDbLine
10
10.7551
20
1.99499
11
10.63699
21
1.99499
0
LINE
5
10D
100
AcDbEntity
8
vector0
6
ByLayer
62
3
370
-1
100
AcDbLine
10
9.58188
20
6.7685
11
9.58188
21
7.2685
0
LINE
5
10E
100
AcDbEntity
8
vector0
6
ByLayer
62
3
370
-1
100
AcDbLine
10
9.58188
20
7.2685
11
9.7
21
7.2685
0
LINE
5
10F
100
AcDbEntity
8
vector0
6
ByLayer
62
3
370
-1
100
AcDbLine
10
9.7
20
7.2685
11
9.7
21
7.73699
0
LINE
5
110
100
AcDbEntity
8
vector0
6
ByLayer
62
3
370
-1
100
AcDbLine
10
9.7
20
7.73699
11
9.11594
21
7.73699
0
LINE
5
111
100
AcDbEntity
8
vector0
6
ByLayer
62
3
370
-1
100
AcDbLine
10
9.11594
20
7.73699
11
9.11594
21
7.85511
0
LINE
5
112
100
AcDbEntity
8
vector0
6
ByLayer
62
3
370
-1
100
AcDbLine
10
9.11594
20
7.85511
11
8.365935
21
7.85511
0
LINE
5
113
100
AcDbEntity
8
vector0
6
ByLayer
62
3
370
-1
100
AcDbLine
10
8.365935
20
7.85511
11
8.365935
21
7.73699
0
LINE
5
114
100
AcDbEntity
8
vector0
6
ByLayer
62
3
370
-1
100
AcDbLine
10
8.365935
20
7.73699
11
7.197845
21
7.73699
0
LINE
5
115
100
AcDbEntity
8
vector0
6
ByLayer
62
3
370
-1
100
AcDbLine
10
7.197845
20
7.73699
11
7.197845
21
7.85511
0
LINE
5
116
100
AcDbEntity
8
vector0
6
ByLayer
62
3
370
-1
100
AcDbLine
10
7.197845
20
7.85511
11
6.44784
21
7.85511
0
LINE
5
117
100
AcDbEntity
8
vector0
6
ByLayer
62
3
370
-1
100
AcDbLine
10
6.44784
20
7.85511
11
6.44784
21
7.73699
0
LINE
5
118
100
AcDbEntity
8
vector0
6
ByLayer
62
3
370
-1
100
AcDbLine
10
6.44784
20
7.73699
11
5.86378
21
7.73699
0
LINE
5
119
100
AcDbEntity
8
vector0
6
ByLayer
62
3
370
-1
100
AcDbLine
10
5.86378
20
7.73699
11
5.86378
21
7.2685
0
LINE
5
11A
100
AcDbEntity
8
vector0
6
ByLayer
62
3
370
-1
100
AcDbLine
10
5.86378
20
7.2685
11
5.9819
21
7.2685
0
LINE
5
11B
100
AcDbEntity
8
vector0
6
ByLayer
62
3
370
-1
100
AcDbLine
10
5.9819
20
7.2685
11
5.9819
21
6.7685
0
LINE
5
11C
100
AcDbEntity
8
vector0
6
ByLayer
62
3
370
-1
100
AcDbLine
10
5.9819
20
6.7685
11
5.86378
21
6.7685
0
LINE
5
11D
100
AcDbEntity
8
vector0
6
ByLayer
62
3
370
-1
100
AcDbLine
10
5.86378
20
6.7685
11
5.86378
21
6.3
0
LINE
5
11E
100
AcDbEntity
8
vector0
6
ByLayer
62
3
370
-1
100
AcDbLine
10
5.86378
20
6.3
11
6.44784
21
6.3
0
LINE
5
11F
100
AcDbEntity
8
vector0
6
ByLayer
62
3
370
-1
100
AcDbLine
10
6.44784
20
6.3
11
6.44784
21
6.18189
0
LINE
5
120
100
AcDbEntity
8
vector0
6
ByLayer
62
3
370
-1
100
AcDbLine
10
6.44784
20
6.18189
11
7.197845
21
6.18189
0
LINE
5
121
100
AcDbEntity
8
vector0
6
ByLayer
62
3
370
-1
100
AcDbLine
10
7.197845
20
6.18189
11
7.197845
21
6.3
0
LINE
5
122
100
AcDbEntity
8
vector0
6
ByLayer
62
3
370
-1
100
AcDbLine
10
7.197845
20
6.3
11
8.365935
21
6.3
0
LINE
5
123
100
AcDbEntity
8
vector0
6
ByLayer
62
3
370
-1
100
AcDbLine
10
8.365935
20
6.3
11
8.365935
21
6.18189
0
LINE
5
124
100
AcDbEntity
8
vector0
6
ByLayer
62
3
370
-1
100
AcDbLine
10
8.365935
20
6.18189
11
9.11594
21
6.18189
0
LINE
5
125
100
AcDbEntity
8
vector0
6
ByLayer
62
3
370
-1
100
AcDbLine
10
9.11594
20
6.18189
11
9.11594
21
6.3
0
LINE
5
126
100
AcDbEntity
8
vector0
6
ByLayer
62
3
370
-1
100
AcDbLine
10
9.11594
20
6.3
11
9.7
21
6.3
0
LINE
5
127
100
AcDbEntity
8
vector0
6
ByLayer
62
3
370
-1
100
AcDbLine
10
9.7
20
6.3
11
9.7
21
6.7685
0
LINE
5
128
100
AcDbEntity
8
vector0
6
ByLayer
62
3
370
-1
100
AcDbLine
10
9.7
20
6.7685
11
9.58188
21
6.7685
0
ARC
5
129
100
AcDbEntity
8
vector0
6
ByLayer
62
256
370
-1
100
AcDbCircle
10
7.48179
20
6.93199
40
0.05
100
AcDbArc
50
180
51
270
0
LINE
5
12A
100
AcDbEntity
8
vector0
6
ByLayer
62
256
370
-1
100
AcDbLine
10
7.43179
20
6.93199
11
7.43179
21
7.43699
0
ARC
5
12B
100
AcDbEntity
8
vector0
6
ByLayer
62
256
370
-1
100
AcDbCircle
10
7.48179
20
7.43699
40
0.05
100
AcDbArc
50
90
51
180
0
LINE
5
12C
100
AcDbEntity
8
vector0
6
ByLayer
62
256
370
-1
100
AcDbLine
10
9.08179
20
6.88199
11
7.48179
21
6.88199
0
ARC
5
12D
100
AcDbEntity
8
vector0
6
ByLayer
62
256
370
-1
100
AcDbCircle
10
9.08179
20
6.93199
40
0.05
100
AcDbArc
50
270
51
360
0
LINE
5
12E
100
AcDbEntity
8
vector0
6
ByLayer
62
256
370
-1
100
AcDbLine
10
9.13179
20
7.43699
11
9.13179
21
6.93199
0
LINE
5
12F
100
AcDbEntity
8
vector0
6
ByLayer
62
256
370
-1
100
AcDbLine
10
7.48179
20
7.48699
11
9.08179
21
7.48699
0
ARC
5
130
100
AcDbEntity
8
vector0
6
ByLayer
62
256
370
-1
100
AcDbCircle
10
9.08179
20
7.43699
40
0.05
100
AcDbArc
50
360
51
90
0
ARC
5
131
100
AcDbEntity
8
vector0
6
ByLayer
62
256
370
-1
100
AcDbCircle
10
6.75179
20
7.14999
40
0.05
100
AcDbArc
50
180
51
270
0
LINE
5
132
100
AcDbEntity
8
vector0
6
ByLayer
62
256
370
-1
100
AcDbLine
10
6.70179
20
7.14999
11
6.70179
21
7.34999
0
ARC
5
133
100
AcDbEntity
8
vector0
6
ByLayer
62
256
370
-1
100
AcDbCircle
10
6.75179
20
7.34999
40
0.05
100
AcDbArc
50
90
51
180
0
LINE
5
134
100
AcDbEntity
8
vector0
6
ByLayer
62
256
370
-1
100
AcDbLine
10
6.75179
20
7.39999
11
7.05179
21
7.39999
0
ARC
5
135
100
AcDbEntity
8
vector0
6
ByLayer
62
256
370
-1
100
AcDbCircle
10
7.05179
20
7.34999
40
0.05
100
AcDbArc
50
360
51
90
0
LINE
5
136
100
AcDbEntity
8
vector0
6
ByLayer
62
256
370
-1
100
AcDbLine
10
7.10179
20
7.34999
11
7.10179
21
7.14999
0
LINE
5
137
100
AcDbEntity
8
vector0
6
ByLayer
62
256
370
-1
100
AcDbLine
10
7.05179
20
7.09999
11
6.75179
21
7.09999
0
ARC
5
138
100
AcDbEntity
8
vector0
6
ByLayer
62
256
370
-1
100
AcDbCircle
10
7.05179
20
7.14999
40
0.05
100
AcDbArc
50
270
51
360
0
LINE
5
139
100
AcDbEntity
8
vector0
6
ByLayer
62
3
370
-1
100
AcDbLine
10
11.46849
20
0.61812
11
11.96849
21
0.61812
0
LINE
5
13A
100
AcDbEntity
8
vector0
6
ByLayer
62
3
370
-1
100
AcDbLine
10
11.96849
20
0.61812
11
11.96849
21
0.5
0
LINE
5
13B
100
AcDbEntity
8
vector0
6
ByLayer
62
3
370
-1
100
AcDbLine
10
11.96849
20
0.5
11
12.43699
21
0.5
0
LINE
5
13C
100
AcDbEntity
8
vector0
6
ByLayer
62
3
370
-1
100
AcDbLine
10
12.43699
20
0.5
11
12.43699
21
1.08406
0
LINE
5
13D
100
AcDbEntity
8
vector0
6
ByLayer
62
3
370
-1
100
AcDbLine
10
12.43699
20
1.08406
11
12.5551
21
1.08406
0
LINE
5
13E
100
AcDbEntity
8
vector0
6
ByLayer
62
3
370
-1
100
AcDbLine
10
12.5551
20
1.08406
11
12.5551
21
1.834065
0
LINE
5
13F
100
AcDbEntity
8
vector0
6
ByLayer
62
3
370
-1
100
AcDbLine
10
12.5551
20
1.834065
11
12.43699
21
1.834065
0
LINE
5
140
100
AcDbEntity
8
vector0
6
ByLayer
62
3
370
-1
100
AcDbLine
10
12.43699
20
1.834065
11
12.43699
21
3.002155
0
LINE
5
141
100
AcDbEntity
8
vector0
6
ByLayer
62
3
370
-1
100
AcDbLine
10
12.43699
20
3.002155
11
12.5551
21
3.002155
0
LINE
5
142
100
AcDbEntity
8
vector0
6
ByLayer
62
3
370
-1
100
AcDbLine
10
12.5551
20
3.002155
11
12.5551
21
3.75216
0
LINE
5
143
100
AcDbEntity
8
vector0
6
ByLayer
62
3
370
-1
100
AcDbLine
10
12.5551
20
3.75216
11
12.43699
21
3.75216
0
LINE
5
144
100
AcDbEntity
8
vector0
6
ByLayer
62
3
370
-1
100
AcDbLine
10
12.43699
20
3.75216
11
12.43699
21
4.33622
0
LINE
5
145
100
AcDbEntity
8
vector0
6
ByLayer
62
3
370
-1
100
AcDbLine
10
12.43699
20
4.33622
11
11.96849
21
4.33622
0
LINE
5
146
100
AcDbEntity
8
vector0
6
ByLayer
62
3
370
-1
100
AcDbLine
10
11.96849
20
4.33622
11
11.96849
21
4.2181
0
LINE
5
147
100
AcDbEntity
8
vector0
6
ByLayer
62
3
370
-1
100
AcDbLine
10
11.96849
20
4.2181
11
11.46849
21
4.2181
0
LINE
5
148
100
AcDbEntity
8
vector0
6
ByLayer
62
3
370
-1
100
AcDbLine
10
11.46849
20
4.2181
11
11.46849
21
4.33622
0
LINE
5
149
100
AcDbEntity
8
vector0
6
ByLayer
62
3
370
-1
100
AcDbLine
10
11.46849
20
4.33622
11
11
21
4.33622
0
LINE
5
14A
100
AcDbEntity
8
vector0
6
ByLayer
62
3
370
-1
100
AcDbLine
10
11
20
4.33622
11
11
21
3.75216
0
LINE
5
14B
100
AcDbEntity
8
vector0
6
ByLayer
62
3
370
-1
100
AcDbLine
10
11
20
3.75216
11
10.88188
21
3.75216
0
LINE
5
14C
100
AcDbEntity
8
vector0
6
ByLayer
62
3
370
-1
100
AcDbLine
10
10.88188
20
3.75216
11
10.88188
21
3.002155
0
LINE
5
14D
100
AcDbEntity
8
vector0
6
ByLayer
62
3
370
-1
100
AcDbLine
10
10.88188
20
3.002155
11
11
21
3.002155
0
LINE
5
14E
100
AcDbEntity
8
vector0
6
ByLayer
62
3
370
-1
100
AcDbLine
10
11
20
3.002155
11
11
21
1.834065
0
LINE
5
14F
100
AcDbEntity
8
vector0
6
ByLayer
62
3
370
-1
100
AcDbLine
10
11
20
1.834065
11
10.88188
21
1.834065
0
LINE
5
150
100
AcDbEntity
8
vector0
6
ByLayer
62
3
370
-1
100
AcDbLine
10
10.88188
20
1.834065
11
10.88188
21
1.08406
0
LINE
5
151
100
AcDbEntity
8
vector0
6
ByLayer
62
3
370
-1
100
AcDbLine
10
10.88188
20
1.08406
11
11
21
1.08406
0
LINE
5
152
100
AcDbEntity
8
vector0
6
ByLayer
62
3
370
-1
100
AcDbLine
10
11
20
1.08406
11
11
21
0.5
0
LINE
5
153
100
AcDbEntity
8
vector0
6
ByLayer
62
3
370
-1
100
AcDbLine
10
11
20
0.5
11
11.46849
21
0.5
0
LINE
5
154
100
AcDbEntity
8
vector0
6
ByLayer
62
3
370
-1
100
AcDbLine
10
11.46849
20
0.5
11
11.46849
21
0.61812
0
ARC
5
155
100
AcDbEntity
8
vector0
6
ByLayer
62
256
370
-1
100
AcDbCircle
10
11.862
20
2.28821
40
0.05
100
AcDbArc
50
90
51
180
0
LINE
5
156
100
AcDbEntity
8
vector0
6
ByLayer
62
256
370
-1
100
AcDbLine
10
11.862
20
2.33821
11
12.212
21
2.33821
0
ARC
5
157
100
AcDbEntity
8
vector0
6
ByLayer
62
256
370
-1
100
AcDbCircle
10
12.212
20
2.28821
40
0.05
100
AcDbArc
50
0
51
90
0
LINE
5
158
100
AcDbEntity
8
vector0
6
ByLayer
62
256
370
-1
100
AcDbLine
10
12.262
20
2.28821
11
12.262
21
1.88821
0
ARC
5
159
100
AcDbEntity
8
vector0
6
ByLayer
62
256
370
-1
100
AcDbCircle
10
12.212
20
1.88821
40
0.05
100
AcDbArc
50
270
51
0
0
LINE
5
15A
100
AcDbEntity
8
vector0
6
ByLayer
62
256
370
-1
100
AcDbLine
10
12.212
20
1.83821
11
11.862
21
1.83821
0
LINE
5
15B
100
AcDbEntity
8
vector0
6
ByLayer
62
256
370
-1
100
AcDbLine
10
11.812
20
1.88821
11
11.812
21
2.28821
0
ARC
5
15C
100
AcDbEntity
8
vector0
6
ByLayer
62
256
370
-1
100
AcDbCircle
10
11.862
20
1.88821
40
0.05
100
AcDbArc
50
180
51
270
0
LINE
5
15D
100
AcDbEntity
8
lasercutter
6
ByLayer
62
256
370
-1
100
AcDbLine
10
0
20
0
11
35
21
0
0
LINE
5
15E
100
AcDbEntity
8
lasercutter
6
ByLayer
62
256
370
-1
100
AcDbLine
10
35
20
0
11
35
21
23
0
LINE
5
15F
100
AcDbEntity
8
lasercutter
6
ByLayer
62
256
370
-1
100
AcDbLine
10
35
20
23
11
0
21
23
0
LINE
5
160
100
AcDbEntity
8
lasercutter
6
ByLayer
62
256
370
-1
100
AcDbLine
10
0
20
23
11
0
21
0
0
LINE
5
161
100
AcDbEntity
8
material
6
ByLayer
62
256
370
-1
100
AcDbLine
10
0
20
0
11
24
21
0
0
LINE
5
162
100
AcDbEntity
8
material
6
ByLayer
62
256
370
-1
100
AcDbLine
10
24
20
0
11
24
21
24
0
LINE
5
163
100
AcDbEntity
8
material
6
ByLayer
62
256
370
-1
100
AcDbLine
10
24
20
24
11
0
21
24
0
LINE
5
164
100
AcDbEntity
8
material
6
ByLayer
62
256
370
-1
100
AcDbLine
10
0
20
24
11
0
21
0
0
LINE
5
165
100
AcDbEntity
8
vector1
6
ByLayer
62
256
370
-1
100
AcDbLine
10
4.96811
20
11.0931
11
4.84999
21
11.0931
0
LINE
5
166
100
AcDbEntity
8
vector1
6
ByLayer
62
256
370
-1
100
AcDbLine
10
4.84999
20
11.0931
11
4.84999
21
11.8431
0
LINE
5
167
100
AcDbEntity
8
vector1
6
ByLayer
62
256
370
-1
100
AcDbLine
10
4.84999
20
11.8431
11
4.96811
21
11.8431
0
LINE
5
168
100
AcDbEntity
8
vector1
6
ByLayer
62
256
370
-1
100
AcDbLine
10
4.96811
20
11.8431
11
4.96811
21
11.0931
0
LINE
5
169
100
AcDbEntity
8
vector1
6
ByLayer
62
256
370
-1
100
AcDbLine
10
4.96811
20
9.5631
11
4.84999
21
9.5631
0
LINE
5
16A
100
AcDbEntity
8
vector1
6
ByLayer
62
256
370
-1
100
AcDbLine
10
4.84999
20
9.5631
11
4.84999
21
10.3131
0
LINE
5
16B
100
AcDbEntity
8
vector1
6
ByLayer
62
256
370
-1
100
AcDbLine
10
4.84999
20
10.3131
11
4.96811
21
10.3131
0
LINE
5
16C
100
AcDbEntity
8
vector1
6
ByLayer
62
256
370
-1
100
AcDbLine
10
4.96811
20
10.3131
11
4.96811
21
9.5631
0
LINE
5
16D
100
AcDbEntity
8
vector1
6
ByLayer
62
256
370
-1
100
AcDbLine
10
4.96811
20
12.6231
11
4.84999
21
12.6231
0
LINE
5
16E
100
AcDbEntity
8
vector1
6
ByLayer
62
256
370
-1
100
AcDbLine
10
4.84999
20
12.6231
11
4.84999
21
13.3731
0
LINE
5
16F
100
AcDbEntity
8
vector1
6
ByLayer
62
256
370
-1
100
AcDbLine
10
4.84999
20
13.3731
11
4.96811
21
13.3731
0
LINE
5
170
100
AcDbEntity
8
vector1
6
ByLayer
62
256
370
-1
100
AcDbLine
10
4.96811
20
13.3731
11
4.96811
21
12.6231
0
LINE
5
171
100
AcDbEntity
8
vector1
6
ByLayer
62
256
370
-1
100
AcDbLine
10
6.18405
20
8.79999
11
5.43405
21
8.79999
0
LINE
5
172
100
AcDbEntity
8
vector1
6
ByLayer
62
256
370
-1
100
AcDbLine
10
5.43405
20
8.79999
11
5.43405
21
8.9181
0
LINE
5
173
100
AcDbEntity
8
vector1
6
ByLayer
62
256
370
-1
100
AcDbLine
10
5.43405
20
8.9181
11
6.18405
21
8.9181
0
LINE
5
174
100
AcDbEntity
8
vector1
6
ByLayer
62
256
370
-1
100
AcDbLine
10
6.18405
20
8.9181
11
6.18405
21
8.79999
0
LINE
5
175
100
AcDbEntity
8
vector1
6
ByLayer
62
256
370
-1
100
AcDbLine
10
6.18405
20
14.0181
11
5.43405
21
14.0181
0
LINE
5
176
100
AcDbEntity
8
vector1
6
ByLayer
62
256
370
-1
100
AcDbLine
10
5.43405
20
14.0181
11
5.43405
21
14.13621
0
LINE
5
177
100
AcDbEntity
8
vector1
6
ByLayer
62
256
370
-1
100
AcDbLine
10
5.43405
20
14.13621
11
6.18405
21
14.13621
0
LINE
5
178
100
AcDbEntity
8
vector1
6
ByLayer
62
256
370
-1
100
AcDbLine
10
6.18405
20
14.13621
11
6.18405
21
14.0181
0
LINE
5
179
100
AcDbEntity
8
vector1
6
ByLayer
62
256
370
-1
100
AcDbLine
10
8.10217
20
14.0181
11
7.35217
21
14.0181
0
LINE
5
17A
100
AcDbEntity
8
vector1
6
ByLayer
62
256
370
-1
100
AcDbLine
10
7.35217
20
14.0181
11
7.35217
21
14.13621
0
LINE
5
17B
100
AcDbEntity
8
vector1
6
ByLayer
62
256
370
-1
100
AcDbLine
10
7.35217
20
14.13621
11
8.10217
21
14.13621
0
LINE
5
17C
100
AcDbEntity
8
vector1
6
ByLayer
62
256
370
-1
100
AcDbLine
10
8.10217
20
14.13621
11
8.10217
21
14.0181
0
LINE
5
17D
100
AcDbEntity
8
vector1
6
ByLayer
62
256
370
-1
100
AcDbLine
10
8.10217
20
8.79999
11
7.35217
21
8.79999
0
LINE
5
17E
100
AcDbEntity
8
vector1
6
ByLayer
62
256
370
-1
100
AcDbLine
10
7.35217
20
8.79999
11
7.35217
21
8.9181
0
LINE
5
17F
100
AcDbEntity
8
vector1
6
ByLayer
62
256
370
-1
100
AcDbLine
10
7.35217
20
8.9181
11
8.10217
21
8.9181
0
LINE
5
180
100
AcDbEntity
8
vector1
6
ByLayer
62
256
370
-1
100
AcDbLine
10
8.10217
20
8.9181
11
8.10217
21
8.79999
0
LINE
5
181
100
AcDbEntity
8
vector1
6
ByLayer
62
256
370
-1
100
AcDbLine
10
8.68623
20
9.5631
11
8.56812
21
9.5631
0
LINE
5
182
100
AcDbEntity
8
vector1
6
ByLayer
62
256
370
-1
100
AcDbLine
10
8.56812
20
9.5631
11
8.56812
21
10.3131
0
LINE
5
183
100
AcDbEntity
8
vector1
6
ByLayer
62
256
370
-1
100
AcDbLine
10
8.56812
20
10.3131
11
8.68623
21
10.3131
0
LINE
5
184
100
AcDbEntity
8
vector1
6
ByLayer
62
256
370
-1
100
AcDbLine
10
8.68623
20
10.3131
11
8.68623
21
9.5631
0
LINE
5
185
100
AcDbEntity
8
vector1
6
ByLayer
62
256
370
-1
100
AcDbLine
10
8.68623
20
12.6231
11
8.56812
21
12.6231
0
LINE
5
186
100
AcDbEntity
8
vector1
6
ByLayer
62
256
370
-1
100
AcDbLine
10
8.56812
20
12.6231
11
8.56812
21
13.3731
0
LINE
5
187
100
AcDbEntity
8
vector1
6
ByLayer
62
256
370
-1
100
AcDbLine
10
8.56812
20
13.3731
11
8.68623
21
13.3731
0
LINE
5
188
100
AcDbEntity
8
vector1
6
ByLayer
62
256
370
-1
100
AcDbLine
10
8.68623
20
13.3731
11
8.68623
21
12.6231
0
LINE
5
189
100
AcDbEntity
8
vector1
6
ByLayer
62
256
370
-1
100
AcDbLine
10
8.68623
20
11.0931
11
8.56812
21
11.0931
0
LINE
5
18A
100
AcDbEntity
8
vector1
6
ByLayer
62
256
370
-1
100
AcDbLine
10
8.56812
20
11.0931
11
8.56812
21
11.8431
0
LINE
5
18B
100
AcDbEntity
8
vector1
6
ByLayer
62
256
370
-1
100
AcDbLine
10
8.56812
20
11.8431
11
8.68623
21
11.8431
0
LINE
5
18C
100
AcDbEntity
8
vector1
6
ByLayer
62
256
370
-1
100
AcDbLine
10
8.68623
20
11.8431
11
8.68623
21
11.0931
0
ARC
5
18D
100
AcDbEntity
8
vector1
6
ByLayer
62
256
370
-1
100
AcDbCircle
10
4.9
20
8.85
40
0.15
100
AcDbArc
50
180
51
270
0
LINE
5
18E
100
AcDbEntity
8
vector1
6
ByLayer
62
256
370
-1
100
AcDbLine
10
4.75
20
14.0862
11
4.75
21
8.85
0
ARC
5
18F
100
AcDbEntity
8
vector1
6
ByLayer
62
256
370
-1
100
AcDbCircle
10
4.9
20
14.0862
40
0.15
100
AcDbArc
50
90
51
180
0
LINE
5
190
100
AcDbEntity
8
vector1
6
ByLayer
62
256
370
-1
100
AcDbLine
10
4.9
20
8.7
11
8.63603
21
8.7
0
ARC
5
191
100
AcDbEntity
8
vector1
6
ByLayer
62
256
370
-1
100
AcDbCircle
10
8.63603
20
8.85
40
0.15
100
AcDbArc
50
270
51
360
0
LINE
5
192
100
AcDbEntity
8
vector1
6
ByLayer
62
256
370
-1
100
AcDbLine
10
8.78603
20
8.85
11
8.78603
21
14.0862
0
LINE
5
193
100
AcDbEntity
8
vector1
6
ByLayer
62
256
370
-1
100
AcDbLine
10
8.63603
20
14.2362
11
4.9
21
14.2362
0
ARC
5
194
100
AcDbEntity
8
vector1
6
ByLayer
62
256
370
-1
100
AcDbCircle
10
8.63603
20
14.0862
40
0.15
100
AcDbArc
50
360
51
90
0
CIRCLE
5
195
100
AcDbEntity
8
vector1
6
ByLayer
62
256
370
-1
100
AcDbCircle
10
5.167915
20
9.1181
40
0.058
0
CIRCLE
5
196
100
AcDbEntity
8
vector1
6
ByLayer
62
256
370
-1
100
AcDbCircle
10
5.167915
20
13.8181
40
0.058
0
CIRCLE
5
197
100
AcDbEntity
8
vector1
6
ByLayer
62
256
370
-1
100
AcDbCircle
10
8.367915
20
9.1181
40
0.058
0
CIRCLE
5
198
100
AcDbEntity
8
vector1
6
ByLayer
62
256
370
-1
100
AcDbCircle
10
8.367915
20
13.8181
40
0.058
0
LINE
5
199
100
AcDbEntity
8
vector1
6
ByLayer
62
256
370
-1
100
AcDbLine
10
0.7321
20
12.6231
11
0.61399
21
12.6231
0
LINE
5
19A
100
AcDbEntity
8
vector1
6
ByLayer
62
256
370
-1
100
AcDbLine
10
0.61399
20
12.6231
11
0.61399
21
13.3731
0
LINE
5
19B
100
AcDbEntity
8
vector1
6
ByLayer
62
256
370
-1
100
AcDbLine
10
0.61399
20
13.3731
11
0.7321
21
13.3731
0
LINE
5
19C
100
AcDbEntity
8
vector1
6
ByLayer
62
256
370
-1
100
AcDbLine
10
0.7321
20
13.3731
11
0.7321
21
12.6231
0
LINE
5
19D
100
AcDbEntity
8
vector1
6
ByLayer
62
256
370
-1
100
AcDbLine
10
0.7321
20
11.0931
11
0.61399
21
11.0931
0
LINE
5
19E
100
AcDbEntity
8
vector1
6
ByLayer
62
256
370
-1
100
AcDbLine
10
0.61399
20
11.0931
11
0.61399
21
11.8431
0
LINE
5
19F
100
AcDbEntity
8
vector1
6
ByLayer
62
256
370
-1
100
AcDbLine
10
0.61399
20
11.8431
11
0.7321
21
11.8431
0
LINE
5
1A0
100
AcDbEntity
8
vector1
6
ByLayer
62
256
370
-1
100
AcDbLine
10
0.7321
20
11.8431
11
0.7321
21
11.0931
0
LINE
5
1A1
100
AcDbEntity
8
vector1
6
ByLayer
62
256
370
-1
100
AcDbLine
10
0.7321
20
9.5631
11
0.61399
21
9.5631
0
LINE
5
1A2
100
AcDbEntity
8
vector1
6
ByLayer
62
256
370
-1
100
AcDbLine
10
0.61399
20
9.5631
11
0.61399
21
10.3131
0
LINE
5
1A3
100
AcDbEntity
8
vector1
6
ByLayer
62
256
370
-1
100
AcDbLine
10
0.61399
20
10.3131
11
0.7321
21
10.3131
0
LINE
5
1A4
100
AcDbEntity
8
vector1
6
ByLayer
62
256
370
-1
100
AcDbLine
10
0.7321
20
10.3131
11
0.7321
21
9.5631
0
LINE
5
1A5
100
AcDbEntity
8
vector1
6
ByLayer
62
256
370
-1
100
AcDbLine
10
1.948055
20
14.0181
11
1.19805
21
14.0181
0
LINE
5
1A6
100
AcDbEntity
8
vector1
6
ByLayer
62
256
370
-1
100
AcDbLine
10
1.19805
20
14.0181
11
1.19805
21
14.13621
0
LINE
5
1A7
100
AcDbEntity
8
vector1
6
ByLayer
62
256
370
-1
100
AcDbLine
10
1.19805
20
14.13621
11
1.948055
21
14.13621
0
LINE
5
1A8
100
AcDbEntity
8
vector1
6
ByLayer
62
256
370
-1
100
AcDbLine
10
1.948055
20
14.13621
11
1.948055
21
14.0181
0
LINE
5
1A9
100
AcDbEntity
8
vector1
6
ByLayer
62
256
370
-1
100
AcDbLine
10
1.948055
20
8.79999
11
1.19805
21
8.79999
0
LINE
5
1AA
100
AcDbEntity
8
vector1
6
ByLayer
62
256
370
-1
100
AcDbLine
10
1.19805
20
8.79999
11
1.19805
21
8.9181
0
LINE
5
1AB
100
AcDbEntity
8
vector1
6
ByLayer
62
256
370
-1
100
AcDbLine
10
1.19805
20
8.9181
11
1.948055
21
8.9181
0
LINE
5
1AC
100
AcDbEntity
8
vector1
6
ByLayer
62
256
370
-1
100
AcDbLine
10
1.948055
20
8.9181
11
1.948055
21
8.79999
0
LINE
5
1AD
100
AcDbEntity
8
vector1
6
ByLayer
62
256
370
-1
100
AcDbLine
10
3.86615
20
14.0181
11
3.116145
21
14.0181
0
LINE
5
1AE
100
AcDbEntity
8
vector1
6
ByLayer
62
256
370
-1
100
AcDbLine
10
3.116145
20
14.0181
11
3.116145
21
14.13621
0
LINE
5
1AF
100
AcDbEntity
8
vector1
6
ByLayer
62
256
370
-1
100
AcDbLine
10
3.116145
20
14.13621
11
3.86615
21
14.13621
0
LINE
5
1B0
100
AcDbEntity
8
vector1
6
ByLayer
62
256
370
-1
100
AcDbLine
10
3.86615
20
14.13621
11
3.86615
21
14.0181
0
LINE
5
1B1
100
AcDbEntity
8
vector1
6
ByLayer
62
256
370
-1
100
AcDbLine
10
3.86615
20
8.79999
11
3.116145
21
8.79999
0
LINE
5
1B2
100
AcDbEntity
8
vector1
6
ByLayer
62
256
370
-1
100
AcDbLine
10
3.116145
20
8.79999
11
3.116145
21
8.9181
0
LINE
5
1B3
100
AcDbEntity
8
vector1
6
ByLayer
62
256
370
-1
100
AcDbLine
10
3.116145
20
8.9181
11
3.86615
21
8.9181
0
LINE
5
1B4
100
AcDbEntity
8
vector1
6
ByLayer
62
256
370
-1
100
AcDbLine
10
3.86615
20
8.9181
11
3.86615
21
8.79999
0
LINE
5
1B5
100
AcDbEntity
8
vector1
6
ByLayer
62
256
370
-1
100
AcDbLine
10
4.45021
20
12.6231
11
4.3321
21
12.6231
0
LINE
5
1B6
100
AcDbEntity
8
vector1
6
ByLayer
62
256
370
-1
100
AcDbLine
10
4.3321
20
12.6231
11
4.3321
21
13.3731
0
LINE
5
1B7
100
AcDbEntity
8
vector1
6
ByLayer
62
256
370
-1
100
AcDbLine
10
4.3321
20
13.3731
11
4.45021
21
13.3731
0
LINE
5
1B8
100
AcDbEntity
8
vector1
6
ByLayer
62
256
370
-1
100
AcDbLine
10
4.45021
20
13.3731
11
4.45021
21
12.6231
0
LINE
5
1B9
100
AcDbEntity
8
vector1
6
ByLayer
62
256
370
-1
100
AcDbLine
10
4.45021
20
9.5631
11
4.3321
21
9.5631
0
LINE
5
1BA
100
AcDbEntity
8
vector1
6
ByLayer
62
256
370
-1
100
AcDbLine
10
4.3321
20
9.5631
11
4.3321
21
10.3131
0
LINE
5
1BB
100
AcDbEntity
8
vector1
6
ByLayer
62
256
370
-1
100
AcDbLine
10
4.3321
20
10.3131
11
4.45021
21
10.3131
0
LINE
5
1BC
100
AcDbEntity
8
vector1
6
ByLayer
62
256
370
-1
100
AcDbLine
10
4.45021
20
10.3131
11
4.45021
21
9.5631
0
LINE
5
1BD
100
AcDbEntity
8
vector1
6
ByLayer
62
256
370
-1
100
AcDbLine
10
4.45021
20
11.0931
11
4.3321
21
11.0931
0
LINE
5
1BE
100
AcDbEntity
8
vector1
6
ByLayer
62
256
370
-1
100
AcDbLine
10
4.3321
20
11.0931
11
4.3321
21
11.8431
0
LINE
5
1BF
100
AcDbEntity
8
vector1
6
ByLayer
62
256
370
-1
100
AcDbLine
10
4.3321
20
11.8431
11
4.45021
21
11.8431
0
LINE
5
1C0
100
AcDbEntity
8
vector1
6
ByLayer
62
256
370
-1
100
AcDbLine
10
4.45021
20
11.8431
11
4.45021
21
11.0931
0
ARC
5
1C1
100
AcDbEntity
8
vector1
6
ByLayer
62
256
370
-1
100
AcDbCircle
10
0.664
20
8.85
40
0.15
100
AcDbArc
50
180
51
270
0
LINE
5
1C2
100
AcDbEntity
8
vector1
6
ByLayer
62
256
370
-1
100
AcDbLine
10
0.514
20
14.0862
11
0.514
21
8.85
0
ARC
5
1C3
100
AcDbEntity
8
vector1
6
ByLayer
62
256
370
-1
100
AcDbCircle
10
0.664
20
14.0862
40
0.15
100
AcDbArc
50
90
51
180
0
LINE
5
1C4
100
AcDbEntity
8
vector1
6
ByLayer
62
256
370
-1
100
AcDbLine
10
4.4
20
14.2362
11
0.664
21
14.2362
0
ARC
5
1C5
100
AcDbEntity
8
vector1
6
ByLayer
62
256
370
-1
100
AcDbCircle
10
4.4
20
14.0862
40
0.15
100
AcDbArc
50
360
51
90
0
LINE
5
1C6
100
AcDbEntity
8
vector1
6
ByLayer
62
256
370
-1
100
AcDbLine
10
0.664
20
8.7
11
4.4
21
8.7
0
LINE
5
1C7
100
AcDbEntity
8
vector1
6
ByLayer
62
256
370
-1
100
AcDbLine
10
4.55
20
8.85
11
4.55
21
14.0862
0
ARC
5
1C8
100
AcDbEntity
8
vector1
6
ByLayer
62
256
370
-1
100
AcDbCircle
10
4.4
20
8.85
40
0.15
100
AcDbArc
50
270
51
360
0
CIRCLE
5
1C9
100
AcDbEntity
8
vector1
6
ByLayer
62
256
370
-1
100
AcDbCircle
10
0.932
20
9.1181
40
0.058
0
CIRCLE
5
1CA
100
AcDbEntity
8
vector1
6
ByLayer
62
256
370
-1
100
AcDbCircle
10
0.932
20
13.8181
40
0.058
0
CIRCLE
5
1CB
100
AcDbEntity
8
vector1
6
ByLayer
62
256
370
-1
100
AcDbCircle
10
4.132
20
9.1181
40
0.058
0
CIRCLE
5
1CC
100
AcDbEntity
8
vector1
6
ByLayer
62
256
370
-1
100
AcDbCircle
10
4.132
20
13.8181
40
0.058
0
LINE
5
1CD
100
AcDbEntity
8
vector1
6
ByLayer
62
256
370
-1
100
AcDbLine
10
1.89499
20
14.5
11
2.67499
21
14.5
0
LINE
5
1CE
100
AcDbEntity
8
vector1
6
ByLayer
62
256
370
-1
100
AcDbLine
10
2.67499
20
14.5
11
2.67499
21
14.38188
0
LINE
5
1CF
100
AcDbEntity
8
vector1
6
ByLayer
62
256
370
-1
100
AcDbLine
10
2.67499
20
14.38188
11
3.42499
21
14.38188
0
LINE
5
1D0
100
AcDbEntity
8
vector1
6
ByLayer
62
256
370
-1
100
AcDbLine
10
3.42499
20
14.38188
11
3.42499
21
14.5
0
LINE
5
1D1
100
AcDbEntity
8
vector1
6
ByLayer
62
256
370
-1
100
AcDbLine
10
3.42499
20
14.5
11
4.20499
21
14.5
0
LINE
5
1D2
100
AcDbEntity
8
vector1
6
ByLayer
62
256
370
-1
100
AcDbLine
10
4.20499
20
14.5
11
4.20499
21
14.38188
0
LINE
5
1D3
100
AcDbEntity
8
vector1
6
ByLayer
62
256
370
-1
100
AcDbLine
10
4.20499
20
14.38188
11
4.95499
21
14.38188
0
LINE
5
1D4
100
AcDbEntity
8
vector1
6
ByLayer
62
256
370
-1
100
AcDbLine
10
4.95499
20
14.38188
11
4.95499
21
14.5
0
LINE
5
1D5
100
AcDbEntity
8
vector1
6
ByLayer
62
256
370
-1
100
AcDbLine
10
4.95499
20
14.5
11
5.59998
21
14.5
0
LINE
5
1D6
100
AcDbEntity
8
vector1
6
ByLayer
62
256
370
-1
100
AcDbLine
10
5.59998
20
14.5
11
5.59998
21
14.96849
0
LINE
5
1D7
100
AcDbEntity
8
vector1
6
ByLayer
62
256
370
-1
100
AcDbLine
10
5.59998
20
14.96849
11
5.7181
21
14.96849
0
LINE
5
1D8
100
AcDbEntity
8
vector1
6
ByLayer
62
256
370
-1
100
AcDbLine
10
5.7181
20
14.96849
11
5.7181
21
15.46849
0
LINE
5
1D9
100
AcDbEntity
8
vector1
6
ByLayer
62
256
370
-1
100
AcDbLine
10
5.7181
20
15.46849
11
5.59998
21
15.46849
0
LINE
5
1DA
100
AcDbEntity
8
vector1
6
ByLayer
62
256
370
-1
100
AcDbLine
10
5.59998
20
15.46849
11
5.59998
21
15.93699
0
LINE
5
1DB
100
AcDbEntity
8
vector1
6
ByLayer
62
256
370
-1
100
AcDbLine
10
5.59998
20
15.93699
11
4.95499
21
15.93699
0
LINE
5
1DC
100
AcDbEntity
8
vector1
6
ByLayer
62
256
370
-1
100
AcDbLine
10
4.95499
20
15.93699
11
4.95499
21
16.0551
0
LINE
5
1DD
100
AcDbEntity
8
vector1
6
ByLayer
62
256
370
-1
100
AcDbLine
10
4.95499
20
16.0551
11
4.20499
21
16.0551
0
LINE
5
1DE
100
AcDbEntity
8
vector1
6
ByLayer
62
256
370
-1
100
AcDbLine
10
4.20499
20
16.0551
11
4.20499
21
15.93699
0
LINE
5
1DF
100
AcDbEntity
8
vector1
6
ByLayer
62
256
370
-1
100
AcDbLine
10
4.20499
20
15.93699
11
3.42499
21
15.93699
0
LINE
5
1E0
100
AcDbEntity
8
vector1
6
ByLayer
62
256
370
-1
100
AcDbLine
10
3.42499
20
15.93699
11
3.42499
21
16.0551
0
LINE
5
1E1
100
AcDbEntity
8
vector1
6
ByLayer
62
256
370
-1
100
AcDbLine
10
3.42499
20
16.0551
11
2.67499
21
16.0551
0
LINE
5
1E2
100
AcDbEntity
8
vector1
6
ByLayer
62
256
370
-1
100
AcDbLine
10
2.67499
20
16.0551
11
2.67499
21
15.93699
0
LINE
5
1E3
100
AcDbEntity
8
vector1
6
ByLayer
62
256
370
-1
100
AcDbLine
10
2.67499
20
15.93699
11
1.89499
21
15.93699
0
LINE
5
1E4
100
AcDbEntity
8
vector1
6
ByLayer
62
256
370
-1
100
AcDbLine
10
1.89499
20
15.93699
11
1.89499
21
16.0551
0
LINE
5
1E5
100
AcDbEntity
8
vector1
6
ByLayer
62
256
370
-1
100
AcDbLine
10
1.89499
20
16.0551
11
1.14499
21
16.0551
0
LINE
5
1E6
100
AcDbEntity
8
vector1
6
ByLayer
62
256
370
-1
100
AcDbLine
10
1.14499
20
16.0551
11
1.14499
21
15.93699
0
LINE
5
1E7
100
AcDbEntity
8
vector1
6
ByLayer
62
256
370
-1
100
AcDbLine
10
1.14499
20
15.93699
11
0.5
21
15.93699
0
LINE
5
1E8
100
AcDbEntity
8
vector1
6
ByLayer
62
256
370
-1
100
AcDbLine
10
0.5
20
15.93699
11
0.5
21
15.46849
0
LINE
5
1E9
100
AcDbEntity
8
vector1
6
ByLayer
62
256
370
-1
100
AcDbLine
10
0.5
20
15.46849
11
0.38188
21
15.46849
0
LINE
5
1EA
100
AcDbEntity
8
vector1
6
ByLayer
62
256
370
-1
100
AcDbLine
10
0.38188
20
15.46849
11
0.38188
21
14.96849
0
LINE
5
1EB
100
AcDbEntity
8
vector1
6
ByLayer
62
256
370
-1
100
AcDbLine
10
0.38188
20
14.96849
11
0.5
21
14.96849
0
LINE
5
1EC
100
AcDbEntity
8
vector1
6
ByLayer
62
256
370
-1
100
AcDbLine
10
0.5
20
14.96849
11
0.5
21
14.5
0
LINE
5
1ED
100
AcDbEntity
8
vector1
6
ByLayer
62
256
370
-1
100
AcDbLine
10
0.5
20
14.5
11
1.14499
21
14.5
0
LINE
5
1EE
100
AcDbEntity
8
vector1
6
ByLayer
62
256
370
-1
100
AcDbLine
10
1.14499
20
14.5
11
1.14499
21
14.38188
0
LINE
5
1EF
100
AcDbEntity
8
vector1
6
ByLayer
62
256
370
-1
100
AcDbLine
10
1.14499
20
14.38188
11
1.89499
21
14.38188
0
LINE
5
1F0
100
AcDbEntity
8
vector1
6
ByLayer
62
256
370
-1
100
AcDbLine
10
1.89499
20
14.38188
11
1.89499
21
14.5
0
ARC
5
1F1
100
AcDbEntity
8
vector1
6
ByLayer
62
256
370
-1
100
AcDbCircle
10
3.37499
20
15.587
40
0.05
100
AcDbArc
50
90
51
180
0
LINE
5
1F2
100
AcDbEntity
8
vector1
6
ByLayer
62
256
370
-1
100
AcDbLine
10
3.37499
20
15.637
11
4.02499
21
15.637
0
ARC
5
1F3
100
AcDbEntity
8
vector1
6
ByLayer
62
256
370
-1
100
AcDbCircle
10
4.02499
20
15.587
40
0.05
100
AcDbArc
50
0
51
90
0
LINE
5
1F4
100
AcDbEntity
8
vector1
6
ByLayer
62
256
370
-1
100
AcDbLine
10
4.07499
20
15.587
11
4.07499
21
15.287
0
ARC
5
1F5
100
AcDbEntity
8
vector1
6
ByLayer
62
256
370
-1
100
AcDbCircle
10
4.02499
20
15.287
40
0.05
100
AcDbArc
50
270
51
0
0
LINE
5
1F6
100
AcDbEntity
8
vector1
6
ByLayer
62
256
370
-1
100
AcDbLine
10
4.02499
20
15.237
11
3.37499
21
15.237
0
LINE
5
1F7
100
AcDbEntity
8
vector1
6
ByLayer
62
256
370
-1
100
AcDbLine
10
3.32499
20
15.287
11
3.32499
21
15.587
0
ARC
5
1F8
100
AcDbEntity
8
vector1
6
ByLayer
62
256
370
-1
100
AcDbCircle
10
3.37499
20
15.287
40
0.05
100
AcDbArc
50
180
51
270
0
ARC
5
1F9
100
AcDbEntity
8
vector1
6
ByLayer
62
256
370
-1
100
AcDbCircle
10
4.39499
20
15.587
40
0.05
100
AcDbArc
50
90
51
180
0
LINE
5
1FA
100
AcDbEntity
8
vector1
6
ByLayer
62
256
370
-1
100
AcDbLine
10
4.39499
20
15.637
11
5.04499
21
15.637
0
ARC
5
1FB
100
AcDbEntity
8
vector1
6
ByLayer
62
256
370
-1
100
AcDbCircle
10
5.04499
20
15.587
40
0.05
100
AcDbArc
50
0
51
90
0
LINE
5
1FC
100
AcDbEntity
8
vector1
6
ByLayer
62
256
370
-1
100
AcDbLine
10
5.09499
20
15.587
11
5.09499
21
15.287
0
ARC
5
1FD
100
AcDbEntity
8
vector1
6
ByLayer
62
256
370
-1
100
AcDbCircle
10
5.04499
20
15.287
40
0.05
100
AcDbArc
50
270
51
0
0
LINE
5
1FE
100
AcDbEntity
8
vector1
6
ByLayer
62
256
370
-1
100
AcDbLine
10
5.04499
20
15.237
11
4.39499
21
15.237
0
LINE
5
1FF
100
AcDbEntity
8
vector1
6
ByLayer
62
256
370
-1
100
AcDbLine
10
4.34499
20
15.287
11
4.34499
21
15.587
0
ARC
5
200
100
AcDbEntity
8
vector1
6
ByLayer
62
256
370
-1
100
AcDbCircle
10
4.39499
20
15.287
40
0.05
100
AcDbArc
50
180
51
270
0
LINE
5
201
100
AcDbEntity
8
vector1
6
ByLayer
62
256
370
-1
100
AcDbLine
10
10.63699
20
10.19499
11
10.63699
21
10.97499
0
LINE
5
202
100
AcDbEntity
8
vector1
6
ByLayer
62
256
370
-1
100
AcDbLine
10
10.63699
20
10.97499
11
10.7551
21
10.97499
0
LINE
5
203
100
AcDbEntity
8
vector1
6
ByLayer
62
256
370
-1
100
AcDbLine
10
10.7551
20
10.97499
11
10.7551
21
11.72499
0
LINE
5
204
100
AcDbEntity
8
vector1
6
ByLayer
62
256
370
-1
100
AcDbLine
10
10.7551
20
11.72499
11
10.63699
21
11.72499
0
LINE
5
205
100
AcDbEntity
8
vector1
6
ByLayer
62
256
370
-1
100
AcDbLine
10
10.63699
20
11.72499
11
10.63699
21
12.50499
0
LINE
5
206
100
AcDbEntity
8
vector1
6
ByLayer
62
256
370
-1
100
AcDbLine
10
10.63699
20
12.50499
11
10.7551
21
12.50499
0
LINE
5
207
100
AcDbEntity
8
vector1
6
ByLayer
62
256
370
-1
100
AcDbLine
10
10.7551
20
12.50499
11
10.7551
21
13.25499
0
LINE
5
208
100
AcDbEntity
8
vector1
6
ByLayer
62
256
370
-1
100
AcDbLine
10
10.7551
20
13.25499
11
10.63699
21
13.25499
0
LINE
5
209
100
AcDbEntity
8
vector1
6
ByLayer
62
256
370
-1
100
AcDbLine
10
10.63699
20
13.25499
11
10.63699
21
13.89998
0
LINE
5
20A
100
AcDbEntity
8
vector1
6
ByLayer
62
256
370
-1
100
AcDbLine
10
10.63699
20
13.89998
11
10.16849
21
13.89998
0
LINE
5
20B
100
AcDbEntity
8
vector1
6
ByLayer
62
256
370
-1
100
AcDbLine
10
10.16849
20
13.89998
11
10.16849
21
14.0181
0
LINE
5
20C
100
AcDbEntity
8
vector1
6
ByLayer
62
256
370
-1
100
AcDbLine
10
10.16849
20
14.0181
11
9.66849
21
14.0181
0
LINE
5
20D
100
AcDbEntity
8
vector1
6
ByLayer
62
256
370
-1
100
AcDbLine
10
9.66849
20
14.0181
11
9.66849
21
13.89998
0
LINE
5
20E
100
AcDbEntity
8
vector1
6
ByLayer
62
256
370
-1
100
AcDbLine
10
9.66849
20
13.89998
11
9.2
21
13.89998
0
LINE
5
20F
100
AcDbEntity
8
vector1
6
ByLayer
62
256
370
-1
100
AcDbLine
10
9.2
20
13.89998
11
9.2
21
13.25499
0
LINE
5
210
100
AcDbEntity
8
vector1
6
ByLayer
62
256
370
-1
100
AcDbLine
10
9.2
20
13.25499
11
9.08188
21
13.25499
0
LINE
5
211
100
AcDbEntity
8
vector1
6
ByLayer
62
256
370
-1
100
AcDbLine
10
9.08188
20
13.25499
11
9.08188
21
12.50499
0
LINE
5
212
100
AcDbEntity
8
vector1
6
ByLayer
62
256
370
-1
100
AcDbLine
10
9.08188
20
12.50499
11
9.2
21
12.50499
0
LINE
5
213
100
AcDbEntity
8
vector1
6
ByLayer
62
256
370
-1
100
AcDbLine
10
9.2
20
12.50499
11
9.2
21
11.72499
0
LINE
5
214
100
AcDbEntity
8
vector1
6
ByLayer
62
256
370
-1
100
AcDbLine
10
9.2
20
11.72499
11
9.08188
21
11.72499
0
LINE
5
215
100
AcDbEntity
8
vector1
6
ByLayer
62
256
370
-1
100
AcDbLine
10
9.08188
20
11.72499
11
9.08188
21
10.97499
0
LINE
5
216
100
AcDbEntity
8
vector1
6
ByLayer
62
256
370
-1
100
AcDbLine
10
9.08188
20
10.97499
11
9.2
21
10.97499
0
LINE
5
217
100
AcDbEntity
8
vector1
6
ByLayer
62
256
370
-1
100
AcDbLine
10
9.2
20
10.97499
11
9.2
21
10.19499
0
LINE
5
218
100
AcDbEntity
8
vector1
6
ByLayer
62
256
370
-1
100
AcDbLine
10
9.2
20
10.19499
11
9.08188
21
10.19499
0
LINE
5
219
100
AcDbEntity
8
vector1
6
ByLayer
62
256
370
-1
100
AcDbLine
10
9.08188
20
10.19499
11
9.08188
21
9.44499
0
LINE
5
21A
100
AcDbEntity
8
vector1
6
ByLayer
62
256
370
-1
100
AcDbLine
10
9.08188
20
9.44499
11
9.2
21
9.44499
0
LINE
5
21B
100
AcDbEntity
8
vector1
6
ByLayer
62
256
370
-1
100
AcDbLine
10
9.2
20
9.44499
11
9.2
21
8.8
0
LINE
5
21C
100
AcDbEntity
8
vector1
6
ByLayer
62
256
370
-1
100
AcDbLine
10
9.2
20
8.8
11
9.66849
21
8.8
0
LINE
5
21D
100
AcDbEntity
8
vector1
6
ByLayer
62
256
370
-1
100
AcDbLine
10
9.66849
20
8.8
11
9.66849
21
8.68188
0
LINE
5
21E
100
AcDbEntity
8
vector1
6
ByLayer
62
256
370
-1
100
AcDbLine
10
9.66849
20
8.68188
11
10.16849
21
8.68188
0
LINE
5
21F
100
AcDbEntity
8
vector1
6
ByLayer
62
256
370
-1
100
AcDbLine
10
10.16849
20
8.68188
11
10.16849
21
8.8
0
LINE
5
220
100
AcDbEntity
8
vector1
6
ByLayer
62
256
370
-1
100
AcDbLine
10
10.16849
20
8.8
11
10.63699
21
8.8
0
LINE
5
221
100
AcDbEntity
8
vector1
6
ByLayer
62
256
370
-1
100
AcDbLine
10
10.63699
20
8.8
11
10.63699
21
9.44499
0
LINE
5
222
100
AcDbEntity
8
vector1
6
ByLayer
62
256
370
-1
100
AcDbLine
10
10.63699
20
9.44499
11
10.7551
21
9.44499
0
LINE
5
223
100
AcDbEntity
8
vector1
6
ByLayer
62
256
370
-1
100
AcDbLine
10
10.7551
20
9.44499
11
10.7551
21
10.19499
0
LINE
5
224
100
AcDbEntity
8
vector1
6
ByLayer
62
256
370
-1
100
AcDbLine
10
10.7551
20
10.19499
11
10.63699
21
10.19499
0
LINE
5
225
100
AcDbEntity
8
vector1
6
ByLayer
62
256
370
-1
100
AcDbLine
10
9.58188
20
14.9685
11
9.58188
21
15.4685
0
LINE
5
226
100
AcDbEntity
8
vector1
6
ByLayer
62
256
370
-1
100
AcDbLine
10
9.58188
20
15.4685
11
9.7
21
15.4685
0
LINE
5
227
100
AcDbEntity
8
vector1
6
ByLayer
62
256
370
-1
100
AcDbLine
10
9.7
20
15.4685
11
9.7
21
15.93699
0
LINE
5
228
100
AcDbEntity
8
vector1
6
ByLayer
62
256
370
-1
100
AcDbLine
10
9.7
20
15.93699
11
9.11594
21
15.93699
0
LINE
5
229
100
AcDbEntity
8
vector1
6
ByLayer
62
256
370
-1
100
AcDbLine
10
9.11594
20
15.93699
11
9.11594
21
16.05511
0
LINE
5
22A
100
AcDbEntity
8
vector1
6
ByLayer
62
256
370
-1
100
AcDbLine
10
9.11594
20
16.05511
11
8.365935
21
16.05511
0
LINE
5
22B
100
AcDbEntity
8
vector1
6
ByLayer
62
256
370
-1
100
AcDbLine
10
8.365935
20
16.05511
11
8.365935
21
15.93699
0
LINE
5
22C
100
AcDbEntity
8
vector1
6
ByLayer
62
256
370
-1
100
AcDbLine
10
8.365935
20
15.93699
11
7.197845
21
15.93699
0
LINE
5
22D
100
AcDbEntity
8
vector1
6
ByLayer
62
256
370
-1
100
AcDbLine
10
7.197845
20
15.93699
11
7.197845
21
16.05511
0
LINE
5
22E
100
AcDbEntity
8
vector1
6
ByLayer
62
256
370
-1
100
AcDbLine
10
7.197845
20
16.05511
11
6.44784
21
16.05511
0
LINE
5
22F
100
AcDbEntity
8
vector1
6
ByLayer
62
256
370
-1
100
AcDbLine
10
6.44784
20
16.05511
11
6.44784
21
15.93699
0
LINE
5
230
100
AcDbEntity
8
vector1
6
ByLayer
62
256
370
-1
100
AcDbLine
10
6.44784
20
15.93699
11
5.86378
21
15.93699
0
LINE
5
231
100
AcDbEntity
8
vector1
6
ByLayer
62
256
370
-1
100
AcDbLine
10
5.86378
20
15.93699
11
5.86378
21
15.4685
0
LINE
5
232
100
AcDbEntity
8
vector1
6
ByLayer
62
256
370
-1
100
AcDbLine
10
5.86378
20
15.4685
11
5.9819
21
15.4685
0
LINE
5
233
100
AcDbEntity
8
vector1
6
ByLayer
62
256
370
-1
100
AcDbLine
10
5.9819
20
15.4685
11
5.9819
21
14.9685
0
LINE
5
234
100
AcDbEntity
8
vector1
6
ByLayer
62
256
370
-1
100
AcDbLine
10
5.9819
20
14.9685
11
5.86378
21
14.9685
0
LINE
5
235
100
AcDbEntity
8
vector1
6
ByLayer
62
256
370
-1
100
AcDbLine
10
5.86378
20
14.9685
11
5.86378
21
14.5
0
LINE
5
236
100
AcDbEntity
8
vector1
6
ByLayer
62
256
370
-1
100
AcDbLine
10
5.86378
20
14.5
11
6.44784
21
14.5
0
LINE
5
237
100
AcDbEntity
8
vector1
6
ByLayer
62
256
370
-1
100
AcDbLine
10
6.44784
20
14.5
11
6.44784
21
14.38189
0
LINE
5
238
100
AcDbEntity
8
vector1
6
ByLayer
62
256
370
-1
100
AcDbLine
10
6.44784
20
14.38189
11
7.197845
21
14.38189
0
LINE
5
239
100
AcDbEntity
8
vector1
6
ByLayer
62
256
370
-1
100
AcDbLine
10
7.197845
20
14.38189
11
7.197845
21
14.5
0
LINE
5
23A
100
AcDbEntity
8
vector1
6
ByLayer
62
256
370
-1
100
AcDbLine
10
7.197845
20
14.5
11
8.365935
21
14.5
0
LINE
5
23B
100
AcDbEntity
8
vector1
6
ByLayer
62
256
370
-1
100
AcDbLine
10
8.365935
20
14.5
11
8.365935
21
14.38189
0
LINE
5
23C
100
AcDbEntity
8
vector1
6
ByLayer
62
256
370
-1
100
AcDbLine
10
8.365935
20
14.38189
11
9.11594
21
14.38189
0
LINE
5
23D
100
AcDbEntity
8
vector1
6
ByLayer
62
256
370
-1
100
AcDbLine
10
9.11594
20
14.38189
11
9.11594
21
14.5
0
LINE
5
23E
100
AcDbEntity
8
vector1
6
ByLayer
62
256
370
-1
100
AcDbLine
10
9.11594
20
14.5
11
9.7
21
14.5
0
LINE
5
23F
100
AcDbEntity
8
vector1
6
ByLayer
62
256
370
-1
100
AcDbLine
10
9.7
20
14.5
11
9.7
21
14.9685
0
LINE
5
240
100
AcDbEntity
8
vector1
6
ByLayer
62
256
370
-1
100
AcDbLine
10
9.7
20
14.9685
11
9.58188
21
14.9685
0
ARC
5
241
100
AcDbEntity
8
vector1
6
ByLayer
62
256
370
-1
100
AcDbCircle
10
7.48179
20
15.13199
40
0.05
100
AcDbArc
50
180
51
270
0
LINE
5
242
100
AcDbEntity
8
vector1
6
ByLayer
62
256
370
-1
100
AcDbLine
10
7.43179
20
15.13199
11
7.43179
21
15.63699
0
ARC
5
243
100
AcDbEntity
8
vector1
6
ByLayer
62
256
370
-1
100
AcDbCircle
10
7.48179
20
15.63699
40
0.05
100
AcDbArc
50
90
51
180
0
LINE
5
244
100
AcDbEntity
8
vector1
6
ByLayer
62
256
370
-1
100
AcDbLine
10
9.08179
20
15.08199
11
7.48179
21
15.08199
0
ARC
5
245
100
AcDbEntity
8
vector1
6
ByLayer
62
256
370
-1
100
AcDbCircle
10
9.08179
20
15.13199
40
0.05
100
AcDbArc
50
270
51
360
0
LINE
5
246
100
AcDbEntity
8
vector1
6
ByLayer
62
256
370
-1
100
AcDbLine
10
9.13179
20
15.63699
11
9.13179
21
15.13199
0
LINE
5
247
100
AcDbEntity
8
vector1
6
ByLayer
62
256
370
-1
100
AcDbLine
10
7.48179
20
15.68699
11
9.08179
21
15.68699
0
ARC
5
248
100
AcDbEntity
8
vector1
6
ByLayer
62
256
370
-1
100
AcDbCircle
10
9.08179
20
15.63699
40
0.05
100
AcDbArc
50
360
51
90
0
ARC
5
249
100
AcDbEntity
8
vector1
6
ByLayer
62
256
370
-1
100
AcDbCircle
10
6.75179
20
15.34999
40
0.05
100
AcDbArc
50
180
51
270
0
LINE
5
24A
100
AcDbEntity
8
vector1
6
ByLayer
62
256
370
-1
100
AcDbLine
10
6.70179
20
15.34999
11
6.70179
21
15.54999
0
ARC
5
24B
100
AcDbEntity
8
vector1
6
ByLayer
62
256
370
-1
100
AcDbCircle
10
6.75179
20
15.54999
40
0.05
100
AcDbArc
50
90
51
180
0
LINE
5
24C
100
AcDbEntity
8
vector1
6
ByLayer
62
256
370
-1
100
AcDbLine
10
6.75179
20
15.59999
11
7.05179
21
15.59999
0
ARC
5
24D
100
AcDbEntity
8
vector1
6
ByLayer
62
256
370
-1
100
AcDbCircle
10
7.05179
20
15.54999
40
0.05
100
AcDbArc
50
360
51
90
0
LINE
5
24E
100
AcDbEntity
8
vector1
6
ByLayer
62
256
370
-1
100
AcDbLine
10
7.10179
20
15.54999
11
7.10179
21
15.34999
0
LINE
5
24F
100
AcDbEntity
8
vector1
6
ByLayer
62
256
370
-1
100
AcDbLine
10
7.05179
20
15.29999
11
6.75179
21
15.29999
0
ARC
5
250
100
AcDbEntity
8
vector1
6
ByLayer
62
256
370
-1
100
AcDbCircle
10
7.05179
20
15.34999
40
0.05
100
AcDbArc
50
270
51
360
0
LINE
5
251
100
AcDbEntity
8
vector1
6
ByLayer
62
256
370
-1
100
AcDbLine
10
11.46849
20
8.81812
11
11.96849
21
8.81812
0
LINE
5
252
100
AcDbEntity
8
vector1
6
ByLayer
62
256
370
-1
100
AcDbLine
10
11.96849
20
8.81812
11
11.96849
21
8.7
0
LINE
5
253
100
AcDbEntity
8
vector1
6
ByLayer
62
256
370
-1
100
AcDbLine
10
11.96849
20
8.7
11
12.43699
21
8.7
0
LINE
5
254
100
AcDbEntity
8
vector1
6
ByLayer
62
256
370
-1
100
AcDbLine
10
12.43699
20
8.7
11
12.43699
21
9.28406
0
LINE
5
255
100
AcDbEntity
8
vector1
6
ByLayer
62
256
370
-1
100
AcDbLine
10
12.43699
20
9.28406
11
12.5551
21
9.28406
0
LINE
5
256
100
AcDbEntity
8
vector1
6
ByLayer
62
256
370
-1
100
AcDbLine
10
12.5551
20
9.28406
11
12.5551
21
10.034065
0
LINE
5
257
100
AcDbEntity
8
vector1
6
ByLayer
62
256
370
-1
100
AcDbLine
10
12.5551
20
10.034065
11
12.43699
21
10.034065
0
LINE
5
258
100
AcDbEntity
8
vector1
6
ByLayer
62
256
370
-1
100
AcDbLine
10
12.43699
20
10.034065
11
12.43699
21
11.202155
0
LINE
5
259
100
AcDbEntity
8
vector1
6
ByLayer
62
256
370
-1
100
AcDbLine
10
12.43699
20
11.202155
11
12.5551
21
11.202155
0
LINE
5
25A
100
AcDbEntity
8
vector1
6
ByLayer
62
256
370
-1
100
AcDbLine
10
12.5551
20
11.202155
11
12.5551
21
11.95216
0
LINE
5
25B
100
AcDbEntity
8
vector1
6
ByLayer
62
256
370
-1
100
AcDbLine
10
12.5551
20
11.95216
11
12.43699
21
11.95216
0
LINE
5
25C
100
AcDbEntity
8
vector1
6
ByLayer
62
256
370
-1
100
AcDbLine
10
12.43699
20
11.95216
11
12.43699
21
12.53622
0
LINE
5
25D
100
AcDbEntity
8
vector1
6
ByLayer
62
256
370
-1
100
AcDbLine
10
12.43699
20
12.53622
11
11.96849
21
12.53622
0
LINE
5
25E
100
AcDbEntity
8
vector1
6
ByLayer
62
256
370
-1
100
AcDbLine
10
11.96849
20
12.53622
11
11.96849
21
12.4181
0
LINE
5
25F
100
AcDbEntity
8
vector1
6
ByLayer
62
256
370
-1
100
AcDbLine
10
11.96849
20
12.4181
11
11.46849
21
12.4181
0
LINE
5
260
100
AcDbEntity
8
vector1
6
ByLayer
62
256
370
-1
100
AcDbLine
10
11.46849
20
12.4181
11
11.46849
21
12.53622
0
LINE
5
261
100
AcDbEntity
8
vector1
6
ByLayer
62
256
370
-1
100
AcDbLine
10
11.46849
20
12.53622
11
11
21
12.53622
0
LINE
5
262
100
AcDbEntity
8
vector1
6
ByLayer
62
256
370
-1
100
AcDbLine
10
11
20
12.53622
11
11
21
11.95216
0
LINE
5
263
100
AcDbEntity
8
vector1
6
ByLayer
62
256
370
-1
100
AcDbLine
10
11
20
11.95216
11
10.88188
21
11.95216
0
LINE
5
264
100
AcDbEntity
8
vector1
6
ByLayer
62
256
370
-1
100
AcDbLine
10
10.88188
20
11.95216
11
10.88188
21
11.202155
0
LINE
5
265
100
AcDbEntity
8
vector1
6
ByLayer
62
256
370
-1
100
AcDbLine
10
10.88188
20
11.202155
11
11
21
11.202155
0
LINE
5
266
100
AcDbEntity
8
vector1
6
ByLayer
62
256
370
-1
100
AcDbLine
10
11
20
11.202155
11
11
21
10.034065
0
LINE
5
267
100
AcDbEntity
8
vector1
6
ByLayer
62
256
370
-1
100
AcDbLine
10
11
20
10.034065
11
10.88188
21
10.034065
0
LINE
5
268
100
AcDbEntity
8
vector1
6
ByLayer
62
256
370
-1
100
AcDbLine
10
10.88188
20
10.034065
11
10.88188
21
9.28406
0
LINE
5
269
100
AcDbEntity
8
vector1
6
ByLayer
62
256
370
-1
100
AcDbLine
10
10.88188
20
9.28406
11
11
21
9.28406
0
LINE
5
26A
100
AcDbEntity
8
vector1
6
ByLayer
62
256
370
-1
100
AcDbLine
10
11
20
9.28406
11
11
21
8.7
0
LINE
5
26B
100
AcDbEntity
8
vector1
6
ByLayer
62
256
370
-1
100
AcDbLine
10
11
20
8.7
11
11.46849
21
8.7
0
LINE
5
26C
100
AcDbEntity
8
vector1
6
ByLayer
62
256
370
-1
100
AcDbLine
10
11.46849
20
8.7
11
11.46849
21
8.81812
0
ARC
5
26D
100
AcDbEntity
8
vector1
6
ByLayer
62
256
370
-1
100
AcDbCircle
10
11.862
20
10.48821
40
0.05
100
AcDbArc
50
90
51
180
0
LINE
5
26E
100
AcDbEntity
8
vector1
6
ByLayer
62
256
370
-1
100
AcDbLine
10
11.862
20
10.53821
11
12.212
21
10.53821
0
ARC
5
26F
100
AcDbEntity
8
vector1
6
ByLayer
62
256
370
-1
100
AcDbCircle
10
12.212
20
10.48821
40
0.05
100
AcDbArc
50
0
51
90
0
LINE
5
270
100
AcDbEntity
8
vector1
6
ByLayer
62
256
370
-1
100
AcDbLine
10
12.262
20
10.48821
11
12.262
21
10.08821
0
ARC
5
271
100
AcDbEntity
8
vector1
6
ByLayer
62
256
370
-1
100
AcDbCircle
10
12.212
20
10.08821
40
0.05
100
AcDbArc
50
270
51
0
0
LINE
5
272
100
AcDbEntity
8
vector1
6
ByLayer
62
256
370
-1
100
AcDbLine
10
12.212
20
10.03821
11
11.862
21
10.03821
0
LINE
5
273
100
AcDbEntity
8
vector1
6
ByLayer
62
256
370
-1
100
AcDbLine
10
11.812
20
10.08821
11
11.812
21
10.48821
0
ARC
5
274
100
AcDbEntity
8
vector1
6
ByLayer
62
256
370
-1
100
AcDbCircle
10
11.862
20
10.08821
40
0.05
100
AcDbArc
50
180
51
270
0
LINE
5
275
100
AcDbEntity
8
vector2
6
ByLayer
62
256
370
-1
100
AcDbLine
10
4.96811
20
19.4931
11
4.84999
21
19.4931
0
LINE
5
276
100
AcDbEntity
8
vector2
6
ByLayer
62
256
370
-1
100
AcDbLine
10
4.84999
20
19.4931
11
4.84999
21
20.2431
0
LINE
5
277
100
AcDbEntity
8
vector2
6
ByLayer
62
256
370
-1
100
AcDbLine
10
4.84999
20
20.2431
11
4.96811
21
20.2431
0
LINE
5
278
100
AcDbEntity
8
vector2
6
ByLayer
62
256
370
-1
100
AcDbLine
10
4.96811
20
20.2431
11
4.96811
21
19.4931
0
LINE
5
279
100
AcDbEntity
8
vector2
6
ByLayer
62
256
370
-1
100
AcDbLine
10
4.96811
20
17.9631
11
4.84999
21
17.9631
0
LINE
5
27A
100
AcDbEntity
8
vector2
6
ByLayer
62
256
370
-1
100
AcDbLine
10
4.84999
20
17.9631
11
4.84999
21
18.7131
0
LINE
5
27B
100
AcDbEntity
8
vector2
6
ByLayer
62
256
370
-1
100
AcDbLine
10
4.84999
20
18.7131
11
4.96811
21
18.7131
0
LINE
5
27C
100
AcDbEntity
8
vector2
6
ByLayer
62
256
370
-1
100
AcDbLine
10
4.96811
20
18.7131
11
4.96811
21
17.9631
0
LINE
5
27D
100
AcDbEntity
8
vector2
6
ByLayer
62
256
370
-1
100
AcDbLine
10
4.96811
20
21.0231
11
4.84999
21
21.0231
0
LINE
5
27E
100
AcDbEntity
8
vector2
6
ByLayer
62
256
370
-1
100
AcDbLine
10
4.84999
20
21.0231
11
4.84999
21
21.7731
0
LINE
5
27F
100
AcDbEntity
8
vector2
6
ByLayer
62
256
370
-1
100
AcDbLine
10
4.84999
20
21.7731
11
4.96811
21
21.7731
0
LINE
5
280
100
AcDbEntity
8
vector2
6
ByLayer
62
256
370
-1
100
AcDbLine
10
4.96811
20
21.7731
11
4.96811
21
21.0231
0
LINE
5
281
100
AcDbEntity
8
vector2
6
ByLayer
62
256
370
-1
100
AcDbLine
10
6.18405
20
17.19999
11
5.43405
21
17.19999
0
LINE
5
282
100
AcDbEntity
8
vector2
6
ByLayer
62
256
370
-1
100
AcDbLine
10
5.43405
20
17.19999
11
5.43405
21
17.3181
0
LINE
5
283
100
AcDbEntity
8
vector2
6
ByLayer
62
256
370
-1
100
AcDbLine
10
5.43405
20
17.3181
11
6.18405
21
17.3181
0
LINE
5
284
100
AcDbEntity
8
vector2
6
ByLayer
62
256
370
-1
100
AcDbLine
10
6.18405
20
17.3181
11
6.18405
21
17.19999
0
LINE
5
285
100
AcDbEntity
8
vector2
6
ByLayer
62
256
370
-1
100
AcDbLine
10
6.18405
20
22.4181
11
5.43405
21
22.4181
0
LINE
5
286
100
AcDbEntity
8
vector2
6
ByLayer
62
256
370
-1
100
AcDbLine
10
5.43405
20
22.4181
11
5.43405
21
22.53621
0
LINE
5
287
100
AcDbEntity
8
vector2
6
ByLayer
62
256
370
-1
100
AcDbLine
10
5.43405
20
22.53621
11
6.18405
21
22.53621
0
LINE
5
288
100
AcDbEntity
8
vector2
6
ByLayer
62
256
370
-1
100
AcDbLine
10
6.18405
20
22.53621
11
6.18405
21
22.4181
0
LINE
5
289
100
AcDbEntity
8
vector2
6
ByLayer
62
256
370
-1
100
AcDbLine
10
8.10217
20
22.4181
11
7.35217
21
22.4181
0
LINE
5
28A
100
AcDbEntity
8
vector2
6
ByLayer
62
256
370
-1
100
AcDbLine
10
7.35217
20
22.4181
11
7.35217
21
22.53621
0
LINE
5
28B
100
AcDbEntity
8
vector2
6
ByLayer
62
256
370
-1
100
AcDbLine
10
7.35217
20
22.53621
11
8.10217
21
22.53621
0
LINE
5
28C
100
AcDbEntity
8
vector2
6
ByLayer
62
256
370
-1
100
AcDbLine
10
8.10217
20
22.53621
11
8.10217
21
22.4181
0
LINE
5
28D
100
AcDbEntity
8
vector2
6
ByLayer
62
256
370
-1
100
AcDbLine
10
8.10217
20
17.19999
11
7.35217
21
17.19999
0
LINE
5
28E
100
AcDbEntity
8
vector2
6
ByLayer
62
256
370
-1
100
AcDbLine
10
7.35217
20
17.19999
11
7.35217
21
17.3181
0
LINE
5
28F
100
AcDbEntity
8
vector2
6
ByLayer
62
256
370
-1
100
AcDbLine
10
7.35217
20
17.3181
11
8.10217
21
17.3181
0
LINE
5
290
100
AcDbEntity
8
vector2
6
ByLayer
62
256
370
-1
100
AcDbLine
10
8.10217
20
17.3181
11
8.10217
21
17.19999
0
LINE
5
291
100
AcDbEntity
8
vector2
6
ByLayer
62
256
370
-1
100
AcDbLine
10
8.68623
20
17.9631
11
8.56812
21
17.9631
0
LINE
5
292
100
AcDbEntity
8
vector2
6
ByLayer
62
256
370
-1
100
AcDbLine
10
8.56812
20
17.9631
11
8.56812
21
18.7131
0
LINE
5
293
100
AcDbEntity
8
vector2
6
ByLayer
62
256
370
-1
100
AcDbLine
10
8.56812
20
18.7131
11
8.68623
21
18.7131
0
LINE
5
294
100
AcDbEntity
8
vector2
6
ByLayer
62
256
370
-1
100
AcDbLine
10
8.68623
20
18.7131
11
8.68623
21
17.9631
0
LINE
5
295
100
AcDbEntity
8
vector2
6
ByLayer
62
256
370
-1
100
AcDbLine
10
8.68623
20
21.0231
11
8.56812
21
21.0231
0
LINE
5
296
100
AcDbEntity
8
vector2
6
ByLayer
62
256
370
-1
100
AcDbLine
10
8.56812
20
21.0231
11
8.56812
21
21.7731
0
LINE
5
297
100
AcDbEntity
8
vector2
6
ByLayer
62
256
370
-1
100
AcDbLine
10
8.56812
20
21.7731
11
8.68623
21
21.7731
0
LINE
5
298
100
AcDbEntity
8
vector2
6
ByLayer
62
256
370
-1
100
AcDbLine
10
8.68623
20
21.7731
11
8.68623
21
21.0231
0
LINE
5
299
100
AcDbEntity
8
vector2
6
ByLayer
62
256
370
-1
100
AcDbLine
10
8.68623
20
19.4931
11
8.56812
21
19.4931
0
LINE
5
29A
100
AcDbEntity
8
vector2
6
ByLayer
62
256
370
-1
100
AcDbLine
10
8.56812
20
19.4931
11
8.56812
21
20.2431
0
LINE
5
29B
100
AcDbEntity
8
vector2
6
ByLayer
62
256
370
-1
100
AcDbLine
10
8.56812
20
20.2431
11
8.68623
21
20.2431
0
LINE
5
29C
100
AcDbEntity
8
vector2
6
ByLayer
62
256
370
-1
100
AcDbLine
10
8.68623
20
20.2431
11
8.68623
21
19.4931
0
ARC
5
29D
100
AcDbEntity
8
vector2
6
ByLayer
62
256
370
-1
100
AcDbCircle
10
4.9
20
17.25
40
0.15
100
AcDbArc
50
180
51
270
0
LINE
5
29E
100
AcDbEntity
8
vector2
6
ByLayer
62
256
370
-1
100
AcDbLine
10
4.75
20
22.4862
11
4.75
21
17.25
0
ARC
5
29F
100
AcDbEntity
8
vector2
6
ByLayer
62
256
370
-1
100
AcDbCircle
10
4.9
20
22.4862
40
0.15
100
AcDbArc
50
90
51
180
0
LINE
5
2A0
100
AcDbEntity
8
vector2
6
ByLayer
62
256
370
-1
100
AcDbLine
10
4.9
20
17.1
11
8.63603
21
17.1
0
ARC
5
2A1
100
AcDbEntity
8
vector2
6
ByLayer
62
256
370
-1
100
AcDbCircle
10
8.63603
20
17.25
40
0.15
100
AcDbArc
50
270
51
360
0
LINE
5
2A2
100
AcDbEntity
8
vector2
6
ByLayer
62
256
370
-1
100
AcDbLine
10
8.78603
20
17.25
11
8.78603
21
22.4862
0
LINE
5
2A3
100
AcDbEntity
8
vector2
6
ByLayer
62
256
370
-1
100
AcDbLine
10
8.63603
20
22.6362
11
4.9
21
22.6362
0
ARC
5
2A4
100
AcDbEntity
8
vector2
6
ByLayer
62
256
370
-1
100
AcDbCircle
10
8.63603
20
22.4862
40
0.15
100
AcDbArc
50
360
51
90
0
CIRCLE
5
2A5
100
AcDbEntity
8
vector2
6
ByLayer
62
256
370
-1
100
AcDbCircle
10
5.167915
20
17.5181
40
0.058
0
CIRCLE
5
2A6
100
AcDbEntity
8
vector2
6
ByLayer
62
256
370
-1
100
AcDbCircle
10
5.167915
20
22.2181
40
0.058
0
CIRCLE
5
2A7
100
AcDbEntity
8
vector2
6
ByLayer
62
256
370
-1
100
AcDbCircle
10
8.367915
20
17.5181
40
0.058
0
CIRCLE
5
2A8
100
AcDbEntity
8
vector2
6
ByLayer
62
256
370
-1
100
AcDbCircle
10
8.367915
20
22.2181
40
0.058
0
LINE
5
2A9
100
AcDbEntity
8
vector2
6
ByLayer
62
256
370
-1
100
AcDbLine
10
0.7321
20
21.0231
11
0.61399
21
21.0231
0
LINE
5
2AA
100
AcDbEntity
8
vector2
6
ByLayer
62
256
370
-1
100
AcDbLine
10
0.61399
20
21.0231
11
0.61399
21
21.7731
0
LINE
5
2AB
100
AcDbEntity
8
vector2
6
ByLayer
62
256
370
-1
100
AcDbLine
10
0.61399
20
21.7731
11
0.7321
21
21.7731
0
LINE
5
2AC
100
AcDbEntity
8
vector2
6
ByLayer
62
256
370
-1
100
AcDbLine
10
0.7321
20
21.7731
11
0.7321
21
21.0231
0
LINE
5
2AD
100
AcDbEntity
8
vector2
6
ByLayer
62
256
370
-1
100
AcDbLine
10
0.7321
20
19.4931
11
0.61399
21
19.4931
0
LINE
5
2AE
100
AcDbEntity
8
vector2
6
ByLayer
62
256
370
-1
100
AcDbLine
10
0.61399
20
19.4931
11
0.61399
21
20.2431
0
LINE
5
2AF
100
AcDbEntity
8
vector2
6
ByLayer
62
256
370
-1
100
AcDbLine
10
0.61399
20
20.2431
11
0.7321
21
20.2431
0
LINE
5
2B0
100
AcDbEntity
8
vector2
6
ByLayer
62
256
370
-1
100
AcDbLine
10
0.7321
20
20.2431
11
0.7321
21
19.4931
0
LINE
5
2B1
100
AcDbEntity
8
vector2
6
ByLayer
62
256
370
-1
100
AcDbLine
10
0.7321
20
17.9631
11
0.61399
21
17.9631
0
LINE
5
2B2
100
AcDbEntity
8
vector2
6
ByLayer
62
256
370
-1
100
AcDbLine
10
0.61399
20
17.9631
11
0.61399
21
18.7131
0
LINE
5
2B3
100
AcDbEntity
8
vector2
6
ByLayer
62
256
370
-1
100
AcDbLine
10
0.61399
20
18.7131
11
0.7321
21
18.7131
0
LINE
5
2B4
100
AcDbEntity
8
vector2
6
ByLayer
62
256
370
-1
100
AcDbLine
10
0.7321
20
18.7131
11
0.7321
21
17.9631
0
LINE
5
2B5
100
AcDbEntity
8
vector2
6
ByLayer
62
256
370
-1
100
AcDbLine
10
1.948055
20
22.4181
11
1.19805
21
22.4181
0
LINE
5
2B6
100
AcDbEntity
8
vector2
6
ByLayer
62
256
370
-1
100
AcDbLine
10
1.19805
20
22.4181
11
1.19805
21
22.53621
0
LINE
5
2B7
100
AcDbEntity
8
vector2
6
ByLayer
62
256
370
-1
100
AcDbLine
10
1.19805
20
22.53621
11
1.948055
21
22.53621
0
LINE
5
2B8
100
AcDbEntity
8
vector2
6
ByLayer
62
256
370
-1
100
AcDbLine
10
1.948055
20
22.53621
11
1.948055
21
22.4181
0
LINE
5
2B9
100
AcDbEntity
8
vector2
6
ByLayer
62
256
370
-1
100
AcDbLine
10
1.948055
20
17.19999
11
1.19805
21
17.19999
0
LINE
5
2BA
100
AcDbEntity
8
vector2
6
ByLayer
62
256
370
-1
100
AcDbLine
10
1.19805
20
17.19999
11
1.19805
21
17.3181
0
LINE
5
2BB
100
AcDbEntity
8
vector2
6
ByLayer
62
256
370
-1
100
AcDbLine
10
1.19805
20
17.3181
11
1.948055
21
17.3181
0
LINE
5
2BC
100
AcDbEntity
8
vector2
6
ByLayer
62
256
370
-1
100
AcDbLine
10
1.948055
20
17.3181
11
1.948055
21
17.19999
0
LINE
5
2BD
100
AcDbEntity
8
vector2
6
ByLayer
62
256
370
-1
100
AcDbLine
10
3.86615
20
22.4181
11
3.116145
21
22.4181
0
LINE
5
2BE
100
AcDbEntity
8
vector2
6
ByLayer
62
256
370
-1
100
AcDbLine
10
3.116145
20
22.4181
11
3.116145
21
22.53621
0
LINE
5
2BF
100
AcDbEntity
8
vector2
6
ByLayer
62
256
370
-1
100
AcDbLine
10
3.116145
20
22.53621
11
3.86615
21
22.53621
0
LINE
5
2C0
100
AcDbEntity
8
vector2
6
ByLayer
62
256
370
-1
100
AcDbLine
10
3.86615
20
22.53621
11
3.86615
21
22.4181
0
LINE
5
2C1
100
AcDbEntity
8
vector2
6
ByLayer
62
256
370
-1
100
AcDbLine
10
3.86615
20
17.19999
11
3.116145
21
17.19999
0
LINE
5
2C2
100
AcDbEntity
8
vector2
6
ByLayer
62
256
370
-1
100
AcDbLine
10
3.116145
20
17.19999
11
3.116145
21
17.3181
0
LINE
5
2C3
100
AcDbEntity
8
vector2
6
ByLayer
62
256
370
-1
100
AcDbLine
10
3.116145
20
17.3181
11
3.86615
21
17.3181
0
LINE
5
2C4
100
AcDbEntity
8
vector2
6
ByLayer
62
256
370
-1
100
AcDbLine
10
3.86615
20
17.3181
11
3.86615
21
17.19999
0
LINE
5
2C5
100
AcDbEntity
8
vector2
6
ByLayer
62
256
370
-1
100
AcDbLine
10
4.45021
20
21.0231
11
4.3321
21
21.0231
0
LINE
5
2C6
100
AcDbEntity
8
vector2
6
ByLayer
62
256
370
-1
100
AcDbLine
10
4.3321
20
21.0231
11
4.3321
21
21.7731
0
LINE
5
2C7
100
AcDbEntity
8
vector2
6
ByLayer
62
256
370
-1
100
AcDbLine
10
4.3321
20
21.7731
11
4.45021
21
21.7731
0
LINE
5
2C8
100
AcDbEntity
8
vector2
6
ByLayer
62
256
370
-1
100
AcDbLine
10
4.45021
20
21.7731
11
4.45021
21
21.0231
0
LINE
5
2C9
100
AcDbEntity
8
vector2
6
ByLayer
62
256
370
-1
100
AcDbLine
10
4.45021
20
17.9631
11
4.3321
21
17.9631
0
LINE
5
2CA
100
AcDbEntity
8
vector2
6
ByLayer
62
256
370
-1
100
AcDbLine
10
4.3321
20
17.9631
11
4.3321
21
18.7131
0
LINE
5
2CB
100
AcDbEntity
8
vector2
6
ByLayer
62
256
370
-1
100
AcDbLine
10
4.3321
20
18.7131
11
4.45021
21
18.7131
0
LINE
5
2CC
100
AcDbEntity
8
vector2
6
ByLayer
62
256
370
-1
100
AcDbLine
10
4.45021
20
18.7131
11
4.45021
21
17.9631
0
LINE
5
2CD
100
AcDbEntity
8
vector2
6
ByLayer
62
256
370
-1
100
AcDbLine
10
4.45021
20
19.4931
11
4.3321
21
19.4931
0
LINE
5
2CE
100
AcDbEntity
8
vector2
6
ByLayer
62
256
370
-1
100
AcDbLine
10
4.3321
20
19.4931
11
4.3321
21
20.2431
0
LINE
5
2CF
100
AcDbEntity
8
vector2
6
ByLayer
62
256
370
-1
100
AcDbLine
10
4.3321
20
20.2431
11
4.45021
21
20.2431
0
LINE
5
2D0
100
AcDbEntity
8
vector2
6
ByLayer
62
256
370
-1
100
AcDbLine
10
4.45021
20
20.2431
11
4.45021
21
19.4931
0
ARC
5
2D1
100
AcDbEntity
8
vector2
6
ByLayer
62
256
370
-1
100
AcDbCircle
10
0.664
20
17.25
40
0.15
100
AcDbArc
50
180
51
270
0
LINE
5
2D2
100
AcDbEntity
8
vector2
6
ByLayer
62
256
370
-1
100
AcDbLine
10
0.514
20
22.4862
11
0.514
21
17.25
0
ARC
5
2D3
100
AcDbEntity
8
vector2
6
ByLayer
62
256
370
-1
100
AcDbCircle
10
0.664
20
22.4862
40
0.15
100
AcDbArc
50
90
51
180
0
LINE
5
2D4
100
AcDbEntity
8
vector2
6
ByLayer
62
256
370
-1
100
AcDbLine
10
4.4
20
22.6362
11
0.664
21
22.6362
0
ARC
5
2D5
100
AcDbEntity
8
vector2
6
ByLayer
62
256
370
-1
100
AcDbCircle
10
4.4
20
22.4862
40
0.15
100
AcDbArc
50
360
51
90
0
LINE
5
2D6
100
AcDbEntity
8
vector2
6
ByLayer
62
256
370
-1
100
AcDbLine
10
0.664
20
17.1
11
4.4
21
17.1
0
LINE
5
2D7
100
AcDbEntity
8
vector2
6
ByLayer
62
256
370
-1
100
AcDbLine
10
4.55
20
17.25
11
4.55
21
22.4862
0
ARC
5
2D8
100
AcDbEntity
8
vector2
6
ByLayer
62
256
370
-1
100
AcDbCircle
10
4.4
20
17.25
40
0.15
100
AcDbArc
50
270
51
360
0
CIRCLE
5
2D9
100
AcDbEntity
8
vector2
6
ByLayer
62
256
370
-1
100
AcDbCircle
10
0.932
20
17.5181
40
0.058
0
CIRCLE
5
2DA
100
AcDbEntity
8
vector2
6
ByLayer
62
256
370
-1
100
AcDbCircle
10
0.932
20
22.2181
40
0.058
0
CIRCLE
5
2DB
100
AcDbEntity
8
vector2
6
ByLayer
62
256
370
-1
100
AcDbCircle
10
4.132
20
17.5181
40
0.058
0
CIRCLE
5
2DC
100
AcDbEntity
8
vector2
6
ByLayer
62
256
370
-1
100
AcDbCircle
10
4.132
20
22.2181
40
0.058
0
LINE
5
2DD
100
AcDbEntity
8
vector2
6
ByLayer
62
256
370
-1
100
AcDbLine
10
10.63699
20
18.59499
11
10.63699
21
19.37499
0
LINE
5
2DE
100
AcDbEntity
8
vector2
6
ByLayer
62
256
370
-1
100
AcDbLine
10
10.63699
20
19.37499
11
10.7551
21
19.37499
0
LINE
5
2DF
100
AcDbEntity
8
vector2
6
ByLayer
62
256
370
-1
100
AcDbLine
10
10.7551
20
19.37499
11
10.7551
21
20.12499
0
LINE
5
2E0
100
AcDbEntity
8
vector2
6
ByLayer
62
256
370
-1
100
AcDbLine
10
10.7551
20
20.12499
11
10.63699
21
20.12499
0
LINE
5
2E1
100
AcDbEntity
8
vector2
6
ByLayer
62
256
370
-1
100
AcDbLine
10
10.63699
20
20.12499
11
10.63699
21
20.90499
0
LINE
5
2E2
100
AcDbEntity
8
vector2
6
ByLayer
62
256
370
-1
100
AcDbLine
10
10.63699
20
20.90499
11
10.7551
21
20.90499
0
LINE
5
2E3
100
AcDbEntity
8
vector2
6
ByLayer
62
256
370
-1
100
AcDbLine
10
10.7551
20
20.90499
11
10.7551
21
21.65499
0
LINE
5
2E4
100
AcDbEntity
8
vector2
6
ByLayer
62
256
370
-1
100
AcDbLine
10
10.7551
20
21.65499
11
10.63699
21
21.65499
0
LINE
5
2E5
100
AcDbEntity
8
vector2
6
ByLayer
62
256
370
-1
100
AcDbLine
10
10.63699
20
21.65499
11
10.63699
21
22.29998
0
LINE
5
2E6
100
AcDbEntity
8
vector2
6
ByLayer
62
256
370
-1
100
AcDbLine
10
10.63699
20
22.29998
11
10.16849
21
22.29998
0
LINE
5
2E7
100
AcDbEntity
8
vector2
6
ByLayer
62
256
370
-1
100
AcDbLine
10
10.16849
20
22.29998
11
10.16849
21
22.4181
0
LINE
5
2E8
100
AcDbEntity
8
vector2
6
ByLayer
62
256
370
-1
100
AcDbLine
10
10.16849
20
22.4181
11
9.66849
21
22.4181
0
LINE
5
2E9
100
AcDbEntity
8
vector2
6
ByLayer
62
256
370
-1
100
AcDbLine
10
9.66849
20
22.4181
11
9.66849
21
22.29998
0
LINE
5
2EA
100
AcDbEntity
8
vector2
6
ByLayer
62
256
370
-1
100
AcDbLine
10
9.66849
20
22.29998
11
9.2
21
22.29998
0
LINE
5
2EB
100
AcDbEntity
8
vector2
6
ByLayer
62
256
370
-1
100
AcDbLine
10
9.2
20
22.29998
11
9.2
21
21.65499
0
LINE
5
2EC
100
AcDbEntity
8
vector2
6
ByLayer
62
256
370
-1
100
AcDbLine
10
9.2
20
21.65499
11
9.08188
21
21.65499
0
LINE
5
2ED
100
AcDbEntity
8
vector2
6
ByLayer
62
256
370
-1
100
AcDbLine
10
9.08188
20
21.65499
11
9.08188
21
20.90499
0
LINE
5
2EE
100
AcDbEntity
8
vector2
6
ByLayer
62
256
370
-1
100
AcDbLine
10
9.08188
20
20.90499
11
9.2
21
20.90499
0
LINE
5
2EF
100
AcDbEntity
8
vector2
6
ByLayer
62
256
370
-1
100
AcDbLine
10
9.2
20
20.90499
11
9.2
21
20.12499
0
LINE
5
2F0
100
AcDbEntity
8
vector2
6
ByLayer
62
256
370
-1
100
AcDbLine
10
9.2
20
20.12499
11
9.08188
21
20.12499
0
LINE
5
2F1
100
AcDbEntity
8
vector2
6
ByLayer
62
256
370
-1
100
AcDbLine
10
9.08188
20
20.12499
11
9.08188
21
19.37499
0
LINE
5
2F2
100
AcDbEntity
8
vector2
6
ByLayer
62
256
370
-1
100
AcDbLine
10
9.08188
20
19.37499
11
9.2
21
19.37499
0
LINE
5
2F3
100
AcDbEntity
8
vector2
6
ByLayer
62
256
370
-1
100
AcDbLine
10
9.2
20
19.37499
11
9.2
21
18.59499
0
LINE
5
2F4
100
AcDbEntity
8
vector2
6
ByLayer
62
256
370
-1
100
AcDbLine
10
9.2
20
18.59499
11
9.08188
21
18.59499
0
LINE
5
2F5
100
AcDbEntity
8
vector2
6
ByLayer
62
256
370
-1
100
AcDbLine
10
9.08188
20
18.59499
11
9.08188
21
17.84499
0
LINE
5
2F6
100
AcDbEntity
8
vector2
6
ByLayer
62
256
370
-1
100
AcDbLine
10
9.08188
20
17.84499
11
9.2
21
17.84499
0
LINE
5
2F7
100
AcDbEntity
8
vector2
6
ByLayer
62
256
370
-1
100
AcDbLine
10
9.2
20
17.84499
11
9.2
21
17.2
0
LINE
5
2F8
100
AcDbEntity
8
vector2
6
ByLayer
62
256
370
-1
100
AcDbLine
10
9.2
20
17.2
11
9.66849
21
17.2
0
LINE
5
2F9
100
AcDbEntity
8
vector2
6
ByLayer
62
256
370
-1
100
AcDbLine
10
9.66849
20
17.2
11
9.66849
21
17.08188
0
LINE
5
2FA
100
AcDbEntity
8
vector2
6
ByLayer
62
256
370
-1
100
AcDbLine
10
9.66849
20
17.08188
11
10.16849
21
17.08188
0
LINE
5
2FB
100
AcDbEntity
8
vector2
6
ByLayer
62
256
370
-1
100
AcDbLine
10
10.16849
20
17.08188
11
10.16849
21
17.2
0
LINE
5
2FC
100
AcDbEntity
8
vector2
6
ByLayer
62
256
370
-1
100
AcDbLine
10
10.16849
20
17.2
11
10.63699
21
17.2
0
LINE
5
2FD
100
AcDbEntity
8
vector2
6
ByLayer
62
256
370
-1
100
AcDbLine
10
10.63699
20
17.2
11
10.63699
21
17.84499
0
LINE
5
2FE
100
AcDbEntity
8
vector2
6
ByLayer
62
256
370
-1
100
AcDbLine
10
10.63699
20
17.84499
11
10.7551
21
17.84499
0
LINE
5
2FF
100
AcDbEntity
8
vector2
6
ByLayer
62
256
370
-1
100
AcDbLine
10
10.7551
20
17.84499
11
10.7551
21
18.59499
0
LINE
5
300
100
AcDbEntity
8
vector2
6
ByLayer
62
256
370
-1
100
AcDbLine
10
10.7551
20
18.59499
11
10.63699
21
18.59499
0
LINE
5
301
100
AcDbEntity
8
vector2
6
ByLayer
62
256
370
-1
100
AcDbLine
10
11.46849
20
18.552185
11
11.96849
21
18.552185
0
LINE
5
302
100
AcDbEntity
8
vector2
6
ByLayer
62
256
370
-1
100
AcDbLine
10
11.96849
20
18.552185
11
11.96849
21
18.434065
0
LINE
5
303
100
AcDbEntity
8
vector2
6
ByLayer
62
256
370
-1
100
AcDbLine
10
11.96849
20
18.434065
11
12.43699
21
18.434065
0
LINE
5
304
100
AcDbEntity
8
vector2
6
ByLayer
62
256
370
-1
100
AcDbLine
10
12.43699
20
18.434065
11
12.43699
21
19.018125
0
LINE
5
305
100
AcDbEntity
8
vector2
6
ByLayer
62
256
370
-1
100
AcDbLine
10
12.43699
20
19.018125
11
12.5551
21
19.018125
0
LINE
5
306
100
AcDbEntity
8
vector2
6
ByLayer
62
256
370
-1
100
AcDbLine
10
12.5551
20
19.018125
11
12.5551
21
19.76813
0
LINE
5
307
100
AcDbEntity
8
vector2
6
ByLayer
62
256
370
-1
100
AcDbLine
10
12.5551
20
19.76813
11
12.43699
21
19.76813
0
LINE
5
308
100
AcDbEntity
8
vector2
6
ByLayer
62
256
370
-1
100
AcDbLine
10
12.43699
20
19.76813
11
12.43699
21
20.93622
0
LINE
5
309
100
AcDbEntity
8
vector2
6
ByLayer
62
256
370
-1
100
AcDbLine
10
12.43699
20
20.93622
11
12.5551
21
20.93622
0
LINE
5
30A
100
AcDbEntity
8
vector2
6
ByLayer
62
256
370
-1
100
AcDbLine
10
12.5551
20
20.93622
11
12.5551
21
21.686225
0
LINE
5
30B
100
AcDbEntity
8
vector2
6
ByLayer
62
256
370
-1
100
AcDbLine
10
12.5551
20
21.686225
11
12.43699
21
21.686225
0
LINE
5
30C
100
AcDbEntity
8
vector2
6
ByLayer
62
256
370
-1
100
AcDbLine
10
12.43699
20
21.686225
11
12.43699
21
22.270285
0
LINE
5
30D
100
AcDbEntity
8
vector2
6
ByLayer
62
256
370
-1
100
AcDbLine
10
12.43699
20
22.270285
11
11.96849
21
22.270285
0
LINE
5
30E
100
AcDbEntity
8
vector2
6
ByLayer
62
256
370
-1
100
AcDbLine
10
11.96849
20
22.270285
11
11.96849
21
22.152165
0
LINE
5
30F
100
AcDbEntity
8
vector2
6
ByLayer
62
256
370
-1
100
AcDbLine
10
11.96849
20
22.152165
11
11.46849
21
22.152165
0
LINE
5
310
100
AcDbEntity
8
vector2
6
ByLayer
62
256
370
-1
100
AcDbLine
10
11.46849
20
22.152165
11
11.46849
21
22.270285
0
LINE
5
311
100
AcDbEntity
8
vector2
6
ByLayer
62
256
370
-1
100
AcDbLine
10
11.46849
20
22.270285
11
11
21
22.270285
0
LINE
5
312
100
AcDbEntity
8
vector2
6
ByLayer
62
256
370
-1
100
AcDbLine
10
11
20
22.270285
11
11
21
21.686225
0
LINE
5
313
100
AcDbEntity
8
vector2
6
ByLayer
62
256
370
-1
100
AcDbLine
10
11
20
21.686225
11
10.88188
21
21.686225
0
LINE
5
314
100
AcDbEntity
8
vector2
6
ByLayer
62
256
370
-1
100
AcDbLine
10
10.88188
20
21.686225
11
10.88188
21
20.93622
0
LINE
5
315
100
AcDbEntity
8
vector2
6
ByLayer
62
256
370
-1
100
AcDbLine
10
10.88188
20
20.93622
11
11
21
20.93622
0
LINE
5
316
100
AcDbEntity
8
vector2
6
ByLayer
62
256
370
-1
100
AcDbLine
10
11
20
20.93622
11
11
21
19.76813
0
LINE
5
317
100
AcDbEntity
8
vector2
6
ByLayer
62
256
370
-1
100
AcDbLine
10
11
20
19.76813
11
10.88188
21
19.76813
0
LINE
5
318
100
AcDbEntity
8
vector2
6
ByLayer
62
256
370
-1
100
AcDbLine
10
10.88188
20
19.76813
11
10.88188
21
19.018125
0
LINE
5
319
100
AcDbEntity
8
vector2
6
ByLayer
62
256
370
-1
100
AcDbLine
10
10.88188
20
19.018125
11
11
21
19.018125
0
LINE
5
31A
100
AcDbEntity
8
vector2
6
ByLayer
62
256
370
-1
100
AcDbLine
10
11
20
19.018125
11
11
21
18.434065
0
LINE
5
31B
100
AcDbEntity
8
vector2
6
ByLayer
62
256
370
-1
100
AcDbLine
10
11
20
18.434065
11
11.46849
21
18.434065
0
LINE
5
31C
100
AcDbEntity
8
vector2
6
ByLayer
62
256
370
-1
100
AcDbLine
10
11.46849
20
18.434065
11
11.46849
21
18.552185
0
ARC
5
31D
100
AcDbEntity
8
vector2
6
ByLayer
62
256
370
-1
100
AcDbCircle
10
11.862
20
20.222275
40
0.05
100
AcDbArc
50
90
51
180
0
LINE
5
31E
100
AcDbEntity
8
vector2
6
ByLayer
62
256
370
-1
100
AcDbLine
10
11.862
20
20.272275
11
12.212
21
20.272275
0
ARC
5
31F
100
AcDbEntity
8
vector2
6
ByLayer
62
256
370
-1
100
AcDbCircle
10
12.212
20
20.222275
40
0.05
100
AcDbArc
50
0
51
90
0
LINE
5
320
100
AcDbEntity
8
vector2
6
ByLayer
62
256
370
-1
100
AcDbLine
10
12.262
20
20.222275
11
12.262
21
19.822275
0
ARC
5
321
100
AcDbEntity
8
vector2
6
ByLayer
62
256
370
-1
100
AcDbCircle
10
12.212
20
19.822275
40
0.05
100
AcDbArc
50
270
51
0
0
LINE
5
322
100
AcDbEntity
8
vector2
6
ByLayer
62
256
370
-1
100
AcDbLine
10
12.212
20
19.772275
11
11.862
21
19.772275
0
LINE
5
323
100
AcDbEntity
8
vector2
6
ByLayer
62
256
370
-1
100
AcDbLine
10
11.812
20
19.822275
11
11.812
21
20.222275
0
ARC
5
324
100
AcDbEntity
8
vector2
6
ByLayer
62
256
370
-1
100
AcDbCircle
10
11.862
20
19.822275
40
0.05
100
AcDbArc
50
180
51
270
0
LINE
5
325
100
AcDbEntity
8
vector2
6
ByLayer
62
256
370
-1
100
AcDbLine
10
14.39499
20
21
11
15.17499
21
21
0
LINE
5
326
100
AcDbEntity
8
vector2
6
ByLayer
62
256
370
-1
100
AcDbLine
10
15.17499
20
21
11
15.17499
21
20.88188
0
LINE
5
327
100
AcDbEntity
8
vector2
6
ByLayer
62
256
370
-1
100
AcDbLine
10
15.17499
20
20.88188
11
15.92499
21
20.88188
0
LINE
5
328
100
AcDbEntity
8
vector2
6
ByLayer
62
256
370
-1
100
AcDbLine
10
15.92499
20
20.88188
11
15.92499
21
21
0
LINE
5
329
100
AcDbEntity
8
vector2
6
ByLayer
62
256
370
-1
100
AcDbLine
10
15.92499
20
21
11
16.70499
21
21
0
LINE
5
32A
100
AcDbEntity
8
vector2
6
ByLayer
62
256
370
-1
100
AcDbLine
10
16.70499
20
21
11
16.70499
21
20.88188
0
LINE
5
32B
100
AcDbEntity
8
vector2
6
ByLayer
62
256
370
-1
100
AcDbLine
10
16.70499
20
20.88188
11
17.45499
21
20.88188
0
LINE
5
32C
100
AcDbEntity
8
vector2
6
ByLayer
62
256
370
-1
100
AcDbLine
10
17.45499
20
20.88188
11
17.45499
21
21
0
LINE
5
32D
100
AcDbEntity
8
vector2
6
ByLayer
62
256
370
-1
100
AcDbLine
10
17.45499
20
21
11
18.09998
21
21
0
LINE
5
32E
100
AcDbEntity
8
vector2
6
ByLayer
62
256
370
-1
100
AcDbLine
10
18.09998
20
21
11
18.09998
21
21.46849
0
LINE
5
32F
100
AcDbEntity
8
vector2
6
ByLayer
62
256
370
-1
100
AcDbLine
10
18.09998
20
21.46849
11
18.2181
21
21.46849
0
LINE
5
330
100
AcDbEntity
8
vector2
6
ByLayer
62
256
370
-1
100
AcDbLine
10
18.2181
20
21.46849
11
18.2181
21
21.96849
0
LINE
5
331
100
AcDbEntity
8
vector2
6
ByLayer
62
256
370
-1
100
AcDbLine
10
18.2181
20
21.96849
11
18.09998
21
21.96849
0
LINE
5
332
100
AcDbEntity
8
vector2
6
ByLayer
62
256
370
-1
100
AcDbLine
10
18.09998
20
21.96849
11
18.09998
21
22.43699
0
LINE
5
333
100
AcDbEntity
8
vector2
6
ByLayer
62
256
370
-1
100
AcDbLine
10
18.09998
20
22.43699
11
17.45499
21
22.43699
0
LINE
5
334
100
AcDbEntity
8
vector2
6
ByLayer
62
256
370
-1
100
AcDbLine
10
17.45499
20
22.43699
11
17.45499
21
22.5551
0
LINE
5
335
100
AcDbEntity
8
vector2
6
ByLayer
62
256
370
-1
100
AcDbLine
10
17.45499
20
22.5551
11
16.70499
21
22.5551
0
LINE
5
336
100
AcDbEntity
8
vector2
6
ByLayer
62
256
370
-1
100
AcDbLine
10
16.70499
20
22.5551
11
16.70499
21
22.43699
0
LINE
5
337
100
AcDbEntity
8
vector2
6
ByLayer
62
256
370
-1
100
AcDbLine
10
16.70499
20
22.43699
11
15.92499
21
22.43699
0
LINE
5
338
100
AcDbEntity
8
vector2
6
ByLayer
62
256
370
-1
100
AcDbLine
10
15.92499
20
22.43699
11
15.92499
21
22.5551
0
LINE
5
339
100
AcDbEntity
8
vector2
6
ByLayer
62
256
370
-1
100
AcDbLine
10
15.92499
20
22.5551
11
15.17499
21
22.5551
0
LINE
5
33A
100
AcDbEntity
8
vector2
6
ByLayer
62
256
370
-1
100
AcDbLine
10
15.17499
20
22.5551
11
15.17499
21
22.43699
0
LINE
5
33B
100
AcDbEntity
8
vector2
6
ByLayer
62
256
370
-1
100
AcDbLine
10
15.17499
20
22.43699
11
14.39499
21
22.43699
0
LINE
5
33C
100
AcDbEntity
8
vector2
6
ByLayer
62
256
370
-1
100
AcDbLine
10
14.39499
20
22.43699
11
14.39499
21
22.5551
0
LINE
5
33D
100
AcDbEntity
8
vector2
6
ByLayer
62
256
370
-1
100
AcDbLine
10
14.39499
20
22.5551
11
13.64499
21
22.5551
0
LINE
5
33E
100
AcDbEntity
8
vector2
6
ByLayer
62
256
370
-1
100
AcDbLine
10
13.64499
20
22.5551
11
13.64499
21
22.43699
0
LINE
5
33F
100
AcDbEntity
8
vector2
6
ByLayer
62
256
370
-1
100
AcDbLine
10
13.64499
20
22.43699
11
13
21
22.43699
0
LINE
5
340
100
AcDbEntity
8
vector2
6
ByLayer
62
256
370
-1
100
AcDbLine
10
13
20
22.43699
11
13
21
21.96849
0
LINE
5
341
100
AcDbEntity
8
vector2
6
ByLayer
62
256
370
-1
100
AcDbLine
10
13
20
21.96849
11
12.88188
21
21.96849
0
LINE
5
342
100
AcDbEntity
8
vector2
6
ByLayer
62
256
370
-1
100
AcDbLine
10
12.88188
20
21.96849
11
12.88188
21
21.46849
0
LINE
5
343
100
AcDbEntity
8
vector2
6
ByLayer
62
256
370
-1
100
AcDbLine
10
12.88188
20
21.46849
11
13
21
21.46849
0
LINE
5
344
100
AcDbEntity
8
vector2
6
ByLayer
62
256
370
-1
100
AcDbLine
10
13
20
21.46849
11
13
21
21
0
LINE
5
345
100
AcDbEntity
8
vector2
6
ByLayer
62
256
370
-1
100
AcDbLine
10
13
20
21
11
13.64499
21
21
0
LINE
5
346
100
AcDbEntity
8
vector2
6
ByLayer
62
256
370
-1
100
AcDbLine
10
13.64499
20
21
11
13.64499
21
20.88188
0
LINE
5
347
100
AcDbEntity
8
vector2
6
ByLayer
62
256
370
-1
100
AcDbLine
10
13.64499
20
20.88188
11
14.39499
21
20.88188
0
LINE
5
348
100
AcDbEntity
8
vector2
6
ByLayer
62
256
370
-1
100
AcDbLine
10
14.39499
20
20.88188
11
14.39499
21
21
0
ARC
5
349
100
AcDbEntity
8
vector2
6
ByLayer
62
256
370
-1
100
AcDbCircle
10
15.87499
20
22.087
40
0.05
100
AcDbArc
50
90
51
180
0
LINE
5
34A
100
AcDbEntity
8
vector2
6
ByLayer
62
256
370
-1
100
AcDbLine
10
15.87499
20
22.137
11
16.52499
21
22.137
0
ARC
5
34B
100
AcDbEntity
8
vector2
6
ByLayer
62
256
370
-1
100
AcDbCircle
10
16.52499
20
22.087
40
0.05
100
AcDbArc
50
0
51
90
0
LINE
5
34C
100
AcDbEntity
8
vector2
6
ByLayer
62
256
370
-1
100
AcDbLine
10
16.57499
20
22.087
11
16.57499
21
21.787
0
ARC
5
34D
100
AcDbEntity
8
vector2
6
ByLayer
62
256
370
-1
100
AcDbCircle
10
16.52499
20
21.787
40
0.05
100
AcDbArc
50
270
51
0
0
LINE
5
34E
100
AcDbEntity
8
vector2
6
ByLayer
62
256
370
-1
100
AcDbLine
10
16.52499
20
21.737
11
15.87499
21
21.737
0
LINE
5
34F
100
AcDbEntity
8
vector2
6
ByLayer
62
256
370
-1
100
AcDbLine
10
15.82499
20
21.787
11
15.82499
21
22.087
0
ARC
5
350
100
AcDbEntity
8
vector2
6
ByLayer
62
256
370
-1
100
AcDbCircle
10
15.87499
20
21.787
40
0.05
100
AcDbArc
50
180
51
270
0
ARC
5
351
100
AcDbEntity
8
vector2
6
ByLayer
62
256
370
-1
100
AcDbCircle
10
16.89499
20
22.087
40
0.05
100
AcDbArc
50
90
51
180
0
LINE
5
352
100
AcDbEntity
8
vector2
6
ByLayer
62
256
370
-1
100
AcDbLine
10
16.89499
20
22.137
11
17.54499
21
22.137
0
ARC
5
353
100
AcDbEntity
8
vector2
6
ByLayer
62
256
370
-1
100
AcDbCircle
10
17.54499
20
22.087
40
0.05
100
AcDbArc
50
0
51
90
0
LINE
5
354
100
AcDbEntity
8
vector2
6
ByLayer
62
256
370
-1
100
AcDbLine
10
17.59499
20
22.087
11
17.59499
21
21.787
0
ARC
5
355
100
AcDbEntity
8
vector2
6
ByLayer
62
256
370
-1
100
AcDbCircle
10
17.54499
20
21.787
40
0.05
100
AcDbArc
50
270
51
0
0
LINE
5
356
100
AcDbEntity
8
vector2
6
ByLayer
62
256
370
-1
100
AcDbLine
10
17.54499
20
21.737
11
16.89499
21
21.737
0
LINE
5
357
100
AcDbEntity
8
vector2
6
ByLayer
62
256
370
-1
100
AcDbLine
10
16.84499
20
21.787
11
16.84499
21
22.087
0
ARC
5
358
100
AcDbEntity
8
vector2
6
ByLayer
62
256
370
-1
100
AcDbCircle
10
16.89499
20
21.787
40
0.05
100
AcDbArc
50
180
51
270
0
LINE
5
359
100
AcDbEntity
8
vector2
6
ByLayer
62
256
370
-1
100
AcDbLine
10
22.08188
20
21.4685
11
22.08188
21
21.9685
0
LINE
5
35A
100
AcDbEntity
8
vector2
6
ByLayer
62
256
370
-1
100
AcDbLine
10
22.08188
20
21.9685
11
22.2
21
21.9685
0
LINE
5
35B
100
AcDbEntity
8
vector2
6
ByLayer
62
256
370
-1
100
AcDbLine
10
22.2
20
21.9685
11
22.2
21
22.43699
0
LINE
5
35C
100
AcDbEntity
8
vector2
6
ByLayer
62
256
370
-1
100
AcDbLine
10
22.2
20
22.43699
11
21.61594
21
22.43699
0
LINE
5
35D
100
AcDbEntity
8
vector2
6
ByLayer
62
256
370
-1
100
AcDbLine
10
21.61594
20
22.43699
11
21.61594
21
22.55511
0
LINE
5
35E
100
AcDbEntity
8
vector2
6
ByLayer
62
256
370
-1
100
AcDbLine
10
21.61594
20
22.55511
11
20.865935
21
22.55511
0
LINE
5
35F
100
AcDbEntity
8
vector2
6
ByLayer
62
256
370
-1
100
AcDbLine
10
20.865935
20
22.55511
11
20.865935
21
22.43699
0
LINE
5
360
100
AcDbEntity
8
vector2
6
ByLayer
62
256
370
-1
100
AcDbLine
10
20.865935
20
22.43699
11
19.697845
21
22.43699
0
LINE
5
361
100
AcDbEntity
8
vector2
6
ByLayer
62
256
370
-1
100
AcDbLine
10
19.697845
20
22.43699
11
19.697845
21
22.55511
0
LINE
5
362
100
AcDbEntity
8
vector2
6
ByLayer
62
256
370
-1
100
AcDbLine
10
19.697845
20
22.55511
11
18.94784
21
22.55511
0
LINE
5
363
100
AcDbEntity
8
vector2
6
ByLayer
62
256
370
-1
100
AcDbLine
10
18.94784
20
22.55511
11
18.94784
21
22.43699
0
LINE
5
364
100
AcDbEntity
8
vector2
6
ByLayer
62
256
370
-1
100
AcDbLine
10
18.94784
20
22.43699
11
18.36378
21
22.43699
0
LINE
5
365
100
AcDbEntity
8
vector2
6
ByLayer
62
256
370
-1
100
AcDbLine
10
18.36378
20
22.43699
11
18.36378
21
21.9685
0
LINE
5
366
100
AcDbEntity
8
vector2
6
ByLayer
62
256
370
-1
100
AcDbLine
10
18.36378
20
21.9685
11
18.4819
21
21.9685
0
LINE
5
367
100
AcDbEntity
8
vector2
6
ByLayer
62
256
370
-1
100
AcDbLine
10
18.4819
20
21.9685
11
18.4819
21
21.4685
0
LINE
5
368
100
AcDbEntity
8
vector2
6
ByLayer
62
256
370
-1
100
AcDbLine
10
18.4819
20
21.4685
11
18.36378
21
21.4685
0
LINE
5
369
100
AcDbEntity
8
vector2
6
ByLayer
62
256
370
-1
100
AcDbLine
10
18.36378
20
21.4685
11
18.36378
21
21
0
LINE
5
36A
100
AcDbEntity
8
vector2
6
ByLayer
62
256
370
-1
100
AcDbLine
10
18.36378
20
21
11
18.94784
21
21
0
LINE
5
36B
100
AcDbEntity
8
vector2
6
ByLayer
62
256
370
-1
100
AcDbLine
10
18.94784
20
21
11
18.94784
21
20.88189
0
LINE
5
36C
100
AcDbEntity
8
vector2
6
ByLayer
62
256
370
-1
100
AcDbLine
10
18.94784
20
20.88189
11
19.697845
21
20.88189
0
LINE
5
36D
100
AcDbEntity
8
vector2
6
ByLayer
62
256
370
-1
100
AcDbLine
10
19.697845
20
20.88189
11
19.697845
21
21
0
LINE
5
36E
100
AcDbEntity
8
vector2
6
ByLayer
62
256
370
-1
100
AcDbLine
10
19.697845
20
21
11
20.865935
21
21
0
LINE
5
36F
100
AcDbEntity
8
vector2
6
ByLayer
62
256
370
-1
100
AcDbLine
10
20.865935
20
21
11
20.865935
21
20.88189
0
LINE
5
370
100
AcDbEntity
8
vector2
6
ByLayer
62
256
370
-1
100
AcDbLine
10
20.865935
20
20.88189
11
21.61594
21
20.88189
0
LINE
5
371
100
AcDbEntity
8
vector2
6
ByLayer
62
256
370
-1
100
AcDbLine
10
21.61594
20
20.88189
11
21.61594
21
21
0
LINE
5
372
100
AcDbEntity
8
vector2
6
ByLayer
62
256
370
-1
100
AcDbLine
10
21.61594
20
21
11
22.2
21
21
0
LINE
5
373
100
AcDbEntity
8
vector2
6
ByLayer
62
256
370
-1
100
AcDbLine
10
22.2
20
21
11
22.2
21
21.4685
0
LINE
5
374
100
AcDbEntity
8
vector2
6
ByLayer
62
256
370
-1
100
AcDbLine
10
22.2
20
21.4685
11
22.08188
21
21.4685
0
ARC
5
375
100
AcDbEntity
8
vector2
6
ByLayer
62
256
370
-1
100
AcDbCircle
10
19.98179
20
21.63199
40
0.05
100
AcDbArc
50
180
51
270
0
LINE
5
376
100
AcDbEntity
8
vector2
6
ByLayer
62
256
370
-1
100
AcDbLine
10
19.93179
20
21.63199
11
19.93179
21
22.13699
0
ARC
5
377
100
AcDbEntity
8
vector2
6
ByLayer
62
256
370
-1
100
AcDbCircle
10
19.98179
20
22.13699
40
0.05
100
AcDbArc
50
90
51
180
0
LINE
5
378
100
AcDbEntity
8
vector2
6
ByLayer
62
256
370
-1
100
AcDbLine
10
21.58179
20
21.58199
11
19.98179
21
21.58199
0
ARC
5
379
100
AcDbEntity
8
vector2
6
ByLayer
62
256
370
-1
100
AcDbCircle
10
21.58179
20
21.63199
40
0.05
100
AcDbArc
50
270
51
360
0
LINE
5
37A
100
AcDbEntity
8
vector2
6
ByLayer
62
256
370
-1
100
AcDbLine
10
21.63179
20
22.13699
11
21.63179
21
21.63199
0
LINE
5
37B
100
AcDbEntity
8
vector2
6
ByLayer
62
256
370
-1
100
AcDbLine
10
19.98179
20
22.18699
11
21.58179
21
22.18699
0
ARC
5
37C
100
AcDbEntity
8
vector2
6
ByLayer
62
256
370
-1
100
AcDbCircle
10
21.58179
20
22.13699
40
0.05
100
AcDbArc
50
360
51
90
0
ARC
5
37D
100
AcDbEntity
8
vector2
6
ByLayer
62
256
370
-1
100
AcDbCircle
10
19.25179
20
21.84999
40
0.05
100
AcDbArc
50
180
51
270
0
LINE
5
37E
100
AcDbEntity
8
vector2
6
ByLayer
62
256
370
-1
100
AcDbLine
10
19.20179
20
21.84999
11
19.20179
21
22.04999
0
ARC
5
37F
100
AcDbEntity
8
vector2
6
ByLayer
62
256
370
-1
100
AcDbCircle
10
19.25179
20
22.04999
40
0.05
100
AcDbArc
50
90
51
180
0
LINE
5
380
100
AcDbEntity
8
vector2
6
ByLayer
62
256
370
-1
100
AcDbLine
10
19.25179
20
22.09999
11
19.55179
21
22.09999
0
ARC
5
381
100
AcDbEntity
8
vector2
6
ByLayer
62
256
370
-1
100
AcDbCircle
10
19.55179
20
22.04999
40
0.05
100
AcDbArc
50
360
51
90
0
LINE
5
382
100
AcDbEntity
8
vector2
6
ByLayer
62
256
370
-1
100
AcDbLine
10
19.60179
20
22.04999
11
19.60179
21
21.84999
0
LINE
5
383
100
AcDbEntity
8
vector2
6
ByLayer
62
256
370
-1
100
AcDbLine
10
19.55179
20
21.79999
11
19.25179
21
21.79999
0
ARC
5
384
100
AcDbEntity
8
vector2
6
ByLayer
62
256
370
-1
100
AcDbCircle
10
19.55179
20
21.84999
40
0.05
100
AcDbArc
50
270
51
360
0
LINE
5
385
100
AcDbEntity
8
vector3
6
ByLayer
62
256
370
-1
100
AcDbLine
10
17.65411
20
2.8431
11
17.53599
21
2.8431
0
LINE
5
386
100
AcDbEntity
8
vector3
6
ByLayer
62
256
370
-1
100
AcDbLine
10
17.53599
20
2.8431
11
17.53599
21
3.5931
0
LINE
5
387
100
AcDbEntity
8
vector3
6
ByLayer
62
256
370
-1
100
AcDbLine
10
17.53599
20
3.5931
11
17.65411
21
3.5931
0
LINE
5
388
100
AcDbEntity
8
vector3
6
ByLayer
62
256
370
-1
100
AcDbLine
10
17.65411
20
3.5931
11
17.65411
21
2.8431
0
LINE
5
389
100
AcDbEntity
8
vector3
6
ByLayer
62
256
370
-1
100
AcDbLine
10
17.65411
20
1.3131
11
17.53599
21
1.3131
0
LINE
5
38A
100
AcDbEntity
8
vector3
6
ByLayer
62
256
370
-1
100
AcDbLine
10
17.53599
20
1.3131
11
17.53599
21
2.0631
0
LINE
5
38B
100
AcDbEntity
8
vector3
6
ByLayer
62
256
370
-1
100
AcDbLine
10
17.53599
20
2.0631
11
17.65411
21
2.0631
0
LINE
5
38C
100
AcDbEntity
8
vector3
6
ByLayer
62
256
370
-1
100
AcDbLine
10
17.65411
20
2.0631
11
17.65411
21
1.3131
0
LINE
5
38D
100
AcDbEntity
8
vector3
6
ByLayer
62
256
370
-1
100
AcDbLine
10
17.65411
20
4.3731
11
17.53599
21
4.3731
0
LINE
5
38E
100
AcDbEntity
8
vector3
6
ByLayer
62
256
370
-1
100
AcDbLine
10
17.53599
20
4.3731
11
17.53599
21
5.1231
0
LINE
5
38F
100
AcDbEntity
8
vector3
6
ByLayer
62
256
370
-1
100
AcDbLine
10
17.53599
20
5.1231
11
17.65411
21
5.1231
0
LINE
5
390
100
AcDbEntity
8
vector3
6
ByLayer
62
256
370
-1
100
AcDbLine
10
17.65411
20
5.1231
11
17.65411
21
4.3731
0
LINE
5
391
100
AcDbEntity
8
vector3
6
ByLayer
62
256
370
-1
100
AcDbLine
10
18.87005
20
0.54999
11
18.12005
21
0.54999
0
LINE
5
392
100
AcDbEntity
8
vector3
6
ByLayer
62
256
370
-1
100
AcDbLine
10
18.12005
20
0.54999
11
18.12005
21
0.6681
0
LINE
5
393
100
AcDbEntity
8
vector3
6
ByLayer
62
256
370
-1
100
AcDbLine
10
18.12005
20
0.6681
11
18.87005
21
0.6681
0
LINE
5
394
100
AcDbEntity
8
vector3
6
ByLayer
62
256
370
-1
100
AcDbLine
10
18.87005
20
0.6681
11
18.87005
21
0.54999
0
LINE
5
395
100
AcDbEntity
8
vector3
6
ByLayer
62
256
370
-1
100
AcDbLine
10
18.87005
20
5.7681
11
18.12005
21
5.7681
0
LINE
5
396
100
AcDbEntity
8
vector3
6
ByLayer
62
256
370
-1
100
AcDbLine
10
18.12005
20
5.7681
11
18.12005
21
5.88621
0
LINE
5
397
100
AcDbEntity
8
vector3
6
ByLayer
62
256
370
-1
100
AcDbLine
10
18.12005
20
5.88621
11
18.87005
21
5.88621
0
LINE
5
398
100
AcDbEntity
8
vector3
6
ByLayer
62
256
370
-1
100
AcDbLine
10
18.87005
20
5.88621
11
18.87005
21
5.7681
0
LINE
5
399
100
AcDbEntity
8
vector3
6
ByLayer
62
256
370
-1
100
AcDbLine
10
20.78817
20
5.7681
11
20.03817
21
5.7681
0
LINE
5
39A
100
AcDbEntity
8
vector3
6
ByLayer
62
256
370
-1
100
AcDbLine
10
20.03817
20
5.7681
11
20.03817
21
5.88621
0
LINE
5
39B
100
AcDbEntity
8
vector3
6
ByLayer
62
256
370
-1
100
AcDbLine
10
20.03817
20
5.88621
11
20.78817
21
5.88621
0
LINE
5
39C
100
AcDbEntity
8
vector3
6
ByLayer
62
256
370
-1
100
AcDbLine
10
20.78817
20
5.88621
11
20.78817
21
5.7681
0
LINE
5
39D
100
AcDbEntity
8
vector3
6
ByLayer
62
256
370
-1
100
AcDbLine
10
20.78817
20
0.54999
11
20.03817
21
0.54999
0
LINE
5
39E
100
AcDbEntity
8
vector3
6
ByLayer
62
256
370
-1
100
AcDbLine
10
20.03817
20
0.54999
11
20.03817
21
0.6681
0
LINE
5
39F
100
AcDbEntity
8
vector3
6
ByLayer
62
256
370
-1
100
AcDbLine
10
20.03817
20
0.6681
11
20.78817
21
0.6681
0
LINE
5
3A0
100
AcDbEntity
8
vector3
6
ByLayer
62
256
370
-1
100
AcDbLine
10
20.78817
20
0.6681
11
20.78817
21
0.54999
0
LINE
5
3A1
100
AcDbEntity
8
vector3
6
ByLayer
62
256
370
-1
100
AcDbLine
10
21.37223
20
1.3131
11
21.25412
21
1.3131
0
LINE
5
3A2
100
AcDbEntity
8
vector3
6
ByLayer
62
256
370
-1
100
AcDbLine
10
21.25412
20
1.3131
11
21.25412
21
2.0631
0
LINE
5
3A3
100
AcDbEntity
8
vector3
6
ByLayer
62
256
370
-1
100
AcDbLine
10
21.25412
20
2.0631
11
21.37223
21
2.0631
0
LINE
5
3A4
100
AcDbEntity
8
vector3
6
ByLayer
62
256
370
-1
100
AcDbLine
10
21.37223
20
2.0631
11
21.37223
21
1.3131
0
LINE
5
3A5
100
AcDbEntity
8
vector3
6
ByLayer
62
256
370
-1
100
AcDbLine
10
21.37223
20
4.3731
11
21.25412
21
4.3731
0
LINE
5
3A6
100
AcDbEntity
8
vector3
6
ByLayer
62
256
370
-1
100
AcDbLine
10
21.25412
20
4.3731
11
21.25412
21
5.1231
0
LINE
5
3A7
100
AcDbEntity
8
vector3
6
ByLayer
62
256
370
-1
100
AcDbLine
10
21.25412
20
5.1231
11
21.37223
21
5.1231
0
LINE
5
3A8
100
AcDbEntity
8
vector3
6
ByLayer
62
256
370
-1
100
AcDbLine
10
21.37223
20
5.1231
11
21.37223
21
4.3731
0
LINE
5
3A9
100
AcDbEntity
8
vector3
6
ByLayer
62
256
370
-1
100
AcDbLine
10
21.37223
20
2.8431
11
21.25412
21
2.8431
0
LINE
5
3AA
100
AcDbEntity
8
vector3
6
ByLayer
62
256
370
-1
100
AcDbLine
10
21.25412
20
2.8431
11
21.25412
21
3.5931
0
LINE
5
3AB
100
AcDbEntity
8
vector3
6
ByLayer
62
256
370
-1
100
AcDbLine
10
21.25412
20
3.5931
11
21.37223
21
3.5931
0
LINE
5
3AC
100
AcDbEntity
8
vector3
6
ByLayer
62
256
370
-1
100
AcDbLine
10
21.37223
20
3.5931
11
21.37223
21
2.8431
0
ARC
5
3AD
100
AcDbEntity
8
vector3
6
ByLayer
62
256
370
-1
100
AcDbCircle
10
17.586
20
0.6
40
0.15
100
AcDbArc
50
180
51
270
0
LINE
5
3AE
100
AcDbEntity
8
vector3
6
ByLayer
62
256
370
-1
100
AcDbLine
10
17.436
20
5.8362
11
17.436
21
0.6
0
ARC
5
3AF
100
AcDbEntity
8
vector3
6
ByLayer
62
256
370
-1
100
AcDbCircle
10
17.586
20
5.8362
40
0.15
100
AcDbArc
50
90
51
180
0
LINE
5
3B0
100
AcDbEntity
8
vector3
6
ByLayer
62
256
370
-1
100
AcDbLine
10
17.586
20
0.45
11
21.32203
21
0.45
0
ARC
5
3B1
100
AcDbEntity
8
vector3
6
ByLayer
62
256
370
-1
100
AcDbCircle
10
21.32203
20
0.6
40
0.15
100
AcDbArc
50
270
51
360
0
LINE
5
3B2
100
AcDbEntity
8
vector3
6
ByLayer
62
256
370
-1
100
AcDbLine
10
21.47203
20
0.6
11
21.47203
21
5.8362
0
LINE
5
3B3
100
AcDbEntity
8
vector3
6
ByLayer
62
256
370
-1
100
AcDbLine
10
21.32203
20
5.9862
11
17.586
21
5.9862
0
ARC
5
3B4
100
AcDbEntity
8
vector3
6
ByLayer
62
256
370
-1
100
AcDbCircle
10
21.32203
20
5.8362
40
0.15
100
AcDbArc
50
360
51
90
0
CIRCLE
5
3B5
100
AcDbEntity
8
vector3
6
ByLayer
62
256
370
-1
100
AcDbCircle
10
17.853915
20
0.8681
40
0.058
0
CIRCLE
5
3B6
100
AcDbEntity
8
vector3
6
ByLayer
62
256
370
-1
100
AcDbCircle
10
17.853915
20
5.5681
40
0.058
0
CIRCLE
5
3B7
100
AcDbEntity
8
vector3
6
ByLayer
62
256
370
-1
100
AcDbCircle
10
21.053915
20
0.8681
40
0.058
0
CIRCLE
5
3B8
100
AcDbEntity
8
vector3
6
ByLayer
62
256
370
-1
100
AcDbCircle
10
21.053915
20
5.5681
40
0.058
0
LINE
5
3B9
100
AcDbEntity
8
vector3
6
ByLayer
62
256
370
-1
100
AcDbLine
10
13.4181
20
4.3731
11
13.29999
21
4.3731
0
LINE
5
3BA
100
AcDbEntity
8
vector3
6
ByLayer
62
256
370
-1
100
AcDbLine
10
13.29999
20
4.3731
11
13.29999
21
5.1231
0
LINE
5
3BB
100
AcDbEntity
8
vector3
6
ByLayer
62
256
370
-1
100
AcDbLine
10
13.29999
20
5.1231
11
13.4181
21
5.1231
0
LINE
5
3BC
100
AcDbEntity
8
vector3
6
ByLayer
62
256
370
-1
100
AcDbLine
10
13.4181
20
5.1231
11
13.4181
21
4.3731
0
LINE
5
3BD
100
AcDbEntity
8
vector3
6
ByLayer
62
256
370
-1
100
AcDbLine
10
13.4181
20
2.8431
11
13.29999
21
2.8431
0
LINE
5
3BE
100
AcDbEntity
8
vector3
6
ByLayer
62
256
370
-1
100
AcDbLine
10
13.29999
20
2.8431
11
13.29999
21
3.5931
0
LINE
5
3BF
100
AcDbEntity
8
vector3
6
ByLayer
62
256
370
-1
100
AcDbLine
10
13.29999
20
3.5931
11
13.4181
21
3.5931
0
LINE
5
3C0
100
AcDbEntity
8
vector3
6
ByLayer
62
256
370
-1
100
AcDbLine
10
13.4181
20
3.5931
11
13.4181
21
2.8431
0
LINE
5
3C1
100
AcDbEntity
8
vector3
6
ByLayer
62
256
370
-1
100
AcDbLine
10
13.4181
20
1.3131
11
13.29999
21
1.3131
0
LINE
5
3C2
100
AcDbEntity
8
vector3
6
ByLayer
62
256
370
-1
100
AcDbLine
10
13.29999
20
1.3131
11
13.29999
21
2.0631
0
LINE
5
3C3
100
AcDbEntity
8
vector3
6
ByLayer
62
256
370
-1
100
AcDbLine
10
13.29999
20
2.0631
11
13.4181
21
2.0631
0
LINE
5
3C4
100
AcDbEntity
8
vector3
6
ByLayer
62
256
370
-1
100
AcDbLine
10
13.4181
20
2.0631
11
13.4181
21
1.3131
0
LINE
5
3C5
100
AcDbEntity
8
vector3
6
ByLayer
62
256
370
-1
100
AcDbLine
10
14.634055
20
5.7681
11
13.88405
21
5.7681
0
LINE
5
3C6
100
AcDbEntity
8
vector3
6
ByLayer
62
256
370
-1
100
AcDbLine
10
13.88405
20
5.7681
11
13.88405
21
5.88621
0
LINE
5
3C7
100
AcDbEntity
8
vector3
6
ByLayer
62
256
370
-1
100
AcDbLine
10
13.88405
20
5.88621
11
14.634055
21
5.88621
0
LINE
5
3C8
100
AcDbEntity
8
vector3
6
ByLayer
62
256
370
-1
100
AcDbLine
10
14.634055
20
5.88621
11
14.634055
21
5.7681
0
LINE
5
3C9
100
AcDbEntity
8
vector3
6
ByLayer
62
256
370
-1
100
AcDbLine
10
14.634055
20
0.54999
11
13.88405
21
0.54999
0
LINE
5
3CA
100
AcDbEntity
8
vector3
6
ByLayer
62
256
370
-1
100
AcDbLine
10
13.88405
20
0.54999
11
13.88405
21
0.6681
0
LINE
5
3CB
100
AcDbEntity
8
vector3
6
ByLayer
62
256
370
-1
100
AcDbLine
10
13.88405
20
0.6681
11
14.634055
21
0.6681
0
LINE
5
3CC
100
AcDbEntity
8
vector3
6
ByLayer
62
256
370
-1
100
AcDbLine
10
14.634055
20
0.6681
11
14.634055
21
0.54999
0
LINE
5
3CD
100
AcDbEntity
8
vector3
6
ByLayer
62
256
370
-1
100
AcDbLine
10
16.55215
20
5.7681
11
15.802145
21
5.7681
0
LINE
5
3CE
100
AcDbEntity
8
vector3
6
ByLayer
62
256
370
-1
100
AcDbLine
10
15.802145
20
5.7681
11
15.802145
21
5.88621
0
LINE
5
3CF
100
AcDbEntity
8
vector3
6
ByLayer
62
256
370
-1
100
AcDbLine
10
15.802145
20
5.88621
11
16.55215
21
5.88621
0
LINE
5
3D0
100
AcDbEntity
8
vector3
6
ByLayer
62
256
370
-1
100
AcDbLine
10
16.55215
20
5.88621
11
16.55215
21
5.7681
0
LINE
5
3D1
100
AcDbEntity
8
vector3
6
ByLayer
62
256
370
-1
100
AcDbLine
10
16.55215
20
0.54999
11
15.802145
21
0.54999
0
LINE
5
3D2
100
AcDbEntity
8
vector3
6
ByLayer
62
256
370
-1
100
AcDbLine
10
15.802145
20
0.54999
11
15.802145
21
0.6681
0
LINE
5
3D3
100
AcDbEntity
8
vector3
6
ByLayer
62
256
370
-1
100
AcDbLine
10
15.802145
20
0.6681
11
16.55215
21
0.6681
0
LINE
5
3D4
100
AcDbEntity
8
vector3
6
ByLayer
62
256
370
-1
100
AcDbLine
10
16.55215
20
0.6681
11
16.55215
21
0.54999
0
LINE
5
3D5
100
AcDbEntity
8
vector3
6
ByLayer
62
256
370
-1
100
AcDbLine
10
17.13621
20
4.3731
11
17.0181
21
4.3731
0
LINE
5
3D6
100
AcDbEntity
8
vector3
6
ByLayer
62
256
370
-1
100
AcDbLine
10
17.0181
20
4.3731
11
17.0181
21
5.1231
0
LINE
5
3D7
100
AcDbEntity
8
vector3
6
ByLayer
62
256
370
-1
100
AcDbLine
10
17.0181
20
5.1231
11
17.13621
21
5.1231
0
LINE
5
3D8
100
AcDbEntity
8
vector3
6
ByLayer
62
256
370
-1
100
AcDbLine
10
17.13621
20
5.1231
11
17.13621
21
4.3731
0
LINE
5
3D9
100
AcDbEntity
8
vector3
6
ByLayer
62
256
370
-1
100
AcDbLine
10
17.13621
20
1.3131
11
17.0181
21
1.3131
0
LINE
5
3DA
100
AcDbEntity
8
vector3
6
ByLayer
62
256
370
-1
100
AcDbLine
10
17.0181
20
1.3131
11
17.0181
21
2.0631
0
LINE
5
3DB
100
AcDbEntity
8
vector3
6
ByLayer
62
256
370
-1
100
AcDbLine
10
17.0181
20
2.0631
11
17.13621
21
2.0631
0
LINE
5
3DC
100
AcDbEntity
8
vector3
6
ByLayer
62
256
370
-1
100
AcDbLine
10
17.13621
20
2.0631
11
17.13621
21
1.3131
0
LINE
5
3DD
100
AcDbEntity
8
vector3
6
ByLayer
62
256
370
-1
100
AcDbLine
10
17.13621
20
2.8431
11
17.0181
21
2.8431
0
LINE
5
3DE
100
AcDbEntity
8
vector3
6
ByLayer
62
256
370
-1
100
AcDbLine
10
17.0181
20
2.8431
11
17.0181
21
3.5931
0
LINE
5
3DF
100
AcDbEntity
8
vector3
6
ByLayer
62
256
370
-1
100
AcDbLine
10
17.0181
20
3.5931
11
17.13621
21
3.5931
0
LINE
5
3E0
100
AcDbEntity
8
vector3
6
ByLayer
62
256
370
-1
100
AcDbLine
10
17.13621
20
3.5931
11
17.13621
21
2.8431
0
ARC
5
3E1
100
AcDbEntity
8
vector3
6
ByLayer
62
256
370
-1
100
AcDbCircle
10
13.35
20
0.6
40
0.15
100
AcDbArc
50
180
51
270
0
LINE
5
3E2
100
AcDbEntity
8
vector3
6
ByLayer
62
256
370
-1
100
AcDbLine
10
13.2
20
5.8362
11
13.2
21
0.6
0
ARC
5
3E3
100
AcDbEntity
8
vector3
6
ByLayer
62
256
370
-1
100
AcDbCircle
10
13.35
20
5.8362
40
0.15
100
AcDbArc
50
90
51
180
0
LINE
5
3E4
100
AcDbEntity
8
vector3
6
ByLayer
62
256
370
-1
100
AcDbLine
10
17.086
20
5.9862
11
13.35
21
5.9862
0
ARC
5
3E5
100
AcDbEntity
8
vector3
6
ByLayer
62
256
370
-1
100
AcDbCircle
10
17.086
20
5.8362
40
0.15
100
AcDbArc
50
360
51
90
0
LINE
5
3E6
100
AcDbEntity
8
vector3
6
ByLayer
62
256
370
-1
100
AcDbLine
10
13.35
20
0.45
11
17.086
21
0.45
0
LINE
5
3E7
100
AcDbEntity
8
vector3
6
ByLayer
62
256
370
-1
100
AcDbLine
10
17.236
20
0.6
11
17.236
21
5.8362
0
ARC
5
3E8
100
AcDbEntity
8
vector3
6
ByLayer
62
256
370
-1
100
AcDbCircle
10
17.086
20
0.6
40
0.15
100
AcDbArc
50
270
51
360
0
CIRCLE
5
3E9
100
AcDbEntity
8
vector3
6
ByLayer
62
256
370
-1
100
AcDbCircle
10
13.618
20
0.8681
40
0.058
0
CIRCLE
5
3EA
100
AcDbEntity
8
vector3
6
ByLayer
62
256
370
-1
100
AcDbCircle
10
13.618
20
5.5681
40
0.058
0
CIRCLE
5
3EB
100
AcDbEntity
8
vector3
6
ByLayer
62
256
370
-1
100
AcDbCircle
10
16.818
20
0.8681
40
0.058
0
CIRCLE
5
3EC
100
AcDbEntity
8
vector3
6
ByLayer
62
256
370
-1
100
AcDbCircle
10
16.818
20
5.5681
40
0.058
0
LINE
5
3ED
100
AcDbEntity
8
vector3
6
ByLayer
62
256
370
-1
100
AcDbLine
10
23.32299
20
1.94499
11
23.32299
21
2.72499
0
LINE
5
3EE
100
AcDbEntity
8
vector3
6
ByLayer
62
256
370
-1
100
AcDbLine
10
23.32299
20
2.72499
11
23.4411
21
2.72499
0
LINE
5
3EF
100
AcDbEntity
8
vector3
6
ByLayer
62
256
370
-1
100
AcDbLine
10
23.4411
20
2.72499
11
23.4411
21
3.47499
0
LINE
5
3F0
100
AcDbEntity
8
vector3
6
ByLayer
62
256
370
-1
100
AcDbLine
10
23.4411
20
3.47499
11
23.32299
21
3.47499
0
LINE
5
3F1
100
AcDbEntity
8
vector3
6
ByLayer
62
256
370
-1
100
AcDbLine
10
23.32299
20
3.47499
11
23.32299
21
4.25499
0
LINE
5
3F2
100
AcDbEntity
8
vector3
6
ByLayer
62
256
370
-1
100
AcDbLine
10
23.32299
20
4.25499
11
23.4411
21
4.25499
0
LINE
5
3F3
100
AcDbEntity
8
vector3
6
ByLayer
62
256
370
-1
100
AcDbLine
10
23.4411
20
4.25499
11
23.4411
21
5.00499
0
LINE
5
3F4
100
AcDbEntity
8
vector3
6
ByLayer
62
256
370
-1
100
AcDbLine
10
23.4411
20
5.00499
11
23.32299
21
5.00499
0
LINE
5
3F5
100
AcDbEntity
8
vector3
6
ByLayer
62
256
370
-1
100
AcDbLine
10
23.32299
20
5.00499
11
23.32299
21
5.64998
0
LINE
5
3F6
100
AcDbEntity
8
vector3
6
ByLayer
62
256
370
-1
100
AcDbLine
10
23.32299
20
5.64998
11
22.85449
21
5.64998
0
LINE
5
3F7
100
AcDbEntity
8
vector3
6
ByLayer
62
256
370
-1
100
AcDbLine
10
22.85449
20
5.64998
11
22.85449
21
5.7681
0
LINE
5
3F8
100
AcDbEntity
8
vector3
6
ByLayer
62
256
370
-1
100
AcDbLine
10
22.85449
20
5.7681
11
22.35449
21
5.7681
0
LINE
5
3F9
100
AcDbEntity
8
vector3
6
ByLayer
62
256
370
-1
100
AcDbLine
10
22.35449
20
5.7681
11
22.35449
21
5.64998
0
LINE
5
3FA
100
AcDbEntity
8
vector3
6
ByLayer
62
256
370
-1
100
AcDbLine
10
22.35449
20
5.64998
11
21.886
21
5.64998
0
LINE
5
3FB
100
AcDbEntity
8
vector3
6
ByLayer
62
256
370
-1
100
AcDbLine
10
21.886
20
5.64998
11
21.886
21
5.00499
0
LINE
5
3FC
100
AcDbEntity
8
vector3
6
ByLayer
62
256
370
-1
100
AcDbLine
10
21.886
20
5.00499
11
21.76788
21
5.00499
0
LINE
5
3FD
100
AcDbEntity
8
vector3
6
ByLayer
62
256
370
-1
100
AcDbLine
10
21.76788
20
5.00499
11
21.76788
21
4.25499
0
LINE
5
3FE
100
AcDbEntity
8
vector3
6
ByLayer
62
256
370
-1
100
AcDbLine
10
21.76788
20
4.25499
11
21.886
21
4.25499
0
LINE
5
3FF
100
AcDbEntity
8
vector3
6
ByLayer
62
256
370
-1
100
AcDbLine
10
21.886
20
4.25499
11
21.886
21
3.47499
0
LINE
5
400
100
AcDbEntity
8
vector3
6
ByLayer
62
256
370
-1
100
AcDbLine
10
21.886
20
3.47499
11
21.76788
21
3.47499
0
LINE
5
401
100
AcDbEntity
8
vector3
6
ByLayer
62
256
370
-1
100
AcDbLine
10
21.76788
20
3.47499
11
21.76788
21
2.72499
0
LINE
5
402
100
AcDbEntity
8
vector3
6
ByLayer
62
256
370
-1
100
AcDbLine
10
21.76788
20
2.72499
11
21.886
21
2.72499
0
LINE
5
403
100
AcDbEntity
8
vector3
6
ByLayer
62
256
370
-1
100
AcDbLine
10
21.886
20
2.72499
11
21.886
21
1.94499
0
LINE
5
404
100
AcDbEntity
8
vector3
6
ByLayer
62
256
370
-1
100
AcDbLine
10
21.886
20
1.94499
11
21.76788
21
1.94499
0
LINE
5
405
100
AcDbEntity
8
vector3
6
ByLayer
62
256
370
-1
100
AcDbLine
10
21.76788
20
1.94499
11
21.76788
21
1.19499
0
LINE
5
406
100
AcDbEntity
8
vector3
6
ByLayer
62
256
370
-1
100
AcDbLine
10
21.76788
20
1.19499
11
21.886
21
1.19499
0
LINE
5
407
100
AcDbEntity
8
vector3
6
ByLayer
62
256
370
-1
100
AcDbLine
10
21.886
20
1.19499
11
21.886
21
0.55
0
LINE
5
408
100
AcDbEntity
8
vector3
6
ByLayer
62
256
370
-1
100
AcDbLine
10
21.886
20
0.55
11
22.35449
21
0.55
0
LINE
5
409
100
AcDbEntity
8
vector3
6
ByLayer
62
256
370
-1
100
AcDbLine
10
22.35449
20
0.55
11
22.35449
21
0.43188
0
LINE
5
40A
100
AcDbEntity
8
vector3
6
ByLayer
62
256
370
-1
100
AcDbLine
10
22.35449
20
0.43188
11
22.85449
21
0.43188
0
LINE
5
40B
100
AcDbEntity
8
vector3
6
ByLayer
62
256
370
-1
100
AcDbLine
10
22.85449
20
0.43188
11
22.85449
21
0.55
0
LINE
5
40C
100
AcDbEntity
8
vector3
6
ByLayer
62
256
370
-1
100
AcDbLine
10
22.85449
20
0.55
11
23.32299
21
0.55
0
LINE
5
40D
100
AcDbEntity
8
vector3
6
ByLayer
62
256
370
-1
100
AcDbLine
10
23.32299
20
0.55
11
23.32299
21
1.19499
0
LINE
5
40E
100
AcDbEntity
8
vector3
6
ByLayer
62
256
370
-1
100
AcDbLine
10
23.32299
20
1.19499
11
23.4411
21
1.19499
0
LINE
5
40F
100
AcDbEntity
8
vector3
6
ByLayer
62
256
370
-1
100
AcDbLine
10
23.4411
20
1.19499
11
23.4411
21
1.94499
0
LINE
5
410
100
AcDbEntity
8
vector3
6
ByLayer
62
256
370
-1
100
AcDbLine
10
23.4411
20
1.94499
11
23.32299
21
1.94499
0
LINE
5
411
100
AcDbEntity
8
vector3
6
ByLayer
62
256
370
-1
100
AcDbLine
10
15.68099
20
6.25
11
16.46099
21
6.25
0
LINE
5
412
100
AcDbEntity
8
vector3
6
ByLayer
62
256
370
-1
100
AcDbLine
10
16.46099
20
6.25
11
16.46099
21
6.13188
0
LINE
5
413
100
AcDbEntity
8
vector3
6
ByLayer
62
256
370
-1
100
AcDbLine
10
16.46099
20
6.13188
11
17.21099
21
6.13188
0
LINE
5
414
100
AcDbEntity
8
vector3
6
ByLayer
62
256
370
-1
100
AcDbLine
10
17.21099
20
6.13188
11
17.21099
21
6.25
0
LINE
5
415
100
AcDbEntity
8
vector3
6
ByLayer
62
256
370
-1
100
AcDbLine
10
17.21099
20
6.25
11
17.99099
21
6.25
0
LINE
5
416
100
AcDbEntity
8
vector3
6
ByLayer
62
256
370
-1
100
AcDbLine
10
17.99099
20
6.25
11
17.99099
21
6.13188
0
LINE
5
417
100
AcDbEntity
8
vector3
6
ByLayer
62
256
370
-1
100
AcDbLine
10
17.99099
20
6.13188
11
18.74099
21
6.13188
0
LINE
5
418
100
AcDbEntity
8
vector3
6
ByLayer
62
256
370
-1
100
AcDbLine
10
18.74099
20
6.13188
11
18.74099
21
6.25
0
LINE
5
419
100
AcDbEntity
8
vector3
6
ByLayer
62
256
370
-1
100
AcDbLine
10
18.74099
20
6.25
11
19.38598
21
6.25
0
LINE
5
41A
100
AcDbEntity
8
vector3
6
ByLayer
62
256
370
-1
100
AcDbLine
10
19.38598
20
6.25
11
19.38598
21
6.71849
0
LINE
5
41B
100
AcDbEntity
8
vector3
6
ByLayer
62
256
370
-1
100
AcDbLine
10
19.38598
20
6.71849
11
19.5041
21
6.71849
0
LINE
5
41C
100
AcDbEntity
8
vector3
6
ByLayer
62
256
370
-1
100
AcDbLine
10
19.5041
20
6.71849
11
19.5041
21
7.21849
0
LINE
5
41D
100
AcDbEntity
8
vector3
6
ByLayer
62
256
370
-1
100
AcDbLine
10
19.5041
20
7.21849
11
19.38598
21
7.21849
0
LINE
5
41E
100
AcDbEntity
8
vector3
6
ByLayer
62
256
370
-1
100
AcDbLine
10
19.38598
20
7.21849
11
19.38598
21
7.68699
0
LINE
5
41F
100
AcDbEntity
8
vector3
6
ByLayer
62
256
370
-1
100
AcDbLine
10
19.38598
20
7.68699
11
18.74099
21
7.68699
0
LINE
5
420
100
AcDbEntity
8
vector3
6
ByLayer
62
256
370
-1
100
AcDbLine
10
18.74099
20
7.68699
11
18.74099
21
7.8051
0
LINE
5
421
100
AcDbEntity
8
vector3
6
ByLayer
62
256
370
-1
100
AcDbLine
10
18.74099
20
7.8051
11
17.99099
21
7.8051
0
LINE
5
422
100
AcDbEntity
8
vector3
6
ByLayer
62
256
370
-1
100
AcDbLine
10
17.99099
20
7.8051
11
17.99099
21
7.68699
0
LINE
5
423
100
AcDbEntity
8
vector3
6
ByLayer
62
256
370
-1
100
AcDbLine
10
17.99099
20
7.68699
11
17.21099
21
7.68699
0
LINE
5
424
100
AcDbEntity
8
vector3
6
ByLayer
62
256
370
-1
100
AcDbLine
10
17.21099
20
7.68699
11
17.21099
21
7.8051
0
LINE
5
425
100
AcDbEntity
8
vector3
6
ByLayer
62
256
370
-1
100
AcDbLine
10
17.21099
20
7.8051
11
16.46099
21
7.8051
0
LINE
5
426
100
AcDbEntity
8
vector3
6
ByLayer
62
256
370
-1
100
AcDbLine
10
16.46099
20
7.8051
11
16.46099
21
7.68699
0
LINE
5
427
100
AcDbEntity
8
vector3
6
ByLayer
62
256
370
-1
100
AcDbLine
10
16.46099
20
7.68699
11
15.68099
21
7.68699
0
LINE
5
428
100
AcDbEntity
8
vector3
6
ByLayer
62
256
370
-1
100
AcDbLine
10
15.68099
20
7.68699
11
15.68099
21
7.8051
0
LINE
5
429
100
AcDbEntity
8
vector3
6
ByLayer
62
256
370
-1
100
AcDbLine
10
15.68099
20
7.8051
11
14.93099
21
7.8051
0
LINE
5
42A
100
AcDbEntity
8
vector3
6
ByLayer
62
256
370
-1
100
AcDbLine
10
14.93099
20
7.8051
11
14.93099
21
7.68699
0
LINE
5
42B
100
AcDbEntity
8
vector3
6
ByLayer
62
256
370
-1
100
AcDbLine
10
14.93099
20
7.68699
11
14.286
21
7.68699
0
LINE
5
42C
100
AcDbEntity
8
vector3
6
ByLayer
62
256
370
-1
100
AcDbLine
10
14.286
20
7.68699
11
14.286
21
7.21849
0
LINE
5
42D
100
AcDbEntity
8
vector3
6
ByLayer
62
256
370
-1
100
AcDbLine
10
14.286
20
7.21849
11
14.16788
21
7.21849
0
LINE
5
42E
100
AcDbEntity
8
vector3
6
ByLayer
62
256
370
-1
100
AcDbLine
10
14.16788
20
7.21849
11
14.16788
21
6.71849
0
LINE
5
42F
100
AcDbEntity
8
vector3
6
ByLayer
62
256
370
-1
100
AcDbLine
10
14.16788
20
6.71849
11
14.286
21
6.71849
0
LINE
5
430
100
AcDbEntity
8
vector3
6
ByLayer
62
256
370
-1
100
AcDbLine
10
14.286
20
6.71849
11
14.286
21
6.25
0
LINE
5
431
100
AcDbEntity
8
vector3
6
ByLayer
62
256
370
-1
100
AcDbLine
10
14.286
20
6.25
11
14.93099
21
6.25
0
LINE
5
432
100
AcDbEntity
8
vector3
6
ByLayer
62
256
370
-1
100
AcDbLine
10
14.93099
20
6.25
11
14.93099
21
6.13188
0
LINE
5
433
100
AcDbEntity
8
vector3
6
ByLayer
62
256
370
-1
100
AcDbLine
10
14.93099
20
6.13188
11
15.68099
21
6.13188
0
LINE
5
434
100
AcDbEntity
8
vector3
6
ByLayer
62
256
370
-1
100
AcDbLine
10
15.68099
20
6.13188
11
15.68099
21
6.25
0
ARC
5
435
100
AcDbEntity
8
vector3
6
ByLayer
62
256
370
-1
100
AcDbCircle
10
17.16099
20
7.337
40
0.05
100
AcDbArc
50
90
51
180
0
LINE
5
436
100
AcDbEntity
8
vector3
6
ByLayer
62
256
370
-1
100
AcDbLine
10
17.16099
20
7.387
11
17.81099
21
7.387
0
ARC
5
437
100
AcDbEntity
8
vector3
6
ByLayer
62
256
370
-1
100
AcDbCircle
10
17.81099
20
7.337
40
0.05
100
AcDbArc
50
0
51
90
0
LINE
5
438
100
AcDbEntity
8
vector3
6
ByLayer
62
256
370
-1
100
AcDbLine
10
17.86099
20
7.337
11
17.86099
21
7.037
0
ARC
5
439
100
AcDbEntity
8
vector3
6
ByLayer
62
256
370
-1
100
AcDbCircle
10
17.81099
20
7.037
40
0.05
100
AcDbArc
50
270
51
0
0
LINE
5
43A
100
AcDbEntity
8
vector3
6
ByLayer
62
256
370
-1
100
AcDbLine
10
17.81099
20
6.987
11
17.16099
21
6.987
0
LINE
5
43B
100
AcDbEntity
8
vector3
6
ByLayer
62
256
370
-1
100
AcDbLine
10
17.11099
20
7.037
11
17.11099
21
7.337
0
ARC
5
43C
100
AcDbEntity
8
vector3
6
ByLayer
62
256
370
-1
100
AcDbCircle
10
17.16099
20
7.037
40
0.05
100
AcDbArc
50
180
51
270
0
ARC
5
43D
100
AcDbEntity
8
vector3
6
ByLayer
62
256
370
-1
100
AcDbCircle
10
18.18099
20
7.337
40
0.05
100
AcDbArc
50
90
51
180
0
LINE
5
43E
100
AcDbEntity
8
vector3
6
ByLayer
62
256
370
-1
100
AcDbLine
10
18.18099
20
7.387
11
18.83099
21
7.387
0
ARC
5
43F
100
AcDbEntity
8
vector3
6
ByLayer
62
256
370
-1
100
AcDbCircle
10
18.83099
20
7.337
40
0.05
100
AcDbArc
50
0
51
90
0
LINE
5
440
100
AcDbEntity
8
vector3
6
ByLayer
62
256
370
-1
100
AcDbLine
10
18.88099
20
7.337
11
18.88099
21
7.037
0
ARC
5
441
100
AcDbEntity
8
vector3
6
ByLayer
62
256
370
-1
100
AcDbCircle
10
18.83099
20
7.037
40
0.05
100
AcDbArc
50
270
51
0
0
LINE
5
442
100
AcDbEntity
8
vector3
6
ByLayer
62
256
370
-1
100
AcDbLine
10
18.83099
20
6.987
11
18.18099
21
6.987
0
LINE
5
443
100
AcDbEntity
8
vector3
6
ByLayer
62
256
370
-1
100
AcDbLine
10
18.13099
20
7.037
11
18.13099
21
7.337
0
ARC
5
444
100
AcDbEntity
8
vector3
6
ByLayer
62
256
370
-1
100
AcDbCircle
10
18.18099
20
7.037
40
0.05
100
AcDbArc
50
180
51
270
0
LINE
5
445
100
AcDbEntity
8
vector3
6
ByLayer
62
256
370
-1
100
AcDbLine
10
23.36788
20
6.7185
11
23.36788
21
7.2185
0
LINE
5
446
100
AcDbEntity
8
vector3
6
ByLayer
62
256
370
-1
100
AcDbLine
10
23.36788
20
7.2185
11
23.486
21
7.2185
0
LINE
5
447
100
AcDbEntity
8
vector3
6
ByLayer
62
256
370
-1
100
AcDbLine
10
23.486
20
7.2185
11
23.486
21
7.68699
0
LINE
5
448
100
AcDbEntity
8
vector3
6
ByLayer
62
256
370
-1
100
AcDbLine
10
23.486
20
7.68699
11
22.90194
21
7.68699
0
LINE
5
449
100
AcDbEntity
8
vector3
6
ByLayer
62
256
370
-1
100
AcDbLine
10
22.90194
20
7.68699
11
22.90194
21
7.80511
0
LINE
5
44A
100
AcDbEntity
8
vector3
6
ByLayer
62
256
370
-1
100
AcDbLine
10
22.90194
20
7.80511
11
22.151935
21
7.80511
0
LINE
5
44B
100
AcDbEntity
8
vector3
6
ByLayer
62
256
370
-1
100
AcDbLine
10
22.151935
20
7.80511
11
22.151935
21
7.68699
0
LINE
5
44C
100
AcDbEntity
8
vector3
6
ByLayer
62
256
370
-1
100
AcDbLine
10
22.151935
20
7.68699
11
20.983845
21
7.68699
0
LINE
5
44D
100
AcDbEntity
8
vector3
6
ByLayer
62
256
370
-1
100
AcDbLine
10
20.983845
20
7.68699
11
20.983845
21
7.80511
0
LINE
5
44E
100
AcDbEntity
8
vector3
6
ByLayer
62
256
370
-1
100
AcDbLine
10
20.983845
20
7.80511
11
20.23384
21
7.80511
0
LINE
5
44F
100
AcDbEntity
8
vector3
6
ByLayer
62
256
370
-1
100
AcDbLine
10
20.23384
20
7.80511
11
20.23384
21
7.68699
0
LINE
5
450
100
AcDbEntity
8
vector3
6
ByLayer
62
256
370
-1
100
AcDbLine
10
20.23384
20
7.68699
11
19.64978
21
7.68699
0
LINE
5
451
100
AcDbEntity
8
vector3
6
ByLayer
62
256
370
-1
100
AcDbLine
10
19.64978
20
7.68699
11
19.64978
21
7.2185
0
LINE
5
452
100
AcDbEntity
8
vector3
6
ByLayer
62
256
370
-1
100
AcDbLine
10
19.64978
20
7.2185
11
19.7679
21
7.2185
0
LINE
5
453
100
AcDbEntity
8
vector3
6
ByLayer
62
256
370
-1
100
AcDbLine
10
19.7679
20
7.2185
11
19.7679
21
6.7185
0
LINE
5
454
100
AcDbEntity
8
vector3
6
ByLayer
62
256
370
-1
100
AcDbLine
10
19.7679
20
6.7185
11
19.64978
21
6.7185
0
LINE
5
455
100
AcDbEntity
8
vector3
6
ByLayer
62
256
370
-1
100
AcDbLine
10
19.64978
20
6.7185
11
19.64978
21
6.25
0
LINE
5
456
100
AcDbEntity
8
vector3
6
ByLayer
62
256
370
-1
100
AcDbLine
10
19.64978
20
6.25
11
20.23384
21
6.25
0
LINE
5
457
100
AcDbEntity
8
vector3
6
ByLayer
62
256
370
-1
100
AcDbLine
10
20.23384
20
6.25
11
20.23384
21
6.13189
0
LINE
5
458
100
AcDbEntity
8
vector3
6
ByLayer
62
256
370
-1
100
AcDbLine
10
20.23384
20
6.13189
11
20.983845
21
6.13189
0
LINE
5
459
100
AcDbEntity
8
vector3
6
ByLayer
62
256
370
-1
100
AcDbLine
10
20.983845
20
6.13189
11
20.983845
21
6.25
0
LINE
5
45A
100
AcDbEntity
8
vector3
6
ByLayer
62
256
370
-1
100
AcDbLine
10
20.983845
20
6.25
11
22.151935
21
6.25
0
LINE
5
45B
100
AcDbEntity
8
vector3
6
ByLayer
62
256
370
-1
100
AcDbLine
10
22.151935
20
6.25
11
22.151935
21
6.13189
0
LINE
5
45C
100
AcDbEntity
8
vector3
6
ByLayer
62
256
370
-1
100
AcDbLine
10
22.151935
20
6.13189
11
22.90194
21
6.13189
0
LINE
5
45D
100
AcDbEntity
8
vector3
6
ByLayer
62
256
370
-1
100
AcDbLine
10
22.90194
20
6.13189
11
22.90194
21
6.25
0
LINE
5
45E
100
AcDbEntity
8
vector3
6
ByLayer
62
256
370
-1
100
AcDbLine
10
22.90194
20
6.25
11
23.486
21
6.25
0
LINE
5
45F
100
AcDbEntity
8
vector3
6
ByLayer
62
256
370
-1
100
AcDbLine
10
23.486
20
6.25
11
23.486
21
6.7185
0
LINE
5
460
100
AcDbEntity
8
vector3
6
ByLayer
62
256
370
-1
100
AcDbLine
10
23.486
20
6.7185
11
23.36788
21
6.7185
0
ARC
5
461
100
AcDbEntity
8
vector3
6
ByLayer
62
256
370
-1
100
AcDbCircle
10
21.26779
20
6.88199
40
0.05
100
AcDbArc
50
180
51
270
0
LINE
5
462
100
AcDbEntity
8
vector3
6
ByLayer
62
256
370
-1
100
AcDbLine
10
21.21779
20
6.88199
11
21.21779
21
7.38699
0
ARC
5
463
100
AcDbEntity
8
vector3
6
ByLayer
62
256
370
-1
100
AcDbCircle
10
21.26779
20
7.38699
40
0.05
100
AcDbArc
50
90
51
180
0
LINE
5
464
100
AcDbEntity
8
vector3
6
ByLayer
62
256
370
-1
100
AcDbLine
10
22.86779
20
6.83199
11
21.26779
21
6.83199
0
ARC
5
465
100
AcDbEntity
8
vector3
6
ByLayer
62
256
370
-1
100
AcDbCircle
10
22.86779
20
6.88199
40
0.05
100
AcDbArc
50
270
51
360
0
LINE
5
466
100
AcDbEntity
8
vector3
6
ByLayer
62
256
370
-1
100
AcDbLine
10
22.91779
20
7.38699
11
22.91779
21
6.88199
0
LINE
5
467
100
AcDbEntity
8
vector3
6
ByLayer
62
256
370
-1
100
AcDbLine
10
21.26779
20
7.43699
11
22.86779
21
7.43699
0
ARC
5
468
100
AcDbEntity
8
vector3
6
ByLayer
62
256
370
-1
100
AcDbCircle
10
22.86779
20
7.38699
40
0.05
100
AcDbArc
50
360
51
90
0
ARC
5
469
100
AcDbEntity
8
vector3
6
ByLayer
62
256
370
-1
100
AcDbCircle
10
20.53779
20
7.09999
40
0.05
100
AcDbArc
50
180
51
270
0
LINE
5
46A
100
AcDbEntity
8
vector3
6
ByLayer
62
256
370
-1
100
AcDbLine
10
20.48779
20
7.09999
11
20.48779
21
7.29999
0
ARC
5
46B
100
AcDbEntity
8
vector3
6
ByLayer
62
256
370
-1
100
AcDbCircle
10
20.53779
20
7.29999
40
0.05
100
AcDbArc
50
90
51
180
0
LINE
5
46C
100
AcDbEntity
8
vector3
6
ByLayer
62
256
370
-1
100
AcDbLine
10
20.53779
20
7.34999
11
20.83779
21
7.34999
0
ARC
5
46D
100
AcDbEntity
8
vector3
6
ByLayer
62
256
370
-1
100
AcDbCircle
10
20.83779
20
7.29999
40
0.05
100
AcDbArc
50
360
51
90
0
LINE
5
46E
100
AcDbEntity
8
vector3
6
ByLayer
62
256
370
-1
100
AcDbLine
10
20.88779
20
7.29999
11
20.88779
21
7.09999
0
LINE
5
46F
100
AcDbEntity
8
vector3
6
ByLayer
62
256
370
-1
100
AcDbLine
10
20.83779
20
7.04999
11
20.53779
21
7.04999
0
ARC
5
470
100
AcDbEntity
8
vector3
6
ByLayer
62
256
370
-1
100
AcDbCircle
10
20.83779
20
7.09999
40
0.05
100
AcDbArc
50
270
51
360
0
LINE
5
471
100
AcDbEntity
8
vector3
6
ByLayer
62
256
370
-1
100
AcDbLine
10
18.0181
20
8.56849
11
18.0181
21
9.06849
0
LINE
5
472
100
AcDbEntity
8
vector3
6
ByLayer
62
256
370
-1
100
AcDbLine
10
18.0181
20
9.06849
11
18.13622
21
9.06849
0
LINE
5
473
100
AcDbEntity
8
vector3
6
ByLayer
62
256
370
-1
100
AcDbLine
10
18.13622
20
9.06849
11
18.13622
21
9.53699
0
LINE
5
474
100
AcDbEntity
8
vector3
6
ByLayer
62
256
370
-1
100
AcDbLine
10
18.13622
20
9.53699
11
17.55216
21
9.53699
0
LINE
5
475
100
AcDbEntity
8
vector3
6
ByLayer
62
256
370
-1
100
AcDbLine
10
17.55216
20
9.53699
11
17.55216
21
9.6551
0
LINE
5
476
100
AcDbEntity
8
vector3
6
ByLayer
62
256
370
-1
100
AcDbLine
10
17.55216
20
9.6551
11
16.802155
21
9.6551
0
LINE
5
477
100
AcDbEntity
8
vector3
6
ByLayer
62
256
370
-1
100
AcDbLine
10
16.802155
20
9.6551
11
16.802155
21
9.53699
0
LINE
5
478
100
AcDbEntity
8
vector3
6
ByLayer
62
256
370
-1
100
AcDbLine
10
16.802155
20
9.53699
11
15.634065
21
9.53699
0
LINE
5
479
100
AcDbEntity
8
vector3
6
ByLayer
62
256
370
-1
100
AcDbLine
10
15.634065
20
9.53699
11
15.634065
21
9.6551
0
LINE
5
47A
100
AcDbEntity
8
vector3
6
ByLayer
62
256
370
-1
100
AcDbLine
10
15.634065
20
9.6551
11
14.88406
21
9.6551
0
LINE
5
47B
100
AcDbEntity
8
vector3
6
ByLayer
62
256
370
-1
100
AcDbLine
10
14.88406
20
9.6551
11
14.88406
21
9.53699
0
LINE
5
47C
100
AcDbEntity
8
vector3
6
ByLayer
62
256
370
-1
100
AcDbLine
10
14.88406
20
9.53699
11
14.3
21
9.53699
0
LINE
5
47D
100
AcDbEntity
8
vector3
6
ByLayer
62
256
370
-1
100
AcDbLine
10
14.3
20
9.53699
11
14.3
21
9.06849
0
LINE
5
47E
100
AcDbEntity
8
vector3
6
ByLayer
62
256
370
-1
100
AcDbLine
10
14.3
20
9.06849
11
14.41812
21
9.06849
0
LINE
5
47F
100
AcDbEntity
8
vector3
6
ByLayer
62
256
370
-1
100
AcDbLine
10
14.41812
20
9.06849
11
14.41812
21
8.56849
0
LINE
5
480
100
AcDbEntity
8
vector3
6
ByLayer
62
256
370
-1
100
AcDbLine
10
14.41812
20
8.56849
11
14.3
21
8.56849
0
LINE
5
481
100
AcDbEntity
8
vector3
6
ByLayer
62
256
370
-1
100
AcDbLine
10
14.3
20
8.56849
11
14.3
21
8.1
0
LINE
5
482
100
AcDbEntity
8
vector3
6
ByLayer
62
256
370
-1
100
AcDbLine
10
14.3
20
8.1
11
14.88406
21
8.1
0
LINE
5
483
100
AcDbEntity
8
vector3
6
ByLayer
62
256
370
-1
100
AcDbLine
10
14.88406
20
8.1
11
14.88406
21
7.98188
0
LINE
5
484
100
AcDbEntity
8
vector3
6
ByLayer
62
256
370
-1
100
AcDbLine
10
14.88406
20
7.98188
11
15.634065
21
7.98188
0
LINE
5
485
100
AcDbEntity
8
vector3
6
ByLayer
62
256
370
-1
100
AcDbLine
10
15.634065
20
7.98188
11
15.634065
21
8.1
0
LINE
5
486
100
AcDbEntity
8
vector3
6
ByLayer
62
256
370
-1
100
AcDbLine
10
15.634065
20
8.1
11
16.802155
21
8.1
0
LINE
5
487
100
AcDbEntity
8
vector3
6
ByLayer
62
256
370
-1
100
AcDbLine
10
16.802155
20
8.1
11
16.802155
21
7.98188
0
LINE
5
488
100
AcDbEntity
8
vector3
6
ByLayer
62
256
370
-1
100
AcDbLine
10
16.802155
20
7.98188
11
17.55216
21
7.98188
0
LINE
5
489
100
AcDbEntity
8
vector3
6
ByLayer
62
256
370
-1
100
AcDbLine
10
17.55216
20
7.98188
11
17.55216
21
8.1
0
LINE
5
48A
100
AcDbEntity
8
vector3
6
ByLayer
62
256
370
-1
100
AcDbLine
10
17.55216
20
8.1
11
18.13622
21
8.1
0
LINE
5
48B
100
AcDbEntity
8
vector3
6
ByLayer
62
256
370
-1
100
AcDbLine
10
18.13622
20
8.1
11
18.13622
21
8.56849
0
LINE
5
48C
100
AcDbEntity
8
vector3
6
ByLayer
62
256
370
-1
100
AcDbLine
10
18.13622
20
8.56849
11
18.0181
21
8.56849
0
ARC
5
48D
100
AcDbEntity
8
vector3
6
ByLayer
62
256
370
-1
100
AcDbCircle
10
16.34801
20
8.962
40
0.05
100
AcDbArc
50
180
51
270
0
LINE
5
48E
100
AcDbEntity
8
vector3
6
ByLayer
62
256
370
-1
100
AcDbLine
10
16.29801
20
8.962
11
16.29801
21
9.312
0
ARC
5
48F
100
AcDbEntity
8
vector3
6
ByLayer
62
256
370
-1
100
AcDbCircle
10
16.34801
20
9.312
40
0.05
100
AcDbArc
50
90
51
180
0
LINE
5
490
100
AcDbEntity
8
vector3
6
ByLayer
62
256
370
-1
100
AcDbLine
10
16.34801
20
9.362
11
16.74801
21
9.362
0
ARC
5
491
100
AcDbEntity
8
vector3
6
ByLayer
62
256
370
-1
100
AcDbCircle
10
16.74801
20
9.312
40
0.05
100
AcDbArc
50
360
51
90
0
LINE
5
492
100
AcDbEntity
8
vector3
6
ByLayer
62
256
370
-1
100
AcDbLine
10
16.79801
20
9.312
11
16.79801
21
8.962
0
LINE
5
493
100
AcDbEntity
8
vector3
6
ByLayer
62
256
370
-1
100
AcDbLine
10
16.74801
20
8.912
11
16.34801
21
8.912
0
ARC
5
494
100
AcDbEntity
8
vector3
6
ByLayer
62
256
370
-1
100
AcDbCircle
10
16.74801
20
8.962
40
0.05
100
AcDbArc
50
270
51
360
0
LINE
5
495
100
AcDbEntity
8
vector4
6
ByLayer
62
256
370
-1
100
AcDbLine
10
17.83599
20
14.2162
11
17.71787
21
14.2162
0
LINE
5
496
100
AcDbEntity
8
vector4
6
ByLayer
62
256
370
-1
100
AcDbLine
10
17.71787
20
14.2162
11
17.71787
21
14.9662
0
LINE
5
497
100
AcDbEntity
8
vector4
6
ByLayer
62
256
370
-1
100
AcDbLine
10
17.71787
20
14.9662
11
17.83599
21
14.9662
0
LINE
5
498
100
AcDbEntity
8
vector4
6
ByLayer
62
256
370
-1
100
AcDbLine
10
17.83599
20
14.9662
11
17.83599
21
14.2162
0
LINE
5
499
100
AcDbEntity
8
vector4
6
ByLayer
62
256
370
-1
100
AcDbLine
10
17.83599
20
12.6862
11
17.71787
21
12.6862
0
LINE
5
49A
100
AcDbEntity
8
vector4
6
ByLayer
62
256
370
-1
100
AcDbLine
10
17.71787
20
12.6862
11
17.71787
21
13.4362
0
LINE
5
49B
100
AcDbEntity
8
vector4
6
ByLayer
62
256
370
-1
100
AcDbLine
10
17.71787
20
13.4362
11
17.83599
21
13.4362
0
LINE
5
49C
100
AcDbEntity
8
vector4
6
ByLayer
62
256
370
-1
100
AcDbLine
10
17.83599
20
13.4362
11
17.83599
21
12.6862
0
LINE
5
49D
100
AcDbEntity
8
vector4
6
ByLayer
62
256
370
-1
100
AcDbLine
10
17.83599
20
15.7462
11
17.71787
21
15.7462
0
LINE
5
49E
100
AcDbEntity
8
vector4
6
ByLayer
62
256
370
-1
100
AcDbLine
10
17.71787
20
15.7462
11
17.71787
21
16.4962
0
LINE
5
49F
100
AcDbEntity
8
vector4
6
ByLayer
62
256
370
-1
100
AcDbLine
10
17.71787
20
16.4962
11
17.83599
21
16.4962
0
LINE
5
4A0
100
AcDbEntity
8
vector4
6
ByLayer
62
256
370
-1
100
AcDbLine
10
17.83599
20
16.4962
11
17.83599
21
15.7462
0
LINE
5
4A1
100
AcDbEntity
8
vector4
6
ByLayer
62
256
370
-1
100
AcDbLine
10
19.05193
20
11.92309
11
18.30193
21
11.92309
0
LINE
5
4A2
100
AcDbEntity
8
vector4
6
ByLayer
62
256
370
-1
100
AcDbLine
10
18.30193
20
11.92309
11
18.30193
21
12.0412
0
LINE
5
4A3
100
AcDbEntity
8
vector4
6
ByLayer
62
256
370
-1
100
AcDbLine
10
18.30193
20
12.0412
11
19.05193
21
12.0412
0
LINE
5
4A4
100
AcDbEntity
8
vector4
6
ByLayer
62
256
370
-1
100
AcDbLine
10
19.05193
20
12.0412
11
19.05193
21
11.92309
0
LINE
5
4A5
100
AcDbEntity
8
vector4
6
ByLayer
62
256
370
-1
100
AcDbLine
10
19.05193
20
17.1412
11
18.30193
21
17.1412
0
LINE
5
4A6
100
AcDbEntity
8
vector4
6
ByLayer
62
256
370
-1
100
AcDbLine
10
18.30193
20
17.1412
11
18.30193
21
17.25931
0
LINE
5
4A7
100
AcDbEntity
8
vector4
6
ByLayer
62
256
370
-1
100
AcDbLine
10
18.30193
20
17.25931
11
19.05193
21
17.25931
0
LINE
5
4A8
100
AcDbEntity
8
vector4
6
ByLayer
62
256
370
-1
100
AcDbLine
10
19.05193
20
17.25931
11
19.05193
21
17.1412
0
LINE
5
4A9
100
AcDbEntity
8
vector4
6
ByLayer
62
256
370
-1
100
AcDbLine
10
20.97005
20
17.1412
11
20.22005
21
17.1412
0
LINE
5
4AA
100
AcDbEntity
8
vector4
6
ByLayer
62
256
370
-1
100
AcDbLine
10
20.22005
20
17.1412
11
20.22005
21
17.25931
0
LINE
5
4AB
100
AcDbEntity
8
vector4
6
ByLayer
62
256
370
-1
100
AcDbLine
10
20.22005
20
17.25931
11
20.97005
21
17.25931
0
LINE
5
4AC
100
AcDbEntity
8
vector4
6
ByLayer
62
256
370
-1
100
AcDbLine
10
20.97005
20
17.25931
11
20.97005
21
17.1412
0
LINE
5
4AD
100
AcDbEntity
8
vector4
6
ByLayer
62
256
370
-1
100
AcDbLine
10
20.97005
20
11.92309
11
20.22005
21
11.92309
0
LINE
5
4AE
100
AcDbEntity
8
vector4
6
ByLayer
62
256
370
-1
100
AcDbLine
10
20.22005
20
11.92309
11
20.22005
21
12.0412
0
LINE
5
4AF
100
AcDbEntity
8
vector4
6
ByLayer
62
256
370
-1
100
AcDbLine
10
20.22005
20
12.0412
11
20.97005
21
12.0412
0
LINE
5
4B0
100
AcDbEntity
8
vector4
6
ByLayer
62
256
370
-1
100
AcDbLine
10
20.97005
20
12.0412
11
20.97005
21
11.92309
0
LINE
5
4B1
100
AcDbEntity
8
vector4
6
ByLayer
62
256
370
-1
100
AcDbLine
10
21.55411
20
12.6862
11
21.436
21
12.6862
0
LINE
5
4B2
100
AcDbEntity
8
vector4
6
ByLayer
62
256
370
-1
100
AcDbLine
10
21.436
20
12.6862
11
21.436
21
13.4362
0
LINE
5
4B3
100
AcDbEntity
8
vector4
6
ByLayer
62
256
370
-1
100
AcDbLine
10
21.436
20
13.4362
11
21.55411
21
13.4362
0
LINE
5
4B4
100
AcDbEntity
8
vector4
6
ByLayer
62
256
370
-1
100
AcDbLine
10
21.55411
20
13.4362
11
21.55411
21
12.6862
0
LINE
5
4B5
100
AcDbEntity
8
vector4
6
ByLayer
62
256
370
-1
100
AcDbLine
10
21.55411
20
15.7462
11
21.436
21
15.7462
0
LINE
5
4B6
100
AcDbEntity
8
vector4
6
ByLayer
62
256
370
-1
100
AcDbLine
10
21.436
20
15.7462
11
21.436
21
16.4962
0
LINE
5
4B7
100
AcDbEntity
8
vector4
6
ByLayer
62
256
370
-1
100
AcDbLine
10
21.436
20
16.4962
11
21.55411
21
16.4962
0
LINE
5
4B8
100
AcDbEntity
8
vector4
6
ByLayer
62
256
370
-1
100
AcDbLine
10
21.55411
20
16.4962
11
21.55411
21
15.7462
0
LINE
5
4B9
100
AcDbEntity
8
vector4
6
ByLayer
62
256
370
-1
100
AcDbLine
10
21.55411
20
14.2162
11
21.436
21
14.2162
0
LINE
5
4BA
100
AcDbEntity
8
vector4
6
ByLayer
62
256
370
-1
100
AcDbLine
10
21.436
20
14.2162
11
21.436
21
14.9662
0
LINE
5
4BB
100
AcDbEntity
8
vector4
6
ByLayer
62
256
370
-1
100
AcDbLine
10
21.436
20
14.9662
11
21.55411
21
14.9662
0
LINE
5
4BC
100
AcDbEntity
8
vector4
6
ByLayer
62
256
370
-1
100
AcDbLine
10
21.55411
20
14.9662
11
21.55411
21
14.2162
0
ARC
5
4BD
100
AcDbEntity
8
vector4
6
ByLayer
62
256
370
-1
100
AcDbCircle
10
17.76788
20
11.9731
40
0.15
100
AcDbArc
50
180
51
270
0
LINE
5
4BE
100
AcDbEntity
8
vector4
6
ByLayer
62
256
370
-1
100
AcDbLine
10
17.61788
20
17.2093
11
17.61788
21
11.9731
0
ARC
5
4BF
100
AcDbEntity
8
vector4
6
ByLayer
62
256
370
-1
100
AcDbCircle
10
17.76788
20
17.2093
40
0.15
100
AcDbArc
50
90
51
180
0
LINE
5
4C0
100
AcDbEntity
8
vector4
6
ByLayer
62
256
370
-1
100
AcDbLine
10
17.76788
20
11.8231
11
21.50391
21
11.8231
0
ARC
5
4C1
100
AcDbEntity
8
vector4
6
ByLayer
62
256
370
-1
100
AcDbCircle
10
21.50391
20
11.9731
40
0.15
100
AcDbArc
50
270
51
360
0
LINE
5
4C2
100
AcDbEntity
8
vector4
6
ByLayer
62
256
370
-1
100
AcDbLine
10
21.65391
20
11.9731
11
21.65391
21
17.2093
0
LINE
5
4C3
100
AcDbEntity
8
vector4
6
ByLayer
62
256
370
-1
100
AcDbLine
10
21.50391
20
17.3593
11
17.76788
21
17.3593
0
ARC
5
4C4
100
AcDbEntity
8
vector4
6
ByLayer
62
256
370
-1
100
AcDbCircle
10
21.50391
20
17.2093
40
0.15
100
AcDbArc
50
360
51
90
0
CIRCLE
5
4C5
100
AcDbEntity
8
vector4
6
ByLayer
62
256
370
-1
100
AcDbCircle
10
18.035795
20
12.2412
40
0.058
0
CIRCLE
5
4C6
100
AcDbEntity
8
vector4
6
ByLayer
62
256
370
-1
100
AcDbCircle
10
18.035795
20
16.9412
40
0.058
0
CIRCLE
5
4C7
100
AcDbEntity
8
vector4
6
ByLayer
62
256
370
-1
100
AcDbCircle
10
21.235795
20
12.2412
40
0.058
0
CIRCLE
5
4C8
100
AcDbEntity
8
vector4
6
ByLayer
62
256
370
-1
100
AcDbCircle
10
21.235795
20
16.9412
40
0.058
0
LINE
5
4C9
100
AcDbEntity
8
vector4
6
ByLayer
62
256
370
-1
100
AcDbLine
10
13.59998
20
15.7462
11
13.48187
21
15.7462
0
LINE
5
4CA
100
AcDbEntity
8
vector4
6
ByLayer
62
256
370
-1
100
AcDbLine
10
13.48187
20
15.7462
11
13.48187
21
16.4962
0
LINE
5
4CB
100
AcDbEntity
8
vector4
6
ByLayer
62
256
370
-1
100
AcDbLine
10
13.48187
20
16.4962
11
13.59998
21
16.4962
0
LINE
5
4CC
100
AcDbEntity
8
vector4
6
ByLayer
62
256
370
-1
100
AcDbLine
10
13.59998
20
16.4962
11
13.59998
21
15.7462
0
LINE
5
4CD
100
AcDbEntity
8
vector4
6
ByLayer
62
256
370
-1
100
AcDbLine
10
13.59998
20
14.2162
11
13.48187
21
14.2162
0
LINE
5
4CE
100
AcDbEntity
8
vector4
6
ByLayer
62
256
370
-1
100
AcDbLine
10
13.48187
20
14.2162
11
13.48187
21
14.9662
0
LINE
5
4CF
100
AcDbEntity
8
vector4
6
ByLayer
62
256
370
-1
100
AcDbLine
10
13.48187
20
14.9662
11
13.59998
21
14.9662
0
LINE
5
4D0
100
AcDbEntity
8
vector4
6
ByLayer
62
256
370
-1
100
AcDbLine
10
13.59998
20
14.9662
11
13.59998
21
14.2162
0
LINE
5
4D1
100
AcDbEntity
8
vector4
6
ByLayer
62
256
370
-1
100
AcDbLine
10
13.59998
20
12.6862
11
13.48187
21
12.6862
0
LINE
5
4D2
100
AcDbEntity
8
vector4
6
ByLayer
62
256
370
-1
100
AcDbLine
10
13.48187
20
12.6862
11
13.48187
21
13.4362
0
LINE
5
4D3
100
AcDbEntity
8
vector4
6
ByLayer
62
256
370
-1
100
AcDbLine
10
13.48187
20
13.4362
11
13.59998
21
13.4362
0
LINE
5
4D4
100
AcDbEntity
8
vector4
6
ByLayer
62
256
370
-1
100
AcDbLine
10
13.59998
20
13.4362
11
13.59998
21
12.6862
0
LINE
5
4D5
100
AcDbEntity
8
vector4
6
ByLayer
62
256
370
-1
100
AcDbLine
10
14.815935
20
17.1412
11
14.06593
21
17.1412
0
LINE
5
4D6
100
AcDbEntity
8
vector4
6
ByLayer
62
256
370
-1
100
AcDbLine
10
14.06593
20
17.1412
11
14.06593
21
17.25931
0
LINE
5
4D7
100
AcDbEntity
8
vector4
6
ByLayer
62
256
370
-1
100
AcDbLine
10
14.06593
20
17.25931
11
14.815935
21
17.25931
0
LINE
5
4D8
100
AcDbEntity
8
vector4
6
ByLayer
62
256
370
-1
100
AcDbLine
10
14.815935
20
17.25931
11
14.815935
21
17.1412
0
LINE
5
4D9
100
AcDbEntity
8
vector4
6
ByLayer
62
256
370
-1
100
AcDbLine
10
14.815935
20
11.92309
11
14.06593
21
11.92309
0
LINE
5
4DA
100
AcDbEntity
8
vector4
6
ByLayer
62
256
370
-1
100
AcDbLine
10
14.06593
20
11.92309
11
14.06593
21
12.0412
0
LINE
5
4DB
100
AcDbEntity
8
vector4
6
ByLayer
62
256
370
-1
100
AcDbLine
10
14.06593
20
12.0412
11
14.815935
21
12.0412
0
LINE
5
4DC
100
AcDbEntity
8
vector4
6
ByLayer
62
256
370
-1
100
AcDbLine
10
14.815935
20
12.0412
11
14.815935
21
11.92309
0
LINE
5
4DD
100
AcDbEntity
8
vector4
6
ByLayer
62
256
370
-1
100
AcDbLine
10
16.73403
20
17.1412
11
15.984025
21
17.1412
0
LINE
5
4DE
100
AcDbEntity
8
vector4
6
ByLayer
62
256
370
-1
100
AcDbLine
10
15.984025
20
17.1412
11
15.984025
21
17.25931
0
LINE
5
4DF
100
AcDbEntity
8
vector4
6
ByLayer
62
256
370
-1
100
AcDbLine
10
15.984025
20
17.25931
11
16.73403
21
17.25931
0
LINE
5
4E0
100
AcDbEntity
8
vector4
6
ByLayer
62
256
370
-1
100
AcDbLine
10
16.73403
20
17.25931
11
16.73403
21
17.1412
0
LINE
5
4E1
100
AcDbEntity
8
vector4
6
ByLayer
62
256
370
-1
100
AcDbLine
10
16.73403
20
11.92309
11
15.984025
21
11.92309
0
LINE
5
4E2
100
AcDbEntity
8
vector4
6
ByLayer
62
256
370
-1
100
AcDbLine
10
15.984025
20
11.92309
11
15.984025
21
12.0412
0
LINE
5
4E3
100
AcDbEntity
8
vector4
6
ByLayer
62
256
370
-1
100
AcDbLine
10
15.984025
20
12.0412
11
16.73403
21
12.0412
0
LINE
5
4E4
100
AcDbEntity
8
vector4
6
ByLayer
62
256
370
-1
100
AcDbLine
10
16.73403
20
12.0412
11
16.73403
21
11.92309
0
LINE
5
4E5
100
AcDbEntity
8
vector4
6
ByLayer
62
256
370
-1
100
AcDbLine
10
17.31809
20
15.7462
11
17.19998
21
15.7462
0
LINE
5
4E6
100
AcDbEntity
8
vector4
6
ByLayer
62
256
370
-1
100
AcDbLine
10
17.19998
20
15.7462
11
17.19998
21
16.4962
0
LINE
5
4E7
100
AcDbEntity
8
vector4
6
ByLayer
62
256
370
-1
100
AcDbLine
10
17.19998
20
16.4962
11
17.31809
21
16.4962
0
LINE
5
4E8
100
AcDbEntity
8
vector4
6
ByLayer
62
256
370
-1
100
AcDbLine
10
17.31809
20
16.4962
11
17.31809
21
15.7462
0
LINE
5
4E9
100
AcDbEntity
8
vector4
6
ByLayer
62
256
370
-1
100
AcDbLine
10
17.31809
20
12.6862
11
17.19998
21
12.6862
0
LINE
5
4EA
100
AcDbEntity
8
vector4
6
ByLayer
62
256
370
-1
100
AcDbLine
10
17.19998
20
12.6862
11
17.19998
21
13.4362
0
LINE
5
4EB
100
AcDbEntity
8
vector4
6
ByLayer
62
256
370
-1
100
AcDbLine
10
17.19998
20
13.4362
11
17.31809
21
13.4362
0
LINE
5
4EC
100
AcDbEntity
8
vector4
6
ByLayer
62
256
370
-1
100
AcDbLine
10
17.31809
20
13.4362
11
17.31809
21
12.6862
0
LINE
5
4ED
100
AcDbEntity
8
vector4
6
ByLayer
62
256
370
-1
100
AcDbLine
10
17.31809
20
14.2162
11
17.19998
21
14.2162
0
LINE
5
4EE
100
AcDbEntity
8
vector4
6
ByLayer
62
256
370
-1
100
AcDbLine
10
17.19998
20
14.2162
11
17.19998
21
14.9662
0
LINE
5
4EF
100
AcDbEntity
8
vector4
6
ByLayer
62
256
370
-1
100
AcDbLine
10
17.19998
20
14.9662
11
17.31809
21
14.9662
0
LINE
5
4F0
100
AcDbEntity
8
vector4
6
ByLayer
62
256
370
-1
100
AcDbLine
10
17.31809
20
14.9662
11
17.31809
21
14.2162
0
ARC
5
4F1
100
AcDbEntity
8
vector4
6
ByLayer
62
256
370
-1
100
AcDbCircle
10
13.53188
20
11.9731
40
0.15
100
AcDbArc
50
180
51
270
0
LINE
5
4F2
100
AcDbEntity
8
vector4
6
ByLayer
62
256
370
-1
100
AcDbLine
10
13.38188
20
17.2093
11
13.38188
21
11.9731
0
ARC
5
4F3
100
AcDbEntity
8
vector4
6
ByLayer
62
256
370
-1
100
AcDbCircle
10
13.53188
20
17.2093
40
0.15
100
AcDbArc
50
90
51
180
0
LINE
5
4F4
100
AcDbEntity
8
vector4
6
ByLayer
62
256
370
-1
100
AcDbLine
10
17.26788
20
17.3593
11
13.53188
21
17.3593
0
ARC
5
4F5
100
AcDbEntity
8
vector4
6
ByLayer
62
256
370
-1
100
AcDbCircle
10
17.26788
20
17.2093
40
0.15
100
AcDbArc
50
360
51
90
0
LINE
5
4F6
100
AcDbEntity
8
vector4
6
ByLayer
62
256
370
-1
100
AcDbLine
10
13.53188
20
11.8231
11
17.26788
21
11.8231
0
LINE
5
4F7
100
AcDbEntity
8
vector4
6
ByLayer
62
256
370
-1
100
AcDbLine
10
17.41788
20
11.9731
11
17.41788
21
17.2093
0
ARC
5
4F8
100
AcDbEntity
8
vector4
6
ByLayer
62
256
370
-1
100
AcDbCircle
10
17.26788
20
11.9731
40
0.15
100
AcDbArc
50
270
51
360
0
CIRCLE
5
4F9
100
AcDbEntity
8
vector4
6
ByLayer
62
256
370
-1
100
AcDbCircle
10
13.79988
20
12.2412
40
0.058
0
CIRCLE
5
4FA
100
AcDbEntity
8
vector4
6
ByLayer
62
256
370
-1
100
AcDbCircle
10
13.79988
20
16.9412
40
0.058
0
CIRCLE
5
4FB
100
AcDbEntity
8
vector4
6
ByLayer
62
256
370
-1
100
AcDbCircle
10
16.99988
20
12.2412
40
0.058
0
CIRCLE
5
4FC
100
AcDbEntity
8
vector4
6
ByLayer
62
256
370
-1
100
AcDbCircle
10
16.99988
20
16.9412
40
0.058
0
LINE
5
4FD
100
AcDbEntity
8
vector4
6
ByLayer
62
256
370
-1
100
AcDbLine
10
14.76287
20
17.6231
11
15.54287
21
17.6231
0
LINE
5
4FE
100
AcDbEntity
8
vector4
6
ByLayer
62
256
370
-1
100
AcDbLine
10
15.54287
20
17.6231
11
15.54287
21
17.50498
0
LINE
5
4FF
100
AcDbEntity
8
vector4
6
ByLayer
62
256
370
-1
100
AcDbLine
10
15.54287
20
17.50498
11
16.29287
21
17.50498
0
LINE
5
500
100
AcDbEntity
8
vector4
6
ByLayer
62
256
370
-1
100
AcDbLine
10
16.29287
20
17.50498
11
16.29287
21
17.6231
0
LINE
5
501
100
AcDbEntity
8
vector4
6
ByLayer
62
256
370
-1
100
AcDbLine
10
16.29287
20
17.6231
11
17.07287
21
17.6231
0
LINE
5
502
100
AcDbEntity
8
vector4
6
ByLayer
62
256
370
-1
100
AcDbLine
10
17.07287
20
17.6231
11
17.07287
21
17.50498
0
LINE
5
503
100
AcDbEntity
8
vector4
6
ByLayer
62
256
370
-1
100
AcDbLine
10
17.07287
20
17.50498
11
17.82287
21
17.50498
0
LINE
5
504
100
AcDbEntity
8
vector4
6
ByLayer
62
256
370
-1
100
AcDbLine
10
17.82287
20
17.50498
11
17.82287
21
17.6231
0
LINE
5
505
100
AcDbEntity
8
vector4
6
ByLayer
62
256
370
-1
100
AcDbLine
10
17.82287
20
17.6231
11
18.46786
21
17.6231
0
LINE
5
506
100
AcDbEntity
8
vector4
6
ByLayer
62
256
370
-1
100
AcDbLine
10
18.46786
20
17.6231
11
18.46786
21
18.09159
0
LINE
5
507
100
AcDbEntity
8
vector4
6
ByLayer
62
256
370
-1
100
AcDbLine
10
18.46786
20
18.09159
11
18.58598
21
18.09159
0
LINE
5
508
100
AcDbEntity
8
vector4
6
ByLayer
62
256
370
-1
100
AcDbLine
10
18.58598
20
18.09159
11
18.58598
21
18.59159
0
LINE
5
509
100
AcDbEntity
8
vector4
6
ByLayer
62
256
370
-1
100
AcDbLine
10
18.58598
20
18.59159
11
18.46786
21
18.59159
0
LINE
5
50A
100
AcDbEntity
8
vector4
6
ByLayer
62
256
370
-1
100
AcDbLine
10
18.46786
20
18.59159
11
18.46786
21
19.06009
0
LINE
5
50B
100
AcDbEntity
8
vector4
6
ByLayer
62
256
370
-1
100
AcDbLine
10
18.46786
20
19.06009
11
17.82287
21
19.06009
0
LINE
5
50C
100
AcDbEntity
8
vector4
6
ByLayer
62
256
370
-1
100
AcDbLine
10
17.82287
20
19.06009
11
17.82287
21
19.1782
0
LINE
5
50D
100
AcDbEntity
8
vector4
6
ByLayer
62
256
370
-1
100
AcDbLine
10
17.82287
20
19.1782
11
17.07287
21
19.1782
0
LINE
5
50E
100
AcDbEntity
8
vector4
6
ByLayer
62
256
370
-1
100
AcDbLine
10
17.07287
20
19.1782
11
17.07287
21
19.06009
0
LINE
5
50F
100
AcDbEntity
8
vector4
6
ByLayer
62
256
370
-1
100
AcDbLine
10
17.07287
20
19.06009
11
16.29287
21
19.06009
0
LINE
5
510
100
AcDbEntity
8
vector4
6
ByLayer
62
256
370
-1
100
AcDbLine
10
16.29287
20
19.06009
11
16.29287
21
19.1782
0
LINE
5
511
100
AcDbEntity
8
vector4
6
ByLayer
62
256
370
-1
100
AcDbLine
10
16.29287
20
19.1782
11
15.54287
21
19.1782
0
LINE
5
512
100
AcDbEntity
8
vector4
6
ByLayer
62
256
370
-1
100
AcDbLine
10
15.54287
20
19.1782
11
15.54287
21
19.06009
0
LINE
5
513
100
AcDbEntity
8
vector4
6
ByLayer
62
256
370
-1
100
AcDbLine
10
15.54287
20
19.06009
11
14.76287
21
19.06009
0
LINE
5
514
100
AcDbEntity
8
vector4
6
ByLayer
62
256
370
-1
100
AcDbLine
10
14.76287
20
19.06009
11
14.76287
21
19.1782
0
LINE
5
515
100
AcDbEntity
8
vector4
6
ByLayer
62
256
370
-1
100
AcDbLine
10
14.76287
20
19.1782
11
14.01287
21
19.1782
0
LINE
5
516
100
AcDbEntity
8
vector4
6
ByLayer
62
256
370
-1
100
AcDbLine
10
14.01287
20
19.1782
11
14.01287
21
19.06009
0
LINE
5
517
100
AcDbEntity
8
vector4
6
ByLayer
62
256
370
-1
100
AcDbLine
10
14.01287
20
19.06009
11
13.36788
21
19.06009
0
LINE
5
518
100
AcDbEntity
8
vector4
6
ByLayer
62
256
370
-1
100
AcDbLine
10
13.36788
20
19.06009
11
13.36788
21
18.59159
0
LINE
5
519
100
AcDbEntity
8
vector4
6
ByLayer
62
256
370
-1
100
AcDbLine
10
13.36788
20
18.59159
11
13.24976
21
18.59159
0
LINE
5
51A
100
AcDbEntity
8
vector4
6
ByLayer
62
256
370
-1
100
AcDbLine
10
13.24976
20
18.59159
11
13.24976
21
18.09159
0
LINE
5
51B
100
AcDbEntity
8
vector4
6
ByLayer
62
256
370
-1
100
AcDbLine
10
13.24976
20
18.09159
11
13.36788
21
18.09159
0
LINE
5
51C
100
AcDbEntity
8
vector4
6
ByLayer
62
256
370
-1
100
AcDbLine
10
13.36788
20
18.09159
11
13.36788
21
17.6231
0
LINE
5
51D
100
AcDbEntity
8
vector4
6
ByLayer
62
256
370
-1
100
AcDbLine
10
13.36788
20
17.6231
11
14.01287
21
17.6231
0
LINE
5
51E
100
AcDbEntity
8
vector4
6
ByLayer
62
256
370
-1
100
AcDbLine
10
14.01287
20
17.6231
11
14.01287
21
17.50498
0
LINE
5
51F
100
AcDbEntity
8
vector4
6
ByLayer
62
256
370
-1
100
AcDbLine
10
14.01287
20
17.50498
11
14.76287
21
17.50498
0
LINE
5
520
100
AcDbEntity
8
vector4
6
ByLayer
62
256
370
-1
100
AcDbLine
10
14.76287
20
17.50498
11
14.76287
21
17.6231
0
ARC
5
521
100
AcDbEntity
8
vector4
6
ByLayer
62
256
370
-1
100
AcDbCircle
10
16.24287
20
18.7101
40
0.05
100
AcDbArc
50
90
51
180
0
LINE
5
522
100
AcDbEntity
8
vector4
6
ByLayer
62
256
370
-1
100
AcDbLine
10
16.24287
20
18.7601
11
16.89287
21
18.7601
0
ARC
5
523
100
AcDbEntity
8
vector4
6
ByLayer
62
256
370
-1
100
AcDbCircle
10
16.89287
20
18.7101
40
0.05
100
AcDbArc
50
0
51
90
0
LINE
5
524
100
AcDbEntity
8
vector4
6
ByLayer
62
256
370
-1
100
AcDbLine
10
16.94287
20
18.7101
11
16.94287
21
18.4101
0
ARC
5
525
100
AcDbEntity
8
vector4
6
ByLayer
62
256
370
-1
100
AcDbCircle
10
16.89287
20
18.4101
40
0.05
100
AcDbArc
50
270
51
0
0
LINE
5
526
100
AcDbEntity
8
vector4
6
ByLayer
62
256
370
-1
100
AcDbLine
10
16.89287
20
18.3601
11
16.24287
21
18.3601
0
LINE
5
527
100
AcDbEntity
8
vector4
6
ByLayer
62
256
370
-1
100
AcDbLine
10
16.19287
20
18.4101
11
16.19287
21
18.7101
0
ARC
5
528
100
AcDbEntity
8
vector4
6
ByLayer
62
256
370
-1
100
AcDbCircle
10
16.24287
20
18.4101
40
0.05
100
AcDbArc
50
180
51
270
0
ARC
5
529
100
AcDbEntity
8
vector4
6
ByLayer
62
256
370
-1
100
AcDbCircle
10
17.26287
20
18.7101
40
0.05
100
AcDbArc
50
90
51
180
0
LINE
5
52A
100
AcDbEntity
8
vector4
6
ByLayer
62
256
370
-1
100
AcDbLine
10
17.26287
20
18.7601
11
17.91287
21
18.7601
0
ARC
5
52B
100
AcDbEntity
8
vector4
6
ByLayer
62
256
370
-1
100
AcDbCircle
10
17.91287
20
18.7101
40
0.05
100
AcDbArc
50
0
51
90
0
LINE
5
52C
100
AcDbEntity
8
vector4
6
ByLayer
62
256
370
-1
100
AcDbLine
10
17.96287
20
18.7101
11
17.96287
21
18.4101
0
ARC
5
52D
100
AcDbEntity
8
vector4
6
ByLayer
62
256
370
-1
100
AcDbCircle
10
17.91287
20
18.4101
40
0.05
100
AcDbArc
50
270
51
0
0
LINE
5
52E
100
AcDbEntity
8
vector4
6
ByLayer
62
256
370
-1
100
AcDbLine
10
17.91287
20
18.3601
11
17.26287
21
18.3601
0
LINE
5
52F
100
AcDbEntity
8
vector4
6
ByLayer
62
256
370
-1
100
AcDbLine
10
17.21287
20
18.4101
11
17.21287
21
18.7101
0
ARC
5
530
100
AcDbEntity
8
vector4
6
ByLayer
62
256
370
-1
100
AcDbCircle
10
17.26287
20
18.4101
40
0.05
100
AcDbArc
50
180
51
270
0
LINE
5
531
100
AcDbEntity
8
vector4
6
ByLayer
62
256
370
-1
100
AcDbLine
10
23.50487
20
13.31809
11
23.50487
21
14.09809
0
LINE
5
532
100
AcDbEntity
8
vector4
6
ByLayer
62
256
370
-1
100
AcDbLine
10
23.50487
20
14.09809
11
23.62298
21
14.09809
0
LINE
5
533
100
AcDbEntity
8
vector4
6
ByLayer
62
256
370
-1
100
AcDbLine
10
23.62298
20
14.09809
11
23.62298
21
14.84809
0
LINE
5
534
100
AcDbEntity
8
vector4
6
ByLayer
62
256
370
-1
100
AcDbLine
10
23.62298
20
14.84809
11
23.50487
21
14.84809
0
LINE
5
535
100
AcDbEntity
8
vector4
6
ByLayer
62
256
370
-1
100
AcDbLine
10
23.50487
20
14.84809
11
23.50487
21
15.62809
0
LINE
5
536
100
AcDbEntity
8
vector4
6
ByLayer
62
256
370
-1
100
AcDbLine
10
23.50487
20
15.62809
11
23.62298
21
15.62809
0
LINE
5
537
100
AcDbEntity
8
vector4
6
ByLayer
62
256
370
-1
100
AcDbLine
10
23.62298
20
15.62809
11
23.62298
21
16.37809
0
LINE
5
538
100
AcDbEntity
8
vector4
6
ByLayer
62
256
370
-1
100
AcDbLine
10
23.62298
20
16.37809
11
23.50487
21
16.37809
0
LINE
5
539
100
AcDbEntity
8
vector4
6
ByLayer
62
256
370
-1
100
AcDbLine
10
23.50487
20
16.37809
11
23.50487
21
17.02308
0
LINE
5
53A
100
AcDbEntity
8
vector4
6
ByLayer
62
256
370
-1
100
AcDbLine
10
23.50487
20
17.02308
11
23.03637
21
17.02308
0
LINE
5
53B
100
AcDbEntity
8
vector4
6
ByLayer
62
256
370
-1
100
AcDbLine
10
23.03637
20
17.02308
11
23.03637
21
17.1412
0
LINE
5
53C
100
AcDbEntity
8
vector4
6
ByLayer
62
256
370
-1
100
AcDbLine
10
23.03637
20
17.1412
11
22.53637
21
17.1412
0
LINE
5
53D
100
AcDbEntity
8
vector4
6
ByLayer
62
256
370
-1
100
AcDbLine
10
22.53637
20
17.1412
11
22.53637
21
17.02308
0
LINE
5
53E
100
AcDbEntity
8
vector4
6
ByLayer
62
256
370
-1
100
AcDbLine
10
22.53637
20
17.02308
11
22.06788
21
17.02308
0
LINE
5
53F
100
AcDbEntity
8
vector4
6
ByLayer
62
256
370
-1
100
AcDbLine
10
22.06788
20
17.02308
11
22.06788
21
16.37809
0
LINE
5
540
100
AcDbEntity
8
vector4
6
ByLayer
62
256
370
-1
100
AcDbLine
10
22.06788
20
16.37809
11
21.94976
21
16.37809
0
LINE
5
541
100
AcDbEntity
8
vector4
6
ByLayer
62
256
370
-1
100
AcDbLine
10
21.94976
20
16.37809
11
21.94976
21
15.62809
0
LINE
5
542
100
AcDbEntity
8
vector4
6
ByLayer
62
256
370
-1
100
AcDbLine
10
21.94976
20
15.62809
11
22.06788
21
15.62809
0
LINE
5
543
100
AcDbEntity
8
vector4
6
ByLayer
62
256
370
-1
100
AcDbLine
10
22.06788
20
15.62809
11
22.06788
21
14.84809
0
LINE
5
544
100
AcDbEntity
8
vector4
6
ByLayer
62
256
370
-1
100
AcDbLine
10
22.06788
20
14.84809
11
21.94976
21
14.84809
0
LINE
5
545
100
AcDbEntity
8
vector4
6
ByLayer
62
256
370
-1
100
AcDbLine
10
21.94976
20
14.84809
11
21.94976
21
14.09809
0
LINE
5
546
100
AcDbEntity
8
vector4
6
ByLayer
62
256
370
-1
100
AcDbLine
10
21.94976
20
14.09809
11
22.06788
21
14.09809
0
LINE
5
547
100
AcDbEntity
8
vector4
6
ByLayer
62
256
370
-1
100
AcDbLine
10
22.06788
20
14.09809
11
22.06788
21
13.31809
0
LINE
5
548
100
AcDbEntity
8
vector4
6
ByLayer
62
256
370
-1
100
AcDbLine
10
22.06788
20
13.31809
11
21.94976
21
13.31809
0
LINE
5
549
100
AcDbEntity
8
vector4
6
ByLayer
62
256
370
-1
100
AcDbLine
10
21.94976
20
13.31809
11
21.94976
21
12.56809
0
LINE
5
54A
100
AcDbEntity
8
vector4
6
ByLayer
62
256
370
-1
100
AcDbLine
10
21.94976
20
12.56809
11
22.06788
21
12.56809
0
LINE
5
54B
100
AcDbEntity
8
vector4
6
ByLayer
62
256
370
-1
100
AcDbLine
10
22.06788
20
12.56809
11
22.06788
21
11.9231
0
LINE
5
54C
100
AcDbEntity
8
vector4
6
ByLayer
62
256
370
-1
100
AcDbLine
10
22.06788
20
11.9231
11
22.53637
21
11.9231
0
LINE
5
54D
100
AcDbEntity
8
vector4
6
ByLayer
62
256
370
-1
100
AcDbLine
10
22.53637
20
11.9231
11
22.53637
21
11.80498
0
LINE
5
54E
100
AcDbEntity
8
vector4
6
ByLayer
62
256
370
-1
100
AcDbLine
10
22.53637
20
11.80498
11
23.03637
21
11.80498
0
LINE
5
54F
100
AcDbEntity
8
vector4
6
ByLayer
62
256
370
-1
100
AcDbLine
10
23.03637
20
11.80498
11
23.03637
21
11.9231
0
LINE
5
550
100
AcDbEntity
8
vector4
6
ByLayer
62
256
370
-1
100
AcDbLine
10
23.03637
20
11.9231
11
23.50487
21
11.9231
0
LINE
5
551
100
AcDbEntity
8
vector4
6
ByLayer
62
256
370
-1
100
AcDbLine
10
23.50487
20
11.9231
11
23.50487
21
12.56809
0
LINE
5
552
100
AcDbEntity
8
vector4
6
ByLayer
62
256
370
-1
100
AcDbLine
10
23.50487
20
12.56809
11
23.62298
21
12.56809
0
LINE
5
553
100
AcDbEntity
8
vector4
6
ByLayer
62
256
370
-1
100
AcDbLine
10
23.62298
20
12.56809
11
23.62298
21
13.31809
0
LINE
5
554
100
AcDbEntity
8
vector4
6
ByLayer
62
256
370
-1
100
AcDbLine
10
23.62298
20
13.31809
11
23.50487
21
13.31809
0
LINE
5
555
100
AcDbEntity
8
vector4
6
ByLayer
62
256
370
-1
100
AcDbLine
10
22.44976
20
18.0916
11
22.44976
21
18.5916
0
LINE
5
556
100
AcDbEntity
8
vector4
6
ByLayer
62
256
370
-1
100
AcDbLine
10
22.44976
20
18.5916
11
22.56788
21
18.5916
0
LINE
5
557
100
AcDbEntity
8
vector4
6
ByLayer
62
256
370
-1
100
AcDbLine
10
22.56788
20
18.5916
11
22.56788
21
19.06009
0
LINE
5
558
100
AcDbEntity
8
vector4
6
ByLayer
62
256
370
-1
100
AcDbLine
10
22.56788
20
19.06009
11
21.98382
21
19.06009
0
LINE
5
559
100
AcDbEntity
8
vector4
6
ByLayer
62
256
370
-1
100
AcDbLine
10
21.98382
20
19.06009
11
21.98382
21
19.17821
0
LINE
5
55A
100
AcDbEntity
8
vector4
6
ByLayer
62
256
370
-1
100
AcDbLine
10
21.98382
20
19.17821
11
21.233815
21
19.17821
0
LINE
5
55B
100
AcDbEntity
8
vector4
6
ByLayer
62
256
370
-1
100
AcDbLine
10
21.233815
20
19.17821
11
21.233815
21
19.06009
0
LINE
5
55C
100
AcDbEntity
8
vector4
6
ByLayer
62
256
370
-1
100
AcDbLine
10
21.233815
20
19.06009
11
20.065725
21
19.06009
0
LINE
5
55D
100
AcDbEntity
8
vector4
6
ByLayer
62
256
370
-1
100
AcDbLine
10
20.065725
20
19.06009
11
20.065725
21
19.17821
0
LINE
5
55E
100
AcDbEntity
8
vector4
6
ByLayer
62
256
370
-1
100
AcDbLine
10
20.065725
20
19.17821
11
19.31572
21
19.17821
0
LINE
5
55F
100
AcDbEntity
8
vector4
6
ByLayer
62
256
370
-1
100
AcDbLine
10
19.31572
20
19.17821
11
19.31572
21
19.06009
0
LINE
5
560
100
AcDbEntity
8
vector4
6
ByLayer
62
256
370
-1
100
AcDbLine
10
19.31572
20
19.06009
11
18.73166
21
19.06009
0
LINE
5
561
100
AcDbEntity
8
vector4
6
ByLayer
62
256
370
-1
100
AcDbLine
10
18.73166
20
19.06009
11
18.73166
21
18.5916
0
LINE
5
562
100
AcDbEntity
8
vector4
6
ByLayer
62
256
370
-1
100
AcDbLine
10
18.73166
20
18.5916
11
18.84978
21
18.5916
0
LINE
5
563
100
AcDbEntity
8
vector4
6
ByLayer
62
256
370
-1
100
AcDbLine
10
18.84978
20
18.5916
11
18.84978
21
18.0916
0
LINE
5
564
100
AcDbEntity
8
vector4
6
ByLayer
62
256
370
-1
100
AcDbLine
10
18.84978
20
18.0916
11
18.73166
21
18.0916
0
LINE
5
565
100
AcDbEntity
8
vector4
6
ByLayer
62
256
370
-1
100
AcDbLine
10
18.73166
20
18.0916
11
18.73166
21
17.6231
0
LINE
5
566
100
AcDbEntity
8
vector4
6
ByLayer
62
256
370
-1
100
AcDbLine
10
18.73166
20
17.6231
11
19.31572
21
17.6231
0
LINE
5
567
100
AcDbEntity
8
vector4
6
ByLayer
62
256
370
-1
100
AcDbLine
10
19.31572
20
17.6231
11
19.31572
21
17.50499
0
LINE
5
568
100
AcDbEntity
8
vector4
6
ByLayer
62
256
370
-1
100
AcDbLine
10
19.31572
20
17.50499
11
20.065725
21
17.50499
0
LINE
5
569
100
AcDbEntity
8
vector4
6
ByLayer
62
256
370
-1
100
AcDbLine
10
20.065725
20
17.50499
11
20.065725
21
17.6231
0
LINE
5
56A
100
AcDbEntity
8
vector4
6
ByLayer
62
256
370
-1
100
AcDbLine
10
20.065725
20
17.6231
11
21.233815
21
17.6231
0
LINE
5
56B
100
AcDbEntity
8
vector4
6
ByLayer
62
256
370
-1
100
AcDbLine
10
21.233815
20
17.6231
11
21.233815
21
17.50499
0
LINE
5
56C
100
AcDbEntity
8
vector4
6
ByLayer
62
256
370
-1
100
AcDbLine
10
21.233815
20
17.50499
11
21.98382
21
17.50499
0
LINE
5
56D
100
AcDbEntity
8
vector4
6
ByLayer
62
256
370
-1
100
AcDbLine
10
21.98382
20
17.50499
11
21.98382
21
17.6231
0
LINE
5
56E
100
AcDbEntity
8
vector4
6
ByLayer
62
256
370
-1
100
AcDbLine
10
21.98382
20
17.6231
11
22.56788
21
17.6231
0
LINE
5
56F
100
AcDbEntity
8
vector4
6
ByLayer
62
256
370
-1
100
AcDbLine
10
22.56788
20
17.6231
11
22.56788
21
18.0916
0
LINE
5
570
100
AcDbEntity
8
vector4
6
ByLayer
62
256
370
-1
100
AcDbLine
10
22.56788
20
18.0916
11
22.44976
21
18.0916
0
ARC
5
571
100
AcDbEntity
8
vector4
6
ByLayer
62
256
370
-1
100
AcDbCircle
10
20.34967
20
18.25509
40
0.05
100
AcDbArc
50
180
51
270
0
LINE
5
572
100
AcDbEntity
8
vector4
6
ByLayer
62
256
370
-1
100
AcDbLine
10
20.29967
20
18.25509
11
20.29967
21
18.76009
0
ARC
5
573
100
AcDbEntity
8
vector4
6
ByLayer
62
256
370
-1
100
AcDbCircle
10
20.34967
20
18.76009
40
0.05
100
AcDbArc
50
90
51
180
0
LINE
5
574
100
AcDbEntity
8
vector4
6
ByLayer
62
256
370
-1
100
AcDbLine
10
21.94967
20
18.20509
11
20.34967
21
18.20509
0
ARC
5
575
100
AcDbEntity
8
vector4
6
ByLayer
62
256
370
-1
100
AcDbCircle
10
21.94967
20
18.25509
40
0.05
100
AcDbArc
50
270
51
360
0
LINE
5
576
100
AcDbEntity
8
vector4
6
ByLayer
62
256
370
-1
100
AcDbLine
10
21.99967
20
18.76009
11
21.99967
21
18.25509
0
LINE
5
577
100
AcDbEntity
8
vector4
6
ByLayer
62
256
370
-1
100
AcDbLine
10
20.34967
20
18.81009
11
21.94967
21
18.81009
0
ARC
5
578
100
AcDbEntity
8
vector4
6
ByLayer
62
256
370
-1
100
AcDbCircle
10
21.94967
20
18.76009
40
0.05
100
AcDbArc
50
360
51
90
0
ARC
5
579
100
AcDbEntity
8
vector4
6
ByLayer
62
256
370
-1
100
AcDbCircle
10
19.61967
20
18.47309
40
0.05
100
AcDbArc
50
180
51
270
0
LINE
5
57A
100
AcDbEntity
8
vector4
6
ByLayer
62
256
370
-1
100
AcDbLine
10
19.56967
20
18.47309
11
19.56967
21
18.67309
0
ARC
5
57B
100
AcDbEntity
8
vector4
6
ByLayer
62
256
370
-1
100
AcDbCircle
10
19.61967
20
18.67309
40
0.05
100
AcDbArc
50
90
51
180
0
LINE
5
57C
100
AcDbEntity
8
vector4
6
ByLayer
62
256
370
-1
100
AcDbLine
10
19.61967
20
18.72309
11
19.91967
21
18.72309
0
ARC
5
57D
100
AcDbEntity
8
vector4
6
ByLayer
62
256
370
-1
100
AcDbCircle
10
19.91967
20
18.67309
40
0.05
100
AcDbArc
50
360
51
90
0
LINE
5
57E
100
AcDbEntity
8
vector4
6
ByLayer
62
256
370
-1
100
AcDbLine
10
19.96967
20
18.67309
11
19.96967
21
18.47309
0
LINE
5
57F
100
AcDbEntity
8
vector4
6
ByLayer
62
256
370
-1
100
AcDbLine
10
19.91967
20
18.42309
11
19.61967
21
18.42309
0
ARC
5
580
100
AcDbEntity
8
vector4
6
ByLayer
62
256
370
-1
100
AcDbCircle
10
19.91967
20
18.47309
40
0.05
100
AcDbArc
50
270
51
360
0
LINE
5
581
100
AcDbEntity
8
vector4
6
ByLayer
62
256
370
-1
100
AcDbLine
10
23.0181
20
10.36849
11
23.0181
21
10.86849
0
LINE
5
582
100
AcDbEntity
8
vector4
6
ByLayer
62
256
370
-1
100
AcDbLine
10
23.0181
20
10.86849
11
23.13622
21
10.86849
0
LINE
5
583
100
AcDbEntity
8
vector4
6
ByLayer
62
256
370
-1
100
AcDbLine
10
23.13622
20
10.86849
11
23.13622
21
11.33699
0
LINE
5
584
100
AcDbEntity
8
vector4
6
ByLayer
62
256
370
-1
100
AcDbLine
10
23.13622
20
11.33699
11
22.55216
21
11.33699
0
LINE
5
585
100
AcDbEntity
8
vector4
6
ByLayer
62
256
370
-1
100
AcDbLine
10
22.55216
20
11.33699
11
22.55216
21
11.4551
0
LINE
5
586
100
AcDbEntity
8
vector4
6
ByLayer
62
256
370
-1
100
AcDbLine
10
22.55216
20
11.4551
11
21.802155
21
11.4551
0
LINE
5
587
100
AcDbEntity
8
vector4
6
ByLayer
62
256
370
-1
100
AcDbLine
10
21.802155
20
11.4551
11
21.802155
21
11.33699
0
LINE
5
588
100
AcDbEntity
8
vector4
6
ByLayer
62
256
370
-1
100
AcDbLine
10
21.802155
20
11.33699
11
20.634065
21
11.33699
0
LINE
5
589
100
AcDbEntity
8
vector4
6
ByLayer
62
256
370
-1
100
AcDbLine
10
20.634065
20
11.33699
11
20.634065
21
11.4551
0
LINE
5
58A
100
AcDbEntity
8
vector4
6
ByLayer
62
256
370
-1
100
AcDbLine
10
20.634065
20
11.4551
11
19.88406
21
11.4551
0
LINE
5
58B
100
AcDbEntity
8
vector4
6
ByLayer
62
256
370
-1
100
AcDbLine
10
19.88406
20
11.4551
11
19.88406
21
11.33699
0
LINE
5
58C
100
AcDbEntity
8
vector4
6
ByLayer
62
256
370
-1
100
AcDbLine
10
19.88406
20
11.33699
11
19.3
21
11.33699
0
LINE
5
58D
100
AcDbEntity
8
vector4
6
ByLayer
62
256
370
-1
100
AcDbLine
10
19.3
20
11.33699
11
19.3
21
10.86849
0
LINE
5
58E
100
AcDbEntity
8
vector4
6
ByLayer
62
256
370
-1
100
AcDbLine
10
19.3
20
10.86849
11
19.41812
21
10.86849
0
LINE
5
58F
100
AcDbEntity
8
vector4
6
ByLayer
62
256
370
-1
100
AcDbLine
10
19.41812
20
10.86849
11
19.41812
21
10.36849
0
LINE
5
590
100
AcDbEntity
8
vector4
6
ByLayer
62
256
370
-1
100
AcDbLine
10
19.41812
20
10.36849
11
19.3
21
10.36849
0
LINE
5
591
100
AcDbEntity
8
vector4
6
ByLayer
62
256
370
-1
100
AcDbLine
10
19.3
20
10.36849
11
19.3
21
9.9
0
LINE
5
592
100
AcDbEntity
8
vector4
6
ByLayer
62
256
370
-1
100
AcDbLine
10
19.3
20
9.9
11
19.88406
21
9.9
0
LINE
5
593
100
AcDbEntity
8
vector4
6
ByLayer
62
256
370
-1
100
AcDbLine
10
19.88406
20
9.9
11
19.88406
21
9.78188
0
LINE
5
594
100
AcDbEntity
8
vector4
6
ByLayer
62
256
370
-1
100
AcDbLine
10
19.88406
20
9.78188
11
20.634065
21
9.78188
0
LINE
5
595
100
AcDbEntity
8
vector4
6
ByLayer
62
256
370
-1
100
AcDbLine
10
20.634065
20
9.78188
11
20.634065
21
9.9
0
LINE
5
596
100
AcDbEntity
8
vector4
6
ByLayer
62
256
370
-1
100
AcDbLine
10
20.634065
20
9.9
11
21.802155
21
9.9
0
LINE
5
597
100
AcDbEntity
8
vector4
6
ByLayer
62
256
370
-1
100
AcDbLine
10
21.802155
20
9.9
11
21.802155
21
9.78188
0
LINE
5
598
100
AcDbEntity
8
vector4
6
ByLayer
62
256
370
-1
100
AcDbLine
10
21.802155
20
9.78188
11
22.55216
21
9.78188
0
LINE
5
599
100
AcDbEntity
8
vector4
6
ByLayer
62
256
370
-1
100
AcDbLine
10
22.55216
20
9.78188
11
22.55216
21
9.9
0
LINE
5
59A
100
AcDbEntity
8
vector4
6
ByLayer
62
256
370
-1
100
AcDbLine
10
22.55216
20
9.9
11
23.13622
21
9.9
0
LINE
5
59B
100
AcDbEntity
8
vector4
6
ByLayer
62
256
370
-1
100
AcDbLine
10
23.13622
20
9.9
11
23.13622
21
10.36849
0
LINE
5
59C
100
AcDbEntity
8
vector4
6
ByLayer
62
256
370
-1
100
AcDbLine
10
23.13622
20
10.36849
11
23.0181
21
10.36849
0
ARC
5
59D
100
AcDbEntity
8
vector4
6
ByLayer
62
256
370
-1
100
AcDbCircle
10
21.34801
20
10.762
40
0.05
100
AcDbArc
50
180
51
270
0
LINE
5
59E
100
AcDbEntity
8
vector4
6
ByLayer
62
256
370
-1
100
AcDbLine
10
21.29801
20
10.762
11
21.29801
21
11.112
0
ARC
5
59F
100
AcDbEntity
8
vector4
6
ByLayer
62
256
370
-1
100
AcDbCircle
10
21.34801
20
11.112
40
0.05
100
AcDbArc
50
90
51
180
0
LINE
5
5A0
100
AcDbEntity
8
vector4
6
ByLayer
62
256
370
-1
100
AcDbLine
10
21.34801
20
11.162
11
21.74801
21
11.162
0
ARC
5
5A1
100
AcDbEntity
8
vector4
6
ByLayer
62
256
370
-1
100
AcDbCircle
10
21.74801
20
11.112
40
0.05
100
AcDbArc
50
360
51
90
0
LINE
5
5A2
100
AcDbEntity
8
vector4
6
ByLayer
62
256
370
-1
100
AcDbLine
10
21.79801
20
11.112
11
21.79801
21
10.762
0
LINE
5
5A3
100
AcDbEntity
8
vector4
6
ByLayer
62
256
370
-1
100
AcDbLine
10
21.74801
20
10.712
11
21.34801
21
10.712
0
ARC
5
5A4
100
AcDbEntity
8
vector4
6
ByLayer
62
256
370
-1
100
AcDbCircle
10
21.74801
20
10.762
40
0.05
100
AcDbArc
50
270
51
360
0
ENDSEC
0
SECTION
2
OBJECTS
0
DICTIONARY
5
C
330
0
100
AcDbDictionary
281
1
3
ACAD_GROUP
350
D
0
DICTIONARY
5
D
330
C
100
AcDbDictionary
281
1
0
ENDSEC
0
EOF
