G04 (created by PCBNEW (2013-jul-07)-stable) date Thu 17 Jan 2019 05:41:25 PM PST*
%MOIN*%
G04 Gerber Fmt 3.4, Leading zero omitted, Abs format*
%FSLAX34Y34*%
G01*
G70*
G90*
G04 APERTURE LIST*
%ADD10C,0.00590551*%
%ADD11R,0.07X0.07*%
%ADD12C,0.07*%
%ADD13R,0.06X0.06*%
%ADD14C,0.06*%
%ADD15C,0.01*%
G04 APERTURE END LIST*
G54D10*
G54D11*
X22500Y-28200D03*
G54D12*
X23500Y-28200D03*
X22500Y-29200D03*
X23500Y-29200D03*
X22500Y-30200D03*
X23500Y-30200D03*
X22500Y-31200D03*
X23500Y-31200D03*
X22500Y-32200D03*
X23500Y-32200D03*
G54D13*
X27500Y-22500D03*
G54D14*
X28500Y-22500D03*
X29500Y-22500D03*
G54D13*
X27500Y-25000D03*
G54D14*
X28500Y-25000D03*
X29500Y-25000D03*
G54D13*
X27500Y-27500D03*
G54D14*
X28500Y-27500D03*
X29500Y-27500D03*
G54D13*
X27500Y-30000D03*
G54D14*
X28500Y-30000D03*
X29500Y-30000D03*
G54D13*
X27500Y-32500D03*
G54D14*
X28500Y-32500D03*
X29500Y-32500D03*
G54D13*
X27500Y-35000D03*
G54D14*
X28500Y-35000D03*
X29500Y-35000D03*
G54D13*
X27500Y-37500D03*
G54D14*
X28500Y-37500D03*
X29500Y-37500D03*
G54D15*
X21999Y-28699D02*
X22500Y-29200D01*
X21999Y-27782D02*
X21999Y-28699D01*
X22732Y-27049D02*
X21999Y-27782D01*
X28049Y-27049D02*
X22732Y-27049D01*
X28500Y-27500D02*
X28049Y-27049D01*
X24279Y-28420D02*
X23500Y-29200D01*
X28220Y-28420D02*
X24279Y-28420D01*
X29000Y-27640D02*
X28220Y-28420D01*
X29000Y-26549D02*
X29000Y-27640D01*
X29974Y-25575D02*
X29000Y-26549D01*
X29974Y-22974D02*
X29974Y-25575D01*
X29500Y-22500D02*
X29974Y-22974D01*
X21799Y-29499D02*
X22500Y-30200D01*
X21799Y-27698D02*
X21799Y-29499D01*
X22728Y-26769D02*
X21799Y-27698D01*
X27730Y-26769D02*
X22728Y-26769D01*
X29500Y-25000D02*
X27730Y-26769D01*
X25078Y-28621D02*
X23500Y-30200D01*
X28378Y-28621D02*
X25078Y-28621D01*
X29500Y-27500D02*
X28378Y-28621D01*
X21975Y-31724D02*
X22500Y-31200D01*
X21975Y-32397D02*
X21975Y-31724D01*
X25028Y-35450D02*
X21975Y-32397D01*
X29692Y-35450D02*
X25028Y-35450D01*
X29971Y-35171D02*
X29692Y-35450D01*
X29971Y-30471D02*
X29971Y-35171D01*
X29500Y-30000D02*
X29971Y-30471D01*
X28200Y-31200D02*
X23500Y-31200D01*
X29500Y-32500D02*
X28200Y-31200D01*
X24649Y-34349D02*
X22500Y-32200D01*
X28849Y-34349D02*
X24649Y-34349D01*
X29500Y-35000D02*
X28849Y-34349D01*
M02*
