G04 (created by PCBNEW (2013-jul-07)-stable) date Thu 17 Jan 2019 05:41:25 PM PST*
%MOIN*%
G04 Gerber Fmt 3.4, Leading zero omitted, Abs format*
%FSLAX34Y34*%
G01*
G70*
G90*
G04 APERTURE LIST*
%ADD10C,0.00590551*%
%ADD11C,0.008*%
%ADD12C,0.006*%
G04 APERTURE END LIST*
G54D10*
G54D11*
X29261Y-36861D02*
X29661Y-36766D01*
X29376Y-36690D01*
X29661Y-36614D01*
X29261Y-36519D01*
X29661Y-36366D02*
X29261Y-36366D01*
X29661Y-36138D02*
X29433Y-36309D01*
X29261Y-36138D02*
X29490Y-36366D01*
X29261Y-36004D02*
X29261Y-35738D01*
X29661Y-35909D01*
X28661Y-34128D02*
X28471Y-34261D01*
X28661Y-34357D02*
X28261Y-34357D01*
X28261Y-34204D01*
X28280Y-34166D01*
X28300Y-34147D01*
X28338Y-34128D01*
X28395Y-34128D01*
X28433Y-34147D01*
X28452Y-34166D01*
X28471Y-34204D01*
X28471Y-34357D01*
X28452Y-33957D02*
X28452Y-33823D01*
X28661Y-33766D02*
X28661Y-33957D01*
X28261Y-33957D01*
X28261Y-33766D01*
X28452Y-33461D02*
X28452Y-33595D01*
X28661Y-33595D02*
X28261Y-33595D01*
X28261Y-33404D01*
X29261Y-34361D02*
X29661Y-34266D01*
X29376Y-34190D01*
X29661Y-34114D01*
X29261Y-34019D01*
X29661Y-33866D02*
X29261Y-33866D01*
X29661Y-33638D02*
X29433Y-33809D01*
X29261Y-33638D02*
X29490Y-33866D01*
X29261Y-33295D02*
X29261Y-33371D01*
X29280Y-33409D01*
X29300Y-33428D01*
X29357Y-33466D01*
X29433Y-33485D01*
X29585Y-33485D01*
X29623Y-33466D01*
X29642Y-33447D01*
X29661Y-33409D01*
X29661Y-33333D01*
X29642Y-33295D01*
X29623Y-33276D01*
X29585Y-33257D01*
X29490Y-33257D01*
X29452Y-33276D01*
X29433Y-33295D01*
X29414Y-33333D01*
X29414Y-33409D01*
X29433Y-33447D01*
X29452Y-33466D01*
X29490Y-33485D01*
X29261Y-31861D02*
X29661Y-31766D01*
X29376Y-31690D01*
X29661Y-31614D01*
X29261Y-31519D01*
X29661Y-31366D02*
X29261Y-31366D01*
X29661Y-31138D02*
X29433Y-31309D01*
X29261Y-31138D02*
X29490Y-31366D01*
X29261Y-30776D02*
X29261Y-30966D01*
X29452Y-30985D01*
X29433Y-30966D01*
X29414Y-30928D01*
X29414Y-30833D01*
X29433Y-30795D01*
X29452Y-30776D01*
X29490Y-30757D01*
X29585Y-30757D01*
X29623Y-30776D01*
X29642Y-30795D01*
X29661Y-30833D01*
X29661Y-30928D01*
X29642Y-30966D01*
X29623Y-30985D01*
X29261Y-29361D02*
X29661Y-29266D01*
X29376Y-29190D01*
X29661Y-29114D01*
X29261Y-29019D01*
X29661Y-28866D02*
X29261Y-28866D01*
X29661Y-28638D02*
X29433Y-28809D01*
X29261Y-28638D02*
X29490Y-28866D01*
X29395Y-28295D02*
X29661Y-28295D01*
X29242Y-28390D02*
X29528Y-28485D01*
X29528Y-28238D01*
X29261Y-26861D02*
X29661Y-26766D01*
X29376Y-26690D01*
X29661Y-26614D01*
X29261Y-26519D01*
X29661Y-26366D02*
X29261Y-26366D01*
X29661Y-26138D02*
X29433Y-26309D01*
X29261Y-26138D02*
X29490Y-26366D01*
X29261Y-26004D02*
X29261Y-25757D01*
X29414Y-25890D01*
X29414Y-25833D01*
X29433Y-25795D01*
X29452Y-25776D01*
X29490Y-25757D01*
X29585Y-25757D01*
X29623Y-25776D01*
X29642Y-25795D01*
X29661Y-25833D01*
X29661Y-25947D01*
X29642Y-25985D01*
X29623Y-26004D01*
X28661Y-36628D02*
X28471Y-36761D01*
X28661Y-36857D02*
X28261Y-36857D01*
X28261Y-36704D01*
X28280Y-36666D01*
X28300Y-36647D01*
X28338Y-36628D01*
X28395Y-36628D01*
X28433Y-36647D01*
X28452Y-36666D01*
X28471Y-36704D01*
X28471Y-36857D01*
X28452Y-36457D02*
X28452Y-36323D01*
X28661Y-36266D02*
X28661Y-36457D01*
X28261Y-36457D01*
X28261Y-36266D01*
X28452Y-35961D02*
X28452Y-36095D01*
X28661Y-36095D02*
X28261Y-36095D01*
X28261Y-35904D01*
X28661Y-31628D02*
X28471Y-31761D01*
X28661Y-31857D02*
X28261Y-31857D01*
X28261Y-31704D01*
X28280Y-31666D01*
X28300Y-31647D01*
X28338Y-31628D01*
X28395Y-31628D01*
X28433Y-31647D01*
X28452Y-31666D01*
X28471Y-31704D01*
X28471Y-31857D01*
X28452Y-31457D02*
X28452Y-31323D01*
X28661Y-31266D02*
X28661Y-31457D01*
X28261Y-31457D01*
X28261Y-31266D01*
X28452Y-30961D02*
X28452Y-31095D01*
X28661Y-31095D02*
X28261Y-31095D01*
X28261Y-30904D01*
X28661Y-29128D02*
X28471Y-29261D01*
X28661Y-29357D02*
X28261Y-29357D01*
X28261Y-29204D01*
X28280Y-29166D01*
X28300Y-29147D01*
X28338Y-29128D01*
X28395Y-29128D01*
X28433Y-29147D01*
X28452Y-29166D01*
X28471Y-29204D01*
X28471Y-29357D01*
X28452Y-28957D02*
X28452Y-28823D01*
X28661Y-28766D02*
X28661Y-28957D01*
X28261Y-28957D01*
X28261Y-28766D01*
X28452Y-28461D02*
X28452Y-28595D01*
X28661Y-28595D02*
X28261Y-28595D01*
X28261Y-28404D01*
X28661Y-26628D02*
X28471Y-26761D01*
X28661Y-26857D02*
X28261Y-26857D01*
X28261Y-26704D01*
X28280Y-26666D01*
X28300Y-26647D01*
X28338Y-26628D01*
X28395Y-26628D01*
X28433Y-26647D01*
X28452Y-26666D01*
X28471Y-26704D01*
X28471Y-26857D01*
X28452Y-26457D02*
X28452Y-26323D01*
X28661Y-26266D02*
X28661Y-26457D01*
X28261Y-26457D01*
X28261Y-26266D01*
X28452Y-25961D02*
X28452Y-26095D01*
X28661Y-26095D02*
X28261Y-26095D01*
X28261Y-25904D01*
X27623Y-36628D02*
X27642Y-36647D01*
X27661Y-36704D01*
X27661Y-36742D01*
X27642Y-36799D01*
X27604Y-36838D01*
X27566Y-36857D01*
X27490Y-36876D01*
X27433Y-36876D01*
X27357Y-36857D01*
X27319Y-36838D01*
X27280Y-36799D01*
X27261Y-36742D01*
X27261Y-36704D01*
X27280Y-36647D01*
X27300Y-36628D01*
X27261Y-36514D02*
X27261Y-36285D01*
X27661Y-36399D02*
X27261Y-36399D01*
X27661Y-35923D02*
X27471Y-36057D01*
X27661Y-36152D02*
X27261Y-36152D01*
X27261Y-36000D01*
X27280Y-35961D01*
X27300Y-35942D01*
X27338Y-35923D01*
X27395Y-35923D01*
X27433Y-35942D01*
X27452Y-35961D01*
X27471Y-36000D01*
X27471Y-36152D01*
X27623Y-34128D02*
X27642Y-34147D01*
X27661Y-34204D01*
X27661Y-34242D01*
X27642Y-34299D01*
X27604Y-34338D01*
X27566Y-34357D01*
X27490Y-34376D01*
X27433Y-34376D01*
X27357Y-34357D01*
X27319Y-34338D01*
X27280Y-34299D01*
X27261Y-34242D01*
X27261Y-34204D01*
X27280Y-34147D01*
X27300Y-34128D01*
X27261Y-34014D02*
X27261Y-33785D01*
X27661Y-33899D02*
X27261Y-33899D01*
X27661Y-33423D02*
X27471Y-33557D01*
X27661Y-33652D02*
X27261Y-33652D01*
X27261Y-33500D01*
X27280Y-33461D01*
X27300Y-33442D01*
X27338Y-33423D01*
X27395Y-33423D01*
X27433Y-33442D01*
X27452Y-33461D01*
X27471Y-33500D01*
X27471Y-33652D01*
X27623Y-31628D02*
X27642Y-31647D01*
X27661Y-31704D01*
X27661Y-31742D01*
X27642Y-31799D01*
X27604Y-31838D01*
X27566Y-31857D01*
X27490Y-31876D01*
X27433Y-31876D01*
X27357Y-31857D01*
X27319Y-31838D01*
X27280Y-31799D01*
X27261Y-31742D01*
X27261Y-31704D01*
X27280Y-31647D01*
X27300Y-31628D01*
X27261Y-31514D02*
X27261Y-31285D01*
X27661Y-31399D02*
X27261Y-31399D01*
X27661Y-30923D02*
X27471Y-31057D01*
X27661Y-31152D02*
X27261Y-31152D01*
X27261Y-31000D01*
X27280Y-30961D01*
X27300Y-30942D01*
X27338Y-30923D01*
X27395Y-30923D01*
X27433Y-30942D01*
X27452Y-30961D01*
X27471Y-31000D01*
X27471Y-31152D01*
X27623Y-29128D02*
X27642Y-29147D01*
X27661Y-29204D01*
X27661Y-29242D01*
X27642Y-29299D01*
X27604Y-29338D01*
X27566Y-29357D01*
X27490Y-29376D01*
X27433Y-29376D01*
X27357Y-29357D01*
X27319Y-29338D01*
X27280Y-29299D01*
X27261Y-29242D01*
X27261Y-29204D01*
X27280Y-29147D01*
X27300Y-29128D01*
X27261Y-29014D02*
X27261Y-28785D01*
X27661Y-28899D02*
X27261Y-28899D01*
X27661Y-28423D02*
X27471Y-28557D01*
X27661Y-28652D02*
X27261Y-28652D01*
X27261Y-28500D01*
X27280Y-28461D01*
X27300Y-28442D01*
X27338Y-28423D01*
X27395Y-28423D01*
X27433Y-28442D01*
X27452Y-28461D01*
X27471Y-28500D01*
X27471Y-28652D01*
X27623Y-26628D02*
X27642Y-26647D01*
X27661Y-26704D01*
X27661Y-26742D01*
X27642Y-26799D01*
X27604Y-26838D01*
X27566Y-26857D01*
X27490Y-26876D01*
X27433Y-26876D01*
X27357Y-26857D01*
X27319Y-26838D01*
X27280Y-26799D01*
X27261Y-26742D01*
X27261Y-26704D01*
X27280Y-26647D01*
X27300Y-26628D01*
X27261Y-26514D02*
X27261Y-26285D01*
X27661Y-26399D02*
X27261Y-26399D01*
X27661Y-25923D02*
X27471Y-26057D01*
X27661Y-26152D02*
X27261Y-26152D01*
X27261Y-26000D01*
X27280Y-25961D01*
X27300Y-25942D01*
X27338Y-25923D01*
X27395Y-25923D01*
X27433Y-25942D01*
X27452Y-25961D01*
X27471Y-26000D01*
X27471Y-26152D01*
X29261Y-24361D02*
X29661Y-24266D01*
X29376Y-24190D01*
X29661Y-24114D01*
X29261Y-24019D01*
X29661Y-23866D02*
X29261Y-23866D01*
X29661Y-23638D02*
X29433Y-23809D01*
X29261Y-23638D02*
X29490Y-23866D01*
X29300Y-23485D02*
X29280Y-23466D01*
X29261Y-23428D01*
X29261Y-23333D01*
X29280Y-23295D01*
X29300Y-23276D01*
X29338Y-23257D01*
X29376Y-23257D01*
X29433Y-23276D01*
X29661Y-23504D01*
X29661Y-23257D01*
X28661Y-24128D02*
X28471Y-24261D01*
X28661Y-24357D02*
X28261Y-24357D01*
X28261Y-24204D01*
X28280Y-24166D01*
X28300Y-24147D01*
X28338Y-24128D01*
X28395Y-24128D01*
X28433Y-24147D01*
X28452Y-24166D01*
X28471Y-24204D01*
X28471Y-24357D01*
X28452Y-23957D02*
X28452Y-23823D01*
X28661Y-23766D02*
X28661Y-23957D01*
X28261Y-23957D01*
X28261Y-23766D01*
X28452Y-23461D02*
X28452Y-23595D01*
X28661Y-23595D02*
X28261Y-23595D01*
X28261Y-23404D01*
X27623Y-24128D02*
X27642Y-24147D01*
X27661Y-24204D01*
X27661Y-24242D01*
X27642Y-24299D01*
X27604Y-24338D01*
X27566Y-24357D01*
X27490Y-24376D01*
X27433Y-24376D01*
X27357Y-24357D01*
X27319Y-24338D01*
X27280Y-24299D01*
X27261Y-24242D01*
X27261Y-24204D01*
X27280Y-24147D01*
X27300Y-24128D01*
X27261Y-24014D02*
X27261Y-23785D01*
X27661Y-23899D02*
X27261Y-23899D01*
X27661Y-23423D02*
X27471Y-23557D01*
X27661Y-23652D02*
X27261Y-23652D01*
X27261Y-23500D01*
X27280Y-23461D01*
X27300Y-23442D01*
X27338Y-23423D01*
X27395Y-23423D01*
X27433Y-23442D01*
X27452Y-23461D01*
X27471Y-23500D01*
X27471Y-23652D01*
X29261Y-21861D02*
X29661Y-21766D01*
X29376Y-21690D01*
X29661Y-21614D01*
X29261Y-21519D01*
X29661Y-21366D02*
X29261Y-21366D01*
X29661Y-21138D02*
X29433Y-21309D01*
X29261Y-21138D02*
X29490Y-21366D01*
X29661Y-20757D02*
X29661Y-20985D01*
X29661Y-20871D02*
X29261Y-20871D01*
X29319Y-20909D01*
X29357Y-20947D01*
X29376Y-20985D01*
X28661Y-21628D02*
X28471Y-21761D01*
X28661Y-21857D02*
X28261Y-21857D01*
X28261Y-21704D01*
X28280Y-21666D01*
X28300Y-21647D01*
X28338Y-21628D01*
X28395Y-21628D01*
X28433Y-21647D01*
X28452Y-21666D01*
X28471Y-21704D01*
X28471Y-21857D01*
X28452Y-21457D02*
X28452Y-21323D01*
X28661Y-21266D02*
X28661Y-21457D01*
X28261Y-21457D01*
X28261Y-21266D01*
X28452Y-20961D02*
X28452Y-21095D01*
X28661Y-21095D02*
X28261Y-21095D01*
X28261Y-20904D01*
X27623Y-21628D02*
X27642Y-21647D01*
X27661Y-21704D01*
X27661Y-21742D01*
X27642Y-21799D01*
X27604Y-21838D01*
X27566Y-21857D01*
X27490Y-21876D01*
X27433Y-21876D01*
X27357Y-21857D01*
X27319Y-21838D01*
X27280Y-21799D01*
X27261Y-21742D01*
X27261Y-21704D01*
X27280Y-21647D01*
X27300Y-21628D01*
X27261Y-21514D02*
X27261Y-21285D01*
X27661Y-21399D02*
X27261Y-21399D01*
X27661Y-20923D02*
X27471Y-21057D01*
X27661Y-21152D02*
X27261Y-21152D01*
X27261Y-21000D01*
X27280Y-20961D01*
X27300Y-20942D01*
X27338Y-20923D01*
X27395Y-20923D01*
X27433Y-20942D01*
X27452Y-20961D01*
X27471Y-21000D01*
X27471Y-21152D01*
G54D12*
X27000Y-23000D02*
X27000Y-22000D01*
X27000Y-22000D02*
X30000Y-22000D01*
X30000Y-22000D02*
X30000Y-23000D01*
X30000Y-23000D02*
X27000Y-23000D01*
X28000Y-22000D02*
X28000Y-23000D01*
X27000Y-25500D02*
X27000Y-24500D01*
X27000Y-24500D02*
X30000Y-24500D01*
X30000Y-24500D02*
X30000Y-25500D01*
X30000Y-25500D02*
X27000Y-25500D01*
X28000Y-24500D02*
X28000Y-25500D01*
X27000Y-28000D02*
X27000Y-27000D01*
X27000Y-27000D02*
X30000Y-27000D01*
X30000Y-27000D02*
X30000Y-28000D01*
X30000Y-28000D02*
X27000Y-28000D01*
X28000Y-27000D02*
X28000Y-28000D01*
X27000Y-30500D02*
X27000Y-29500D01*
X27000Y-29500D02*
X30000Y-29500D01*
X30000Y-29500D02*
X30000Y-30500D01*
X30000Y-30500D02*
X27000Y-30500D01*
X28000Y-29500D02*
X28000Y-30500D01*
X27000Y-33000D02*
X27000Y-32000D01*
X27000Y-32000D02*
X30000Y-32000D01*
X30000Y-32000D02*
X30000Y-33000D01*
X30000Y-33000D02*
X27000Y-33000D01*
X28000Y-32000D02*
X28000Y-33000D01*
X27000Y-35500D02*
X27000Y-34500D01*
X27000Y-34500D02*
X30000Y-34500D01*
X30000Y-34500D02*
X30000Y-35500D01*
X30000Y-35500D02*
X27000Y-35500D01*
X28000Y-34500D02*
X28000Y-35500D01*
X27000Y-38000D02*
X27000Y-37000D01*
X27000Y-37000D02*
X30000Y-37000D01*
X30000Y-37000D02*
X30000Y-38000D01*
X30000Y-38000D02*
X27000Y-38000D01*
X28000Y-37000D02*
X28000Y-38000D01*
G54D11*
X26204Y-22661D02*
X26204Y-22261D01*
X26433Y-22661D02*
X26261Y-22433D01*
X26433Y-22261D02*
X26204Y-22490D01*
X26814Y-22661D02*
X26585Y-22661D01*
X26700Y-22661D02*
X26700Y-22261D01*
X26661Y-22319D01*
X26623Y-22357D01*
X26585Y-22376D01*
X26204Y-25161D02*
X26204Y-24761D01*
X26433Y-25161D02*
X26261Y-24933D01*
X26433Y-24761D02*
X26204Y-24990D01*
X26585Y-24800D02*
X26604Y-24780D01*
X26642Y-24761D01*
X26738Y-24761D01*
X26776Y-24780D01*
X26795Y-24800D01*
X26814Y-24838D01*
X26814Y-24876D01*
X26795Y-24933D01*
X26566Y-25161D01*
X26814Y-25161D01*
X26204Y-27661D02*
X26204Y-27261D01*
X26433Y-27661D02*
X26261Y-27433D01*
X26433Y-27261D02*
X26204Y-27490D01*
X26566Y-27261D02*
X26814Y-27261D01*
X26680Y-27414D01*
X26738Y-27414D01*
X26776Y-27433D01*
X26795Y-27452D01*
X26814Y-27490D01*
X26814Y-27585D01*
X26795Y-27623D01*
X26776Y-27642D01*
X26738Y-27661D01*
X26623Y-27661D01*
X26585Y-27642D01*
X26566Y-27623D01*
X26204Y-30161D02*
X26204Y-29761D01*
X26433Y-30161D02*
X26261Y-29933D01*
X26433Y-29761D02*
X26204Y-29990D01*
X26776Y-29895D02*
X26776Y-30161D01*
X26680Y-29742D02*
X26585Y-30028D01*
X26833Y-30028D01*
X26204Y-32661D02*
X26204Y-32261D01*
X26433Y-32661D02*
X26261Y-32433D01*
X26433Y-32261D02*
X26204Y-32490D01*
X26795Y-32261D02*
X26604Y-32261D01*
X26585Y-32452D01*
X26604Y-32433D01*
X26642Y-32414D01*
X26738Y-32414D01*
X26776Y-32433D01*
X26795Y-32452D01*
X26814Y-32490D01*
X26814Y-32585D01*
X26795Y-32623D01*
X26776Y-32642D01*
X26738Y-32661D01*
X26642Y-32661D01*
X26604Y-32642D01*
X26585Y-32623D01*
X26204Y-35161D02*
X26204Y-34761D01*
X26433Y-35161D02*
X26261Y-34933D01*
X26433Y-34761D02*
X26204Y-34990D01*
X26776Y-34761D02*
X26700Y-34761D01*
X26661Y-34780D01*
X26642Y-34800D01*
X26604Y-34857D01*
X26585Y-34933D01*
X26585Y-35085D01*
X26604Y-35123D01*
X26623Y-35142D01*
X26661Y-35161D01*
X26738Y-35161D01*
X26776Y-35142D01*
X26795Y-35123D01*
X26814Y-35085D01*
X26814Y-34990D01*
X26795Y-34952D01*
X26776Y-34933D01*
X26738Y-34914D01*
X26661Y-34914D01*
X26623Y-34933D01*
X26604Y-34952D01*
X26585Y-34990D01*
X26204Y-37661D02*
X26204Y-37261D01*
X26433Y-37661D02*
X26261Y-37433D01*
X26433Y-37261D02*
X26204Y-37490D01*
X26566Y-37261D02*
X26833Y-37261D01*
X26661Y-37661D01*
M02*
