  0
SECTION
  2
BLOCKS
  0
ENDSEC
  0
SECTION
  2
ENTITIES
  0
LINE
  8
0
 10
-1.155
 20
2.60866
 11
-0.375
 21
2.60866
  0
LINE
  8
0
 10
-0.375
 20
2.60866
 11
-0.375
 21
2.49054
  0
LINE
  8
0
 10
-0.375
 20
2.49054
 11
0.375
 21
2.49054
  0
LINE
  8
0
 10
0.375
 20
2.49054
 11
0.375
 21
2.60866
  0
LINE
  8
0
 10
0.375
 20
2.60866
 11
1.155
 21
2.60866
  0
LINE
  8
0
 10
1.155
 20
2.60866
 11
1.155
 21
2.49054
  0
LINE
  8
0
 10
1.155
 20
2.49054
 11
1.905
 21
2.49054
  0
LINE
  8
0
 10
1.905
 20
2.49054
 11
1.905
 21
2.60866
  0
LINE
  8
0
 10
1.905
 20
2.60866
 11
2.54999
 21
2.60866
  0
LINE
  8
0
 10
2.54999
 20
2.60866
 11
2.54999
 21
3.07715
  0
LINE
  8
0
 10
2.54999
 20
3.07715
 11
2.66811
 21
3.07715
  0
LINE
  8
0
 10
2.66811
 20
3.07715
 11
2.66811
 21
3.57715
  0
LINE
  8
0
 10
2.66811
 20
3.57715
 11
2.54999
 21
3.57715
  0
LINE
  8
0
 10
2.54999
 20
3.57715
 11
2.54999
 21
4.04565
  0
LINE
  8
0
 10
2.54999
 20
4.04565
 11
1.905
 21
4.04565
  0
LINE
  8
0
 10
1.905
 20
4.04565
 11
1.905
 21
4.16376
  0
LINE
  8
0
 10
1.905
 20
4.16376
 11
1.155
 21
4.16376
  0
LINE
  8
0
 10
1.155
 20
4.16376
 11
1.155
 21
4.04565
  0
LINE
  8
0
 10
1.155
 20
4.04565
 11
0.375
 21
4.04565
  0
LINE
  8
0
 10
0.375
 20
4.04565
 11
0.375
 21
4.16376
  0
LINE
  8
0
 10
0.375
 20
4.16376
 11
-0.375
 21
4.16376
  0
LINE
  8
0
 10
-0.375
 20
4.16376
 11
-0.375
 21
4.04565
  0
LINE
  8
0
 10
-0.375
 20
4.04565
 11
-1.155
 21
4.04565
  0
LINE
  8
0
 10
-1.155
 20
4.04565
 11
-1.155
 21
4.16376
  0
LINE
  8
0
 10
-1.155
 20
4.16376
 11
-1.905
 21
4.16376
  0
LINE
  8
0
 10
-1.905
 20
4.16376
 11
-1.905
 21
4.04565
  0
LINE
  8
0
 10
-1.905
 20
4.04565
 11
-2.54999
 21
4.04565
  0
LINE
  8
0
 10
-2.54999
 20
4.04565
 11
-2.54999
 21
3.57715
  0
LINE
  8
0
 10
-2.54999
 20
3.57715
 11
-2.66811
 21
3.57715
  0
LINE
  8
0
 10
-2.66811
 20
3.57715
 11
-2.66811
 21
3.07715
  0
LINE
  8
0
 10
-2.66811
 20
3.07715
 11
-2.54999
 21
3.07715
  0
LINE
  8
0
 10
-2.54999
 20
3.07715
 11
-2.54999
 21
2.60866
  0
LINE
  8
0
 10
-2.54999
 20
2.60866
 11
-1.905
 21
2.60866
  0
LINE
  8
0
 10
-1.905
 20
2.60866
 11
-1.905
 21
2.49054
  0
LINE
  8
0
 10
-1.905
 20
2.49054
 11
-1.155
 21
2.49054
  0
LINE
  8
0
 10
-1.155
 20
2.49054
 11
-1.155
 21
2.60866
  0
LINE
  8
0
 10
-2.67438
 20
-2.0179
 11
2.67438
 21
-2.0179
  0
LINE
  8
0
 10
2.67438
 20
-2.0179
 11
2.69901
 21
-2.01321
  0
LINE
  8
0
 10
2.69901
 20
-2.01321
 11
2.72168
 21
-2.00253
  0
LINE
  8
0
 10
2.72168
 20
-2.00253
 11
2.741
 21
-1.98656
  0
LINE
  8
0
 10
2.741
 20
-1.98656
 11
2.75574
 21
-1.96628
  0
LINE
  8
0
 10
2.75574
 20
-1.96628
 11
2.76495
 21
-1.94298
  0
LINE
  8
0
 10
2.76495
 20
-1.94298
 11
2.7681
 21
-1.91811
  0
LINE
  8
0
 10
2.7681
 20
-1.91811
 11
2.76732
 21
1.93063
  0
LINE
  8
0
 10
2.76732
 20
1.93063
 11
2.76108
 21
1.95491
  0
LINE
  8
0
 10
2.76108
 20
1.95491
 11
2.74901
 21
1.97688
  0
LINE
  8
0
 10
2.74901
 20
1.97688
 11
2.73184
 21
1.99515
  0
LINE
  8
0
 10
2.73184
 20
1.99515
 11
2.71068
 21
2.00859
  0
LINE
  8
0
 10
2.71068
 20
2.00859
 11
2.68684
 21
2.01633
  0
LINE
  8
0
 10
2.68684
 20
2.01633
 11
2.66811
 21
2.0181
  0
LINE
  8
0
 10
2.66811
 20
2.0181
 11
-2.67438
 21
2.0179
  0
LINE
  8
0
 10
-2.67438
 20
2.0179
 11
-2.69901
 21
2.01321
  0
LINE
  8
0
 10
-2.69901
 20
2.01321
 11
-2.72168
 21
2.00253
  0
LINE
  8
0
 10
-2.72168
 20
2.00253
 11
-2.741
 21
1.98656
  0
LINE
  8
0
 10
-2.741
 20
1.98656
 11
-2.75574
 21
1.96628
  0
LINE
  8
0
 10
-2.75574
 20
1.96628
 11
-2.76495
 21
1.94298
  0
LINE
  8
0
 10
-2.76495
 20
1.94298
 11
-2.7681
 21
1.91811
  0
LINE
  8
0
 10
-2.7681
 20
1.91811
 11
-2.76732
 21
-1.93063
  0
LINE
  8
0
 10
-2.76732
 20
-1.93063
 11
-2.76108
 21
-1.95491
  0
LINE
  8
0
 10
-2.76108
 20
-1.95491
 11
-2.74901
 21
-1.97688
  0
LINE
  8
0
 10
-2.74901
 20
-1.97688
 11
-2.73184
 21
-1.99515
  0
LINE
  8
0
 10
-2.73184
 20
-1.99515
 11
-2.71068
 21
-2.00859
  0
LINE
  8
0
 10
-2.71068
 20
-2.00859
 11
-2.68684
 21
-2.01633
  0
LINE
  8
0
 10
-2.68684
 20
-2.01633
 11
-2.67438
 21
-2.0179
  0
LINE
  8
0
 10
1.155
 20
1.8
 11
1.155
 21
1.91811
  0
LINE
  8
0
 10
1.155
 20
1.91811
 11
1.905
 21
1.91811
  0
LINE
  8
0
 10
1.905
 20
1.91811
 11
1.905
 21
1.8
  0
LINE
  8
0
 10
1.905
 20
1.8
 11
1.155
 21
1.8
  0
LINE
  8
0
 10
-0.375
 20
1.8
 11
-0.375
 21
1.91811
  0
LINE
  8
0
 10
-0.375
 20
1.91811
 11
0.375
 21
1.91811
  0
LINE
  8
0
 10
0.375
 20
1.91811
 11
0.375
 21
1.8
  0
LINE
  8
0
 10
0.375
 20
1.8
 11
-0.375
 21
1.8
  0
LINE
  8
0
 10
-1.905
 20
1.8
 11
-1.905
 21
1.91811
  0
LINE
  8
0
 10
-1.905
 20
1.91811
 11
-1.155
 21
1.91811
  0
LINE
  8
0
 10
-1.155
 20
1.91811
 11
-1.155
 21
1.8
  0
LINE
  8
0
 10
-1.155
 20
1.8
 11
-1.905
 21
1.8
  0
LINE
  8
0
 10
2.38586
 20
1.56802
 11
2.36412
 21
1.56802
  0
LINE
  8
0
 10
2.36412
 20
1.56802
 11
2.34392
 21
1.57602
  0
LINE
  8
0
 10
2.34392
 20
1.57602
 11
2.32806
 21
1.5909
  0
LINE
  8
0
 10
2.32806
 20
1.5909
 11
2.31882
 21
1.61057
  0
LINE
  8
0
 10
2.31882
 20
1.61057
 11
2.31744
 21
1.63226
  0
LINE
  8
0
 10
2.31744
 20
1.63226
 11
2.32417
 21
1.65294
  0
LINE
  8
0
 10
2.32417
 20
1.65294
 11
2.33803
 21
1.66968
  0
LINE
  8
0
 10
2.33803
 20
1.66968
 11
2.35707
 21
1.68016
  0
LINE
  8
0
 10
2.35707
 20
1.68016
 11
2.37863
 21
1.68288
  0
LINE
  8
0
 10
2.37863
 20
1.68288
 11
2.39969
 21
1.67747
  0
LINE
  8
0
 10
2.39969
 20
1.67747
 11
2.41727
 21
1.6647
  0
LINE
  8
0
 10
2.41727
 20
1.6647
 11
2.42892
 21
1.64635
  0
LINE
  8
0
 10
2.42892
 20
1.64635
 11
2.433
 21
1.625
  0
LINE
  8
0
 10
2.433
 20
1.625
 11
2.42892
 21
1.60364
  0
LINE
  8
0
 10
2.42892
 20
1.60364
 11
2.41727
 21
1.58528
  0
LINE
  8
0
 10
2.41727
 20
1.58528
 11
2.39969
 21
1.57251
  0
LINE
  8
0
 10
2.39969
 20
1.57251
 11
2.38586
 21
1.56802
  0
LINE
  8
0
 10
-2.36412
 20
1.56802
 11
-2.38586
 21
1.56802
  0
LINE
  8
0
 10
-2.38586
 20
1.56802
 11
-2.40607
 21
1.57602
  0
LINE
  8
0
 10
-2.40607
 20
1.57602
 11
-2.42192
 21
1.5909
  0
LINE
  8
0
 10
-2.42192
 20
1.5909
 11
-2.43117
 21
1.61057
  0
LINE
  8
0
 10
-2.43117
 20
1.61057
 11
-2.43254
 21
1.63226
  0
LINE
  8
0
 10
-2.43254
 20
1.63226
 11
-2.42581
 21
1.65294
  0
LINE
  8
0
 10
-2.42581
 20
1.65294
 11
-2.41196
 21
1.66968
  0
LINE
  8
0
 10
-2.41196
 20
1.66968
 11
-2.39291
 21
1.68016
  0
LINE
  8
0
 10
-2.39291
 20
1.68016
 11
-2.37135
 21
1.68288
  0
LINE
  8
0
 10
-2.37135
 20
1.68288
 11
-2.3503
 21
1.67747
  0
LINE
  8
0
 10
-2.3503
 20
1.67747
 11
-2.33272
 21
1.6647
  0
LINE
  8
0
 10
-2.33272
 20
1.6647
 11
-2.32106
 21
1.64635
  0
LINE
  8
0
 10
-2.32106
 20
1.64635
 11
-2.31699
 21
1.625
  0
LINE
  8
0
 10
-2.31699
 20
1.625
 11
-2.32106
 21
1.60364
  0
LINE
  8
0
 10
-2.32106
 20
1.60364
 11
-2.33272
 21
1.58528
  0
LINE
  8
0
 10
-2.33272
 20
1.58528
 11
-2.3503
 21
1.57251
  0
LINE
  8
0
 10
-2.3503
 20
1.57251
 11
-2.36412
 21
1.56802
  0
LINE
  8
0
 10
2.55
 20
0.584045
 11
2.55
 21
1.33405
  0
LINE
  8
0
 10
2.55
 20
1.33405
 11
2.66811
 21
1.33405
  0
LINE
  8
0
 10
2.66811
 20
1.33405
 11
2.66811
 21
0.584045
  0
LINE
  8
0
 10
2.66811
 20
0.584045
 11
2.55
 21
0.584045
  0
LINE
  8
0
 10
-2.66811
 20
0.584045
 11
-2.66811
 21
1.33405
  0
LINE
  8
0
 10
-2.66811
 20
1.33405
 11
-2.55
 21
1.33405
  0
LINE
  8
0
 10
-2.55
 20
1.33405
 11
-2.55
 21
0.584045
  0
LINE
  8
0
 10
-2.55
 20
0.584045
 11
-2.66811
 21
0.584045
  0
LINE
  8
0
 10
2.55
 20
-1.33405
 11
2.55
 21
-0.584045
  0
LINE
  8
0
 10
2.55
 20
-0.584045
 11
2.66811
 21
-0.584045
  0
LINE
  8
0
 10
2.66811
 20
-0.584045
 11
2.66811
 21
-1.33405
  0
LINE
  8
0
 10
2.66811
 20
-1.33405
 11
2.55
 21
-1.33405
  0
LINE
  8
0
 10
-2.66811
 20
-1.33405
 11
-2.66811
 21
-0.584045
  0
LINE
  8
0
 10
-2.66811
 20
-0.584045
 11
-2.55
 21
-0.584045
  0
LINE
  8
0
 10
-2.55
 20
-0.584045
 11
-2.55
 21
-1.33405
  0
LINE
  8
0
 10
-2.55
 20
-1.33405
 11
-2.66811
 21
-1.33405
  0
LINE
  8
0
 10
2.38586
 20
-1.68196
 11
2.36412
 21
-1.68196
  0
LINE
  8
0
 10
2.36412
 20
-1.68196
 11
2.34392
 21
-1.67397
  0
LINE
  8
0
 10
2.34392
 20
-1.67397
 11
2.32806
 21
-1.65909
  0
LINE
  8
0
 10
2.32806
 20
-1.65909
 11
2.31882
 21
-1.63942
  0
LINE
  8
0
 10
2.31882
 20
-1.63942
 11
2.31744
 21
-1.61772
  0
LINE
  8
0
 10
2.31744
 20
-1.61772
 11
2.32417
 21
-1.59705
  0
LINE
  8
0
 10
2.32417
 20
-1.59705
 11
2.33803
 21
-1.58031
  0
LINE
  8
0
 10
2.33803
 20
-1.58031
 11
2.35707
 21
-1.56982
  0
LINE
  8
0
 10
2.35707
 20
-1.56982
 11
2.37863
 21
-1.56711
  0
LINE
  8
0
 10
2.37863
 20
-1.56711
 11
2.39969
 21
-1.57251
  0
LINE
  8
0
 10
2.39969
 20
-1.57251
 11
2.41727
 21
-1.58528
  0
LINE
  8
0
 10
2.41727
 20
-1.58528
 11
2.42892
 21
-1.60364
  0
LINE
  8
0
 10
2.42892
 20
-1.60364
 11
2.433
 21
-1.625
  0
LINE
  8
0
 10
2.433
 20
-1.625
 11
2.42892
 21
-1.64635
  0
LINE
  8
0
 10
2.42892
 20
-1.64635
 11
2.41727
 21
-1.6647
  0
LINE
  8
0
 10
2.41727
 20
-1.6647
 11
2.39969
 21
-1.67747
  0
LINE
  8
0
 10
2.39969
 20
-1.67747
 11
2.38586
 21
-1.68196
  0
LINE
  8
0
 10
-2.36412
 20
-1.68196
 11
-2.38586
 21
-1.68196
  0
LINE
  8
0
 10
-2.38586
 20
-1.68196
 11
-2.40607
 21
-1.67397
  0
LINE
  8
0
 10
-2.40607
 20
-1.67397
 11
-2.42192
 21
-1.65909
  0
LINE
  8
0
 10
-2.42192
 20
-1.65909
 11
-2.43117
 21
-1.63942
  0
LINE
  8
0
 10
-2.43117
 20
-1.63942
 11
-2.43254
 21
-1.61772
  0
LINE
  8
0
 10
-2.43254
 20
-1.61772
 11
-2.42581
 21
-1.59705
  0
LINE
  8
0
 10
-2.42581
 20
-1.59705
 11
-2.41196
 21
-1.58031
  0
LINE
  8
0
 10
-2.41196
 20
-1.58031
 11
-2.39291
 21
-1.56982
  0
LINE
  8
0
 10
-2.39291
 20
-1.56982
 11
-2.37135
 21
-1.56711
  0
LINE
  8
0
 10
-2.37135
 20
-1.56711
 11
-2.3503
 21
-1.57251
  0
LINE
  8
0
 10
-2.3503
 20
-1.57251
 11
-2.33272
 21
-1.58528
  0
LINE
  8
0
 10
-2.33272
 20
-1.58528
 11
-2.32106
 21
-1.60364
  0
LINE
  8
0
 10
-2.32106
 20
-1.60364
 11
-2.31699
 21
-1.625
  0
LINE
  8
0
 10
-2.31699
 20
-1.625
 11
-2.32106
 21
-1.64635
  0
LINE
  8
0
 10
-2.32106
 20
-1.64635
 11
-2.33272
 21
-1.6647
  0
LINE
  8
0
 10
-2.33272
 20
-1.6647
 11
-2.3503
 21
-1.67747
  0
LINE
  8
0
 10
-2.3503
 20
-1.67747
 11
-2.36412
 21
-1.68196
  0
LINE
  8
0
 10
1.155
 20
-1.91811
 11
1.155
 21
-1.8
  0
LINE
  8
0
 10
1.155
 20
-1.8
 11
1.905
 21
-1.8
  0
LINE
  8
0
 10
1.905
 20
-1.8
 11
1.905
 21
-1.91811
  0
LINE
  8
0
 10
1.905
 20
-1.91811
 11
1.155
 21
-1.91811
  0
LINE
  8
0
 10
-1.905
 20
-1.91811
 11
-1.905
 21
-1.8
  0
LINE
  8
0
 10
-1.905
 20
-1.8
 11
-1.155
 21
-1.8
  0
LINE
  8
0
 10
-1.155
 20
-1.8
 11
-1.155
 21
-1.91811
  0
LINE
  8
0
 10
-1.155
 20
-1.91811
 11
-1.905
 21
-1.91811
  0
LINE
  8
0
 10
-0.375
 20
-1.91811
 11
-0.375
 21
-1.8
  0
LINE
  8
0
 10
-0.375
 20
-1.8
 11
0.375
 21
-1.8
  0
LINE
  8
0
 10
0.375
 20
-1.8
 11
0.375
 21
-1.91811
  0
LINE
  8
0
 10
0.375
 20
-1.91811
 11
-0.375
 21
-1.91811
  0
LINE
  8
0
 10
3.82715
 20
-1.79999
 11
4.32715
 21
-1.79999
  0
LINE
  8
0
 10
4.32715
 20
-1.79999
 11
4.32715
 21
-1.91811
  0
LINE
  8
0
 10
4.32715
 20
-1.91811
 11
4.79565
 21
-1.91811
  0
LINE
  8
0
 10
4.79565
 20
-1.91811
 11
4.79565
 21
-1.33405
  0
LINE
  8
0
 10
4.79565
 20
-1.33405
 11
4.91376
 21
-1.33405
  0
LINE
  8
0
 10
4.91376
 20
-1.33405
 11
4.91376
 21
-0.584045
  0
LINE
  8
0
 10
4.91376
 20
-0.584045
 11
4.79565
 21
-0.584045
  0
LINE
  8
0
 10
4.79565
 20
-0.584045
 11
4.79565
 21
0.584045
  0
LINE
  8
0
 10
4.79565
 20
0.584045
 11
4.91376
 21
0.584045
  0
LINE
  8
0
 10
4.91376
 20
0.584045
 11
4.91376
 21
1.33405
  0
LINE
  8
0
 10
4.91376
 20
1.33405
 11
4.79565
 21
1.33405
  0
LINE
  8
0
 10
4.79565
 20
1.33405
 11
4.79565
 21
1.91811
  0
LINE
  8
0
 10
4.79565
 20
1.91811
 11
4.32715
 21
1.91811
  0
LINE
  8
0
 10
4.32715
 20
1.91811
 11
4.32715
 21
1.79999
  0
LINE
  8
0
 10
4.32715
 20
1.79999
 11
3.82715
 21
1.79999
  0
LINE
  8
0
 10
3.82715
 20
1.79999
 11
3.82715
 21
1.91811
  0
LINE
  8
0
 10
3.82715
 20
1.91811
 11
3.35866
 21
1.91811
  0
LINE
  8
0
 10
3.35866
 20
1.91811
 11
3.35866
 21
1.33405
  0
LINE
  8
0
 10
3.35866
 20
1.33405
 11
3.24054
 21
1.33405
  0
LINE
  8
0
 10
3.24054
 20
1.33405
 11
3.24054
 21
0.584045
  0
LINE
  8
0
 10
3.24054
 20
0.584045
 11
3.35866
 21
0.584045
  0
LINE
  8
0
 10
3.35866
 20
0.584045
 11
3.35866
 21
-0.584045
  0
LINE
  8
0
 10
3.35866
 20
-0.584045
 11
3.24054
 21
-0.584045
  0
LINE
  8
0
 10
3.24054
 20
-0.584045
 11
3.24054
 21
-1.33405
  0
LINE
  8
0
 10
3.24054
 20
-1.33405
 11
3.35866
 21
-1.33405
  0
LINE
  8
0
 10
3.35866
 20
-1.33405
 11
3.35866
 21
-1.91811
  0
LINE
  8
0
 10
3.35866
 20
-1.91811
 11
3.82715
 21
-1.91811
  0
LINE
  8
0
 10
3.82715
 20
-1.91811
 11
3.82715
 21
-1.79999
  0
LINE
  8
0
 10
-4.32715
 20
-1.79999
 11
-3.82715
 21
-1.79999
  0
LINE
  8
0
 10
-3.82715
 20
-1.79999
 11
-3.82715
 21
-1.91811
  0
LINE
  8
0
 10
-3.82715
 20
-1.91811
 11
-3.35866
 21
-1.91811
  0
LINE
  8
0
 10
-3.35866
 20
-1.91811
 11
-3.35866
 21
-1.33405
  0
LINE
  8
0
 10
-3.35866
 20
-1.33405
 11
-3.24054
 21
-1.33405
  0
LINE
  8
0
 10
-3.24054
 20
-1.33405
 11
-3.24054
 21
-0.584045
  0
LINE
  8
0
 10
-3.24054
 20
-0.584045
 11
-3.35866
 21
-0.584045
  0
LINE
  8
0
 10
-3.35866
 20
-0.584045
 11
-3.35866
 21
0.584045
  0
LINE
  8
0
 10
-3.35866
 20
0.584045
 11
-3.24054
 21
0.584045
  0
LINE
  8
0
 10
-3.24054
 20
0.584045
 11
-3.24054
 21
1.33405
  0
LINE
  8
0
 10
-3.24054
 20
1.33405
 11
-3.35866
 21
1.33405
  0
LINE
  8
0
 10
-3.35866
 20
1.33405
 11
-3.35866
 21
1.91811
  0
LINE
  8
0
 10
-3.35866
 20
1.91811
 11
-3.82715
 21
1.91811
  0
LINE
  8
0
 10
-3.82715
 20
1.91811
 11
-3.82715
 21
1.79999
  0
LINE
  8
0
 10
-3.82715
 20
1.79999
 11
-4.32715
 21
1.79999
  0
LINE
  8
0
 10
-4.32715
 20
1.79999
 11
-4.32715
 21
1.91811
  0
LINE
  8
0
 10
-4.32715
 20
1.91811
 11
-4.79565
 21
1.91811
  0
LINE
  8
0
 10
-4.79565
 20
1.91811
 11
-4.79565
 21
1.33405
  0
LINE
  8
0
 10
-4.79565
 20
1.33405
 11
-4.91376
 21
1.33405
  0
LINE
  8
0
 10
-4.91376
 20
1.33405
 11
-4.91376
 21
0.584045
  0
LINE
  8
0
 10
-4.91376
 20
0.584045
 11
-4.79565
 21
0.584045
  0
LINE
  8
0
 10
-4.79565
 20
0.584045
 11
-4.79565
 21
-0.584045
  0
LINE
  8
0
 10
-4.79565
 20
-0.584045
 11
-4.91376
 21
-0.584045
  0
LINE
  8
0
 10
-4.91376
 20
-0.584045
 11
-4.91376
 21
-1.33405
  0
LINE
  8
0
 10
-4.91376
 20
-1.33405
 11
-4.79565
 21
-1.33405
  0
LINE
  8
0
 10
-4.79565
 20
-1.33405
 11
-4.79565
 21
-1.91811
  0
LINE
  8
0
 10
-4.79565
 20
-1.91811
 11
-4.32715
 21
-1.91811
  0
LINE
  8
0
 10
-4.32715
 20
-1.91811
 11
-4.32715
 21
-1.79999
  0
LINE
  8
0
 10
-1.155
 20
-4.04565
 11
-0.375
 21
-4.04565
  0
LINE
  8
0
 10
-0.375
 20
-4.04565
 11
-0.375
 21
-4.16376
  0
LINE
  8
0
 10
-0.375
 20
-4.16376
 11
0.375
 21
-4.16376
  0
LINE
  8
0
 10
0.375
 20
-4.16376
 11
0.375
 21
-4.04565
  0
LINE
  8
0
 10
0.375
 20
-4.04565
 11
1.155
 21
-4.04565
  0
LINE
  8
0
 10
1.155
 20
-4.04565
 11
1.155
 21
-4.16376
  0
LINE
  8
0
 10
1.155
 20
-4.16376
 11
1.905
 21
-4.16376
  0
LINE
  8
0
 10
1.905
 20
-4.16376
 11
1.905
 21
-4.04565
  0
LINE
  8
0
 10
1.905
 20
-4.04565
 11
2.54999
 21
-4.04565
  0
LINE
  8
0
 10
2.54999
 20
-4.04565
 11
2.54999
 21
-3.57715
  0
LINE
  8
0
 10
2.54999
 20
-3.57715
 11
2.66811
 21
-3.57715
  0
LINE
  8
0
 10
2.66811
 20
-3.57715
 11
2.66811
 21
-3.07715
  0
LINE
  8
0
 10
2.66811
 20
-3.07715
 11
2.54999
 21
-3.07715
  0
LINE
  8
0
 10
2.54999
 20
-3.07715
 11
2.54999
 21
-2.60866
  0
LINE
  8
0
 10
2.54999
 20
-2.60866
 11
1.905
 21
-2.60866
  0
LINE
  8
0
 10
1.905
 20
-2.60866
 11
1.905
 21
-2.49054
  0
LINE
  8
0
 10
1.905
 20
-2.49054
 11
1.155
 21
-2.49054
  0
LINE
  8
0
 10
1.155
 20
-2.49054
 11
1.155
 21
-2.60866
  0
LINE
  8
0
 10
1.155
 20
-2.60866
 11
0.375
 21
-2.60866
  0
LINE
  8
0
 10
0.375
 20
-2.60866
 11
0.375
 21
-2.49054
  0
LINE
  8
0
 10
0.375
 20
-2.49054
 11
-0.375
 21
-2.49054
  0
LINE
  8
0
 10
-0.375
 20
-2.49054
 11
-0.375
 21
-2.60866
  0
LINE
  8
0
 10
-0.375
 20
-2.60866
 11
-1.155
 21
-2.60866
  0
LINE
  8
0
 10
-1.155
 20
-2.60866
 11
-1.155
 21
-2.49054
  0
LINE
  8
0
 10
-1.155
 20
-2.49054
 11
-1.905
 21
-2.49054
  0
LINE
  8
0
 10
-1.905
 20
-2.49054
 11
-1.905
 21
-2.60866
  0
LINE
  8
0
 10
-1.905
 20
-2.60866
 11
-2.54999
 21
-2.60866
  0
LINE
  8
0
 10
-2.54999
 20
-2.60866
 11
-2.54999
 21
-3.07715
  0
LINE
  8
0
 10
-2.54999
 20
-3.07715
 11
-2.66811
 21
-3.07715
  0
LINE
  8
0
 10
-2.66811
 20
-3.07715
 11
-2.66811
 21
-3.57715
  0
LINE
  8
0
 10
-2.66811
 20
-3.57715
 11
-2.54999
 21
-3.57715
  0
LINE
  8
0
 10
-2.54999
 20
-3.57715
 11
-2.54999
 21
-4.04565
  0
LINE
  8
0
 10
-2.54999
 20
-4.04565
 11
-1.905
 21
-4.04565
  0
LINE
  8
0
 10
-1.905
 20
-4.04565
 11
-1.905
 21
-4.16376
  0
LINE
  8
0
 10
-1.905
 20
-4.16376
 11
-1.155
 21
-4.16376
  0
LINE
  8
0
 10
-1.155
 20
-4.16376
 11
-1.155
 21
-4.04565
  0
LINE
  8
0
 10
-2.67438
 20
-8.67223
 11
2.67438
 21
-8.67223
  0
LINE
  8
0
 10
2.67438
 20
-8.67223
 11
2.69901
 21
-8.66753
  0
LINE
  8
0
 10
2.69901
 20
-8.66753
 11
2.72168
 21
-8.65686
  0
LINE
  8
0
 10
2.72168
 20
-8.65686
 11
2.741
 21
-8.64088
  0
LINE
  8
0
 10
2.741
 20
-8.64088
 11
2.75574
 21
-8.62059
  0
LINE
  8
0
 10
2.75574
 20
-8.62059
 11
2.76495
 21
-8.59729
  0
LINE
  8
0
 10
2.76495
 20
-8.59729
 11
2.7681
 21
-8.57242
  0
LINE
  8
0
 10
2.7681
 20
-8.57242
 11
2.76732
 21
-4.72366
  0
LINE
  8
0
 10
2.76732
 20
-4.72366
 11
2.76108
 21
-4.69939
  0
LINE
  8
0
 10
2.76108
 20
-4.69939
 11
2.74901
 21
-4.67743
  0
LINE
  8
0
 10
2.74901
 20
-4.67743
 11
2.73184
 21
-4.65915
  0
LINE
  8
0
 10
2.73184
 20
-4.65915
 11
2.71068
 21
-4.64572
  0
LINE
  8
0
 10
2.71068
 20
-4.64572
 11
2.68684
 21
-4.63797
  0
LINE
  8
0
 10
2.68684
 20
-4.63797
 11
2.66811
 21
-4.6362
  0
LINE
  8
0
 10
2.66811
 20
-4.6362
 11
-2.67438
 21
-4.6364
  0
LINE
  8
0
 10
-2.67438
 20
-4.6364
 11
-2.69901
 21
-4.6411
  0
LINE
  8
0
 10
-2.69901
 20
-4.6411
 11
-2.72168
 21
-4.65176
  0
LINE
  8
0
 10
-2.72168
 20
-4.65176
 11
-2.741
 21
-4.66776
  0
LINE
  8
0
 10
-2.741
 20
-4.66776
 11
-2.75574
 21
-4.68803
  0
LINE
  8
0
 10
-2.75574
 20
-4.68803
 11
-2.76495
 21
-4.71133
  0
LINE
  8
0
 10
-2.76495
 20
-4.71133
 11
-2.7681
 21
-4.73621
  0
LINE
  8
0
 10
-2.7681
 20
-4.73621
 11
-2.76732
 21
-8.58496
  0
LINE
  8
0
 10
-2.76732
 20
-8.58496
 11
-2.76108
 21
-8.60924
  0
LINE
  8
0
 10
-2.76108
 20
-8.60924
 11
-2.74901
 21
-8.6312
  0
LINE
  8
0
 10
-2.74901
 20
-8.6312
 11
-2.73184
 21
-8.64948
  0
LINE
  8
0
 10
-2.73184
 20
-8.64948
 11
-2.71068
 21
-8.6629
  0
LINE
  8
0
 10
-2.71068
 20
-8.6629
 11
-2.68684
 21
-8.67065
  0
LINE
  8
0
 10
-2.68684
 20
-8.67065
 11
-2.67438
 21
-8.67223
  0
LINE
  8
0
 10
-0.375
 20
-4.85431
 11
-0.375
 21
-4.73619
  0
LINE
  8
0
 10
-0.375
 20
-4.73619
 11
0.375
 21
-4.73619
  0
LINE
  8
0
 10
0.375
 20
-4.73619
 11
0.375
 21
-4.85431
  0
LINE
  8
0
 10
0.375
 20
-4.85431
 11
-0.375
 21
-4.85431
  0
LINE
  8
0
 10
-1.905
 20
-4.85431
 11
-1.905
 21
-4.73619
  0
LINE
  8
0
 10
-1.905
 20
-4.73619
 11
-1.155
 21
-4.73619
  0
LINE
  8
0
 10
-1.155
 20
-4.73619
 11
-1.155
 21
-4.85431
  0
LINE
  8
0
 10
-1.155
 20
-4.85431
 11
-1.905
 21
-4.85431
  0
LINE
  8
0
 10
1.155
 20
-4.85431
 11
1.155
 21
-4.73619
  0
LINE
  8
0
 10
1.155
 20
-4.73619
 11
1.905
 21
-4.73619
  0
LINE
  8
0
 10
1.905
 20
-4.73619
 11
1.905
 21
-4.85431
  0
LINE
  8
0
 10
1.905
 20
-4.85431
 11
1.155
 21
-4.85431
  0
LINE
  8
0
 10
-2.36412
 20
-5.08629
 11
-2.38586
 21
-5.08629
  0
LINE
  8
0
 10
-2.38586
 20
-5.08629
 11
-2.40607
 21
-5.07828
  0
LINE
  8
0
 10
-2.40607
 20
-5.07828
 11
-2.42192
 21
-5.0634
  0
LINE
  8
0
 10
-2.42192
 20
-5.0634
 11
-2.43117
 21
-5.04373
  0
LINE
  8
0
 10
-2.43117
 20
-5.04373
 11
-2.43254
 21
-5.02205
  0
LINE
  8
0
 10
-2.43254
 20
-5.02205
 11
-2.42581
 21
-5.00137
  0
LINE
  8
0
 10
-2.42581
 20
-5.00137
 11
-2.41196
 21
-4.98462
  0
LINE
  8
0
 10
-2.41196
 20
-4.98462
 11
-2.39291
 21
-4.97415
  0
LINE
  8
0
 10
-2.39291
 20
-4.97415
 11
-2.37135
 21
-4.97142
  0
LINE
  8
0
 10
-2.37135
 20
-4.97142
 11
-2.3503
 21
-4.97684
  0
LINE
  8
0
 10
-2.3503
 20
-4.97684
 11
-2.33272
 21
-4.98961
  0
LINE
  8
0
 10
-2.33272
 20
-4.98961
 11
-2.32106
 21
-5.00797
  0
LINE
  8
0
 10
-2.32106
 20
-5.00797
 11
-2.31699
 21
-5.02931
  0
LINE
  8
0
 10
-2.31699
 20
-5.02931
 11
-2.32106
 21
-5.05066
  0
LINE
  8
0
 10
-2.32106
 20
-5.05066
 11
-2.33272
 21
-5.06902
  0
LINE
  8
0
 10
-2.33272
 20
-5.06902
 11
-2.3503
 21
-5.08179
  0
LINE
  8
0
 10
-2.3503
 20
-5.08179
 11
-2.36412
 21
-5.08629
  0
LINE
  8
0
 10
2.38586
 20
-5.08629
 11
2.36412
 21
-5.08629
  0
LINE
  8
0
 10
2.36412
 20
-5.08629
 11
2.34392
 21
-5.07828
  0
LINE
  8
0
 10
2.34392
 20
-5.07828
 11
2.32806
 21
-5.0634
  0
LINE
  8
0
 10
2.32806
 20
-5.0634
 11
2.31882
 21
-5.04373
  0
LINE
  8
0
 10
2.31882
 20
-5.04373
 11
2.31744
 21
-5.02205
  0
LINE
  8
0
 10
2.31744
 20
-5.02205
 11
2.32417
 21
-5.00137
  0
LINE
  8
0
 10
2.32417
 20
-5.00137
 11
2.33803
 21
-4.98462
  0
LINE
  8
0
 10
2.33803
 20
-4.98462
 11
2.35707
 21
-4.97415
  0
LINE
  8
0
 10
2.35707
 20
-4.97415
 11
2.37863
 21
-4.97142
  0
LINE
  8
0
 10
2.37863
 20
-4.97142
 11
2.39969
 21
-4.97684
  0
LINE
  8
0
 10
2.39969
 20
-4.97684
 11
2.41727
 21
-4.98961
  0
LINE
  8
0
 10
2.41727
 20
-4.98961
 11
2.42892
 21
-5.00797
  0
LINE
  8
0
 10
2.42892
 20
-5.00797
 11
2.433
 21
-5.02931
  0
LINE
  8
0
 10
2.433
 20
-5.02931
 11
2.42892
 21
-5.05066
  0
LINE
  8
0
 10
2.42892
 20
-5.05066
 11
2.41727
 21
-5.06902
  0
LINE
  8
0
 10
2.41727
 20
-5.06902
 11
2.39969
 21
-5.08179
  0
LINE
  8
0
 10
2.39969
 20
-5.08179
 11
2.38586
 21
-5.08629
  0
LINE
  8
0
 10
-2.66811
 20
-6.07025
 11
-2.66811
 21
-5.32025
  0
LINE
  8
0
 10
-2.66811
 20
-5.32025
 11
-2.55
 21
-5.32025
  0
LINE
  8
0
 10
-2.55
 20
-5.32025
 11
-2.55
 21
-6.07025
  0
LINE
  8
0
 10
-2.55
 20
-6.07025
 11
-2.66811
 21
-6.07025
  0
LINE
  8
0
 10
2.55
 20
-6.07025
 11
2.55
 21
-5.32025
  0
LINE
  8
0
 10
2.55
 20
-5.32025
 11
2.66811
 21
-5.32025
  0
LINE
  8
0
 10
2.66811
 20
-5.32025
 11
2.66811
 21
-6.07025
  0
LINE
  8
0
 10
2.66811
 20
-6.07025
 11
2.55
 21
-6.07025
  0
LINE
  8
0
 10
2.55
 20
-7.98837
 11
2.55
 21
-7.23837
  0
LINE
  8
0
 10
2.55
 20
-7.23837
 11
2.66811
 21
-7.23837
  0
LINE
  8
0
 10
2.66811
 20
-7.23837
 11
2.66811
 21
-7.98837
  0
LINE
  8
0
 10
2.66811
 20
-7.98837
 11
2.55
 21
-7.98837
  0
LINE
  8
0
 10
-2.66811
 20
-7.98837
 11
-2.66811
 21
-7.23837
  0
LINE
  8
0
 10
-2.66811
 20
-7.23837
 11
-2.55
 21
-7.23837
  0
LINE
  8
0
 10
-2.55
 20
-7.23837
 11
-2.55
 21
-7.98837
  0
LINE
  8
0
 10
-2.55
 20
-7.98837
 11
-2.66811
 21
-7.98837
  0
LINE
  8
0
 10
-2.36412
 20
-8.33629
 11
-2.38586
 21
-8.33629
  0
LINE
  8
0
 10
-2.38586
 20
-8.33629
 11
-2.40607
 21
-8.32828
  0
LINE
  8
0
 10
-2.40607
 20
-8.32828
 11
-2.42192
 21
-8.3134
  0
LINE
  8
0
 10
-2.42192
 20
-8.3134
 11
-2.43117
 21
-8.29373
  0
LINE
  8
0
 10
-2.43117
 20
-8.29373
 11
-2.43254
 21
-8.27205
  0
LINE
  8
0
 10
-2.43254
 20
-8.27205
 11
-2.42581
 21
-8.25137
  0
LINE
  8
0
 10
-2.42581
 20
-8.25137
 11
-2.41196
 21
-8.23462
  0
LINE
  8
0
 10
-2.41196
 20
-8.23462
 11
-2.39291
 21
-8.22415
  0
LINE
  8
0
 10
-2.39291
 20
-8.22415
 11
-2.37135
 21
-8.22142
  0
LINE
  8
0
 10
-2.37135
 20
-8.22142
 11
-2.3503
 21
-8.22684
  0
LINE
  8
0
 10
-2.3503
 20
-8.22684
 11
-2.33272
 21
-8.23961
  0
LINE
  8
0
 10
-2.33272
 20
-8.23961
 11
-2.32106
 21
-8.25797
  0
LINE
  8
0
 10
-2.32106
 20
-8.25797
 11
-2.31699
 21
-8.27931
  0
LINE
  8
0
 10
-2.31699
 20
-8.27931
 11
-2.32106
 21
-8.30066
  0
LINE
  8
0
 10
-2.32106
 20
-8.30066
 11
-2.33272
 21
-8.31902
  0
LINE
  8
0
 10
-2.33272
 20
-8.31902
 11
-2.3503
 21
-8.33179
  0
LINE
  8
0
 10
-2.3503
 20
-8.33179
 11
-2.36412
 21
-8.33629
  0
LINE
  8
0
 10
2.38586
 20
-8.33629
 11
2.36412
 21
-8.33629
  0
LINE
  8
0
 10
2.36412
 20
-8.33629
 11
2.34392
 21
-8.32828
  0
LINE
  8
0
 10
2.34392
 20
-8.32828
 11
2.32806
 21
-8.3134
  0
LINE
  8
0
 10
2.32806
 20
-8.3134
 11
2.31882
 21
-8.29373
  0
LINE
  8
0
 10
2.31882
 20
-8.29373
 11
2.31744
 21
-8.27205
  0
LINE
  8
0
 10
2.31744
 20
-8.27205
 11
2.32417
 21
-8.25137
  0
LINE
  8
0
 10
2.32417
 20
-8.25137
 11
2.33803
 21
-8.23462
  0
LINE
  8
0
 10
2.33803
 20
-8.23462
 11
2.35707
 21
-8.22415
  0
LINE
  8
0
 10
2.35707
 20
-8.22415
 11
2.37863
 21
-8.22142
  0
LINE
  8
0
 10
2.37863
 20
-8.22142
 11
2.39969
 21
-8.22684
  0
LINE
  8
0
 10
2.39969
 20
-8.22684
 11
2.41727
 21
-8.23961
  0
LINE
  8
0
 10
2.41727
 20
-8.23961
 11
2.42892
 21
-8.25797
  0
LINE
  8
0
 10
2.42892
 20
-8.25797
 11
2.433
 21
-8.27931
  0
LINE
  8
0
 10
2.433
 20
-8.27931
 11
2.42892
 21
-8.30066
  0
LINE
  8
0
 10
2.42892
 20
-8.30066
 11
2.41727
 21
-8.31902
  0
LINE
  8
0
 10
2.41727
 20
-8.31902
 11
2.39969
 21
-8.33179
  0
LINE
  8
0
 10
2.39969
 20
-8.33179
 11
2.38586
 21
-8.33629
  0
LINE
  8
0
 10
-1.905
 20
-8.57243
 11
-1.905
 21
-8.45432
  0
LINE
  8
0
 10
-1.905
 20
-8.45432
 11
-1.155
 21
-8.45432
  0
LINE
  8
0
 10
-1.155
 20
-8.45432
 11
-1.155
 21
-8.57243
  0
LINE
  8
0
 10
-1.155
 20
-8.57243
 11
-1.905
 21
-8.57243
  0
LINE
  8
0
 10
1.155
 20
-8.57243
 11
1.155
 21
-8.45432
  0
LINE
  8
0
 10
1.155
 20
-8.45432
 11
1.905
 21
-8.45432
  0
LINE
  8
0
 10
1.905
 20
-8.45432
 11
1.905
 21
-8.57243
  0
LINE
  8
0
 10
1.905
 20
-8.57243
 11
1.155
 21
-8.57243
  0
LINE
  8
0
 10
-0.375
 20
-8.57243
 11
-0.375
 21
-8.45432
  0
LINE
  8
0
 10
-0.375
 20
-8.45432
 11
0.375
 21
-8.45432
  0
LINE
  8
0
 10
0.375
 20
-8.45432
 11
0.375
 21
-8.57243
  0
LINE
  8
0
 10
0.375
 20
-8.57243
 11
-0.375
 21
-8.57243
  0
ENDSEC
  0
SECTION
  2
OBJECTS
  0
DICTIONARY
  0
ENDSEC
  0
EOF
