M48
;DRILL file {Pcbnew (2013-jul-07)-stable} date Tue 03 Jan 2017 02:31:44 PM PST
;FORMAT={-:-/ absolute / inch / decimal}
FMAT,2
INCH,TZ
T1C0.025
T2C0.040
T3C0.047
T4C0.116
%
G90
G05
M72
T1
X2.5615Y-4.3514
X2.9735Y-4.3318
X3.1827Y-4.8327
X3.4496Y-3.8707
X3.7133Y-2.5758
X3.7171Y-2.6355
X3.8945Y-2.9078
X3.9048Y-3.8906
X3.933Y-3.7901
X4.1595Y-2.6657
X4.1675Y-2.7702
X4.2025Y-2.6799
X4.5435Y-2.7326
X4.6117Y-2.9841
X4.7237Y-3.1958
X4.7669Y-4.4847
X5.2081Y-3.4239
X5.2216Y-4.385
X5.2454Y-4.5669
X5.2583Y-3.7696
X5.322Y-3.423
X5.3722Y-3.6126
X5.3893Y-4.377
X5.4054Y-3.9072
X5.4249Y-4.195
X5.4382Y-2.7396
X5.5215Y-4.5977
X5.5544Y-3.8341
X5.6643Y-3.8163
X5.9237Y-4.3799
X5.9547Y-4.4415
X6.3446Y-3.6086
T2
X2.07Y-3.12
X2.07Y-3.72
X2.1Y-2.825
X2.1Y-4.03
X2.17Y-3.12
X2.17Y-3.22
X2.17Y-3.72
X2.2Y-2.825
X2.2Y-4.03
X2.27Y-3.12
X2.27Y-3.72
X2.37Y-3.12
X2.37Y-3.22
X2.37Y-3.72
X2.47Y-3.12
X2.47Y-3.22
X2.47Y-3.72
X2.52Y-2.13
X2.57Y-3.12
X2.57Y-3.22
X2.57Y-3.72
X2.62Y-2.13
X2.63Y-5.2
X2.63Y-5.3
X2.67Y-3.12
X2.67Y-3.32
X2.67Y-3.42
X2.67Y-3.72
X2.73Y-5.2
X2.73Y-5.3
X2.77Y-3.12
X2.77Y-3.32
X2.77Y-3.42
X2.77Y-3.72
X2.82Y-2.13
X2.83Y-5.2
X2.83Y-5.3
X2.87Y-3.12
X2.87Y-3.32
X2.87Y-3.42
X2.87Y-3.72
X2.92Y-2.13
X2.93Y-5.2
X2.93Y-5.3
X2.97Y-3.12
X2.97Y-3.32
X2.97Y-3.42
X2.97Y-3.72
X3.02Y-2.13
X3.03Y-5.2
X3.03Y-5.3
X3.07Y-3.12
X3.07Y-3.32
X3.07Y-3.42
X3.07Y-3.72
X3.17Y-3.12
X3.17Y-3.32
X3.17Y-3.42
X3.17Y-3.72
X3.27Y-3.12
X3.27Y-3.32
X3.27Y-3.42
X3.27Y-3.72
X3.37Y-3.12
X3.37Y-3.22
X3.37Y-3.32
X3.37Y-3.42
X3.37Y-3.52
X3.37Y-3.62
X3.37Y-3.72
X3.4Y-2.1
X3.4Y-2.2
X3.65Y-5.2
X3.65Y-5.3
X3.75Y-2.1
X3.75Y-2.2
X3.75Y-5.2
X3.75Y-5.3
X3.85Y-5.2
X3.85Y-5.3
X3.95Y-5.2
X3.95Y-5.3
X4.05Y-5.2
X4.05Y-5.3
X4.11Y-2.1
X4.11Y-2.2
X4.56Y-5.3
X4.56Y-5.4
X4.6Y-2.1
X4.6Y-2.2
X4.66Y-5.3
X4.66Y-5.4
X4.98Y-2.1
X4.98Y-2.2
X5.01Y-5.3
X5.01Y-5.4
X5.11Y-5.3
X5.11Y-5.4
X5.33Y-2.1
X5.33Y-2.2
X5.54Y-5.29
X5.54Y-5.39
X5.76Y-2.1
X5.76Y-2.2
X5.98Y-5.29
X5.98Y-5.39
X6.19Y-2.11
X6.19Y-2.21
X6.42Y-5.29
X6.42Y-5.39
X6.51Y-2.1
X6.51Y-2.2
X6.91Y-4.53
X6.91Y-4.63
X6.91Y-4.73
T3
X7.45Y-2.7311
X7.45Y-2.8689
X7.45Y-3.1811
X7.45Y-3.3189
X7.45Y-3.6311
X7.45Y-3.7689
T4
X2.15Y-2.15
X2.15Y-5.35
X6.85Y-2.15
X6.85Y-5.35
T0
M30
