G04 (created by PCBNEW (2013-jul-07)-stable) date Tue 03 Jan 2017 02:31:41 PM PST*
%MOIN*%
G04 Gerber Fmt 3.4, Leading zero omitted, Abs format*
%FSLAX34Y34*%
G01*
G70*
G90*
G04 APERTURE LIST*
%ADD10C,0.00590551*%
%ADD11C,0.06*%
%ADD12R,0.02X0.03*%
%ADD13R,0.0315X0.0394*%
%ADD14R,0.055X0.035*%
%ADD15R,0.035X0.055*%
%ADD16R,0.06X0.06*%
%ADD17R,0.0394X0.0106*%
%ADD18R,0.0779528X0.0208661*%
%ADD19R,0.023622X0.0610236*%
%ADD20R,0.0610236X0.023622*%
%ADD21R,0.07X0.07*%
%ADD22C,0.07*%
%ADD23R,0.0106X0.0394*%
%ADD24C,0.15*%
%ADD25R,0.073X0.073*%
%ADD26C,0.073*%
%ADD27C,0.065*%
G04 APERTURE END LIST*
G54D10*
G54D11*
X20700Y-37200D03*
X21700Y-37200D03*
X22700Y-37200D03*
X23700Y-37200D03*
X24700Y-37200D03*
X25700Y-37200D03*
X26700Y-37200D03*
X27700Y-37200D03*
X28700Y-37200D03*
X29700Y-37200D03*
X30700Y-37200D03*
X31700Y-37200D03*
X32700Y-37200D03*
X33700Y-37200D03*
X33700Y-36200D03*
X33700Y-35200D03*
X33700Y-34200D03*
X33700Y-33200D03*
X33700Y-32200D03*
X33700Y-31200D03*
X32700Y-31200D03*
X31700Y-31200D03*
X30700Y-31200D03*
X29700Y-31200D03*
X28700Y-31200D03*
X27700Y-31200D03*
X26700Y-31200D03*
X25700Y-31200D03*
X24700Y-31200D03*
X23700Y-31200D03*
X22700Y-31200D03*
X21700Y-31200D03*
X20700Y-31200D03*
X26700Y-34200D03*
X27700Y-34200D03*
X28700Y-34200D03*
X29700Y-34200D03*
X30700Y-34200D03*
X31700Y-34200D03*
X32700Y-34200D03*
X32700Y-33200D03*
X31700Y-33200D03*
X30700Y-33200D03*
X29700Y-33200D03*
X28700Y-33200D03*
X27700Y-33200D03*
X26700Y-33200D03*
X25700Y-32200D03*
X24700Y-32200D03*
X23700Y-32200D03*
X21700Y-32200D03*
G54D12*
X28491Y-26698D03*
X29241Y-26698D03*
X28491Y-25698D03*
X28866Y-26698D03*
X29241Y-25698D03*
G54D13*
X39777Y-34474D03*
X40152Y-35340D03*
X39402Y-35340D03*
X64250Y-36683D03*
X63875Y-35817D03*
X64625Y-35817D03*
G54D14*
X38954Y-40873D03*
X38954Y-41623D03*
G54D15*
X43266Y-40704D03*
X44016Y-40704D03*
X60875Y-41500D03*
X61625Y-41500D03*
X61652Y-46074D03*
X60902Y-46074D03*
X60875Y-40250D03*
X61625Y-40250D03*
X61652Y-47492D03*
X60902Y-47492D03*
G54D14*
X36553Y-41623D03*
X36553Y-40873D03*
G54D15*
X43266Y-41925D03*
X44016Y-41925D03*
G54D14*
X35135Y-41623D03*
X35135Y-40873D03*
X40450Y-40873D03*
X40450Y-41623D03*
G54D15*
X57335Y-39271D03*
X56585Y-39271D03*
G54D14*
X56750Y-33875D03*
X56750Y-33125D03*
G54D15*
X54032Y-48309D03*
X53282Y-48309D03*
G54D14*
X53500Y-42699D03*
X53500Y-41949D03*
G54D15*
X62375Y-43250D03*
X63125Y-43250D03*
G54D14*
X64250Y-38625D03*
X64250Y-39375D03*
G54D15*
X51640Y-32472D03*
X50890Y-32472D03*
X51680Y-35464D03*
X50930Y-35464D03*
X48252Y-32433D03*
X49002Y-32433D03*
X51640Y-34047D03*
X50890Y-34047D03*
G54D14*
X45124Y-35128D03*
X45124Y-35878D03*
G54D15*
X41412Y-32742D03*
X40662Y-32742D03*
X38380Y-32702D03*
X37630Y-32702D03*
X49473Y-37551D03*
X50223Y-37551D03*
G54D14*
X46226Y-33083D03*
X46226Y-32333D03*
G54D15*
X53884Y-32472D03*
X53134Y-32472D03*
G54D14*
X24000Y-43225D03*
X24000Y-43975D03*
G54D15*
X24125Y-24000D03*
X24875Y-24000D03*
G54D14*
X30875Y-45999D03*
X30875Y-46749D03*
X29625Y-45999D03*
X29625Y-46749D03*
X59000Y-24875D03*
X59000Y-24125D03*
G54D15*
X61125Y-29000D03*
X61875Y-29000D03*
X61875Y-34000D03*
X61125Y-34000D03*
X61125Y-30250D03*
X61875Y-30250D03*
X61875Y-32750D03*
X61125Y-32750D03*
G54D14*
X37750Y-29125D03*
X37750Y-28375D03*
G54D15*
X39875Y-29250D03*
X40625Y-29250D03*
G54D14*
X48000Y-24875D03*
X48000Y-24125D03*
G54D15*
X45875Y-28000D03*
X46625Y-28000D03*
G54D14*
X49500Y-24875D03*
X49500Y-24125D03*
G54D15*
X45875Y-29250D03*
X46625Y-29250D03*
G54D14*
X36500Y-29125D03*
X36500Y-28375D03*
G54D15*
X50875Y-26500D03*
X51625Y-26500D03*
G54D14*
X53750Y-26625D03*
X53750Y-27375D03*
X52000Y-29125D03*
X52000Y-29875D03*
X57750Y-24875D03*
X57750Y-24125D03*
X53250Y-29125D03*
X53250Y-29875D03*
G54D15*
X46477Y-46320D03*
X47227Y-46320D03*
X46477Y-44785D03*
X47227Y-44785D03*
X43227Y-46198D03*
X43977Y-46198D03*
X39875Y-28000D03*
X40625Y-28000D03*
X26125Y-25750D03*
X26875Y-25750D03*
G54D14*
X31000Y-26375D03*
X31000Y-25625D03*
G54D15*
X28625Y-28250D03*
X29375Y-28250D03*
X46477Y-40789D03*
X47227Y-40789D03*
X43227Y-44702D03*
X43977Y-44702D03*
X46477Y-42049D03*
X47227Y-42049D03*
G54D16*
X69100Y-45300D03*
G54D11*
X69100Y-46300D03*
X69100Y-47300D03*
G54D16*
X50100Y-54000D03*
G54D11*
X50100Y-53000D03*
X51100Y-54000D03*
X51100Y-53000D03*
G54D16*
X45600Y-54000D03*
G54D11*
X45600Y-53000D03*
X46600Y-54000D03*
X46600Y-53000D03*
G54D16*
X46000Y-21000D03*
G54D11*
X46000Y-22000D03*
G54D16*
X41100Y-22000D03*
G54D11*
X41100Y-21000D03*
G54D16*
X22000Y-40300D03*
G54D11*
X21000Y-40300D03*
G54D16*
X49800Y-21000D03*
G54D11*
X49800Y-22000D03*
G54D16*
X21000Y-28250D03*
G54D11*
X22000Y-28250D03*
G54D16*
X53300Y-21000D03*
G54D11*
X53300Y-22000D03*
G54D16*
X57600Y-21000D03*
G54D11*
X57600Y-22000D03*
G54D16*
X55400Y-52900D03*
G54D11*
X55400Y-53900D03*
G54D16*
X61900Y-21100D03*
G54D11*
X61900Y-22100D03*
G54D16*
X64200Y-52900D03*
G54D11*
X64200Y-53900D03*
G54D16*
X59800Y-52900D03*
G54D11*
X59800Y-53900D03*
G54D16*
X65100Y-21000D03*
G54D11*
X65100Y-22000D03*
G54D16*
X37500Y-21000D03*
G54D11*
X37500Y-22000D03*
G54D16*
X34000Y-21000D03*
G54D11*
X34000Y-22000D03*
G54D17*
X44625Y-25600D03*
X44625Y-25800D03*
X44625Y-26000D03*
X44625Y-26200D03*
X44625Y-26400D03*
X46375Y-26400D03*
X46375Y-26200D03*
X46375Y-26000D03*
X46375Y-25800D03*
X46375Y-25600D03*
X37625Y-25600D03*
X37625Y-25800D03*
X37625Y-26000D03*
X37625Y-26200D03*
X37625Y-26400D03*
X39375Y-26400D03*
X39375Y-26200D03*
X39375Y-26000D03*
X39375Y-25800D03*
X39375Y-25600D03*
G54D18*
X26279Y-42500D03*
X26279Y-43000D03*
X26279Y-43500D03*
X26279Y-44000D03*
X28220Y-44000D03*
X28220Y-43500D03*
X28220Y-43000D03*
X28220Y-42500D03*
G54D19*
X37062Y-45933D03*
X37562Y-45933D03*
X38062Y-45933D03*
X38562Y-45933D03*
X38562Y-43807D03*
X38062Y-43807D03*
X37562Y-43807D03*
X37062Y-43807D03*
G54D20*
X55948Y-27000D03*
X55948Y-27500D03*
X55948Y-28000D03*
X55948Y-28500D03*
X58074Y-28500D03*
X58074Y-28000D03*
X58074Y-27500D03*
X58074Y-27000D03*
X66312Y-33000D03*
X66312Y-32500D03*
X66312Y-32000D03*
X66312Y-31500D03*
X64187Y-31500D03*
X64187Y-32000D03*
X64187Y-32500D03*
X64187Y-33000D03*
G54D19*
X48551Y-34519D03*
X48051Y-34519D03*
X47551Y-34519D03*
X47051Y-34519D03*
X47051Y-36645D03*
X47551Y-36645D03*
X48051Y-36645D03*
X48551Y-36645D03*
G54D21*
X30300Y-52000D03*
G54D22*
X30300Y-53000D03*
X29300Y-52000D03*
X29300Y-53000D03*
X28300Y-52000D03*
X28300Y-53000D03*
X27300Y-52000D03*
X27300Y-53000D03*
X26300Y-52000D03*
X26300Y-53000D03*
G54D21*
X40500Y-52000D03*
G54D22*
X40500Y-53000D03*
X39500Y-52000D03*
X39500Y-53000D03*
X38500Y-52000D03*
X38500Y-53000D03*
X37500Y-52000D03*
X37500Y-53000D03*
X36500Y-52000D03*
X36500Y-53000D03*
G54D19*
X51907Y-46537D03*
X52407Y-46537D03*
X52907Y-46537D03*
X53407Y-46537D03*
X53407Y-44411D03*
X52907Y-44411D03*
X52407Y-44411D03*
X51907Y-44411D03*
X53907Y-46537D03*
X54407Y-46537D03*
X54907Y-46537D03*
X55407Y-46537D03*
X54407Y-44411D03*
X54907Y-44411D03*
X55407Y-44411D03*
X53907Y-44411D03*
X55171Y-37500D03*
X55671Y-37500D03*
X56171Y-37500D03*
X56671Y-37500D03*
X56671Y-35374D03*
X56171Y-35374D03*
X55671Y-35374D03*
X55171Y-35374D03*
X57171Y-37500D03*
X57671Y-37500D03*
X58171Y-37500D03*
X58671Y-37500D03*
X57671Y-35374D03*
X58171Y-35374D03*
X58671Y-35374D03*
X57171Y-35374D03*
G54D23*
X59350Y-44875D03*
X59550Y-44875D03*
X59750Y-44875D03*
X59950Y-44875D03*
X60150Y-44875D03*
X60150Y-43125D03*
X59950Y-43125D03*
X59750Y-43125D03*
X59550Y-43125D03*
X59350Y-43125D03*
G54D24*
X68500Y-53500D03*
X21500Y-53500D03*
X21500Y-21500D03*
X68500Y-21500D03*
G54D14*
X53750Y-25125D03*
X53750Y-24375D03*
G54D25*
X74500Y-27311D03*
G54D26*
X74500Y-28689D03*
G54D25*
X74500Y-31811D03*
G54D26*
X74500Y-33189D03*
G54D25*
X74500Y-36311D03*
G54D26*
X74500Y-37689D03*
G54D27*
X25200Y-21300D03*
X26200Y-21300D03*
X28200Y-21300D03*
X29200Y-21300D03*
X30200Y-21300D03*
M02*
