G04 (created by PCBNEW (2013-jul-07)-stable) date Thu 22 Dec 2016 08:04:52 PM PST*
%MOIN*%
G04 Gerber Fmt 3.4, Leading zero omitted, Abs format*
%FSLAX34Y34*%
G01*
G70*
G90*
G04 APERTURE LIST*
%ADD10C,0.00590551*%
%ADD11C,0.06*%
%ADD12R,0.06X0.06*%
%ADD13C,0.065*%
%ADD14R,0.063X0.063*%
%ADD15C,0.063*%
%ADD16R,0.07X0.07*%
%ADD17C,0.07*%
%ADD18C,0.15*%
%ADD19C,0.035*%
%ADD20C,0.01*%
%ADD21C,0.02*%
G04 APERTURE END LIST*
G54D10*
G54D11*
X20700Y-37200D03*
X21700Y-37200D03*
X22700Y-37200D03*
X23700Y-37200D03*
X24700Y-37200D03*
X25700Y-37200D03*
X26700Y-37200D03*
X27700Y-37200D03*
X28700Y-37200D03*
X29700Y-37200D03*
X30700Y-37200D03*
X31700Y-37200D03*
X32700Y-37200D03*
X33700Y-37200D03*
X33700Y-36200D03*
X33700Y-35200D03*
X33700Y-34200D03*
X33700Y-33200D03*
X33700Y-32200D03*
X33700Y-31200D03*
X32700Y-31200D03*
X31700Y-31200D03*
X30700Y-31200D03*
X29700Y-31200D03*
X28700Y-31200D03*
X27700Y-31200D03*
X26700Y-31200D03*
X25700Y-31200D03*
X24700Y-31200D03*
X23700Y-31200D03*
X22700Y-31200D03*
X21700Y-31200D03*
X20700Y-31200D03*
X26700Y-34200D03*
X27700Y-34200D03*
X28700Y-34200D03*
X29700Y-34200D03*
X30700Y-34200D03*
X31700Y-34200D03*
X32700Y-34200D03*
X32700Y-33200D03*
X31700Y-33200D03*
X30700Y-33200D03*
X29700Y-33200D03*
X28700Y-33200D03*
X27700Y-33200D03*
X26700Y-33200D03*
X25700Y-32200D03*
X24700Y-32200D03*
X23700Y-32200D03*
X21700Y-32200D03*
G54D12*
X69100Y-45300D03*
G54D11*
X69100Y-46300D03*
X69100Y-47300D03*
G54D12*
X50100Y-54000D03*
G54D11*
X50100Y-53000D03*
X51100Y-54000D03*
X51100Y-53000D03*
G54D12*
X45600Y-54000D03*
G54D11*
X45600Y-53000D03*
X46600Y-54000D03*
X46600Y-53000D03*
G54D12*
X46000Y-21000D03*
G54D11*
X46000Y-22000D03*
G54D12*
X41100Y-22000D03*
G54D11*
X41100Y-21000D03*
G54D12*
X22000Y-40300D03*
G54D11*
X21000Y-40300D03*
G54D12*
X49800Y-21000D03*
G54D11*
X49800Y-22000D03*
G54D12*
X21000Y-28250D03*
G54D11*
X22000Y-28250D03*
G54D12*
X53300Y-21000D03*
G54D11*
X53300Y-22000D03*
G54D12*
X57600Y-21000D03*
G54D11*
X57600Y-22000D03*
G54D12*
X55400Y-52900D03*
G54D11*
X55400Y-53900D03*
G54D12*
X61900Y-21100D03*
G54D11*
X61900Y-22100D03*
G54D12*
X64200Y-52900D03*
G54D11*
X64200Y-53900D03*
G54D12*
X59800Y-52900D03*
G54D11*
X59800Y-53900D03*
G54D12*
X65100Y-21000D03*
G54D11*
X65100Y-22000D03*
G54D12*
X37500Y-21000D03*
G54D11*
X37500Y-22000D03*
G54D12*
X34000Y-21000D03*
G54D11*
X34000Y-22000D03*
G54D13*
X25200Y-21300D03*
X26200Y-21300D03*
X27200Y-21300D03*
X28200Y-21300D03*
X29200Y-21300D03*
X30200Y-21300D03*
G54D14*
X74500Y-27311D03*
G54D15*
X74500Y-28689D03*
G54D14*
X74500Y-31811D03*
G54D15*
X74500Y-33189D03*
G54D14*
X74500Y-36311D03*
G54D15*
X74500Y-37689D03*
G54D16*
X30300Y-52000D03*
G54D17*
X30300Y-53000D03*
X29300Y-52000D03*
X29300Y-53000D03*
X28300Y-52000D03*
X28300Y-53000D03*
X27300Y-52000D03*
X27300Y-53000D03*
X26300Y-52000D03*
X26300Y-53000D03*
G54D16*
X40500Y-52000D03*
G54D17*
X40500Y-53000D03*
X39500Y-52000D03*
X39500Y-53000D03*
X38500Y-52000D03*
X38500Y-53000D03*
X37500Y-52000D03*
X37500Y-53000D03*
X36500Y-52000D03*
X36500Y-53000D03*
G54D18*
X68500Y-53500D03*
X21500Y-53500D03*
X21500Y-21500D03*
X68500Y-21500D03*
G54D19*
X38944Y-29077D03*
X39047Y-38906D03*
X56642Y-38163D03*
X59547Y-44415D03*
X47237Y-31958D03*
X37171Y-26355D03*
X45435Y-27325D03*
X63446Y-36086D03*
X54248Y-41949D03*
X54053Y-39071D03*
X52583Y-37695D03*
X31827Y-48327D03*
X42024Y-26798D03*
X41674Y-27702D03*
X37133Y-25758D03*
X41594Y-26656D03*
X59236Y-43799D03*
X52081Y-34238D03*
X54381Y-27396D03*
X53220Y-34229D03*
X46117Y-29841D03*
X25615Y-43514D03*
X29734Y-43318D03*
X47668Y-44846D03*
X39330Y-37901D03*
X53893Y-43770D03*
X55215Y-45976D03*
X34495Y-38706D03*
X53721Y-36125D03*
X52215Y-43849D03*
X55543Y-38341D03*
X52454Y-45668D03*
G54D20*
X37500Y-22000D02*
X37500Y-21000D01*
X37500Y-21000D02*
X37069Y-21000D01*
X30930Y-20569D02*
X30200Y-21300D01*
X36639Y-20569D02*
X30930Y-20569D01*
X37069Y-21000D02*
X36639Y-20569D01*
X38944Y-38803D02*
X38944Y-29077D01*
X39047Y-38906D02*
X38944Y-38803D01*
X34000Y-21000D02*
X34000Y-22000D01*
X59421Y-44415D02*
X59547Y-44415D01*
X56642Y-41636D02*
X59421Y-44415D01*
X56642Y-38163D02*
X56642Y-41636D01*
X34000Y-23143D02*
X37191Y-26335D01*
X34000Y-22000D02*
X34000Y-23143D01*
X37191Y-26335D02*
X37171Y-26355D01*
X44597Y-29318D02*
X44597Y-28163D01*
X47237Y-31958D02*
X44597Y-29318D01*
X44597Y-28163D02*
X45435Y-27325D01*
X37191Y-26335D02*
X37191Y-26335D01*
X41785Y-26335D02*
X37191Y-26335D01*
X41798Y-26348D02*
X41785Y-26335D01*
X42009Y-26348D02*
X41798Y-26348D01*
X43823Y-28163D02*
X42009Y-26348D01*
X44597Y-28163D02*
X43823Y-28163D01*
X50240Y-31958D02*
X47237Y-31958D01*
X56445Y-38163D02*
X50240Y-31958D01*
X56642Y-38163D02*
X56445Y-38163D01*
G54D21*
X46100Y-53500D02*
X46600Y-54000D01*
X46100Y-47784D02*
X46100Y-53500D01*
X33700Y-35384D02*
X46100Y-47784D01*
X33700Y-35200D02*
X33700Y-35384D01*
X63446Y-46541D02*
X63446Y-36086D01*
X55601Y-54387D02*
X63446Y-46541D01*
X51487Y-54387D02*
X55601Y-54387D01*
X51100Y-54000D02*
X51487Y-54387D01*
X45004Y-54115D02*
X45119Y-54000D01*
X25863Y-54115D02*
X45004Y-54115D01*
X23133Y-51384D02*
X25863Y-54115D01*
X23133Y-39375D02*
X23133Y-51384D01*
X21200Y-37442D02*
X23133Y-39375D01*
X21200Y-31700D02*
X21200Y-37442D01*
X20700Y-31200D02*
X21200Y-31700D01*
X45600Y-54000D02*
X45359Y-54000D01*
X45359Y-54000D02*
X45119Y-54000D01*
X49139Y-54480D02*
X49619Y-54000D01*
X45840Y-54480D02*
X49139Y-54480D01*
X45359Y-54000D02*
X45840Y-54480D01*
X50100Y-54000D02*
X49619Y-54000D01*
G54D20*
X74945Y-32743D02*
X74500Y-33189D01*
X74945Y-29134D02*
X74945Y-32743D01*
X74500Y-28689D02*
X74945Y-29134D01*
X21000Y-28250D02*
X21430Y-28250D01*
X21715Y-28534D02*
X21430Y-28250D01*
X21700Y-28550D02*
X21715Y-28534D01*
X21700Y-31200D02*
X21700Y-28550D01*
X21715Y-28534D02*
X22000Y-28250D01*
X74945Y-33634D02*
X74500Y-33189D01*
X74945Y-37243D02*
X74945Y-33634D01*
X74500Y-37689D02*
X74945Y-37243D01*
X54248Y-39266D02*
X54053Y-39071D01*
X54248Y-41949D02*
X54248Y-39266D01*
X53958Y-39071D02*
X52583Y-37695D01*
X54053Y-39071D02*
X53958Y-39071D01*
X31700Y-48200D02*
X31827Y-48327D01*
X31700Y-37200D02*
X31700Y-48200D01*
X69100Y-33156D02*
X74500Y-27756D01*
X69100Y-45300D02*
X69100Y-33156D01*
X74500Y-27310D02*
X74500Y-27756D01*
X30137Y-34637D02*
X29700Y-34200D01*
X30137Y-49478D02*
X30137Y-34637D01*
X27800Y-51816D02*
X30137Y-49478D01*
X27800Y-53197D02*
X27800Y-51816D01*
X28085Y-53483D02*
X27800Y-53197D01*
X28816Y-53483D02*
X28085Y-53483D01*
X29300Y-53000D02*
X28816Y-53483D01*
X31134Y-34634D02*
X30700Y-34200D01*
X31134Y-49165D02*
X31134Y-34634D01*
X28300Y-52000D02*
X31134Y-49165D01*
X32137Y-34637D02*
X31700Y-34200D01*
X32137Y-48470D02*
X32137Y-34637D01*
X28800Y-51808D02*
X32137Y-48470D01*
X28800Y-52500D02*
X28800Y-51808D01*
X28300Y-53000D02*
X28800Y-52500D01*
X32261Y-33761D02*
X32700Y-34200D01*
X29524Y-33761D02*
X32261Y-33761D01*
X29269Y-34016D02*
X29524Y-33761D01*
X29269Y-50030D02*
X29269Y-34016D01*
X27300Y-52000D02*
X29269Y-50030D01*
X31895Y-32395D02*
X32700Y-33200D01*
X27875Y-32395D02*
X31895Y-32395D01*
X27130Y-33141D02*
X27875Y-32395D01*
X27130Y-33378D02*
X27130Y-33141D01*
X26878Y-33630D02*
X27130Y-33378D01*
X26655Y-33630D02*
X26878Y-33630D01*
X26269Y-34015D02*
X26655Y-33630D01*
X26269Y-50157D02*
X26269Y-34015D01*
X25804Y-50623D02*
X26269Y-50157D01*
X25804Y-53209D02*
X25804Y-50623D01*
X26097Y-53503D02*
X25804Y-53209D01*
X26796Y-53503D02*
X26097Y-53503D01*
X27300Y-53000D02*
X26796Y-53503D01*
X31075Y-32575D02*
X31700Y-33200D01*
X28709Y-32575D02*
X31075Y-32575D01*
X28200Y-33085D02*
X28709Y-32575D01*
X28200Y-33331D02*
X28200Y-33085D01*
X27901Y-33630D02*
X28200Y-33331D01*
X27638Y-33630D02*
X27901Y-33630D01*
X27269Y-33998D02*
X27638Y-33630D01*
X27269Y-37310D02*
X27269Y-33998D01*
X26461Y-38118D02*
X27269Y-37310D01*
X26461Y-51838D02*
X26461Y-38118D01*
X26300Y-52000D02*
X26461Y-51838D01*
X30269Y-32769D02*
X30700Y-33200D01*
X29515Y-32769D02*
X30269Y-32769D01*
X29200Y-33084D02*
X29515Y-32769D01*
X29200Y-33309D02*
X29200Y-33084D01*
X28838Y-33671D02*
X29200Y-33309D01*
X28594Y-33671D02*
X28838Y-33671D01*
X28200Y-34065D02*
X28594Y-33671D01*
X28200Y-43417D02*
X28200Y-34065D01*
X26780Y-44837D02*
X28200Y-43417D01*
X26780Y-52519D02*
X26780Y-44837D01*
X26300Y-53000D02*
X26780Y-52519D01*
X53300Y-22000D02*
X53300Y-21000D01*
X41781Y-27041D02*
X42024Y-26798D01*
X26231Y-27041D02*
X41781Y-27041D01*
X22269Y-31003D02*
X26231Y-27041D01*
X22269Y-36630D02*
X22269Y-31003D01*
X21700Y-37200D02*
X22269Y-36630D01*
X23269Y-36630D02*
X22700Y-37200D01*
X23269Y-31021D02*
X23269Y-36630D01*
X26589Y-27702D02*
X23269Y-31021D01*
X41674Y-27702D02*
X26589Y-27702D01*
X46000Y-21000D02*
X46000Y-22000D01*
X45139Y-20569D02*
X45569Y-21000D01*
X40915Y-20569D02*
X45139Y-20569D01*
X37133Y-24352D02*
X40915Y-20569D01*
X37133Y-25758D02*
X37133Y-24352D01*
X46000Y-21000D02*
X45569Y-21000D01*
G54D21*
X20216Y-27283D02*
X26200Y-21300D01*
X20216Y-36716D02*
X20216Y-27283D01*
X20700Y-37200D02*
X20216Y-36716D01*
X20700Y-40000D02*
X20700Y-37200D01*
X21000Y-40300D02*
X20700Y-40000D01*
X41536Y-26714D02*
X41594Y-26656D01*
X34614Y-26714D02*
X41536Y-26714D01*
X29200Y-21300D02*
X34614Y-26714D01*
G54D20*
X33700Y-48200D02*
X33700Y-37200D01*
X37500Y-52000D02*
X33700Y-48200D01*
X32700Y-48888D02*
X32700Y-37200D01*
X36311Y-52500D02*
X32700Y-48888D01*
X37000Y-52500D02*
X36311Y-52500D01*
X37500Y-53000D02*
X37000Y-52500D01*
X41100Y-22000D02*
X41100Y-22430D01*
X45740Y-27070D02*
X41100Y-22430D01*
X45740Y-29927D02*
X45740Y-27070D01*
X46167Y-30353D02*
X45740Y-29927D01*
X48890Y-30353D02*
X46167Y-30353D01*
X54568Y-36031D02*
X48890Y-30353D01*
X54942Y-36031D02*
X54568Y-36031D01*
X59236Y-40325D02*
X54942Y-36031D01*
X59236Y-43799D02*
X59236Y-40325D01*
X55400Y-53900D02*
X55400Y-52900D01*
X55400Y-52900D02*
X55400Y-52469D01*
X52265Y-34238D02*
X52081Y-34238D01*
X55856Y-37829D02*
X52265Y-34238D01*
X55856Y-52013D02*
X55856Y-37829D01*
X55400Y-52469D02*
X55856Y-52013D01*
X69579Y-45820D02*
X69100Y-46300D01*
X69579Y-37176D02*
X69579Y-45820D01*
X74500Y-32256D02*
X69579Y-37176D01*
X74500Y-31810D02*
X74500Y-32256D01*
X65100Y-21000D02*
X65100Y-22000D01*
X59703Y-27396D02*
X54381Y-27396D01*
X65100Y-22000D02*
X59703Y-27396D01*
X54381Y-33068D02*
X53220Y-34229D01*
X54381Y-27396D02*
X54381Y-33068D01*
X61900Y-21100D02*
X61900Y-22100D01*
X51781Y-24176D02*
X46117Y-29841D01*
X59823Y-24176D02*
X51781Y-24176D01*
X61900Y-22100D02*
X59823Y-24176D01*
X38816Y-53683D02*
X39500Y-53000D01*
X26023Y-53683D02*
X38816Y-53683D01*
X25624Y-53284D02*
X26023Y-53683D01*
X25624Y-50503D02*
X25624Y-53284D01*
X25933Y-50193D02*
X25624Y-50503D01*
X25933Y-37433D02*
X25933Y-50193D01*
X25700Y-37200D02*
X25933Y-37433D01*
X33265Y-31634D02*
X33700Y-31200D01*
X33265Y-48765D02*
X33265Y-31634D01*
X36500Y-52000D02*
X33265Y-48765D01*
X24264Y-34635D02*
X27700Y-31200D01*
X24264Y-52179D02*
X24264Y-34635D01*
X25949Y-53865D02*
X24264Y-52179D01*
X39339Y-53865D02*
X25949Y-53865D01*
X40000Y-53204D02*
X39339Y-53865D01*
X40000Y-52788D02*
X40000Y-53204D01*
X39731Y-52519D02*
X40000Y-52788D01*
X39019Y-52519D02*
X39731Y-52519D01*
X38500Y-52000D02*
X39019Y-52519D01*
X25257Y-43155D02*
X25615Y-43514D01*
X25257Y-34031D02*
X25257Y-43155D01*
X27643Y-31645D02*
X25257Y-34031D01*
X28254Y-31645D02*
X27643Y-31645D01*
X28700Y-31200D02*
X28254Y-31645D01*
X59800Y-52900D02*
X59800Y-53900D01*
X63482Y-54617D02*
X64200Y-53900D01*
X51104Y-54617D02*
X63482Y-54617D01*
X50600Y-54112D02*
X51104Y-54617D01*
X50600Y-51958D02*
X50600Y-54112D01*
X34403Y-35762D02*
X50600Y-51958D01*
X34403Y-31279D02*
X34403Y-35762D01*
X33889Y-30765D02*
X34403Y-31279D01*
X32134Y-30765D02*
X33889Y-30765D01*
X31700Y-31200D02*
X32134Y-30765D01*
X64200Y-53900D02*
X64200Y-52900D01*
X29700Y-43283D02*
X29734Y-43318D01*
X29700Y-37200D02*
X29700Y-43283D01*
X46275Y-44846D02*
X39330Y-37901D01*
X47668Y-44846D02*
X46275Y-44846D01*
X25504Y-30395D02*
X24700Y-31200D01*
X34072Y-30395D02*
X25504Y-30395D01*
X38568Y-34890D02*
X34072Y-30395D01*
X38568Y-38867D02*
X38568Y-34890D01*
X44855Y-45154D02*
X38568Y-38867D01*
X52508Y-45154D02*
X44855Y-45154D01*
X53893Y-43770D02*
X52508Y-45154D01*
X45423Y-45976D02*
X55215Y-45976D01*
X38324Y-38877D02*
X45423Y-45976D01*
X38324Y-34929D02*
X38324Y-38877D01*
X33980Y-30585D02*
X38324Y-34929D01*
X27699Y-30585D02*
X33980Y-30585D01*
X27263Y-31021D02*
X27699Y-30585D01*
X27263Y-31246D02*
X27263Y-31021D01*
X26875Y-31634D02*
X27263Y-31246D01*
X24134Y-31634D02*
X26875Y-31634D01*
X23700Y-31200D02*
X24134Y-31634D01*
X34495Y-46995D02*
X34495Y-38706D01*
X39500Y-52000D02*
X34495Y-46995D01*
X44600Y-52000D02*
X45600Y-53000D01*
X40500Y-52000D02*
X44600Y-52000D01*
X74500Y-36310D02*
X74054Y-36310D01*
X69849Y-40515D02*
X74054Y-36310D01*
X69849Y-46550D02*
X69849Y-40515D01*
X69100Y-47300D02*
X69849Y-46550D01*
X52215Y-37631D02*
X53721Y-36125D01*
X52215Y-43849D02*
X52215Y-37631D01*
X55543Y-42579D02*
X55543Y-38341D01*
X52454Y-45668D02*
X55543Y-42579D01*
M02*
